# MagicaVoxel @ Ephtracy

# group
o Dungeon - Top Variant1

# material
mtllib Medieval Assets-159-Dungeon - Top Variant1.mtl
usemtl palette

# normals
vn 0 0 1
vn 0 0 -1
vn 0 -1 0
vn 0 1 0
vn -1 0 0
vn 1 0 0

# texcoords
vt 0.134766 0.5
vt 0.138672 0.5
vt 0.142578 0.5

# verts
v -41.6 0 -13.4
v -41.6 0.1 -13.4
v -41.2 0 -13.4
v -41.2 0.1 -13.4
v -41.1 0 -13.4
v -41.1 0.1 -13.4
v -40.2 0 -13.4
v -40.2 0.1 -13.4
v -38.8 0 -13.4
v -38.8 0.1 -13.4
v -37.5 0 -13.4
v -37.5 0.1 -13.4
v -41.5 0.1 -13.5
v -41.5 0.2 -13.5
v -41.2 0.1 -13.5
v -41.2 0.2 -13.5
v -41.1 0.1 -13.5
v -40.9 0.1 -13.5
v -40.9 0.2 -13.5
v -40.4 0.1 -13.5
v -40.4 0.2 -13.5
v -40.2 0.1 -13.5
v -39.9 0.1 -13.5
v -39.9 0.2 -13.5
v -39.7 0.1 -13.5
v -39.7 0.2 -13.5
v -39.4 0.1 -13.5
v -39.4 0.2 -13.5
v -39.1 0.1 -13.5
v -39.1 0.2 -13.5
v -38.8 0.1 -13.5
v -38.6 0.1 -13.5
v -38.6 0.2 -13.5
v -38.1 0.1 -13.5
v -38.1 0.2 -13.5
v -38 0.1 -13.5
v -38 0.2 -13.5
v -37.6 0.1 -13.5
v -37.6 0.2 -13.5
v -41.5 0.1 -14.1
v -41.5 0.2 -14.1
v -41.1 0.1 -14.1
v -41.1 0.2 -14.1
v -41 0.1 -14.1
v -41 0.2 -14.1
v -40.8 0.1 -14.1
v -40.8 0.2 -14.1
v -40.6 0.1 -14.1
v -40.6 0.2 -14.1
v -40.3 0.1 -14.1
v -40.3 0.2 -14.1
v -40.1 0.1 -14.1
v -40.1 0.2 -14.1
v -40 0.1 -14.1
v -40 0.2 -14.1
v -39.9 0.1 -14.1
v -39.9 0.2 -14.1
v -39.8 0.1 -14.1
v -39.4 0.1 -14.1
v -39.4 0.2 -14.1
v -39.2 0.1 -14.1
v -39.2 0.2 -14.1
v -39 0.1 -14.1
v -39 0.2 -14.1
v -38.9 0.1 -14.1
v -38.8 0.1 -14.1
v -38.8 0.2 -14.1
v -38.5 0.1 -14.1
v -38.5 0.2 -14.1
v -38 0.1 -14.1
v -38 0.2 -14.1
v -37.7 0.1 -14.1
v -37.7 0.2 -14.1
v -37.6 0.1 -14.1
v -37.6 0.2 -14.1
v -41.6 0 -14.2
v -41.6 0.1 -14.2
v -40 0 -14.2
v -40 0.1 -14.2
v -39.8 0 -14.2
v -39.8 0.1 -14.2
v -39.4 0 -14.2
v -39.4 0.1 -14.2
v -39.2 0 -14.2
v -39.2 0.1 -14.2
v -38.9 0 -14.2
v -38.9 0.1 -14.2
v -38.5 0 -14.2
v -38.5 0.1 -14.2
v -37.6 0 -14.2
v -37.6 0.1 -14.2
v -37.5 0 -14.2
v -37.5 0.1 -14.2
v -41.6 0 -13.4
v -41.2 0 -13.4
v -41.1 0 -13.4
v -40.2 0 -13.4
v -38.8 0 -13.4
v -37.5 0 -13.4
v -41.2 0 -13.5
v -41.1 0 -13.5
v -40.2 0 -13.5
v -39.4 0 -13.5
v -39.2 0 -13.5
v -38.8 0 -13.5
v -38 0 -13.5
v -37.9 0 -13.5
v -41.2 0 -13.6
v -41 0 -13.6
v -40.4 0 -13.6
v -39.9 0 -13.6
v -39.5 0 -13.6
v -39.4 0 -13.6
v -39.3 0 -13.6
v -39.2 0 -13.6
v -41.6 0 -13.7
v -41.2 0 -13.7
v -41.1 0 -13.7
v -41 0 -13.7
v -40.6 0 -13.7
v -40.4 0 -13.7
v -39.9 0 -13.7
v -39.4 0 -13.7
v -39.3 0 -13.7
v -38.1 0 -13.7
v -38 0 -13.7
v -37.9 0 -13.7
v -40.6 0 -13.8
v -40.5 0 -13.8
v -40.4 0 -13.8
v -40.2 0 -13.8
v -39.6 0 -13.8
v -39.5 0 -13.8
v -39.1 0 -13.8
v -38.9 0 -13.8
v -38.3 0 -13.8
v -38.1 0 -13.8
v -38 0 -13.8
v -41.6 0 -13.9
v -41.5 0 -13.9
v -41.3 0 -13.9
v -41.1 0 -13.9
v -41 0 -13.9
v -40.5 0 -13.9
v -40.2 0 -13.9
v -40 0 -13.9
v -39.6 0 -13.9
v -39.5 0 -13.9
v -39.4 0 -13.9
v -39.1 0 -13.9
v -39 0 -13.9
v -38.9 0 -13.9
v -38.4 0 -13.9
v -38.3 0 -13.9
v -38.1 0 -13.9
v -41.6 0 -14
v -41.5 0 -14
v -41.3 0 -14
v -41.1 0 -14
v -40.7 0 -14
v -40.2 0 -14
v -40 0 -14
v -39.5 0 -14
v -39 0 -14
v -38.5 0 -14
v -38.4 0 -14
v -38.3 0 -14
v -37.6 0 -14
v -37.5 0 -14
v -41.6 0 -14.1
v -41.1 0 -14.1
v -40.7 0 -14.1
v -40 0 -14.1
v -39.8 0 -14.1
v -39.5 0 -14.1
v -39.4 0 -14.1
v -39.2 0 -14.1
v -38.9 0 -14.1
v -38.5 0 -14.1
v -38.4 0 -14.1
v -41.6 0 -14.2
v -40 0 -14.2
v -39.8 0 -14.2
v -39.4 0 -14.2
v -39.2 0 -14.2
v -38.9 0 -14.2
v -38.5 0 -14.2
v -37.6 0 -14.2
v -37.5 0 -14.2
v -41.6 0.1 -13.4
v -41.2 0.1 -13.4
v -41.1 0.1 -13.4
v -40.2 0.1 -13.4
v -38.8 0.1 -13.4
v -37.5 0.1 -13.4
v -41.5 0.1 -13.5
v -41.2 0.1 -13.5
v -41.1 0.1 -13.5
v -40.9 0.1 -13.5
v -40.4 0.1 -13.5
v -40.2 0.1 -13.5
v -39.9 0.1 -13.5
v -39.7 0.1 -13.5
v -39.4 0.1 -13.5
v -39.1 0.1 -13.5
v -38.8 0.1 -13.5
v -38.6 0.1 -13.5
v -38.1 0.1 -13.5
v -38 0.1 -13.5
v -37.6 0.1 -13.5
v -41.6 0.1 -13.7
v -41.5 0.1 -13.7
v -41.5 0.1 -13.8
v -37.6 0.1 -13.8
v -41.6 0.1 -13.9
v -41.5 0.1 -13.9
v -37.6 0.1 -13.9
v -41.6 0.1 -14
v -41.5 0.1 -14
v -37.6 0.1 -14
v -37.5 0.1 -14
v -41.6 0.1 -14.1
v -41.5 0.1 -14.1
v -41.1 0.1 -14.1
v -41 0.1 -14.1
v -40.8 0.1 -14.1
v -40.6 0.1 -14.1
v -40.3 0.1 -14.1
v -40.1 0.1 -14.1
v -40 0.1 -14.1
v -39.9 0.1 -14.1
v -39.8 0.1 -14.1
v -39.4 0.1 -14.1
v -39.2 0.1 -14.1
v -39 0.1 -14.1
v -38.9 0.1 -14.1
v -38.8 0.1 -14.1
v -38.5 0.1 -14.1
v -38 0.1 -14.1
v -37.7 0.1 -14.1
v -37.6 0.1 -14.1
v -41.6 0.1 -14.2
v -40 0.1 -14.2
v -39.8 0.1 -14.2
v -39.4 0.1 -14.2
v -39.2 0.1 -14.2
v -38.9 0.1 -14.2
v -38.5 0.1 -14.2
v -37.6 0.1 -14.2
v -37.5 0.1 -14.2
v -41.5 0.2 -13.5
v -41.2 0.2 -13.5
v -40.9 0.2 -13.5
v -40.4 0.2 -13.5
v -39.9 0.2 -13.5
v -39.7 0.2 -13.5
v -39.4 0.2 -13.5
v -39.1 0.2 -13.5
v -38.6 0.2 -13.5
v -38.1 0.2 -13.5
v -38 0.2 -13.5
v -37.6 0.2 -13.5
v -41.2 0.2 -13.6
v -40.9 0.2 -13.6
v -40.8 0.2 -13.6
v -40.4 0.2 -13.6
v -39.9 0.2 -13.6
v -39.7 0.2 -13.6
v -39.4 0.2 -13.6
v -39.1 0.2 -13.6
v -39 0.2 -13.6
v -38.9 0.2 -13.6
v -38.7 0.2 -13.6
v -38.6 0.2 -13.6
v -38.5 0.2 -13.6
v -38 0.2 -13.6
v -37.9 0.2 -13.6
v -41.5 0.2 -13.7
v -41.4 0.2 -13.7
v -40.9 0.2 -13.7
v -40.8 0.2 -13.7
v -40.7 0.2 -13.7
v -39.9 0.2 -13.7
v -39.7 0.2 -13.7
v -39.5 0.2 -13.7
v -39.4 0.2 -13.7
v -39.1 0.2 -13.7
v -39 0.2 -13.7
v -38.7 0.2 -13.7
v -38.6 0.2 -13.7
v -38.5 0.2 -13.7
v -38.4 0.2 -13.7
v -38.1 0.2 -13.7
v -38 0.2 -13.7
v -41.5 0.2 -13.8
v -41.4 0.2 -13.8
v -41.2 0.2 -13.8
v -40.8 0.2 -13.8
v -40.7 0.2 -13.8
v -40.5 0.2 -13.8
v -39.7 0.2 -13.8
v -39.5 0.2 -13.8
v -39.1 0.2 -13.8
v -39 0.2 -13.8
v -38.9 0.2 -13.8
v -38.8 0.2 -13.8
v -38.6 0.2 -13.8
v -38.5 0.2 -13.8
v -38 0.2 -13.8
v -37.9 0.2 -13.8
v -37.8 0.2 -13.8
v -37.6 0.2 -13.8
v -41.4 0.2 -13.9
v -41.2 0.2 -13.9
v -41 0.2 -13.9
v -40.7 0.2 -13.9
v -40.5 0.2 -13.9
v -40.2 0.2 -13.9
v -38.4 0.2 -13.9
v -38.3 0.2 -13.9
v -38 0.2 -13.9
v -37.8 0.2 -13.9
v -37.7 0.2 -13.9
v -37.6 0.2 -13.9
v -41.2 0.2 -14
v -41.1 0.2 -14
v -40.8 0.2 -14
v -40.6 0.2 -14
v -40.5 0.2 -14
v -40.3 0.2 -14
v -40.2 0.2 -14
v -40.1 0.2 -14
v -40 0.2 -14
v -39.9 0.2 -14
v -39.4 0.2 -14
v -39.2 0.2 -14
v -38.3 0.2 -14
v -38 0.2 -14
v -37.7 0.2 -14
v -37.6 0.2 -14
v -41.5 0.2 -14.1
v -41.1 0.2 -14.1
v -41 0.2 -14.1
v -40.8 0.2 -14.1
v -40.6 0.2 -14.1
v -40.3 0.2 -14.1
v -40.1 0.2 -14.1
v -40 0.2 -14.1
v -39.9 0.2 -14.1
v -39.4 0.2 -14.1
v -39.2 0.2 -14.1
v -39 0.2 -14.1
v -38.8 0.2 -14.1
v -38.5 0.2 -14.1
v -38 0.2 -14.1
v -37.7 0.2 -14.1
v -37.6 0.2 -14.1
v -41.6 0 -13.4
v -41.6 0 -13.7
v -41.6 0 -13.9
v -41.6 0 -14
v -41.6 0 -14.1
v -41.6 0 -14.2
v -41.6 0.1 -13.4
v -41.6 0.1 -13.7
v -41.6 0.1 -13.9
v -41.6 0.1 -14
v -41.6 0.1 -14.1
v -41.6 0.1 -14.2
v -41.5 0.1 -13.5
v -41.5 0.1 -13.7
v -41.5 0.1 -13.8
v -41.5 0.1 -13.9
v -41.5 0.1 -14
v -41.5 0.1 -14.1
v -41.5 0.2 -13.5
v -41.5 0.2 -13.7
v -41.5 0.2 -13.8
v -41.5 0.2 -14.1
v -37.6 0.1 -13.5
v -37.6 0.1 -13.8
v -37.6 0.1 -13.9
v -37.6 0.1 -14
v -37.6 0.1 -14.1
v -37.6 0.2 -13.5
v -37.6 0.2 -13.8
v -37.6 0.2 -13.9
v -37.6 0.2 -14
v -37.6 0.2 -14.1
v -37.5 0 -13.4
v -37.5 0 -14
v -37.5 0 -14.2
v -37.5 0.1 -13.4
v -37.5 0.1 -14
v -37.5 0.1 -14.2

# faces
f 3/3/1 2/3/1 1/3/1
f 4/3/1 2/3/1 3/3/1
f 5/2/1 4/2/1 3/2/1
f 6/2/1 4/2/1 5/2/1
f 7/3/1 6/3/1 5/3/1
f 8/3/1 6/3/1 7/3/1
f 9/2/1 8/2/1 7/2/1
f 10/2/1 8/2/1 9/2/1
f 11/3/1 10/3/1 9/3/1
f 12/3/1 10/3/1 11/3/1
f 15/3/1 14/3/1 13/3/1
f 16/3/1 14/3/1 15/3/1
f 17/2/1 16/2/1 15/2/1
f 18/2/1 16/2/1 17/2/1
f 19/2/1 16/2/1 18/2/1
f 20/3/1 19/3/1 18/3/1
f 21/3/1 19/3/1 20/3/1
f 22/2/1 21/2/1 20/2/1
f 23/2/1 21/2/1 22/2/1
f 24/2/1 21/2/1 23/2/1
f 25/3/1 24/3/1 23/3/1
f 26/3/1 24/3/1 25/3/1
f 27/2/1 26/2/1 25/2/1
f 28/2/1 26/2/1 27/2/1
f 29/3/1 28/3/1 27/3/1
f 30/3/1 28/3/1 29/3/1
f 31/2/1 30/2/1 29/2/1
f 32/2/1 30/2/1 31/2/1
f 33/2/1 30/2/1 32/2/1
f 34/3/1 33/3/1 32/3/1
f 35/3/1 33/3/1 34/3/1
f 36/2/1 35/2/1 34/2/1
f 37/2/1 35/2/1 36/2/1
f 38/3/1 37/3/1 36/3/1
f 39/3/1 37/3/1 38/3/1
f 40/3/2 41/3/2 42/3/2
f 42/3/2 41/3/2 43/3/2
f 42/2/2 43/2/2 44/2/2
f 44/2/2 43/2/2 45/2/2
f 44/3/2 45/3/2 46/3/2
f 46/3/2 45/3/2 47/3/2
f 46/2/2 47/2/2 48/2/2
f 48/2/2 47/2/2 49/2/2
f 48/3/2 49/3/2 50/3/2
f 50/3/2 49/3/2 51/3/2
f 50/2/2 51/2/2 52/2/2
f 52/2/2 51/2/2 53/2/2
f 52/3/2 53/3/2 54/3/2
f 54/3/2 53/3/2 55/3/2
f 54/2/2 55/2/2 56/2/2
f 56/2/2 55/2/2 57/2/2
f 56/3/2 57/3/2 58/3/2
f 58/3/2 57/3/2 59/3/2
f 59/3/2 57/3/2 60/3/2
f 59/2/2 60/2/2 61/2/2
f 61/2/2 60/2/2 62/2/2
f 61/3/2 62/3/2 63/3/2
f 63/3/2 62/3/2 64/3/2
f 63/2/2 64/2/2 65/2/2
f 65/2/2 64/2/2 66/2/2
f 66/2/2 64/2/2 67/2/2
f 66/3/2 67/3/2 68/3/2
f 68/3/2 67/3/2 69/3/2
f 68/2/2 69/2/2 70/2/2
f 70/2/2 69/2/2 71/2/2
f 70/3/2 71/3/2 72/3/2
f 72/3/2 71/3/2 73/3/2
f 72/2/2 73/2/2 74/2/2
f 74/2/2 73/2/2 75/2/2
f 76/3/2 77/3/2 78/3/2
f 78/3/2 77/3/2 79/3/2
f 78/2/2 79/2/2 80/2/2
f 80/2/2 79/2/2 81/2/2
f 80/3/2 81/3/2 82/3/2
f 82/3/2 81/3/2 83/3/2
f 82/2/2 83/2/2 84/2/2
f 84/2/2 83/2/2 85/2/2
f 84/3/2 85/3/2 86/3/2
f 86/3/2 85/3/2 87/3/2
f 86/2/2 87/2/2 88/2/2
f 88/2/2 87/2/2 89/2/2
f 88/3/2 89/3/2 90/3/2
f 90/3/2 89/3/2 91/3/2
f 90/2/2 91/2/2 92/2/2
f 92/2/2 91/2/2 93/2/2
f 100/3/3 95/3/3 94/3/3
f 100/2/3 96/2/3 95/2/3
f 101/3/3 97/3/3 96/3/3
f 101/2/3 96/2/3 100/2/3
f 102/2/3 98/2/3 97/2/3
f 102/3/3 97/3/3 101/3/3
f 103/2/3 98/2/3 102/2/3
f 104/2/3 98/2/3 103/2/3
f 105/3/3 99/3/3 98/3/3
f 105/2/3 98/2/3 104/2/3
f 106/3/3 99/3/3 105/3/3
f 107/3/3 99/3/3 106/3/3
f 108/3/3 101/3/3 100/3/3
f 108/3/3 100/3/3 94/3/3
f 108/3/3 102/3/3 101/3/3
f 108/3/3 103/3/3 102/3/3
f 109/3/3 103/3/3 108/3/3
f 110/3/3 103/3/3 109/3/3
f 111/3/3 103/3/3 110/3/3
f 112/3/3 103/3/3 111/3/3
f 113/2/3 104/2/3 103/2/3
f 113/3/3 103/3/3 112/3/3
f 114/2/3 104/2/3 113/2/3
f 115/3/3 106/3/3 105/3/3
f 115/2/3 104/2/3 114/2/3
f 115/3/3 105/3/3 104/3/3
f 116/3/3 108/3/3 94/3/3
f 117/2/3 109/2/3 108/2/3
f 117/3/3 108/3/3 116/3/3
f 118/2/3 109/2/3 117/2/3
f 119/3/3 110/3/3 109/3/3
f 119/2/3 109/2/3 118/2/3
f 120/3/3 110/3/3 119/3/3
f 121/2/3 111/2/3 110/2/3
f 121/3/3 110/3/3 120/3/3
f 122/3/3 112/3/3 111/3/3
f 122/2/3 111/2/3 121/2/3
f 123/2/3 114/2/3 113/2/3
f 123/2/3 113/2/3 112/2/3
f 124/3/3 115/3/3 114/3/3
f 124/2/3 114/2/3 123/2/3
f 125/3/3 106/3/3 115/3/3
f 125/3/3 115/3/3 124/3/3
f 126/2/3 107/2/3 106/2/3
f 126/3/3 106/3/3 125/3/3
f 127/3/3 99/3/3 107/3/3
f 127/2/3 107/2/3 126/2/3
f 128/2/3 121/2/3 120/2/3
f 128/3/3 120/3/3 119/3/3
f 129/2/3 121/2/3 128/2/3
f 130/3/3 122/3/3 121/3/3
f 130/2/3 121/2/3 129/2/3
f 131/3/3 122/3/3 130/3/3
f 132/3/3 112/3/3 122/3/3
f 132/3/3 122/3/3 131/3/3
f 133/2/3 123/2/3 112/2/3
f 133/3/3 112/3/3 132/3/3
f 134/3/3 125/3/3 124/3/3
f 134/3/3 124/3/3 123/3/3
f 135/3/3 125/3/3 134/3/3
f 136/3/3 125/3/3 135/3/3
f 137/2/3 126/2/3 125/2/3
f 137/3/3 125/3/3 136/3/3
f 138/3/3 127/3/3 126/3/3
f 138/2/3 126/2/3 137/2/3
f 139/2/3 118/2/3 117/2/3
f 139/2/3 117/2/3 116/2/3
f 140/2/3 118/2/3 139/2/3
f 141/2/3 118/2/3 140/2/3
f 142/1/3 119/1/3 118/1/3
f 142/2/3 118/2/3 141/2/3
f 143/3/3 129/3/3 128/3/3
f 143/1/3 119/1/3 142/1/3
f 143/3/3 128/3/3 119/3/3
f 144/2/3 131/2/3 130/2/3
f 144/3/3 129/3/3 143/3/3
f 144/2/3 130/2/3 129/2/3
f 145/3/3 132/3/3 131/3/3
f 145/2/3 131/2/3 144/2/3
f 146/3/3 132/3/3 145/3/3
f 147/2/3 133/2/3 132/2/3
f 147/3/3 132/3/3 146/3/3
f 148/2/3 123/2/3 133/2/3
f 148/2/3 133/2/3 147/2/3
f 149/3/3 134/3/3 123/3/3
f 149/2/3 123/2/3 148/2/3
f 150/2/3 135/2/3 134/2/3
f 150/3/3 134/3/3 149/3/3
f 151/2/3 135/2/3 150/2/3
f 152/3/3 136/3/3 135/3/3
f 152/2/3 135/2/3 151/2/3
f 153/3/3 136/3/3 152/3/3
f 154/2/3 137/2/3 136/2/3
f 154/3/3 136/3/3 153/3/3
f 155/3/3 138/3/3 137/3/3
f 155/2/3 137/2/3 154/2/3
f 156/3/3 140/3/3 139/3/3
f 157/2/3 141/2/3 140/2/3
f 157/3/3 140/3/3 156/3/3
f 158/3/3 143/3/3 142/3/3
f 158/2/3 141/2/3 157/2/3
f 158/3/3 142/3/3 141/3/3
f 158/3/3 144/3/3 143/3/3
f 158/3/3 145/3/3 144/3/3
f 159/3/3 145/3/3 158/3/3
f 160/3/3 145/3/3 159/3/3
f 161/2/3 146/2/3 145/2/3
f 161/3/3 145/3/3 160/3/3
f 162/3/3 147/3/3 146/3/3
f 162/2/3 146/2/3 161/2/3
f 162/3/3 148/3/3 147/3/3
f 163/2/3 151/2/3 150/2/3
f 163/3/3 148/3/3 162/3/3
f 163/2/3 149/2/3 148/2/3
f 163/2/3 150/2/3 149/2/3
f 164/3/3 153/3/3 152/3/3
f 164/2/3 151/2/3 163/2/3
f 164/3/3 152/3/3 151/3/3
f 165/3/3 153/3/3 164/3/3
f 166/2/3 154/2/3 153/2/3
f 166/3/3 153/3/3 165/3/3
f 167/3/3 155/3/3 154/3/3
f 167/2/3 154/2/3 166/2/3
f 168/3/3 99/3/3 127/3/3
f 168/3/3 155/3/3 167/3/3
f 168/3/3 127/3/3 138/3/3
f 168/3/3 138/3/3 155/3/3
f 169/3/3 99/3/3 168/3/3
f 170/2/3 157/2/3 156/2/3
f 170/2/3 158/2/3 157/2/3
f 170/2/3 159/2/3 158/2/3
f 171/3/3 160/3/3 159/3/3
f 171/2/3 159/2/3 170/2/3
f 172/2/3 162/2/3 161/2/3
f 172/3/3 160/3/3 171/3/3
f 172/2/3 161/2/3 160/2/3
f 172/2/3 163/2/3 162/2/3
f 173/2/3 163/2/3 172/2/3
f 174/2/3 163/2/3 173/2/3
f 175/3/3 164/3/3 163/3/3
f 175/2/3 163/2/3 174/2/3
f 175/3/3 165/3/3 164/3/3
f 176/3/3 165/3/3 175/3/3
f 177/3/3 165/3/3 176/3/3
f 178/3/3 165/3/3 177/3/3
f 179/2/3 166/2/3 165/2/3
f 179/3/3 165/3/3 178/3/3
f 180/3/3 167/3/3 166/3/3
f 180/2/3 166/2/3 179/2/3
f 180/3/3 168/3/3 167/3/3
f 181/3/3 171/3/3 170/3/3
f 181/3/3 173/3/3 172/3/3
f 181/3/3 172/3/3 171/3/3
f 182/2/3 174/2/3 173/2/3
f 182/3/3 173/3/3 181/3/3
f 183/3/3 176/3/3 175/3/3
f 183/2/3 174/2/3 182/2/3
f 183/3/3 175/3/3 174/3/3
f 184/2/3 177/2/3 176/2/3
f 184/3/3 176/3/3 183/3/3
f 185/3/3 178/3/3 177/3/3
f 185/2/3 177/2/3 184/2/3
f 186/2/3 179/2/3 178/2/3
f 186/3/3 178/3/3 185/3/3
f 187/3/3 180/3/3 179/3/3
f 187/2/3 179/2/3 186/2/3
f 188/3/3 168/3/3 180/3/3
f 188/3/3 180/3/3 187/3/3
f 188/2/3 169/2/3 168/2/3
f 189/2/3 169/2/3 188/2/3
f 190/3/4 191/3/4 196/3/4
f 191/2/4 192/2/4 197/2/4
f 196/3/4 191/3/4 197/3/4
f 192/3/4 193/3/4 198/3/4
f 197/2/4 192/2/4 198/2/4
f 198/3/4 193/3/4 199/3/4
f 199/3/4 193/3/4 200/3/4
f 193/2/4 194/2/4 201/2/4
f 200/3/4 193/3/4 201/3/4
f 201/2/4 194/2/4 202/2/4
f 202/2/4 194/2/4 203/2/4
f 203/2/4 194/2/4 204/2/4
f 204/2/4 194/2/4 205/2/4
f 194/3/4 195/3/4 206/3/4
f 205/2/4 194/2/4 206/2/4
f 206/3/4 195/3/4 207/3/4
f 207/3/4 195/3/4 208/3/4
f 208/3/4 195/3/4 209/3/4
f 209/3/4 195/3/4 210/3/4
f 190/3/4 196/3/4 211/3/4
f 211/3/4 196/3/4 212/3/4
f 211/2/4 212/2/4 213/2/4
f 210/3/4 195/3/4 214/3/4
f 211/2/4 213/2/4 215/2/4
f 215/2/4 213/2/4 216/2/4
f 214/3/4 195/3/4 217/3/4
f 215/3/4 216/3/4 218/3/4
f 218/3/4 216/3/4 219/3/4
f 217/3/4 195/3/4 220/3/4
f 220/3/4 195/3/4 221/3/4
f 218/2/4 219/2/4 222/2/4
f 222/2/4 219/2/4 223/2/4
f 220/2/4 221/2/4 241/2/4
f 222/3/4 223/3/4 242/3/4
f 223/3/4 224/3/4 242/3/4
f 224/3/4 225/3/4 242/3/4
f 225/3/4 226/3/4 242/3/4
f 226/3/4 227/3/4 242/3/4
f 227/3/4 228/3/4 242/3/4
f 228/3/4 229/3/4 242/3/4
f 229/3/4 230/3/4 242/3/4
f 230/2/4 231/2/4 243/2/4
f 242/3/4 230/3/4 243/3/4
f 231/2/4 232/2/4 243/2/4
f 232/3/4 233/3/4 244/3/4
f 243/2/4 232/2/4 244/2/4
f 233/2/4 234/2/4 245/2/4
f 244/3/4 233/3/4 245/3/4
f 235/3/4 236/3/4 246/3/4
f 245/2/4 234/2/4 246/2/4
f 234/3/4 235/3/4 246/3/4
f 237/2/4 238/2/4 247/2/4
f 246/3/4 236/3/4 247/3/4
f 236/2/4 237/2/4 247/2/4
f 239/3/4 240/3/4 248/3/4
f 247/2/4 238/2/4 248/2/4
f 240/3/4 241/3/4 248/3/4
f 238/3/4 239/3/4 248/3/4
f 241/2/4 221/2/4 249/2/4
f 248/3/4 241/3/4 249/3/4
f 249/2/4 221/2/4 250/2/4
f 251/3/4 252/3/4 263/3/4
f 252/2/4 253/2/4 263/2/4
f 253/3/4 254/3/4 264/3/4
f 263/2/4 253/2/4 264/2/4
f 264/3/4 254/3/4 265/3/4
f 254/2/4 255/2/4 266/2/4
f 265/3/4 254/3/4 266/3/4
f 255/3/4 256/3/4 267/3/4
f 266/2/4 255/2/4 267/2/4
f 256/2/4 257/2/4 268/2/4
f 267/3/4 256/3/4 268/3/4
f 257/3/4 258/3/4 269/3/4
f 268/2/4 257/2/4 269/2/4
f 258/2/4 259/2/4 270/2/4
f 269/3/4 258/3/4 270/3/4
f 270/2/4 259/2/4 271/2/4
f 271/2/4 259/2/4 272/2/4
f 272/2/4 259/2/4 273/2/4
f 259/3/4 260/3/4 274/3/4
f 273/2/4 259/2/4 274/2/4
f 274/3/4 260/3/4 275/3/4
f 261/3/4 262/3/4 276/3/4
f 260/2/4 261/2/4 276/2/4
f 276/3/4 262/3/4 277/3/4
f 251/3/4 263/3/4 278/3/4
f 263/3/4 264/3/4 278/3/4
f 278/3/4 264/3/4 279/3/4
f 264/2/4 265/2/4 280/2/4
f 279/3/4 264/3/4 280/3/4
f 265/3/4 266/3/4 281/3/4
f 280/2/4 265/2/4 281/2/4
f 266/3/4 267/3/4 281/3/4
f 281/3/4 267/3/4 282/3/4
f 267/2/4 268/2/4 283/2/4
f 282/3/4 267/3/4 283/3/4
f 268/3/4 269/3/4 284/3/4
f 283/2/4 268/2/4 284/2/4
f 284/3/4 269/3/4 285/3/4
f 269/2/4 270/2/4 286/2/4
f 285/3/4 269/3/4 286/3/4
f 270/3/4 271/3/4 287/3/4
f 286/2/4 270/2/4 287/2/4
f 271/2/4 272/2/4 288/2/4
f 287/3/4 271/3/4 288/3/4
f 274/2/4 275/2/4 289/2/4
f 272/3/4 273/3/4 289/3/4
f 273/2/4 274/2/4 289/2/4
f 289/2/4 275/2/4 290/2/4
f 275/3/4 260/3/4 291/3/4
f 290/2/4 275/2/4 291/2/4
f 291/3/4 260/3/4 292/3/4
f 276/2/4 277/2/4 293/2/4
f 292/3/4 260/3/4 293/3/4
f 260/2/4 276/2/4 293/2/4
f 293/2/4 277/2/4 294/2/4
f 278/2/4 279/2/4 295/2/4
f 279/3/4 280/3/4 296/3/4
f 295/2/4 279/2/4 296/2/4
f 280/3/4 281/3/4 296/3/4
f 296/3/4 281/3/4 297/3/4
f 281/2/4 282/2/4 298/2/4
f 297/3/4 281/3/4 298/3/4
f 282/3/4 283/3/4 299/3/4
f 298/2/4 282/2/4 299/2/4
f 283/3/4 284/3/4 299/3/4
f 299/3/4 284/3/4 300/3/4
f 284/2/4 285/2/4 301/2/4
f 300/3/4 284/3/4 301/3/4
f 285/3/4 286/3/4 302/3/4
f 301/2/4 285/2/4 302/2/4
f 286/3/4 287/3/4 302/3/4
f 287/2/4 288/2/4 303/2/4
f 302/3/4 287/3/4 303/3/4
f 288/2/4 272/2/4 304/2/4
f 303/2/4 288/2/4 304/2/4
f 289/3/4 290/3/4 305/3/4
f 304/2/4 272/2/4 305/2/4
f 272/3/4 289/3/4 305/3/4
f 305/3/4 290/3/4 306/3/4
f 291/2/4 292/2/4 307/2/4
f 306/3/4 290/3/4 307/3/4
f 290/2/4 291/2/4 307/2/4
f 307/2/4 292/2/4 308/2/4
f 294/2/4 277/2/4 309/2/4
f 293/3/4 294/3/4 309/3/4
f 292/3/4 293/3/4 309/3/4
f 277/3/4 262/3/4 310/3/4
f 309/2/4 277/2/4 310/2/4
f 310/3/4 262/3/4 311/3/4
f 311/3/4 262/3/4 312/3/4
f 296/2/4 297/2/4 313/2/4
f 295/3/4 296/3/4 313/3/4
f 297/3/4 298/3/4 314/3/4
f 313/2/4 297/2/4 314/2/4
f 298/3/4 299/3/4 314/3/4
f 314/3/4 299/3/4 315/3/4
f 299/2/4 300/2/4 316/2/4
f 315/3/4 299/3/4 316/3/4
f 303/3/4 304/3/4 317/3/4
f 316/2/4 300/2/4 317/2/4
f 302/3/4 303/3/4 317/3/4
f 301/3/4 302/3/4 317/3/4
f 300/3/4 301/3/4 317/3/4
f 317/3/4 304/3/4 318/3/4
f 292/3/4 309/3/4 319/3/4
f 308/2/4 292/2/4 319/2/4
f 309/3/4 310/3/4 319/3/4
f 310/3/4 311/3/4 319/3/4
f 319/3/4 311/3/4 320/3/4
f 320/3/4 311/3/4 321/3/4
f 311/2/4 312/2/4 322/2/4
f 321/3/4 311/3/4 322/3/4
f 322/2/4 312/2/4 323/2/4
f 323/2/4 312/2/4 324/2/4
f 313/3/4 314/3/4 325/3/4
f 314/2/4 315/2/4 325/2/4
f 325/2/4 315/2/4 326/2/4
f 315/3/4 316/3/4 327/3/4
f 316/3/4 317/3/4 327/3/4
f 327/3/4 317/3/4 328/3/4
f 317/2/4 318/2/4 329/2/4
f 328/3/4 317/3/4 329/3/4
f 329/2/4 318/2/4 330/2/4
f 318/3/4 304/3/4 331/3/4
f 330/2/4 318/2/4 331/2/4
f 331/3/4 304/3/4 332/3/4
f 332/3/4 304/3/4 333/3/4
f 333/3/4 304/3/4 334/3/4
f 334/3/4 304/3/4 335/3/4
f 335/3/4 304/3/4 336/3/4
f 320/3/4 321/3/4 337/3/4
f 319/2/4 320/2/4 337/2/4
f 321/2/4 322/2/4 338/2/4
f 337/3/4 321/3/4 338/3/4
f 322/2/4 323/2/4 338/2/4
f 323/3/4 324/3/4 339/3/4
f 338/2/4 323/2/4 339/2/4
f 339/3/4 324/3/4 340/3/4
f 295/3/4 313/3/4 341/3/4
f 325/3/4 326/3/4 341/3/4
f 313/3/4 325/3/4 341/3/4
f 326/2/4 315/2/4 342/2/4
f 341/3/4 326/3/4 342/3/4
f 315/3/4 327/3/4 343/3/4
f 342/2/4 315/2/4 343/2/4
f 327/2/4 328/2/4 344/2/4
f 343/3/4 327/3/4 344/3/4
f 329/3/4 330/3/4 345/3/4
f 344/2/4 328/2/4 345/2/4
f 328/3/4 329/3/4 345/3/4
f 330/2/4 331/2/4 346/2/4
f 345/3/4 330/3/4 346/3/4
f 331/2/4 332/2/4 346/2/4
f 332/3/4 333/3/4 347/3/4
f 346/2/4 332/2/4 347/2/4
f 333/2/4 334/2/4 348/2/4
f 347/3/4 333/3/4 348/3/4
f 334/3/4 335/3/4 349/3/4
f 348/2/4 334/2/4 349/2/4
f 335/2/4 336/2/4 350/2/4
f 349/3/4 335/3/4 350/3/4
f 336/3/4 304/3/4 351/3/4
f 350/2/4 336/2/4 351/2/4
f 305/2/4 306/2/4 352/2/4
f 351/3/4 304/3/4 352/3/4
f 304/2/4 305/2/4 352/2/4
f 306/3/4 307/3/4 353/3/4
f 352/2/4 306/2/4 353/2/4
f 307/3/4 308/3/4 353/3/4
f 337/2/4 338/2/4 354/2/4
f 353/3/4 308/3/4 354/3/4
f 308/2/4 319/2/4 354/2/4
f 319/2/4 337/2/4 354/2/4
f 338/3/4 339/3/4 355/3/4
f 354/2/4 338/2/4 355/2/4
f 339/2/4 340/2/4 356/2/4
f 355/3/4 339/3/4 356/3/4
f 356/2/4 340/2/4 357/2/4
f 364/3/5 359/3/5 358/3/5
f 365/2/5 360/2/5 359/2/5
f 365/3/5 359/3/5 364/3/5
f 366/3/5 361/3/5 360/3/5
f 366/2/5 360/2/5 365/2/5
f 367/2/5 362/2/5 361/2/5
f 367/3/5 361/3/5 366/3/5
f 368/3/5 363/3/5 362/3/5
f 368/2/5 362/2/5 367/2/5
f 369/3/5 363/3/5 368/3/5
f 376/3/5 371/3/5 370/3/5
f 377/2/5 372/2/5 371/2/5
f 377/3/5 371/3/5 376/3/5
f 378/3/5 375/3/5 374/3/5
f 378/2/5 372/2/5 377/2/5
f 378/3/5 373/3/5 372/3/5
f 378/3/5 374/3/5 373/3/5
f 379/3/5 375/3/5 378/3/5
f 380/3/6 381/3/6 385/3/6
f 381/2/6 382/2/6 386/2/6
f 385/3/6 381/3/6 386/3/6
f 382/3/6 383/3/6 387/3/6
f 386/2/6 382/2/6 387/2/6
f 383/2/6 384/2/6 388/2/6
f 387/3/6 383/3/6 388/3/6
f 388/2/6 384/2/6 389/2/6
f 390/3/6 391/3/6 393/3/6
f 391/2/6 392/2/6 394/2/6
f 393/3/6 391/3/6 394/3/6
f 394/2/6 392/2/6 395/2/6
