# MagicaVoxel @ Ephtracy

# group
o 

# material
mtllib river.mtl
usemtl palette

# normals
vn -1 0 0
vn 1 0 0
vn 0 0 1
vn 0 0 -1
vn 0 -1 0
vn 0 1 0

# texcoords
vt 0.943359 0.5
vt 0.974609 0.5
vt 0.978516 0.5
vt 0.982422 0.5
vt 0.986328 0.5
vt 0.990234 0.5

# verts
v -1.3 0.5 -1.8
v -1.3 0.5 -3
v -1.3 0.5 -3.2
v -1.3 0.6 -1.8
v -1.3 0.6 -1.9
v -1.3 0.7 -1.8
v -1.3 0.7 -1.9
v -1.3 0.7 -2
v -1.3 0.7 -2.8
v -1.3 0.7 -2.9
v -1.3 0.7 -3
v -1.3 0.8 -1.8
v -1.3 0.8 -1.9
v -1.3 0.8 -2
v -1.3 0.8 -2.8
v -1.3 0.8 -2.9
v -1.3 0.8 -3
v -1.3 0.8 -3.2
v -1.2 0.7 -3
v -1.2 0.7 -3.2
v -1.2 0.8 -3
v -1.2 0.8 -3.2
v -1.1 0.5 -2.9
v -1.1 0.5 -3
v -1.1 0.5 -3.2
v -1.1 0.7 -2.9
v -1.1 0.7 -3
v -1.1 0.7 -3.2
v -1.1 0.8 -2.9
v -1.1 0.8 -3
v 1.2 0.5 -1.8
v 1.2 0.5 -2.9
v 1.2 0.7 -1.8
v 1.2 0.7 -1.9
v 1.2 0.7 -2
v 1.2 0.7 -2.2
v 1.2 0.7 -2.7
v 1.2 0.7 -2.8
v 1.2 0.7 -2.9
v 1.2 0.8 -1.8
v 1.2 0.8 -1.9
v 1.2 0.8 -2
v 1.2 0.8 -2.2
v 1.2 0.8 -2.7
v 1.2 0.8 -2.8
v 1.2 0.8 -2.9
v -1.3 0.5 -1.8
v -1.3 0.6 -1.8
v -1.3 0.7 -1.8
v -1.3 0.8 -1.8
v -0.9 0.6 -1.8
v -0.9 0.7 -1.8
v -0.9 0.8 -1.8
v -0.6 0.7 -1.8
v -0.6 0.8 -1.8
v -0.5 0.7 -1.8
v -0.5 0.8 -1.8
v -0.0999999 0.7 -1.8
v -0.0999999 0.8 -1.8
v 0.3 0.7 -1.8
v 0.3 0.8 -1.8
v 1 0.7 -1.8
v 1 0.8 -1.8
v 1.1 0.7 -1.8
v 1.1 0.8 -1.8
v 1.2 0.5 -1.8
v 1.2 0.7 -1.8
v 1.2 0.8 -1.8
v -1.1 0.5 -2.9
v -1.1 0.7 -2.9
v -1.1 0.8 -2.9
v -1 0.7 -2.9
v -1 0.8 -2.9
v -0.9 0.7 -2.9
v -0.9 0.8 -2.9
v -0.6 0.7 -2.9
v -0.6 0.8 -2.9
v -0.5 0.7 -2.9
v -0.5 0.8 -2.9
v -0.3 0.7 -2.9
v -0.3 0.8 -2.9
v 0 0.7 -2.9
v 0 0.8 -2.9
v 0.1 0.7 -2.9
v 0.1 0.8 -2.9
v 0.4 0.7 -2.9
v 0.4 0.8 -2.9
v 0.5 0.7 -2.9
v 0.5 0.8 -2.9
v 0.6 0.7 -2.9
v 0.6 0.8 -2.9
v 1.2 0.5 -2.9
v 1.2 0.7 -2.9
v 1.2 0.8 -2.9
v -1.2 0.7 -3
v -1.2 0.8 -3
v -1.1 0.7 -3
v -1.1 0.8 -3
v -1.3 0.5 -3.2
v -1.3 0.8 -3.2
v -1.2 0.7 -3.2
v -1.2 0.8 -3.2
v -1.1 0.5 -3.2
v -1.1 0.7 -3.2
v -1.3 0.5 -1.8
v 1.2 0.5 -1.8
v -1.1 0.5 -2.9
v 1.2 0.5 -2.9
v -1.3 0.5 -3
v -1.1 0.5 -3
v -1.3 0.5 -3.2
v -1.1 0.5 -3.2
v -1.2 0.7 -3
v -1.1 0.7 -3
v -1.2 0.7 -3.2
v -1.1 0.7 -3.2
v -1.3 0.8 -1.8
v -0.9 0.8 -1.8
v -0.6 0.8 -1.8
v -0.5 0.8 -1.8
v -0.0999999 0.8 -1.8
v 0.3 0.8 -1.8
v 1 0.8 -1.8
v 1.1 0.8 -1.8
v 1.2 0.8 -1.8
v -1.3 0.8 -1.9
v -1.1 0.8 -1.9
v -1 0.8 -1.9
v -0.9 0.8 -1.9
v -0.8 0.8 -1.9
v -0.6 0.8 -1.9
v -0.5 0.8 -1.9
v -0.0999999 0.8 -1.9
v 0.3 0.8 -1.9
v 0.4 0.8 -1.9
v 0.5 0.8 -1.9
v 1 0.8 -1.9
v 1.1 0.8 -1.9
v 1.2 0.8 -1.9
v -1.3 0.8 -2
v -1.1 0.8 -2
v -1 0.8 -2
v -0.9 0.8 -2
v -0.8 0.8 -2
v -0.7 0.8 -2
v -0.6 0.8 -2
v -0.5 0.8 -2
v -0.4 0.8 -2
v -0.0999999 0.8 -2
v 0.2 0.8 -2
v 0.3 0.8 -2
v 0.4 0.8 -2
v 0.5 0.8 -2
v 0.7 0.8 -2
v 0.9 0.8 -2
v 1 0.8 -2
v 1.1 0.8 -2
v 1.2 0.8 -2
v -1.2 0.8 -2.1
v -1.1 0.8 -2.1
v -1 0.8 -2.1
v -0.9 0.8 -2.1
v -0.8 0.8 -2.1
v -0.7 0.8 -2.1
v 0 0.8 -2.1
v 0.2 0.8 -2.1
v 0.3 0.8 -2.1
v 0.4 0.8 -2.1
v 0.7 0.8 -2.1
v 0.9 0.8 -2.1
v 1 0.8 -2.1
v -1.2 0.8 -2.2
v -1.1 0.8 -2.2
v -1 0.8 -2.2
v -0.8 0.8 -2.2
v -0.7 0.8 -2.2
v -0.4 0.8 -2.2
v -0.3 0.8 -2.2
v -0.0999999 0.8 -2.2
v 0 0.8 -2.2
v 0.2 0.8 -2.2
v 0.3 0.8 -2.2
v 0.4 0.8 -2.2
v 0.7 0.8 -2.2
v 0.8 0.8 -2.2
v 0.9 0.8 -2.2
v 1 0.8 -2.2
v 1.1 0.8 -2.2
v 1.2 0.8 -2.2
v -0.9 0.8 -2.3
v -0.8 0.8 -2.3
v -0.7 0.8 -2.3
v -0.6 0.8 -2.3
v -0.5 0.8 -2.3
v -0.3 0.8 -2.3
v -0.2 0.8 -2.3
v -0.0999999 0.8 -2.3
v 0 0.8 -2.3
v -1.1 0.8 -2.4
v -1 0.8 -2.4
v -0.9 0.8 -2.4
v -0.8 0.8 -2.4
v -0.6 0.8 -2.4
v -0.5 0.8 -2.4
v -0.3 0.8 -2.4
v -0.2 0.8 -2.4
v -0.0999999 0.8 -2.4
v 0.1 0.8 -2.4
v 0.3 0.8 -2.4
v 0.6 0.8 -2.4
v 0.7 0.8 -2.4
v 0.8 0.8 -2.4
v 0.9 0.8 -2.4
v 1 0.8 -2.4
v -1.1 0.8 -2.5
v -1 0.8 -2.5
v -0.9 0.8 -2.5
v -0.8 0.8 -2.5
v -0.7 0.8 -2.5
v -0.5 0.8 -2.5
v -0.3 0.8 -2.5
v 0.1 0.8 -2.5
v 0.2 0.8 -2.5
v 0.3 0.8 -2.5
v 0.9 0.8 -2.5
v 1 0.8 -2.5
v -1.2 0.8 -2.6
v -1.1 0.8 -2.6
v -0.9 0.8 -2.6
v -0.8 0.8 -2.6
v -0.7 0.8 -2.6
v -0.6 0.8 -2.6
v -0.3 0.8 -2.6
v -0.2 0.8 -2.6
v -0.0999999 0.8 -2.6
v 0 0.8 -2.6
v 0.5 0.8 -2.6
v 0.6 0.8 -2.6
v 0.7 0.8 -2.6
v 1 0.8 -2.6
v 1.1 0.8 -2.6
v -1.2 0.8 -2.7
v -1.1 0.8 -2.7
v -0.9 0.8 -2.7
v -0.6 0.8 -2.7
v -0.4 0.8 -2.7
v -0.3 0.8 -2.7
v -0.2 0.8 -2.7
v 0 0.8 -2.7
v 0.1 0.8 -2.7
v 0.2 0.8 -2.7
v 0.3 0.8 -2.7
v 0.5 0.8 -2.7
v 0.6 0.8 -2.7
v 0.7 0.8 -2.7
v 1 0.8 -2.7
v 1.1 0.8 -2.7
v 1.2 0.8 -2.7
v -1.3 0.8 -2.8
v -1.2 0.8 -2.8
v -1.1 0.8 -2.8
v -1 0.8 -2.8
v -0.9 0.8 -2.8
v -0.6 0.8 -2.8
v -0.5 0.8 -2.8
v -0.4 0.8 -2.8
v -0.3 0.8 -2.8
v -0.2 0.8 -2.8
v 0.1 0.8 -2.8
v 0.3 0.8 -2.8
v 0.4 0.8 -2.8
v 0.5 0.8 -2.8
v 0.6 0.8 -2.8
v 0.7 0.8 -2.8
v 1 0.8 -2.8
v 1.2 0.8 -2.8
v -1.3 0.8 -2.9
v -1.2 0.8 -2.9
v -1.1 0.8 -2.9
v -1 0.8 -2.9
v -0.9 0.8 -2.9
v -0.6 0.8 -2.9
v -0.5 0.8 -2.9
v -0.3 0.8 -2.9
v 0 0.8 -2.9
v 0.1 0.8 -2.9
v 0.4 0.8 -2.9
v 0.5 0.8 -2.9
v 0.6 0.8 -2.9
v 1.2 0.8 -2.9
v -1.3 0.8 -3
v -1.2 0.8 -3
v -1.1 0.8 -3
v -1.3 0.8 -3.2
v -1.2 0.8 -3.2

# faces
f 4/2/1 2/2/1 1/2/1
f 5/2/1 2/2/1 4/2/1
f 6/3/1 5/3/1 4/3/1
f 7/2/1 2/2/1 5/2/1
f 7/3/1 5/3/1 6/3/1
f 8/2/1 2/2/1 7/2/1
f 9/2/1 2/2/1 8/2/1
f 10/2/1 2/2/1 9/2/1
f 11/6/1 3/6/1 2/6/1
f 11/2/1 2/2/1 10/2/1
f 12/6/1 7/6/1 6/6/1
f 13/4/1 8/4/1 7/4/1
f 13/6/1 7/6/1 12/6/1
f 14/2/1 9/2/1 8/2/1
f 14/4/1 8/4/1 13/4/1
f 15/4/1 10/4/1 9/4/1
f 15/2/1 9/2/1 14/2/1
f 16/3/1 11/3/1 10/3/1
f 16/4/1 10/4/1 15/4/1
f 17/6/1 3/6/1 11/6/1
f 17/3/1 11/3/1 16/3/1
f 18/6/1 3/6/1 17/6/1
f 19/6/2 20/6/2 21/6/2
f 21/6/2 20/6/2 22/6/2
f 23/2/2 24/2/2 26/2/2
f 24/6/2 25/6/2 27/6/2
f 26/2/2 24/2/2 27/2/2
f 27/6/2 25/6/2 28/6/2
f 26/6/2 27/6/2 29/6/2
f 29/6/2 27/6/2 30/6/2
f 31/2/2 32/2/2 33/2/2
f 33/2/2 32/2/2 34/2/2
f 34/2/2 32/2/2 35/2/2
f 35/2/2 32/2/2 36/2/2
f 36/2/2 32/2/2 37/2/2
f 37/2/2 32/2/2 38/2/2
f 38/2/2 32/2/2 39/2/2
f 33/5/2 34/5/2 40/5/2
f 34/4/2 35/4/2 41/4/2
f 40/5/2 34/5/2 41/5/2
f 35/1/2 36/1/2 42/1/2
f 41/4/2 35/4/2 42/4/2
f 36/2/2 37/2/2 43/2/2
f 42/1/2 36/1/2 43/1/2
f 37/1/2 38/1/2 44/1/2
f 43/2/2 37/2/2 44/2/2
f 38/6/2 39/6/2 45/6/2
f 44/1/2 38/1/2 45/1/2
f 45/6/2 39/6/2 46/6/2
f 51/2/3 48/2/3 47/2/3
f 51/3/3 49/3/3 48/3/3
f 52/6/3 50/6/3 49/6/3
f 52/3/3 49/3/3 51/3/3
f 53/6/3 50/6/3 52/6/3
f 54/2/3 52/2/3 51/2/3
f 54/2/3 53/2/3 52/2/3
f 55/2/3 53/2/3 54/2/3
f 56/2/3 54/2/3 51/2/3
f 56/3/3 55/3/3 54/3/3
f 57/3/3 55/3/3 56/3/3
f 58/2/3 56/2/3 51/2/3
f 58/2/3 57/2/3 56/2/3
f 59/2/3 57/2/3 58/2/3
f 60/2/3 58/2/3 51/2/3
f 60/3/3 59/3/3 58/3/3
f 61/3/3 59/3/3 60/3/3
f 62/2/3 60/2/3 51/2/3
f 62/2/3 61/2/3 60/2/3
f 63/2/3 61/2/3 62/2/3
f 64/2/3 62/2/3 51/2/3
f 64/3/3 63/3/3 62/3/3
f 65/3/3 63/3/3 64/3/3
f 66/2/3 51/2/3 47/2/3
f 66/2/3 64/2/3 51/2/3
f 67/5/3 65/5/3 64/5/3
f 67/2/3 64/2/3 66/2/3
f 68/5/3 65/5/3 67/5/3
f 69/2/4 70/2/4 72/2/4
f 70/5/4 71/5/4 72/5/4
f 72/5/4 71/5/4 73/5/4
f 69/2/4 72/2/4 74/2/4
f 72/3/4 73/3/4 74/3/4
f 74/3/4 73/3/4 75/3/4
f 69/2/4 74/2/4 76/2/4
f 74/2/4 75/2/4 76/2/4
f 76/2/4 75/2/4 77/2/4
f 69/2/4 76/2/4 78/2/4
f 76/6/4 77/6/4 78/6/4
f 78/6/4 77/6/4 79/6/4
f 69/2/4 78/2/4 80/2/4
f 78/2/4 79/2/4 80/2/4
f 80/2/4 79/2/4 81/2/4
f 69/2/4 80/2/4 82/2/4
f 80/6/4 81/6/4 82/6/4
f 82/6/4 81/6/4 83/6/4
f 69/2/4 82/2/4 84/2/4
f 82/1/4 83/1/4 84/1/4
f 84/1/4 83/1/4 85/1/4
f 69/2/4 84/2/4 86/2/4
f 84/6/4 85/6/4 86/6/4
f 86/6/4 85/6/4 87/6/4
f 69/2/4 86/2/4 88/2/4
f 86/3/4 87/3/4 88/3/4
f 88/3/4 87/3/4 89/3/4
f 69/2/4 88/2/4 90/2/4
f 88/5/4 89/5/4 90/5/4
f 90/5/4 89/5/4 91/5/4
f 69/2/4 90/2/4 92/2/4
f 90/6/4 91/6/4 93/6/4
f 92/2/4 90/2/4 93/2/4
f 93/6/4 91/6/4 94/6/4
f 95/6/4 96/6/4 97/6/4
f 97/6/4 96/6/4 98/6/4
f 99/6/4 100/6/4 101/6/4
f 101/6/4 100/6/4 102/6/4
f 99/6/4 101/6/4 103/6/4
f 103/6/4 101/6/4 104/6/4
f 107/2/5 106/2/5 105/2/5
f 108/2/5 106/2/5 107/2/5
f 109/2/5 107/2/5 105/2/5
f 110/2/5 107/2/5 109/2/5
f 111/6/5 110/6/5 109/6/5
f 112/6/5 110/6/5 111/6/5
f 113/6/6 114/6/6 115/6/6
f 115/6/6 114/6/6 116/6/6
f 117/6/6 118/6/6 126/6/6
f 126/6/6 118/6/6 127/6/6
f 127/6/6 118/6/6 128/6/6
f 118/2/6 119/2/6 129/2/6
f 128/6/6 118/6/6 129/6/6
f 129/2/6 119/2/6 130/2/6
f 119/3/6 120/3/6 131/3/6
f 130/2/6 119/2/6 131/2/6
f 120/2/6 121/2/6 132/2/6
f 131/3/6 120/3/6 132/3/6
f 121/3/6 122/3/6 133/3/6
f 132/2/6 121/2/6 133/2/6
f 122/2/6 123/2/6 134/2/6
f 133/3/6 122/3/6 134/3/6
f 134/2/6 123/2/6 135/2/6
f 135/2/6 123/2/6 136/2/6
f 123/3/6 124/3/6 137/3/6
f 136/2/6 123/2/6 137/2/6
f 124/5/6 125/5/6 138/5/6
f 137/3/6 124/3/6 138/3/6
f 138/5/6 125/5/6 139/5/6
f 126/4/6 127/4/6 140/4/6
f 127/5/6 128/5/6 141/5/6
f 140/4/6 127/4/6 141/4/6
f 128/4/6 129/4/6 142/4/6
f 141/5/6 128/5/6 142/5/6
f 129/3/6 130/3/6 143/3/6
f 142/4/6 129/4/6 143/4/6
f 130/2/6 131/2/6 144/2/6
f 143/3/6 130/3/6 144/3/6
f 144/2/6 131/2/6 145/2/6
f 131/4/6 132/4/6 146/4/6
f 145/2/6 131/2/6 146/2/6
f 132/3/6 133/3/6 147/3/6
f 146/4/6 132/4/6 147/4/6
f 147/3/6 133/3/6 148/3/6
f 133/4/6 134/4/6 149/4/6
f 148/3/6 133/3/6 149/3/6
f 134/4/6 135/4/6 149/4/6
f 149/4/6 135/4/6 150/4/6
f 150/4/6 135/4/6 151/4/6
f 135/2/6 136/2/6 152/2/6
f 151/4/6 135/4/6 152/4/6
f 136/3/6 137/3/6 153/3/6
f 152/2/6 136/2/6 153/2/6
f 153/3/6 137/3/6 154/3/6
f 154/3/6 137/3/6 155/3/6
f 137/4/6 138/4/6 156/4/6
f 155/3/6 137/3/6 156/3/6
f 138/4/6 139/4/6 156/4/6
f 156/4/6 139/4/6 157/4/6
f 157/4/6 139/4/6 158/4/6
f 140/2/6 141/2/6 159/2/6
f 141/5/6 142/5/6 160/5/6
f 159/2/6 141/2/6 160/2/6
f 142/2/6 143/2/6 161/2/6
f 160/5/6 142/5/6 161/5/6
f 143/4/6 144/4/6 162/4/6
f 161/2/6 143/2/6 162/2/6
f 144/3/6 145/3/6 163/3/6
f 162/4/6 144/4/6 163/4/6
f 145/5/6 146/5/6 164/5/6
f 163/3/6 145/3/6 164/3/6
f 147/5/6 148/5/6 164/5/6
f 146/5/6 147/5/6 164/5/6
f 148/2/6 149/2/6 165/2/6
f 149/2/6 150/2/6 165/2/6
f 150/1/6 151/1/6 166/1/6
f 165/2/6 150/2/6 166/2/6
f 151/5/6 152/5/6 167/5/6
f 166/1/6 151/1/6 167/1/6
f 153/4/6 154/4/6 168/4/6
f 167/5/6 152/5/6 168/5/6
f 152/4/6 153/4/6 168/4/6
f 154/5/6 155/5/6 169/5/6
f 168/4/6 154/4/6 169/4/6
f 155/4/6 156/4/6 170/4/6
f 169/5/6 155/5/6 170/5/6
f 156/2/6 157/2/6 171/2/6
f 170/4/6 156/4/6 171/4/6
f 140/2/6 159/2/6 172/2/6
f 159/3/6 160/3/6 172/3/6
f 160/1/6 161/1/6 173/1/6
f 172/3/6 160/3/6 173/3/6
f 161/5/6 162/5/6 174/5/6
f 173/1/6 161/1/6 174/1/6
f 162/5/6 163/5/6 174/5/6
f 163/4/6 164/4/6 175/4/6
f 174/5/6 163/5/6 175/5/6
f 164/5/6 148/5/6 176/5/6
f 175/4/6 164/4/6 176/4/6
f 148/2/6 165/2/6 177/2/6
f 176/5/6 148/5/6 177/5/6
f 177/2/6 165/2/6 178/2/6
f 178/2/6 165/2/6 179/2/6
f 165/1/6 166/1/6 180/1/6
f 179/2/6 165/2/6 180/2/6
f 167/5/6 168/5/6 181/5/6
f 180/1/6 166/1/6 181/1/6
f 166/5/6 167/5/6 181/5/6
f 181/5/6 168/5/6 182/5/6
f 168/2/6 169/2/6 183/2/6
f 182/5/6 168/5/6 183/5/6
f 169/5/6 170/5/6 184/5/6
f 183/2/6 169/2/6 184/2/6
f 184/5/6 170/5/6 185/5/6
f 170/2/6 171/2/6 186/2/6
f 185/5/6 170/5/6 186/5/6
f 171/2/6 157/2/6 187/2/6
f 186/2/6 171/2/6 187/2/6
f 157/1/6 158/1/6 188/1/6
f 187/2/6 157/2/6 188/2/6
f 188/1/6 158/1/6 189/1/6
f 174/5/6 175/5/6 190/5/6
f 173/5/6 174/5/6 190/5/6
f 175/2/6 176/2/6 191/2/6
f 190/5/6 175/5/6 191/5/6
f 177/5/6 178/5/6 192/5/6
f 191/2/6 176/2/6 192/2/6
f 176/5/6 177/5/6 192/5/6
f 192/5/6 178/5/6 193/5/6
f 193/5/6 178/5/6 194/5/6
f 178/2/6 179/2/6 195/2/6
f 194/5/6 178/5/6 195/5/6
f 195/2/6 179/2/6 196/2/6
f 179/1/6 180/1/6 197/1/6
f 196/2/6 179/2/6 197/2/6
f 181/5/6 182/5/6 198/5/6
f 197/1/6 180/1/6 198/1/6
f 180/5/6 181/5/6 198/5/6
f 172/2/6 173/2/6 199/2/6
f 173/5/6 190/5/6 199/5/6
f 199/5/6 190/5/6 200/5/6
f 190/2/6 191/2/6 201/2/6
f 200/5/6 190/5/6 201/5/6
f 191/2/6 192/2/6 201/2/6
f 192/2/6 193/2/6 201/2/6
f 201/2/6 193/2/6 202/2/6
f 193/1/6 194/1/6 203/1/6
f 202/2/6 193/2/6 203/2/6
f 195/5/6 196/5/6 204/5/6
f 203/1/6 194/1/6 204/1/6
f 194/5/6 195/5/6 204/5/6
f 204/5/6 196/5/6 205/5/6
f 196/2/6 197/2/6 206/2/6
f 205/5/6 196/5/6 206/5/6
f 197/2/6 198/2/6 206/2/6
f 206/2/6 198/2/6 207/2/6
f 198/5/6 182/5/6 208/5/6
f 184/2/6 185/2/6 209/2/6
f 208/5/6 182/5/6 209/5/6
f 182/2/6 183/2/6 209/2/6
f 183/2/6 184/2/6 209/2/6
f 209/2/6 185/2/6 210/2/6
f 210/2/6 185/2/6 211/2/6
f 185/5/6 186/5/6 212/5/6
f 211/2/6 185/2/6 212/2/6
f 186/5/6 187/5/6 212/5/6
f 212/5/6 187/5/6 213/5/6
f 188/2/6 189/2/6 214/2/6
f 213/5/6 187/5/6 214/5/6
f 187/2/6 188/2/6 214/2/6
f 199/2/6 200/2/6 215/2/6
f 172/2/6 199/2/6 215/2/6
f 201/5/6 202/5/6 216/5/6
f 215/2/6 200/2/6 216/2/6
f 200/5/6 201/5/6 216/5/6
f 216/5/6 202/5/6 217/5/6
f 203/2/6 204/2/6 218/2/6
f 217/5/6 202/5/6 218/5/6
f 202/2/6 203/2/6 218/2/6
f 218/2/6 204/2/6 219/2/6
f 204/1/6 205/1/6 220/1/6
f 219/2/6 204/2/6 220/2/6
f 206/5/6 207/5/6 221/5/6
f 220/1/6 205/1/6 221/1/6
f 205/5/6 206/5/6 221/5/6
f 198/5/6 208/5/6 222/5/6
f 208/3/6 209/3/6 222/3/6
f 222/3/6 209/3/6 223/3/6
f 209/2/6 210/2/6 224/2/6
f 223/3/6 209/3/6 224/3/6
f 212/5/6 213/5/6 225/5/6
f 211/5/6 212/5/6 225/5/6
f 213/2/6 214/2/6 225/2/6
f 214/2/6 189/2/6 226/2/6
f 225/2/6 214/2/6 226/2/6
f 172/2/6 215/2/6 227/2/6
f 140/2/6 172/2/6 227/2/6
f 216/1/6 217/1/6 228/1/6
f 227/2/6 215/2/6 228/2/6
f 215/1/6 216/1/6 228/1/6
f 217/5/6 218/5/6 229/5/6
f 228/1/6 217/1/6 229/1/6
f 218/3/6 219/3/6 230/3/6
f 229/5/6 218/5/6 230/5/6
f 219/2/6 220/2/6 231/2/6
f 230/3/6 219/3/6 231/3/6
f 220/2/6 221/2/6 231/2/6
f 231/2/6 221/2/6 232/2/6
f 221/5/6 207/5/6 233/5/6
f 232/2/6 221/2/6 233/2/6
f 233/5/6 207/5/6 234/5/6
f 207/2/6 198/2/6 235/2/6
f 234/5/6 207/5/6 235/5/6
f 222/5/6 223/5/6 236/5/6
f 235/2/6 198/2/6 236/2/6
f 198/5/6 222/5/6 236/5/6
f 224/2/6 210/2/6 237/2/6
f 223/2/6 224/2/6 237/2/6
f 210/1/6 211/1/6 238/1/6
f 237/2/6 210/2/6 238/2/6
f 211/5/6 225/5/6 239/5/6
f 238/1/6 211/1/6 239/1/6
f 225/5/6 226/5/6 239/5/6
f 226/2/6 189/2/6 240/2/6
f 239/5/6 226/5/6 240/5/6
f 240/2/6 189/2/6 241/2/6
f 140/2/6 227/2/6 242/2/6
f 227/1/6 228/1/6 242/1/6
f 228/5/6 229/5/6 243/5/6
f 242/1/6 228/1/6 243/1/6
f 231/2/6 232/2/6 244/2/6
f 243/5/6 229/5/6 244/5/6
f 229/2/6 230/2/6 244/2/6
f 230/2/6 231/2/6 244/2/6
f 233/5/6 234/5/6 245/5/6
f 244/2/6 232/2/6 245/2/6
f 232/5/6 233/5/6 245/5/6
f 245/5/6 234/5/6 246/5/6
f 246/5/6 234/5/6 247/5/6
f 234/4/6 235/4/6 248/4/6
f 247/5/6 234/5/6 248/5/6
f 235/4/6 236/4/6 248/4/6
f 236/5/6 223/5/6 249/5/6
f 248/4/6 236/4/6 249/4/6
f 249/5/6 223/5/6 250/5/6
f 223/2/6 237/2/6 251/2/6
f 250/5/6 223/5/6 251/5/6
f 251/2/6 237/2/6 252/2/6
f 237/1/6 238/1/6 253/1/6
f 252/2/6 237/2/6 253/2/6
f 238/5/6 239/5/6 254/5/6
f 253/1/6 238/1/6 254/1/6
f 239/5/6 240/5/6 254/5/6
f 254/5/6 240/5/6 255/5/6
f 240/3/6 241/3/6 256/3/6
f 255/5/6 240/5/6 256/5/6
f 241/2/6 189/2/6 257/2/6
f 256/3/6 241/3/6 257/3/6
f 257/2/6 189/2/6 258/2/6
f 242/2/6 243/2/6 259/2/6
f 140/2/6 242/2/6 259/2/6
f 259/2/6 243/2/6 260/2/6
f 243/5/6 244/5/6 261/5/6
f 260/2/6 243/2/6 261/2/6
f 261/5/6 244/5/6 262/5/6
f 244/4/6 245/4/6 263/4/6
f 262/5/6 244/5/6 263/5/6
f 245/5/6 246/5/6 264/5/6
f 263/4/6 245/4/6 264/4/6
f 264/5/6 246/5/6 265/5/6
f 246/3/6 247/3/6 266/3/6
f 265/5/6 246/5/6 266/5/6
f 247/4/6 248/4/6 267/4/6
f 266/3/6 247/3/6 267/3/6
f 248/6/6 249/6/6 268/6/6
f 267/4/6 248/4/6 268/4/6
f 249/1/6 250/1/6 269/1/6
f 250/5/6 251/5/6 269/5/6
f 251/5/6 252/5/6 269/5/6
f 252/4/6 253/4/6 270/4/6
f 269/5/6 252/5/6 270/5/6
f 270/4/6 253/4/6 271/4/6
f 254/5/6 255/5/6 272/5/6
f 271/4/6 253/4/6 272/4/6
f 253/5/6 254/5/6 272/5/6
f 272/5/6 255/5/6 273/5/6
f 255/3/6 256/3/6 274/3/6
f 273/5/6 255/5/6 274/5/6
f 257/1/6 258/1/6 275/1/6
f 274/3/6 256/3/6 275/3/6
f 256/1/6 257/1/6 275/1/6
f 275/1/6 258/1/6 276/1/6
f 259/4/6 260/4/6 277/4/6
f 261/5/6 262/5/6 278/5/6
f 277/4/6 260/4/6 278/4/6
f 260/5/6 261/5/6 278/5/6
f 278/5/6 262/5/6 279/5/6
f 262/3/6 263/3/6 280/3/6
f 279/5/6 262/5/6 280/5/6
f 263/2/6 264/2/6 281/2/6
f 280/3/6 263/3/6 281/3/6
f 264/6/6 265/6/6 282/6/6
f 281/2/6 264/2/6 282/2/6
f 265/2/6 266/2/6 283/2/6
f 282/6/6 265/6/6 283/6/6
f 266/2/6 267/2/6 283/2/6
f 267/6/6 268/6/6 284/6/6
f 283/2/6 267/2/6 284/2/6
f 249/1/6 269/1/6 285/1/6
f 284/6/6 268/6/6 285/6/6
f 268/6/6 249/6/6 285/6/6
f 270/6/6 271/6/6 286/6/6
f 285/1/6 269/1/6 286/1/6
f 269/6/6 270/6/6 286/6/6
f 271/3/6 272/3/6 287/3/6
f 286/6/6 271/6/6 287/6/6
f 272/5/6 273/5/6 288/5/6
f 287/3/6 272/3/6 288/3/6
f 274/6/6 275/6/6 289/6/6
f 288/5/6 273/5/6 289/5/6
f 273/6/6 274/6/6 289/6/6
f 275/6/6 276/6/6 289/6/6
f 289/6/6 276/6/6 290/6/6
f 277/3/6 278/3/6 291/3/6
f 278/6/6 279/6/6 292/6/6
f 291/3/6 278/3/6 292/3/6
f 292/6/6 279/6/6 293/6/6
f 291/6/6 292/6/6 294/6/6
f 294/6/6 292/6/6 295/6/6
