# MagicaVoxel @ Ephtracy

# group
o 

# material
mtllib torinoCyberPunk-14.mtl
usemtl palette

# normals
vn -1 0 0
vn 1 0 0
vn 0 0 1
vn 0 0 -1
vn 0 -1 0
vn 0 1 0

# texcoords
vt 0.501953 0.5
vt 0.509766 0.5
vt 0.513672 0.5
vt 0.537109 0.5

# verts
v 6.4 0.3 -10.3
v 6.4 0.3 -11.9
v 6.4 0.4 -10.3
v 6.4 0.4 -11.9
v 6.5 0.3 -10.2
v 6.5 0.3 -10.3
v 6.5 0.3 -11.9
v 6.5 0.3 -12
v 6.5 0.4 -10.2
v 6.5 0.4 -10.3
v 6.5 0.4 -11.9
v 6.5 0.4 -12
v 6.5 0.5 -10.6
v 6.5 0.5 -10.9
v 6.5 0.5 -11
v 6.5 0.5 -11.4
v 6.5 0.5 -11.5
v 6.5 0.5 -11.7
v 6.5 0.6 -10.6
v 6.5 0.6 -10.9
v 6.5 0.6 -11
v 6.5 0.6 -11.4
v 6.5 0.6 -11.5
v 6.5 0.6 -11.7
v 6.5 0.8 -10.3
v 6.5 0.8 -11.9
v 6.5 0.9 -10.3
v 6.5 0.9 -11.9
v 6.5 1.4 -10.3
v 6.5 1.4 -11.9
v 6.5 1.6 -10.3
v 6.5 1.6 -11.9
v 6.5 1.7 -10.3
v 6.5 1.7 -11.9
v 6.5 1.8 -10.3
v 6.5 1.8 -11.9
v 6.5 1.9 -10.3
v 6.5 1.9 -11.9
v 7.1 0.4 -10.9
v 7.1 0.4 -11.3
v 7.1 1.4 -10.9
v 7.1 1.4 -11.3
v 7.7 0.4 -10.7
v 7.7 0.4 -11.5
v 7.7 0.9 -10.7
v 7.7 0.9 -11.5
v 6.9 0.4 -10.7
v 6.9 0.4 -11.5
v 6.9 0.9 -10.7
v 6.9 0.9 -11.5
v 7.5 0.4 -10.9
v 7.5 0.4 -11.3
v 7.5 1.4 -10.9
v 7.5 1.4 -11.3
v 8 0.3 -10.2
v 8 0.3 -10.3
v 8 0.4 -10.2
v 8 0.4 -10.3
v 8.1 0.3 -10.3
v 8.1 0.3 -12
v 8.1 0.4 -11.9
v 8.1 0.4 -12
v 8.1 0.5 -10.6
v 8.1 0.5 -10.9
v 8.1 0.5 -11
v 8.1 0.5 -11.4
v 8.1 0.5 -11.5
v 8.1 0.5 -11.7
v 8.1 0.6 -10.6
v 8.1 0.6 -10.9
v 8.1 0.6 -11
v 8.1 0.6 -11.4
v 8.1 0.6 -11.5
v 8.1 0.6 -11.7
v 8.1 0.8 -10.3
v 8.1 0.8 -11.9
v 8.1 0.9 -10.3
v 8.1 0.9 -11.9
v 8.1 1.4 -10.3
v 8.1 1.4 -11.9
v 8.1 1.6 -10.3
v 8.1 1.6 -11.9
v 8.1 1.7 -10.3
v 8.1 1.7 -11.9
v 8.1 1.8 -10.3
v 8.1 1.8 -11.9
v 8.1 1.9 -10.3
v 8.1 1.9 -11.9
v 6.5 0.3 -10.2
v 6.5 0.4 -10.2
v 8 0.3 -10.2
v 8 0.4 -10.2
v 6.4 0.3 -10.3
v 6.4 0.4 -10.3
v 6.5 0.3 -10.3
v 6.5 0.4 -10.3
v 6.5 0.8 -10.3
v 6.5 0.9 -10.3
v 6.5 1.4 -10.3
v 6.5 1.6 -10.3
v 6.5 1.7 -10.3
v 6.5 1.8 -10.3
v 6.5 1.9 -10.3
v 6.6 0.5 -10.3
v 6.6 0.6 -10.3
v 6.9 0.5 -10.3
v 6.9 0.6 -10.3
v 7.1 0.5 -10.3
v 7.1 0.6 -10.3
v 7.2 0.5 -10.3
v 7.2 0.6 -10.3
v 7.4 0.5 -10.3
v 7.4 0.6 -10.3
v 7.5 0.5 -10.3
v 7.5 0.6 -10.3
v 7.7 0.5 -10.3
v 7.7 0.6 -10.3
v 8 0.3 -10.3
v 8 0.4 -10.3
v 8 0.5 -10.3
v 8 0.6 -10.3
v 8.1 0.3 -10.3
v 8.1 0.8 -10.3
v 8.1 0.9 -10.3
v 8.1 1.4 -10.3
v 8.1 1.6 -10.3
v 8.1 1.7 -10.3
v 8.1 1.8 -10.3
v 8.1 1.9 -10.3
v 7.1 0.4 -10.9
v 7.1 1.4 -10.9
v 7.5 0.4 -10.9
v 7.5 1.4 -10.9
v 6.9 0.4 -11.5
v 6.9 0.9 -11.5
v 7.7 0.4 -11.5
v 7.7 0.9 -11.5
v 6.9 0.4 -10.7
v 6.9 0.9 -10.7
v 7.7 0.4 -10.7
v 7.7 0.9 -10.7
v 7.1 0.4 -11.3
v 7.1 1.4 -11.3
v 7.5 0.4 -11.3
v 7.5 1.4 -11.3
v 6.4 0.3 -11.9
v 6.4 0.4 -11.9
v 6.5 0.3 -11.9
v 6.5 0.4 -11.9
v 6.5 0.8 -11.9
v 6.5 0.9 -11.9
v 6.5 1.4 -11.9
v 6.5 1.6 -11.9
v 6.5 1.7 -11.9
v 6.5 1.8 -11.9
v 6.5 1.9 -11.9
v 6.6 0.5 -11.9
v 6.6 0.6 -11.9
v 6.9 0.5 -11.9
v 6.9 0.6 -11.9
v 7 0.5 -11.9
v 7 0.6 -11.9
v 7.2 0.5 -11.9
v 7.2 0.6 -11.9
v 7.4 0.5 -11.9
v 7.4 0.6 -11.9
v 7.6 0.5 -11.9
v 7.6 0.6 -11.9
v 7.7 0.5 -11.9
v 7.7 0.6 -11.9
v 8 0.5 -11.9
v 8 0.6 -11.9
v 8.1 0.4 -11.9
v 8.1 0.8 -11.9
v 8.1 0.9 -11.9
v 8.1 1.4 -11.9
v 8.1 1.6 -11.9
v 8.1 1.7 -11.9
v 8.1 1.8 -11.9
v 8.1 1.9 -11.9
v 6.5 0.3 -12
v 6.5 0.4 -12
v 8.1 0.3 -12
v 8.1 0.4 -12
v 6.5 0.3 -10.2
v 8 0.3 -10.2
v 6.4 0.3 -10.3
v 6.5 0.3 -10.3
v 8 0.3 -10.3
v 8.1 0.3 -10.3
v 6.4 0.3 -11.9
v 6.5 0.3 -11.9
v 6.5 0.3 -12
v 8.1 0.3 -12
v 6.5 1.4 -10.3
v 8.1 1.4 -10.3
v 7.1 1.4 -10.9
v 7.5 1.4 -10.9
v 7.1 1.4 -11.3
v 7.5 1.4 -11.3
v 6.5 1.4 -11.9
v 8.1 1.4 -11.9
v 6.5 0.4 -10.2
v 8 0.4 -10.2
v 6.4 0.4 -10.3
v 6.5 0.4 -10.3
v 8 0.4 -10.3
v 6.9 0.4 -10.7
v 7.7 0.4 -10.7
v 7.1 0.4 -10.9
v 7.5 0.4 -10.9
v 7.1 0.4 -11.3
v 7.5 0.4 -11.3
v 6.9 0.4 -11.5
v 7.7 0.4 -11.5
v 6.4 0.4 -11.9
v 6.5 0.4 -11.9
v 8.1 0.4 -11.9
v 6.5 0.4 -12
v 8.1 0.4 -12
v 6.5 0.9 -10.3
v 8.1 0.9 -10.3
v 6.6 0.9 -10.4
v 8 0.9 -10.4
v 6.7 0.9 -10.5
v 7.9 0.9 -10.5
v 6.8 0.9 -10.6
v 7.8 0.9 -10.6
v 6.9 0.9 -10.7
v 7.7 0.9 -10.7
v 6.9 0.9 -11.5
v 7.7 0.9 -11.5
v 6.8 0.9 -11.6
v 7.8 0.9 -11.6
v 6.7 0.9 -11.7
v 7.9 0.9 -11.7
v 6.6 0.9 -11.8
v 8 0.9 -11.8
v 6.5 0.9 -11.9
v 8.1 0.9 -11.9
v 6.5 1.9 -10.3
v 8.1 1.9 -10.3
v 6.6 1.9 -10.4
v 8 1.9 -10.4
v 6.6 1.9 -11.8
v 8 1.9 -11.8
v 6.5 1.9 -11.9
v 8.1 1.9 -11.9

# faces
f 3/1/1 2/1/1 1/1/1
f 4/1/1 2/1/1 3/1/1
f 9/1/1 6/1/1 5/1/1
f 10/1/1 6/1/1 9/1/1
f 11/1/1 8/1/1 7/1/1
f 12/1/1 8/1/1 11/1/1
f 13/1/1 11/1/1 10/1/1
f 14/1/1 11/1/1 13/1/1
f 15/1/1 11/1/1 14/1/1
f 16/1/1 11/1/1 15/1/1
f 17/1/1 11/1/1 16/1/1
f 18/1/1 11/1/1 17/1/1
f 19/1/1 13/1/1 10/1/1
f 19/4/1 14/4/1 13/4/1
f 20/1/1 15/1/1 14/1/1
f 20/4/1 14/4/1 19/4/1
f 21/4/1 16/4/1 15/4/1
f 21/1/1 15/1/1 20/1/1
f 22/1/1 17/1/1 16/1/1
f 22/4/1 16/4/1 21/4/1
f 23/4/1 18/4/1 17/4/1
f 23/1/1 17/1/1 22/1/1
f 24/1/1 11/1/1 18/1/1
f 24/4/1 18/4/1 23/4/1
f 25/1/1 23/1/1 22/1/1
f 25/1/1 22/1/1 21/1/1
f 25/1/1 24/1/1 23/1/1
f 25/1/1 21/1/1 20/1/1
f 25/1/1 20/1/1 19/1/1
f 25/1/1 19/1/1 10/1/1
f 26/1/1 11/1/1 24/1/1
f 26/1/1 24/1/1 25/1/1
f 27/3/1 26/3/1 25/3/1
f 28/3/1 26/3/1 27/3/1
f 31/1/1 30/1/1 29/1/1
f 32/1/1 30/1/1 31/1/1
f 33/2/1 32/2/1 31/2/1
f 34/2/1 32/2/1 33/2/1
f 35/1/1 34/1/1 33/1/1
f 36/1/1 34/1/1 35/1/1
f 37/2/1 36/2/1 35/2/1
f 38/2/1 36/2/1 37/2/1
f 41/1/1 40/1/1 39/1/1
f 42/1/1 40/1/1 41/1/1
f 45/1/1 44/1/1 43/1/1
f 46/1/1 44/1/1 45/1/1
f 47/1/2 48/1/2 49/1/2
f 49/1/2 48/1/2 50/1/2
f 51/1/2 52/1/2 53/1/2
f 53/1/2 52/1/2 54/1/2
f 55/1/2 56/1/2 57/1/2
f 57/1/2 56/1/2 58/1/2
f 59/1/2 60/1/2 61/1/2
f 61/1/2 60/1/2 62/1/2
f 59/1/2 61/1/2 63/1/2
f 63/1/2 61/1/2 64/1/2
f 64/1/2 61/1/2 65/1/2
f 65/1/2 61/1/2 66/1/2
f 66/1/2 61/1/2 67/1/2
f 67/1/2 61/1/2 68/1/2
f 59/1/2 63/1/2 69/1/2
f 63/4/2 64/4/2 69/4/2
f 64/1/2 65/1/2 70/1/2
f 69/4/2 64/4/2 70/4/2
f 65/4/2 66/4/2 71/4/2
f 70/1/2 65/1/2 71/1/2
f 66/1/2 67/1/2 72/1/2
f 71/4/2 66/4/2 72/4/2
f 67/4/2 68/4/2 73/4/2
f 72/1/2 67/1/2 73/1/2
f 68/1/2 61/1/2 74/1/2
f 73/4/2 68/4/2 74/4/2
f 72/1/2 73/1/2 75/1/2
f 71/1/2 72/1/2 75/1/2
f 73/1/2 74/1/2 75/1/2
f 70/1/2 71/1/2 75/1/2
f 69/1/2 70/1/2 75/1/2
f 59/1/2 69/1/2 75/1/2
f 74/1/2 61/1/2 76/1/2
f 75/1/2 74/1/2 76/1/2
f 75/3/2 76/3/2 77/3/2
f 77/3/2 76/3/2 78/3/2
f 79/1/2 80/1/2 81/1/2
f 81/1/2 80/1/2 82/1/2
f 81/2/2 82/2/2 83/2/2
f 83/2/2 82/2/2 84/2/2
f 83/1/2 84/1/2 85/1/2
f 85/1/2 84/1/2 86/1/2
f 85/2/2 86/2/2 87/2/2
f 87/2/2 86/2/2 88/2/2
f 91/1/3 90/1/3 89/1/3
f 92/1/3 90/1/3 91/1/3
f 95/1/3 94/1/3 93/1/3
f 96/1/3 94/1/3 95/1/3
f 104/1/3 97/1/3 96/1/3
f 105/1/3 97/1/3 104/1/3
f 106/1/3 104/1/3 96/1/3
f 106/4/3 105/4/3 104/4/3
f 107/1/3 97/1/3 105/1/3
f 107/4/3 105/4/3 106/4/3
f 108/1/3 106/1/3 96/1/3
f 108/1/3 107/1/3 106/1/3
f 109/1/3 97/1/3 107/1/3
f 109/1/3 107/1/3 108/1/3
f 110/1/3 108/1/3 96/1/3
f 110/4/3 109/4/3 108/4/3
f 111/1/3 97/1/3 109/1/3
f 111/4/3 109/4/3 110/4/3
f 112/1/3 110/1/3 96/1/3
f 112/1/3 111/1/3 110/1/3
f 113/1/3 97/1/3 111/1/3
f 113/1/3 111/1/3 112/1/3
f 114/1/3 112/1/3 96/1/3
f 114/4/3 113/4/3 112/4/3
f 115/1/3 97/1/3 113/1/3
f 115/4/3 113/4/3 114/4/3
f 116/1/3 114/1/3 96/1/3
f 116/1/3 115/1/3 114/1/3
f 117/1/3 97/1/3 115/1/3
f 117/1/3 115/1/3 116/1/3
f 119/1/3 116/1/3 96/1/3
f 120/4/3 117/4/3 116/4/3
f 120/1/3 116/1/3 119/1/3
f 121/1/3 97/1/3 117/1/3
f 121/4/3 117/4/3 120/4/3
f 122/1/3 120/1/3 119/1/3
f 122/1/3 119/1/3 118/1/3
f 122/1/3 121/1/3 120/1/3
f 123/3/3 98/3/3 97/3/3
f 123/1/3 121/1/3 122/1/3
f 123/1/3 97/1/3 121/1/3
f 124/3/3 98/3/3 123/3/3
f 125/1/3 100/1/3 99/1/3
f 126/2/3 101/2/3 100/2/3
f 126/1/3 100/1/3 125/1/3
f 127/1/3 102/1/3 101/1/3
f 127/2/3 101/2/3 126/2/3
f 128/2/3 103/2/3 102/2/3
f 128/1/3 102/1/3 127/1/3
f 129/2/3 103/2/3 128/2/3
f 132/1/3 131/1/3 130/1/3
f 133/1/3 131/1/3 132/1/3
f 136/1/3 135/1/3 134/1/3
f 137/1/3 135/1/3 136/1/3
f 138/1/4 139/1/4 140/1/4
f 140/1/4 139/1/4 141/1/4
f 142/1/4 143/1/4 144/1/4
f 144/1/4 143/1/4 145/1/4
f 146/1/4 147/1/4 148/1/4
f 148/1/4 147/1/4 149/1/4
f 149/1/4 150/1/4 157/1/4
f 157/1/4 150/1/4 158/1/4
f 149/1/4 157/1/4 159/1/4
f 157/4/4 158/4/4 159/4/4
f 158/1/4 150/1/4 160/1/4
f 159/4/4 158/4/4 160/4/4
f 149/1/4 159/1/4 161/1/4
f 159/1/4 160/1/4 161/1/4
f 160/1/4 150/1/4 162/1/4
f 161/1/4 160/1/4 162/1/4
f 149/1/4 161/1/4 163/1/4
f 161/4/4 162/4/4 163/4/4
f 162/1/4 150/1/4 164/1/4
f 163/4/4 162/4/4 164/4/4
f 149/1/4 163/1/4 165/1/4
f 163/1/4 164/1/4 165/1/4
f 164/1/4 150/1/4 166/1/4
f 165/1/4 164/1/4 166/1/4
f 149/1/4 165/1/4 167/1/4
f 165/4/4 166/4/4 167/4/4
f 166/1/4 150/1/4 168/1/4
f 167/4/4 166/4/4 168/4/4
f 149/1/4 167/1/4 169/1/4
f 167/1/4 168/1/4 169/1/4
f 168/1/4 150/1/4 170/1/4
f 169/1/4 168/1/4 170/1/4
f 149/1/4 169/1/4 171/1/4
f 169/4/4 170/4/4 171/4/4
f 170/1/4 150/1/4 172/1/4
f 171/4/4 170/4/4 172/4/4
f 149/1/4 171/1/4 173/1/4
f 171/1/4 172/1/4 173/1/4
f 150/3/4 151/3/4 174/3/4
f 173/1/4 172/1/4 174/1/4
f 172/1/4 150/1/4 174/1/4
f 174/3/4 151/3/4 175/3/4
f 152/1/4 153/1/4 176/1/4
f 153/2/4 154/2/4 177/2/4
f 176/1/4 153/1/4 177/1/4
f 154/1/4 155/1/4 178/1/4
f 177/2/4 154/2/4 178/2/4
f 155/2/4 156/2/4 179/2/4
f 178/1/4 155/1/4 179/1/4
f 179/2/4 156/2/4 180/2/4
f 181/1/4 182/1/4 183/1/4
f 183/1/4 182/1/4 184/1/4
f 188/1/5 186/1/5 185/1/5
f 189/1/5 186/1/5 188/1/5
f 191/1/5 188/1/5 187/1/5
f 191/1/5 190/1/5 189/1/5
f 191/1/5 189/1/5 188/1/5
f 192/1/5 190/1/5 191/1/5
f 193/1/5 190/1/5 192/1/5
f 194/1/5 190/1/5 193/1/5
f 197/1/5 196/1/5 195/1/5
f 198/1/5 196/1/5 197/1/5
f 199/1/5 197/1/5 195/1/5
f 200/1/5 196/1/5 198/1/5
f 201/1/5 199/1/5 195/1/5
f 201/1/5 200/1/5 199/1/5
f 202/1/5 196/1/5 200/1/5
f 202/1/5 200/1/5 201/1/5
f 203/1/6 204/1/6 206/1/6
f 206/1/6 204/1/6 207/1/6
f 208/1/6 209/1/6 210/1/6
f 210/1/6 209/1/6 211/1/6
f 208/1/6 210/1/6 212/1/6
f 211/1/6 209/1/6 213/1/6
f 208/1/6 212/1/6 214/1/6
f 212/1/6 213/1/6 214/1/6
f 213/1/6 209/1/6 215/1/6
f 214/1/6 213/1/6 215/1/6
f 205/1/6 206/1/6 216/1/6
f 216/1/6 206/1/6 217/1/6
f 217/1/6 218/1/6 219/1/6
f 219/1/6 218/1/6 220/1/6
f 221/3/6 222/3/6 223/3/6
f 223/3/6 222/3/6 224/3/6
f 223/1/6 224/1/6 225/1/6
f 225/1/6 224/1/6 226/1/6
f 225/3/6 226/3/6 227/3/6
f 227/3/6 226/3/6 228/3/6
f 227/1/6 228/1/6 229/1/6
f 229/1/6 228/1/6 230/1/6
f 227/1/6 229/1/6 231/1/6
f 230/1/6 228/1/6 232/1/6
f 225/3/6 227/3/6 233/3/6
f 231/1/6 232/1/6 233/1/6
f 227/1/6 231/1/6 233/1/6
f 232/1/6 228/1/6 234/1/6
f 233/1/6 232/1/6 234/1/6
f 228/3/6 226/3/6 234/3/6
f 223/1/6 225/1/6 235/1/6
f 225/3/6 233/3/6 235/3/6
f 233/3/6 234/3/6 235/3/6
f 234/3/6 226/3/6 236/3/6
f 235/3/6 234/3/6 236/3/6
f 226/1/6 224/1/6 236/1/6
f 221/3/6 223/3/6 237/3/6
f 223/1/6 235/1/6 237/1/6
f 235/1/6 236/1/6 237/1/6
f 236/1/6 224/1/6 238/1/6
f 237/1/6 236/1/6 238/1/6
f 224/3/6 222/3/6 238/3/6
f 221/3/6 237/3/6 239/3/6
f 237/3/6 238/3/6 239/3/6
f 238/3/6 222/3/6 240/3/6
f 239/3/6 238/3/6 240/3/6
f 241/2/6 242/2/6 243/2/6
f 243/2/6 242/2/6 244/2/6
f 241/2/6 243/2/6 245/2/6
f 243/1/6 244/1/6 245/1/6
f 244/2/6 242/2/6 246/2/6
f 245/1/6 244/1/6 246/1/6
f 241/2/6 245/2/6 247/2/6
f 245/2/6 246/2/6 247/2/6
f 246/2/6 242/2/6 248/2/6
f 247/2/6 246/2/6 248/2/6
