# MagicaVoxel @ Ephtracy

# group
o 

# material
mtllib torinoCyberPunk-12.mtl
usemtl palette

# normals
vn -1 0 0
vn 1 0 0
vn 0 0 1
vn 0 0 -1
vn 0 -1 0
vn 0 1 0

# texcoords
vt 0.533203 0.5
vt 0.537109 0.5
vt 0.541016 0.5
vt 0.548828 0.5
vt 0.595703 0.5
vt 0.720703 0.5

# verts
v 9.7 0.4 4.7
v 9.7 0.4 4.5
v 9.7 1 4.7
v 9.7 1 4.5
v 9.8 0.4 4.8
v 9.8 0.4 4.7
v 9.8 1 4.8
v 9.8 1 4.7
v 9.9 0.3 4.9
v 9.9 0.3 4.8
v 9.9 0.4 4.8
v 9.9 1 4.8
v 9.9 1.1 4.8
v 9.9 1.1 4.7
v 9.9 1.2 4.9
v 9.9 1.2 4.7
v 9.9 1.2 4.6
v 9.9 1.2 4.4
v 9.9 1.3 4.7
v 9.9 1.3 4.6
v 9.9 1.3 4.4
v 10 0.4 4.8
v 10 0.4 4.6
v 10 0.5 4.8
v 10 0.5 4.6
v 10.2 0.3 4.8
v 10.2 0.3 4.6
v 10.2 0.4 4.8
v 10.2 0.4 4.6
v 10.7 0.3 4.8
v 10.7 0.3 4.6
v 10.7 0.4 4.8
v 10.7 0.4 4.6
v 11.1 0.4 4.8
v 11.1 0.4 4.7
v 11.1 1 4.8
v 11.1 1 4.7
v 11.2 0.4 4.7
v 11.2 0.4 4.5
v 11.2 1 4.7
v 11.2 1 4.5
v 11.3 0.3 4.2
v 11.3 0.3 4.1
v 11.3 1.2 4.1
v 11.3 1.2 3.8
v 11.3 1.5 4.1
v 11.3 1.5 3.8
v 11.3 1.6 4.2
v 11.3 1.6 4.1
v 9.8 0.4 4.7
v 9.8 0.4 4.5
v 9.8 1 4.7
v 9.8 1 4.5
v 9.9 0.4 4.8
v 9.9 0.4 4.7
v 9.9 1 4.8
v 9.9 1 4.7
v 10.3 0.3 4.8
v 10.3 0.3 4.6
v 10.3 0.4 4.8
v 10.3 0.4 4.6
v 10.8 0.3 4.8
v 10.8 0.3 4.6
v 10.8 0.4 4.8
v 10.8 0.4 4.6
v 11 0.4 4.8
v 11 0.4 4.6
v 11 0.5 4.8
v 11 0.5 4.6
v 11.1 0.3 4.9
v 11.1 0.3 4.8
v 11.1 0.4 4.8
v 11.1 1 4.8
v 11.1 1.1 4.8
v 11.1 1.1 4.7
v 11.1 1.2 4.9
v 11.1 1.2 4.7
v 11.1 1.2 4.6
v 11.1 1.2 4.4
v 11.1 1.3 4.7
v 11.1 1.3 4.6
v 11.1 1.3 4.4
v 11.2 0.4 4.8
v 11.2 0.4 4.7
v 11.2 1 4.8
v 11.2 1 4.7
v 11.3 0.4 4.7
v 11.3 0.4 4.5
v 11.3 1 4.7
v 11.3 1 4.5
v 11.4 0.3 4.2
v 11.4 0.3 4.1
v 11.4 1.2 4.1
v 11.4 1.2 3.8
v 11.4 1.5 4.1
v 11.4 1.5 3.8
v 11.4 1.6 4.2
v 11.4 1.6 4.1
v 9.9 0.3 4.9
v 9.9 1.2 4.9
v 10 0.5 4.9
v 10 1 4.9
v 10.4 0.5 4.9
v 10.4 1 4.9
v 10.6 0.5 4.9
v 10.6 1 4.9
v 11 0.5 4.9
v 11 1 4.9
v 11.1 0.3 4.9
v 11.1 1.2 4.9
v 9.8 0.4 4.8
v 9.8 1 4.8
v 9.9 0.4 4.8
v 9.9 1 4.8
v 11.1 0.4 4.8
v 11.1 1 4.8
v 11.2 0.4 4.8
v 11.2 1 4.8
v 9.7 0.4 4.7
v 9.7 1 4.7
v 9.8 0.4 4.7
v 9.8 1 4.7
v 9.9 1.2 4.7
v 9.9 1.3 4.7
v 11.1 1.2 4.7
v 11.1 1.3 4.7
v 11.2 0.4 4.7
v 11.2 1 4.7
v 11.3 0.4 4.7
v 11.3 1 4.7
v 11.3 0.3 4.2
v 11.3 1.6 4.2
v 11.4 0.3 4.2
v 11.4 1.6 4.2
v 9.9 0.3 4.8
v 9.9 0.4 4.8
v 9.9 1 4.8
v 9.9 1.1 4.8
v 10 0.4 4.8
v 10 0.5 4.8
v 10 1 4.8
v 10.2 0.3 4.8
v 10.2 0.4 4.8
v 10.3 0.3 4.8
v 10.3 0.4 4.8
v 10.4 0.5 4.8
v 10.4 1 4.8
v 10.6 0.5 4.8
v 10.6 1 4.8
v 10.7 0.3 4.8
v 10.7 0.4 4.8
v 10.8 0.3 4.8
v 10.8 0.4 4.8
v 11 0.4 4.8
v 11 0.5 4.8
v 11 1 4.8
v 11.1 0.3 4.8
v 11.1 0.4 4.8
v 11.1 1 4.8
v 11.1 1.1 4.8
v 9.8 0.4 4.7
v 9.8 1 4.7
v 9.9 0.4 4.7
v 9.9 1 4.7
v 9.9 1.1 4.7
v 9.9 1.2 4.7
v 11.1 0.4 4.7
v 11.1 1 4.7
v 11.1 1.1 4.7
v 11.1 1.2 4.7
v 11.2 0.4 4.7
v 11.2 1 4.7
v 10 0.4 4.6
v 10 0.5 4.6
v 10.2 0.3 4.6
v 10.2 0.4 4.6
v 10.3 0.3 4.6
v 10.3 0.4 4.6
v 10.7 0.3 4.6
v 10.7 0.4 4.6
v 10.8 0.3 4.6
v 10.8 0.4 4.6
v 11 0.4 4.6
v 11 0.5 4.6
v 9.7 0.4 4.5
v 9.7 1 4.5
v 9.8 0.4 4.5
v 9.8 1 4.5
v 11.2 0.4 4.5
v 11.2 1 4.5
v 11.3 0.4 4.5
v 11.3 1 4.5
v 9.9 1.2 4.4
v 9.9 1.3 4.4
v 11.1 1.2 4.4
v 11.1 1.3 4.4
v 11.3 0.3 4.1
v 11.3 1.2 4.1
v 11.3 1.5 4.1
v 11.3 1.6 4.1
v 11.4 0.3 4.1
v 11.4 1.2 4.1
v 11.4 1.5 4.1
v 11.4 1.6 4.1
v 11.3 1.2 3.8
v 11.3 1.5 3.8
v 11.4 1.2 3.8
v 11.4 1.5 3.8
v 9.9 0.3 4.9
v 11.1 0.3 4.9
v 9.9 0.3 4.8
v 10.2 0.3 4.8
v 10.3 0.3 4.8
v 10.7 0.3 4.8
v 10.8 0.3 4.8
v 11.1 0.3 4.8
v 10.2 0.3 4.6
v 10.3 0.3 4.6
v 10.7 0.3 4.6
v 10.8 0.3 4.6
v 11.3 0.3 4.2
v 11.4 0.3 4.2
v 11.3 0.3 4.1
v 11.4 0.3 4.1
v 9.8 0.4 4.8
v 9.9 0.4 4.8
v 10 0.4 4.8
v 10.2 0.4 4.8
v 10.3 0.4 4.8
v 10.7 0.4 4.8
v 10.8 0.4 4.8
v 11 0.4 4.8
v 11.1 0.4 4.8
v 11.2 0.4 4.8
v 9.7 0.4 4.7
v 9.8 0.4 4.7
v 9.9 0.4 4.7
v 11.1 0.4 4.7
v 11.2 0.4 4.7
v 11.3 0.4 4.7
v 10 0.4 4.6
v 10.2 0.4 4.6
v 10.3 0.4 4.6
v 10.7 0.4 4.6
v 10.8 0.4 4.6
v 11 0.4 4.6
v 9.7 0.4 4.5
v 9.8 0.4 4.5
v 11.2 0.4 4.5
v 11.3 0.4 4.5
v 9.9 1.1 4.8
v 11.1 1.1 4.8
v 9.9 1.1 4.7
v 11.1 1.1 4.7
v 9.9 1.2 4.7
v 11.1 1.2 4.7
v 9.9 1.2 4.6
v 11.1 1.2 4.6
v 9.9 1.2 4.4
v 11.1 1.2 4.4
v 11.3 1.2 4.1
v 11.4 1.2 4.1
v 11.3 1.2 3.8
v 11.4 1.2 3.8
v 10 0.5 4.8
v 10.4 0.5 4.8
v 10.6 0.5 4.8
v 11 0.5 4.8
v 10 0.5 4.6
v 11 0.5 4.6
v 9.8 1 4.8
v 9.9 1 4.8
v 11.1 1 4.8
v 11.2 1 4.8
v 9.7 1 4.7
v 9.8 1 4.7
v 9.9 1 4.7
v 11.1 1 4.7
v 11.2 1 4.7
v 11.3 1 4.7
v 9.7 1 4.5
v 9.8 1 4.5
v 11.2 1 4.5
v 11.3 1 4.5
v 9.9 1.2 4.9
v 11.1 1.2 4.9
v 9.9 1.2 4.7
v 11.1 1.2 4.7
v 9.9 1.3 4.7
v 11.1 1.3 4.7
v 9.9 1.3 4.6
v 11.1 1.3 4.6
v 9.9 1.3 4.4
v 11.1 1.3 4.4
v 11.3 1.5 4.1
v 11.4 1.5 4.1
v 11.3 1.5 3.8
v 11.4 1.5 3.8
v 11.3 1.6 4.2
v 11.4 1.6 4.2
v 11.3 1.6 4.1
v 11.4 1.6 4.1

# faces
f 3/1/1 2/1/1 1/1/1
f 4/1/1 2/1/1 3/1/1
f 7/1/1 6/1/1 5/1/1
f 8/1/1 6/1/1 7/1/1
f 11/1/1 10/1/1 9/1/1
f 12/1/1 11/1/1 9/1/1
f 13/1/1 12/1/1 9/1/1
f 15/1/1 13/1/1 9/1/1
f 15/1/1 14/1/1 13/1/1
f 16/1/1 14/1/1 15/1/1
f 19/1/1 17/1/1 16/1/1
f 20/2/1 18/2/1 17/2/1
f 20/1/1 17/1/1 19/1/1
f 21/2/1 18/2/1 20/2/1
f 24/3/1 23/3/1 22/3/1
f 25/3/1 23/3/1 24/3/1
f 28/3/1 27/3/1 26/3/1
f 29/3/1 27/3/1 28/3/1
f 32/3/1 31/3/1 30/3/1
f 33/3/1 31/3/1 32/3/1
f 36/1/1 35/1/1 34/1/1
f 37/1/1 35/1/1 36/1/1
f 40/1/1 39/1/1 38/1/1
f 41/1/1 39/1/1 40/1/1
f 44/5/1 43/5/1 42/5/1
f 46/5/1 44/5/1 42/5/1
f 46/4/1 45/4/1 44/4/1
f 47/4/1 45/4/1 46/4/1
f 48/5/1 46/5/1 42/5/1
f 49/5/1 46/5/1 48/5/1
f 50/1/2 51/1/2 52/1/2
f 52/1/2 51/1/2 53/1/2
f 54/1/2 55/1/2 56/1/2
f 56/1/2 55/1/2 57/1/2
f 58/3/2 59/3/2 60/3/2
f 60/3/2 59/3/2 61/3/2
f 62/3/2 63/3/2 64/3/2
f 64/3/2 63/3/2 65/3/2
f 66/3/2 67/3/2 68/3/2
f 68/3/2 67/3/2 69/3/2
f 70/1/2 71/1/2 72/1/2
f 70/1/2 72/1/2 73/1/2
f 70/1/2 73/1/2 74/1/2
f 70/1/2 74/1/2 76/1/2
f 74/1/2 75/1/2 76/1/2
f 76/1/2 75/1/2 77/1/2
f 77/1/2 78/1/2 80/1/2
f 78/2/2 79/2/2 81/2/2
f 80/1/2 78/1/2 81/1/2
f 81/2/2 79/2/2 82/2/2
f 83/1/2 84/1/2 85/1/2
f 85/1/2 84/1/2 86/1/2
f 87/1/2 88/1/2 89/1/2
f 89/1/2 88/1/2 90/1/2
f 91/5/2 92/5/2 93/5/2
f 91/5/2 93/5/2 95/5/2
f 93/4/2 94/4/2 95/4/2
f 95/4/2 94/4/2 96/4/2
f 91/5/2 95/5/2 97/5/2
f 97/5/2 95/5/2 98/5/2
f 101/1/3 100/1/3 99/1/3
f 102/1/3 100/1/3 101/1/3
f 103/1/3 101/1/3 99/1/3
f 103/6/3 102/6/3 101/6/3
f 104/1/3 100/1/3 102/1/3
f 104/6/3 102/6/3 103/6/3
f 105/1/3 103/1/3 99/1/3
f 105/1/3 104/1/3 103/1/3
f 106/1/3 100/1/3 104/1/3
f 106/1/3 104/1/3 105/1/3
f 107/1/3 105/1/3 99/1/3
f 107/6/3 106/6/3 105/6/3
f 108/1/3 100/1/3 106/1/3
f 108/6/3 106/6/3 107/6/3
f 109/1/3 107/1/3 99/1/3
f 109/1/3 108/1/3 107/1/3
f 110/1/3 100/1/3 108/1/3
f 110/1/3 108/1/3 109/1/3
f 113/1/3 112/1/3 111/1/3
f 114/1/3 112/1/3 113/1/3
f 117/1/3 116/1/3 115/1/3
f 118/1/3 116/1/3 117/1/3
f 121/1/3 120/1/3 119/1/3
f 122/1/3 120/1/3 121/1/3
f 125/1/3 124/1/3 123/1/3
f 126/1/3 124/1/3 125/1/3
f 129/1/3 128/1/3 127/1/3
f 130/1/3 128/1/3 129/1/3
f 133/5/3 132/5/3 131/5/3
f 134/5/3 132/5/3 133/5/3
f 135/1/4 136/1/4 139/1/4
f 137/1/4 138/1/4 139/1/4
f 136/1/4 137/1/4 139/1/4
f 139/1/4 138/1/4 140/1/4
f 140/1/4 138/1/4 141/1/4
f 135/1/4 139/1/4 142/1/4
f 142/1/4 139/1/4 143/1/4
f 140/6/4 141/6/4 146/6/4
f 141/1/4 138/1/4 147/1/4
f 146/6/4 141/6/4 147/6/4
f 146/1/4 147/1/4 148/1/4
f 147/1/4 138/1/4 149/1/4
f 148/1/4 147/1/4 149/1/4
f 144/1/4 145/1/4 150/1/4
f 150/1/4 145/1/4 151/1/4
f 152/1/4 153/1/4 154/1/4
f 148/6/4 149/6/4 155/6/4
f 149/1/4 138/1/4 156/1/4
f 155/6/4 149/6/4 156/6/4
f 154/1/4 155/1/4 157/1/4
f 152/1/4 154/1/4 157/1/4
f 155/1/4 156/1/4 157/1/4
f 157/1/4 156/1/4 158/1/4
f 156/1/4 138/1/4 159/1/4
f 158/1/4 156/1/4 159/1/4
f 159/1/4 138/1/4 160/1/4
f 161/1/4 162/1/4 163/1/4
f 163/1/4 162/1/4 164/1/4
f 165/1/4 166/1/4 169/1/4
f 169/1/4 166/1/4 170/1/4
f 167/1/4 168/1/4 171/1/4
f 171/1/4 168/1/4 172/1/4
f 173/3/4 174/3/4 176/3/4
f 175/3/4 176/3/4 177/3/4
f 176/3/4 174/3/4 178/3/4
f 177/3/4 176/3/4 178/3/4
f 178/3/4 174/3/4 180/3/4
f 179/3/4 180/3/4 181/3/4
f 180/3/4 174/3/4 182/3/4
f 181/3/4 180/3/4 182/3/4
f 182/3/4 174/3/4 183/3/4
f 183/3/4 174/3/4 184/3/4
f 185/1/4 186/1/4 187/1/4
f 187/1/4 186/1/4 188/1/4
f 189/1/4 190/1/4 191/1/4
f 191/1/4 190/1/4 192/1/4
f 193/2/4 194/2/4 195/2/4
f 195/2/4 194/2/4 196/2/4
f 197/5/4 198/5/4 201/5/4
f 201/5/4 198/5/4 202/5/4
f 199/5/4 200/5/4 203/5/4
f 203/5/4 200/5/4 204/5/4
f 205/4/4 206/4/4 207/4/4
f 207/4/4 206/4/4 208/4/4
f 211/1/5 210/1/5 209/1/5
f 212/1/5 210/1/5 211/1/5
f 213/1/5 210/1/5 212/1/5
f 214/1/5 210/1/5 213/1/5
f 215/1/5 210/1/5 214/1/5
f 216/1/5 210/1/5 215/1/5
f 217/3/5 213/3/5 212/3/5
f 218/3/5 213/3/5 217/3/5
f 219/3/5 215/3/5 214/3/5
f 220/3/5 215/3/5 219/3/5
f 223/5/5 222/5/5 221/5/5
f 224/5/5 222/5/5 223/5/5
f 236/1/5 226/1/5 225/1/5
f 237/1/5 226/1/5 236/1/5
f 238/1/5 234/1/5 233/1/5
f 239/1/5 234/1/5 238/1/5
f 241/3/5 228/3/5 227/3/5
f 242/3/5 228/3/5 241/3/5
f 243/3/5 230/3/5 229/3/5
f 244/3/5 230/3/5 243/3/5
f 245/3/5 232/3/5 231/3/5
f 246/3/5 232/3/5 245/3/5
f 247/1/5 236/1/5 235/1/5
f 248/1/5 236/1/5 247/1/5
f 249/1/5 240/1/5 239/1/5
f 250/1/5 240/1/5 249/1/5
f 253/1/5 252/1/5 251/1/5
f 254/1/5 252/1/5 253/1/5
f 257/1/5 256/1/5 255/1/5
f 258/1/5 256/1/5 257/1/5
f 259/2/5 258/2/5 257/2/5
f 260/2/5 258/2/5 259/2/5
f 263/4/5 262/4/5 261/4/5
f 264/4/5 262/4/5 263/4/5
f 265/3/6 266/3/6 269/3/6
f 267/3/6 268/3/6 269/3/6
f 266/3/6 267/3/6 269/3/6
f 269/3/6 268/3/6 270/3/6
f 271/1/6 272/1/6 276/1/6
f 276/1/6 272/1/6 277/1/6
f 273/1/6 274/1/6 278/1/6
f 278/1/6 274/1/6 279/1/6
f 275/1/6 276/1/6 281/1/6
f 281/1/6 276/1/6 282/1/6
f 279/1/6 280/1/6 283/1/6
f 283/1/6 280/1/6 284/1/6
f 285/1/6 286/1/6 287/1/6
f 287/1/6 286/1/6 288/1/6
f 289/1/6 290/1/6 291/1/6
f 291/1/6 290/1/6 292/1/6
f 291/2/6 292/2/6 293/2/6
f 293/2/6 292/2/6 294/2/6
f 295/4/6 296/4/6 297/4/6
f 297/4/6 296/4/6 298/4/6
f 299/5/6 300/5/6 301/5/6
f 301/5/6 300/5/6 302/5/6
