# Blender 4.1.1
# www.blender.org
mtllib streetfewlamp.mtl
o street3-1.002
v -143.953644 0.000005 -90.478271
v -143.953644 -0.000005 -216.478271
v -143.953644 1.000005 -90.478271
v -143.953644 0.999995 -216.478271
v -115.953651 63.000004 -90.478271
v -115.953651 63.000004 -94.478271
v -115.953651 64.000008 -90.478271
v -115.953651 64.000008 -94.478271
v -115.953651 66.000008 -90.478271
v -115.953651 66.000008 -94.478271
v -83.953651 1.000005 -90.478271
v -83.953651 0.999995 -216.478271
v -83.953651 2.000005 -90.478271
v -83.953651 1.999995 -216.478271
v -82.953651 2.000005 -91.478271
v -82.953651 2.000005 -93.478271
v -82.953651 2.000000 -153.478271
v -82.953651 2.000000 -155.478271
v -82.953651 1.999995 -213.478271
v -82.953651 1.999995 -215.478271
v -82.953651 3.000005 -91.478271
v -82.953651 3.000005 -93.478271
v -82.953651 64.000008 -91.478271
v -82.953651 64.000008 -93.478271
v -109.953651 63.000004 -90.478271
v -109.953651 63.000004 -94.478271
v -109.953651 64.000008 -90.478271
v -109.953651 64.000008 -91.478271
v -109.953651 64.000008 -93.478271
v -109.953651 64.000008 -94.478271
v -109.953651 66.000008 -90.478271
v -109.953651 66.000008 -91.478271
v -109.953651 66.000008 -93.478271
v -109.953651 66.000008 -94.478271
v -81.953651 2.000000 -153.478271
v -81.953651 2.000000 -155.478271
v -80.953651 2.000005 -91.478271
v -80.953651 2.000005 -93.478271
v -80.953651 1.999995 -215.478271
v -80.953651 3.000005 -91.478271
v -80.953651 3.000005 -93.478271
v -80.953651 66.000008 -91.478271
v -80.953651 66.000008 -93.478271
v -143.953644 0.000005 -90.478271
v -143.953644 1.000005 -90.478271
v -115.953651 0.000005 -90.478271
v -115.953651 1.000005 -90.478271
v -115.953651 63.000004 -90.478271
v -115.953651 64.000008 -90.478271
v -115.953651 66.000008 -90.478271
v -114.953651 0.000005 -90.478271
v -114.953651 1.000005 -90.478271
v -113.953651 0.000005 -90.478271
v -113.953651 1.000005 -90.478271
v -112.953651 0.000005 -90.478271
v -112.953651 1.000005 -90.478271
v -109.953651 63.000004 -90.478271
v -109.953651 64.000008 -90.478271
v -109.953651 66.000008 -90.478271
v -87.953651 0.000005 -90.478271
v -87.953651 1.000005 -90.478271
v -85.953651 0.000005 -90.478271
v -85.953651 1.000005 -90.478271
v -83.953651 0.000005 -90.478271
v -83.953651 1.000005 -90.478271
v -83.953651 2.000005 -90.478271
v -82.953651 1.000005 -90.478271
v -82.953651 2.000005 -90.478271
v -70.953651 1.000005 -90.478271
v -70.953651 2.000005 -90.478271
v -109.953651 64.000008 -91.478271
v -109.953651 66.000008 -91.478271
v -82.953651 2.000005 -91.478271
v -82.953651 3.000005 -91.478271
v -82.953651 64.000008 -91.478271
v -80.953651 2.000005 -91.478271
v -80.953651 3.000005 -91.478271
v -80.953651 66.000008 -91.478271
v -82.953651 2.000000 -153.478271
v -81.953651 2.000000 -153.478271
v -82.953651 1.999995 -213.478271
v -81.953651 1.999995 -213.478271
v -109.953651 64.000008 -93.478271
v -109.953651 66.000008 -93.478271
v -82.953651 2.000005 -93.478271
v -82.953651 3.000005 -93.478271
v -82.953651 64.000008 -93.478271
v -81.953651 2.000005 -93.478271
v -80.953651 2.000005 -93.478271
v -80.953651 3.000005 -93.478271
v -80.953651 66.000008 -93.478271
v -115.953651 63.000004 -94.478271
v -115.953651 64.000008 -94.478271
v -115.953651 66.000008 -94.478271
v -109.953651 63.000004 -94.478271
v -109.953651 64.000008 -94.478271
v -109.953651 66.000008 -94.478271
v -82.953651 2.000000 -155.478271
v -81.953651 2.000000 -155.478271
v -82.953651 1.999995 -215.478271
v -80.953651 1.999995 -215.478271
v -143.953644 -0.000005 -216.478271
v -143.953644 0.999995 -216.478271
v -115.953651 -0.000005 -216.478271
v -115.953651 0.999995 -216.478271
v -114.953651 -0.000005 -216.478271
v -114.953651 0.999995 -216.478271
v -113.953651 -0.000005 -216.478271
v -113.953651 0.999995 -216.478271
v -112.953651 -0.000005 -216.478271
v -112.953651 0.999995 -216.478271
v -87.953651 -0.000005 -216.478271
v -87.953651 0.999995 -216.478271
v -85.953651 -0.000005 -216.478271
v -85.953651 0.999995 -216.478271
v -83.953651 -0.000005 -216.478271
v -83.953651 0.999995 -216.478271
v -83.953651 1.999995 -216.478271
v -82.953651 -0.000005 -216.478271
v -82.953651 0.999995 -216.478271
v -82.953651 1.999995 -216.478271
v -143.953644 0.000005 -90.478271
v -115.953651 0.000005 -90.478271
v -114.953651 0.000005 -90.478271
v -113.953651 0.000005 -90.478271
v -112.953651 0.000005 -90.478271
v -87.953651 0.000005 -90.478271
v -85.953651 0.000005 -90.478271
v -83.953651 0.000005 -90.478271
v -80.953651 0.000002 -133.478271
v -79.953651 0.000002 -133.478271
v -80.953651 0.000001 -134.478271
v -79.953651 0.000001 -134.478271
v -82.953651 0.000001 -136.478271
v -81.953651 0.000001 -136.478271
v -82.953651 0.000001 -137.478271
v -81.953651 0.000001 -137.478271
v -83.953651 0.000001 -140.478271
v -82.953651 0.000001 -140.478271
v -83.953651 0.000001 -141.478271
v -82.953651 0.000001 -141.478271
v -82.953651 -0.000005 -215.478271
v -143.953644 -0.000005 -216.478271
v -115.953651 -0.000005 -216.478271
v -114.953651 -0.000005 -216.478271
v -113.953651 -0.000005 -216.478271
v -112.953651 -0.000005 -216.478271
v -87.953651 -0.000005 -216.478271
v -85.953651 -0.000005 -216.478271
v -83.953651 -0.000005 -216.478271
v -82.953651 -0.000005 -216.478271
v -115.953651 63.000004 -90.478271
v -109.953651 63.000004 -90.478271
v -115.953651 63.000004 -94.478271
v -109.953651 63.000004 -94.478271
v -109.953651 64.000008 -91.478271
v -82.953651 64.000008 -91.478271
v -109.953651 64.000008 -93.478271
v -82.953651 64.000008 -93.478271
v -143.953644 1.000005 -90.478271
v -115.953651 1.000005 -90.478271
v -114.953651 1.000005 -90.478271
v -113.953651 1.000005 -90.478271
v -112.953651 1.000005 -90.478271
v -87.953651 1.000005 -90.478271
v -85.953651 1.000005 -90.478271
v -83.953651 1.000005 -90.478271
v -143.953644 0.999995 -216.478271
v -115.953651 0.999995 -216.478271
v -114.953651 0.999995 -216.478271
v -113.953651 0.999995 -216.478271
v -112.953651 0.999995 -216.478271
v -87.953651 0.999995 -216.478271
v -85.953651 0.999995 -216.478271
v -83.953651 0.999995 -216.478271
v -83.953651 2.000005 -90.478271
v -82.953651 2.000005 -90.478271
v -70.953651 2.000005 -90.478271
v -82.953651 2.000005 -91.478271
v -80.953651 2.000005 -91.478271
v -82.953651 2.000005 -93.478271
v -81.953651 2.000005 -93.478271
v -80.953651 2.000005 -93.478271
v -81.953651 2.000004 -99.478271
v -70.953651 2.000004 -99.478271
v -81.953651 2.000004 -100.478271
v -70.953651 2.000004 -100.478271
v -81.953651 2.000003 -109.478271
v -70.953651 2.000003 -109.478271
v -81.953651 2.000003 -110.478271
v -70.953651 2.000003 -110.478271
v -81.953651 2.000003 -119.478271
v -70.953651 2.000003 -119.478271
v -81.953651 2.000002 -120.478271
v -70.953651 2.000002 -120.478271
v -81.953651 2.000002 -129.478271
v -70.953651 2.000002 -129.478271
v -81.953651 2.000002 -130.478271
v -70.953651 2.000002 -130.478271
v -81.953651 2.000001 -139.478271
v -70.953651 2.000001 -139.478271
v -81.953651 2.000001 -140.478271
v -70.953651 2.000001 -140.478271
v -81.953651 2.000000 -149.478271
v -70.953651 2.000000 -149.478271
v -81.953651 2.000000 -150.478271
v -70.953651 2.000000 -150.478271
v -82.953651 2.000000 -153.478271
v -81.953651 2.000000 -153.478271
v -82.953651 2.000000 -155.478271
v -81.953651 2.000000 -155.478271
v -81.953651 2.000000 -159.478271
v -70.953651 2.000000 -159.478271
v -81.953651 2.000000 -160.478271
v -70.953651 2.000000 -160.478271
v -81.953651 1.999999 -169.478271
v -70.953651 1.999999 -169.478271
v -81.953651 1.999999 -170.478271
v -70.953651 1.999999 -170.478271
v -81.953651 1.999998 -178.478271
v -70.953651 1.999998 -178.478271
v -81.953651 1.999998 -179.478271
v -70.953651 1.999998 -179.478271
v -81.953651 1.999997 -187.478271
v -70.953651 1.999997 -187.478271
v -81.953651 1.999997 -188.478271
v -70.953651 1.999997 -188.478271
v -81.953651 1.999997 -196.478271
v -70.953651 1.999997 -196.478271
v -81.953651 1.999997 -197.478271
v -70.953651 1.999997 -197.478271
v -81.953651 1.999996 -206.478271
v -70.953651 1.999996 -206.478271
v -81.953651 1.999996 -207.478271
v -70.953651 1.999996 -207.478271
v -82.953651 1.999995 -213.478271
v -81.953651 1.999995 -213.478271
v -82.953651 1.999995 -215.478271
v -80.953651 1.999995 -215.478271
v -83.953651 1.999995 -216.478271
v -82.953651 1.999995 -216.478271
v -115.953651 66.000008 -90.478271
v -109.953651 66.000008 -90.478271
v -109.953651 66.000008 -91.478271
v -80.953651 66.000008 -91.478271
v -109.953651 66.000008 -93.478271
v -80.953651 66.000008 -93.478271
v -115.953651 66.000008 -94.478271
v -109.953651 66.000008 -94.478271
vn -1.0000 -0.0000 -0.0000
vn 1.0000 -0.0000 -0.0000
vn -0.0000 -0.0000 1.0000
vn -0.0000 -0.0000 -1.0000
vn -0.0000 -1.0000 -0.0000
vn -0.0000 1.0000 -0.0000
vt 0.916016 0.500000
vt 0.802734 0.500000
vt 0.923828 0.500000
vt 0.751953 0.500000
vt 0.919922 0.500000
vt 0.943359 0.500000
vt 0.951172 0.500000
vt 0.908203 0.500000
s 0
usemtl palette
f 3/1/1 2/1/1 1/1/1
f 4/1/1 2/1/1 3/1/1
f 7/2/1 6/2/1 5/2/1
f 8/2/1 6/2/1 7/2/1
f 9/3/1 8/3/1 7/3/1
f 10/3/1 8/3/1 9/3/1
f 13/4/1 12/4/1 11/4/1
f 14/4/1 12/4/1 13/4/1
f 21/5/1 16/5/1 15/5/1
f 22/5/1 16/5/1 21/5/1
f 23/3/1 22/3/1 21/3/1
f 24/3/1 22/3/1 23/3/1
f 25/2/2 26/2/2 27/2/2
f 27/2/2 26/2/2 28/2/2
f 28/2/2 26/2/2 29/2/2
f 29/2/2 26/2/2 30/2/2
f 27/3/2 28/3/2 31/3/2
f 31/3/2 28/3/2 32/3/2
f 29/3/2 30/3/2 33/3/2
f 33/3/2 30/3/2 34/3/2
f 37/5/2 38/5/2 40/5/2
f 40/5/2 38/5/2 41/5/2
f 40/3/2 41/3/2 42/3/2
f 42/3/2 41/3/2 43/3/2
f 46/1/3 45/1/3 44/1/3
f 47/1/3 45/1/3 46/1/3
f 51/6/3 47/6/3 46/6/3
f 52/6/3 47/6/3 51/6/3
f 53/1/3 52/1/3 51/1/3
f 54/1/3 52/1/3 53/1/3
f 55/6/3 54/6/3 53/6/3
f 56/6/3 54/6/3 55/6/3
f 57/2/3 49/2/3 48/2/3
f 58/3/3 50/3/3 49/3/3
f 58/2/3 49/2/3 57/2/3
f 59/3/3 50/3/3 58/3/3
f 60/1/3 56/1/3 55/1/3
f 61/1/3 56/1/3 60/1/3
f 62/6/3 61/6/3 60/6/3
f 63/6/3 61/6/3 62/6/3
f 64/1/3 63/1/3 62/1/3
f 65/1/3 63/1/3 64/1/3
f 67/5/3 65/5/3 64/5/3
f 67/4/3 66/4/3 65/4/3
f 68/4/3 66/4/3 67/4/3
f 69/5/3 67/5/3 64/5/3
f 69/6/3 68/6/3 67/6/3
f 70/6/3 68/6/3 69/6/3
f 75/3/3 72/3/3 71/3/3
f 76/5/3 74/5/3 73/5/3
f 77/3/3 75/3/3 74/3/3
f 77/5/3 74/5/3 76/5/3
f 78/3/3 72/3/3 75/3/3
f 78/3/3 75/3/3 77/3/3
f 83/3/4 84/3/4 87/3/4
f 85/5/4 86/5/4 88/5/4
f 88/5/4 86/5/4 89/5/4
f 86/3/4 87/3/4 90/3/4
f 89/5/4 86/5/4 90/5/4
f 87/3/4 84/3/4 91/3/4
f 90/3/4 87/3/4 91/3/4
f 92/2/4 93/2/4 95/2/4
f 93/3/4 94/3/4 96/3/4
f 95/2/4 93/2/4 96/2/4
f 96/3/4 94/3/4 97/3/4
f 102/1/4 103/1/4 104/1/4
f 104/1/4 103/1/4 105/1/4
f 104/6/4 105/6/4 106/6/4
f 106/6/4 105/6/4 107/6/4
f 106/1/4 107/1/4 108/1/4
f 108/1/4 107/1/4 109/1/4
f 108/6/4 109/6/4 110/6/4
f 110/6/4 109/6/4 111/6/4
f 110/1/4 111/1/4 112/1/4
f 112/1/4 111/1/4 113/1/4
f 112/6/4 113/6/4 114/6/4
f 114/6/4 113/6/4 115/6/4
f 114/1/4 115/1/4 116/1/4
f 116/1/4 115/1/4 117/1/4
f 116/5/4 117/5/4 119/5/4
f 117/4/4 118/4/4 120/4/4
f 119/5/4 117/5/4 120/5/4
f 120/4/4 118/4/4 121/4/4
f 132/5/5 130/5/5 129/5/5
f 132/7/5 131/7/5 130/7/5
f 133/7/5 131/7/5 132/7/5
f 134/5/5 132/5/5 129/5/5
f 134/5/5 133/5/5 132/5/5
f 135/5/5 133/5/5 134/5/5
f 136/5/5 134/5/5 129/5/5
f 136/7/5 135/7/5 134/7/5
f 137/5/5 133/5/5 135/5/5
f 137/7/5 135/7/5 136/7/5
f 138/1/5 129/1/5 128/1/5
f 138/5/5 136/5/5 129/5/5
f 138/5/5 137/5/5 136/5/5
f 139/5/5 137/5/5 138/5/5
f 140/1/5 138/1/5 128/1/5
f 140/7/5 139/7/5 138/7/5
f 141/5/5 137/5/5 139/5/5
f 141/7/5 139/7/5 140/7/5
f 143/1/5 123/1/5 122/1/5
f 144/6/5 124/6/5 123/6/5
f 144/1/5 123/1/5 143/1/5
f 145/1/5 125/1/5 124/1/5
f 145/6/5 124/6/5 144/6/5
f 146/6/5 126/6/5 125/6/5
f 146/1/5 125/1/5 145/1/5
f 147/1/5 127/1/5 126/1/5
f 147/6/5 126/6/5 146/6/5
f 148/6/5 128/6/5 127/6/5
f 148/1/5 127/1/5 147/1/5
f 149/1/5 140/1/5 128/1/5
f 149/6/5 128/6/5 148/6/5
f 150/5/5 142/5/5 140/5/5
f 150/1/5 140/1/5 149/1/5
f 151/5/5 142/5/5 150/5/5
f 154/2/5 153/2/5 152/2/5
f 155/2/5 153/2/5 154/2/5
f 158/3/5 157/3/5 156/3/5
f 159/3/5 157/3/5 158/3/5
f 160/1/6 161/1/6 168/1/6
f 161/6/6 162/6/6 169/6/6
f 168/1/6 161/1/6 169/1/6
f 162/1/6 163/1/6 170/1/6
f 169/6/6 162/6/6 170/6/6
f 163/6/6 164/6/6 171/6/6
f 170/1/6 163/1/6 171/1/6
f 164/1/6 165/1/6 172/1/6
f 171/6/6 164/6/6 172/6/6
f 165/6/6 166/6/6 173/6/6
f 172/1/6 165/1/6 173/1/6
f 166/1/6 167/1/6 174/1/6
f 173/6/6 166/6/6 174/6/6
f 174/1/6 167/1/6 175/1/6
f 176/4/6 177/4/6 179/4/6
f 177/6/6 178/6/6 179/6/6
f 179/6/6 178/6/6 180/6/6
f 176/4/6 179/4/6 181/4/6
f 180/6/6 178/6/6 183/6/6
f 181/8/6 182/8/6 184/8/6
f 182/6/6 183/6/6 184/6/6
f 184/6/6 183/6/6 185/6/6
f 183/6/6 178/6/6 185/6/6
f 181/8/6 184/8/6 186/8/6
f 184/8/6 185/8/6 186/8/6
f 186/8/6 185/8/6 187/8/6
f 181/8/6 186/8/6 188/8/6
f 186/6/6 187/6/6 188/6/6
f 188/6/6 187/6/6 189/6/6
f 181/8/6 188/8/6 190/8/6
f 188/8/6 189/8/6 190/8/6
f 190/8/6 189/8/6 191/8/6
f 181/8/6 190/8/6 192/8/6
f 190/6/6 191/6/6 192/6/6
f 192/6/6 191/6/6 193/6/6
f 181/8/6 192/8/6 194/8/6
f 192/8/6 193/8/6 194/8/6
f 194/8/6 193/8/6 195/8/6
f 194/6/6 195/6/6 196/6/6
f 181/8/6 194/8/6 196/8/6
f 196/6/6 195/6/6 197/6/6
f 181/8/6 196/8/6 198/8/6
f 196/8/6 197/8/6 198/8/6
f 198/8/6 197/8/6 199/8/6
f 181/8/6 198/8/6 200/8/6
f 198/6/6 199/6/6 200/6/6
f 200/6/6 199/6/6 201/6/6
f 181/8/6 200/8/6 202/8/6
f 200/8/6 201/8/6 202/8/6
f 202/8/6 201/8/6 203/8/6
f 181/8/6 202/8/6 204/8/6
f 202/6/6 203/6/6 204/6/6
f 204/6/6 203/6/6 205/6/6
f 181/8/6 204/8/6 206/8/6
f 204/8/6 205/8/6 206/8/6
f 206/8/6 205/8/6 207/8/6
f 176/4/6 181/4/6 208/4/6
f 181/8/6 206/8/6 208/8/6
f 206/6/6 207/6/6 209/6/6
f 208/8/6 206/8/6 209/8/6
f 176/4/6 208/4/6 210/4/6
f 209/6/6 207/6/6 211/6/6
f 211/6/6 207/6/6 212/6/6
f 210/8/6 211/8/6 212/8/6
f 212/6/6 207/6/6 213/6/6
f 212/8/6 213/8/6 214/8/6
f 210/8/6 212/8/6 214/8/6
f 214/8/6 213/8/6 215/8/6
f 210/8/6 214/8/6 216/8/6
f 214/6/6 215/6/6 216/6/6
f 216/6/6 215/6/6 217/6/6
f 210/8/6 216/8/6 218/8/6
f 216/8/6 217/8/6 218/8/6
f 218/8/6 217/8/6 219/8/6
f 210/8/6 218/8/6 220/8/6
f 218/6/6 219/6/6 220/6/6
f 220/6/6 219/6/6 221/6/6
f 220/8/6 221/8/6 222/8/6
f 210/8/6 220/8/6 222/8/6
f 222/8/6 221/8/6 223/8/6
f 210/8/6 222/8/6 224/8/6
f 222/6/6 223/6/6 224/6/6
f 224/6/6 223/6/6 225/6/6
f 210/8/6 224/8/6 226/8/6
f 224/8/6 225/8/6 226/8/6
f 226/8/6 225/8/6 227/8/6
f 210/8/6 226/8/6 228/8/6
f 226/6/6 227/6/6 228/6/6
f 228/6/6 227/6/6 229/6/6
f 210/8/6 228/8/6 230/8/6
f 228/8/6 229/8/6 230/8/6
f 230/8/6 229/8/6 231/8/6
f 210/8/6 230/8/6 232/8/6
f 230/6/6 231/6/6 232/6/6
f 232/6/6 231/6/6 233/6/6
f 210/8/6 232/8/6 234/8/6
f 232/8/6 233/8/6 234/8/6
f 234/8/6 233/8/6 235/8/6
f 176/4/6 210/4/6 236/4/6
f 210/8/6 234/8/6 236/8/6
f 236/8/6 234/8/6 237/8/6
f 234/6/6 235/6/6 237/6/6
f 176/4/6 236/4/6 238/4/6
f 176/4/6 238/4/6 240/4/6
f 238/6/6 239/6/6 241/6/6
f 240/4/6 238/4/6 241/4/6
f 242/3/6 243/3/6 244/3/6
f 242/3/6 244/3/6 246/3/6
f 244/3/6 245/3/6 246/3/6
f 246/3/6 245/3/6 247/3/6
f 242/3/6 246/3/6 248/3/6
f 248/3/6 246/3/6 249/3/6
l 79 80
l 17 18
l 35 36
l 100 101
l 98 99
l 81 82
l 19 20
