# Blender 4.1.1
# www.blender.org
mtllib street.mtl
o street3-1.001
v -202.806900 0.000005 63.000000
v -202.806900 -0.000005 -63.000000
v -202.806900 1.000005 63.000000
v -202.806900 0.999995 -63.000000
v -174.806900 63.000004 62.999996
v -174.806900 63.000004 58.999996
v -174.806900 63.000000 0.999995
v -174.806900 63.000000 -3.000005
v -174.806900 62.999996 -59.000004
v -174.806900 62.999996 -63.000004
v -174.806900 64.000008 62.999996
v -174.806900 64.000008 58.999996
v -174.806900 64.000000 0.999995
v -174.806900 64.000000 -3.000005
v -174.806900 63.999996 -59.000004
v -174.806900 63.999996 -63.000004
v -174.806900 66.000008 62.999996
v -174.806900 66.000008 58.999996
v -174.806900 66.000000 0.999995
v -174.806900 66.000000 -3.000005
v -174.806900 65.999992 -59.000004
v -174.806900 65.999992 -63.000004
v -142.806900 1.000005 63.000000
v -142.806900 0.999995 -63.000000
v -142.806900 2.000005 63.000000
v -142.806900 1.999995 -63.000000
v -141.806900 2.000005 62.000000
v -141.806900 2.000005 60.000000
v -141.806900 2.000000 -0.000000
v -141.806900 2.000000 -2.000000
v -141.806900 1.999995 -60.000000
v -141.806900 1.999995 -62.000000
v -141.806900 3.000005 62.000000
v -141.806900 3.000005 60.000000
v -141.806900 3.000000 -0.000000
v -141.806900 3.000000 -2.000000
v -141.806900 2.999995 -60.000000
v -141.806900 2.999995 -62.000000
v -141.806900 64.000008 61.999996
v -141.806900 64.000008 59.999996
v -141.806900 64.000000 -0.000005
v -141.806900 64.000000 -2.000005
v -141.806900 63.999996 -60.000004
v -141.806900 63.999996 -62.000004
v -128.806900 2.000002 29.000000
v -128.806900 1.999997 -39.000000
v -168.806900 63.000004 62.999996
v -168.806900 63.000004 58.999996
v -168.806900 63.000000 0.999995
v -168.806900 63.000000 -3.000005
v -168.806900 62.999996 -59.000004
v -168.806900 62.999996 -63.000004
v -168.806900 64.000008 62.999996
v -168.806900 64.000008 61.999996
v -168.806900 64.000008 59.999996
v -168.806900 64.000008 58.999996
v -168.806900 64.000000 0.999995
v -168.806900 64.000000 -0.000005
v -168.806900 64.000000 -2.000005
v -168.806900 64.000000 -3.000005
v -168.806900 63.999996 -59.000004
v -168.806900 63.999996 -60.000004
v -168.806900 63.999996 -62.000004
v -168.806900 63.999996 -63.000004
v -168.806900 66.000008 62.999996
v -168.806900 66.000008 61.999996
v -168.806900 66.000008 59.999996
v -168.806900 66.000008 58.999996
v -168.806900 66.000000 0.999995
v -168.806900 66.000000 -0.000005
v -168.806900 66.000000 -2.000005
v -168.806900 66.000000 -3.000005
v -168.806900 65.999992 -59.000004
v -168.806900 65.999992 -60.000004
v -168.806900 65.999992 -62.000004
v -168.806900 65.999992 -63.000004
v -140.806900 2.000000 -0.000000
v -140.806900 2.000000 -2.000000
v -140.806900 3.000000 -0.000000
v -140.806900 3.000000 -2.000000
v -140.806900 66.000000 -0.000005
v -140.806900 66.000000 -2.000005
v -139.806900 2.000005 62.000000
v -139.806900 2.000005 60.000000
v -139.806900 1.999995 -60.000000
v -139.806900 1.999995 -62.000000
v -139.806900 3.000005 62.000000
v -139.806900 3.000005 60.000000
v -139.806900 2.999995 -60.000000
v -139.806900 2.999995 -62.000000
v -139.806900 66.000008 61.999996
v -139.806900 66.000008 59.999996
v -139.806900 65.999992 -60.000004
v -139.806900 65.999992 -62.000004
v -202.806900 0.000005 63.000000
v -202.806900 1.000005 63.000000
v -174.806900 0.000005 63.000000
v -174.806900 1.000005 63.000000
v -174.806900 63.000004 62.999996
v -174.806900 64.000008 62.999996
v -174.806900 66.000008 62.999996
v -173.806900 0.000005 63.000000
v -173.806900 1.000005 63.000000
v -172.806900 0.000005 63.000000
v -172.806900 1.000005 63.000000
v -171.806900 0.000005 63.000000
v -171.806900 1.000005 63.000000
v -168.806900 63.000004 62.999996
v -168.806900 64.000008 62.999996
v -168.806900 66.000008 62.999996
v -146.806900 0.000005 63.000000
v -146.806900 1.000005 63.000000
v -144.806900 0.000005 63.000000
v -144.806900 1.000005 63.000000
v -142.806900 1.000005 63.000000
v -142.806900 2.000005 63.000000
v -141.806900 1.000005 63.000000
v -141.806900 2.000005 63.000000
v -129.806900 1.000005 63.000000
v -129.806900 2.000005 63.000000
v -126.806900 0.000005 63.000000
v -168.806900 64.000008 61.999996
v -168.806900 66.000008 61.999996
v -141.806900 2.000005 62.000000
v -141.806900 3.000005 62.000000
v -141.806900 64.000008 61.999996
v -139.806900 2.000005 62.000000
v -139.806900 3.000005 62.000000
v -139.806900 66.000008 61.999996
v -174.806900 63.000000 0.999995
v -174.806900 64.000000 0.999995
v -174.806900 66.000000 0.999995
v -168.806900 63.000000 0.999995
v -168.806900 64.000000 0.999995
v -168.806900 66.000000 0.999995
v -168.806900 64.000000 -0.000005
v -168.806900 66.000000 -0.000005
v -141.806900 2.000000 -0.000000
v -141.806900 3.000000 -0.000000
v -141.806900 64.000000 -0.000005
v -140.806900 2.000000 -0.000000
v -140.806900 3.000000 -0.000000
v -140.806900 66.000000 -0.000005
v -174.806900 62.999996 -59.000004
v -174.806900 63.999996 -59.000004
v -174.806900 65.999992 -59.000004
v -168.806900 62.999996 -59.000004
v -168.806900 63.999996 -59.000004
v -168.806900 65.999992 -59.000004
v -168.806900 63.999996 -60.000004
v -168.806900 65.999992 -60.000004
v -141.806900 1.999995 -60.000000
v -141.806900 2.999995 -60.000000
v -141.806900 63.999996 -60.000004
v -140.806900 1.999995 -60.000000
v -139.806900 1.999995 -60.000000
v -139.806900 2.999995 -60.000000
v -139.806900 65.999992 -60.000004
v -168.806900 64.000008 59.999996
v -168.806900 66.000008 59.999996
v -141.806900 2.000005 60.000000
v -141.806900 3.000005 60.000000
v -141.806900 64.000008 59.999996
v -140.806900 2.000005 60.000000
v -139.806900 2.000005 60.000000
v -139.806900 3.000005 60.000000
v -139.806900 66.000008 59.999996
v -174.806900 63.000004 58.999996
v -174.806900 64.000008 58.999996
v -174.806900 66.000008 58.999996
v -168.806900 63.000004 58.999996
v -168.806900 64.000008 58.999996
v -168.806900 66.000008 58.999996
v -128.806900 2.000002 29.000000
v -168.806900 64.000000 -2.000005
v -168.806900 66.000000 -2.000005
v -141.806900 2.000000 -2.000000
v -141.806900 3.000000 -2.000000
v -141.806900 64.000000 -2.000005
v -140.806900 2.000000 -2.000000
v -140.806900 3.000000 -2.000000
v -140.806900 66.000000 -2.000005
v -174.806900 63.000000 -3.000005
v -174.806900 64.000000 -3.000005
v -174.806900 66.000000 -3.000005
v -168.806900 63.000000 -3.000005
v -168.806900 64.000000 -3.000005
v -168.806900 66.000000 -3.000005
v -128.806900 1.999997 -39.000000
v -168.806900 63.999996 -62.000004
v -168.806900 65.999992 -62.000004
v -141.806900 1.999995 -62.000000
v -141.806900 2.999995 -62.000000
v -141.806900 63.999996 -62.000004
v -139.806900 1.999995 -62.000000
v -139.806900 2.999995 -62.000000
v -139.806900 65.999992 -62.000004
v -202.806900 -0.000005 -63.000000
v -202.806900 0.999995 -63.000000
v -174.806900 -0.000005 -63.000000
v -174.806900 0.999995 -63.000000
v -174.806900 62.999996 -63.000004
v -174.806900 63.999996 -63.000004
v -174.806900 65.999992 -63.000004
v -173.806900 -0.000005 -63.000000
v -173.806900 0.999995 -63.000000
v -172.806900 -0.000005 -63.000000
v -172.806900 0.999995 -63.000000
v -171.806900 -0.000005 -63.000000
v -171.806900 0.999995 -63.000000
v -168.806900 62.999996 -63.000004
v -168.806900 63.999996 -63.000004
v -168.806900 65.999992 -63.000004
v -146.806900 -0.000005 -63.000000
v -146.806900 0.999995 -63.000000
v -144.806900 -0.000005 -63.000000
v -144.806900 0.999995 -63.000000
v -142.806900 -0.000005 -63.000000
v -142.806900 0.999995 -63.000000
v -142.806900 1.999995 -63.000000
v -141.806900 -0.000005 -63.000000
v -141.806900 0.999995 -63.000000
v -141.806900 1.999995 -63.000000
v -202.806900 0.000005 63.000000
v -174.806900 0.000005 63.000000
v -173.806900 0.000005 63.000000
v -172.806900 0.000005 63.000000
v -171.806900 0.000005 63.000000
v -146.806900 0.000005 63.000000
v -144.806900 0.000005 63.000000
v -126.806900 0.000005 63.000000
v -126.806900 0.000005 62.000000
v -139.806900 0.000002 20.000000
v -138.806900 0.000002 20.000000
v -139.806900 0.000001 19.000000
v -138.806900 0.000001 19.000000
v -141.806900 -0.000005 -62.000000
v -202.806900 -0.000005 -63.000000
v -174.806900 -0.000005 -63.000000
v -173.806900 -0.000005 -63.000000
v -172.806900 -0.000005 -63.000000
v -171.806900 -0.000005 -63.000000
v -146.806900 -0.000005 -63.000000
v -144.806900 -0.000005 -63.000000
v -142.806900 -0.000005 -63.000000
v -141.806900 -0.000005 -63.000000
v -174.806900 63.000004 62.999996
v -168.806900 63.000004 62.999996
v -174.806900 63.000004 58.999996
v -168.806900 63.000004 58.999996
v -174.806900 63.000000 0.999995
v -168.806900 63.000000 0.999995
v -174.806900 63.000000 -3.000005
v -168.806900 63.000000 -3.000005
v -174.806900 62.999996 -59.000004
v -168.806900 62.999996 -59.000004
v -174.806900 62.999996 -63.000004
v -168.806900 62.999996 -63.000004
v -168.806900 64.000008 61.999996
v -141.806900 64.000008 61.999996
v -168.806900 64.000008 59.999996
v -141.806900 64.000008 59.999996
v -168.806900 64.000000 -0.000005
v -141.806900 64.000000 -0.000005
v -168.806900 64.000000 -2.000005
v -141.806900 64.000000 -2.000005
v -168.806900 63.999996 -60.000004
v -141.806900 63.999996 -60.000004
v -168.806900 63.999996 -62.000004
v -141.806900 63.999996 -62.000004
v -202.806900 1.000005 63.000000
v -174.806900 1.000005 63.000000
v -173.806900 1.000005 63.000000
v -172.806900 1.000005 63.000000
v -171.806900 1.000005 63.000000
v -146.806900 1.000005 63.000000
v -144.806900 1.000005 63.000000
v -142.806900 1.000005 63.000000
v -202.806900 0.999995 -63.000000
v -174.806900 0.999995 -63.000000
v -173.806900 0.999995 -63.000000
v -172.806900 0.999995 -63.000000
v -171.806900 0.999995 -63.000000
v -146.806900 0.999995 -63.000000
v -144.806900 0.999995 -63.000000
v -142.806900 0.999995 -63.000000
v -142.806900 2.000005 63.000000
v -141.806900 2.000005 63.000000
v -129.806900 2.000005 63.000000
v -141.806900 2.000005 62.000000
v -139.806900 2.000005 62.000000
v -141.806900 2.000005 60.000000
v -140.806900 2.000005 60.000000
v -139.806900 2.000005 60.000000
v -140.806900 2.000004 54.000000
v -129.806900 2.000004 54.000000
v -140.806900 2.000004 53.000000
v -129.806900 2.000004 53.000000
v -140.806900 2.000003 44.000000
v -129.806900 2.000003 44.000000
v -140.806900 2.000003 43.000000
v -129.806900 2.000003 43.000000
v -140.806900 2.000003 34.000000
v -129.806900 2.000003 34.000000
v -140.806900 2.000002 33.000000
v -129.806900 2.000002 33.000000
v -128.806900 2.000002 29.000000
v -140.806900 2.000002 24.000000
v -129.806900 2.000002 24.000000
v -140.806900 2.000002 23.000000
v -129.806900 2.000002 23.000000
v -140.806900 2.000001 14.000000
v -129.806900 2.000001 14.000000
v -140.806900 2.000001 13.000000
v -129.806900 2.000001 13.000000
v -140.806900 2.000000 4.000000
v -129.806900 2.000000 4.000000
v -140.806900 2.000000 3.000000
v -129.806900 2.000000 3.000000
v -141.806900 2.000000 -0.000000
v -140.806900 2.000000 -0.000000
v -141.806900 2.000000 -2.000000
v -140.806900 2.000000 -2.000000
v -140.806900 2.000000 -6.000000
v -129.806900 2.000000 -6.000000
v -140.806900 2.000000 -7.000000
v -129.806900 2.000000 -7.000000
v -140.806900 1.999999 -16.000000
v -129.806900 1.999999 -16.000000
v -140.806900 1.999999 -17.000000
v -129.806900 1.999999 -17.000000
v -140.806900 1.999998 -25.000000
v -129.806900 1.999998 -25.000000
v -140.806900 1.999998 -26.000000
v -129.806900 1.999998 -26.000000
v -140.806900 1.999997 -34.000000
v -129.806900 1.999997 -34.000000
v -140.806900 1.999997 -35.000000
v -129.806900 1.999997 -35.000000
v -128.806900 1.999997 -39.000000
v -140.806900 1.999997 -43.000000
v -129.806900 1.999997 -43.000000
v -140.806900 1.999997 -44.000000
v -129.806900 1.999997 -44.000000
v -140.806900 1.999996 -53.000000
v -129.806900 1.999996 -53.000000
v -140.806900 1.999996 -54.000000
v -129.806900 1.999996 -54.000000
v -141.806900 1.999995 -60.000000
v -140.806900 1.999995 -60.000000
v -139.806900 1.999995 -60.000000
v -141.806900 1.999995 -62.000000
v -139.806900 1.999995 -62.000000
v -142.806900 1.999995 -63.000000
v -141.806900 1.999995 -63.000000
v -174.806900 66.000008 62.999996
v -168.806900 66.000008 62.999996
v -168.806900 66.000008 61.999996
v -139.806900 66.000008 61.999996
v -168.806900 66.000008 59.999996
v -139.806900 66.000008 59.999996
v -174.806900 66.000008 58.999996
v -168.806900 66.000008 58.999996
v -174.806900 66.000000 0.999995
v -168.806900 66.000000 0.999995
v -168.806900 66.000000 -0.000005
v -140.806900 66.000000 -0.000005
v -168.806900 66.000000 -2.000005
v -140.806900 66.000000 -2.000005
v -174.806900 66.000000 -3.000005
v -168.806900 66.000000 -3.000005
v -174.806900 65.999992 -59.000004
v -168.806900 65.999992 -59.000004
v -168.806900 65.999992 -60.000004
v -139.806900 65.999992 -60.000004
v -168.806900 65.999992 -62.000004
v -139.806900 65.999992 -62.000004
v -174.806900 65.999992 -63.000004
v -168.806900 65.999992 -63.000004
vn -1.0000 -0.0000 -0.0000
vn 1.0000 -0.0000 -0.0000
vn -0.0000 -0.0000 1.0000
vn -0.0000 -0.0000 -1.0000
vn -0.0000 -1.0000 -0.0000
vn -0.0000 1.0000 -0.0000
vt 0.916016 0.500000
vt 0.802734 0.500000
vt 0.923828 0.500000
vt 0.751953 0.500000
vt 0.919922 0.500000
vt 0.943359 0.500000
vt 0.951172 0.500000
vt 0.908203 0.500000
s 0
usemtl palette
f 3/1/1 2/1/1 1/1/1
f 4/1/1 2/1/1 3/1/1
f 11/2/1 6/2/1 5/2/1
f 12/2/1 6/2/1 11/2/1
f 13/2/1 8/2/1 7/2/1
f 14/2/1 8/2/1 13/2/1
f 15/2/1 10/2/1 9/2/1
f 16/2/1 10/2/1 15/2/1
f 17/3/1 12/3/1 11/3/1
f 18/3/1 12/3/1 17/3/1
f 19/3/1 14/3/1 13/3/1
f 20/3/1 14/3/1 19/3/1
f 21/3/1 16/3/1 15/3/1
f 22/3/1 16/3/1 21/3/1
f 25/4/1 24/4/1 23/4/1
f 26/4/1 24/4/1 25/4/1
f 33/5/1 28/5/1 27/5/1
f 34/5/1 28/5/1 33/5/1
f 35/5/1 30/5/1 29/5/1
f 36/5/1 30/5/1 35/5/1
f 37/5/1 32/5/1 31/5/1
f 38/5/1 32/5/1 37/5/1
f 39/3/1 34/3/1 33/3/1
f 40/3/1 34/3/1 39/3/1
f 41/3/1 36/3/1 35/3/1
f 42/3/1 36/3/1 41/3/1
f 43/3/1 38/3/1 37/3/1
f 44/3/1 38/3/1 43/3/1
f 47/2/2 48/2/2 53/2/2
f 53/2/2 48/2/2 54/2/2
f 54/2/2 48/2/2 55/2/2
f 55/2/2 48/2/2 56/2/2
f 49/2/2 50/2/2 57/2/2
f 57/2/2 50/2/2 58/2/2
f 58/2/2 50/2/2 59/2/2
f 59/2/2 50/2/2 60/2/2
f 51/2/2 52/2/2 61/2/2
f 61/2/2 52/2/2 62/2/2
f 62/2/2 52/2/2 63/2/2
f 63/2/2 52/2/2 64/2/2
f 53/3/2 54/3/2 65/3/2
f 65/3/2 54/3/2 66/3/2
f 55/3/2 56/3/2 67/3/2
f 67/3/2 56/3/2 68/3/2
f 57/3/2 58/3/2 69/3/2
f 69/3/2 58/3/2 70/3/2
f 59/3/2 60/3/2 71/3/2
f 71/3/2 60/3/2 72/3/2
f 61/3/2 62/3/2 73/3/2
f 73/3/2 62/3/2 74/3/2
f 63/3/2 64/3/2 75/3/2
f 75/3/2 64/3/2 76/3/2
f 77/5/2 78/5/2 79/5/2
f 79/5/2 78/5/2 80/5/2
f 79/3/2 80/3/2 81/3/2
f 81/3/2 80/3/2 82/3/2
f 83/5/2 84/5/2 87/5/2
f 87/5/2 84/5/2 88/5/2
f 85/5/2 86/5/2 89/5/2
f 89/5/2 86/5/2 90/5/2
f 87/3/2 88/3/2 91/3/2
f 91/3/2 88/3/2 92/3/2
f 89/3/2 90/3/2 93/3/2
f 93/3/2 90/3/2 94/3/2
f 97/1/3 96/1/3 95/1/3
f 98/1/3 96/1/3 97/1/3
f 102/6/3 98/6/3 97/6/3
f 103/6/3 98/6/3 102/6/3
f 104/1/3 103/1/3 102/1/3
f 105/1/3 103/1/3 104/1/3
f 106/6/3 105/6/3 104/6/3
f 107/6/3 105/6/3 106/6/3
f 108/2/3 100/2/3 99/2/3
f 109/3/3 101/3/3 100/3/3
f 109/2/3 100/2/3 108/2/3
f 110/3/3 101/3/3 109/3/3
f 111/1/3 107/1/3 106/1/3
f 112/1/3 107/1/3 111/1/3
f 113/6/3 112/6/3 111/6/3
f 114/6/3 112/6/3 113/6/3
f 117/4/3 116/4/3 115/4/3
f 118/4/3 116/4/3 117/4/3
f 119/6/3 118/6/3 117/6/3
f 120/6/3 118/6/3 119/6/3
f 126/3/3 123/3/3 122/3/3
f 127/5/3 125/5/3 124/5/3
f 128/3/3 126/3/3 125/3/3
f 128/5/3 125/5/3 127/5/3
f 129/3/3 123/3/3 126/3/3
f 129/3/3 126/3/3 128/3/3
f 133/2/3 131/2/3 130/2/3
f 134/3/3 132/3/3 131/3/3
f 134/2/3 131/2/3 133/2/3
f 135/3/3 132/3/3 134/3/3
f 140/3/3 137/3/3 136/3/3
f 141/5/3 139/5/3 138/5/3
f 142/3/3 140/3/3 139/3/3
f 142/5/3 139/5/3 141/5/3
f 143/3/3 137/3/3 140/3/3
f 143/3/3 140/3/3 142/3/3
f 147/2/3 145/2/3 144/2/3
f 148/3/3 146/3/3 145/3/3
f 148/2/3 145/2/3 147/2/3
f 149/3/3 146/3/3 148/3/3
f 154/3/3 151/3/3 150/3/3
f 155/5/3 153/5/3 152/5/3
f 156/5/3 153/5/3 155/5/3
f 157/3/3 154/3/3 153/3/3
f 157/5/3 153/5/3 156/5/3
f 158/3/3 151/3/3 154/3/3
f 158/3/3 154/3/3 157/3/3
f 159/3/4 160/3/4 163/3/4
f 161/5/4 162/5/4 164/5/4
f 164/5/4 162/5/4 165/5/4
f 162/3/4 163/3/4 166/3/4
f 165/5/4 162/5/4 166/5/4
f 163/3/4 160/3/4 167/3/4
f 166/3/4 163/3/4 167/3/4
f 168/2/4 169/2/4 171/2/4
f 169/3/4 170/3/4 172/3/4
f 171/2/4 169/2/4 172/2/4
f 172/3/4 170/3/4 173/3/4
f 175/3/4 176/3/4 179/3/4
f 177/5/4 178/5/4 180/5/4
f 178/3/4 179/3/4 181/3/4
f 180/5/4 178/5/4 181/5/4
f 179/3/4 176/3/4 182/3/4
f 181/3/4 179/3/4 182/3/4
f 183/2/4 184/2/4 186/2/4
f 184/3/4 185/3/4 187/3/4
f 186/2/4 184/2/4 187/2/4
f 187/3/4 185/3/4 188/3/4
f 190/3/4 191/3/4 194/3/4
f 192/5/4 193/5/4 195/5/4
f 193/3/4 194/3/4 196/3/4
f 195/5/4 193/5/4 196/5/4
f 194/3/4 191/3/4 197/3/4
f 196/3/4 194/3/4 197/3/4
f 198/1/4 199/1/4 200/1/4
f 200/1/4 199/1/4 201/1/4
f 200/6/4 201/6/4 205/6/4
f 205/6/4 201/6/4 206/6/4
f 205/1/4 206/1/4 207/1/4
f 207/1/4 206/1/4 208/1/4
f 207/6/4 208/6/4 209/6/4
f 209/6/4 208/6/4 210/6/4
f 202/2/4 203/2/4 211/2/4
f 203/3/4 204/3/4 212/3/4
f 211/2/4 203/2/4 212/2/4
f 212/3/4 204/3/4 213/3/4
f 209/1/4 210/1/4 214/1/4
f 214/1/4 210/1/4 215/1/4
f 214/6/4 215/6/4 216/6/4
f 216/6/4 215/6/4 217/6/4
f 216/1/4 217/1/4 218/1/4
f 218/1/4 217/1/4 219/1/4
f 218/5/4 219/5/4 221/5/4
f 219/4/4 220/4/4 222/4/4
f 221/5/4 219/5/4 222/5/4
f 222/4/4 220/4/4 223/4/4
f 235/7/5 234/7/5 233/7/5
f 236/7/5 234/7/5 235/7/5
f 238/1/5 225/1/5 224/1/5
f 239/6/5 226/6/5 225/6/5
f 239/1/5 225/1/5 238/1/5
f 240/1/5 227/1/5 226/1/5
f 240/6/5 226/6/5 239/6/5
f 241/6/5 228/6/5 227/6/5
f 241/1/5 227/1/5 240/1/5
f 242/1/5 229/1/5 228/1/5
f 242/6/5 228/6/5 241/6/5
f 243/6/5 230/6/5 229/6/5
f 243/1/5 229/1/5 242/1/5
f 244/6/5 230/6/5 243/6/5
f 246/5/5 237/5/5 245/5/5
f 249/2/5 248/2/5 247/2/5
f 250/2/5 248/2/5 249/2/5
f 253/2/5 252/2/5 251/2/5
f 254/2/5 252/2/5 253/2/5
f 257/2/5 256/2/5 255/2/5
f 258/2/5 256/2/5 257/2/5
f 261/3/5 260/3/5 259/3/5
f 262/3/5 260/3/5 261/3/5
f 265/3/5 264/3/5 263/3/5
f 266/3/5 264/3/5 265/3/5
f 269/3/5 268/3/5 267/3/5
f 270/3/5 268/3/5 269/3/5
f 271/1/6 272/1/6 279/1/6
f 272/6/6 273/6/6 280/6/6
f 279/1/6 272/1/6 280/1/6
f 273/1/6 274/1/6 281/1/6
f 280/6/6 273/6/6 281/6/6
f 274/6/6 275/6/6 282/6/6
f 281/1/6 274/1/6 282/1/6
f 275/1/6 276/1/6 283/1/6
f 282/6/6 275/6/6 283/6/6
f 276/6/6 277/6/6 284/6/6
f 283/1/6 276/1/6 284/1/6
f 277/1/6 278/1/6 285/1/6
f 284/6/6 277/6/6 285/6/6
f 285/1/6 278/1/6 286/1/6
f 287/4/6 288/4/6 290/4/6
f 288/6/6 289/6/6 290/6/6
f 290/6/6 289/6/6 291/6/6
f 287/4/6 290/4/6 292/4/6
f 291/6/6 289/6/6 294/6/6
f 292/8/6 293/8/6 295/8/6
f 293/6/6 294/6/6 295/6/6
f 295/6/6 294/6/6 296/6/6
f 294/6/6 289/6/6 296/6/6
f 292/8/6 295/8/6 297/8/6
f 295/8/6 296/8/6 297/8/6
f 297/8/6 296/8/6 298/8/6
f 292/8/6 297/8/6 299/8/6
f 297/6/6 298/6/6 299/6/6
f 299/6/6 298/6/6 300/6/6
f 292/8/6 299/8/6 301/8/6
f 299/8/6 300/8/6 301/8/6
f 301/8/6 300/8/6 302/8/6
f 292/8/6 301/8/6 303/8/6
f 301/6/6 302/6/6 303/6/6
f 303/6/6 302/6/6 304/6/6
f 292/8/6 303/8/6 305/8/6
f 303/8/6 304/8/6 305/8/6
f 305/8/6 304/8/6 306/8/6
f 305/6/6 306/6/6 308/6/6
f 292/8/6 305/8/6 308/8/6
f 308/6/6 306/6/6 309/6/6
f 306/3/6 307/3/6 309/3/6
f 292/8/6 308/8/6 310/8/6
f 308/8/6 309/8/6 310/8/6
f 310/8/6 309/8/6 311/8/6
f 292/8/6 310/8/6 312/8/6
f 310/6/6 311/6/6 312/6/6
f 312/6/6 311/6/6 313/6/6
f 292/8/6 312/8/6 314/8/6
f 312/8/6 313/8/6 314/8/6
f 314/8/6 313/8/6 315/8/6
f 292/8/6 314/8/6 316/8/6
f 314/6/6 315/6/6 316/6/6
f 316/6/6 315/6/6 317/6/6
f 292/8/6 316/8/6 318/8/6
f 316/8/6 317/8/6 318/8/6
f 318/8/6 317/8/6 319/8/6
f 287/4/6 292/4/6 320/4/6
f 292/8/6 318/8/6 320/8/6
f 318/6/6 319/6/6 321/6/6
f 320/8/6 318/8/6 321/8/6
f 287/4/6 320/4/6 322/4/6
f 321/6/6 319/6/6 323/6/6
f 323/6/6 319/6/6 324/6/6
f 322/8/6 323/8/6 324/8/6
f 324/6/6 319/6/6 325/6/6
f 324/8/6 325/8/6 326/8/6
f 322/8/6 324/8/6 326/8/6
f 326/8/6 325/8/6 327/8/6
f 322/8/6 326/8/6 328/8/6
f 326/6/6 327/6/6 328/6/6
f 328/6/6 327/6/6 329/6/6
f 322/8/6 328/8/6 330/8/6
f 328/8/6 329/8/6 330/8/6
f 330/8/6 329/8/6 331/8/6
f 322/8/6 330/8/6 332/8/6
f 330/6/6 331/6/6 332/6/6
f 332/6/6 331/6/6 333/6/6
f 332/8/6 333/8/6 334/8/6
f 322/8/6 332/8/6 334/8/6
f 334/8/6 333/8/6 335/8/6
f 322/8/6 334/8/6 336/8/6
f 334/6/6 335/6/6 336/6/6
f 336/6/6 335/6/6 337/6/6
f 322/8/6 336/8/6 338/8/6
f 336/8/6 337/8/6 338/8/6
f 338/8/6 337/8/6 339/8/6
f 322/8/6 338/8/6 341/8/6
f 338/6/6 339/6/6 341/6/6
f 341/6/6 339/6/6 342/6/6
f 339/3/6 340/3/6 342/3/6
f 322/8/6 341/8/6 343/8/6
f 341/8/6 342/8/6 343/8/6
f 343/8/6 342/8/6 344/8/6
f 322/8/6 343/8/6 345/8/6
f 343/6/6 344/6/6 345/6/6
f 345/6/6 344/6/6 346/6/6
f 322/8/6 345/8/6 347/8/6
f 345/8/6 346/8/6 347/8/6
f 347/8/6 346/8/6 348/8/6
f 287/4/6 322/4/6 349/4/6
f 322/8/6 347/8/6 349/8/6
f 349/8/6 347/8/6 350/8/6
f 347/6/6 348/6/6 350/6/6
f 287/4/6 349/4/6 352/4/6
f 287/4/6 352/4/6 354/4/6
f 352/6/6 353/6/6 355/6/6
f 354/4/6 352/4/6 355/4/6
f 356/3/6 357/3/6 358/3/6
f 356/3/6 358/3/6 360/3/6
f 358/3/6 359/3/6 360/3/6
f 360/3/6 359/3/6 361/3/6
f 356/3/6 360/3/6 362/3/6
f 362/3/6 360/3/6 363/3/6
f 364/3/6 365/3/6 366/3/6
f 364/3/6 366/3/6 368/3/6
f 366/3/6 367/3/6 368/3/6
f 368/3/6 367/3/6 369/3/6
f 364/3/6 368/3/6 370/3/6
f 370/3/6 368/3/6 371/3/6
f 372/3/6 373/3/6 374/3/6
f 372/3/6 374/3/6 376/3/6
f 374/3/6 375/3/6 376/3/6
f 376/3/6 375/3/6 377/3/6
f 372/3/6 376/3/6 378/3/6
f 378/3/6 376/3/6 379/3/6
l 119 121
l 350 351
l 351 353
l 114 115
l 231 232
l 244 245
l 232 233
