# Blender 4.1.1
# www.blender.org
mtllib streetv2.mtl
o street3-1.001
v -202.806900 0.000005 63.000000
v -202.806900 -0.000005 -63.000000
v -202.806900 1.000005 63.000000
v -202.806900 0.999995 -63.000000
v -174.806900 63.000004 62.999996
v -174.806900 63.000004 58.999996
v -174.806900 63.000000 0.999995
v -174.806900 63.000000 -3.000005
v -174.806900 64.000008 62.999996
v -174.806900 64.000008 58.999996
v -174.806900 64.000000 0.999995
v -174.806900 64.000000 -3.000005
v -174.806900 66.000008 62.999996
v -174.806900 66.000008 58.999996
v -174.806900 66.000000 0.999995
v -174.806900 66.000000 -3.000005
v -142.806900 1.000005 63.000000
v -142.806900 0.999995 -63.000000
v -142.806900 2.000005 63.000000
v -142.806900 1.999995 -63.000000
v -141.806900 2.000005 62.000000
v -141.806900 2.000005 60.000000
v -141.806900 2.000000 -0.000000
v -141.806900 2.000000 -2.000000
v -141.806900 1.999995 -60.000000
v -141.806900 1.999995 -62.000000
v -141.806900 3.000005 62.000000
v -141.806900 3.000005 60.000000
v -141.806900 3.000000 -0.000000
v -141.806900 3.000000 -2.000000
v -141.806900 64.000008 61.999996
v -141.806900 64.000008 59.999996
v -141.806900 64.000000 -0.000005
v -141.806900 64.000000 -2.000005
v -128.806900 2.000002 29.000000
v -128.806900 1.999997 -39.000000
v -168.806900 63.000004 62.999996
v -168.806900 63.000004 58.999996
v -168.806900 63.000000 0.999995
v -168.806900 63.000000 -3.000005
v -168.806900 64.000008 62.999996
v -168.806900 64.000008 61.999996
v -168.806900 64.000008 59.999996
v -168.806900 64.000008 58.999996
v -168.806900 64.000000 0.999995
v -168.806900 64.000000 -0.000005
v -168.806900 64.000000 -2.000005
v -168.806900 64.000000 -3.000005
v -168.806900 66.000008 62.999996
v -168.806900 66.000008 61.999996
v -168.806900 66.000008 59.999996
v -168.806900 66.000008 58.999996
v -168.806900 66.000000 0.999995
v -168.806900 66.000000 -0.000005
v -168.806900 66.000000 -2.000005
v -168.806900 66.000000 -3.000005
v -140.806900 2.000000 -0.000000
v -140.806900 2.000000 -2.000000
v -140.806900 3.000000 -0.000000
v -140.806900 3.000000 -2.000000
v -140.806900 66.000000 -0.000005
v -140.806900 66.000000 -2.000005
v -139.806900 2.000005 62.000000
v -139.806900 2.000005 60.000000
v -139.806900 1.999995 -60.000000
v -139.806900 1.999995 -62.000000
v -139.806900 3.000005 62.000000
v -139.806900 3.000005 60.000000
v -139.806900 66.000008 61.999996
v -139.806900 66.000008 59.999996
v -202.806900 0.000005 63.000000
v -202.806900 1.000005 63.000000
v -174.806900 0.000005 63.000000
v -174.806900 1.000005 63.000000
v -174.806900 63.000004 62.999996
v -174.806900 64.000008 62.999996
v -174.806900 66.000008 62.999996
v -173.806900 0.000005 63.000000
v -173.806900 1.000005 63.000000
v -172.806900 0.000005 63.000000
v -172.806900 1.000005 63.000000
v -171.806900 0.000005 63.000000
v -171.806900 1.000005 63.000000
v -168.806900 63.000004 62.999996
v -168.806900 64.000008 62.999996
v -168.806900 66.000008 62.999996
v -146.806900 0.000005 63.000000
v -146.806900 1.000005 63.000000
v -144.806900 0.000005 63.000000
v -144.806900 1.000005 63.000000
v -142.806900 1.000005 63.000000
v -142.806900 2.000005 63.000000
v -141.806900 1.000005 63.000000
v -141.806900 2.000005 63.000000
v -129.806900 1.000005 63.000000
v -129.806900 2.000005 63.000000
v -168.806900 64.000008 61.999996
v -168.806900 66.000008 61.999996
v -141.806900 2.000005 62.000000
v -141.806900 3.000005 62.000000
v -141.806900 64.000008 61.999996
v -139.806900 2.000005 62.000000
v -139.806900 3.000005 62.000000
v -139.806900 66.000008 61.999996
v -174.806900 63.000000 0.999995
v -174.806900 64.000000 0.999995
v -174.806900 66.000000 0.999995
v -168.806900 63.000000 0.999995
v -168.806900 64.000000 0.999995
v -168.806900 66.000000 0.999995
v -168.806900 64.000000 -0.000005
v -168.806900 66.000000 -0.000005
v -141.806900 2.000000 -0.000000
v -141.806900 3.000000 -0.000000
v -141.806900 64.000000 -0.000005
v -140.806900 2.000000 -0.000000
v -140.806900 3.000000 -0.000000
v -140.806900 66.000000 -0.000005
v -141.806900 1.999995 -60.000000
v -140.806900 1.999995 -60.000000
v -168.806900 64.000008 59.999996
v -168.806900 66.000008 59.999996
v -141.806900 2.000005 60.000000
v -141.806900 3.000005 60.000000
v -141.806900 64.000008 59.999996
v -140.806900 2.000005 60.000000
v -139.806900 2.000005 60.000000
v -139.806900 3.000005 60.000000
v -139.806900 66.000008 59.999996
v -174.806900 63.000004 58.999996
v -174.806900 64.000008 58.999996
v -174.806900 66.000008 58.999996
v -168.806900 63.000004 58.999996
v -168.806900 64.000008 58.999996
v -168.806900 66.000008 58.999996
v -128.806900 2.000002 29.000000
v -168.806900 64.000000 -2.000005
v -168.806900 66.000000 -2.000005
v -141.806900 2.000000 -2.000000
v -141.806900 3.000000 -2.000000
v -141.806900 64.000000 -2.000005
v -140.806900 2.000000 -2.000000
v -140.806900 3.000000 -2.000000
v -140.806900 66.000000 -2.000005
v -174.806900 63.000000 -3.000005
v -174.806900 64.000000 -3.000005
v -174.806900 66.000000 -3.000005
v -168.806900 63.000000 -3.000005
v -168.806900 64.000000 -3.000005
v -168.806900 66.000000 -3.000005
v -128.806900 1.999997 -39.000000
v -141.806900 1.999995 -62.000000
v -139.806900 1.999995 -62.000000
v -202.806900 -0.000005 -63.000000
v -202.806900 0.999995 -63.000000
v -174.806900 -0.000005 -63.000000
v -174.806900 0.999995 -63.000000
v -173.806900 -0.000005 -63.000000
v -173.806900 0.999995 -63.000000
v -172.806900 -0.000005 -63.000000
v -172.806900 0.999995 -63.000000
v -171.806900 -0.000005 -63.000000
v -171.806900 0.999995 -63.000000
v -146.806900 -0.000005 -63.000000
v -146.806900 0.999995 -63.000000
v -144.806900 -0.000005 -63.000000
v -144.806900 0.999995 -63.000000
v -142.806900 -0.000005 -63.000000
v -142.806900 0.999995 -63.000000
v -142.806900 1.999995 -63.000000
v -141.806900 -0.000005 -63.000000
v -141.806900 0.999995 -63.000000
v -141.806900 1.999995 -63.000000
v -202.806900 0.000005 63.000000
v -174.806900 0.000005 63.000000
v -173.806900 0.000005 63.000000
v -172.806900 0.000005 63.000000
v -171.806900 0.000005 63.000000
v -146.806900 0.000005 63.000000
v -144.806900 0.000005 63.000000
v -139.806900 0.000002 20.000000
v -138.806900 0.000002 20.000000
v -139.806900 0.000001 19.000000
v -138.806900 0.000001 19.000000
v -141.806900 -0.000005 -62.000000
v -202.806900 -0.000005 -63.000000
v -174.806900 -0.000005 -63.000000
v -173.806900 -0.000005 -63.000000
v -172.806900 -0.000005 -63.000000
v -171.806900 -0.000005 -63.000000
v -146.806900 -0.000005 -63.000000
v -144.806900 -0.000005 -63.000000
v -142.806900 -0.000005 -63.000000
v -141.806900 -0.000005 -63.000000
v -174.806900 63.000004 62.999996
v -168.806900 63.000004 62.999996
v -174.806900 63.000004 58.999996
v -168.806900 63.000004 58.999996
v -174.806900 63.000000 0.999995
v -168.806900 63.000000 0.999995
v -174.806900 63.000000 -3.000005
v -168.806900 63.000000 -3.000005
v -168.806900 64.000008 61.999996
v -141.806900 64.000008 61.999996
v -168.806900 64.000008 59.999996
v -141.806900 64.000008 59.999996
v -168.806900 64.000000 -0.000005
v -141.806900 64.000000 -0.000005
v -168.806900 64.000000 -2.000005
v -141.806900 64.000000 -2.000005
v -202.806900 1.000005 63.000000
v -174.806900 1.000005 63.000000
v -173.806900 1.000005 63.000000
v -172.806900 1.000005 63.000000
v -171.806900 1.000005 63.000000
v -146.806900 1.000005 63.000000
v -144.806900 1.000005 63.000000
v -142.806900 1.000005 63.000000
v -202.806900 0.999995 -63.000000
v -174.806900 0.999995 -63.000000
v -173.806900 0.999995 -63.000000
v -172.806900 0.999995 -63.000000
v -171.806900 0.999995 -63.000000
v -146.806900 0.999995 -63.000000
v -144.806900 0.999995 -63.000000
v -142.806900 0.999995 -63.000000
v -142.806900 2.000005 63.000000
v -141.806900 2.000005 63.000000
v -129.806900 2.000005 63.000000
v -141.806900 2.000005 62.000000
v -139.806900 2.000005 62.000000
v -141.806900 2.000005 60.000000
v -140.806900 2.000005 60.000000
v -139.806900 2.000005 60.000000
v -140.806900 2.000004 54.000000
v -129.806900 2.000004 54.000000
v -140.806900 2.000004 53.000000
v -129.806900 2.000004 53.000000
v -140.806900 2.000003 44.000000
v -129.806900 2.000003 44.000000
v -140.806900 2.000003 43.000000
v -129.806900 2.000003 43.000000
v -140.806900 2.000003 34.000000
v -129.806900 2.000003 34.000000
v -140.806900 2.000002 33.000000
v -129.806900 2.000002 33.000000
v -128.806900 2.000002 29.000000
v -140.806900 2.000002 24.000000
v -129.806900 2.000002 24.000000
v -140.806900 2.000002 23.000000
v -129.806900 2.000002 23.000000
v -140.806900 2.000001 14.000000
v -129.806900 2.000001 14.000000
v -140.806900 2.000001 13.000000
v -129.806900 2.000001 13.000000
v -140.806900 2.000000 4.000000
v -129.806900 2.000000 4.000000
v -140.806900 2.000000 3.000000
v -129.806900 2.000000 3.000000
v -141.806900 2.000000 -0.000000
v -140.806900 2.000000 -0.000000
v -141.806900 2.000000 -2.000000
v -140.806900 2.000000 -2.000000
v -140.806900 2.000000 -6.000000
v -129.806900 2.000000 -6.000000
v -140.806900 2.000000 -7.000000
v -129.806900 2.000000 -7.000000
v -140.806900 1.999999 -16.000000
v -129.806900 1.999999 -16.000000
v -140.806900 1.999999 -17.000000
v -129.806900 1.999999 -17.000000
v -140.806900 1.999998 -25.000000
v -129.806900 1.999998 -25.000000
v -140.806900 1.999998 -26.000000
v -129.806900 1.999998 -26.000000
v -140.806900 1.999997 -34.000000
v -129.806900 1.999997 -34.000000
v -140.806900 1.999997 -35.000000
v -129.806900 1.999997 -35.000000
v -140.806900 1.999997 -43.000000
v -129.806900 1.999997 -43.000000
v -140.806900 1.999997 -44.000000
v -129.806900 1.999997 -44.000000
v -140.806900 1.999996 -53.000000
v -129.806900 1.999996 -53.000000
v -140.806900 1.999996 -54.000000
v -141.806900 1.999995 -60.000000
v -140.806900 1.999995 -60.000000
v -139.806900 1.999995 -60.000000
v -141.806900 1.999995 -62.000000
v -139.806900 1.999995 -62.000000
v -142.806900 1.999995 -63.000000
v -141.806900 1.999995 -63.000000
v -174.806900 66.000008 62.999996
v -168.806900 66.000008 62.999996
v -168.806900 66.000008 61.999996
v -139.806900 66.000008 61.999996
v -168.806900 66.000008 59.999996
v -139.806900 66.000008 59.999996
v -174.806900 66.000008 58.999996
v -168.806900 66.000008 58.999996
v -174.806900 66.000000 0.999995
v -168.806900 66.000000 0.999995
v -168.806900 66.000000 -0.000005
v -140.806900 66.000000 -0.000005
v -168.806900 66.000000 -2.000005
v -140.806900 66.000000 -2.000005
v -174.806900 66.000000 -3.000005
v -168.806900 66.000000 -3.000005
vn -1.0000 -0.0000 -0.0000
vn 1.0000 -0.0000 -0.0000
vn -0.0000 -0.0000 1.0000
vn -0.0000 -0.0000 -1.0000
vn -0.0000 -1.0000 -0.0000
vn -0.0000 1.0000 -0.0000
vt 0.916016 0.500000
vt 0.802734 0.500000
vt 0.923828 0.500000
vt 0.751953 0.500000
vt 0.919922 0.500000
vt 0.943359 0.500000
vt 0.951172 0.500000
vt 0.908203 0.500000
s 0
usemtl palette
f 3/1/1 2/1/1 1/1/1
f 4/1/1 2/1/1 3/1/1
f 9/2/1 6/2/1 5/2/1
f 10/2/1 6/2/1 9/2/1
f 11/2/1 8/2/1 7/2/1
f 12/2/1 8/2/1 11/2/1
f 13/3/1 10/3/1 9/3/1
f 14/3/1 10/3/1 13/3/1
f 15/3/1 12/3/1 11/3/1
f 16/3/1 12/3/1 15/3/1
f 19/4/1 18/4/1 17/4/1
f 20/4/1 18/4/1 19/4/1
f 27/5/1 22/5/1 21/5/1
f 28/5/1 22/5/1 27/5/1
f 29/5/1 24/5/1 23/5/1
f 30/5/1 24/5/1 29/5/1
f 31/3/1 28/3/1 27/3/1
f 32/3/1 28/3/1 31/3/1
f 33/3/1 30/3/1 29/3/1
f 34/3/1 30/3/1 33/3/1
f 37/2/2 38/2/2 41/2/2
f 41/2/2 38/2/2 42/2/2
f 42/2/2 38/2/2 43/2/2
f 43/2/2 38/2/2 44/2/2
f 39/2/2 40/2/2 45/2/2
f 45/2/2 40/2/2 46/2/2
f 46/2/2 40/2/2 47/2/2
f 47/2/2 40/2/2 48/2/2
f 41/3/2 42/3/2 49/3/2
f 49/3/2 42/3/2 50/3/2
f 43/3/2 44/3/2 51/3/2
f 51/3/2 44/3/2 52/3/2
f 45/3/2 46/3/2 53/3/2
f 53/3/2 46/3/2 54/3/2
f 47/3/2 48/3/2 55/3/2
f 55/3/2 48/3/2 56/3/2
f 57/5/2 58/5/2 59/5/2
f 59/5/2 58/5/2 60/5/2
f 59/3/2 60/3/2 61/3/2
f 61/3/2 60/3/2 62/3/2
f 63/5/2 64/5/2 67/5/2
f 67/5/2 64/5/2 68/5/2
f 67/3/2 68/3/2 69/3/2
f 69/3/2 68/3/2 70/3/2
f 73/1/3 72/1/3 71/1/3
f 74/1/3 72/1/3 73/1/3
f 78/6/3 74/6/3 73/6/3
f 79/6/3 74/6/3 78/6/3
f 80/1/3 79/1/3 78/1/3
f 81/1/3 79/1/3 80/1/3
f 82/6/3 81/6/3 80/6/3
f 83/6/3 81/6/3 82/6/3
f 84/2/3 76/2/3 75/2/3
f 85/3/3 77/3/3 76/3/3
f 85/2/3 76/2/3 84/2/3
f 86/3/3 77/3/3 85/3/3
f 87/1/3 83/1/3 82/1/3
f 88/1/3 83/1/3 87/1/3
f 89/6/3 88/6/3 87/6/3
f 90/6/3 88/6/3 89/6/3
f 93/4/3 92/4/3 91/4/3
f 94/4/3 92/4/3 93/4/3
f 95/6/3 94/6/3 93/6/3
f 96/6/3 94/6/3 95/6/3
f 101/3/3 98/3/3 97/3/3
f 102/5/3 100/5/3 99/5/3
f 103/3/3 101/3/3 100/3/3
f 103/5/3 100/5/3 102/5/3
f 104/3/3 98/3/3 101/3/3
f 104/3/3 101/3/3 103/3/3
f 108/2/3 106/2/3 105/2/3
f 109/3/3 107/3/3 106/3/3
f 109/2/3 106/2/3 108/2/3
f 110/3/3 107/3/3 109/3/3
f 115/3/3 112/3/3 111/3/3
f 116/5/3 114/5/3 113/5/3
f 117/3/3 115/3/3 114/3/3
f 117/5/3 114/5/3 116/5/3
f 118/3/3 112/3/3 115/3/3
f 118/3/3 115/3/3 117/3/3
f 121/3/4 122/3/4 125/3/4
f 123/5/4 124/5/4 126/5/4
f 126/5/4 124/5/4 127/5/4
f 124/3/4 125/3/4 128/3/4
f 127/5/4 124/5/4 128/5/4
f 125/3/4 122/3/4 129/3/4
f 128/3/4 125/3/4 129/3/4
f 130/2/4 131/2/4 133/2/4
f 131/3/4 132/3/4 134/3/4
f 133/2/4 131/2/4 134/2/4
f 134/3/4 132/3/4 135/3/4
f 137/3/4 138/3/4 141/3/4
f 139/5/4 140/5/4 142/5/4
f 140/3/4 141/3/4 143/3/4
f 142/5/4 140/5/4 143/5/4
f 141/3/4 138/3/4 144/3/4
f 143/3/4 141/3/4 144/3/4
f 145/2/4 146/2/4 148/2/4
f 146/3/4 147/3/4 149/3/4
f 148/2/4 146/2/4 149/2/4
f 149/3/4 147/3/4 150/3/4
f 154/1/4 155/1/4 156/1/4
f 156/1/4 155/1/4 157/1/4
f 156/6/4 157/6/4 158/6/4
f 158/6/4 157/6/4 159/6/4
f 158/1/4 159/1/4 160/1/4
f 160/1/4 159/1/4 161/1/4
f 160/6/4 161/6/4 162/6/4
f 162/6/4 161/6/4 163/6/4
f 162/1/4 163/1/4 164/1/4
f 164/1/4 163/1/4 165/1/4
f 164/6/4 165/6/4 166/6/4
f 166/6/4 165/6/4 167/6/4
f 166/1/4 167/1/4 168/1/4
f 168/1/4 167/1/4 169/1/4
f 168/5/4 169/5/4 171/5/4
f 169/4/4 170/4/4 172/4/4
f 171/5/4 169/5/4 172/5/4
f 172/4/4 170/4/4 173/4/4
f 183/7/5 182/7/5 181/7/5
f 184/7/5 182/7/5 183/7/5
f 186/1/5 175/1/5 174/1/5
f 187/6/5 176/6/5 175/6/5
f 187/1/5 175/1/5 186/1/5
f 188/1/5 177/1/5 176/1/5
f 188/6/5 176/6/5 187/6/5
f 189/6/5 178/6/5 177/6/5
f 189/1/5 177/1/5 188/1/5
f 190/1/5 179/1/5 178/1/5
f 190/6/5 178/6/5 189/6/5
f 191/6/5 180/6/5 179/6/5
f 191/1/5 179/1/5 190/1/5
f 192/6/5 180/6/5 191/6/5
f 194/5/5 185/5/5 193/5/5
f 197/2/5 196/2/5 195/2/5
f 198/2/5 196/2/5 197/2/5
f 201/2/5 200/2/5 199/2/5
f 202/2/5 200/2/5 201/2/5
f 205/3/5 204/3/5 203/3/5
f 206/3/5 204/3/5 205/3/5
f 209/3/5 208/3/5 207/3/5
f 210/3/5 208/3/5 209/3/5
f 211/1/6 212/1/6 219/1/6
f 212/6/6 213/6/6 220/6/6
f 219/1/6 212/1/6 220/1/6
f 213/1/6 214/1/6 221/1/6
f 220/6/6 213/6/6 221/6/6
f 214/6/6 215/6/6 222/6/6
f 221/1/6 214/1/6 222/1/6
f 215/1/6 216/1/6 223/1/6
f 222/6/6 215/6/6 223/6/6
f 216/6/6 217/6/6 224/6/6
f 223/1/6 216/1/6 224/1/6
f 217/1/6 218/1/6 225/1/6
f 224/6/6 217/6/6 225/6/6
f 225/1/6 218/1/6 226/1/6
f 227/4/6 228/4/6 230/4/6
f 228/6/6 229/6/6 230/6/6
f 230/6/6 229/6/6 231/6/6
f 227/4/6 230/4/6 232/4/6
f 231/6/6 229/6/6 234/6/6
f 232/8/6 233/8/6 235/8/6
f 233/6/6 234/6/6 235/6/6
f 235/6/6 234/6/6 236/6/6
f 234/6/6 229/6/6 236/6/6
f 232/8/6 235/8/6 237/8/6
f 235/8/6 236/8/6 237/8/6
f 237/8/6 236/8/6 238/8/6
f 232/8/6 237/8/6 239/8/6
f 237/6/6 238/6/6 239/6/6
f 239/6/6 238/6/6 240/6/6
f 232/8/6 239/8/6 241/8/6
f 239/8/6 240/8/6 241/8/6
f 241/8/6 240/8/6 242/8/6
f 232/8/6 241/8/6 243/8/6
f 241/6/6 242/6/6 243/6/6
f 243/6/6 242/6/6 244/6/6
f 232/8/6 243/8/6 245/8/6
f 243/8/6 244/8/6 245/8/6
f 245/8/6 244/8/6 246/8/6
f 245/6/6 246/6/6 248/6/6
f 232/8/6 245/8/6 248/8/6
f 248/6/6 246/6/6 249/6/6
f 246/3/6 247/3/6 249/3/6
f 232/8/6 248/8/6 250/8/6
f 248/8/6 249/8/6 250/8/6
f 250/8/6 249/8/6 251/8/6
f 232/8/6 250/8/6 252/8/6
f 250/6/6 251/6/6 252/6/6
f 252/6/6 251/6/6 253/6/6
f 232/8/6 252/8/6 254/8/6
f 252/8/6 253/8/6 254/8/6
f 254/8/6 253/8/6 255/8/6
f 232/8/6 254/8/6 256/8/6
f 254/6/6 255/6/6 256/6/6
f 256/6/6 255/6/6 257/6/6
f 232/8/6 256/8/6 258/8/6
f 256/8/6 257/8/6 258/8/6
f 258/8/6 257/8/6 259/8/6
f 227/4/6 232/4/6 260/4/6
f 232/8/6 258/8/6 260/8/6
f 258/6/6 259/6/6 261/6/6
f 260/8/6 258/8/6 261/8/6
f 227/4/6 260/4/6 262/4/6
f 261/6/6 259/6/6 263/6/6
f 263/6/6 259/6/6 264/6/6
f 262/8/6 263/8/6 264/8/6
f 264/6/6 259/6/6 265/6/6
f 264/8/6 265/8/6 266/8/6
f 262/8/6 264/8/6 266/8/6
f 266/8/6 265/8/6 267/8/6
f 262/8/6 266/8/6 268/8/6
f 266/6/6 267/6/6 268/6/6
f 268/6/6 267/6/6 269/6/6
f 262/8/6 268/8/6 270/8/6
f 268/8/6 269/8/6 270/8/6
f 270/8/6 269/8/6 271/8/6
f 262/8/6 270/8/6 272/8/6
f 270/6/6 271/6/6 272/6/6
f 272/6/6 271/6/6 273/6/6
f 272/8/6 273/8/6 274/8/6
f 262/8/6 272/8/6 274/8/6
f 274/8/6 273/8/6 275/8/6
f 262/8/6 274/8/6 276/8/6
f 274/6/6 275/6/6 276/6/6
f 276/6/6 275/6/6 277/6/6
f 262/8/6 276/8/6 278/8/6
f 276/8/6 277/8/6 278/8/6
f 278/8/6 277/8/6 279/8/6
f 262/8/6 278/8/6 280/8/6
f 278/6/6 279/6/6 280/6/6
f 280/6/6 279/6/6 281/6/6
f 262/8/6 280/8/6 282/8/6
f 280/8/6 281/8/6 282/8/6
f 282/8/6 281/8/6 283/8/6
f 262/8/6 282/8/6 284/8/6
f 282/6/6 283/6/6 284/6/6
f 284/6/6 283/6/6 285/6/6
f 262/8/6 284/8/6 286/8/6
f 284/8/6 285/8/6 286/8/6
f 227/4/6 262/4/6 287/4/6
f 262/8/6 286/8/6 287/8/6
f 287/8/6 286/8/6 288/8/6
f 227/4/6 287/4/6 290/4/6
f 227/4/6 290/4/6 292/4/6
f 290/6/6 291/6/6 293/6/6
f 292/4/6 290/4/6 293/4/6
f 294/3/6 295/3/6 296/3/6
f 294/3/6 296/3/6 298/3/6
f 296/3/6 297/3/6 298/3/6
f 298/3/6 297/3/6 299/3/6
f 294/3/6 298/3/6 300/3/6
f 300/3/6 298/3/6 301/3/6
f 302/3/6 303/3/6 304/3/6
f 302/3/6 304/3/6 306/3/6
f 304/3/6 305/3/6 306/3/6
f 306/3/6 305/3/6 307/3/6
f 302/3/6 306/3/6 308/3/6
f 308/3/6 306/3/6 309/3/6
l 152 153
l 119 120
l 289 291
l 90 91
l 25 26
l 65 66
l 192 193
l 120 288
l 288 65
l 66 153
