# MagicaVoxel @ Ephtracy

# group
o Decoration - Wooden Plank Short - Variant2

# material
mtllib Medieval Assets-90-Decoration - Wooden Plank Short - Variant2.mtl
usemtl palette

# normals
vn -1 0 0
vn 1 0 0
vn 0 0 1
vn 0 0 -1
vn 0 -1 0
vn 0 1 0

# texcoords
vt 0.00976562 0.5
vt 0.0136719 0.5
vt 0.0175781 0.5

# verts
v 26.3 -0.1 0.3
v 26.3 -0.1 0.1
v 26.3 -0.1 -0.6
v 26.3 -0.1 -1.5
v 26.3 -0.1 -1.7
v 26.3 0 0.1
v 26.3 0 -0.6
v 26.3 0 -0.7
v 26.3 0 -1.5
v 26.3 0 -1.6
v 26.3 0 -1.7
v 26.3 0.1 0.3
v 26.3 0.1 -0.7
v 26.3 0.1 -1.6
v 26.3 0.1 -1.7
v 27.3 -0.1 0.3
v 27.3 -0.1 -0.3
v 27.3 -0.1 -0.6
v 27.3 -0.1 -1.4
v 27.3 -0.1 -1.7
v 27.3 0 0.3
v 27.3 0 0.1
v 27.3 0 -0.3
v 27.3 0 -0.6
v 27.3 0 -1.4
v 27.3 0 -1.5
v 27.3 0 -1.7
v 27.3 0.1 0.3
v 27.3 0.1 0.1
v 27.3 0.1 -1.4
v 27.3 0.1 -1.5
v 27.3 0.1 -1.7
v 26.3 -0.1 0.3
v 26.3 0.1 0.3
v 26.6 0 0.3
v 26.6 0.1 0.3
v 26.7 0 0.3
v 26.7 0.1 0.3
v 27.2 0 0.3
v 27.2 0.1 0.3
v 27.3 -0.1 0.3
v 27.3 0 0.3
v 27.3 0.1 0.3
v 26.3 -0.1 -1.7
v 26.3 0 -1.7
v 26.3 0.1 -1.7
v 26.4 -0.1 -1.7
v 26.4 0 -1.7
v 26.5 0 -1.7
v 26.5 0.1 -1.7
v 26.6 -0.1 -1.7
v 26.6 0 -1.7
v 26.6 0.1 -1.7
v 26.7 0 -1.7
v 26.7 0.1 -1.7
v 26.8 0 -1.7
v 26.8 0.1 -1.7
v 27 0 -1.7
v 27 0.1 -1.7
v 27.1 -0.1 -1.7
v 27.1 0 -1.7
v 27.1 0.1 -1.7
v 27.2 -0.1 -1.7
v 27.2 0 -1.7
v 27.2 0.1 -1.7
v 27.3 -0.1 -1.7
v 27.3 0 -1.7
v 27.3 0.1 -1.7
v 26.3 -0.1 0.3
v 27.3 -0.1 0.3
v 26.5 -0.1 0.2
v 26.6 -0.1 0.2
v 26.3 -0.1 0.1
v 26.4 -0.1 0.1
v 26.5 -0.1 0
v 26.6 -0.1 0
v 26.7 -0.1 0
v 26.8 -0.1 0
v 26.7 -0.1 -0.2
v 26.8 -0.1 -0.2
v 27 -0.1 -0.2
v 27.1 -0.1 -0.2
v 27.2 -0.1 -0.3
v 27.3 -0.1 -0.3
v 26.4 -0.1 -0.4
v 26.5 -0.1 -0.4
v 26.5 -0.1 -0.5
v 26.6 -0.1 -0.5
v 26.7 -0.1 -0.5
v 26.9 -0.1 -0.5
v 27 -0.1 -0.5
v 26.3 -0.1 -0.6
v 26.4 -0.1 -0.6
v 26.5 -0.1 -0.6
v 26.7 -0.1 -0.6
v 26.8 -0.1 -0.6
v 26.9 -0.1 -0.6
v 27 -0.1 -0.6
v 27.2 -0.1 -0.6
v 27.3 -0.1 -0.6
v 26.5 -0.1 -0.8
v 26.6 -0.1 -0.8
v 27 -0.1 -0.8
v 27.1 -0.1 -0.8
v 26.8 -0.1 -0.9
v 26.9 -0.1 -0.9
v 26.7 -0.1 -1
v 26.8 -0.1 -1
v 26.8 -0.1 -1.2
v 26.9 -0.1 -1.2
v 26.6 -0.1 -1.3
v 26.7 -0.1 -1.3
v 27 -0.1 -1.3
v 27.1 -0.1 -1.3
v 27.1 -0.1 -1.4
v 27.2 -0.1 -1.4
v 27.3 -0.1 -1.4
v 26.3 -0.1 -1.5
v 26.4 -0.1 -1.5
v 26.6 -0.1 -1.5
v 26.7 -0.1 -1.5
v 26.7 -0.1 -1.6
v 26.8 -0.1 -1.6
v 27 -0.1 -1.6
v 27.1 -0.1 -1.6
v 27.2 -0.1 -1.6
v 26.3 -0.1 -1.7
v 26.4 -0.1 -1.7
v 26.6 -0.1 -1.7
v 27.1 -0.1 -1.7
v 27.2 -0.1 -1.7
v 27.3 -0.1 -1.7
v 26.3 0.1 0.3
v 26.6 0.1 0.3
v 26.7 0.1 0.3
v 27.2 0.1 0.3
v 27.3 0.1 0.3
v 27 0.1 0.2
v 27.1 0.1 0.2
v 26.5 0.1 0.1
v 26.6 0.1 0.1
v 27.2 0.1 0.1
v 27.3 0.1 0.1
v 26.5 0.1 0
v 26.7 0.1 0
v 26.5 0.1 -0.2
v 26.6 0.1 -0.2
v 27 0.1 -0.2
v 27.1 0.1 -0.2
v 27.2 0.1 -0.2
v 26.4 0.1 -0.3
v 26.5 0.1 -0.3
v 26.9 0.1 -0.3
v 27.1 0.1 -0.3
v 26.5 0.1 -0.4
v 26.6 0.1 -0.4
v 26.7 0.1 -0.5
v 26.8 0.1 -0.5
v 26.9 0.1 -0.5
v 27 0.1 -0.5
v 26.4 0.1 -0.6
v 26.5 0.1 -0.6
v 26.7 0.1 -0.6
v 26.8 0.1 -0.6
v 27 0.1 -0.6
v 27.1 0.1 -0.6
v 26.3 0.1 -0.7
v 26.4 0.1 -0.7
v 27.1 0.1 -0.8
v 27.2 0.1 -0.8
v 26.7 0.1 -0.9
v 26.8 0.1 -0.9
v 26.6 0.1 -1
v 26.7 0.1 -1
v 26.5 0.1 -1.1
v 26.6 0.1 -1.1
v 26.9 0.1 -1.1
v 27 0.1 -1.1
v 26.7 0.1 -1.2
v 26.8 0.1 -1.2
v 27 0.1 -1.2
v 27.1 0.1 -1.2
v 26.5 0.1 -1.3
v 26.6 0.1 -1.3
v 27 0.1 -1.3
v 27.1 0.1 -1.3
v 27.2 0.1 -1.3
v 26.5 0.1 -1.4
v 26.6 0.1 -1.4
v 26.9 0.1 -1.4
v 27.1 0.1 -1.4
v 27.2 0.1 -1.4
v 27.3 0.1 -1.4
v 27.1 0.1 -1.5
v 27.2 0.1 -1.5
v 27.3 0.1 -1.5
v 26.3 0.1 -1.6
v 26.4 0.1 -1.6
v 26.6 0.1 -1.6
v 26.7 0.1 -1.6
v 26.8 0.1 -1.6
v 27 0.1 -1.6
v 27.1 0.1 -1.6
v 26.3 0.1 -1.7
v 26.5 0.1 -1.7
v 26.6 0.1 -1.7
v 26.7 0.1 -1.7
v 26.8 0.1 -1.7
v 27 0.1 -1.7
v 27.1 0.1 -1.7
v 27.2 0.1 -1.7
v 27.3 0.1 -1.7

# faces
f 6/3/1 2/3/1 1/3/1
f 6/1/1 3/1/1 2/1/1
f 7/3/1 4/3/1 3/3/1
f 7/1/1 3/1/1 6/1/1
f 8/3/1 4/3/1 7/3/1
f 9/1/1 5/1/1 4/1/1
f 9/3/1 4/3/1 8/3/1
f 10/1/1 5/1/1 9/1/1
f 11/1/1 5/1/1 10/1/1
f 12/3/1 8/3/1 7/3/1
f 12/3/1 6/3/1 1/3/1
f 12/3/1 7/3/1 6/3/1
f 13/2/1 10/2/1 9/2/1
f 13/3/1 8/3/1 12/3/1
f 13/2/1 9/2/1 8/2/1
f 14/3/1 11/3/1 10/3/1
f 14/2/1 10/2/1 13/2/1
f 15/3/1 11/3/1 14/3/1
f 16/3/2 17/3/2 21/3/2
f 21/3/2 17/3/2 22/3/2
f 17/2/2 18/2/2 23/2/2
f 22/3/2 17/3/2 23/3/2
f 18/3/2 19/3/2 24/3/2
f 23/2/2 18/2/2 24/2/2
f 19/2/2 20/2/2 25/2/2
f 24/3/2 19/3/2 25/3/2
f 25/2/2 20/2/2 26/2/2
f 26/2/2 20/2/2 27/2/2
f 21/2/2 22/2/2 28/2/2
f 23/3/2 24/3/2 29/3/2
f 28/2/2 22/2/2 29/2/2
f 22/3/2 23/3/2 29/3/2
f 24/3/2 25/3/2 29/3/2
f 25/1/2 26/1/2 30/1/2
f 29/3/2 25/3/2 30/3/2
f 26/3/2 27/3/2 31/3/2
f 30/1/2 26/1/2 31/1/2
f 31/3/2 27/3/2 32/3/2
f 35/3/3 34/3/3 33/3/3
f 36/3/3 34/3/3 35/3/3
f 37/3/3 35/3/3 33/3/3
f 37/2/3 36/2/3 35/2/3
f 38/2/3 36/2/3 37/2/3
f 39/3/3 37/3/3 33/3/3
f 39/3/3 38/3/3 37/3/3
f 40/3/3 38/3/3 39/3/3
f 41/3/3 39/3/3 33/3/3
f 42/2/3 40/2/3 39/2/3
f 42/3/3 39/3/3 41/3/3
f 43/2/3 40/2/3 42/2/3
f 44/1/4 45/1/4 47/1/4
f 45/3/4 46/3/4 48/3/4
f 47/1/4 45/1/4 48/1/4
f 47/3/4 48/3/4 49/3/4
f 48/3/4 46/3/4 49/3/4
f 49/3/4 46/3/4 50/3/4
f 47/3/4 49/3/4 51/3/4
f 49/2/4 50/2/4 52/2/4
f 51/3/4 49/3/4 52/3/4
f 52/2/4 50/2/4 53/2/4
f 51/1/4 52/1/4 54/1/4
f 52/3/4 53/3/4 54/3/4
f 54/3/4 53/3/4 55/3/4
f 51/1/4 54/1/4 56/1/4
f 54/1/4 55/1/4 56/1/4
f 56/1/4 55/1/4 57/1/4
f 51/1/4 56/1/4 58/1/4
f 56/3/4 57/3/4 58/3/4
f 58/3/4 57/3/4 59/3/4
f 51/1/4 58/1/4 60/1/4
f 58/1/4 59/1/4 60/1/4
f 60/1/4 59/1/4 61/1/4
f 61/1/4 59/1/4 62/1/4
f 60/3/4 61/3/4 63/3/4
f 61/2/4 62/2/4 64/2/4
f 63/3/4 61/3/4 64/3/4
f 64/2/4 62/2/4 65/2/4
f 63/2/4 64/2/4 66/2/4
f 64/3/4 65/3/4 67/3/4
f 66/2/4 64/2/4 67/2/4
f 67/3/4 65/3/4 68/3/4
f 71/3/5 70/3/5 69/3/5
f 72/3/5 70/3/5 71/3/5
f 73/3/5 71/3/5 69/3/5
f 74/3/5 71/3/5 73/3/5
f 75/2/5 72/2/5 71/2/5
f 75/3/5 71/3/5 74/3/5
f 76/3/5 70/3/5 72/3/5
f 76/2/5 72/2/5 75/2/5
f 77/3/5 70/3/5 76/3/5
f 78/3/5 70/3/5 77/3/5
f 79/3/5 76/3/5 75/3/5
f 79/3/5 77/3/5 76/3/5
f 79/2/5 78/2/5 77/2/5
f 80/3/5 70/3/5 78/3/5
f 80/2/5 78/2/5 79/2/5
f 81/3/5 70/3/5 80/3/5
f 82/3/5 70/3/5 81/3/5
f 83/3/5 70/3/5 82/3/5
f 84/3/5 70/3/5 83/3/5
f 85/3/5 75/3/5 74/3/5
f 85/1/5 74/1/5 73/1/5
f 85/3/5 79/3/5 75/3/5
f 85/3/5 80/3/5 79/3/5
f 85/3/5 81/3/5 80/3/5
f 86/3/5 81/3/5 85/3/5
f 87/2/5 86/2/5 85/2/5
f 87/3/5 81/3/5 86/3/5
f 88/3/5 81/3/5 87/3/5
f 89/3/5 81/3/5 88/3/5
f 90/3/5 81/3/5 89/3/5
f 91/2/5 82/2/5 81/2/5
f 91/3/5 81/3/5 90/3/5
f 92/1/5 85/1/5 73/1/5
f 93/2/5 87/2/5 85/2/5
f 93/1/5 85/1/5 92/1/5
f 93/2/5 88/2/5 87/2/5
f 94/2/5 88/2/5 93/2/5
f 95/3/5 90/3/5 89/3/5
f 95/1/5 89/1/5 88/1/5
f 96/3/5 90/3/5 95/3/5
f 97/1/5 91/1/5 90/1/5
f 97/3/5 90/3/5 96/3/5
f 98/2/5 82/2/5 91/2/5
f 98/1/5 91/1/5 97/1/5
f 99/2/5 84/2/5 83/2/5
f 99/3/5 83/3/5 82/3/5
f 100/2/5 84/2/5 99/2/5
f 101/2/5 88/2/5 94/2/5
f 101/3/5 94/3/5 93/3/5
f 101/3/5 93/3/5 92/3/5
f 102/1/5 96/1/5 95/1/5
f 102/2/5 88/2/5 101/2/5
f 102/1/5 95/1/5 88/1/5
f 103/2/5 82/2/5 98/2/5
f 103/3/5 98/3/5 97/3/5
f 103/3/5 97/3/5 96/3/5
f 104/3/5 99/3/5 82/3/5
f 104/2/5 82/2/5 103/2/5
f 104/3/5 100/3/5 99/3/5
f 105/1/5 96/1/5 102/1/5
f 105/3/5 103/3/5 96/3/5
f 105/3/5 104/3/5 103/3/5
f 106/3/5 104/3/5 105/3/5
f 107/1/5 105/1/5 102/1/5
f 107/1/5 106/1/5 105/1/5
f 108/1/5 106/1/5 107/1/5
f 109/2/5 108/2/5 107/2/5
f 109/1/5 106/1/5 108/1/5
f 110/3/5 104/3/5 106/3/5
f 110/1/5 106/1/5 109/1/5
f 111/3/5 102/3/5 101/3/5
f 111/1/5 107/1/5 102/1/5
f 112/2/5 109/2/5 107/2/5
f 112/1/5 107/1/5 111/1/5
f 113/3/5 104/3/5 110/3/5
f 113/3/5 110/3/5 109/3/5
f 114/3/5 100/3/5 104/3/5
f 114/3/5 104/3/5 113/3/5
f 115/1/5 114/1/5 113/1/5
f 115/3/5 100/3/5 114/3/5
f 116/3/5 100/3/5 115/3/5
f 117/3/5 100/3/5 116/3/5
f 118/3/5 101/3/5 92/3/5
f 118/3/5 111/3/5 101/3/5
f 118/3/5 112/3/5 111/3/5
f 119/3/5 112/3/5 118/3/5
f 120/3/5 112/3/5 119/3/5
f 121/2/5 109/2/5 112/2/5
f 121/3/5 112/3/5 120/3/5
f 122/1/5 121/1/5 120/1/5
f 122/2/5 109/2/5 121/2/5
f 123/3/5 113/3/5 109/3/5
f 123/2/5 109/2/5 122/2/5
f 124/1/5 116/1/5 115/1/5
f 124/3/5 113/3/5 123/3/5
f 124/1/5 115/1/5 113/1/5
f 125/1/5 116/1/5 124/1/5
f 126/2/5 117/2/5 116/2/5
f 126/1/5 116/1/5 125/1/5
f 127/1/5 119/1/5 118/1/5
f 128/3/5 120/3/5 119/3/5
f 128/1/5 119/1/5 127/1/5
f 129/1/5 122/1/5 120/1/5
f 129/3/5 120/3/5 128/3/5
f 129/1/5 125/1/5 124/1/5
f 129/1/5 123/1/5 122/1/5
f 129/1/5 124/1/5 123/1/5
f 130/3/5 126/3/5 125/3/5
f 130/1/5 125/1/5 129/1/5
f 131/2/5 117/2/5 126/2/5
f 131/3/5 126/3/5 130/3/5
f 132/2/5 117/2/5 131/2/5
f 135/3/6 136/3/6 138/3/6
f 138/3/6 136/3/6 139/3/6
f 133/3/6 134/3/6 140/3/6
f 134/2/6 135/2/6 141/2/6
f 140/3/6 134/3/6 141/3/6
f 139/3/6 136/3/6 142/3/6
f 136/2/6 137/2/6 142/2/6
f 142/2/6 137/2/6 143/2/6
f 133/3/6 140/3/6 144/3/6
f 140/2/6 141/2/6 144/2/6
f 141/2/6 135/2/6 145/2/6
f 144/2/6 141/2/6 145/2/6
f 135/3/6 138/3/6 145/3/6
f 133/3/6 144/3/6 146/3/6
f 144/3/6 145/3/6 146/3/6
f 146/3/6 145/3/6 147/3/6
f 145/3/6 138/3/6 148/3/6
f 147/3/6 145/3/6 148/3/6
f 138/2/6 139/2/6 148/2/6
f 142/3/6 143/3/6 149/3/6
f 148/2/6 139/2/6 149/2/6
f 139/3/6 142/3/6 149/3/6
f 149/3/6 143/3/6 150/3/6
f 133/3/6 146/3/6 151/3/6
f 146/2/6 147/2/6 152/2/6
f 151/3/6 146/3/6 152/3/6
f 147/3/6 148/3/6 153/3/6
f 148/3/6 149/3/6 153/3/6
f 149/1/6 150/1/6 154/1/6
f 153/3/6 149/3/6 154/3/6
f 152/2/6 147/2/6 155/2/6
f 151/2/6 152/2/6 155/2/6
f 147/3/6 153/3/6 156/3/6
f 155/2/6 147/2/6 156/2/6
f 155/3/6 156/3/6 157/3/6
f 156/3/6 153/3/6 157/3/6
f 157/3/6 153/3/6 158/3/6
f 153/1/6 154/1/6 159/1/6
f 158/3/6 153/3/6 159/3/6
f 159/1/6 154/1/6 160/1/6
f 133/3/6 151/3/6 161/3/6
f 151/2/6 155/2/6 161/2/6
f 155/3/6 157/3/6 162/3/6
f 161/2/6 155/2/6 162/2/6
f 157/1/6 158/1/6 163/1/6
f 162/3/6 157/3/6 163/3/6
f 159/3/6 160/3/6 164/3/6
f 163/1/6 158/1/6 164/1/6
f 158/3/6 159/3/6 164/3/6
f 160/1/6 154/1/6 165/1/6
f 164/3/6 160/3/6 165/3/6
f 154/1/6 150/1/6 166/1/6
f 165/1/6 154/1/6 166/1/6
f 163/3/6 164/3/6 167/3/6
f 164/3/6 165/3/6 167/3/6
f 161/3/6 162/3/6 167/3/6
f 133/3/6 161/3/6 167/3/6
f 162/3/6 163/3/6 167/3/6
f 167/3/6 165/3/6 168/3/6
f 166/1/6 150/1/6 169/1/6
f 165/2/6 166/2/6 169/2/6
f 150/3/6 143/3/6 170/3/6
f 169/1/6 150/1/6 170/1/6
f 168/3/6 165/3/6 171/3/6
f 171/3/6 165/3/6 172/3/6
f 168/3/6 171/3/6 173/3/6
f 171/1/6 172/1/6 174/1/6
f 173/3/6 171/3/6 174/3/6
f 168/3/6 173/3/6 175/3/6
f 173/1/6 174/1/6 176/1/6
f 175/3/6 173/3/6 176/3/6
f 172/3/6 165/3/6 177/3/6
f 165/2/6 169/2/6 178/2/6
f 177/3/6 165/3/6 178/3/6
f 176/1/6 174/1/6 179/1/6
f 174/1/6 172/1/6 179/1/6
f 175/1/6 176/1/6 179/1/6
f 172/3/6 177/3/6 180/3/6
f 179/1/6 172/1/6 180/1/6
f 178/2/6 169/2/6 181/2/6
f 177/2/6 178/2/6 181/2/6
f 169/3/6 170/3/6 182/3/6
f 181/2/6 169/2/6 182/2/6
f 175/1/6 179/1/6 183/1/6
f 168/3/6 175/3/6 183/3/6
f 183/1/6 179/1/6 184/1/6
f 177/2/6 181/2/6 185/2/6
f 181/3/6 182/3/6 185/3/6
f 182/3/6 170/3/6 186/3/6
f 185/3/6 182/3/6 186/3/6
f 170/3/6 143/3/6 187/3/6
f 186/3/6 170/3/6 187/3/6
f 183/3/6 184/3/6 188/3/6
f 168/3/6 183/3/6 188/3/6
f 184/1/6 179/1/6 189/1/6
f 188/3/6 184/3/6 189/3/6
f 185/2/6 186/2/6 190/2/6
f 177/2/6 185/2/6 190/2/6
f 180/3/6 177/3/6 190/3/6
f 179/3/6 180/3/6 190/3/6
f 186/1/6 187/1/6 191/1/6
f 190/2/6 186/2/6 191/2/6
f 187/3/6 143/3/6 192/3/6
f 191/1/6 187/1/6 192/1/6
f 192/3/6 143/3/6 193/3/6
f 190/3/6 191/3/6 194/3/6
f 191/1/6 192/1/6 194/1/6
f 192/1/6 193/1/6 194/1/6
f 194/1/6 193/1/6 195/1/6
f 195/1/6 193/1/6 196/1/6
f 167/2/6 168/2/6 197/2/6
f 168/3/6 188/3/6 198/3/6
f 197/2/6 168/2/6 198/2/6
f 189/1/6 179/1/6 199/1/6
f 188/2/6 189/2/6 199/2/6
f 179/3/6 190/3/6 200/3/6
f 199/1/6 179/1/6 200/1/6
f 190/3/6 194/3/6 200/3/6
f 200/3/6 194/3/6 201/3/6
f 201/3/6 194/3/6 202/3/6
f 194/2/6 195/2/6 203/2/6
f 202/3/6 194/3/6 203/3/6
f 197/3/6 198/3/6 204/3/6
f 198/3/6 188/3/6 205/3/6
f 204/3/6 198/3/6 205/3/6
f 188/2/6 199/2/6 205/2/6
f 199/3/6 200/3/6 206/3/6
f 205/2/6 199/2/6 206/2/6
f 200/1/6 201/1/6 207/1/6
f 206/3/6 200/3/6 207/3/6
f 201/3/6 202/3/6 208/3/6
f 207/1/6 201/1/6 208/1/6
f 202/1/6 203/1/6 209/1/6
f 208/3/6 202/3/6 209/3/6
f 203/2/6 195/2/6 210/2/6
f 209/1/6 203/1/6 210/1/6
f 195/3/6 196/3/6 211/3/6
f 210/2/6 195/2/6 211/2/6
f 211/3/6 196/3/6 212/3/6
