# MagicaVoxel @ Ephtracy

# group
o Dungeon - Top - Ground Variant

# material
mtllib Medieval Assets-154-Dungeon - Top - Ground Variant.mtl
usemtl palette

# normals
vn 0 0 1
vn 0 0 -1
vn 0 -1 0
vn 0 1 0
vn -1 0 0
vn 1 0 0

# texcoords
vt 0.134766 0.5
vt 0.138672 0.5
vt 0.142578 0.5

# verts
v -42 0 -12.6
v -42 0.1 -12.6
v -41.9 0 -12.6
v -41.9 0.1 -12.6
v -41.8 0 -12.6
v -41.8 0.1 -12.6
v -41.7 0 -12.6
v -41.7 0.1 -12.6
v -41.5 0 -12.6
v -41.5 0.1 -12.6
v -41.2 0 -12.6
v -41.2 0.1 -12.6
v -41.1 0 -12.6
v -41.1 0.1 -12.6
v -40.8 0 -12.6
v -40.8 0.1 -12.6
v -40.6 0 -12.6
v -40.6 0.1 -12.6
v -40.5 0 -12.6
v -40.5 0.1 -12.6
v -41.8 0.1 -12.7
v -41.8 0.2 -12.7
v -41.7 0 -12.7
v -41.7 0.1 -12.7
v -41.7 0.2 -12.7
v -41.6 0.1 -12.7
v -41.6 0.2 -12.7
v -41.5 0 -12.7
v -41.5 0.1 -12.7
v -41.5 0.2 -12.7
v -41.4 0.1 -12.7
v -41.4 0.2 -12.7
v -41.2 0.1 -12.7
v -41.1 0.1 -12.7
v -40.9 0.1 -12.7
v -40.9 0.2 -12.7
v -40.8 0 -12.7
v -40.8 0.1 -12.7
v -40.8 0.2 -12.7
v -40.6 0 -12.7
v -40.6 0.1 -12.7
v -40.6 0.2 -12.7
v -40.6 0.1 -12.8
v -40.6 0.2 -12.8
v -40.5 0.1 -12.8
v -40.4 0.1 -12.8
v -40.4 0.2 -12.8
v -40.5 0 -12.9
v -40.5 0.1 -12.9
v -40.4 0.1 -12.9
v -40.3 0 -12.9
v -40.3 0.1 -12.9
v -42 0 -13
v -42 0.1 -13
v -41.9 0 -13
v -41.9 0.1 -13
v -41.8 0 -13
v -41.8 0.1 -13
v -41.7 0 -13
v -41.7 0.1 -13
v -41.6 0 -13
v -41.6 0.1 -13
v -41.4 0 -13
v -41.4 0.1 -13
v -41.4 0.2 -13
v -41.3 0.1 -13
v -41.3 0.2 -13
v -41.2 0.1 -13
v -41.2 0.2 -13
v -41.1 0.1 -13
v -41.1 0.2 -13
v -41.8 0.1 -13.1
v -41.8 0.2 -13.1
v -41.7 0.1 -13.1
v -41.7 0.2 -13.1
v -41.6 0.1 -13.1
v -41.6 0.2 -13.1
v -41.4 0.1 -13.1
v -41.4 0.2 -13.1
v -41.7 0.1 -13.2
v -41.7 0.2 -13.2
v -41.6 0.1 -13.2
v -41.6 0.2 -13.2
v -42 0 -12.8
v -42 0.1 -12.8
v -41.9 0 -12.8
v -41.9 0.1 -12.8
v -41.7 0 -12.8
v -41.7 0.1 -12.8
v -41.6 0 -12.8
v -41.6 0.1 -12.8
v -41.6 0.2 -12.8
v -41.5 0 -12.8
v -41.5 0.1 -12.8
v -41.5 0.2 -12.8
v -41.4 0 -12.8
v -41.4 0.1 -12.8
v -41.3 0.1 -12.8
v -41.3 0.2 -12.8
v -41.2 0.1 -12.8
v -41.1 0.1 -12.8
v -41.1 0.2 -12.8
v -41.8 0 -12.9
v -41.8 0.1 -12.9
v -41.8 0.2 -12.9
v -41.7 0 -12.9
v -41.7 0.1 -12.9
v -41.7 0.2 -12.9
v -41.6 0 -12.9
v -41.6 0.1 -12.9
v -41.5 0 -12.9
v -41.5 0.1 -12.9
v -41.4 0.1 -12.9
v -41.4 0.2 -12.9
v -41.3 0.1 -12.9
v -41.3 0.2 -12.9
v -42 0 -13.1
v -42 0.1 -13.1
v -41.9 0 -13.1
v -41.9 0.1 -13.1
v -40.4 0 -13.1
v -40.4 0.1 -13.1
v -40.3 0 -13.1
v -40.3 0.1 -13.1
v -41.8 0.1 -13.2
v -41.8 0.2 -13.2
v -41.7 0.1 -13.2
v -41.7 0.2 -13.2
v -40.5 0 -13.2
v -40.5 0.1 -13.2
v -40.4 0 -13.2
v -40.4 0.1 -13.2
v -41.7 0.1 -13.3
v -41.7 0.2 -13.3
v -41.6 0.1 -13.3
v -41.6 0.2 -13.3
v -41.5 0.1 -13.3
v -41.3 0.1 -13.3
v -41.3 0.2 -13.3
v -41.2 0.1 -13.3
v -40.8 0.1 -13.3
v -40.8 0.2 -13.3
v -40.5 0.1 -13.3
v -40.5 0.2 -13.3
v -40.4 0.1 -13.3
v -40.4 0.2 -13.3
v -41.8 0 -13.4
v -41.8 0.1 -13.4
v -41.7 0 -13.4
v -41.7 0.1 -13.4
v -41.5 0 -13.4
v -41.5 0.1 -13.4
v -41.3 0 -13.4
v -41.3 0.1 -13.4
v -41.2 0 -13.4
v -41.2 0.1 -13.4
v -40.5 0 -13.4
v -40.5 0.1 -13.4
v -42 0 -12.6
v -41.9 0 -12.6
v -41.8 0 -12.6
v -41.7 0 -12.6
v -41.5 0 -12.6
v -41.2 0 -12.6
v -41.1 0 -12.6
v -40.8 0 -12.6
v -40.6 0 -12.6
v -40.5 0 -12.6
v -42 0 -12.7
v -41.9 0 -12.7
v -41.8 0 -12.7
v -41.7 0 -12.7
v -41.5 0 -12.7
v -41.3 0 -12.7
v -41.2 0 -12.7
v -41 0 -12.7
v -40.9 0 -12.7
v -40.8 0 -12.7
v -40.6 0 -12.7
v -42 0 -12.8
v -41.9 0 -12.8
v -41.7 0 -12.8
v -41.6 0 -12.8
v -41.5 0 -12.8
v -41.4 0 -12.8
v -41.2 0 -12.8
v -41.1 0 -12.8
v -41 0 -12.8
v -40.9 0 -12.8
v -40.8 0 -12.8
v -40.7 0 -12.8
v -41.8 0 -12.9
v -41.7 0 -12.9
v -41.6 0 -12.9
v -41.5 0 -12.9
v -41.4 0 -12.9
v -41.3 0 -12.9
v -41.2 0 -12.9
v -40.9 0 -12.9
v -40.8 0 -12.9
v -40.7 0 -12.9
v -40.5 0 -12.9
v -40.3 0 -12.9
v -42 0 -13
v -41.9 0 -13
v -41.8 0 -13
v -41.7 0 -13
v -41.6 0 -13
v -41.4 0 -13
v -41.3 0 -13
v -40.9 0 -13
v -40.8 0 -13
v -42 0 -13.1
v -41.9 0 -13.1
v -41.7 0 -13.1
v -41.6 0 -13.1
v -41.4 0 -13.1
v -41 0 -13.1
v -40.9 0 -13.1
v -40.7 0 -13.1
v -40.4 0 -13.1
v -40.3 0 -13.1
v -41.8 0 -13.2
v -41.2 0 -13.2
v -41 0 -13.2
v -40.9 0 -13.2
v -40.8 0 -13.2
v -40.6 0 -13.2
v -40.5 0 -13.2
v -40.4 0 -13.2
v -41.7 0 -13.3
v -41.5 0 -13.3
v -41.3 0 -13.3
v -41.2 0 -13.3
v -40.8 0 -13.3
v -40.6 0 -13.3
v -41.8 0 -13.4
v -41.7 0 -13.4
v -41.5 0 -13.4
v -41.3 0 -13.4
v -41.2 0 -13.4
v -40.5 0 -13.4
v -40.5 0.1 -12.8
v -40.4 0.1 -12.8
v -40.5 0.1 -12.9
v -40.4 0.1 -12.9
v -40.5 0.1 -13.2
v -40.4 0.1 -13.2
v -40.5 0.1 -13.3
v -40.4 0.1 -13.3
v -42 0.1 -12.6
v -41.9 0.1 -12.6
v -41.8 0.1 -12.6
v -41.7 0.1 -12.6
v -41.5 0.1 -12.6
v -41.2 0.1 -12.6
v -41.1 0.1 -12.6
v -40.8 0.1 -12.6
v -40.6 0.1 -12.6
v -40.5 0.1 -12.6
v -42 0.1 -12.7
v -41.9 0.1 -12.7
v -41.8 0.1 -12.7
v -41.7 0.1 -12.7
v -41.6 0.1 -12.7
v -41.5 0.1 -12.7
v -41.4 0.1 -12.7
v -41.2 0.1 -12.7
v -41.1 0.1 -12.7
v -40.9 0.1 -12.7
v -40.8 0.1 -12.7
v -40.6 0.1 -12.7
v -42 0.1 -12.8
v -41.9 0.1 -12.8
v -41.7 0.1 -12.8
v -41.6 0.1 -12.8
v -41.5 0.1 -12.8
v -41.4 0.1 -12.8
v -41.3 0.1 -12.8
v -41.2 0.1 -12.8
v -41.1 0.1 -12.8
v -40.6 0.1 -12.8
v -40.5 0.1 -12.8
v -41.6 0.1 -12.9
v -41.5 0.1 -12.9
v -41.4 0.1 -12.9
v -41.3 0.1 -12.9
v -41.2 0.1 -12.9
v -40.4 0.1 -12.9
v -40.3 0.1 -12.9
v -42 0.1 -13
v -41.9 0.1 -13
v -41.8 0.1 -13
v -41.7 0.1 -13
v -41.6 0.1 -13
v -41.4 0.1 -13
v -41.3 0.1 -13
v -41.2 0.1 -13
v -41.1 0.1 -13
v -40.4 0.1 -13
v -42 0.1 -13.1
v -41.9 0.1 -13.1
v -41.8 0.1 -13.1
v -41.7 0.1 -13.1
v -41.6 0.1 -13.1
v -41.4 0.1 -13.1
v -40.4 0.1 -13.1
v -40.3 0.1 -13.1
v -41.8 0.1 -13.2
v -41.7 0.1 -13.2
v -41.6 0.1 -13.2
v -41.7 0.1 -13.3
v -41.6 0.1 -13.3
v -41.5 0.1 -13.3
v -41.3 0.1 -13.3
v -41.2 0.1 -13.3
v -40.8 0.1 -13.3
v -40.5 0.1 -13.3
v -41.8 0.1 -13.4
v -41.7 0.1 -13.4
v -41.5 0.1 -13.4
v -41.3 0.1 -13.4
v -41.2 0.1 -13.4
v -40.5 0.1 -13.4
v -41.8 0.2 -12.7
v -41.7 0.2 -12.7
v -41.6 0.2 -12.7
v -41.5 0.2 -12.7
v -41.4 0.2 -12.7
v -40.9 0.2 -12.7
v -40.8 0.2 -12.7
v -40.6 0.2 -12.7
v -41.6 0.2 -12.8
v -41.5 0.2 -12.8
v -41.4 0.2 -12.8
v -41.3 0.2 -12.8
v -41.1 0.2 -12.8
v -40.8 0.2 -12.8
v -40.7 0.2 -12.8
v -40.6 0.2 -12.8
v -40.4 0.2 -12.8
v -41.8 0.2 -12.9
v -41.7 0.2 -12.9
v -41.4 0.2 -12.9
v -41.3 0.2 -12.9
v -40.9 0.2 -12.9
v -40.8 0.2 -12.9
v -41.4 0.2 -13
v -41.3 0.2 -13
v -41.2 0.2 -13
v -41.1 0.2 -13
v -40.8 0.2 -13
v -40.7 0.2 -13
v -40.6 0.2 -13
v -40.4 0.2 -13
v -41.8 0.2 -13.1
v -41.7 0.2 -13.1
v -41.6 0.2 -13.1
v -41.4 0.2 -13.1
v -41.3 0.2 -13.1
v -41.2 0.2 -13.1
v -41.1 0.2 -13.1
v -40.8 0.2 -13.1
v -40.6 0.2 -13.1
v -40.5 0.2 -13.1
v -40.4 0.2 -13.1
v -41.8 0.2 -13.2
v -41.7 0.2 -13.2
v -41.6 0.2 -13.2
v -41.1 0.2 -13.2
v -40.8 0.2 -13.2
v -40.5 0.2 -13.2
v -40.4 0.2 -13.2
v -41.7 0.2 -13.3
v -41.6 0.2 -13.3
v -41.3 0.2 -13.3
v -40.8 0.2 -13.3
v -40.5 0.2 -13.3
v -40.4 0.2 -13.3
v -42 0 -12.6
v -42 0 -12.7
v -42 0 -12.8
v -42 0 -13
v -42 0 -13.1
v -42 0.1 -12.6
v -42 0.1 -12.7
v -42 0.1 -12.8
v -42 0.1 -13
v -42 0.1 -13.1
v -41.8 0 -12.6
v -41.8 0 -12.7
v -41.8 0 -12.9
v -41.8 0 -13
v -41.8 0 -13.2
v -41.8 0 -13.4
v -41.8 0.1 -12.6
v -41.8 0.1 -12.7
v -41.8 0.1 -12.9
v -41.8 0.1 -13
v -41.8 0.1 -13.1
v -41.8 0.1 -13.2
v -41.8 0.1 -13.4
v -41.8 0.2 -12.7
v -41.8 0.2 -12.9
v -41.8 0.2 -13.1
v -41.8 0.2 -13.2
v -41.7 0.1 -13.2
v -41.7 0.1 -13.3
v -41.7 0.2 -13.2
v -41.7 0.2 -13.3
v -41.6 0 -12.8
v -41.6 0 -12.9
v -41.6 0.1 -12.7
v -41.6 0.1 -12.8
v -41.6 0.1 -12.9
v -41.6 0.1 -13.1
v -41.6 0.1 -13.2
v -41.6 0.2 -12.7
v -41.6 0.2 -12.8
v -41.6 0.2 -13.1
v -41.6 0.2 -13.2
v -41.5 0 -12.6
v -41.5 0 -12.7
v -41.5 0.1 -12.6
v -41.5 0.1 -12.7
v -41.4 0 -12.8
v -41.4 0 -12.9
v -41.4 0 -13
v -41.4 0.1 -12.7
v -41.4 0.1 -12.8
v -41.4 0.1 -12.9
v -41.4 0.1 -13
v -41.4 0.1 -13.1
v -41.4 0.2 -12.7
v -41.4 0.2 -12.8
v -41.4 0.2 -12.9
v -41.4 0.2 -13
v -41.4 0.2 -13.1
v -41.1 0.1 -12.8
v -41.1 0.1 -13
v -41.1 0.2 -12.8
v -41.1 0.2 -13
v -40.6 0 -12.6
v -40.6 0 -12.7
v -40.6 0.1 -12.6
v -40.6 0.1 -12.7
v -41.9 0 -12.6
v -41.9 0 -12.7
v -41.9 0 -12.8
v -41.9 0 -13
v -41.9 0 -13.1
v -41.9 0.1 -12.6
v -41.9 0.1 -12.7
v -41.9 0.1 -12.8
v -41.9 0.1 -13
v -41.9 0.1 -13.1
v -41.7 0 -12.6
v -41.7 0 -12.7
v -41.7 0 -12.8
v -41.7 0 -12.9
v -41.7 0.1 -12.6
v -41.7 0.1 -12.7
v -41.7 0.1 -12.8
v -41.7 0.1 -12.9
v -41.7 0.1 -13.1
v -41.7 0.1 -13.2
v -41.7 0.2 -12.7
v -41.7 0.2 -12.9
v -41.7 0.2 -13.1
v -41.7 0.2 -13.2
v -41.5 0 -12.8
v -41.5 0 -12.9
v -41.5 0.1 -12.7
v -41.5 0.1 -12.8
v -41.5 0.1 -12.9
v -41.5 0.2 -12.7
v -41.5 0.2 -12.8
v -41.3 0.1 -12.8
v -41.3 0.1 -12.9
v -41.3 0.2 -12.8
v -41.3 0.2 -12.9
v -40.8 0 -12.6
v -40.8 0 -12.7
v -40.8 0.1 -12.6
v -40.8 0.1 -12.7
v -40.6 0.1 -12.7
v -40.6 0.1 -12.8
v -40.6 0.2 -12.7
v -40.6 0.2 -12.8
v -40.5 0 -12.6
v -40.5 0 -12.9
v -40.5 0 -13.2
v -40.5 0 -13.4
v -40.5 0.1 -12.6
v -40.5 0.1 -12.8
v -40.5 0.1 -12.9
v -40.5 0.1 -13.2
v -40.5 0.1 -13.3
v -40.5 0.1 -13.4
v -40.4 0 -13.1
v -40.4 0 -13.2
v -40.4 0.1 -12.8
v -40.4 0.1 -12.9
v -40.4 0.1 -13
v -40.4 0.1 -13.1
v -40.4 0.1 -13.2
v -40.4 0.1 -13.3
v -40.4 0.2 -12.8
v -40.4 0.2 -13
v -40.4 0.2 -13.1
v -40.4 0.2 -13.2
v -40.4 0.2 -13.3
v -40.3 0 -12.9
v -40.3 0 -13.1
v -40.3 0.1 -12.9
v -40.3 0.1 -13.1

# faces
f 3/2/1 2/2/1 1/2/1
f 4/2/1 2/2/1 3/2/1
f 7/2/1 6/2/1 5/2/1
f 8/2/1 6/2/1 7/2/1
f 11/3/1 10/3/1 9/3/1
f 12/3/1 10/3/1 11/3/1
f 13/1/1 12/1/1 11/1/1
f 14/1/1 12/1/1 13/1/1
f 15/3/1 14/3/1 13/3/1
f 16/3/1 14/3/1 15/3/1
f 19/3/1 18/3/1 17/3/1
f 20/3/1 18/3/1 19/3/1
f 24/2/1 22/2/1 21/2/1
f 25/2/1 22/2/1 24/2/1
f 26/3/1 24/3/1 23/3/1
f 28/3/1 26/3/1 23/3/1
f 29/2/1 27/2/1 26/2/1
f 29/3/1 26/3/1 28/3/1
f 30/2/1 27/2/1 29/2/1
f 33/3/1 32/3/1 31/3/1
f 34/3/1 32/3/1 33/3/1
f 35/3/1 32/3/1 34/3/1
f 36/3/1 32/3/1 35/3/1
f 38/2/1 36/2/1 35/2/1
f 39/2/1 36/2/1 38/2/1
f 40/3/1 38/3/1 37/3/1
f 40/3/1 39/3/1 38/3/1
f 41/3/1 39/3/1 40/3/1
f 42/3/1 39/3/1 41/3/1
f 45/3/1 44/3/1 43/3/1
f 46/3/1 44/3/1 45/3/1
f 47/3/1 44/3/1 46/3/1
f 50/3/1 49/3/1 48/3/1
f 51/3/1 50/3/1 48/3/1
f 52/3/1 50/3/1 51/3/1
f 55/3/1 54/3/1 53/3/1
f 56/3/1 54/3/1 55/3/1
f 59/2/1 58/2/1 57/2/1
f 60/2/1 58/2/1 59/2/1
f 61/3/1 60/3/1 59/3/1
f 62/3/1 60/3/1 61/3/1
f 63/1/1 62/1/1 61/1/1
f 64/1/1 62/1/1 63/1/1
f 66/1/1 65/1/1 64/1/1
f 67/1/1 65/1/1 66/1/1
f 68/2/1 67/2/1 66/2/1
f 69/2/1 67/2/1 68/2/1
f 70/3/1 69/3/1 68/3/1
f 71/3/1 69/3/1 70/3/1
f 74/2/1 73/2/1 72/2/1
f 75/2/1 73/2/1 74/2/1
f 78/3/1 77/3/1 76/3/1
f 79/3/1 77/3/1 78/3/1
f 82/2/1 81/2/1 80/2/1
f 83/2/1 81/2/1 82/2/1
f 84/3/2 85/3/2 86/3/2
f 86/3/2 85/3/2 87/3/2
f 88/3/2 89/3/2 90/3/2
f 90/3/2 89/3/2 91/3/2
f 91/2/2 92/2/2 94/2/2
f 94/2/2 92/2/2 95/2/2
f 93/3/2 94/3/2 96/3/2
f 96/3/2 94/3/2 97/3/2
f 98/3/2 99/3/2 100/3/2
f 100/3/2 99/3/2 101/3/2
f 101/3/2 99/3/2 102/3/2
f 103/3/2 104/3/2 106/3/2
f 104/2/2 105/2/2 107/2/2
f 106/3/2 104/3/2 107/3/2
f 107/2/2 105/2/2 108/2/2
f 109/3/2 110/3/2 111/3/2
f 111/3/2 110/3/2 112/3/2
f 113/2/2 114/2/2 115/2/2
f 115/2/2 114/2/2 116/2/2
f 117/3/2 118/3/2 119/3/2
f 119/3/2 118/3/2 120/3/2
f 121/3/2 122/3/2 123/3/2
f 123/3/2 122/3/2 124/3/2
f 125/2/2 126/2/2 127/2/2
f 127/2/2 126/2/2 128/2/2
f 129/3/2 130/3/2 131/3/2
f 131/3/2 130/3/2 132/3/2
f 133/2/2 134/2/2 135/2/2
f 135/2/2 134/2/2 136/2/2
f 135/3/2 136/3/2 137/3/2
f 137/3/2 136/3/2 138/3/2
f 138/3/2 136/3/2 139/3/2
f 138/2/2 139/2/2 140/2/2
f 140/2/2 139/2/2 141/2/2
f 141/2/2 139/2/2 142/2/2
f 141/3/2 142/3/2 143/3/2
f 143/3/2 142/3/2 144/3/2
f 143/2/2 144/2/2 145/2/2
f 145/2/2 144/2/2 146/2/2
f 147/3/2 148/3/2 149/3/2
f 149/3/2 148/3/2 150/3/2
f 149/2/2 150/2/2 151/2/2
f 151/2/2 150/2/2 152/2/2
f 151/3/2 152/3/2 153/3/2
f 153/3/2 152/3/2 154/3/2
f 153/1/2 154/1/2 155/1/2
f 155/1/2 154/1/2 156/1/2
f 155/3/2 156/3/2 157/3/2
f 157/3/2 156/3/2 158/3/2
f 169/2/3 160/2/3 159/2/3
f 170/2/3 160/2/3 169/2/3
f 171/2/3 162/2/3 161/2/3
f 172/2/3 162/2/3 171/2/3
f 173/3/3 164/3/3 163/3/3
f 174/3/3 164/3/3 173/3/3
f 175/1/3 165/1/3 164/1/3
f 175/3/3 164/3/3 174/3/3
f 176/3/3 166/3/3 165/3/3
f 177/3/3 166/3/3 176/3/3
f 178/3/3 166/3/3 177/3/3
f 179/3/3 168/3/3 167/3/3
f 180/3/3 170/3/3 169/3/3
f 181/3/3 170/3/3 180/3/3
f 182/3/3 172/3/3 171/3/3
f 182/3/3 174/3/3 173/3/3
f 182/3/3 173/3/3 172/3/3
f 183/3/3 174/3/3 182/3/3
f 184/3/3 174/3/3 183/3/3
f 185/3/3 174/3/3 184/3/3
f 186/1/3 165/1/3 175/1/3
f 186/1/3 175/1/3 174/1/3
f 187/3/3 176/3/3 165/3/3
f 187/1/3 165/1/3 186/1/3
f 188/2/3 177/2/3 176/2/3
f 188/3/3 176/3/3 187/3/3
f 189/3/3 178/3/3 177/3/3
f 189/2/3 177/2/3 188/2/3
f 189/3/3 179/3/3 178/3/3
f 190/3/3 179/3/3 189/3/3
f 191/3/3 179/3/3 190/3/3
f 192/3/3 182/3/3 171/3/3
f 193/3/3 182/3/3 192/3/3
f 194/3/3 184/3/3 183/3/3
f 195/3/3 184/3/3 194/3/3
f 196/3/3 174/3/3 185/3/3
f 197/1/3 186/1/3 174/1/3
f 197/3/3 174/3/3 196/3/3
f 198/2/3 188/2/3 187/2/3
f 198/1/3 186/1/3 197/1/3
f 198/2/3 187/2/3 186/2/3
f 198/2/3 190/2/3 189/2/3
f 198/2/3 189/2/3 188/2/3
f 199/2/3 190/2/3 198/2/3
f 200/1/3 191/1/3 190/1/3
f 200/2/3 190/2/3 199/2/3
f 201/3/3 179/3/3 191/3/3
f 201/1/3 191/1/3 200/1/3
f 202/3/3 168/3/3 179/3/3
f 202/3/3 179/3/3 201/3/3
f 209/1/3 197/1/3 196/1/3
f 210/2/3 199/2/3 198/2/3
f 210/2/3 198/2/3 197/2/3
f 210/1/3 197/1/3 209/1/3
f 211/3/3 200/3/3 199/3/3
f 211/2/3 199/2/3 210/2/3
f 212/2/3 201/2/3 200/2/3
f 212/3/3 200/3/3 211/3/3
f 213/3/3 205/3/3 204/3/3
f 214/3/3 205/3/3 213/3/3
f 215/3/3 208/3/3 207/3/3
f 215/2/3 207/2/3 206/2/3
f 216/1/3 209/1/3 208/1/3
f 216/3/3 208/3/3 215/3/3
f 217/2/3 210/2/3 209/2/3
f 217/1/3 209/1/3 216/1/3
f 217/2/3 211/2/3 210/2/3
f 217/2/3 212/2/3 211/2/3
f 218/2/3 212/2/3 217/2/3
f 219/2/3 212/2/3 218/2/3
f 220/3/3 203/3/3 202/3/3
f 220/2/3 212/2/3 219/2/3
f 220/3/3 202/3/3 201/3/3
f 220/2/3 201/2/3 212/2/3
f 221/3/3 203/3/3 220/3/3
f 222/3/3 203/3/3 221/3/3
f 223/2/3 216/2/3 215/2/3
f 223/2/3 218/2/3 217/2/3
f 223/2/3 215/2/3 206/2/3
f 223/2/3 217/2/3 216/2/3
f 224/2/3 218/2/3 223/2/3
f 225/1/3 219/1/3 218/1/3
f 225/2/3 218/2/3 224/2/3
f 226/3/3 221/3/3 220/3/3
f 226/1/3 219/1/3 225/1/3
f 226/3/3 220/3/3 219/3/3
f 227/3/3 221/3/3 226/3/3
f 228/3/3 221/3/3 227/3/3
f 229/3/3 221/3/3 228/3/3
f 230/3/3 221/3/3 229/3/3
f 231/3/3 224/3/3 223/3/3
f 232/3/3 224/3/3 231/3/3
f 233/3/3 224/3/3 232/3/3
f 234/2/3 225/2/3 224/2/3
f 234/3/3 224/3/3 233/3/3
f 234/2/3 226/2/3 225/2/3
f 234/2/3 227/2/3 226/2/3
f 235/1/3 228/1/3 227/1/3
f 235/2/3 227/2/3 234/2/3
f 236/3/3 229/3/3 228/3/3
f 236/1/3 228/1/3 235/1/3
f 237/3/3 231/3/3 223/3/3
f 238/2/3 232/2/3 231/2/3
f 238/3/3 231/3/3 237/3/3
f 239/3/3 233/3/3 232/3/3
f 239/2/3 232/2/3 238/2/3
f 240/1/3 234/1/3 233/1/3
f 240/3/3 233/3/3 239/3/3
f 241/3/3 235/3/3 234/3/3
f 241/1/3 234/1/3 240/1/3
f 241/3/3 236/3/3 235/3/3
f 242/3/3 229/3/3 236/3/3
f 242/3/3 236/3/3 241/3/3
f 245/3/3 244/3/3 243/3/3
f 246/3/3 244/3/3 245/3/3
f 249/2/3 248/2/3 247/2/3
f 250/2/3 248/2/3 249/2/3
f 251/2/4 252/2/4 261/2/4
f 261/2/4 252/2/4 262/2/4
f 253/2/4 254/2/4 263/2/4
f 263/2/4 254/2/4 264/2/4
f 255/3/4 256/3/4 266/3/4
f 266/3/4 256/3/4 267/3/4
f 256/1/4 257/1/4 268/1/4
f 267/3/4 256/3/4 268/3/4
f 257/3/4 258/3/4 269/3/4
f 268/1/4 257/1/4 269/1/4
f 269/3/4 258/3/4 270/3/4
f 270/3/4 258/3/4 271/3/4
f 259/3/4 260/3/4 272/3/4
f 261/3/4 262/3/4 273/3/4
f 273/3/4 262/3/4 274/3/4
f 264/3/4 265/3/4 275/3/4
f 275/3/4 265/3/4 276/3/4
f 266/3/4 267/3/4 277/3/4
f 277/3/4 267/3/4 278/3/4
f 272/3/4 260/3/4 282/3/4
f 282/3/4 260/3/4 283/3/4
f 276/3/4 277/3/4 284/3/4
f 284/3/4 277/3/4 285/3/4
f 279/1/4 280/1/4 287/1/4
f 280/2/4 281/2/4 288/2/4
f 287/1/4 280/1/4 288/1/4
f 286/1/4 287/1/4 296/1/4
f 287/2/4 288/2/4 297/2/4
f 296/1/4 287/1/4 297/1/4
f 288/2/4 281/2/4 298/2/4
f 297/2/4 288/2/4 298/2/4
f 298/2/4 281/2/4 299/2/4
f 289/3/4 290/3/4 300/3/4
f 291/3/4 292/3/4 301/3/4
f 301/3/4 292/3/4 302/3/4
f 293/2/4 294/2/4 303/2/4
f 294/3/4 295/3/4 304/3/4
f 303/2/4 294/2/4 304/2/4
f 295/1/4 296/1/4 305/1/4
f 304/3/4 295/3/4 305/3/4
f 305/1/4 296/1/4 306/1/4
f 300/3/4 290/3/4 307/3/4
f 307/3/4 290/3/4 308/3/4
f 304/2/4 305/2/4 310/2/4
f 310/2/4 305/2/4 311/2/4
f 309/3/4 310/3/4 312/3/4
f 309/3/4 312/3/4 319/3/4
f 312/2/4 313/2/4 320/2/4
f 319/3/4 312/3/4 320/3/4
f 313/2/4 314/2/4 320/2/4
f 314/3/4 315/3/4 321/3/4
f 320/2/4 314/2/4 321/2/4
f 315/1/4 316/1/4 322/1/4
f 321/3/4 315/3/4 322/3/4
f 317/3/4 318/3/4 323/3/4
f 322/1/4 316/1/4 323/1/4
f 316/3/4 317/3/4 323/3/4
f 323/3/4 318/3/4 324/3/4
f 327/2/4 328/2/4 333/2/4
f 333/2/4 328/2/4 334/2/4
f 329/3/4 330/3/4 335/3/4
f 335/3/4 330/3/4 336/3/4
f 336/3/4 330/3/4 337/3/4
f 331/3/4 332/3/4 338/3/4
f 330/2/4 331/2/4 338/2/4
f 338/3/4 332/3/4 339/3/4
f 339/3/4 332/3/4 340/3/4
f 325/2/4 326/2/4 342/2/4
f 342/2/4 326/2/4 343/2/4
f 335/2/4 336/2/4 344/2/4
f 344/2/4 336/2/4 345/2/4
f 337/3/4 330/3/4 346/3/4
f 338/2/4 339/2/4 346/2/4
f 330/2/4 338/2/4 346/2/4
f 346/2/4 339/2/4 347/2/4
f 346/3/4 347/3/4 351/3/4
f 337/3/4 346/3/4 351/3/4
f 347/2/4 339/2/4 352/2/4
f 351/3/4 347/3/4 352/3/4
f 340/3/4 341/3/4 353/3/4
f 352/2/4 339/2/4 353/2/4
f 339/3/4 340/3/4 353/3/4
f 353/3/4 341/3/4 354/3/4
f 354/3/4 341/3/4 355/3/4
f 348/1/4 349/1/4 359/1/4
f 349/2/4 350/2/4 360/2/4
f 359/1/4 349/1/4 360/1/4
f 351/3/4 352/3/4 361/3/4
f 360/2/4 350/2/4 361/2/4
f 350/3/4 351/3/4 361/3/4
f 352/3/4 353/3/4 361/3/4
f 353/3/4 354/3/4 361/3/4
f 361/3/4 354/3/4 362/3/4
f 362/3/4 354/3/4 363/3/4
f 354/2/4 355/2/4 364/2/4
f 363/3/4 354/3/4 364/3/4
f 364/2/4 355/2/4 365/2/4
f 365/2/4 355/2/4 366/2/4
f 356/2/4 357/2/4 367/2/4
f 367/2/4 357/2/4 368/2/4
f 359/3/4 360/3/4 369/3/4
f 358/3/4 359/3/4 369/3/4
f 362/3/4 363/3/4 370/3/4
f 360/2/4 361/2/4 370/2/4
f 361/2/4 362/2/4 370/2/4
f 363/2/4 364/2/4 371/2/4
f 370/3/4 363/3/4 371/3/4
f 364/2/4 365/2/4 371/2/4
f 365/3/4 366/3/4 372/3/4
f 371/2/4 365/2/4 372/2/4
f 372/3/4 366/3/4 373/3/4
f 368/2/4 369/2/4 374/2/4
f 369/3/4 360/3/4 375/3/4
f 374/2/4 369/2/4 375/2/4
f 360/2/4 370/2/4 376/2/4
f 375/3/4 360/3/4 376/3/4
f 370/2/4 371/2/4 376/2/4
f 371/3/4 372/3/4 377/3/4
f 376/2/4 371/2/4 377/2/4
f 372/2/4 373/2/4 378/2/4
f 377/3/4 372/3/4 378/3/4
f 378/2/4 373/2/4 379/2/4
f 385/2/5 381/2/5 380/2/5
f 386/3/5 382/3/5 381/3/5
f 386/2/5 381/2/5 385/2/5
f 387/3/5 382/3/5 386/3/5
f 388/3/5 384/3/5 383/3/5
f 389/3/5 384/3/5 388/3/5
f 396/2/5 391/2/5 390/2/5
f 397/3/5 392/3/5 391/3/5
f 397/2/5 391/2/5 396/2/5
f 398/3/5 392/3/5 397/3/5
f 399/2/5 394/2/5 393/2/5
f 400/2/5 394/2/5 399/2/5
f 401/3/5 395/3/5 394/3/5
f 401/2/5 394/2/5 400/2/5
f 402/3/5 395/3/5 401/3/5
f 403/2/5 398/2/5 397/2/5
f 404/2/5 398/2/5 403/2/5
f 405/2/5 401/2/5 400/2/5
f 406/2/5 401/2/5 405/2/5
f 409/2/5 408/2/5 407/2/5
f 410/2/5 408/2/5 409/2/5
f 414/3/5 412/3/5 411/3/5
f 415/3/5 412/3/5 414/3/5
f 418/2/5 414/2/5 413/2/5
f 419/2/5 414/2/5 418/2/5
f 420/3/5 417/3/5 416/3/5
f 421/3/5 417/3/5 420/3/5
f 424/3/5 423/3/5 422/3/5
f 425/3/5 423/3/5 424/3/5
f 430/3/5 427/3/5 426/3/5
f 431/1/5 428/1/5 427/1/5
f 431/3/5 427/3/5 430/3/5
f 432/1/5 428/1/5 431/1/5
f 434/3/5 430/3/5 429/3/5
f 435/2/5 431/2/5 430/2/5
f 435/3/5 430/3/5 434/3/5
f 436/2/5 431/2/5 435/2/5
f 437/1/5 433/1/5 432/1/5
f 438/1/5 433/1/5 437/1/5
f 441/3/5 440/3/5 439/3/5
f 442/3/5 440/3/5 441/3/5
f 445/3/5 444/3/5 443/3/5
f 446/3/5 444/3/5 445/3/5
f 447/2/6 448/2/6 452/2/6
f 448/3/6 449/3/6 453/3/6
f 452/2/6 448/2/6 453/2/6
f 453/3/6 449/3/6 454/3/6
f 450/3/6 451/3/6 455/3/6
f 455/3/6 451/3/6 456/3/6
f 457/2/6 458/2/6 461/2/6
f 461/2/6 458/2/6 462/2/6
f 459/3/6 460/3/6 463/3/6
f 463/3/6 460/3/6 464/3/6
f 462/2/6 463/2/6 467/2/6
f 463/2/6 464/2/6 467/2/6
f 467/2/6 464/2/6 468/2/6
f 465/2/6 466/2/6 469/2/6
f 469/2/6 466/2/6 470/2/6
f 471/3/6 472/3/6 474/3/6
f 474/3/6 472/3/6 475/3/6
f 473/2/6 474/2/6 476/2/6
f 476/2/6 474/2/6 477/2/6
f 478/2/6 479/2/6 480/2/6
f 480/2/6 479/2/6 481/2/6
f 482/3/6 483/3/6 484/3/6
f 484/3/6 483/3/6 485/3/6
f 486/3/6 487/3/6 488/3/6
f 488/3/6 487/3/6 489/3/6
f 490/3/6 491/3/6 494/3/6
f 494/3/6 491/3/6 495/3/6
f 495/3/6 491/3/6 496/3/6
f 492/3/6 493/3/6 497/3/6
f 497/3/6 493/3/6 498/3/6
f 498/3/6 493/3/6 499/3/6
f 500/3/6 501/3/6 505/3/6
f 505/3/6 501/3/6 506/3/6
f 503/3/6 504/3/6 508/3/6
f 502/3/6 503/3/6 508/3/6
f 504/2/6 505/2/6 509/2/6
f 508/3/6 504/3/6 509/3/6
f 505/3/6 506/3/6 510/3/6
f 509/2/6 505/2/6 510/2/6
f 506/2/6 507/2/6 511/2/6
f 510/3/6 506/3/6 511/3/6
f 511/2/6 507/2/6 512/2/6
f 513/3/6 514/3/6 515/3/6
f 515/3/6 514/3/6 516/3/6
