# MagicaVoxel @ Ephtracy

# group
o Resource - Stone - Variant3

# material
mtllib Medieval Assets-319-Resource - Stone - Variant3.mtl
usemtl palette

# normals
vn -1 0 0
vn 1 0 0
vn 0 0 1
vn 0 0 -1
vn 0 -1 0
vn 0 1 0

# texcoords
vt 0.134766 0.5
vt 0.138672 0.5
vt 0.142578 0.5

# verts
v -1.4 0.7 -14.7
v -1.4 0.7 -14.8
v -1.4 0.7 -14.9
v -1.4 0.8 -14.7
v -1.4 0.8 -14.8
v -1.4 0.8 -14.9
v -1.3 0.7 -14.6
v -1.3 0.7 -14.7
v -1.3 0.7 -14.9
v -1.3 0.7 -15
v -1.3 0.8 -14.6
v -1.3 0.8 -14.7
v -1.3 0.8 -14.8
v -1.3 0.8 -14.9
v -1.3 0.9 -14.7
v -1.3 0.9 -14.8
v -1.3 0.9 -14.9
v -1.3 0.9 -15
v -1.2 0.7 -14.5
v -1.2 0.7 -14.6
v -1.2 0.8 -14.5
v -1.2 0.8 -14.6
v -1.2 0.8 -14.7
v -1.2 0.8 -14.8
v -1.2 0.8 -14.9
v -1.2 0.9 -14.7
v -1.2 0.9 -14.8
v -1.2 0.9 -14.9
v -1.2 1 -14.6
v -1.2 1 -14.7
v -1.2 1 -14.8
v -1.2 1 -14.9
v -1.1 0.8 -14.7
v -1.1 0.8 -14.8
v -1.1 0.9 -14.7
v -1.1 0.9 -14.8
v -1 0.8 -14.8
v -1 0.8 -14.9
v -1 0.9 -14.8
v -1 0.9 -14.9
v -1.2 0.8 -14.7
v -1.2 0.8 -14.8
v -1.2 0.9 -14.7
v -1.2 0.9 -14.8
v -1.1 0.8 -14.8
v -1.1 0.8 -14.9
v -1.1 0.8 -15
v -1.1 0.9 -14.6
v -1.1 0.9 -14.7
v -1.1 0.9 -14.8
v -1.1 0.9 -14.9
v -1.1 0.9 -15
v -1.1 1 -14.6
v -1.1 1 -14.7
v -1.1 1 -14.8
v -1.1 1 -14.9
v -1 0.7 -14.5
v -1 0.7 -14.6
v -1 0.8 -14.5
v -1 0.8 -14.6
v -1 0.8 -14.7
v -1 0.8 -14.8
v -1 0.9 -14.6
v -1 0.9 -14.7
v -1 0.9 -14.8
v -0.9 0.7 -14.6
v -0.9 0.7 -14.7
v -0.9 0.7 -14.8
v -0.9 0.7 -14.9
v -0.9 0.7 -15
v -0.9 0.8 -14.6
v -0.9 0.8 -14.7
v -0.9 0.8 -14.8
v -0.9 0.8 -14.9
v -0.9 0.8 -15
v -0.9 0.9 -14.8
v -0.9 0.9 -14.9
v -0.8 0.7 -14.8
v -0.8 0.7 -14.9
v -0.8 0.8 -14.8
v -0.8 0.8 -14.9
v -1.2 0.7 -14.5
v -1.2 0.8 -14.5
v -1.1 0.7 -14.5
v -1.1 0.8 -14.5
v -1 0.7 -14.5
v -1 0.8 -14.5
v -1.3 0.7 -14.6
v -1.3 0.8 -14.6
v -1.2 0.7 -14.6
v -1.2 0.8 -14.6
v -1.2 1 -14.6
v -1.1 0.8 -14.6
v -1.1 0.9 -14.6
v -1.1 1 -14.6
v -1 0.7 -14.6
v -1 0.8 -14.6
v -1 0.9 -14.6
v -0.9 0.7 -14.6
v -0.9 0.8 -14.6
v -1.4 0.7 -14.7
v -1.4 0.8 -14.7
v -1.3 0.7 -14.7
v -1.3 0.8 -14.7
v -1.3 0.9 -14.7
v -1.2 0.8 -14.7
v -1.2 0.9 -14.7
v -1.2 0.8 -14.8
v -1.2 0.9 -14.8
v -1.2 1 -14.8
v -1.1 0.8 -14.8
v -1.1 0.9 -14.8
v -1.1 1 -14.8
v -1 0.8 -14.8
v -1 0.9 -14.8
v -0.9 0.7 -14.8
v -0.9 0.8 -14.8
v -0.9 0.9 -14.8
v -0.8 0.7 -14.8
v -0.8 0.8 -14.8
v -1.3 0.8 -14.9
v -1.3 0.9 -14.9
v -1.2 0.8 -14.9
v -1.2 0.9 -14.9
v -1.2 0.8 -14.7
v -1.2 0.9 -14.7
v -1.2 1 -14.7
v -1.1 0.8 -14.7
v -1.1 0.9 -14.7
v -1.1 1 -14.7
v -1.3 0.8 -14.8
v -1.3 0.9 -14.8
v -1.2 0.8 -14.8
v -1.2 0.9 -14.8
v -1.1 0.8 -14.8
v -1.1 0.9 -14.8
v -1 0.8 -14.8
v -1 0.9 -14.8
v -1.4 0.7 -14.9
v -1.4 0.8 -14.9
v -1.3 0.7 -14.9
v -1.3 0.8 -14.9
v -1.2 0.9 -14.9
v -1.2 1 -14.9
v -1.1 0.9 -14.9
v -1.1 1 -14.9
v -1 0.8 -14.9
v -1 0.9 -14.9
v -0.9 0.7 -14.9
v -0.9 0.8 -14.9
v -0.9 0.9 -14.9
v -0.8 0.7 -14.9
v -0.8 0.8 -14.9
v -1.3 0.7 -15
v -1.3 0.9 -15
v -1.1 0.8 -15
v -1.1 0.9 -15
v -0.9 0.7 -15
v -0.9 0.8 -15
v -1.2 0.7 -14.5
v -1.1 0.7 -14.5
v -1 0.7 -14.5
v -1.3 0.7 -14.6
v -1.2 0.7 -14.6
v -1.1 0.7 -14.6
v -1 0.7 -14.6
v -0.9 0.7 -14.6
v -1.4 0.7 -14.7
v -1.3 0.7 -14.7
v -1.2 0.7 -14.7
v -1.1 0.7 -14.7
v -1 0.7 -14.7
v -0.9 0.7 -14.7
v -1.4 0.7 -14.8
v -1.3 0.7 -14.8
v -1.2 0.7 -14.8
v -1.1 0.7 -14.8
v -1 0.7 -14.8
v -0.9 0.7 -14.8
v -0.8 0.7 -14.8
v -1.4 0.7 -14.9
v -1.3 0.7 -14.9
v -1.2 0.7 -14.9
v -1.1 0.7 -14.9
v -1 0.7 -14.9
v -0.9 0.7 -14.9
v -0.8 0.7 -14.9
v -1.3 0.7 -15
v -0.9 0.7 -15
v -1.2 0.8 -14.5
v -1.1 0.8 -14.5
v -1 0.8 -14.5
v -1.3 0.8 -14.6
v -1.2 0.8 -14.6
v -1.1 0.8 -14.6
v -1 0.8 -14.6
v -0.9 0.8 -14.6
v -1.4 0.8 -14.7
v -1.3 0.8 -14.7
v -1.2 0.8 -14.7
v -1.1 0.8 -14.7
v -1 0.8 -14.7
v -0.9 0.8 -14.7
v -1.4 0.8 -14.8
v -1.3 0.8 -14.8
v -1.2 0.8 -14.8
v -1.1 0.8 -14.8
v -1 0.8 -14.8
v -0.9 0.8 -14.8
v -0.8 0.8 -14.8
v -1.4 0.8 -14.9
v -1.3 0.8 -14.9
v -1.2 0.8 -14.9
v -1.1 0.8 -14.9
v -1 0.8 -14.9
v -0.9 0.8 -14.9
v -0.8 0.8 -14.9
v -1.1 0.8 -15
v -0.9 0.8 -15
v -1.1 0.9 -14.6
v -1 0.9 -14.6
v -1.3 0.9 -14.7
v -1.2 0.9 -14.7
v -1.1 0.9 -14.7
v -1 0.9 -14.7
v -1.3 0.9 -14.8
v -1.2 0.9 -14.8
v -1.1 0.9 -14.8
v -1 0.9 -14.8
v -0.9 0.9 -14.8
v -1.3 0.9 -14.9
v -1.2 0.9 -14.9
v -1.1 0.9 -14.9
v -1 0.9 -14.9
v -0.9 0.9 -14.9
v -1.3 0.9 -15
v -1.1 0.9 -15
v -1.2 1 -14.6
v -1.1 1 -14.6
v -1.2 1 -14.7
v -1.1 1 -14.7
v -1.2 1 -14.8
v -1.1 1 -14.8
v -1.2 1 -14.9
v -1.1 1 -14.9

# faces
f 4/3/1 2/3/1 1/3/1
f 5/1/1 3/1/1 2/1/1
f 5/3/1 2/3/1 4/3/1
f 6/1/1 3/1/1 5/1/1
f 11/3/1 8/3/1 7/3/1
f 12/3/1 8/3/1 11/3/1
f 14/3/1 10/3/1 9/3/1
f 15/3/1 13/3/1 12/3/1
f 16/3/1 13/3/1 15/3/1
f 17/3/1 10/3/1 14/3/1
f 18/3/1 10/3/1 17/3/1
f 21/3/1 20/3/1 19/3/1
f 22/3/1 20/3/1 21/3/1
f 26/3/1 23/3/1 22/3/1
f 27/3/1 25/3/1 24/3/1
f 28/3/1 25/3/1 27/3/1
f 29/3/1 26/3/1 22/3/1
f 30/3/1 26/3/1 29/3/1
f 31/3/1 28/3/1 27/3/1
f 32/3/1 28/3/1 31/3/1
f 35/3/1 34/3/1 33/3/1
f 36/3/1 34/3/1 35/3/1
f 39/1/1 38/1/1 37/1/1
f 40/1/1 38/1/1 39/1/1
f 41/3/2 42/3/2 43/3/2
f 43/3/2 42/3/2 44/3/2
f 45/3/2 46/3/2 50/3/2
f 46/3/2 47/3/2 50/3/2
f 50/3/2 47/3/2 51/3/2
f 51/3/2 47/3/2 52/3/2
f 48/3/2 49/3/2 53/3/2
f 53/3/2 49/3/2 54/3/2
f 50/3/2 51/3/2 55/3/2
f 55/3/2 51/3/2 56/3/2
f 57/1/2 58/1/2 59/1/2
f 59/1/2 58/1/2 60/1/2
f 60/1/2 61/1/2 63/1/2
f 61/3/2 62/3/2 64/3/2
f 63/1/2 61/1/2 64/1/2
f 64/3/2 62/3/2 65/3/2
f 66/1/2 67/1/2 71/1/2
f 67/3/2 68/3/2 72/3/2
f 71/1/2 67/1/2 72/1/2
f 72/3/2 68/3/2 73/3/2
f 69/3/2 70/3/2 74/3/2
f 74/3/2 70/3/2 75/3/2
f 73/1/2 74/1/2 76/1/2
f 76/1/2 74/1/2 77/1/2
f 78/3/2 79/3/2 80/3/2
f 80/3/2 79/3/2 81/3/2
f 84/3/3 83/3/3 82/3/3
f 85/3/3 83/3/3 84/3/3
f 86/1/3 85/1/3 84/1/3
f 87/1/3 85/1/3 86/1/3
f 90/3/3 89/3/3 88/3/3
f 91/3/3 89/3/3 90/3/3
f 93/3/3 92/3/3 91/3/3
f 94/3/3 92/3/3 93/3/3
f 95/3/3 92/3/3 94/3/3
f 97/1/3 94/1/3 93/1/3
f 98/1/3 94/1/3 97/1/3
f 99/1/3 97/1/3 96/1/3
f 100/1/3 97/1/3 99/1/3
f 103/3/3 102/3/3 101/3/3
f 104/3/3 102/3/3 103/3/3
f 106/3/3 105/3/3 104/3/3
f 107/3/3 105/3/3 106/3/3
f 111/3/3 109/3/3 108/3/3
f 111/3/3 110/3/3 109/3/3
f 112/3/3 110/3/3 111/3/3
f 113/3/3 110/3/3 112/3/3
f 117/1/3 115/1/3 114/1/3
f 118/1/3 115/1/3 117/1/3
f 119/3/3 117/3/3 116/3/3
f 120/3/3 117/3/3 119/3/3
f 123/3/3 122/3/3 121/3/3
f 124/3/3 122/3/3 123/3/3
f 125/3/4 126/3/4 128/3/4
f 126/3/4 127/3/4 128/3/4
f 128/3/4 127/3/4 129/3/4
f 129/3/4 127/3/4 130/3/4
f 131/3/4 132/3/4 133/3/4
f 133/3/4 132/3/4 134/3/4
f 135/3/4 136/3/4 137/3/4
f 137/3/4 136/3/4 138/3/4
f 139/1/4 140/1/4 141/1/4
f 141/1/4 140/1/4 142/1/4
f 143/3/4 144/3/4 145/3/4
f 145/3/4 144/3/4 146/3/4
f 147/1/4 148/1/4 150/1/4
f 150/1/4 148/1/4 151/1/4
f 149/3/4 150/3/4 152/3/4
f 152/3/4 150/3/4 153/3/4
f 154/3/4 155/3/4 156/3/4
f 156/3/4 155/3/4 157/3/4
f 154/3/4 156/3/4 158/3/4
f 158/3/4 156/3/4 159/3/4
f 164/3/5 161/3/5 160/3/5
f 165/1/5 162/1/5 161/1/5
f 165/3/5 161/3/5 164/3/5
f 166/1/5 162/1/5 165/1/5
f 169/3/5 164/3/5 163/3/5
f 170/2/5 165/2/5 164/2/5
f 170/3/5 164/3/5 169/3/5
f 171/3/5 166/3/5 165/3/5
f 171/2/5 165/2/5 170/2/5
f 172/1/5 167/1/5 166/1/5
f 172/3/5 166/3/5 171/3/5
f 173/1/5 167/1/5 172/1/5
f 174/3/5 169/3/5 168/3/5
f 175/2/5 171/2/5 170/2/5
f 175/3/5 169/3/5 174/3/5
f 175/2/5 170/2/5 169/2/5
f 175/2/5 172/2/5 171/2/5
f 176/2/5 172/2/5 175/2/5
f 177/2/5 172/2/5 176/2/5
f 178/3/5 173/3/5 172/3/5
f 178/2/5 172/2/5 177/2/5
f 179/3/5 173/3/5 178/3/5
f 181/1/5 175/1/5 174/1/5
f 182/3/5 176/3/5 175/3/5
f 182/1/5 175/1/5 181/1/5
f 183/2/5 177/2/5 176/2/5
f 183/3/5 176/3/5 182/3/5
f 184/1/5 178/1/5 177/1/5
f 184/2/5 177/2/5 183/2/5
f 185/3/5 179/3/5 178/3/5
f 185/1/5 178/1/5 184/1/5
f 185/3/5 180/3/5 179/3/5
f 186/3/5 180/3/5 185/3/5
f 187/3/5 180/3/5 186/3/5
f 188/3/5 184/3/5 183/3/5
f 188/3/5 186/3/5 185/3/5
f 188/3/5 185/3/5 184/3/5
f 188/3/5 183/3/5 182/3/5
f 189/3/5 186/3/5 188/3/5
f 190/3/6 191/3/6 194/3/6
f 191/1/6 192/1/6 195/1/6
f 194/3/6 191/3/6 195/3/6
f 195/1/6 192/1/6 196/1/6
f 193/3/6 194/3/6 199/3/6
f 199/3/6 194/3/6 200/3/6
f 196/1/6 197/1/6 202/1/6
f 202/1/6 197/1/6 203/1/6
f 198/3/6 199/3/6 204/3/6
f 204/3/6 199/3/6 205/3/6
f 200/2/6 201/2/6 206/2/6
f 206/2/6 201/2/6 207/2/6
f 202/3/6 203/3/6 208/3/6
f 208/3/6 203/3/6 209/3/6
f 204/1/6 205/1/6 211/1/6
f 205/3/6 206/3/6 212/3/6
f 211/1/6 205/1/6 212/1/6
f 212/3/6 206/3/6 213/3/6
f 207/1/6 208/1/6 214/1/6
f 214/1/6 208/1/6 215/1/6
f 209/3/6 210/3/6 216/3/6
f 216/3/6 210/3/6 217/3/6
f 214/3/6 215/3/6 218/3/6
f 215/3/6 216/3/6 218/3/6
f 218/3/6 216/3/6 219/3/6
f 220/1/6 221/1/6 224/1/6
f 224/1/6 221/1/6 225/1/6
f 222/3/6 223/3/6 226/3/6
f 226/3/6 223/3/6 227/3/6
f 224/3/6 225/3/6 228/3/6
f 228/3/6 225/3/6 229/3/6
f 229/1/6 230/1/6 234/1/6
f 234/1/6 230/1/6 235/1/6
f 232/3/6 233/3/6 236/3/6
f 231/3/6 232/3/6 236/3/6
f 236/3/6 233/3/6 237/3/6
f 238/3/6 239/3/6 240/3/6
f 240/3/6 239/3/6 241/3/6
f 242/3/6 243/3/6 244/3/6
f 244/3/6 243/3/6 245/3/6
