# MagicaVoxel @ Ephtracy

# group
o Light - Wall Torch - Variant1

# material
mtllib Medieval Assets-299-Light - Wall Torch - Variant1.mtl
usemtl palette

# normals
vn -1 0 0
vn 1 0 0
vn 0 0 1
vn 0 0 -1
vn 0 -1 0
vn 0 1 0

# texcoords
vt 0.0644531 0.5
vt 0.134766 0.5
vt 0.142578 0.5
vt 0.146484 0.5
vt 0.162109 0.5

# verts
v -14.1 1.1 -10.4
v -14.1 1.1 -10.5
v -14.1 1.2 -10.4
v -14.1 1.2 -10.5
v -14 1 -10.4
v -14 1 -10.5
v -14 1.1 -10.4
v -14 1.1 -10.5
v -14 1.4 -10.1
v -14 1.4 -10.2
v -14 1.5 -10.1
v -14 1.5 -10.2
v -13.9 0.9 -10.4
v -13.9 0.9 -10.5
v -13.9 1 -10.4
v -13.9 1 -10.5
v -13.9 1.1 -10.1
v -13.9 1.1 -10.4
v -13.9 1.2 -10.2
v -13.9 1.2 -10.4
v -13.9 1.4 -10
v -13.9 1.4 -10.1
v -13.9 1.4 -10.2
v -13.9 1.4 -10.3
v -13.9 1.5 -10
v -13.9 1.5 -10.1
v -13.9 1.5 -10.2
v -13.9 1.5 -10.3
v -13.9 1.6 -10.1
v -13.9 1.6 -10.2
v -13.8 0.9 -10.4
v -13.8 0.9 -10.5
v -13.8 1 -10.4
v -13.8 1 -10.5
v -13.8 1.1 -10.1
v -13.8 1.1 -10.4
v -13.8 1.2 -10.2
v -13.8 1.2 -10.4
v -13.8 1.4 -10
v -13.8 1.4 -10.1
v -13.8 1.4 -10.2
v -13.8 1.4 -10.3
v -13.8 1.5 -10
v -13.8 1.5 -10.1
v -13.8 1.5 -10.2
v -13.8 1.5 -10.3
v -13.8 1.6 -10.1
v -13.8 1.6 -10.2
v -13.7 1 -10.4
v -13.7 1 -10.5
v -13.7 1.1 -10.4
v -13.7 1.1 -10.5
v -13.7 1.4 -10.1
v -13.7 1.4 -10.2
v -13.7 1.5 -10.1
v -13.7 1.5 -10.2
v -13.6 1.1 -10.4
v -13.6 1.1 -10.5
v -13.6 1.2 -10.4
v -13.6 1.2 -10.5
v -13.9 1.4 -10
v -13.9 1.5 -10
v -13.8 1.4 -10
v -13.8 1.5 -10
v -14 1.4 -10.1
v -14 1.5 -10.1
v -13.9 1.1 -10.1
v -13.9 1.4 -10.1
v -13.9 1.5 -10.1
v -13.9 1.6 -10.1
v -13.8 1.1 -10.1
v -13.8 1.4 -10.1
v -13.8 1.5 -10.1
v -13.8 1.6 -10.1
v -13.7 1.4 -10.1
v -13.7 1.5 -10.1
v -14.1 1.1 -10.4
v -14.1 1.2 -10.4
v -14 1 -10.4
v -14 1.1 -10.4
v -13.9 0.9 -10.4
v -13.9 1 -10.4
v -13.9 1.1 -10.4
v -13.9 1.2 -10.4
v -13.8 0.9 -10.4
v -13.8 1 -10.4
v -13.8 1.1 -10.4
v -13.8 1.2 -10.4
v -13.7 1 -10.4
v -13.7 1.1 -10.4
v -13.7 1.2 -10.4
v -13.6 1.1 -10.4
v -13.6 1.2 -10.4
v -14 1.4 -10.2
v -14 1.5 -10.2
v -13.9 1.2 -10.2
v -13.9 1.4 -10.2
v -13.9 1.5 -10.2
v -13.9 1.6 -10.2
v -13.8 1.2 -10.2
v -13.8 1.4 -10.2
v -13.8 1.5 -10.2
v -13.8 1.6 -10.2
v -13.7 1.4 -10.2
v -13.7 1.5 -10.2
v -13.9 1.4 -10.3
v -13.9 1.5 -10.3
v -13.8 1.4 -10.3
v -13.8 1.5 -10.3
v -14.1 1.1 -10.5
v -14.1 1.2 -10.5
v -14 1 -10.5
v -14 1.1 -10.5
v -13.9 0.9 -10.5
v -13.9 1 -10.5
v -13.9 1.2 -10.5
v -13.8 0.9 -10.5
v -13.8 1 -10.5
v -13.8 1.1 -10.5
v -13.7 1 -10.5
v -13.7 1.1 -10.5
v -13.7 1.2 -10.5
v -13.6 1.1 -10.5
v -13.6 1.2 -10.5
v -13.9 0.9 -10.4
v -13.8 0.9 -10.4
v -13.9 0.9 -10.5
v -13.8 0.9 -10.5
v -14 1 -10.4
v -13.9 1 -10.4
v -13.8 1 -10.4
v -13.7 1 -10.4
v -14 1 -10.5
v -13.9 1 -10.5
v -13.8 1 -10.5
v -13.7 1 -10.5
v -13.9 1.1 -10.1
v -13.8 1.1 -10.1
v -14.1 1.1 -10.4
v -14 1.1 -10.4
v -13.9 1.1 -10.4
v -13.8 1.1 -10.4
v -13.7 1.1 -10.4
v -13.6 1.1 -10.4
v -14.1 1.1 -10.5
v -14 1.1 -10.5
v -13.7 1.1 -10.5
v -13.6 1.1 -10.5
v -13.9 1.4 -10
v -13.8 1.4 -10
v -14 1.4 -10.1
v -13.9 1.4 -10.1
v -13.8 1.4 -10.1
v -13.7 1.4 -10.1
v -14 1.4 -10.2
v -13.9 1.4 -10.2
v -13.8 1.4 -10.2
v -13.7 1.4 -10.2
v -13.9 1.4 -10.3
v -13.8 1.4 -10.3
v -13.9 1.2 -10.2
v -13.8 1.2 -10.2
v -14.1 1.2 -10.4
v -13.9 1.2 -10.4
v -13.8 1.2 -10.4
v -13.7 1.2 -10.4
v -13.6 1.2 -10.4
v -14.1 1.2 -10.5
v -13.9 1.2 -10.5
v -13.7 1.2 -10.5
v -13.6 1.2 -10.5
v -13.9 1.5 -10
v -13.8 1.5 -10
v -14 1.5 -10.1
v -13.9 1.5 -10.1
v -13.8 1.5 -10.1
v -13.7 1.5 -10.1
v -14 1.5 -10.2
v -13.9 1.5 -10.2
v -13.8 1.5 -10.2
v -13.7 1.5 -10.2
v -13.9 1.5 -10.3
v -13.8 1.5 -10.3
v -13.9 1.6 -10.1
v -13.8 1.6 -10.1
v -13.9 1.6 -10.2
v -13.8 1.6 -10.2

# faces
f 3/4/1 2/4/1 1/4/1
f 4/4/1 2/4/1 3/4/1
f 7/4/1 6/4/1 5/4/1
f 8/4/1 6/4/1 7/4/1
f 11/2/1 10/2/1 9/2/1
f 12/2/1 10/2/1 11/2/1
f 15/4/1 14/4/1 13/4/1
f 16/4/1 14/4/1 15/4/1
f 19/5/1 18/5/1 17/5/1
f 20/5/1 18/5/1 19/5/1
f 22/5/1 19/5/1 17/5/1
f 23/5/1 19/5/1 22/5/1
f 25/2/1 22/2/1 21/2/1
f 26/2/1 22/2/1 25/2/1
f 27/2/1 24/2/1 23/2/1
f 28/2/1 24/2/1 27/2/1
f 29/1/1 27/1/1 26/1/1
f 30/1/1 27/1/1 29/1/1
f 31/4/2 32/4/2 33/4/2
f 33/4/2 32/4/2 34/4/2
f 35/5/2 36/5/2 37/5/2
f 37/5/2 36/5/2 38/5/2
f 35/5/2 37/5/2 40/5/2
f 40/5/2 37/5/2 41/5/2
f 39/2/2 40/2/2 43/2/2
f 43/2/2 40/2/2 44/2/2
f 41/2/2 42/2/2 45/2/2
f 45/2/2 42/2/2 46/2/2
f 44/1/2 45/1/2 47/1/2
f 47/1/2 45/1/2 48/1/2
f 49/4/2 50/4/2 51/4/2
f 51/4/2 50/4/2 52/4/2
f 53/2/2 54/2/2 55/2/2
f 55/2/2 54/2/2 56/2/2
f 57/4/2 58/4/2 59/4/2
f 59/4/2 58/4/2 60/4/2
f 63/2/3 62/2/3 61/2/3
f 64/2/3 62/2/3 63/2/3
f 68/2/3 66/2/3 65/2/3
f 69/2/3 66/2/3 68/2/3
f 71/5/3 68/5/3 67/5/3
f 72/5/3 68/5/3 71/5/3
f 73/1/3 70/1/3 69/1/3
f 74/1/3 70/1/3 73/1/3
f 75/2/3 73/2/3 72/2/3
f 76/2/3 73/2/3 75/2/3
f 80/4/3 78/4/3 77/4/3
f 82/4/3 80/4/3 79/4/3
f 83/4/3 78/4/3 80/4/3
f 83/4/3 80/4/3 82/4/3
f 84/4/3 78/4/3 83/4/3
f 85/4/3 82/4/3 81/4/3
f 86/3/3 83/3/3 82/3/3
f 86/4/3 82/4/3 85/4/3
f 87/3/3 83/3/3 86/3/3
f 89/4/3 87/4/3 86/4/3
f 90/3/3 88/3/3 87/3/3
f 90/4/3 87/4/3 89/4/3
f 91/3/3 88/3/3 90/3/3
f 92/4/3 91/4/3 90/4/3
f 93/4/3 91/4/3 92/4/3
f 94/2/4 95/2/4 97/2/4
f 97/2/4 95/2/4 98/2/4
f 96/5/4 97/5/4 100/5/4
f 100/5/4 97/5/4 101/5/4
f 98/1/4 99/1/4 102/1/4
f 102/1/4 99/1/4 103/1/4
f 101/2/4 102/2/4 104/2/4
f 104/2/4 102/2/4 105/2/4
f 106/2/4 107/2/4 108/2/4
f 108/2/4 107/2/4 109/2/4
f 110/4/4 111/4/4 113/4/4
f 112/4/4 113/4/4 115/4/4
f 113/4/4 111/4/4 116/4/4
f 115/4/4 113/4/4 116/4/4
f 114/4/4 115/4/4 117/4/4
f 115/3/4 116/3/4 118/3/4
f 117/4/4 115/4/4 118/4/4
f 118/3/4 116/3/4 119/3/4
f 118/4/4 119/4/4 120/4/4
f 119/3/4 116/3/4 121/3/4
f 120/4/4 119/4/4 121/4/4
f 121/3/4 116/3/4 122/3/4
f 121/4/4 122/4/4 123/4/4
f 123/4/4 122/4/4 124/4/4
f 127/4/5 126/4/5 125/4/5
f 128/4/5 126/4/5 127/4/5
f 133/4/5 130/4/5 129/4/5
f 134/4/5 130/4/5 133/4/5
f 135/4/5 132/4/5 131/4/5
f 136/4/5 132/4/5 135/4/5
f 141/5/5 138/5/5 137/5/5
f 142/5/5 138/5/5 141/5/5
f 145/4/5 140/4/5 139/4/5
f 146/4/5 140/4/5 145/4/5
f 147/4/5 144/4/5 143/4/5
f 148/4/5 144/4/5 147/4/5
f 152/2/5 150/2/5 149/2/5
f 153/2/5 150/2/5 152/2/5
f 155/2/5 152/2/5 151/2/5
f 156/2/5 152/2/5 155/2/5
f 157/2/5 154/2/5 153/2/5
f 158/2/5 154/2/5 157/2/5
f 159/2/5 157/2/5 156/2/5
f 160/2/5 157/2/5 159/2/5
f 161/5/6 162/5/6 164/5/6
f 164/5/6 162/5/6 165/5/6
f 163/4/6 164/4/6 168/4/6
f 164/3/6 165/3/6 169/3/6
f 168/4/6 164/4/6 169/4/6
f 165/3/6 166/3/6 169/3/6
f 166/4/6 167/4/6 170/4/6
f 169/3/6 166/3/6 170/3/6
f 170/4/6 167/4/6 171/4/6
f 172/2/6 173/2/6 175/2/6
f 175/2/6 173/2/6 176/2/6
f 174/2/6 175/2/6 178/2/6
f 178/2/6 175/2/6 179/2/6
f 176/2/6 177/2/6 180/2/6
f 180/2/6 177/2/6 181/2/6
f 179/2/6 180/2/6 182/2/6
f 182/2/6 180/2/6 183/2/6
f 184/1/6 185/1/6 186/1/6
f 186/1/6 185/1/6 187/1/6
