# MagicaVoxel @ Ephtracy

# group
o Decoration - Bucket

# material
mtllib Medieval Assets-286-Decoration - Bucket.mtl
usemtl palette

# normals
vn -1 0 0
vn 1 0 0
vn 0 0 1
vn 0 0 -1
vn 0 -1 0
vn 0 1 0

# texcoords
vt 0.134766 0.5
vt 0.142578 0.5
vt 0.169922 0.5
vt 0.177734 0.5

# verts
v -9.6 0.1 -12.2
v -9.6 0.1 -12.3
v -9.6 0.1 -12.4
v -9.6 0.1 -12.5
v -9.6 0.2 -12.1
v -9.6 0.2 -12.2
v -9.6 0.2 -12.5
v -9.6 0.2 -12.6
v -9.6 0.5 -12.1
v -9.6 0.5 -12.2
v -9.6 0.5 -12.3
v -9.6 0.5 -12.4
v -9.6 0.5 -12.5
v -9.6 0.5 -12.6
v -9.5 0 -12.2
v -9.5 0 -12.5
v -9.5 0.1 -12.1
v -9.5 0.1 -12.2
v -9.5 0.1 -12.3
v -9.5 0.1 -12.4
v -9.5 0.1 -12.5
v -9.5 0.1 -12.6
v -9.5 0.2 -12
v -9.5 0.2 -12.1
v -9.5 0.2 -12.2
v -9.5 0.2 -12.5
v -9.5 0.2 -12.6
v -9.5 0.2 -12.7
v -9.5 0.5 -12
v -9.5 0.5 -12.1
v -9.5 0.5 -12.6
v -9.5 0.5 -12.7
v -9.4 0 -12.1
v -9.4 0 -12.2
v -9.4 0 -12.5
v -9.4 0 -12.6
v -9.4 0.1 -12
v -9.4 0.1 -12.1
v -9.4 0.1 -12.2
v -9.4 0.1 -12.5
v -9.4 0.1 -12.6
v -9.4 0.1 -12.7
v -9.4 0.2 -12
v -9.4 0.2 -12.1
v -9.4 0.2 -12.6
v -9.4 0.2 -12.7
v -9.3 0.5 -12
v -9.3 0.5 -12.1
v -9.3 0.5 -12.6
v -9.3 0.5 -12.7
v -9.3 0.7 -12
v -9.3 0.7 -12.1
v -9.3 0.7 -12.2
v -9.3 0.7 -12.5
v -9.3 0.7 -12.6
v -9.3 0.7 -12.7
v -9.3 0.8 -12.1
v -9.3 0.8 -12.2
v -9.3 0.8 -12.5
v -9.3 0.8 -12.6
v -9.3 0.9 -12.2
v -9.3 0.9 -12.5
v -9.1 0.1 -12.1
v -9.1 0.1 -12.2
v -9.1 0.1 -12.5
v -9.1 0.1 -12.6
v -9.1 0.2 -12.1
v -9.1 0.2 -12.2
v -9.1 0.2 -12.5
v -9.1 0.2 -12.6
v -9 0.1 -12.2
v -9 0.1 -12.3
v -9 0.1 -12.4
v -9 0.1 -12.5
v -9 0.2 -12.1
v -9 0.2 -12.2
v -9 0.2 -12.5
v -9 0.2 -12.6
v -9 0.5 -12.1
v -9 0.5 -12.2
v -9 0.5 -12.3
v -9 0.5 -12.4
v -9 0.5 -12.5
v -9 0.5 -12.6
v -9.5 0.1 -12.2
v -9.5 0.1 -12.3
v -9.5 0.1 -12.4
v -9.5 0.1 -12.5
v -9.5 0.2 -12.1
v -9.5 0.2 -12.2
v -9.5 0.2 -12.5
v -9.5 0.2 -12.6
v -9.5 0.5 -12.1
v -9.5 0.5 -12.2
v -9.5 0.5 -12.3
v -9.5 0.5 -12.4
v -9.5 0.5 -12.5
v -9.5 0.5 -12.6
v -9.4 0.1 -12.1
v -9.4 0.1 -12.2
v -9.4 0.1 -12.5
v -9.4 0.1 -12.6
v -9.4 0.2 -12.1
v -9.4 0.2 -12.2
v -9.4 0.2 -12.5
v -9.4 0.2 -12.6
v -9.2 0.5 -12
v -9.2 0.5 -12.1
v -9.2 0.5 -12.6
v -9.2 0.5 -12.7
v -9.2 0.7 -12
v -9.2 0.7 -12.1
v -9.2 0.7 -12.2
v -9.2 0.7 -12.5
v -9.2 0.7 -12.6
v -9.2 0.7 -12.7
v -9.2 0.8 -12.1
v -9.2 0.8 -12.2
v -9.2 0.8 -12.5
v -9.2 0.8 -12.6
v -9.2 0.9 -12.2
v -9.2 0.9 -12.5
v -9.1 0 -12.1
v -9.1 0 -12.2
v -9.1 0 -12.5
v -9.1 0 -12.6
v -9.1 0.1 -12
v -9.1 0.1 -12.1
v -9.1 0.1 -12.2
v -9.1 0.1 -12.5
v -9.1 0.1 -12.6
v -9.1 0.1 -12.7
v -9.1 0.2 -12
v -9.1 0.2 -12.1
v -9.1 0.2 -12.6
v -9.1 0.2 -12.7
v -9 0 -12.2
v -9 0 -12.5
v -9 0.1 -12.1
v -9 0.1 -12.2
v -9 0.1 -12.3
v -9 0.1 -12.4
v -9 0.1 -12.5
v -9 0.1 -12.6
v -9 0.2 -12
v -9 0.2 -12.1
v -9 0.2 -12.2
v -9 0.2 -12.5
v -9 0.2 -12.6
v -9 0.2 -12.7
v -9 0.5 -12
v -9 0.5 -12.1
v -9 0.5 -12.6
v -9 0.5 -12.7
v -8.9 0.1 -12.2
v -8.9 0.1 -12.3
v -8.9 0.1 -12.4
v -8.9 0.1 -12.5
v -8.9 0.2 -12.1
v -8.9 0.2 -12.2
v -8.9 0.2 -12.5
v -8.9 0.2 -12.6
v -8.9 0.5 -12.1
v -8.9 0.5 -12.2
v -8.9 0.5 -12.3
v -8.9 0.5 -12.4
v -8.9 0.5 -12.5
v -8.9 0.5 -12.6
v -9.5 0.2 -12
v -9.5 0.5 -12
v -9.4 0.1 -12
v -9.4 0.2 -12
v -9.3 0.5 -12
v -9.3 0.7 -12
v -9.2 0.1 -12
v -9.2 0.5 -12
v -9.2 0.7 -12
v -9.1 0.1 -12
v -9.1 0.2 -12
v -9.1 0.5 -12
v -9 0.2 -12
v -9 0.5 -12
v -9.6 0.2 -12.1
v -9.6 0.5 -12.1
v -9.5 0.1 -12.1
v -9.5 0.2 -12.1
v -9.5 0.5 -12.1
v -9.4 0 -12.1
v -9.4 0.1 -12.1
v -9.4 0.2 -12.1
v -9.3 0.7 -12.1
v -9.3 0.8 -12.1
v -9.2 0.1 -12.1
v -9.2 0.7 -12.1
v -9.2 0.8 -12.1
v -9.1 0 -12.1
v -9.1 0.1 -12.1
v -9.1 0.2 -12.1
v -9 0.1 -12.1
v -9 0.2 -12.1
v -9 0.5 -12.1
v -8.9 0.2 -12.1
v -8.9 0.5 -12.1
v -9.6 0.1 -12.2
v -9.6 0.2 -12.2
v -9.5 0 -12.2
v -9.5 0.1 -12.2
v -9.5 0.2 -12.2
v -9.4 0 -12.2
v -9.4 0.1 -12.2
v -9.3 0.8 -12.2
v -9.3 0.9 -12.2
v -9.2 0.8 -12.2
v -9.2 0.9 -12.2
v -9.1 0 -12.2
v -9.1 0.1 -12.2
v -9 0 -12.2
v -9 0.1 -12.2
v -9 0.2 -12.2
v -8.9 0.1 -12.2
v -8.9 0.2 -12.2
v -9.5 0.1 -12.5
v -9.5 0.2 -12.5
v -9.4 0.1 -12.5
v -9.4 0.2 -12.5
v -9.3 0.7 -12.5
v -9.3 0.8 -12.5
v -9.2 0.7 -12.5
v -9.2 0.8 -12.5
v -9.1 0.1 -12.5
v -9.1 0.2 -12.5
v -9 0.1 -12.5
v -9 0.2 -12.5
v -9.5 0.2 -12.6
v -9.5 0.5 -12.6
v -9.4 0.1 -12.6
v -9.4 0.2 -12.6
v -9.4 0.5 -12.6
v -9.3 0.1 -12.6
v -9.3 0.5 -12.6
v -9.3 0.7 -12.6
v -9.2 0.1 -12.6
v -9.2 0.5 -12.6
v -9.2 0.7 -12.6
v -9.1 0.1 -12.6
v -9.1 0.2 -12.6
v -9.1 0.5 -12.6
v -9 0.2 -12.6
v -9 0.5 -12.6
v -9.5 0.2 -12.1
v -9.5 0.5 -12.1
v -9.4 0.1 -12.1
v -9.4 0.2 -12.1
v -9.3 0.5 -12.1
v -9.3 0.7 -12.1
v -9.2 0.1 -12.1
v -9.2 0.5 -12.1
v -9.2 0.7 -12.1
v -9.1 0.1 -12.1
v -9.1 0.2 -12.1
v -9.1 0.5 -12.1
v -9 0.2 -12.1
v -9 0.5 -12.1
v -9.5 0.1 -12.2
v -9.5 0.2 -12.2
v -9.4 0.1 -12.2
v -9.4 0.2 -12.2
v -9.3 0.7 -12.2
v -9.3 0.8 -12.2
v -9.2 0.7 -12.2
v -9.2 0.8 -12.2
v -9.1 0.1 -12.2
v -9.1 0.2 -12.2
v -9 0.1 -12.2
v -9 0.2 -12.2
v -9.6 0.1 -12.5
v -9.6 0.2 -12.5
v -9.5 0 -12.5
v -9.5 0.1 -12.5
v -9.5 0.2 -12.5
v -9.4 0 -12.5
v -9.4 0.1 -12.5
v -9.3 0.8 -12.5
v -9.3 0.9 -12.5
v -9.2 0.8 -12.5
v -9.2 0.9 -12.5
v -9.1 0 -12.5
v -9.1 0.1 -12.5
v -9 0 -12.5
v -9 0.1 -12.5
v -9 0.2 -12.5
v -8.9 0.1 -12.5
v -8.9 0.2 -12.5
v -9.6 0.2 -12.6
v -9.6 0.5 -12.6
v -9.5 0.1 -12.6
v -9.5 0.2 -12.6
v -9.5 0.5 -12.6
v -9.4 0 -12.6
v -9.4 0.1 -12.6
v -9.4 0.2 -12.6
v -9.3 0.1 -12.6
v -9.3 0.7 -12.6
v -9.3 0.8 -12.6
v -9.2 0.1 -12.6
v -9.2 0.7 -12.6
v -9.2 0.8 -12.6
v -9.1 0 -12.6
v -9.1 0.1 -12.6
v -9.1 0.2 -12.6
v -9 0.1 -12.6
v -9 0.2 -12.6
v -9 0.5 -12.6
v -8.9 0.2 -12.6
v -8.9 0.5 -12.6
v -9.5 0.2 -12.7
v -9.5 0.5 -12.7
v -9.4 0.1 -12.7
v -9.4 0.2 -12.7
v -9.4 0.5 -12.7
v -9.3 0.1 -12.7
v -9.3 0.5 -12.7
v -9.3 0.7 -12.7
v -9.2 0.1 -12.7
v -9.2 0.5 -12.7
v -9.2 0.7 -12.7
v -9.1 0.1 -12.7
v -9.1 0.2 -12.7
v -9.1 0.5 -12.7
v -9 0.2 -12.7
v -9 0.5 -12.7
v -9.4 0 -12.1
v -9.1 0 -12.1
v -9.5 0 -12.2
v -9.4 0 -12.2
v -9.1 0 -12.2
v -9 0 -12.2
v -9.5 0 -12.5
v -9.4 0 -12.5
v -9.1 0 -12.5
v -9 0 -12.5
v -9.4 0 -12.6
v -9.1 0 -12.6
v -9.4 0.1 -12
v -9.2 0.1 -12
v -9.1 0.1 -12
v -9.5 0.1 -12.1
v -9.4 0.1 -12.1
v -9.2 0.1 -12.1
v -9.1 0.1 -12.1
v -9 0.1 -12.1
v -9.6 0.1 -12.2
v -9.5 0.1 -12.2
v -9.4 0.1 -12.2
v -9.1 0.1 -12.2
v -9 0.1 -12.2
v -8.9 0.1 -12.2
v -9.6 0.1 -12.3
v -9.5 0.1 -12.3
v -9 0.1 -12.3
v -8.9 0.1 -12.3
v -9.6 0.1 -12.4
v -9.5 0.1 -12.4
v -9 0.1 -12.4
v -8.9 0.1 -12.4
v -9.6 0.1 -12.5
v -9.5 0.1 -12.5
v -9.4 0.1 -12.5
v -9.1 0.1 -12.5
v -9 0.1 -12.5
v -8.9 0.1 -12.5
v -9.5 0.1 -12.6
v -9.4 0.1 -12.6
v -9.3 0.1 -12.6
v -9.2 0.1 -12.6
v -9.1 0.1 -12.6
v -9 0.1 -12.6
v -9.4 0.1 -12.7
v -9.3 0.1 -12.7
v -9.2 0.1 -12.7
v -9.1 0.1 -12.7
v -9.5 0.2 -12
v -9.4 0.2 -12
v -9.1 0.2 -12
v -9 0.2 -12
v -9.6 0.2 -12.1
v -9.5 0.2 -12.1
v -9.4 0.2 -12.1
v -9.1 0.2 -12.1
v -9 0.2 -12.1
v -8.9 0.2 -12.1
v -9.6 0.2 -12.2
v -9.5 0.2 -12.2
v -9 0.2 -12.2
v -8.9 0.2 -12.2
v -9.6 0.2 -12.5
v -9.5 0.2 -12.5
v -9 0.2 -12.5
v -8.9 0.2 -12.5
v -9.6 0.2 -12.6
v -9.5 0.2 -12.6
v -9.4 0.2 -12.6
v -9.1 0.2 -12.6
v -9 0.2 -12.6
v -8.9 0.2 -12.6
v -9.5 0.2 -12.7
v -9.4 0.2 -12.7
v -9.1 0.2 -12.7
v -9 0.2 -12.7
v -9.3 0.7 -12.1
v -9.2 0.7 -12.1
v -9.3 0.7 -12.2
v -9.2 0.7 -12.2
v -9.3 0.7 -12.5
v -9.2 0.7 -12.5
v -9.3 0.7 -12.6
v -9.2 0.7 -12.6
v -9.3 0.8 -12.2
v -9.2 0.8 -12.2
v -9.3 0.8 -12.5
v -9.2 0.8 -12.5
v -9.4 0.1 -12.1
v -9.2 0.1 -12.1
v -9.1 0.1 -12.1
v -9.5 0.1 -12.2
v -9.4 0.1 -12.2
v -9.1 0.1 -12.2
v -9 0.1 -12.2
v -9.5 0.1 -12.3
v -9 0.1 -12.3
v -9.5 0.1 -12.4
v -9 0.1 -12.4
v -9.5 0.1 -12.5
v -9.4 0.1 -12.5
v -9.1 0.1 -12.5
v -9 0.1 -12.5
v -9.4 0.1 -12.6
v -9.3 0.1 -12.6
v -9.2 0.1 -12.6
v -9.1 0.1 -12.6
v -9.5 0.2 -12.1
v -9.4 0.2 -12.1
v -9.1 0.2 -12.1
v -9 0.2 -12.1
v -9.5 0.2 -12.2
v -9.4 0.2 -12.2
v -9.1 0.2 -12.2
v -9 0.2 -12.2
v -9.5 0.2 -12.5
v -9.4 0.2 -12.5
v -9.1 0.2 -12.5
v -9 0.2 -12.5
v -9.5 0.2 -12.6
v -9.4 0.2 -12.6
v -9.1 0.2 -12.6
v -9 0.2 -12.6
v -9.5 0.5 -12
v -9.3 0.5 -12
v -9.2 0.5 -12
v -9.1 0.5 -12
v -9 0.5 -12
v -9.6 0.5 -12.1
v -9.5 0.5 -12.1
v -9.3 0.5 -12.1
v -9.2 0.5 -12.1
v -9.1 0.5 -12.1
v -9 0.5 -12.1
v -8.9 0.5 -12.1
v -9.6 0.5 -12.2
v -9.5 0.5 -12.2
v -9 0.5 -12.2
v -8.9 0.5 -12.2
v -9.6 0.5 -12.3
v -9.5 0.5 -12.3
v -9 0.5 -12.3
v -8.9 0.5 -12.3
v -9.6 0.5 -12.4
v -9.5 0.5 -12.4
v -9 0.5 -12.4
v -8.9 0.5 -12.4
v -9.6 0.5 -12.5
v -9.5 0.5 -12.5
v -9 0.5 -12.5
v -8.9 0.5 -12.5
v -9.6 0.5 -12.6
v -9.5 0.5 -12.6
v -9.4 0.5 -12.6
v -9.3 0.5 -12.6
v -9.2 0.5 -12.6
v -9.1 0.5 -12.6
v -9 0.5 -12.6
v -8.9 0.5 -12.6
v -9.5 0.5 -12.7
v -9.4 0.5 -12.7
v -9.3 0.5 -12.7
v -9.2 0.5 -12.7
v -9.1 0.5 -12.7
v -9 0.5 -12.7
v -9.3 0.7 -12
v -9.2 0.7 -12
v -9.3 0.7 -12.1
v -9.2 0.7 -12.1
v -9.3 0.7 -12.6
v -9.2 0.7 -12.6
v -9.3 0.7 -12.7
v -9.2 0.7 -12.7
v -9.3 0.8 -12.1
v -9.2 0.8 -12.1
v -9.3 0.8 -12.2
v -9.2 0.8 -12.2
v -9.3 0.8 -12.5
v -9.2 0.8 -12.5
v -9.3 0.8 -12.6
v -9.2 0.8 -12.6
v -9.3 0.9 -12.2
v -9.2 0.9 -12.2
v -9.3 0.9 -12.5
v -9.2 0.9 -12.5

# faces
f 6/4/1 2/4/1 1/4/1
f 7/4/1 4/4/1 3/4/1
f 9/3/1 6/3/1 5/3/1
f 10/4/1 2/4/1 6/4/1
f 10/3/1 6/3/1 9/3/1
f 11/3/1 3/3/1 2/3/1
f 11/4/1 2/4/1 10/4/1
f 12/4/1 7/4/1 3/4/1
f 12/3/1 3/3/1 11/3/1
f 13/3/1 8/3/1 7/3/1
f 13/4/1 7/4/1 12/4/1
f 14/3/1 8/3/1 13/3/1
f 18/3/1 16/3/1 15/3/1
f 19/3/1 16/3/1 18/3/1
f 20/3/1 16/3/1 19/3/1
f 21/3/1 16/3/1 20/3/1
f 24/3/1 18/3/1 17/3/1
f 25/3/1 18/3/1 24/3/1
f 26/3/1 22/3/1 21/3/1
f 27/3/1 22/3/1 26/3/1
f 29/3/1 24/3/1 23/3/1
f 30/3/1 24/3/1 29/3/1
f 31/3/1 28/3/1 27/3/1
f 32/3/1 28/3/1 31/3/1
f 38/3/1 34/3/1 33/3/1
f 39/3/1 34/3/1 38/3/1
f 40/3/1 36/3/1 35/3/1
f 41/3/1 36/3/1 40/3/1
f 43/3/1 38/3/1 37/3/1
f 44/3/1 38/3/1 43/3/1
f 45/4/1 42/4/1 41/4/1
f 46/4/1 42/4/1 45/4/1
f 51/2/1 48/2/1 47/2/1
f 52/2/1 48/2/1 51/2/1
f 55/2/1 50/2/1 49/2/1
f 56/2/1 50/2/1 55/2/1
f 57/2/1 53/2/1 52/2/1
f 58/2/1 53/2/1 57/2/1
f 59/2/1 55/2/1 54/2/1
f 60/2/1 55/2/1 59/2/1
f 61/1/1 59/1/1 58/1/1
f 62/1/1 59/1/1 61/1/1
f 67/3/1 64/3/1 63/3/1
f 68/3/1 64/3/1 67/3/1
f 69/3/1 66/3/1 65/3/1
f 70/3/1 66/3/1 69/3/1
f 76/4/1 72/4/1 71/4/1
f 77/4/1 74/4/1 73/4/1
f 79/3/1 76/3/1 75/3/1
f 80/4/1 72/4/1 76/4/1
f 80/3/1 76/3/1 79/3/1
f 81/3/1 73/3/1 72/3/1
f 81/4/1 72/4/1 80/4/1
f 82/4/1 77/4/1 73/4/1
f 82/3/1 73/3/1 81/3/1
f 83/3/1 78/3/1 77/3/1
f 83/4/1 77/4/1 82/4/1
f 84/3/1 78/3/1 83/3/1
f 85/4/2 86/4/2 90/4/2
f 87/4/2 88/4/2 91/4/2
f 89/3/2 90/3/2 93/3/2
f 90/4/2 86/4/2 94/4/2
f 93/3/2 90/3/2 94/3/2
f 86/3/2 87/3/2 95/3/2
f 94/4/2 86/4/2 95/4/2
f 87/4/2 91/4/2 96/4/2
f 95/3/2 87/3/2 96/3/2
f 91/3/2 92/3/2 97/3/2
f 96/4/2 91/4/2 97/4/2
f 97/3/2 92/3/2 98/3/2
f 99/3/2 100/3/2 103/3/2
f 103/3/2 100/3/2 104/3/2
f 101/3/2 102/3/2 105/3/2
f 105/3/2 102/3/2 106/3/2
f 107/2/2 108/2/2 111/2/2
f 111/2/2 108/2/2 112/2/2
f 109/2/2 110/2/2 115/2/2
f 115/2/2 110/2/2 116/2/2
f 112/2/2 113/2/2 117/2/2
f 117/2/2 113/2/2 118/2/2
f 114/2/2 115/2/2 119/2/2
f 119/2/2 115/2/2 120/2/2
f 118/1/2 119/1/2 121/1/2
f 121/1/2 119/1/2 122/1/2
f 123/3/2 124/3/2 128/3/2
f 128/3/2 124/3/2 129/3/2
f 125/3/2 126/3/2 130/3/2
f 130/3/2 126/3/2 131/3/2
f 127/4/2 128/4/2 133/4/2
f 133/4/2 128/4/2 134/4/2
f 131/4/2 132/4/2 135/4/2
f 135/4/2 132/4/2 136/4/2
f 137/3/2 138/3/2 140/3/2
f 140/3/2 138/3/2 141/3/2
f 141/3/2 138/3/2 142/3/2
f 142/3/2 138/3/2 143/3/2
f 139/3/2 140/3/2 146/3/2
f 146/3/2 140/3/2 147/3/2
f 143/3/2 144/3/2 148/3/2
f 148/3/2 144/3/2 149/3/2
f 145/3/2 146/3/2 151/3/2
f 151/3/2 146/3/2 152/3/2
f 149/3/2 150/3/2 153/3/2
f 153/3/2 150/3/2 154/3/2
f 155/4/2 156/4/2 160/4/2
f 157/4/2 158/4/2 161/4/2
f 159/3/2 160/3/2 163/3/2
f 160/4/2 156/4/2 164/4/2
f 163/3/2 160/3/2 164/3/2
f 156/3/2 157/3/2 165/3/2
f 164/4/2 156/4/2 165/4/2
f 157/4/2 161/4/2 166/4/2
f 165/3/2 157/3/2 166/3/2
f 161/3/2 162/3/2 167/3/2
f 166/4/2 161/4/2 167/4/2
f 167/3/2 162/3/2 168/3/2
f 172/3/3 170/3/3 169/3/3
f 173/3/3 170/3/3 172/3/3
f 173/3/3 172/3/3 171/3/3
f 175/3/3 173/3/3 171/3/3
f 176/2/3 174/2/3 173/2/3
f 176/3/3 173/3/3 175/3/3
f 177/2/3 174/2/3 176/2/3
f 178/4/3 176/4/3 175/4/3
f 179/4/3 176/4/3 178/4/3
f 180/4/3 176/4/3 179/4/3
f 181/3/3 180/3/3 179/3/3
f 182/3/3 180/3/3 181/3/3
f 186/3/3 184/3/3 183/3/3
f 187/3/3 184/3/3 186/3/3
f 189/3/3 186/3/3 185/3/3
f 190/3/3 186/3/3 189/3/3
f 193/3/3 189/3/3 188/3/3
f 194/2/3 192/2/3 191/2/3
f 195/2/3 192/2/3 194/2/3
f 196/3/3 193/3/3 188/3/3
f 197/3/3 193/3/3 196/3/3
f 199/3/3 198/3/3 197/3/3
f 200/3/3 198/3/3 199/3/3
f 202/3/3 201/3/3 200/3/3
f 203/3/3 201/3/3 202/3/3
f 207/4/3 205/4/3 204/4/3
f 208/4/3 205/4/3 207/4/3
f 209/3/3 207/3/3 206/3/3
f 210/3/3 207/3/3 209/3/3
f 213/1/3 212/1/3 211/1/3
f 214/1/3 212/1/3 213/1/3
f 217/3/3 216/3/3 215/3/3
f 218/3/3 216/3/3 217/3/3
f 220/4/3 219/4/3 218/4/3
f 221/4/3 219/4/3 220/4/3
f 224/3/3 223/3/3 222/3/3
f 225/3/3 223/3/3 224/3/3
f 228/2/3 227/2/3 226/2/3
f 229/2/3 227/2/3 228/2/3
f 232/3/3 231/3/3 230/3/3
f 233/3/3 231/3/3 232/3/3
f 237/3/3 235/3/3 234/3/3
f 238/3/3 235/3/3 237/3/3
f 239/4/3 237/4/3 236/4/3
f 239/4/3 238/4/3 237/4/3
f 240/4/3 238/4/3 239/4/3
f 242/3/3 240/3/3 239/3/3
f 243/2/3 241/2/3 240/2/3
f 243/3/3 240/3/3 242/3/3
f 244/2/3 241/2/3 243/2/3
f 245/4/3 243/4/3 242/4/3
f 246/4/3 243/4/3 245/4/3
f 247/4/3 243/4/3 246/4/3
f 248/3/3 247/3/3 246/3/3
f 249/3/3 247/3/3 248/3/3
f 250/3/4 251/3/4 253/3/4
f 253/3/4 251/3/4 254/3/4
f 252/3/4 253/3/4 254/3/4
f 252/3/4 254/3/4 256/3/4
f 254/2/4 255/2/4 257/2/4
f 256/3/4 254/3/4 257/3/4
f 257/2/4 255/2/4 258/2/4
f 256/4/4 257/4/4 259/4/4
f 259/4/4 257/4/4 260/4/4
f 260/4/4 257/4/4 261/4/4
f 260/3/4 261/3/4 262/3/4
f 262/3/4 261/3/4 263/3/4
f 264/3/4 265/3/4 266/3/4
f 266/3/4 265/3/4 267/3/4
f 268/2/4 269/2/4 270/2/4
f 270/2/4 269/2/4 271/2/4
f 272/3/4 273/3/4 274/3/4
f 274/3/4 273/3/4 275/3/4
f 276/4/4 277/4/4 279/4/4
f 279/4/4 277/4/4 280/4/4
f 278/3/4 279/3/4 281/3/4
f 281/3/4 279/3/4 282/3/4
f 283/1/4 284/1/4 285/1/4
f 285/1/4 284/1/4 286/1/4
f 287/3/4 288/3/4 289/3/4
f 289/3/4 288/3/4 290/3/4
f 290/4/4 291/4/4 292/4/4
f 292/4/4 291/4/4 293/4/4
f 294/3/4 295/3/4 297/3/4
f 297/3/4 295/3/4 298/3/4
f 296/3/4 297/3/4 300/3/4
f 300/3/4 297/3/4 301/3/4
f 299/3/4 300/3/4 302/3/4
f 299/3/4 302/3/4 305/3/4
f 303/2/4 304/2/4 306/2/4
f 306/2/4 304/2/4 307/2/4
f 299/3/4 305/3/4 308/3/4
f 308/3/4 305/3/4 309/3/4
f 309/3/4 310/3/4 311/3/4
f 311/3/4 310/3/4 312/3/4
f 312/3/4 313/3/4 314/3/4
f 314/3/4 313/3/4 315/3/4
f 316/3/4 317/3/4 319/3/4
f 319/3/4 317/3/4 320/3/4
f 318/4/4 319/4/4 321/4/4
f 319/4/4 320/4/4 321/4/4
f 321/4/4 320/4/4 322/4/4
f 321/3/4 322/3/4 324/3/4
f 322/2/4 323/2/4 325/2/4
f 324/3/4 322/3/4 325/3/4
f 325/2/4 323/2/4 326/2/4
f 324/4/4 325/4/4 327/4/4
f 327/4/4 325/4/4 328/4/4
f 328/4/4 325/4/4 329/4/4
f 328/3/4 329/3/4 330/3/4
f 330/3/4 329/3/4 331/3/4
f 335/3/5 333/3/5 332/3/5
f 336/3/5 333/3/5 335/3/5
f 338/3/5 335/3/5 334/3/5
f 338/3/5 337/3/5 336/3/5
f 338/3/5 336/3/5 335/3/5
f 339/3/5 337/3/5 338/3/5
f 340/3/5 337/3/5 339/3/5
f 341/3/5 337/3/5 340/3/5
f 342/3/5 340/3/5 339/3/5
f 343/3/5 340/3/5 342/3/5
f 348/3/5 345/3/5 344/3/5
f 349/4/5 346/4/5 345/4/5
f 349/3/5 345/3/5 348/3/5
f 350/4/5 346/4/5 349/4/5
f 353/3/5 348/3/5 347/3/5
f 354/3/5 348/3/5 353/3/5
f 355/3/5 351/3/5 350/3/5
f 356/3/5 351/3/5 355/3/5
f 358/4/5 353/4/5 352/4/5
f 359/4/5 353/4/5 358/4/5
f 360/4/5 357/4/5 356/4/5
f 361/4/5 357/4/5 360/4/5
f 362/3/5 359/3/5 358/3/5
f 363/3/5 359/3/5 362/3/5
f 364/3/5 361/3/5 360/3/5
f 365/3/5 361/3/5 364/3/5
f 366/4/5 363/4/5 362/4/5
f 367/4/5 363/4/5 366/4/5
f 370/4/5 365/4/5 364/4/5
f 371/4/5 365/4/5 370/4/5
f 372/3/5 368/3/5 367/3/5
f 373/3/5 368/3/5 372/3/5
f 376/3/5 370/3/5 369/3/5
f 377/3/5 370/3/5 376/3/5
f 378/4/5 374/4/5 373/4/5
f 379/3/5 375/3/5 374/3/5
f 379/4/5 374/4/5 378/4/5
f 380/4/5 376/4/5 375/4/5
f 380/3/5 375/3/5 379/3/5
f 381/4/5 376/4/5 380/4/5
f 387/3/5 383/3/5 382/3/5
f 388/3/5 383/3/5 387/3/5
f 389/3/5 385/3/5 384/3/5
f 390/3/5 385/3/5 389/3/5
f 392/3/5 387/3/5 386/3/5
f 393/3/5 387/3/5 392/3/5
f 394/3/5 391/3/5 390/3/5
f 395/3/5 391/3/5 394/3/5
f 400/3/5 397/3/5 396/3/5
f 401/3/5 397/3/5 400/3/5
f 404/3/5 399/3/5 398/3/5
f 405/3/5 399/3/5 404/3/5
f 406/3/5 402/3/5 401/3/5
f 407/3/5 402/3/5 406/3/5
f 408/3/5 404/3/5 403/3/5
f 409/3/5 404/3/5 408/3/5
f 412/2/5 411/2/5 410/2/5
f 413/2/5 411/2/5 412/2/5
f 416/2/5 415/2/5 414/2/5
f 417/2/5 415/2/5 416/2/5
f 420/1/5 419/1/5 418/1/5
f 421/1/5 419/1/5 420/1/5
f 422/3/6 423/3/6 426/3/6
f 423/3/6 424/3/6 426/3/6
f 426/3/6 424/3/6 427/3/6
f 425/3/6 426/3/6 429/3/6
f 427/3/6 428/3/6 429/3/6
f 426/3/6 427/3/6 429/3/6
f 429/3/6 428/3/6 430/3/6
f 429/3/6 430/3/6 431/3/6
f 431/3/6 430/3/6 432/3/6
f 431/3/6 432/3/6 433/3/6
f 433/3/6 432/3/6 434/3/6
f 434/3/6 432/3/6 435/3/6
f 435/3/6 432/3/6 436/3/6
f 434/3/6 435/3/6 437/3/6
f 437/3/6 435/3/6 438/3/6
f 438/3/6 435/3/6 439/3/6
f 439/3/6 435/3/6 440/3/6
f 441/3/6 442/3/6 445/3/6
f 445/3/6 442/3/6 446/3/6
f 443/3/6 444/3/6 447/3/6
f 447/3/6 444/3/6 448/3/6
f 449/3/6 450/3/6 453/3/6
f 453/3/6 450/3/6 454/3/6
f 451/3/6 452/3/6 455/3/6
f 455/3/6 452/3/6 456/3/6
f 457/3/6 458/3/6 463/3/6
f 463/3/6 458/3/6 464/3/6
f 459/4/6 460/4/6 465/4/6
f 460/3/6 461/3/6 466/3/6
f 465/4/6 460/4/6 466/4/6
f 466/3/6 461/3/6 467/3/6
f 462/3/6 463/3/6 469/3/6
f 469/3/6 463/3/6 470/3/6
f 467/3/6 468/3/6 471/3/6
f 471/3/6 468/3/6 472/3/6
f 469/4/6 470/4/6 473/4/6
f 473/4/6 470/4/6 474/4/6
f 471/4/6 472/4/6 475/4/6
f 475/4/6 472/4/6 476/4/6
f 473/3/6 474/3/6 477/3/6
f 477/3/6 474/3/6 478/3/6
f 475/3/6 476/3/6 479/3/6
f 479/3/6 476/3/6 480/3/6
f 477/4/6 478/4/6 481/4/6
f 481/4/6 478/4/6 482/4/6
f 479/4/6 480/4/6 483/4/6
f 483/4/6 480/4/6 484/4/6
f 481/3/6 482/3/6 485/3/6
f 485/3/6 482/3/6 486/3/6
f 483/3/6 484/3/6 491/3/6
f 491/3/6 484/3/6 492/3/6
f 486/3/6 487/3/6 493/3/6
f 487/4/6 488/4/6 494/4/6
f 493/3/6 487/3/6 494/3/6
f 494/4/6 488/4/6 495/4/6
f 489/4/6 490/4/6 496/4/6
f 490/3/6 491/3/6 497/3/6
f 496/4/6 490/4/6 497/4/6
f 497/3/6 491/3/6 498/3/6
f 499/2/6 500/2/6 501/2/6
f 501/2/6 500/2/6 502/2/6
f 503/2/6 504/2/6 505/2/6
f 505/2/6 504/2/6 506/2/6
f 507/2/6 508/2/6 509/2/6
f 509/2/6 508/2/6 510/2/6
f 511/2/6 512/2/6 513/2/6
f 513/2/6 512/2/6 514/2/6
f 515/1/6 516/1/6 517/1/6
f 517/1/6 516/1/6 518/1/6
