# MagicaVoxel @ Ephtracy

# group
o Training - Range Target Target

# material
mtllib Medieval Assets-135-Training - Range Target Target.mtl
usemtl palette

# normals
vn 0 -1 0
vn 0 1 0
vn 0 0 1
vn 0 0 -1
vn 1 0 0
vn -1 0 0

# texcoords
vt 0.0800781 0.5
vt 0.126953 0.5
vt 0.130859 0.5
vt 0.162109 0.5

# verts
v -28.6 0 -7.3
v -28.6 0 -7.4
v -29.1 0 -7.3
v -29.1 0 -7.4
v -28.5 0.1 -7.3
v -28.5 0.1 -7.4
v -28.6 0.1 -7.3
v -28.6 0.1 -7.4
v -29.1 0.1 -7.3
v -29.1 0.1 -7.4
v -29.2 0.1 -7.3
v -29.2 0.1 -7.4
v -28.4 0.2 -7.3
v -28.4 0.2 -7.4
v -28.5 0.2 -7.2
v -28.5 0.2 -7.3
v -28.5 0.2 -7.4
v -28.6 0.2 -7.2
v -28.6 0.2 -7.3
v -28.7 0.2 -7.2
v -28.7 0.2 -7.3
v -29 0.2 -7.2
v -29 0.2 -7.3
v -29.1 0.2 -7.2
v -29.1 0.2 -7.3
v -29.2 0.2 -7.2
v -29.2 0.2 -7.3
v -29.2 0.2 -7.4
v -29.3 0.2 -7.3
v -29.3 0.2 -7.4
v -28.3 0.3 -7.3
v -28.3 0.3 -7.4
v -28.4 0.3 -7.2
v -28.4 0.3 -7.3
v -28.4 0.3 -7.4
v -28.5 0.3 -7.2
v -28.5 0.3 -7.3
v -29.2 0.3 -7.2
v -29.2 0.3 -7.3
v -29.3 0.3 -7.2
v -29.3 0.3 -7.3
v -29.3 0.3 -7.4
v -29.4 0.3 -7.3
v -29.4 0.3 -7.4
v -28.2 0.4 -7.3
v -28.2 0.4 -7.4
v -28.3 0.4 -7.2
v -28.3 0.4 -7.3
v -28.3 0.4 -7.4
v -28.4 0.4 -7.2
v -28.4 0.4 -7.3
v -29.3 0.4 -7.2
v -29.3 0.4 -7.3
v -29.4 0.4 -7.2
v -29.4 0.4 -7.3
v -29.4 0.4 -7.4
v -29.5 0.4 -7.3
v -29.5 0.4 -7.4
v -28.2 1.1 -7.3
v -28.2 1.1 -7.4
v -28.3 1.1 -7.2
v -28.3 1.1 -7.3
v -28.3 1.1 -7.4
v -28.4 1.1 -7.2
v -28.4 1.1 -7.3
v -29.3 1.1 -7.2
v -29.3 1.1 -7.3
v -29.4 1.1 -7.2
v -29.4 1.1 -7.3
v -29.4 1.1 -7.4
v -29.5 1.1 -7.3
v -29.5 1.1 -7.4
v -28.3 1.2 -7.3
v -28.3 1.2 -7.4
v -28.4 1.2 -7.2
v -28.4 1.2 -7.3
v -28.4 1.2 -7.4
v -28.5 1.2 -7.2
v -28.5 1.2 -7.3
v -29.2 1.2 -7.2
v -29.2 1.2 -7.3
v -29.3 1.2 -7.2
v -29.3 1.2 -7.3
v -29.3 1.2 -7.4
v -29.4 1.2 -7.3
v -29.4 1.2 -7.4
v -28.4 1.3 -7.3
v -28.4 1.3 -7.4
v -28.5 1.3 -7.2
v -28.5 1.3 -7.3
v -28.5 1.3 -7.4
v -28.8 1.3 -7.3
v -28.9 1.3 -7.3
v -29.2 1.3 -7.2
v -29.2 1.3 -7.3
v -29.2 1.3 -7.4
v -29.3 1.3 -7.3
v -29.3 1.3 -7.4
v -28.5 1.4 -7.3
v -28.5 1.4 -7.4
v -28.8 1.4 -7.3
v -28.8 1.4 -7.4
v -28.9 1.4 -7.3
v -28.9 1.4 -7.4
v -29.2 1.4 -7.3
v -29.2 1.4 -7.4
v -28.5 0.2 -7.2
v -28.6 0.2 -7.2
v -28.7 0.2 -7.2
v -29 0.2 -7.2
v -29.1 0.2 -7.2
v -29.2 0.2 -7.2
v -28.4 0.3 -7.2
v -28.5 0.3 -7.2
v -28.6 0.3 -7.2
v -28.7 0.3 -7.2
v -29 0.3 -7.2
v -29.1 0.3 -7.2
v -29.2 0.3 -7.2
v -29.3 0.3 -7.2
v -28.3 0.4 -7.2
v -28.4 0.4 -7.2
v -28.5 0.4 -7.2
v -28.6 0.4 -7.2
v -28.7 0.4 -7.2
v -28.8 0.4 -7.2
v -28.9 0.4 -7.2
v -29 0.4 -7.2
v -29.1 0.4 -7.2
v -29.2 0.4 -7.2
v -29.3 0.4 -7.2
v -29.4 0.4 -7.2
v -28.4 0.5 -7.2
v -28.5 0.5 -7.2
v -28.6 0.5 -7.2
v -28.7 0.5 -7.2
v -28.8 0.5 -7.2
v -28.9 0.5 -7.2
v -29 0.5 -7.2
v -29.1 0.5 -7.2
v -29.2 0.5 -7.2
v -29.3 0.5 -7.2
v -28.6 0.6 -7.2
v -28.7 0.6 -7.2
v -28.8 0.6 -7.2
v -28.9 0.6 -7.2
v -29 0.6 -7.2
v -29.1 0.6 -7.2
v -28.6 0.7 -7.2
v -28.7 0.7 -7.2
v -29 0.7 -7.2
v -29.1 0.7 -7.2
v -28.7 0.8 -7.2
v -28.8 0.8 -7.2
v -28.9 0.8 -7.2
v -29 0.8 -7.2
v -28.5 0.9 -7.2
v -28.6 0.9 -7.2
v -28.7 0.9 -7.2
v -28.8 0.9 -7.2
v -28.9 0.9 -7.2
v -29 0.9 -7.2
v -29.1 0.9 -7.2
v -29.2 0.9 -7.2
v -28.5 1 -7.2
v -28.6 1 -7.2
v -28.7 1 -7.2
v -28.8 1 -7.2
v -28.9 1 -7.2
v -29 1 -7.2
v -29.1 1 -7.2
v -29.2 1 -7.2
v -28.3 1.1 -7.2
v -28.4 1.1 -7.2
v -28.5 1.1 -7.2
v -28.7 1.1 -7.2
v -29 1.1 -7.2
v -29.2 1.1 -7.2
v -29.3 1.1 -7.2
v -29.4 1.1 -7.2
v -28.4 1.2 -7.2
v -28.5 1.2 -7.2
v -29.2 1.2 -7.2
v -29.3 1.2 -7.2
v -28.5 1.3 -7.2
v -29.2 1.3 -7.2
v -28.6 0 -7.3
v -29.1 0 -7.3
v -28.5 0.1 -7.3
v -28.6 0.1 -7.3
v -29.1 0.1 -7.3
v -29.2 0.1 -7.3
v -28.4 0.2 -7.3
v -28.5 0.2 -7.3
v -28.6 0.2 -7.3
v -28.7 0.2 -7.3
v -29 0.2 -7.3
v -29.1 0.2 -7.3
v -29.2 0.2 -7.3
v -29.3 0.2 -7.3
v -28.3 0.3 -7.3
v -28.4 0.3 -7.3
v -28.5 0.3 -7.3
v -29.2 0.3 -7.3
v -29.3 0.3 -7.3
v -29.4 0.3 -7.3
v -28.2 0.4 -7.3
v -28.3 0.4 -7.3
v -28.4 0.4 -7.3
v -29.3 0.4 -7.3
v -29.4 0.4 -7.3
v -29.5 0.4 -7.3
v -28.2 0.7 -7.3
v -28.3 0.7 -7.3
v -29.4 0.7 -7.3
v -29.5 0.7 -7.3
v -28.2 0.8 -7.3
v -28.3 0.8 -7.3
v -29.4 0.8 -7.3
v -29.5 0.8 -7.3
v -28.2 1.1 -7.3
v -28.3 1.1 -7.3
v -28.4 1.1 -7.3
v -29.3 1.1 -7.3
v -29.4 1.1 -7.3
v -29.5 1.1 -7.3
v -28.3 1.2 -7.3
v -28.4 1.2 -7.3
v -28.5 1.2 -7.3
v -29.2 1.2 -7.3
v -29.3 1.2 -7.3
v -29.4 1.2 -7.3
v -28.4 1.3 -7.3
v -28.5 1.3 -7.3
v -28.8 1.3 -7.3
v -28.9 1.3 -7.3
v -29.2 1.3 -7.3
v -29.3 1.3 -7.3
v -28.5 1.4 -7.3
v -28.8 1.4 -7.3
v -28.9 1.4 -7.3
v -29.2 1.4 -7.3
v -28.6 0 -7.4
v -29.1 0 -7.4
v -28.5 0.1 -7.4
v -28.6 0.1 -7.4
v -29.1 0.1 -7.4
v -29.2 0.1 -7.4
v -28.4 0.2 -7.4
v -28.5 0.2 -7.4
v -28.6 0.2 -7.4
v -29.1 0.2 -7.4
v -29.2 0.2 -7.4
v -29.3 0.2 -7.4
v -28.3 0.3 -7.4
v -28.4 0.3 -7.4
v -29.3 0.3 -7.4
v -29.4 0.3 -7.4
v -28.2 0.4 -7.4
v -28.3 0.4 -7.4
v -29.4 0.4 -7.4
v -29.5 0.4 -7.4
v -28.2 0.7 -7.4
v -28.3 0.7 -7.4
v -29.4 0.7 -7.4
v -29.5 0.7 -7.4
v -28.2 0.8 -7.4
v -28.3 0.8 -7.4
v -29.4 0.8 -7.4
v -29.5 0.8 -7.4
v -28.2 1.1 -7.4
v -28.3 1.1 -7.4
v -29.4 1.1 -7.4
v -29.5 1.1 -7.4
v -28.3 1.2 -7.4
v -28.4 1.2 -7.4
v -29.3 1.2 -7.4
v -29.4 1.2 -7.4
v -28.4 1.3 -7.4
v -28.5 1.3 -7.4
v -28.8 1.3 -7.4
v -28.9 1.3 -7.4
v -29.2 1.3 -7.4
v -29.3 1.3 -7.4
v -28.5 1.4 -7.4
v -28.8 1.4 -7.4
v -28.9 1.4 -7.4
v -29.2 1.4 -7.4
v -28.2 0.4 -7.3
v -28.2 0.7 -7.3
v -28.2 0.8 -7.3
v -28.2 1.1 -7.3
v -28.2 0.4 -7.4
v -28.2 0.7 -7.4
v -28.2 0.8 -7.4
v -28.2 1.1 -7.4
v -28.3 0.4 -7.2
v -28.3 1.1 -7.2
v -28.3 0.3 -7.3
v -28.3 0.4 -7.3
v -28.3 0.7 -7.3
v -28.3 0.8 -7.3
v -28.3 1.1 -7.3
v -28.3 1.2 -7.3
v -28.3 0.3 -7.4
v -28.3 0.4 -7.4
v -28.3 1.1 -7.4
v -28.3 1.2 -7.4
v -28.4 0.3 -7.2
v -28.4 0.4 -7.2
v -28.4 1.1 -7.2
v -28.4 1.2 -7.2
v -28.4 0.2 -7.3
v -28.4 0.3 -7.3
v -28.4 0.4 -7.3
v -28.4 1.1 -7.3
v -28.4 1.2 -7.3
v -28.4 1.3 -7.3
v -28.4 0.2 -7.4
v -28.4 0.3 -7.4
v -28.4 1.2 -7.4
v -28.4 1.3 -7.4
v -28.5 0.2 -7.2
v -28.5 0.3 -7.2
v -28.5 1.2 -7.2
v -28.5 1.3 -7.2
v -28.5 0.1 -7.3
v -28.5 0.2 -7.3
v -28.5 0.3 -7.3
v -28.5 1.2 -7.3
v -28.5 1.3 -7.3
v -28.5 1.4 -7.3
v -28.5 0.1 -7.4
v -28.5 0.2 -7.4
v -28.5 1.3 -7.4
v -28.5 1.4 -7.4
v -28.6 0 -7.3
v -28.6 0.1 -7.3
v -28.6 0 -7.4
v -28.6 0.1 -7.4
v -29.1 0 -7.3
v -29.1 0.1 -7.3
v -29.1 0 -7.4
v -29.1 0.1 -7.4
v -29.2 0.2 -7.2
v -29.2 0.3 -7.2
v -29.2 1.2 -7.2
v -29.2 1.3 -7.2
v -29.2 0.1 -7.3
v -29.2 0.2 -7.3
v -29.2 0.3 -7.3
v -29.2 1.2 -7.3
v -29.2 1.3 -7.3
v -29.2 1.4 -7.3
v -29.2 0.1 -7.4
v -29.2 0.2 -7.4
v -29.2 1.3 -7.4
v -29.2 1.4 -7.4
v -29.3 0.3 -7.2
v -29.3 0.4 -7.2
v -29.3 1.1 -7.2
v -29.3 1.2 -7.2
v -29.3 0.2 -7.3
v -29.3 0.3 -7.3
v -29.3 0.4 -7.3
v -29.3 1.1 -7.3
v -29.3 1.2 -7.3
v -29.3 1.3 -7.3
v -29.3 0.2 -7.4
v -29.3 0.3 -7.4
v -29.3 1.2 -7.4
v -29.3 1.3 -7.4
v -29.4 0.4 -7.2
v -29.4 1.1 -7.2
v -29.4 0.3 -7.3
v -29.4 0.4 -7.3
v -29.4 0.7 -7.3
v -29.4 0.8 -7.3
v -29.4 1.1 -7.3
v -29.4 1.2 -7.3
v -29.4 0.3 -7.4
v -29.4 0.4 -7.4
v -29.4 1.1 -7.4
v -29.4 1.2 -7.4
v -29.5 0.4 -7.3
v -29.5 0.7 -7.3
v -29.5 0.8 -7.3
v -29.5 1.1 -7.3
v -29.5 0.4 -7.4
v -29.5 0.7 -7.4
v -29.5 0.8 -7.4
v -29.5 1.1 -7.4

# faces
f 3/2/1 2/2/1 1/2/1
f 4/2/1 2/2/1 3/2/1
f 7/2/1 6/2/1 5/2/1
f 8/2/1 6/2/1 7/2/1
f 11/2/1 10/2/1 9/2/1
f 12/2/1 10/2/1 11/2/1
f 16/2/1 14/2/1 13/2/1
f 17/2/1 14/2/1 16/2/1
f 18/4/1 16/4/1 15/4/1
f 19/4/1 16/4/1 18/4/1
f 20/3/1 19/3/1 18/3/1
f 21/3/1 19/3/1 20/3/1
f 22/2/1 21/2/1 20/2/1
f 23/2/1 21/2/1 22/2/1
f 24/3/1 23/3/1 22/3/1
f 25/3/1 23/3/1 24/3/1
f 26/4/1 25/4/1 24/4/1
f 27/4/1 25/4/1 26/4/1
f 29/2/1 28/2/1 27/2/1
f 30/2/1 28/2/1 29/2/1
f 34/2/1 32/2/1 31/2/1
f 35/2/1 32/2/1 34/2/1
f 36/4/1 34/4/1 33/4/1
f 37/4/1 34/4/1 36/4/1
f 40/4/1 39/4/1 38/4/1
f 41/4/1 39/4/1 40/4/1
f 43/2/1 42/2/1 41/2/1
f 44/2/1 42/2/1 43/2/1
f 48/2/1 46/2/1 45/2/1
f 49/2/1 46/2/1 48/2/1
f 50/4/1 48/4/1 47/4/1
f 51/4/1 48/4/1 50/4/1
f 54/4/1 53/4/1 52/4/1
f 55/4/1 53/4/1 54/4/1
f 57/2/1 56/2/1 55/2/1
f 58/2/1 56/2/1 57/2/1
f 59/2/2 60/2/2 62/2/2
f 62/2/2 60/2/2 63/2/2
f 61/4/2 62/4/2 64/4/2
f 64/4/2 62/4/2 65/4/2
f 66/4/2 67/4/2 68/4/2
f 68/4/2 67/4/2 69/4/2
f 69/2/2 70/2/2 71/2/2
f 71/2/2 70/2/2 72/2/2
f 73/2/2 74/2/2 76/2/2
f 76/2/2 74/2/2 77/2/2
f 75/4/2 76/4/2 78/4/2
f 78/4/2 76/4/2 79/4/2
f 80/4/2 81/4/2 82/4/2
f 82/4/2 81/4/2 83/4/2
f 83/2/2 84/2/2 85/2/2
f 85/2/2 84/2/2 86/2/2
f 87/2/2 88/2/2 90/2/2
f 90/2/2 88/2/2 91/2/2
f 89/4/2 90/4/2 92/4/2
f 89/4/2 92/4/2 93/4/2
f 89/4/2 93/4/2 94/4/2
f 94/4/2 93/4/2 95/4/2
f 95/2/2 96/2/2 97/2/2
f 97/2/2 96/2/2 98/2/2
f 99/2/2 100/2/2 101/2/2
f 101/2/2 100/2/2 102/2/2
f 101/3/2 102/3/2 103/3/2
f 103/3/2 102/3/2 104/3/2
f 103/2/2 104/2/2 105/2/2
f 105/2/2 104/2/2 106/2/2
f 114/4/3 108/4/3 107/4/3
f 115/3/3 109/3/3 108/3/3
f 115/4/3 108/4/3 114/4/3
f 116/2/3 110/2/3 109/2/3
f 116/3/3 109/3/3 115/3/3
f 117/3/3 111/3/3 110/3/3
f 117/2/3 110/2/3 116/2/3
f 118/4/3 112/4/3 111/4/3
f 118/3/3 111/3/3 117/3/3
f 119/4/3 112/4/3 118/4/3
f 122/4/3 114/4/3 113/4/3
f 123/2/3 115/2/3 114/2/3
f 123/2/3 116/2/3 115/2/3
f 123/4/3 114/4/3 122/4/3
f 124/2/3 116/2/3 123/2/3
f 125/4/3 117/4/3 116/4/3
f 125/2/3 116/2/3 124/2/3
f 126/4/3 117/4/3 125/4/3
f 127/4/3 117/4/3 126/4/3
f 128/2/3 118/2/3 117/2/3
f 128/4/3 117/4/3 127/4/3
f 128/2/3 119/2/3 118/2/3
f 129/2/3 119/2/3 128/2/3
f 130/4/3 120/4/3 119/4/3
f 130/2/3 119/2/3 129/2/3
f 131/4/3 120/4/3 130/4/3
f 133/4/3 122/4/3 121/4/3
f 133/2/3 123/2/3 122/2/3
f 134/3/3 124/3/3 123/3/3
f 134/2/3 123/2/3 133/2/3
f 135/4/3 125/4/3 124/4/3
f 135/3/3 124/3/3 134/3/3
f 136/2/3 126/2/3 125/2/3
f 136/4/3 125/4/3 135/4/3
f 137/3/3 127/3/3 126/3/3
f 137/2/3 126/2/3 136/2/3
f 138/2/3 128/2/3 127/2/3
f 138/3/3 127/3/3 137/3/3
f 139/4/3 129/4/3 128/4/3
f 139/2/3 128/2/3 138/2/3
f 140/3/3 130/3/3 129/3/3
f 140/4/3 129/4/3 139/4/3
f 141/2/3 131/2/3 130/2/3
f 141/3/3 130/3/3 140/3/3
f 142/4/3 132/4/3 131/4/3
f 142/2/3 131/2/3 141/2/3
f 143/2/3 136/2/3 135/2/3
f 143/4/3 135/4/3 134/4/3
f 143/2/3 137/2/3 136/2/3
f 144/2/3 137/2/3 143/2/3
f 145/1/3 138/1/3 137/1/3
f 145/2/3 137/2/3 144/2/3
f 146/2/3 140/2/3 139/2/3
f 146/1/3 138/1/3 145/1/3
f 146/2/3 139/2/3 138/2/3
f 147/2/3 140/2/3 146/2/3
f 148/4/3 141/4/3 140/4/3
f 148/2/3 140/2/3 147/2/3
f 149/3/3 144/3/3 143/3/3
f 149/4/3 143/4/3 134/4/3
f 150/1/3 147/1/3 146/1/3
f 150/3/3 144/3/3 149/3/3
f 150/1/3 145/1/3 144/1/3
f 150/1/3 146/1/3 145/1/3
f 151/3/3 148/3/3 147/3/3
f 151/1/3 147/1/3 150/1/3
f 152/4/3 141/4/3 148/4/3
f 152/3/3 148/3/3 151/3/3
f 153/1/3 151/1/3 150/1/3
f 153/2/3 150/2/3 149/2/3
f 154/1/3 151/1/3 153/1/3
f 155/1/3 151/1/3 154/1/3
f 156/2/3 152/2/3 151/2/3
f 156/1/3 151/1/3 155/1/3
f 157/4/3 149/4/3 134/4/3
f 157/3/3 134/3/3 133/3/3
f 158/2/3 153/2/3 149/2/3
f 158/4/3 149/4/3 157/4/3
f 158/2/3 154/2/3 153/2/3
f 159/2/3 154/2/3 158/2/3
f 160/1/3 155/1/3 154/1/3
f 160/2/3 154/2/3 159/2/3
f 161/2/3 156/2/3 155/2/3
f 161/1/3 155/1/3 160/1/3
f 162/2/3 152/2/3 156/2/3
f 162/2/3 156/2/3 161/2/3
f 163/4/3 141/4/3 152/4/3
f 163/2/3 152/2/3 162/2/3
f 164/3/3 142/3/3 141/3/3
f 164/4/3 141/4/3 163/4/3
f 165/3/3 157/3/3 133/3/3
f 165/2/3 158/2/3 157/2/3
f 166/4/3 159/4/3 158/4/3
f 166/2/3 158/2/3 165/2/3
f 167/2/3 160/2/3 159/2/3
f 167/4/3 159/4/3 166/4/3
f 168/3/3 161/3/3 160/3/3
f 168/2/3 160/2/3 167/2/3
f 169/2/3 162/2/3 161/2/3
f 169/3/3 161/3/3 168/3/3
f 170/4/3 163/4/3 162/4/3
f 170/2/3 162/2/3 169/2/3
f 171/2/3 164/2/3 163/2/3
f 171/4/3 163/4/3 170/4/3
f 172/3/3 142/3/3 164/3/3
f 172/2/3 164/2/3 171/2/3
f 173/4/3 133/4/3 121/4/3
f 174/3/3 167/3/3 166/3/3
f 174/4/3 133/4/3 173/4/3
f 174/3/3 165/3/3 133/3/3
f 174/3/3 166/3/3 165/3/3
f 175/3/3 167/3/3 174/3/3
f 176/4/3 168/4/3 167/4/3
f 176/3/3 167/3/3 175/3/3
f 176/4/3 169/4/3 168/4/3
f 176/4/3 170/4/3 169/4/3
f 177/3/3 172/3/3 171/3/3
f 177/4/3 170/4/3 176/4/3
f 177/3/3 171/3/3 170/3/3
f 178/3/3 142/3/3 172/3/3
f 178/3/3 172/3/3 177/3/3
f 179/4/3 132/4/3 142/4/3
f 179/3/3 142/3/3 178/3/3
f 180/4/3 132/4/3 179/4/3
f 181/4/3 175/4/3 174/4/3
f 182/3/3 177/3/3 176/3/3
f 182/4/3 175/4/3 181/4/3
f 182/3/3 178/3/3 177/3/3
f 182/3/3 176/3/3 175/3/3
f 183/4/3 179/4/3 178/4/3
f 183/3/3 178/3/3 182/3/3
f 184/4/3 179/4/3 183/4/3
f 185/4/3 183/4/3 182/4/3
f 186/4/3 183/4/3 185/4/3
f 190/2/3 188/2/3 187/2/3
f 191/2/3 188/2/3 190/2/3
f 194/2/3 190/2/3 189/2/3
f 195/4/3 191/4/3 190/4/3
f 195/2/3 190/2/3 194/2/3
f 196/4/3 191/4/3 195/4/3
f 197/4/3 191/4/3 196/4/3
f 198/2/3 192/2/3 191/2/3
f 198/4/3 191/4/3 197/4/3
f 199/2/3 192/2/3 198/2/3
f 202/2/3 194/2/3 193/2/3
f 203/2/3 194/2/3 202/2/3
f 204/2/3 200/2/3 199/2/3
f 205/2/3 200/2/3 204/2/3
f 208/2/3 202/2/3 201/2/3
f 209/2/3 202/2/3 208/2/3
f 210/2/3 206/2/3 205/2/3
f 211/2/3 206/2/3 210/2/3
f 213/2/3 208/2/3 207/2/3
f 214/2/3 208/2/3 213/2/3
f 215/2/3 212/2/3 211/2/3
f 216/2/3 212/2/3 215/2/3
f 217/3/3 214/3/3 213/3/3
f 218/3/3 214/3/3 217/3/3
f 219/3/3 216/3/3 215/3/3
f 220/3/3 216/3/3 219/3/3
f 221/2/3 218/2/3 217/2/3
f 222/2/3 218/2/3 221/2/3
f 225/2/3 220/2/3 219/2/3
f 226/2/3 220/2/3 225/2/3
f 227/2/3 223/2/3 222/2/3
f 228/2/3 223/2/3 227/2/3
f 231/2/3 225/2/3 224/2/3
f 232/2/3 225/2/3 231/2/3
f 233/2/3 229/2/3 228/2/3
f 234/2/3 229/2/3 233/2/3
f 237/2/3 231/2/3 230/2/3
f 238/2/3 231/2/3 237/2/3
f 239/2/3 235/2/3 234/2/3
f 240/3/3 236/3/3 235/3/3
f 240/2/3 235/2/3 239/2/3
f 241/2/3 237/2/3 236/2/3
f 241/3/3 236/3/3 240/3/3
f 242/2/3 237/2/3 241/2/3
f 243/2/4 244/2/4 246/2/4
f 246/2/4 244/2/4 247/2/4
f 245/2/4 246/2/4 250/2/4
f 246/4/4 247/4/4 251/4/4
f 250/2/4 246/2/4 251/2/4
f 247/2/4 248/2/4 252/2/4
f 251/4/4 247/4/4 252/4/4
f 252/2/4 248/2/4 253/2/4
f 250/2/4 251/2/4 256/2/4
f 253/2/4 254/2/4 256/2/4
f 252/2/4 253/2/4 256/2/4
f 251/2/4 252/2/4 256/2/4
f 249/2/4 250/2/4 256/2/4
f 256/2/4 254/2/4 257/2/4
f 255/2/4 256/2/4 260/2/4
f 257/2/4 258/2/4 260/2/4
f 256/2/4 257/2/4 260/2/4
f 260/2/4 258/2/4 261/2/4
f 259/2/4 260/2/4 263/2/4
f 261/2/4 262/2/4 263/2/4
f 260/2/4 261/2/4 263/2/4
f 263/2/4 262/2/4 264/2/4
f 264/2/4 262/2/4 265/2/4
f 265/2/4 262/2/4 266/2/4
f 263/3/4 264/3/4 267/3/4
f 264/2/4 265/2/4 268/2/4
f 267/3/4 264/3/4 268/3/4
f 265/3/4 266/3/4 269/3/4
f 268/2/4 265/2/4 269/2/4
f 269/3/4 266/3/4 270/3/4
f 267/2/4 268/2/4 271/2/4
f 268/2/4 269/2/4 271/2/4
f 269/2/4 270/2/4 271/2/4
f 271/2/4 270/2/4 272/2/4
f 272/2/4 270/2/4 273/2/4
f 273/2/4 270/2/4 274/2/4
f 272/2/4 273/2/4 275/2/4
f 275/2/4 273/2/4 276/2/4
f 276/2/4 273/2/4 277/2/4
f 277/2/4 273/2/4 278/2/4
f 276/2/4 277/2/4 279/2/4
f 279/2/4 277/2/4 280/2/4
f 280/2/4 277/2/4 281/2/4
f 281/2/4 277/2/4 282/2/4
f 282/2/4 277/2/4 283/2/4
f 283/2/4 277/2/4 284/2/4
f 280/2/4 281/2/4 285/2/4
f 281/3/4 282/3/4 286/3/4
f 285/2/4 281/2/4 286/2/4
f 282/2/4 283/2/4 287/2/4
f 286/3/4 282/3/4 287/3/4
f 287/2/4 283/2/4 288/2/4
f 293/2/5 290/2/5 289/2/5
f 294/3/5 291/3/5 290/3/5
f 294/2/5 290/2/5 293/2/5
f 295/2/5 292/2/5 291/2/5
f 295/3/5 291/3/5 294/3/5
f 296/2/5 292/2/5 295/2/5
f 300/4/5 298/4/5 297/4/5
f 301/4/5 298/4/5 300/4/5
f 302/4/5 298/4/5 301/4/5
f 303/4/5 298/4/5 302/4/5
f 305/2/5 300/2/5 299/2/5
f 306/2/5 300/2/5 305/2/5
f 307/2/5 304/2/5 303/2/5
f 308/2/5 304/2/5 307/2/5
f 314/4/5 310/4/5 309/4/5
f 315/4/5 310/4/5 314/4/5
f 316/4/5 312/4/5 311/4/5
f 317/4/5 312/4/5 316/4/5
f 319/2/5 314/2/5 313/2/5
f 320/2/5 314/2/5 319/2/5
f 321/2/5 318/2/5 317/2/5
f 322/2/5 318/2/5 321/2/5
f 328/4/5 324/4/5 323/4/5
f 329/4/5 324/4/5 328/4/5
f 330/4/5 326/4/5 325/4/5
f 331/4/5 326/4/5 330/4/5
f 333/2/5 328/2/5 327/2/5
f 334/2/5 328/2/5 333/2/5
f 335/2/5 332/2/5 331/2/5
f 336/2/5 332/2/5 335/2/5
f 339/2/5 338/2/5 337/2/5
f 340/2/5 338/2/5 339/2/5
f 341/2/6 342/2/6 343/2/6
f 343/2/6 342/2/6 344/2/6
f 345/4/6 346/4/6 350/4/6
f 350/4/6 346/4/6 351/4/6
f 347/4/6 348/4/6 352/4/6
f 352/4/6 348/4/6 353/4/6
f 349/2/6 350/2/6 355/2/6
f 355/2/6 350/2/6 356/2/6
f 353/2/6 354/2/6 357/2/6
f 357/2/6 354/2/6 358/2/6
f 359/4/6 360/4/6 364/4/6
f 364/4/6 360/4/6 365/4/6
f 361/4/6 362/4/6 366/4/6
f 366/4/6 362/4/6 367/4/6
f 363/2/6 364/2/6 369/2/6
f 369/2/6 364/2/6 370/2/6
f 367/2/6 368/2/6 371/2/6
f 371/2/6 368/2/6 372/2/6
f 373/4/6 374/4/6 376/4/6
f 376/4/6 374/4/6 377/4/6
f 377/4/6 374/4/6 378/4/6
f 378/4/6 374/4/6 379/4/6
f 375/2/6 376/2/6 381/2/6
f 381/2/6 376/2/6 382/2/6
f 379/2/6 380/2/6 383/2/6
f 383/2/6 380/2/6 384/2/6
f 385/2/6 386/2/6 389/2/6
f 386/3/6 387/3/6 390/3/6
f 389/2/6 386/2/6 390/2/6
f 387/2/6 388/2/6 391/2/6
f 390/3/6 387/3/6 391/3/6
f 391/2/6 388/2/6 392/2/6
