# MagicaVoxel @ Ephtracy

# group
o Decoration - Table - Dirty

# material
mtllib Medieval Assets-25-Decoration - Table - Dirty.mtl
usemtl palette

# normals
vn -1 0 0
vn 1 0 0
vn 0 0 1
vn 0 0 -1
vn 0 -1 0
vn 0 1 0

# texcoords
vt 0.162109 0.5
vt 0.169922 0.5
vt 0.173828 0.5
vt 0.177734 0.5
vt 0.181641 0.5
vt 0.193359 0.5

# verts
v -45.5 0 -46.6
v -45.5 0 -46.9
v -45.5 0 -47.7
v -45.5 0 -48
v -45.5 0.1 -46.6
v -45.5 0.1 -46.9
v -45.5 0.1 -47.7
v -45.5 0.1 -48
v -45.4 0.1 -46.7
v -45.4 0.1 -46.8
v -45.4 0.1 -47.8
v -45.4 0.1 -47.9
v -45.4 0.7 -46.8
v -45.4 0.7 -47.8
v -45.4 0.8 -46.7
v -45.4 0.8 -47.9
v -45.4 0.9 -46.7
v -45.4 0.9 -47.9
v -43.6 0 -46.6
v -43.6 0 -46.9
v -43.6 0 -47.7
v -43.6 0 -48
v -43.6 0.1 -46.6
v -43.6 0.1 -46.9
v -43.6 0.1 -47.7
v -43.6 0.1 -48
v -43.5 0.1 -46.7
v -43.5 0.1 -46.8
v -43.5 0.1 -47.8
v -43.5 0.1 -47.9
v -43.5 0.7 -46.7
v -43.5 0.7 -46.8
v -43.5 0.7 -47.8
v -43.5 0.7 -47.9
v -43.5 0.8 -46.8
v -43.5 0.8 -46.9
v -43.5 0.8 -47.1
v -43.5 0.8 -47.4
v -43.5 0.8 -47.8
v -45.3 0.1 -46.7
v -45.3 0.1 -46.8
v -45.3 0.1 -47.8
v -45.3 0.1 -47.9
v -45.3 0.7 -46.7
v -45.3 0.7 -46.8
v -45.3 0.7 -47.8
v -45.3 0.7 -47.9
v -45.3 0.8 -46.8
v -45.3 0.8 -46.9
v -45.3 0.8 -47
v -45.3 0.8 -47.1
v -45.3 0.8 -47.3
v -45.3 0.8 -47.7
v -45.3 0.8 -47.8
v -45.2 0 -46.6
v -45.2 0 -46.9
v -45.2 0 -47.7
v -45.2 0 -48
v -45.2 0.1 -46.6
v -45.2 0.1 -46.9
v -45.2 0.1 -47.7
v -45.2 0.1 -48
v -43.4 0.1 -46.7
v -43.4 0.1 -46.8
v -43.4 0.1 -47.8
v -43.4 0.1 -47.9
v -43.4 0.7 -46.8
v -43.4 0.7 -47.8
v -43.4 0.8 -46.7
v -43.4 0.8 -47.9
v -43.4 0.9 -46.7
v -43.4 0.9 -47.9
v -43.3 0 -46.6
v -43.3 0 -46.9
v -43.3 0 -47.7
v -43.3 0 -48
v -43.3 0.1 -46.6
v -43.3 0.1 -46.9
v -43.3 0.1 -47.7
v -43.3 0.1 -48
v -45.5 0 -46.6
v -45.5 0.1 -46.6
v -45.2 0 -46.6
v -45.2 0.1 -46.6
v -43.6 0 -46.6
v -43.6 0.1 -46.6
v -43.3 0 -46.6
v -43.3 0.1 -46.6
v -45.4 0.1 -46.7
v -45.4 0.8 -46.7
v -45.4 0.9 -46.7
v -45.3 0.1 -46.7
v -45.3 0.7 -46.7
v -43.5 0.1 -46.7
v -43.5 0.7 -46.7
v -43.4 0.1 -46.7
v -43.4 0.8 -46.7
v -43.4 0.9 -46.7
v -45.5 0 -47.7
v -45.5 0.1 -47.7
v -45.2 0 -47.7
v -45.2 0.1 -47.7
v -43.6 0 -47.7
v -43.6 0.1 -47.7
v -43.3 0 -47.7
v -43.3 0.1 -47.7
v -45.4 0.1 -47.8
v -45.4 0.7 -47.8
v -45.3 0.1 -47.8
v -45.3 0.7 -47.8
v -45.3 0.8 -47.8
v -45.2 0.8 -47.8
v -45 0.8 -47.8
v -44.8 0.8 -47.8
v -44.6 0.8 -47.8
v -44.4 0.8 -47.8
v -44 0.8 -47.8
v -43.9 0.8 -47.8
v -43.8 0.8 -47.8
v -43.5 0.1 -47.8
v -43.5 0.7 -47.8
v -43.5 0.8 -47.8
v -43.4 0.1 -47.8
v -43.4 0.7 -47.8
v -45.4 0.1 -46.8
v -45.4 0.7 -46.8
v -45.3 0.1 -46.8
v -45.3 0.7 -46.8
v -45.3 0.8 -46.8
v -45.2 0.8 -46.8
v -45 0.8 -46.8
v -44.9 0.8 -46.8
v -44.8 0.8 -46.8
v -44.7 0.8 -46.8
v -44.4 0.8 -46.8
v -44.2 0.8 -46.8
v -44 0.8 -46.8
v -43.8 0.8 -46.8
v -43.6 0.8 -46.8
v -43.5 0.1 -46.8
v -43.5 0.7 -46.8
v -43.5 0.8 -46.8
v -43.4 0.1 -46.8
v -43.4 0.7 -46.8
v -45.5 0 -46.9
v -45.5 0.1 -46.9
v -45.2 0 -46.9
v -45.2 0.1 -46.9
v -43.6 0 -46.9
v -43.6 0.1 -46.9
v -43.3 0 -46.9
v -43.3 0.1 -46.9
v -45.4 0.1 -47.9
v -45.4 0.8 -47.9
v -45.4 0.9 -47.9
v -45.3 0.1 -47.9
v -45.3 0.7 -47.9
v -43.5 0.1 -47.9
v -43.5 0.7 -47.9
v -43.4 0.1 -47.9
v -43.4 0.8 -47.9
v -43.4 0.9 -47.9
v -45.5 0 -48
v -45.5 0.1 -48
v -45.2 0 -48
v -45.2 0.1 -48
v -43.6 0 -48
v -43.6 0.1 -48
v -43.3 0 -48
v -43.3 0.1 -48
v -45.5 0 -46.6
v -45.2 0 -46.6
v -43.6 0 -46.6
v -43.3 0 -46.6
v -45.5 0 -46.9
v -45.2 0 -46.9
v -43.6 0 -46.9
v -43.3 0 -46.9
v -45.5 0 -47.7
v -45.2 0 -47.7
v -43.6 0 -47.7
v -43.3 0 -47.7
v -45.5 0 -48
v -45.2 0 -48
v -43.6 0 -48
v -43.3 0 -48
v -45.3 0.7 -46.7
v -43.5 0.7 -46.7
v -45.4 0.7 -46.8
v -45.3 0.7 -46.8
v -43.5 0.7 -46.8
v -43.4 0.7 -46.8
v -45.4 0.7 -47.8
v -45.3 0.7 -47.8
v -43.5 0.7 -47.8
v -43.4 0.7 -47.8
v -45.3 0.7 -47.9
v -43.5 0.7 -47.9
v -45.3 0.8 -46.8
v -45.2 0.8 -46.8
v -45 0.8 -46.8
v -44.9 0.8 -46.8
v -44.8 0.8 -46.8
v -44.7 0.8 -46.8
v -44.4 0.8 -46.8
v -44.2 0.8 -46.8
v -44 0.8 -46.8
v -43.8 0.8 -46.8
v -43.6 0.8 -46.8
v -43.5 0.8 -46.8
v -45.3 0.8 -46.9
v -45.2 0.8 -46.9
v -45 0.8 -46.9
v -44.9 0.8 -46.9
v -44.8 0.8 -46.9
v -44.7 0.8 -46.9
v -44.6 0.8 -46.9
v -44.5 0.8 -46.9
v -44.4 0.8 -46.9
v -44.2 0.8 -46.9
v -44 0.8 -46.9
v -43.8 0.8 -46.9
v -43.7 0.8 -46.9
v -43.6 0.8 -46.9
v -43.5 0.8 -46.9
v -45.3 0.8 -47
v -45.2 0.8 -47
v -45.1 0.8 -47
v -45 0.8 -47
v -44.8 0.8 -47
v -44.6 0.8 -47
v -44.5 0.8 -47
v -44.2 0.8 -47
v -43.8 0.8 -47
v -43.7 0.8 -47
v -43.6 0.8 -47
v -45.3 0.8 -47.1
v -45.2 0.8 -47.1
v -45.1 0.8 -47.1
v -45 0.8 -47.1
v -44.4 0.8 -47.1
v -43.7 0.8 -47.1
v -43.6 0.8 -47.1
v -43.5 0.8 -47.1
v -44.8 0.8 -47.2
v -44.6 0.8 -47.2
v -44.4 0.8 -47.2
v -44.3 0.8 -47.2
v -44 0.8 -47.2
v -43.7 0.8 -47.2
v -45.3 0.8 -47.3
v -45.2 0.8 -47.3
v -45 0.8 -47.3
v -44.8 0.8 -47.3
v -44.6 0.8 -47.3
v -44.3 0.8 -47.3
v -44.1 0.8 -47.3
v -44 0.8 -47.3
v -43.9 0.8 -47.3
v -43.8 0.8 -47.3
v -43.7 0.8 -47.3
v -43.6 0.8 -47.3
v -44.5 0.8 -47.4
v -44.3 0.8 -47.4
v -44.1 0.8 -47.4
v -43.9 0.8 -47.4
v -43.8 0.8 -47.4
v -43.6 0.8 -47.4
v -43.5 0.8 -47.4
v -45.2 0.8 -47.5
v -45.1 0.8 -47.5
v -45 0.8 -47.5
v -44.5 0.8 -47.5
v -44.4 0.8 -47.5
v -43.7 0.8 -47.5
v -43.6 0.8 -47.5
v -45.1 0.8 -47.6
v -45 0.8 -47.6
v -44.8 0.8 -47.6
v -44.7 0.8 -47.6
v -44.3 0.8 -47.6
v -44.2 0.8 -47.6
v -43.9 0.8 -47.6
v -43.7 0.8 -47.6
v -43.6 0.8 -47.6
v -45.3 0.8 -47.7
v -45.2 0.8 -47.7
v -45 0.8 -47.7
v -44.8 0.8 -47.7
v -44.7 0.8 -47.7
v -44.6 0.8 -47.7
v -44.4 0.8 -47.7
v -44.2 0.8 -47.7
v -44 0.8 -47.7
v -43.9 0.8 -47.7
v -43.8 0.8 -47.7
v -43.7 0.8 -47.7
v -43.6 0.8 -47.7
v -45.3 0.8 -47.8
v -45.2 0.8 -47.8
v -45 0.8 -47.8
v -44.8 0.8 -47.8
v -44.6 0.8 -47.8
v -44.4 0.8 -47.8
v -44 0.8 -47.8
v -43.9 0.8 -47.8
v -43.8 0.8 -47.8
v -43.5 0.8 -47.8
v -45.5 0.1 -46.6
v -45.2 0.1 -46.6
v -43.6 0.1 -46.6
v -43.3 0.1 -46.6
v -45.4 0.1 -46.7
v -45.3 0.1 -46.7
v -43.5 0.1 -46.7
v -43.4 0.1 -46.7
v -45.4 0.1 -46.8
v -45.3 0.1 -46.8
v -43.5 0.1 -46.8
v -43.4 0.1 -46.8
v -45.5 0.1 -46.9
v -45.2 0.1 -46.9
v -43.6 0.1 -46.9
v -43.3 0.1 -46.9
v -45.5 0.1 -47.7
v -45.2 0.1 -47.7
v -43.6 0.1 -47.7
v -43.3 0.1 -47.7
v -45.4 0.1 -47.8
v -45.3 0.1 -47.8
v -43.5 0.1 -47.8
v -43.4 0.1 -47.8
v -45.4 0.1 -47.9
v -45.3 0.1 -47.9
v -43.5 0.1 -47.9
v -43.4 0.1 -47.9
v -45.5 0.1 -48
v -45.2 0.1 -48
v -43.6 0.1 -48
v -43.3 0.1 -48
v -45.4 0.9 -46.7
v -43.4 0.9 -46.7
v -45.2 0.9 -46.8
v -45 0.9 -46.8
v -44.9 0.9 -46.8
v -44.8 0.9 -46.8
v -44.7 0.9 -46.8
v -44.4 0.9 -46.8
v -44.2 0.9 -46.8
v -44 0.9 -46.8
v -43.8 0.9 -46.8
v -43.6 0.9 -46.8
v -45.3 0.9 -46.9
v -45.2 0.9 -46.9
v -45 0.9 -46.9
v -44.9 0.9 -46.9
v -44.8 0.9 -46.9
v -44.7 0.9 -46.9
v -44.6 0.9 -46.9
v -44.5 0.9 -46.9
v -44.4 0.9 -46.9
v -44.2 0.9 -46.9
v -44 0.9 -46.9
v -43.8 0.9 -46.9
v -43.7 0.9 -46.9
v -43.6 0.9 -46.9
v -43.5 0.9 -46.9
v -45.3 0.9 -47
v -45.2 0.9 -47
v -45.1 0.9 -47
v -45 0.9 -47
v -44.8 0.9 -47
v -44.6 0.9 -47
v -44.5 0.9 -47
v -44.2 0.9 -47
v -43.8 0.9 -47
v -43.7 0.9 -47
v -43.6 0.9 -47
v -45.3 0.9 -47.1
v -45.2 0.9 -47.1
v -45.1 0.9 -47.1
v -45 0.9 -47.1
v -44.4 0.9 -47.1
v -43.7 0.9 -47.1
v -43.6 0.9 -47.1
v -43.5 0.9 -47.1
v -44.8 0.9 -47.2
v -44.6 0.9 -47.2
v -44.4 0.9 -47.2
v -44.3 0.9 -47.2
v -44 0.9 -47.2
v -43.7 0.9 -47.2
v -45.3 0.9 -47.3
v -45.2 0.9 -47.3
v -45 0.9 -47.3
v -44.8 0.9 -47.3
v -44.6 0.9 -47.3
v -44.3 0.9 -47.3
v -44.1 0.9 -47.3
v -44 0.9 -47.3
v -43.9 0.9 -47.3
v -43.8 0.9 -47.3
v -43.7 0.9 -47.3
v -43.6 0.9 -47.3
v -44.5 0.9 -47.4
v -44.3 0.9 -47.4
v -44.1 0.9 -47.4
v -43.9 0.9 -47.4
v -43.8 0.9 -47.4
v -43.6 0.9 -47.4
v -43.5 0.9 -47.4
v -45.2 0.9 -47.5
v -45.1 0.9 -47.5
v -45 0.9 -47.5
v -44.5 0.9 -47.5
v -44.4 0.9 -47.5
v -43.7 0.9 -47.5
v -43.6 0.9 -47.5
v -45.1 0.9 -47.6
v -45 0.9 -47.6
v -44.8 0.9 -47.6
v -44.7 0.9 -47.6
v -44.3 0.9 -47.6
v -44.2 0.9 -47.6
v -43.9 0.9 -47.6
v -43.7 0.9 -47.6
v -43.6 0.9 -47.6
v -45.3 0.9 -47.7
v -45.2 0.9 -47.7
v -45 0.9 -47.7
v -44.8 0.9 -47.7
v -44.7 0.9 -47.7
v -44.6 0.9 -47.7
v -44.4 0.9 -47.7
v -44.2 0.9 -47.7
v -44 0.9 -47.7
v -43.9 0.9 -47.7
v -43.8 0.9 -47.7
v -43.7 0.9 -47.7
v -43.6 0.9 -47.7
v -45.2 0.9 -47.8
v -45 0.9 -47.8
v -44.8 0.9 -47.8
v -44.6 0.9 -47.8
v -44.4 0.9 -47.8
v -44 0.9 -47.8
v -43.9 0.9 -47.8
v -43.8 0.9 -47.8
v -43.5 0.9 -47.8
v -45.4 0.9 -47.9
v -43.4 0.9 -47.9

# faces
f 5/1/1 2/1/1 1/1/1
f 6/1/1 2/1/1 5/1/1
f 7/1/1 4/1/1 3/1/1
f 8/1/1 4/1/1 7/1/1
f 13/2/1 10/2/1 9/2/1
f 14/2/1 12/2/1 11/2/1
f 15/2/1 13/2/1 9/2/1
f 15/2/1 14/2/1 13/2/1
f 16/2/1 12/2/1 14/2/1
f 16/2/1 14/2/1 15/2/1
f 17/3/1 16/3/1 15/3/1
f 18/3/1 16/3/1 17/3/1
f 23/1/1 20/1/1 19/1/1
f 24/1/1 20/1/1 23/1/1
f 25/1/1 22/1/1 21/1/1
f 26/1/1 22/1/1 25/1/1
f 31/2/1 28/2/1 27/2/1
f 32/2/1 28/2/1 31/2/1
f 33/2/1 30/2/1 29/2/1
f 34/2/1 30/2/1 33/2/1
f 35/2/1 33/2/1 32/2/1
f 36/2/1 33/2/1 35/2/1
f 37/2/1 33/2/1 36/2/1
f 38/2/1 33/2/1 37/2/1
f 39/2/1 33/2/1 38/2/1
f 40/2/2 41/2/2 44/2/2
f 44/2/2 41/2/2 45/2/2
f 42/2/2 43/2/2 46/2/2
f 46/2/2 43/2/2 47/2/2
f 45/2/2 46/2/2 48/2/2
f 48/2/2 46/2/2 49/2/2
f 49/2/2 46/2/2 50/2/2
f 50/2/2 46/2/2 51/2/2
f 51/2/2 46/2/2 52/2/2
f 52/2/2 46/2/2 53/2/2
f 53/2/2 46/2/2 54/2/2
f 55/1/2 56/1/2 59/1/2
f 59/1/2 56/1/2 60/1/2
f 57/1/2 58/1/2 61/1/2
f 61/1/2 58/1/2 62/1/2
f 63/2/2 64/2/2 67/2/2
f 65/2/2 66/2/2 68/2/2
f 63/2/2 67/2/2 69/2/2
f 67/2/2 68/2/2 69/2/2
f 68/2/2 66/2/2 70/2/2
f 69/2/2 68/2/2 70/2/2
f 69/3/2 70/3/2 71/3/2
f 71/3/2 70/3/2 72/3/2
f 73/1/2 74/1/2 77/1/2
f 77/1/2 74/1/2 78/1/2
f 75/1/2 76/1/2 79/1/2
f 79/1/2 76/1/2 80/1/2
f 83/1/3 82/1/3 81/1/3
f 84/1/3 82/1/3 83/1/3
f 87/1/3 86/1/3 85/1/3
f 88/1/3 86/1/3 87/1/3
f 92/2/3 90/2/3 89/2/3
f 93/2/3 90/2/3 92/2/3
f 95/2/3 90/2/3 93/2/3
f 96/2/3 95/2/3 94/2/3
f 97/3/3 91/3/3 90/3/3
f 97/2/3 95/2/3 96/2/3
f 97/2/3 90/2/3 95/2/3
f 98/3/3 91/3/3 97/3/3
f 101/1/3 100/1/3 99/1/3
f 102/1/3 100/1/3 101/1/3
f 105/1/3 104/1/3 103/1/3
f 106/1/3 104/1/3 105/1/3
f 109/2/3 108/2/3 107/2/3
f 110/2/3 108/2/3 109/2/3
f 112/2/3 111/2/3 110/2/3
f 113/2/3 112/2/3 110/2/3
f 114/2/3 113/2/3 110/2/3
f 115/2/3 114/2/3 110/2/3
f 116/2/3 115/2/3 110/2/3
f 117/2/3 116/2/3 110/2/3
f 118/2/3 117/2/3 110/2/3
f 119/2/3 118/2/3 110/2/3
f 121/2/3 119/2/3 110/2/3
f 122/2/3 119/2/3 121/2/3
f 123/2/3 121/2/3 120/2/3
f 124/2/3 121/2/3 123/2/3
f 125/2/4 126/2/4 127/2/4
f 127/2/4 126/2/4 128/2/4
f 128/2/4 129/2/4 130/2/4
f 128/2/4 130/2/4 131/2/4
f 128/2/4 131/2/4 132/2/4
f 128/2/4 132/2/4 133/2/4
f 128/2/4 133/2/4 134/2/4
f 128/2/4 134/2/4 135/2/4
f 128/2/4 135/2/4 136/2/4
f 128/2/4 136/2/4 137/2/4
f 128/2/4 137/2/4 138/2/4
f 128/2/4 138/2/4 139/2/4
f 128/2/4 139/2/4 141/2/4
f 141/2/4 139/2/4 142/2/4
f 140/2/4 141/2/4 143/2/4
f 143/2/4 141/2/4 144/2/4
f 145/1/4 146/1/4 147/1/4
f 147/1/4 146/1/4 148/1/4
f 149/1/4 150/1/4 151/1/4
f 151/1/4 150/1/4 152/1/4
f 153/2/4 154/2/4 156/2/4
f 156/2/4 154/2/4 157/2/4
f 157/2/4 154/2/4 159/2/4
f 158/2/4 159/2/4 160/2/4
f 154/3/4 155/3/4 161/3/4
f 160/2/4 159/2/4 161/2/4
f 159/2/4 154/2/4 161/2/4
f 161/3/4 155/3/4 162/3/4
f 163/1/4 164/1/4 165/1/4
f 165/1/4 164/1/4 166/1/4
f 167/1/4 168/1/4 169/1/4
f 169/1/4 168/1/4 170/1/4
f 175/1/5 172/1/5 171/1/5
f 176/1/5 172/1/5 175/1/5
f 177/1/5 174/1/5 173/1/5
f 178/1/5 174/1/5 177/1/5
f 183/1/5 180/1/5 179/1/5
f 184/1/5 180/1/5 183/1/5
f 185/1/5 182/1/5 181/1/5
f 186/1/5 182/1/5 185/1/5
f 190/2/5 188/2/5 187/2/5
f 191/2/5 188/2/5 190/2/5
f 193/2/5 190/2/5 189/2/5
f 194/2/5 190/2/5 193/2/5
f 195/2/5 192/2/5 191/2/5
f 196/2/5 192/2/5 195/2/5
f 197/2/5 195/2/5 194/2/5
f 198/2/5 195/2/5 197/2/5
f 211/3/5 200/3/5 199/3/5
f 212/4/5 201/4/5 200/4/5
f 212/3/5 200/3/5 211/3/5
f 213/3/5 202/3/5 201/3/5
f 213/4/5 201/4/5 212/4/5
f 214/6/5 203/6/5 202/6/5
f 214/3/5 202/3/5 213/3/5
f 215/3/5 204/3/5 203/3/5
f 215/6/5 203/6/5 214/6/5
f 216/4/5 205/4/5 204/4/5
f 216/3/5 204/3/5 215/3/5
f 217/4/5 205/4/5 216/4/5
f 218/4/5 205/4/5 217/4/5
f 219/3/5 206/3/5 205/3/5
f 219/4/5 205/4/5 218/4/5
f 220/4/5 207/4/5 206/4/5
f 220/3/5 206/3/5 219/3/5
f 221/3/5 208/3/5 207/3/5
f 221/4/5 207/4/5 220/4/5
f 222/4/5 209/4/5 208/4/5
f 222/3/5 208/3/5 221/3/5
f 223/4/5 209/4/5 222/4/5
f 224/3/5 210/3/5 209/3/5
f 224/4/5 209/4/5 223/4/5
f 225/3/5 210/3/5 224/3/5
f 226/4/5 212/4/5 211/4/5
f 227/5/5 213/5/5 212/5/5
f 227/4/5 212/4/5 226/4/5
f 228/5/5 213/5/5 227/5/5
f 229/6/5 214/6/5 213/6/5
f 229/5/5 213/5/5 228/5/5
f 229/6/5 215/6/5 214/6/5
f 230/5/5 216/5/5 215/5/5
f 230/6/5 215/6/5 229/6/5
f 230/5/5 217/5/5 216/5/5
f 231/6/5 218/6/5 217/6/5
f 231/5/5 217/5/5 230/5/5
f 232/5/5 219/5/5 218/5/5
f 232/6/5 218/6/5 231/6/5
f 232/5/5 220/5/5 219/5/5
f 233/6/5 221/6/5 220/6/5
f 233/5/5 220/5/5 232/5/5
f 233/6/5 222/6/5 221/6/5
f 234/5/5 223/5/5 222/5/5
f 234/6/5 222/6/5 233/6/5
f 235/3/5 224/3/5 223/3/5
f 235/5/5 223/5/5 234/5/5
f 236/4/5 225/4/5 224/4/5
f 236/3/5 224/3/5 235/3/5
f 237/3/5 227/3/5 226/3/5
f 238/5/5 228/5/5 227/5/5
f 238/3/5 227/3/5 237/3/5
f 239/6/5 233/6/5 232/6/5
f 239/5/5 228/5/5 238/5/5
f 239/6/5 230/6/5 229/6/5
f 239/6/5 231/6/5 230/6/5
f 239/6/5 235/6/5 234/6/5
f 239/6/5 229/6/5 228/6/5
f 239/6/5 232/6/5 231/6/5
f 239/6/5 234/6/5 233/6/5
f 240/6/5 235/6/5 239/6/5
f 241/6/5 235/6/5 240/6/5
f 242/5/5 236/5/5 235/5/5
f 242/6/5 235/6/5 241/6/5
f 243/4/5 225/4/5 236/4/5
f 243/5/5 236/5/5 242/5/5
f 244/4/5 225/4/5 243/4/5
f 245/5/5 241/5/5 240/5/5
f 246/5/5 241/5/5 245/5/5
f 247/6/5 242/6/5 241/6/5
f 247/5/5 241/5/5 246/5/5
f 247/6/5 243/6/5 242/6/5
f 248/6/5 243/6/5 247/6/5
f 249/6/5 243/6/5 248/6/5
f 250/6/5 243/6/5 249/6/5
f 251/6/5 238/6/5 237/6/5
f 251/6/5 239/6/5 238/6/5
f 251/6/5 240/6/5 239/6/5
f 252/6/5 240/6/5 251/6/5
f 253/5/5 245/5/5 240/5/5
f 253/6/5 240/6/5 252/6/5
f 254/6/5 246/6/5 245/6/5
f 254/5/5 245/5/5 253/5/5
f 255/5/5 247/5/5 246/5/5
f 255/6/5 246/6/5 254/6/5
f 255/5/5 248/5/5 247/5/5
f 256/6/5 249/6/5 248/6/5
f 256/5/5 248/5/5 255/5/5
f 257/6/5 249/6/5 256/6/5
f 258/5/5 250/5/5 249/5/5
f 258/6/5 249/6/5 257/6/5
f 259/5/5 250/5/5 258/5/5
f 260/5/5 250/5/5 259/5/5
f 261/6/5 243/6/5 250/6/5
f 261/5/5 250/5/5 260/5/5
f 262/3/5 244/3/5 243/3/5
f 262/6/5 243/6/5 261/6/5
f 263/6/5 253/6/5 252/6/5
f 263/6/5 257/6/5 256/6/5
f 263/6/5 255/6/5 254/6/5
f 263/6/5 254/6/5 253/6/5
f 263/6/5 256/6/5 255/6/5
f 264/6/5 257/6/5 263/6/5
f 265/5/5 259/5/5 258/5/5
f 265/6/5 257/6/5 264/6/5
f 265/5/5 258/5/5 257/5/5
f 266/6/5 260/6/5 259/6/5
f 266/5/5 259/5/5 265/5/5
f 267/5/5 262/5/5 261/5/5
f 267/6/5 260/6/5 266/6/5
f 267/5/5 261/5/5 260/5/5
f 268/3/5 244/3/5 262/3/5
f 268/5/5 262/5/5 267/5/5
f 269/3/5 244/3/5 268/3/5
f 270/4/5 252/4/5 251/4/5
f 270/6/5 263/6/5 252/6/5
f 271/6/5 263/6/5 270/6/5
f 272/6/5 263/6/5 271/6/5
f 273/5/5 264/5/5 263/5/5
f 273/6/5 263/6/5 272/6/5
f 274/5/5 264/5/5 273/5/5
f 275/6/5 265/6/5 264/6/5
f 275/6/5 267/6/5 266/6/5
f 275/6/5 266/6/5 265/6/5
f 275/6/5 268/6/5 267/6/5
f 276/4/5 269/4/5 268/4/5
f 276/6/5 268/6/5 275/6/5
f 277/5/5 272/5/5 271/5/5
f 277/3/5 271/3/5 270/3/5
f 278/6/5 274/6/5 273/6/5
f 278/5/5 272/5/5 277/5/5
f 278/6/5 273/6/5 272/6/5
f 279/6/5 274/6/5 278/6/5
f 280/6/5 274/6/5 279/6/5
f 281/5/5 264/5/5 274/5/5
f 281/6/5 275/6/5 264/6/5
f 282/6/5 275/6/5 281/6/5
f 283/6/5 275/6/5 282/6/5
f 284/5/5 276/5/5 275/5/5
f 284/6/5 275/6/5 283/6/5
f 285/4/5 269/4/5 276/4/5
f 285/5/5 276/5/5 284/5/5
f 286/4/5 270/4/5 251/4/5
f 287/3/5 277/3/5 270/3/5
f 287/4/5 270/4/5 286/4/5
f 287/3/5 278/3/5 277/3/5
f 288/6/5 279/6/5 278/6/5
f 288/3/5 278/3/5 287/3/5
f 289/5/5 280/5/5 279/5/5
f 289/6/5 279/6/5 288/6/5
f 290/6/5 274/6/5 280/6/5
f 290/5/5 280/5/5 289/5/5
f 291/6/5 274/6/5 290/6/5
f 292/5/5 281/5/5 274/5/5
f 292/6/5 274/6/5 291/6/5
f 292/5/5 282/5/5 281/5/5
f 293/6/5 283/6/5 282/6/5
f 293/5/5 282/5/5 292/5/5
f 294/6/5 283/6/5 293/6/5
f 295/5/5 284/5/5 283/5/5
f 295/6/5 283/6/5 294/6/5
f 296/5/5 284/5/5 295/5/5
f 297/3/5 285/3/5 284/3/5
f 297/5/5 284/5/5 296/5/5
f 298/4/5 269/4/5 285/4/5
f 298/3/5 285/3/5 297/3/5
f 299/3/5 287/3/5 286/3/5
f 300/4/5 288/4/5 287/4/5
f 300/3/5 287/3/5 299/3/5
f 301/6/5 289/6/5 288/6/5
f 301/4/5 288/4/5 300/4/5
f 302/4/5 291/4/5 290/4/5
f 302/6/5 289/6/5 301/6/5
f 302/4/5 290/4/5 289/4/5
f 303/3/5 292/3/5 291/3/5
f 303/4/5 291/4/5 302/4/5
f 304/4/5 294/4/5 293/4/5
f 304/3/5 292/3/5 303/3/5
f 304/4/5 293/4/5 292/4/5
f 305/6/5 295/6/5 294/6/5
f 305/4/5 294/4/5 304/4/5
f 306/3/5 296/3/5 295/3/5
f 306/6/5 295/6/5 305/6/5
f 307/4/5 297/4/5 296/4/5
f 307/3/5 296/3/5 306/3/5
f 307/4/5 298/4/5 297/4/5
f 308/4/5 269/4/5 298/4/5
f 308/4/5 298/4/5 307/4/5
f 309/1/6 310/1/6 313/1/6
f 313/1/6 310/1/6 314/1/6
f 311/1/6 312/1/6 315/1/6
f 315/1/6 312/1/6 316/1/6
f 309/1/6 313/1/6 317/1/6
f 314/1/6 310/1/6 318/1/6
f 311/1/6 315/1/6 319/1/6
f 316/1/6 312/1/6 320/1/6
f 309/1/6 317/1/6 321/1/6
f 317/1/6 318/1/6 321/1/6
f 318/1/6 310/1/6 322/1/6
f 321/1/6 318/1/6 322/1/6
f 319/1/6 320/1/6 323/1/6
f 311/1/6 319/1/6 323/1/6
f 320/1/6 312/1/6 324/1/6
f 323/1/6 320/1/6 324/1/6
f 325/1/6 326/1/6 329/1/6
f 329/1/6 326/1/6 330/1/6
f 327/1/6 328/1/6 331/1/6
f 331/1/6 328/1/6 332/1/6
f 325/1/6 329/1/6 333/1/6
f 330/1/6 326/1/6 334/1/6
f 327/1/6 331/1/6 335/1/6
f 332/1/6 328/1/6 336/1/6
f 325/1/6 333/1/6 337/1/6
f 333/1/6 334/1/6 337/1/6
f 334/1/6 326/1/6 338/1/6
f 337/1/6 334/1/6 338/1/6
f 335/1/6 336/1/6 339/1/6
f 327/1/6 335/1/6 339/1/6
f 336/1/6 328/1/6 340/1/6
f 339/1/6 336/1/6 340/1/6
f 341/3/6 342/3/6 343/3/6
f 343/3/6 342/3/6 344/3/6
f 344/3/6 342/3/6 345/3/6
f 345/3/6 342/3/6 346/3/6
f 346/3/6 342/3/6 347/3/6
f 347/3/6 342/3/6 348/3/6
f 348/3/6 342/3/6 349/3/6
f 349/3/6 342/3/6 350/3/6
f 350/3/6 342/3/6 351/3/6
f 351/3/6 342/3/6 352/3/6
f 341/3/6 343/3/6 353/3/6
f 343/4/6 344/4/6 354/4/6
f 353/3/6 343/3/6 354/3/6
f 344/3/6 345/3/6 355/3/6
f 354/4/6 344/4/6 355/4/6
f 345/6/6 346/6/6 356/6/6
f 355/3/6 345/3/6 356/3/6
f 346/3/6 347/3/6 357/3/6
f 356/6/6 346/6/6 357/6/6
f 347/4/6 348/4/6 358/4/6
f 357/3/6 347/3/6 358/3/6
f 358/4/6 348/4/6 359/4/6
f 359/4/6 348/4/6 360/4/6
f 348/3/6 349/3/6 361/3/6
f 360/4/6 348/4/6 361/4/6
f 349/4/6 350/4/6 362/4/6
f 361/3/6 349/3/6 362/3/6
f 350/3/6 351/3/6 363/3/6
f 362/4/6 350/4/6 363/4/6
f 351/4/6 352/4/6 364/4/6
f 363/3/6 351/3/6 364/3/6
f 364/4/6 352/4/6 365/4/6
f 352/3/6 342/3/6 366/3/6
f 365/4/6 352/4/6 366/4/6
f 366/3/6 342/3/6 367/3/6
f 341/3/6 353/3/6 368/3/6
f 353/4/6 354/4/6 368/4/6
f 354/5/6 355/5/6 369/5/6
f 368/4/6 354/4/6 369/4/6
f 369/5/6 355/5/6 370/5/6
f 355/6/6 356/6/6 371/6/6
f 370/5/6 355/5/6 371/5/6
f 356/6/6 357/6/6 371/6/6
f 357/5/6 358/5/6 372/5/6
f 371/6/6 357/6/6 372/6/6
f 358/5/6 359/5/6 372/5/6
f 359/6/6 360/6/6 373/6/6
f 372/5/6 359/5/6 373/5/6
f 360/5/6 361/5/6 374/5/6
f 373/6/6 360/6/6 374/6/6
f 361/5/6 362/5/6 374/5/6
f 363/6/6 364/6/6 375/6/6
f 374/5/6 362/5/6 375/5/6
f 362/6/6 363/6/6 375/6/6
f 364/5/6 365/5/6 376/5/6
f 375/6/6 364/6/6 376/6/6
f 365/3/6 366/3/6 377/3/6
f 376/5/6 365/5/6 377/5/6
f 366/4/6 367/4/6 378/4/6
f 377/3/6 366/3/6 378/3/6
f 341/3/6 368/3/6 379/3/6
f 368/3/6 369/3/6 379/3/6
f 369/5/6 370/5/6 380/5/6
f 379/3/6 369/3/6 380/3/6
f 374/6/6 375/6/6 381/6/6
f 380/5/6 370/5/6 381/5/6
f 376/6/6 377/6/6 381/6/6
f 370/6/6 371/6/6 381/6/6
f 375/6/6 376/6/6 381/6/6
f 373/6/6 374/6/6 381/6/6
f 372/6/6 373/6/6 381/6/6
f 371/6/6 372/6/6 381/6/6
f 381/6/6 377/6/6 382/6/6
f 382/6/6 377/6/6 383/6/6
f 377/5/6 378/5/6 384/5/6
f 383/6/6 377/6/6 384/6/6
f 378/4/6 367/4/6 385/4/6
f 384/5/6 378/5/6 385/5/6
f 367/3/6 342/3/6 386/3/6
f 385/4/6 367/4/6 386/4/6
f 382/5/6 383/5/6 387/5/6
f 387/5/6 383/5/6 388/5/6
f 384/6/6 385/6/6 389/6/6
f 388/5/6 383/5/6 389/5/6
f 383/6/6 384/6/6 389/6/6
f 389/6/6 385/6/6 390/6/6
f 390/6/6 385/6/6 391/6/6
f 391/6/6 385/6/6 392/6/6
f 379/6/6 380/6/6 393/6/6
f 341/3/6 379/3/6 393/3/6
f 380/6/6 381/6/6 393/6/6
f 381/6/6 382/6/6 393/6/6
f 393/6/6 382/6/6 394/6/6
f 382/5/6 387/5/6 395/5/6
f 394/6/6 382/6/6 395/6/6
f 387/6/6 388/6/6 396/6/6
f 395/5/6 387/5/6 396/5/6
f 389/5/6 390/5/6 397/5/6
f 396/6/6 388/6/6 397/6/6
f 388/5/6 389/5/6 397/5/6
f 390/6/6 391/6/6 398/6/6
f 397/5/6 390/5/6 398/5/6
f 398/6/6 391/6/6 399/6/6
f 391/5/6 392/5/6 400/5/6
f 399/6/6 391/6/6 400/6/6
f 400/5/6 392/5/6 401/5/6
f 401/5/6 392/5/6 402/5/6
f 392/6/6 385/6/6 403/6/6
f 402/5/6 392/5/6 403/5/6
f 385/3/6 386/3/6 404/3/6
f 403/6/6 385/6/6 404/6/6
f 394/6/6 395/6/6 405/6/6
f 398/6/6 399/6/6 405/6/6
f 396/6/6 397/6/6 405/6/6
f 395/6/6 396/6/6 405/6/6
f 397/6/6 398/6/6 405/6/6
f 405/6/6 399/6/6 406/6/6
f 400/5/6 401/5/6 407/5/6
f 406/6/6 399/6/6 407/6/6
f 399/5/6 400/5/6 407/5/6
f 401/6/6 402/6/6 408/6/6
f 407/5/6 401/5/6 408/5/6
f 403/5/6 404/5/6 409/5/6
f 408/6/6 402/6/6 409/6/6
f 402/5/6 403/5/6 409/5/6
f 404/3/6 386/3/6 410/3/6
f 409/5/6 404/5/6 410/5/6
f 386/3/6 342/3/6 411/3/6
f 410/3/6 386/3/6 411/3/6
f 393/4/6 394/4/6 412/4/6
f 394/6/6 405/6/6 412/6/6
f 412/6/6 405/6/6 413/6/6
f 413/6/6 405/6/6 414/6/6
f 405/5/6 406/5/6 415/5/6
f 414/6/6 405/6/6 415/6/6
f 415/5/6 406/5/6 416/5/6
f 406/6/6 407/6/6 417/6/6
f 408/6/6 409/6/6 417/6/6
f 409/6/6 410/6/6 417/6/6
f 407/6/6 408/6/6 417/6/6
f 410/4/6 411/4/6 418/4/6
f 417/6/6 410/6/6 418/6/6
f 412/3/6 413/3/6 419/3/6
f 413/5/6 414/5/6 419/5/6
f 415/6/6 416/6/6 420/6/6
f 419/5/6 414/5/6 420/5/6
f 414/6/6 415/6/6 420/6/6
f 420/6/6 416/6/6 421/6/6
f 421/6/6 416/6/6 422/6/6
f 416/5/6 406/5/6 423/5/6
f 406/6/6 417/6/6 423/6/6
f 423/6/6 417/6/6 424/6/6
f 424/6/6 417/6/6 425/6/6
f 417/5/6 418/5/6 426/5/6
f 425/6/6 417/6/6 426/6/6
f 418/4/6 411/4/6 427/4/6
f 426/5/6 418/5/6 427/5/6
f 393/4/6 412/4/6 428/4/6
f 341/3/6 393/3/6 428/3/6
f 412/3/6 419/3/6 429/3/6
f 428/4/6 412/4/6 429/4/6
f 419/3/6 420/3/6 429/3/6
f 420/6/6 421/6/6 430/6/6
f 429/3/6 420/3/6 430/3/6
f 421/5/6 422/5/6 431/5/6
f 430/6/6 421/6/6 431/6/6
f 422/6/6 416/6/6 432/6/6
f 431/5/6 422/5/6 432/5/6
f 432/6/6 416/6/6 433/6/6
f 423/5/6 424/5/6 434/5/6
f 433/6/6 416/6/6 434/6/6
f 416/5/6 423/5/6 434/5/6
f 424/6/6 425/6/6 435/6/6
f 434/5/6 424/5/6 435/5/6
f 435/6/6 425/6/6 436/6/6
f 425/5/6 426/5/6 437/5/6
f 436/6/6 425/6/6 437/6/6
f 437/5/6 426/5/6 438/5/6
f 426/3/6 427/3/6 439/3/6
f 438/5/6 426/5/6 439/5/6
f 427/4/6 411/4/6 440/4/6
f 439/3/6 427/3/6 440/3/6
f 429/4/6 430/4/6 441/4/6
f 428/3/6 429/3/6 441/3/6
f 430/6/6 431/6/6 442/6/6
f 441/4/6 430/4/6 442/4/6
f 432/4/6 433/4/6 443/4/6
f 442/6/6 431/6/6 443/6/6
f 431/4/6 432/4/6 443/4/6
f 433/3/6 434/3/6 444/3/6
f 443/4/6 433/4/6 444/4/6
f 435/4/6 436/4/6 445/4/6
f 444/3/6 434/3/6 445/3/6
f 434/4/6 435/4/6 445/4/6
f 436/6/6 437/6/6 446/6/6
f 445/4/6 436/4/6 446/4/6
f 437/3/6 438/3/6 447/3/6
f 446/6/6 437/6/6 447/6/6
f 438/4/6 439/4/6 448/4/6
f 447/3/6 438/3/6 448/3/6
f 439/4/6 440/4/6 448/4/6
f 411/3/6 342/3/6 449/3/6
f 448/4/6 440/4/6 449/4/6
f 440/4/6 411/4/6 449/4/6
f 428/3/6 441/3/6 450/3/6
f 341/3/6 428/3/6 450/3/6
f 448/3/6 449/3/6 450/3/6
f 441/3/6 442/3/6 450/3/6
f 445/3/6 446/3/6 450/3/6
f 444/3/6 445/3/6 450/3/6
f 442/3/6 443/3/6 450/3/6
f 443/3/6 444/3/6 450/3/6
f 447/3/6 448/3/6 450/3/6
f 446/3/6 447/3/6 450/3/6
f 449/3/6 342/3/6 451/3/6
f 450/3/6 449/3/6 451/3/6
