# MagicaVoxel @ Ephtracy

# group
o Decoration - Table - Checker Variant3

# material
mtllib Medieval Assets-13-Decoration - Table - Checker Variant3.mtl
usemtl palette

# normals
vn -1 0 0
vn 1 0 0
vn 0 0 1
vn 0 0 -1
vn 0 -1 0
vn 0 1 0

# texcoords
vt 0.162109 0.5
vt 0.169922 0.5
vt 0.197266 0.5
vt 0.201172 0.5

# verts
v -41.1 0 -42.4
v -41.1 0 -42.7
v -41.1 0 -43.5
v -41.1 0 -43.8
v -41.1 0.1 -42.4
v -41.1 0.1 -42.7
v -41.1 0.1 -43.5
v -41.1 0.1 -43.8
v -41 0.1 -42.5
v -41 0.1 -42.6
v -41 0.1 -43.6
v -41 0.1 -43.7
v -41 0.7 -42.6
v -41 0.7 -43.6
v -41 0.8 -42.5
v -41 0.8 -42.8
v -41 0.8 -43.1
v -41 0.8 -43.4
v -41 0.8 -43.7
v -41 0.9 -42.5
v -41 0.9 -42.8
v -41 0.9 -43.1
v -41 0.9 -43.4
v -41 0.9 -43.7
v -39.2 0 -42.4
v -39.2 0 -42.7
v -39.2 0 -43.5
v -39.2 0 -43.8
v -39.2 0.1 -42.4
v -39.2 0.1 -42.7
v -39.2 0.1 -43.5
v -39.2 0.1 -43.8
v -39.1 0.1 -42.5
v -39.1 0.1 -42.6
v -39.1 0.1 -43.6
v -39.1 0.1 -43.7
v -39.1 0.7 -42.5
v -39.1 0.7 -42.6
v -39.1 0.7 -43.6
v -39.1 0.7 -43.7
v -39.1 0.8 -42.6
v -39.1 0.8 -42.8
v -39.1 0.8 -43.1
v -39.1 0.8 -43.4
v -39.1 0.8 -43.6
v -40.9 0.1 -42.5
v -40.9 0.1 -42.6
v -40.9 0.1 -43.6
v -40.9 0.1 -43.7
v -40.9 0.7 -42.5
v -40.9 0.7 -42.6
v -40.9 0.7 -43.6
v -40.9 0.7 -43.7
v -40.9 0.8 -42.6
v -40.9 0.8 -42.8
v -40.9 0.8 -43.1
v -40.9 0.8 -43.4
v -40.9 0.8 -43.6
v -40.8 0 -42.4
v -40.8 0 -42.7
v -40.8 0 -43.5
v -40.8 0 -43.8
v -40.8 0.1 -42.4
v -40.8 0.1 -42.7
v -40.8 0.1 -43.5
v -40.8 0.1 -43.8
v -39 0.1 -42.5
v -39 0.1 -42.6
v -39 0.1 -43.6
v -39 0.1 -43.7
v -39 0.7 -42.6
v -39 0.7 -43.6
v -39 0.8 -42.5
v -39 0.8 -42.8
v -39 0.8 -43.1
v -39 0.8 -43.4
v -39 0.8 -43.7
v -39 0.9 -42.5
v -39 0.9 -42.8
v -39 0.9 -43.1
v -39 0.9 -43.4
v -39 0.9 -43.7
v -38.9 0 -42.4
v -38.9 0 -42.7
v -38.9 0 -43.5
v -38.9 0 -43.8
v -38.9 0.1 -42.4
v -38.9 0.1 -42.7
v -38.9 0.1 -43.5
v -38.9 0.1 -43.8
v -41.1 0 -42.4
v -41.1 0.1 -42.4
v -40.8 0 -42.4
v -40.8 0.1 -42.4
v -39.2 0 -42.4
v -39.2 0.1 -42.4
v -38.9 0 -42.4
v -38.9 0.1 -42.4
v -41 0.1 -42.5
v -41 0.8 -42.5
v -41 0.9 -42.5
v -40.9 0.1 -42.5
v -40.9 0.7 -42.5
v -40.7 0.8 -42.5
v -40.7 0.9 -42.5
v -40.4 0.8 -42.5
v -40.4 0.9 -42.5
v -40.1 0.8 -42.5
v -40.1 0.9 -42.5
v -39.8 0.8 -42.5
v -39.8 0.9 -42.5
v -39.5 0.8 -42.5
v -39.5 0.9 -42.5
v -39.2 0.8 -42.5
v -39.2 0.9 -42.5
v -39.1 0.1 -42.5
v -39.1 0.7 -42.5
v -39 0.1 -42.5
v -39 0.8 -42.5
v -39 0.9 -42.5
v -41.1 0 -43.5
v -41.1 0.1 -43.5
v -40.8 0 -43.5
v -40.8 0.1 -43.5
v -39.2 0 -43.5
v -39.2 0.1 -43.5
v -38.9 0 -43.5
v -38.9 0.1 -43.5
v -41 0.1 -43.6
v -41 0.7 -43.6
v -40.9 0.1 -43.6
v -40.9 0.7 -43.6
v -40.9 0.8 -43.6
v -40.7 0.8 -43.6
v -40.4 0.8 -43.6
v -40.1 0.8 -43.6
v -39.8 0.8 -43.6
v -39.5 0.8 -43.6
v -39.2 0.8 -43.6
v -39.1 0.1 -43.6
v -39.1 0.7 -43.6
v -39.1 0.8 -43.6
v -39 0.1 -43.6
v -39 0.7 -43.6
v -41 0.1 -42.6
v -41 0.7 -42.6
v -40.9 0.1 -42.6
v -40.9 0.7 -42.6
v -40.9 0.8 -42.6
v -40.7 0.8 -42.6
v -40.4 0.8 -42.6
v -40.1 0.8 -42.6
v -39.8 0.8 -42.6
v -39.5 0.8 -42.6
v -39.2 0.8 -42.6
v -39.1 0.1 -42.6
v -39.1 0.7 -42.6
v -39.1 0.8 -42.6
v -39 0.1 -42.6
v -39 0.7 -42.6
v -41.1 0 -42.7
v -41.1 0.1 -42.7
v -40.8 0 -42.7
v -40.8 0.1 -42.7
v -39.2 0 -42.7
v -39.2 0.1 -42.7
v -38.9 0 -42.7
v -38.9 0.1 -42.7
v -41 0.1 -43.7
v -41 0.8 -43.7
v -41 0.9 -43.7
v -40.9 0.1 -43.7
v -40.9 0.7 -43.7
v -40.7 0.8 -43.7
v -40.7 0.9 -43.7
v -40.4 0.8 -43.7
v -40.4 0.9 -43.7
v -40.1 0.8 -43.7
v -40.1 0.9 -43.7
v -39.8 0.8 -43.7
v -39.8 0.9 -43.7
v -39.5 0.8 -43.7
v -39.5 0.9 -43.7
v -39.2 0.8 -43.7
v -39.2 0.9 -43.7
v -39.1 0.1 -43.7
v -39.1 0.7 -43.7
v -39 0.1 -43.7
v -39 0.8 -43.7
v -39 0.9 -43.7
v -41.1 0 -43.8
v -41.1 0.1 -43.8
v -40.8 0 -43.8
v -40.8 0.1 -43.8
v -39.2 0 -43.8
v -39.2 0.1 -43.8
v -38.9 0 -43.8
v -38.9 0.1 -43.8
v -41.1 0 -42.4
v -40.8 0 -42.4
v -39.2 0 -42.4
v -38.9 0 -42.4
v -41.1 0 -42.7
v -40.8 0 -42.7
v -39.2 0 -42.7
v -38.9 0 -42.7
v -41.1 0 -43.5
v -40.8 0 -43.5
v -39.2 0 -43.5
v -38.9 0 -43.5
v -41.1 0 -43.8
v -40.8 0 -43.8
v -39.2 0 -43.8
v -38.9 0 -43.8
v -40.9 0.7 -42.5
v -39.1 0.7 -42.5
v -41 0.7 -42.6
v -40.9 0.7 -42.6
v -39.1 0.7 -42.6
v -39 0.7 -42.6
v -41 0.7 -43.6
v -40.9 0.7 -43.6
v -39.1 0.7 -43.6
v -39 0.7 -43.6
v -40.9 0.7 -43.7
v -39.1 0.7 -43.7
v -40.9 0.8 -42.6
v -40.7 0.8 -42.6
v -40.4 0.8 -42.6
v -40.1 0.8 -42.6
v -39.8 0.8 -42.6
v -39.5 0.8 -42.6
v -39.2 0.8 -42.6
v -39.1 0.8 -42.6
v -40.9 0.8 -42.8
v -40.7 0.8 -42.8
v -40.4 0.8 -42.8
v -40.1 0.8 -42.8
v -39.8 0.8 -42.8
v -39.5 0.8 -42.8
v -39.2 0.8 -42.8
v -39.1 0.8 -42.8
v -40.9 0.8 -43.1
v -40.7 0.8 -43.1
v -40.4 0.8 -43.1
v -40.1 0.8 -43.1
v -39.8 0.8 -43.1
v -39.5 0.8 -43.1
v -39.2 0.8 -43.1
v -39.1 0.8 -43.1
v -40.9 0.8 -43.4
v -40.7 0.8 -43.4
v -40.4 0.8 -43.4
v -40.1 0.8 -43.4
v -39.8 0.8 -43.4
v -39.5 0.8 -43.4
v -39.2 0.8 -43.4
v -39.1 0.8 -43.4
v -40.9 0.8 -43.6
v -40.7 0.8 -43.6
v -40.4 0.8 -43.6
v -40.1 0.8 -43.6
v -39.8 0.8 -43.6
v -39.5 0.8 -43.6
v -39.2 0.8 -43.6
v -39.1 0.8 -43.6
v -41.1 0.1 -42.4
v -40.8 0.1 -42.4
v -39.2 0.1 -42.4
v -38.9 0.1 -42.4
v -41 0.1 -42.5
v -40.9 0.1 -42.5
v -39.1 0.1 -42.5
v -39 0.1 -42.5
v -41 0.1 -42.6
v -40.9 0.1 -42.6
v -39.1 0.1 -42.6
v -39 0.1 -42.6
v -41.1 0.1 -42.7
v -40.8 0.1 -42.7
v -39.2 0.1 -42.7
v -38.9 0.1 -42.7
v -41.1 0.1 -43.5
v -40.8 0.1 -43.5
v -39.2 0.1 -43.5
v -38.9 0.1 -43.5
v -41 0.1 -43.6
v -40.9 0.1 -43.6
v -39.1 0.1 -43.6
v -39 0.1 -43.6
v -41 0.1 -43.7
v -40.9 0.1 -43.7
v -39.1 0.1 -43.7
v -39 0.1 -43.7
v -41.1 0.1 -43.8
v -40.8 0.1 -43.8
v -39.2 0.1 -43.8
v -38.9 0.1 -43.8
v -41 0.9 -42.5
v -40.7 0.9 -42.5
v -40.4 0.9 -42.5
v -40.1 0.9 -42.5
v -39.8 0.9 -42.5
v -39.5 0.9 -42.5
v -39.2 0.9 -42.5
v -39 0.9 -42.5
v -41 0.9 -42.8
v -40.7 0.9 -42.8
v -40.4 0.9 -42.8
v -40.1 0.9 -42.8
v -39.8 0.9 -42.8
v -39.5 0.9 -42.8
v -39.2 0.9 -42.8
v -39 0.9 -42.8
v -41 0.9 -43.1
v -40.7 0.9 -43.1
v -40.4 0.9 -43.1
v -40.1 0.9 -43.1
v -39.8 0.9 -43.1
v -39.5 0.9 -43.1
v -39.2 0.9 -43.1
v -39 0.9 -43.1
v -41 0.9 -43.4
v -40.7 0.9 -43.4
v -40.4 0.9 -43.4
v -40.1 0.9 -43.4
v -39.8 0.9 -43.4
v -39.5 0.9 -43.4
v -39.2 0.9 -43.4
v -39 0.9 -43.4
v -41 0.9 -43.7
v -40.7 0.9 -43.7
v -40.4 0.9 -43.7
v -40.1 0.9 -43.7
v -39.8 0.9 -43.7
v -39.5 0.9 -43.7
v -39.2 0.9 -43.7
v -39 0.9 -43.7

# faces
f 5/1/1 2/1/1 1/1/1
f 6/1/1 2/1/1 5/1/1
f 7/1/1 4/1/1 3/1/1
f 8/1/1 4/1/1 7/1/1
f 13/2/1 10/2/1 9/2/1
f 14/2/1 12/2/1 11/2/1
f 15/2/1 13/2/1 9/2/1
f 15/2/1 14/2/1 13/2/1
f 16/2/1 14/2/1 15/2/1
f 17/2/1 14/2/1 16/2/1
f 18/2/1 14/2/1 17/2/1
f 19/2/1 12/2/1 14/2/1
f 19/2/1 14/2/1 18/2/1
f 20/4/1 16/4/1 15/4/1
f 21/3/1 17/3/1 16/3/1
f 21/4/1 16/4/1 20/4/1
f 22/4/1 18/4/1 17/4/1
f 22/3/1 17/3/1 21/3/1
f 23/3/1 19/3/1 18/3/1
f 23/4/1 18/4/1 22/4/1
f 24/3/1 19/3/1 23/3/1
f 29/1/1 26/1/1 25/1/1
f 30/1/1 26/1/1 29/1/1
f 31/1/1 28/1/1 27/1/1
f 32/1/1 28/1/1 31/1/1
f 37/2/1 34/2/1 33/2/1
f 38/2/1 34/2/1 37/2/1
f 39/2/1 36/2/1 35/2/1
f 40/2/1 36/2/1 39/2/1
f 41/2/1 39/2/1 38/2/1
f 42/2/1 39/2/1 41/2/1
f 43/2/1 39/2/1 42/2/1
f 44/2/1 39/2/1 43/2/1
f 45/2/1 39/2/1 44/2/1
f 46/2/2 47/2/2 50/2/2
f 50/2/2 47/2/2 51/2/2
f 48/2/2 49/2/2 52/2/2
f 52/2/2 49/2/2 53/2/2
f 51/2/2 52/2/2 54/2/2
f 54/2/2 52/2/2 55/2/2
f 55/2/2 52/2/2 56/2/2
f 56/2/2 52/2/2 57/2/2
f 57/2/2 52/2/2 58/2/2
f 59/1/2 60/1/2 63/1/2
f 63/1/2 60/1/2 64/1/2
f 61/1/2 62/1/2 65/1/2
f 65/1/2 62/1/2 66/1/2
f 67/2/2 68/2/2 71/2/2
f 69/2/2 70/2/2 72/2/2
f 67/2/2 71/2/2 73/2/2
f 71/2/2 72/2/2 73/2/2
f 73/2/2 72/2/2 74/2/2
f 74/2/2 72/2/2 75/2/2
f 75/2/2 72/2/2 76/2/2
f 72/2/2 70/2/2 77/2/2
f 76/2/2 72/2/2 77/2/2
f 73/4/2 74/4/2 78/4/2
f 74/3/2 75/3/2 79/3/2
f 78/4/2 74/4/2 79/4/2
f 75/4/2 76/4/2 80/4/2
f 79/3/2 75/3/2 80/3/2
f 76/3/2 77/3/2 81/3/2
f 80/4/2 76/4/2 81/4/2
f 81/3/2 77/3/2 82/3/2
f 83/1/2 84/1/2 87/1/2
f 87/1/2 84/1/2 88/1/2
f 85/1/2 86/1/2 89/1/2
f 89/1/2 86/1/2 90/1/2
f 93/1/3 92/1/3 91/1/3
f 94/1/3 92/1/3 93/1/3
f 97/1/3 96/1/3 95/1/3
f 98/1/3 96/1/3 97/1/3
f 102/2/3 100/2/3 99/2/3
f 103/2/3 100/2/3 102/2/3
f 104/4/3 101/4/3 100/4/3
f 104/2/3 100/2/3 103/2/3
f 105/4/3 101/4/3 104/4/3
f 106/2/3 104/2/3 103/2/3
f 106/3/3 105/3/3 104/3/3
f 107/3/3 105/3/3 106/3/3
f 108/2/3 106/2/3 103/2/3
f 108/4/3 107/4/3 106/4/3
f 109/4/3 107/4/3 108/4/3
f 110/2/3 108/2/3 103/2/3
f 110/3/3 109/3/3 108/3/3
f 111/3/3 109/3/3 110/3/3
f 112/2/3 110/2/3 103/2/3
f 112/4/3 111/4/3 110/4/3
f 113/4/3 111/4/3 112/4/3
f 114/2/3 112/2/3 103/2/3
f 114/3/3 113/3/3 112/3/3
f 115/3/3 113/3/3 114/3/3
f 117/2/3 114/2/3 103/2/3
f 118/2/3 117/2/3 116/2/3
f 119/4/3 115/4/3 114/4/3
f 119/2/3 117/2/3 118/2/3
f 119/2/3 114/2/3 117/2/3
f 120/4/3 115/4/3 119/4/3
f 123/1/3 122/1/3 121/1/3
f 124/1/3 122/1/3 123/1/3
f 127/1/3 126/1/3 125/1/3
f 128/1/3 126/1/3 127/1/3
f 131/2/3 130/2/3 129/2/3
f 132/2/3 130/2/3 131/2/3
f 134/2/3 133/2/3 132/2/3
f 135/2/3 134/2/3 132/2/3
f 136/2/3 135/2/3 132/2/3
f 137/2/3 136/2/3 132/2/3
f 138/2/3 137/2/3 132/2/3
f 139/2/3 138/2/3 132/2/3
f 141/2/3 139/2/3 132/2/3
f 142/2/3 139/2/3 141/2/3
f 143/2/3 141/2/3 140/2/3
f 144/2/3 141/2/3 143/2/3
f 145/2/4 146/2/4 147/2/4
f 147/2/4 146/2/4 148/2/4
f 148/2/4 149/2/4 150/2/4
f 148/2/4 150/2/4 151/2/4
f 148/2/4 151/2/4 152/2/4
f 148/2/4 152/2/4 153/2/4
f 148/2/4 153/2/4 154/2/4
f 148/2/4 154/2/4 155/2/4
f 148/2/4 155/2/4 157/2/4
f 157/2/4 155/2/4 158/2/4
f 156/2/4 157/2/4 159/2/4
f 159/2/4 157/2/4 160/2/4
f 161/1/4 162/1/4 163/1/4
f 163/1/4 162/1/4 164/1/4
f 165/1/4 166/1/4 167/1/4
f 167/1/4 166/1/4 168/1/4
f 169/2/4 170/2/4 172/2/4
f 172/2/4 170/2/4 173/2/4
f 170/3/4 171/3/4 174/3/4
f 173/2/4 170/2/4 174/2/4
f 174/3/4 171/3/4 175/3/4
f 173/2/4 174/2/4 176/2/4
f 174/4/4 175/4/4 176/4/4
f 176/4/4 175/4/4 177/4/4
f 173/2/4 176/2/4 178/2/4
f 176/3/4 177/3/4 178/3/4
f 178/3/4 177/3/4 179/3/4
f 173/2/4 178/2/4 180/2/4
f 178/4/4 179/4/4 180/4/4
f 180/4/4 179/4/4 181/4/4
f 173/2/4 180/2/4 182/2/4
f 180/3/4 181/3/4 182/3/4
f 182/3/4 181/3/4 183/3/4
f 173/2/4 182/2/4 184/2/4
f 182/4/4 183/4/4 184/4/4
f 184/4/4 183/4/4 185/4/4
f 173/2/4 184/2/4 187/2/4
f 186/2/4 187/2/4 188/2/4
f 184/3/4 185/3/4 189/3/4
f 188/2/4 187/2/4 189/2/4
f 187/2/4 184/2/4 189/2/4
f 189/3/4 185/3/4 190/3/4
f 191/1/4 192/1/4 193/1/4
f 193/1/4 192/1/4 194/1/4
f 195/1/4 196/1/4 197/1/4
f 197/1/4 196/1/4 198/1/4
f 203/1/5 200/1/5 199/1/5
f 204/1/5 200/1/5 203/1/5
f 205/1/5 202/1/5 201/1/5
f 206/1/5 202/1/5 205/1/5
f 211/1/5 208/1/5 207/1/5
f 212/1/5 208/1/5 211/1/5
f 213/1/5 210/1/5 209/1/5
f 214/1/5 210/1/5 213/1/5
f 218/2/5 216/2/5 215/2/5
f 219/2/5 216/2/5 218/2/5
f 221/2/5 218/2/5 217/2/5
f 222/2/5 218/2/5 221/2/5
f 223/2/5 220/2/5 219/2/5
f 224/2/5 220/2/5 223/2/5
f 225/2/5 223/2/5 222/2/5
f 226/2/5 223/2/5 225/2/5
f 235/4/5 228/4/5 227/4/5
f 236/3/5 229/3/5 228/3/5
f 236/4/5 228/4/5 235/4/5
f 237/4/5 230/4/5 229/4/5
f 237/3/5 229/3/5 236/3/5
f 238/3/5 231/3/5 230/3/5
f 238/4/5 230/4/5 237/4/5
f 239/4/5 232/4/5 231/4/5
f 239/3/5 231/3/5 238/3/5
f 240/3/5 233/3/5 232/3/5
f 240/4/5 232/4/5 239/4/5
f 241/4/5 234/4/5 233/4/5
f 241/3/5 233/3/5 240/3/5
f 242/4/5 234/4/5 241/4/5
f 243/3/5 236/3/5 235/3/5
f 244/4/5 237/4/5 236/4/5
f 244/3/5 236/3/5 243/3/5
f 245/3/5 238/3/5 237/3/5
f 245/4/5 237/4/5 244/4/5
f 246/4/5 239/4/5 238/4/5
f 246/3/5 238/3/5 245/3/5
f 247/3/5 240/3/5 239/3/5
f 247/4/5 239/4/5 246/4/5
f 248/4/5 241/4/5 240/4/5
f 248/3/5 240/3/5 247/3/5
f 249/3/5 242/3/5 241/3/5
f 249/4/5 241/4/5 248/4/5
f 250/3/5 242/3/5 249/3/5
f 251/4/5 244/4/5 243/4/5
f 252/3/5 245/3/5 244/3/5
f 252/4/5 244/4/5 251/4/5
f 253/4/5 246/4/5 245/4/5
f 253/3/5 245/3/5 252/3/5
f 254/3/5 247/3/5 246/3/5
f 254/4/5 246/4/5 253/4/5
f 255/4/5 248/4/5 247/4/5
f 255/3/5 247/3/5 254/3/5
f 256/3/5 249/3/5 248/3/5
f 256/4/5 248/4/5 255/4/5
f 257/4/5 250/4/5 249/4/5
f 257/3/5 249/3/5 256/3/5
f 258/4/5 250/4/5 257/4/5
f 259/3/5 252/3/5 251/3/5
f 260/4/5 253/4/5 252/4/5
f 260/3/5 252/3/5 259/3/5
f 261/3/5 254/3/5 253/3/5
f 261/4/5 253/4/5 260/4/5
f 262/4/5 255/4/5 254/4/5
f 262/3/5 254/3/5 261/3/5
f 263/3/5 256/3/5 255/3/5
f 263/4/5 255/4/5 262/4/5
f 264/4/5 257/4/5 256/4/5
f 264/3/5 256/3/5 263/3/5
f 265/3/5 258/3/5 257/3/5
f 265/4/5 257/4/5 264/4/5
f 266/3/5 258/3/5 265/3/5
f 267/1/6 268/1/6 271/1/6
f 271/1/6 268/1/6 272/1/6
f 269/1/6 270/1/6 273/1/6
f 273/1/6 270/1/6 274/1/6
f 267/1/6 271/1/6 275/1/6
f 272/1/6 268/1/6 276/1/6
f 269/1/6 273/1/6 277/1/6
f 274/1/6 270/1/6 278/1/6
f 267/1/6 275/1/6 279/1/6
f 275/1/6 276/1/6 279/1/6
f 276/1/6 268/1/6 280/1/6
f 279/1/6 276/1/6 280/1/6
f 277/1/6 278/1/6 281/1/6
f 269/1/6 277/1/6 281/1/6
f 278/1/6 270/1/6 282/1/6
f 281/1/6 278/1/6 282/1/6
f 283/1/6 284/1/6 287/1/6
f 287/1/6 284/1/6 288/1/6
f 285/1/6 286/1/6 289/1/6
f 289/1/6 286/1/6 290/1/6
f 283/1/6 287/1/6 291/1/6
f 288/1/6 284/1/6 292/1/6
f 285/1/6 289/1/6 293/1/6
f 290/1/6 286/1/6 294/1/6
f 283/1/6 291/1/6 295/1/6
f 291/1/6 292/1/6 295/1/6
f 292/1/6 284/1/6 296/1/6
f 295/1/6 292/1/6 296/1/6
f 293/1/6 294/1/6 297/1/6
f 285/1/6 293/1/6 297/1/6
f 294/1/6 286/1/6 298/1/6
f 297/1/6 294/1/6 298/1/6
f 299/4/6 300/4/6 307/4/6
f 300/3/6 301/3/6 308/3/6
f 307/4/6 300/4/6 308/4/6
f 301/4/6 302/4/6 309/4/6
f 308/3/6 301/3/6 309/3/6
f 302/3/6 303/3/6 310/3/6
f 309/4/6 302/4/6 310/4/6
f 303/4/6 304/4/6 311/4/6
f 310/3/6 303/3/6 311/3/6
f 304/3/6 305/3/6 312/3/6
f 311/4/6 304/4/6 312/4/6
f 305/4/6 306/4/6 313/4/6
f 312/3/6 305/3/6 313/3/6
f 313/4/6 306/4/6 314/4/6
f 307/3/6 308/3/6 315/3/6
f 308/4/6 309/4/6 316/4/6
f 315/3/6 308/3/6 316/3/6
f 309/3/6 310/3/6 317/3/6
f 316/4/6 309/4/6 317/4/6
f 310/4/6 311/4/6 318/4/6
f 317/3/6 310/3/6 318/3/6
f 311/3/6 312/3/6 319/3/6
f 318/4/6 311/4/6 319/4/6
f 312/4/6 313/4/6 320/4/6
f 319/3/6 312/3/6 320/3/6
f 313/3/6 314/3/6 321/3/6
f 320/4/6 313/4/6 321/4/6
f 321/3/6 314/3/6 322/3/6
f 315/4/6 316/4/6 323/4/6
f 316/3/6 317/3/6 324/3/6
f 323/4/6 316/4/6 324/4/6
f 317/4/6 318/4/6 325/4/6
f 324/3/6 317/3/6 325/3/6
f 318/3/6 319/3/6 326/3/6
f 325/4/6 318/4/6 326/4/6
f 319/4/6 320/4/6 327/4/6
f 326/3/6 319/3/6 327/3/6
f 320/3/6 321/3/6 328/3/6
f 327/4/6 320/4/6 328/4/6
f 321/4/6 322/4/6 329/4/6
f 328/3/6 321/3/6 329/3/6
f 329/4/6 322/4/6 330/4/6
f 323/3/6 324/3/6 331/3/6
f 324/4/6 325/4/6 332/4/6
f 331/3/6 324/3/6 332/3/6
f 325/3/6 326/3/6 333/3/6
f 332/4/6 325/4/6 333/4/6
f 326/4/6 327/4/6 334/4/6
f 333/3/6 326/3/6 334/3/6
f 327/3/6 328/3/6 335/3/6
f 334/4/6 327/4/6 335/4/6
f 328/4/6 329/4/6 336/4/6
f 335/3/6 328/3/6 336/3/6
f 329/3/6 330/3/6 337/3/6
f 336/4/6 329/4/6 337/4/6
f 337/3/6 330/3/6 338/3/6
