# MagicaVoxel @ Ephtracy

# group
o Shelter - Stone - Brick

# material
mtllib Medieval Assets-167-Shelter - Stone - Brick.mtl
usemtl palette

# normals
vn -1 0 0
vn 1 0 0
vn 0 0 1
vn 0 0 -1
vn 0 -1 0
vn 0 1 0

# texcoords
vt 0.134766 0.5
vt 0.138672 0.5
vt 0.142578 0.5

# verts
v 22.2 0.2 -11.9
v 22.2 0.2 -12.4
v 22.2 1 -11.9
v 22.2 1 -12.4
v 22.3 0.1 -11.9
v 22.3 0.1 -12.4
v 22.3 0.2 -11.8
v 22.3 0.2 -11.9
v 22.3 0.2 -12.4
v 22.3 0.2 -12.5
v 22.3 1 -11.8
v 22.3 1 -11.9
v 22.3 1 -12.4
v 22.3 1 -12.5
v 22.3 1.1 -11.9
v 22.3 1.1 -12.4
v 23.3 0.1 -11.9
v 23.3 0.1 -12.4
v 23.3 0.2 -11.8
v 23.3 0.2 -11.9
v 23.3 0.2 -12.4
v 23.3 0.2 -12.5
v 23.3 0.5 -11.8
v 23.3 0.5 -11.9
v 23.3 0.5 -12.4
v 23.3 0.5 -12.5
v 23.3 0.7 -11.8
v 23.3 0.7 -11.9
v 23.3 0.7 -12.4
v 23.3 0.7 -12.5
v 23.3 1 -11.8
v 23.3 1 -11.9
v 23.3 1 -12.4
v 23.3 1 -12.5
v 23.3 1.1 -11.9
v 23.3 1.1 -12.4
v 23.4 0.2 -11.9
v 23.4 0.2 -12.4
v 23.4 1 -11.9
v 23.4 1 -12.4
v 22.3 0.2 -11.8
v 22.3 1 -11.8
v 22.4 0.4 -11.8
v 22.4 0.8 -11.8
v 22.5 0.4 -11.8
v 22.5 0.8 -11.8
v 22.6 0.3 -11.8
v 22.6 0.4 -11.8
v 22.6 0.8 -11.8
v 22.6 0.9 -11.8
v 22.7 0.3 -11.8
v 22.7 0.4 -11.8
v 22.7 0.8 -11.8
v 22.7 0.9 -11.8
v 22.8 0.3 -11.8
v 22.8 0.4 -11.8
v 22.8 0.8 -11.8
v 22.8 0.9 -11.8
v 22.9 0.3 -11.8
v 22.9 0.4 -11.8
v 22.9 0.5 -11.8
v 22.9 0.7 -11.8
v 22.9 0.8 -11.8
v 22.9 0.9 -11.8
v 23 0.5 -11.8
v 23 0.7 -11.8
v 23.1 0.2 -11.8
v 23.1 0.5 -11.8
v 23.1 0.7 -11.8
v 23.1 1 -11.8
v 23.2 0.2 -11.8
v 23.2 0.5 -11.8
v 23.2 0.7 -11.8
v 23.2 1 -11.8
v 23.3 0.2 -11.8
v 23.3 0.5 -11.8
v 23.3 0.7 -11.8
v 23.3 1 -11.8
v 22.2 0.2 -11.9
v 22.2 1 -11.9
v 22.3 0.1 -11.9
v 22.3 0.2 -11.9
v 22.3 1 -11.9
v 22.3 1.1 -11.9
v 23.1 0.2 -11.9
v 23.1 1 -11.9
v 23.2 0.2 -11.9
v 23.2 1 -11.9
v 23.3 0.1 -11.9
v 23.3 0.2 -11.9
v 23.3 0.5 -11.9
v 23.3 0.7 -11.9
v 23.3 1 -11.9
v 23.3 1.1 -11.9
v 23.4 0.2 -11.9
v 23.4 1 -11.9
v 22.2 0.2 -12.4
v 22.2 1 -12.4
v 22.3 0.1 -12.4
v 22.3 0.2 -12.4
v 22.3 1 -12.4
v 22.3 1.1 -12.4
v 23.1 0.2 -12.4
v 23.1 1 -12.4
v 23.2 0.2 -12.4
v 23.2 1 -12.4
v 23.3 0.1 -12.4
v 23.3 0.2 -12.4
v 23.3 0.5 -12.4
v 23.3 0.7 -12.4
v 23.3 1 -12.4
v 23.3 1.1 -12.4
v 23.4 0.2 -12.4
v 23.4 1 -12.4
v 22.3 0.2 -12.5
v 22.3 1 -12.5
v 22.4 0.4 -12.5
v 22.4 0.8 -12.5
v 22.5 0.4 -12.5
v 22.5 0.8 -12.5
v 22.6 0.3 -12.5
v 22.6 0.4 -12.5
v 22.6 0.8 -12.5
v 22.6 0.9 -12.5
v 22.7 0.3 -12.5
v 22.7 0.4 -12.5
v 22.7 0.8 -12.5
v 22.7 0.9 -12.5
v 22.8 0.3 -12.5
v 22.8 0.4 -12.5
v 22.8 0.8 -12.5
v 22.8 0.9 -12.5
v 22.9 0.3 -12.5
v 22.9 0.4 -12.5
v 22.9 0.5 -12.5
v 22.9 0.7 -12.5
v 22.9 0.8 -12.5
v 22.9 0.9 -12.5
v 23 0.5 -12.5
v 23 0.7 -12.5
v 23.1 0.2 -12.5
v 23.1 0.5 -12.5
v 23.1 0.7 -12.5
v 23.1 1 -12.5
v 23.2 0.2 -12.5
v 23.2 0.5 -12.5
v 23.2 0.7 -12.5
v 23.2 1 -12.5
v 23.3 0.2 -12.5
v 23.3 0.5 -12.5
v 23.3 0.7 -12.5
v 23.3 1 -12.5
v 22.3 0.1 -11.9
v 23.3 0.1 -11.9
v 22.3 0.1 -12.4
v 23.3 0.1 -12.4
v 22.3 0.2 -11.8
v 23.1 0.2 -11.8
v 23.2 0.2 -11.8
v 23.3 0.2 -11.8
v 22.2 0.2 -11.9
v 22.3 0.2 -11.9
v 23.1 0.2 -11.9
v 23.2 0.2 -11.9
v 23.3 0.2 -11.9
v 23.4 0.2 -11.9
v 22.2 0.2 -12.4
v 22.3 0.2 -12.4
v 23.1 0.2 -12.4
v 23.2 0.2 -12.4
v 23.3 0.2 -12.4
v 23.4 0.2 -12.4
v 22.3 0.2 -12.5
v 23.1 0.2 -12.5
v 23.2 0.2 -12.5
v 23.3 0.2 -12.5
v 22.3 1 -11.8
v 23.1 1 -11.8
v 23.2 1 -11.8
v 23.3 1 -11.8
v 22.2 1 -11.9
v 22.3 1 -11.9
v 23.1 1 -11.9
v 23.2 1 -11.9
v 23.3 1 -11.9
v 23.4 1 -11.9
v 22.2 1 -12.4
v 22.3 1 -12.4
v 23.1 1 -12.4
v 23.2 1 -12.4
v 23.3 1 -12.4
v 23.4 1 -12.4
v 22.3 1 -12.5
v 23.1 1 -12.5
v 23.2 1 -12.5
v 23.3 1 -12.5
v 22.3 1.1 -11.9
v 23.3 1.1 -11.9
v 22.3 1.1 -12.4
v 23.3 1.1 -12.4

# faces
f 3/3/1 2/3/1 1/3/1
f 4/3/1 2/3/1 3/3/1
f 8/3/1 6/3/1 5/3/1
f 9/3/1 6/3/1 8/3/1
f 11/1/1 8/1/1 7/1/1
f 12/1/1 8/1/1 11/1/1
f 13/1/1 10/1/1 9/1/1
f 14/1/1 10/1/1 13/1/1
f 15/3/1 13/3/1 12/3/1
f 16/3/1 13/3/1 15/3/1
f 17/3/2 18/3/2 20/3/2
f 20/3/2 18/3/2 21/3/2
f 19/1/2 20/1/2 23/1/2
f 23/1/2 20/1/2 24/1/2
f 21/1/2 22/1/2 25/1/2
f 25/1/2 22/1/2 26/1/2
f 23/2/2 24/2/2 27/2/2
f 27/2/2 24/2/2 28/2/2
f 25/2/2 26/2/2 29/2/2
f 29/2/2 26/2/2 30/2/2
f 27/1/2 28/1/2 31/1/2
f 31/1/2 28/1/2 32/1/2
f 29/1/2 30/1/2 33/1/2
f 33/1/2 30/1/2 34/1/2
f 32/3/2 33/3/2 35/3/2
f 35/3/2 33/3/2 36/3/2
f 37/3/2 38/3/2 39/3/2
f 39/3/2 38/3/2 40/3/2
f 43/1/3 42/1/3 41/1/3
f 44/1/3 42/1/3 43/1/3
f 45/1/3 43/1/3 41/1/3
f 45/2/3 44/2/3 43/2/3
f 46/1/3 42/1/3 44/1/3
f 46/2/3 44/2/3 45/2/3
f 47/1/3 45/1/3 41/1/3
f 47/1/3 46/1/3 45/1/3
f 48/1/3 46/1/3 47/1/3
f 49/1/3 42/1/3 46/1/3
f 49/1/3 46/1/3 48/1/3
f 50/1/3 42/1/3 49/1/3
f 51/2/3 48/2/3 47/2/3
f 51/1/3 47/1/3 41/1/3
f 52/1/3 49/1/3 48/1/3
f 52/2/3 48/2/3 51/2/3
f 53/2/3 50/2/3 49/2/3
f 53/1/3 49/1/3 52/1/3
f 54/1/3 42/1/3 50/1/3
f 54/2/3 50/2/3 53/2/3
f 55/1/3 53/1/3 52/1/3
f 55/1/3 52/1/3 51/1/3
f 55/1/3 54/1/3 53/1/3
f 55/1/3 51/1/3 41/1/3
f 56/1/3 54/1/3 55/1/3
f 57/1/3 54/1/3 56/1/3
f 58/1/3 42/1/3 54/1/3
f 58/1/3 54/1/3 57/1/3
f 59/1/3 55/1/3 41/1/3
f 59/2/3 56/2/3 55/2/3
f 60/1/3 57/1/3 56/1/3
f 60/2/3 56/2/3 59/2/3
f 61/1/3 57/1/3 60/1/3
f 62/1/3 57/1/3 61/1/3
f 63/2/3 58/2/3 57/2/3
f 63/1/3 57/1/3 62/1/3
f 64/1/3 42/1/3 58/1/3
f 64/2/3 58/2/3 63/2/3
f 65/2/3 62/2/3 61/2/3
f 65/1/3 60/1/3 59/1/3
f 65/1/3 61/1/3 60/1/3
f 66/1/3 63/1/3 62/1/3
f 66/2/3 62/2/3 65/2/3
f 66/1/3 64/1/3 63/1/3
f 67/1/3 59/1/3 41/1/3
f 67/1/3 65/1/3 59/1/3
f 67/1/3 66/1/3 65/1/3
f 68/1/3 66/1/3 67/1/3
f 69/1/3 64/1/3 66/1/3
f 69/1/3 66/1/3 68/1/3
f 70/1/3 42/1/3 64/1/3
f 70/1/3 64/1/3 69/1/3
f 71/2/3 68/2/3 67/2/3
f 72/1/3 69/1/3 68/1/3
f 72/2/3 68/2/3 71/2/3
f 73/2/3 70/2/3 69/2/3
f 73/1/3 69/1/3 72/1/3
f 74/2/3 70/2/3 73/2/3
f 75/1/3 72/1/3 71/1/3
f 76/2/3 73/2/3 72/2/3
f 76/1/3 72/1/3 75/1/3
f 77/1/3 74/1/3 73/1/3
f 77/2/3 73/2/3 76/2/3
f 78/1/3 74/1/3 77/1/3
f 82/3/3 80/3/3 79/3/3
f 83/3/3 80/3/3 82/3/3
f 85/3/3 82/3/3 81/3/3
f 86/3/3 84/3/3 83/3/3
f 87/3/3 85/3/3 81/3/3
f 88/3/3 84/3/3 86/3/3
f 89/3/3 87/3/3 81/3/3
f 90/3/3 87/3/3 89/3/3
f 93/3/3 84/3/3 88/3/3
f 94/3/3 84/3/3 93/3/3
f 95/3/3 92/3/3 91/3/3
f 95/3/3 93/3/3 92/3/3
f 95/3/3 91/3/3 90/3/3
f 96/3/3 93/3/3 95/3/3
f 97/3/4 98/3/4 100/3/4
f 100/3/4 98/3/4 101/3/4
f 99/3/4 100/3/4 103/3/4
f 101/3/4 102/3/4 104/3/4
f 99/3/4 103/3/4 105/3/4
f 104/3/4 102/3/4 106/3/4
f 99/3/4 105/3/4 107/3/4
f 107/3/4 105/3/4 108/3/4
f 106/3/4 102/3/4 111/3/4
f 111/3/4 102/3/4 112/3/4
f 109/3/4 110/3/4 113/3/4
f 110/3/4 111/3/4 113/3/4
f 108/3/4 109/3/4 113/3/4
f 113/3/4 111/3/4 114/3/4
f 115/1/4 116/1/4 117/1/4
f 117/1/4 116/1/4 118/1/4
f 115/1/4 117/1/4 119/1/4
f 117/2/4 118/2/4 119/2/4
f 118/1/4 116/1/4 120/1/4
f 119/2/4 118/2/4 120/2/4
f 115/1/4 119/1/4 121/1/4
f 119/1/4 120/1/4 121/1/4
f 121/1/4 120/1/4 122/1/4
f 120/1/4 116/1/4 123/1/4
f 122/1/4 120/1/4 123/1/4
f 123/1/4 116/1/4 124/1/4
f 121/2/4 122/2/4 125/2/4
f 115/1/4 121/1/4 125/1/4
f 122/1/4 123/1/4 126/1/4
f 125/2/4 122/2/4 126/2/4
f 123/2/4 124/2/4 127/2/4
f 126/1/4 123/1/4 127/1/4
f 124/1/4 116/1/4 128/1/4
f 127/2/4 124/2/4 128/2/4
f 126/1/4 127/1/4 129/1/4
f 125/1/4 126/1/4 129/1/4
f 127/1/4 128/1/4 129/1/4
f 115/1/4 125/1/4 129/1/4
f 129/1/4 128/1/4 130/1/4
f 130/1/4 128/1/4 131/1/4
f 128/1/4 116/1/4 132/1/4
f 131/1/4 128/1/4 132/1/4
f 115/1/4 129/1/4 133/1/4
f 129/2/4 130/2/4 133/2/4
f 130/1/4 131/1/4 134/1/4
f 133/2/4 130/2/4 134/2/4
f 134/1/4 131/1/4 135/1/4
f 135/1/4 131/1/4 136/1/4
f 131/2/4 132/2/4 137/2/4
f 136/1/4 131/1/4 137/1/4
f 132/1/4 116/1/4 138/1/4
f 137/2/4 132/2/4 138/2/4
f 135/2/4 136/2/4 139/2/4
f 133/1/4 134/1/4 139/1/4
f 134/1/4 135/1/4 139/1/4
f 136/1/4 137/1/4 140/1/4
f 139/2/4 136/2/4 140/2/4
f 137/1/4 138/1/4 140/1/4
f 115/1/4 133/1/4 141/1/4
f 133/1/4 139/1/4 141/1/4
f 139/1/4 140/1/4 141/1/4
f 141/1/4 140/1/4 142/1/4
f 140/1/4 138/1/4 143/1/4
f 142/1/4 140/1/4 143/1/4
f 138/1/4 116/1/4 144/1/4
f 143/1/4 138/1/4 144/1/4
f 141/2/4 142/2/4 145/2/4
f 142/1/4 143/1/4 146/1/4
f 145/2/4 142/2/4 146/2/4
f 143/2/4 144/2/4 147/2/4
f 146/1/4 143/1/4 147/1/4
f 147/2/4 144/2/4 148/2/4
f 145/1/4 146/1/4 149/1/4
f 146/2/4 147/2/4 150/2/4
f 149/1/4 146/1/4 150/1/4
f 147/1/4 148/1/4 151/1/4
f 150/2/4 147/2/4 151/2/4
f 151/1/4 148/1/4 152/1/4
f 155/3/5 154/3/5 153/3/5
f 156/3/5 154/3/5 155/3/5
f 162/1/5 158/1/5 157/1/5
f 163/2/5 159/2/5 158/2/5
f 163/1/5 158/1/5 162/1/5
f 164/1/5 160/1/5 159/1/5
f 164/2/5 159/2/5 163/2/5
f 165/1/5 160/1/5 164/1/5
f 167/3/5 162/3/5 161/3/5
f 168/3/5 162/3/5 167/3/5
f 171/3/5 166/3/5 165/3/5
f 172/3/5 166/3/5 171/3/5
f 173/1/5 169/1/5 168/1/5
f 174/2/5 170/2/5 169/2/5
f 174/1/5 169/1/5 173/1/5
f 175/1/5 171/1/5 170/1/5
f 175/2/5 170/2/5 174/2/5
f 176/1/5 171/1/5 175/1/5
f 177/1/6 178/1/6 182/1/6
f 178/2/6 179/2/6 183/2/6
f 182/1/6 178/1/6 183/1/6
f 179/1/6 180/1/6 184/1/6
f 183/2/6 179/2/6 184/2/6
f 184/1/6 180/1/6 185/1/6
f 181/3/6 182/3/6 187/3/6
f 187/3/6 182/3/6 188/3/6
f 185/3/6 186/3/6 191/3/6
f 191/3/6 186/3/6 192/3/6
f 188/1/6 189/1/6 193/1/6
f 189/2/6 190/2/6 194/2/6
f 193/1/6 189/1/6 194/1/6
f 190/1/6 191/1/6 195/1/6
f 194/2/6 190/2/6 195/2/6
f 195/1/6 191/1/6 196/1/6
f 197/3/6 198/3/6 199/3/6
f 199/3/6 198/3/6 200/3/6
