# MagicaVoxel @ Ephtracy

# group
o Decoration - Table - Mug

# material
mtllib Medieval Assets-239-Decoration - Table - Mug.mtl
usemtl palette

# normals
vn -1 0 0
vn 1 0 0
vn 0 0 1
vn 0 0 -1
vn 0 -1 0
vn 0 1 0

# texcoords
vt 0.193359 0.5
vt 0.197266 0.5
vt 0.201172 0.5

# verts
v -12.5 -0.2 34
v -12.5 -0.2 33.9
v -12.5 -0.2 33.8
v -12.5 -0.1 34
v -12.5 -0.1 33.9
v -12.5 0 33.9
v -12.5 0 33.8
v -12.5 0.1 34
v -12.5 0.1 33.9
v -12.5 0.1 33.8
v -12.5 0.2 34
v -12.5 0.2 33.9
v -12.5 0.2 33.8
v -12.5 0.3 34
v -12.5 0.3 33.9
v -12.5 0.3 33.8
v -12.5 0.4 34
v -12.5 0.4 33.9
v -12.5 0.5 34
v -12.5 0.5 33.8
v -12.4 -0.3 34
v -12.4 -0.3 33.8
v -12.4 -0.2 34.1
v -12.4 -0.2 34
v -12.4 -0.2 33.9
v -12.4 -0.2 33.8
v -12.4 -0.2 33.7
v -12.4 -0.1 34.1
v -12.4 -0.1 34
v -12.4 -0.1 33.8
v -12.4 -0.1 33.7
v -12.4 0 33.8
v -12.4 0 33.7
v -12.4 0.1 34.1
v -12.4 0.1 34
v -12.4 0.1 33.8
v -12.4 0.1 33.7
v -12.4 0.2 34
v -12.4 0.2 33.8
v -12.4 0.2 33.7
v -12.4 0.3 34
v -12.4 0.3 33.8
v -12.4 0.3 33.7
v -12.4 0.4 34.1
v -12.4 0.4 34
v -12.4 0.5 34.1
v -12.4 0.5 34
v -12.4 0.5 33.8
v -12.4 0.5 33.7
v -12.3 -0.3 34.1
v -12.3 -0.3 34
v -12.3 -0.3 33.8
v -12.3 -0.3 33.7
v -12.3 -0.2 34.2
v -12.3 -0.2 34.1
v -12.3 -0.2 34
v -12.3 -0.2 33.8
v -12.3 -0.2 33.7
v -12.3 -0.2 33.6
v -12.3 -0.1 34.1
v -12.3 -0.1 33.7
v -12.3 0 34.2
v -12.3 0 34.1
v -12.3 0 33.7
v -12.3 0 33.6
v -12.3 0.1 34.1
v -12.3 0.1 33.7
v -12.3 0.2 34.2
v -12.3 0.2 34.1
v -12.3 0.2 33.7
v -12.3 0.3 34.2
v -12.3 0.3 34.1
v -12.3 0.3 33.7
v -12.3 0.3 33.6
v -12.3 0.4 34.1
v -12.3 0.5 34.2
v -12.3 0.5 34.1
v -12.3 0.5 33.7
v -12.3 0.5 33.6
v -12.1 -0.2 34.1
v -12.1 -0.2 34
v -12.1 -0.2 33.8
v -12.1 -0.2 33.7
v -12.1 -0.1 34.1
v -12.1 0 34.1
v -12.1 0 34
v -12.1 0 33.8
v -12.1 0 33.7
v -12.1 0.1 34.1
v -12.1 0.1 34
v -12.1 0.1 33.8
v -12.1 0.1 33.7
v -12.1 0.2 33.7
v -12.1 0.5 34.1
v -12.1 0.5 34
v -12.1 0.5 33.8
v -12.1 0.5 33.7
v -12 -0.2 34
v -12 -0.2 33.8
v -12 0 34
v -12 0 33.8
v -12 0.1 34
v -12 0.1 33.9
v -12 0.1 33.8
v -12 0.3 33.9
v -12 0.3 33.8
v -12 0.5 34
v -12 0.5 33.8
v -11.8 0 34
v -11.8 0 33.8
v -11.8 0.3 34
v -11.8 0.3 33.8
v -12.4 -0.2 34
v -12.4 -0.2 33.9
v -12.4 -0.2 33.8
v -12.4 -0.1 34
v -12.4 -0.1 33.9
v -12.4 -0.1 33.8
v -12.4 0 34
v -12.4 0 33.8
v -12.4 0.1 34
v -12.4 0.1 33.9
v -12.4 0.1 33.8
v -12.4 0.2 34
v -12.4 0.2 33.9
v -12.4 0.2 33.8
v -12.4 0.3 34
v -12.4 0.3 33.9
v -12.4 0.3 33.8
v -12.4 0.4 34
v -12.4 0.4 33.9
v -12.4 0.5 34
v -12.4 0.5 33.8
v -12.3 -0.2 34.1
v -12.3 -0.2 34
v -12.3 -0.2 33.8
v -12.3 -0.2 33.7
v -12.3 -0.1 34.1
v -12.3 -0.1 34
v -12.3 -0.1 33.8
v -12.3 -0.1 33.7
v -12.3 0 34.1
v -12.3 0 34
v -12.3 0 33.8
v -12.3 0 33.7
v -12.3 0.1 34.1
v -12.3 0.1 34
v -12.3 0.1 33.8
v -12.3 0.1 33.7
v -12.3 0.2 34.1
v -12.3 0.2 33.8
v -12.3 0.2 33.7
v -12.3 0.3 34.1
v -12.3 0.3 33.8
v -12.3 0.3 33.7
v -12.3 0.4 34.1
v -12.3 0.4 34
v -12.3 0.5 34.1
v -12.3 0.5 34
v -12.3 0.5 33.8
v -12.3 0.5 33.7
v -12.1 -0.3 34.1
v -12.1 -0.3 34
v -12.1 -0.3 33.8
v -12.1 -0.3 33.7
v -12.1 -0.2 34.2
v -12.1 -0.2 34.1
v -12.1 -0.2 34
v -12.1 -0.2 33.8
v -12.1 -0.2 33.7
v -12.1 -0.2 33.6
v -12.1 -0.1 34.2
v -12.1 -0.1 34.1
v -12.1 0.1 34.2
v -12.1 0.1 34.1
v -12.1 0.2 33.7
v -12.1 0.2 33.6
v -12.1 0.5 34.2
v -12.1 0.5 34.1
v -12.1 0.5 33.7
v -12.1 0.5 33.6
v -12 -0.3 34
v -12 -0.3 33.8
v -12 -0.2 34.1
v -12 -0.2 34
v -12 -0.2 33.8
v -12 -0.2 33.7
v -12 0 33.8
v -12 0.3 33.8
v -12 0.5 34.1
v -12 0.5 34
v -12 0.5 33.8
v -12 0.5 33.7
v -11.9 -0.2 34
v -11.9 -0.2 33.8
v -11.9 -0.1 34
v -11.9 -0.1 33.8
v -11.9 0 34
v -11.9 0 33.9
v -11.9 0 33.8
v -11.9 0.3 34
v -11.9 0.3 33.9
v -11.9 0.3 33.8
v -11.9 0.4 34
v -11.9 0.4 33.8
v -11.9 0.5 34
v -11.9 0.5 33.8
v -11.7 -0.1 34
v -11.7 -0.1 33.8
v -11.7 0.4 34
v -11.7 0.4 33.8
v -12.3 -0.2 34.2
v -12.3 0 34.2
v -12.3 0.2 34.2
v -12.3 0.3 34.2
v -12.3 0.5 34.2
v -12.2 -0.2 34.2
v -12.2 -0.1 34.2
v -12.2 0 34.2
v -12.2 0.1 34.2
v -12.2 0.2 34.2
v -12.2 0.3 34.2
v -12.1 -0.2 34.2
v -12.1 -0.1 34.2
v -12.1 0.1 34.2
v -12.1 0.5 34.2
v -12.4 -0.2 34.1
v -12.4 -0.1 34.1
v -12.4 0.1 34.1
v -12.4 0.4 34.1
v -12.4 0.5 34.1
v -12.3 -0.3 34.1
v -12.3 -0.2 34.1
v -12.3 -0.1 34.1
v -12.3 0 34.1
v -12.3 0.1 34.1
v -12.3 0.2 34.1
v -12.3 0.3 34.1
v -12.3 0.4 34.1
v -12.3 0.5 34.1
v -12.2 -0.2 34.1
v -12.1 -0.3 34.1
v -12.1 -0.2 34.1
v -12.1 -0.1 34.1
v -12.1 0.1 34.1
v -12.1 0.5 34.1
v -12 -0.2 34.1
v -12 0.5 34.1
v -12.5 -0.2 34
v -12.5 -0.1 34
v -12.5 0.1 34
v -12.5 0.2 34
v -12.5 0.3 34
v -12.5 0.4 34
v -12.5 0.5 34
v -12.4 -0.3 34
v -12.4 -0.2 34
v -12.4 -0.1 34
v -12.4 0.1 34
v -12.4 0.2 34
v -12.4 0.3 34
v -12.4 0.4 34
v -12.4 0.5 34
v -12.3 -0.3 34
v -12.3 -0.2 34
v -12.1 -0.3 34
v -12.1 -0.2 34
v -12 -0.3 34
v -12 -0.2 34
v -12 0.5 34
v -11.9 -0.2 34
v -11.9 -0.1 34
v -11.9 0 34
v -11.9 0.3 34
v -11.9 0.4 34
v -11.9 0.5 34
v -11.8 0 34
v -11.8 0.3 34
v -11.7 -0.1 34
v -11.7 0.4 34
v -12.4 -0.2 33.8
v -12.4 -0.1 33.8
v -12.4 0 33.8
v -12.4 0.1 33.8
v -12.4 0.2 33.8
v -12.4 0.3 33.8
v -12.4 0.5 33.8
v -12.3 -0.2 33.8
v -12.3 -0.1 33.8
v -12.3 0 33.8
v -12.3 0.1 33.8
v -12.3 0.2 33.8
v -12.3 0.3 33.8
v -12.3 0.5 33.8
v -12.1 -0.2 33.8
v -12.1 0 33.8
v -12.1 0.1 33.8
v -12.1 0.5 33.8
v -12 -0.2 33.8
v -12 0 33.8
v -12 0.1 33.8
v -12 0.3 33.8
v -12 0.5 33.8
v -12.3 -0.2 33.7
v -12.3 -0.1 33.7
v -12.3 0 33.7
v -12.3 0.1 33.7
v -12.3 0.2 33.7
v -12.3 0.3 33.7
v -12.3 0.5 33.7
v -12.2 -0.2 33.7
v -12.2 0 33.7
v -12.2 0.2 33.7
v -12.2 0.3 33.7
v -12.1 -0.2 33.7
v -12.1 0 33.7
v -12.1 0.1 33.7
v -12.1 0.2 33.7
v -12.1 0.5 33.7
v -12.3 -0.2 34.1
v -12.3 -0.1 34.1
v -12.3 0 34.1
v -12.3 0.1 34.1
v -12.3 0.2 34.1
v -12.3 0.3 34.1
v -12.3 0.4 34.1
v -12.3 0.5 34.1
v -12.2 -0.2 34.1
v -12.2 -0.1 34.1
v -12.2 0.2 34.1
v -12.2 0.3 34.1
v -12.1 -0.2 34.1
v -12.1 -0.1 34.1
v -12.1 0 34.1
v -12.1 0.1 34.1
v -12.1 0.5 34.1
v -12.4 -0.2 34
v -12.4 -0.1 34
v -12.4 0 34
v -12.4 0.1 34
v -12.4 0.2 34
v -12.4 0.3 34
v -12.4 0.4 34
v -12.4 0.5 34
v -12.3 -0.2 34
v -12.3 -0.1 34
v -12.3 0 34
v -12.3 0.1 34
v -12.3 0.4 34
v -12.3 0.5 34
v -12.1 -0.2 34
v -12.1 0 34
v -12.1 0.1 34
v -12.1 0.5 34
v -12 -0.2 34
v -12 0 34
v -12 0.1 34
v -12 0.5 34
v -12.5 -0.2 33.8
v -12.5 0 33.8
v -12.5 0.1 33.8
v -12.5 0.2 33.8
v -12.5 0.3 33.8
v -12.5 0.5 33.8
v -12.4 -0.3 33.8
v -12.4 -0.2 33.8
v -12.4 -0.1 33.8
v -12.4 0 33.8
v -12.4 0.1 33.8
v -12.4 0.2 33.8
v -12.4 0.3 33.8
v -12.4 0.5 33.8
v -12.3 -0.3 33.8
v -12.3 -0.2 33.8
v -12.1 -0.3 33.8
v -12.1 -0.2 33.8
v -12 -0.3 33.8
v -12 -0.2 33.8
v -12 0 33.8
v -12 0.3 33.8
v -12 0.5 33.8
v -11.9 -0.2 33.8
v -11.9 -0.1 33.8
v -11.9 0 33.8
v -11.9 0.3 33.8
v -11.9 0.4 33.8
v -11.9 0.5 33.8
v -11.8 0 33.8
v -11.8 0.3 33.8
v -11.7 -0.1 33.8
v -11.7 0.4 33.8
v -12.4 -0.2 33.7
v -12.4 -0.1 33.7
v -12.4 0 33.7
v -12.4 0.1 33.7
v -12.4 0.2 33.7
v -12.4 0.3 33.7
v -12.4 0.5 33.7
v -12.3 -0.3 33.7
v -12.3 -0.2 33.7
v -12.3 -0.1 33.7
v -12.3 0 33.7
v -12.3 0.1 33.7
v -12.3 0.2 33.7
v -12.3 0.3 33.7
v -12.3 0.5 33.7
v -12.2 -0.2 33.7
v -12.1 -0.3 33.7
v -12.1 -0.2 33.7
v -12.1 0.2 33.7
v -12.1 0.5 33.7
v -12 -0.2 33.7
v -12 0.5 33.7
v -12.3 -0.2 33.6
v -12.3 0 33.6
v -12.3 0.3 33.6
v -12.3 0.5 33.6
v -12.2 -0.2 33.6
v -12.2 0 33.6
v -12.2 0.2 33.6
v -12.2 0.3 33.6
v -12.1 -0.2 33.6
v -12.1 0.2 33.6
v -12.1 0.5 33.6
v -12.3 -0.3 34.1
v -12.1 -0.3 34.1
v -12.4 -0.3 34
v -12.3 -0.3 34
v -12.1 -0.3 34
v -12 -0.3 34
v -12.4 -0.3 33.8
v -12.3 -0.3 33.8
v -12.1 -0.3 33.8
v -12 -0.3 33.8
v -12.3 -0.3 33.7
v -12.1 -0.3 33.7
v -12.3 -0.2 34.2
v -12.2 -0.2 34.2
v -12.1 -0.2 34.2
v -12.4 -0.2 34.1
v -12.3 -0.2 34.1
v -12.2 -0.2 34.1
v -12.1 -0.2 34.1
v -12 -0.2 34.1
v -12.5 -0.2 34
v -12.4 -0.2 34
v -12.3 -0.2 34
v -12.1 -0.2 34
v -12 -0.2 34
v -11.9 -0.2 34
v -12.5 -0.2 33.9
v -12.4 -0.2 33.9
v -12.5 -0.2 33.8
v -12.4 -0.2 33.8
v -12.3 -0.2 33.8
v -12.1 -0.2 33.8
v -12 -0.2 33.8
v -11.9 -0.2 33.8
v -12.4 -0.2 33.7
v -12.3 -0.2 33.7
v -12.2 -0.2 33.7
v -12.1 -0.2 33.7
v -12 -0.2 33.7
v -12.3 -0.2 33.6
v -12.2 -0.2 33.6
v -12.1 -0.2 33.6
v -11.9 -0.1 34
v -11.7 -0.1 34
v -11.9 -0.1 33.8
v -11.7 -0.1 33.8
v -12.3 0 34.1
v -12.1 0 34.1
v -12.4 0 34
v -12.3 0 34
v -12.1 0 34
v -12 0 34
v -12.4 0 33.8
v -12.3 0 33.8
v -12.1 0 33.8
v -12 0 33.8
v -12.3 0 33.7
v -12.2 0 33.7
v -12.1 0 33.7
v -11.9 0.3 34
v -11.8 0.3 34
v -11.9 0.3 33.9
v -11.9 0.3 33.8
v -11.8 0.3 33.8
v -12.3 -0.2 34.1
v -12.2 -0.2 34.1
v -12.1 -0.2 34.1
v -12.4 -0.2 34
v -12.3 -0.2 34
v -12.1 -0.2 34
v -12 -0.2 34
v -12.4 -0.2 33.9
v -12.4 -0.2 33.8
v -12.3 -0.2 33.8
v -12.1 -0.2 33.8
v -12 -0.2 33.8
v -12.3 -0.2 33.7
v -12.2 -0.2 33.7
v -12.1 -0.2 33.7
v -11.9 0 34
v -11.8 0 34
v -11.9 0 33.9
v -11.9 0 33.8
v -11.8 0 33.8
v -12.3 0.1 34.1
v -12.1 0.1 34.1
v -12.4 0.1 34
v -12.3 0.1 34
v -12.1 0.1 34
v -12 0.1 34
v -12.4 0.1 33.9
v -12 0.1 33.9
v -12.4 0.1 33.8
v -12.3 0.1 33.8
v -12.1 0.1 33.8
v -12 0.1 33.8
v -12.3 0.1 33.7
v -12.1 0.1 33.7
v -11.9 0.4 34
v -11.7 0.4 34
v -11.9 0.4 33.8
v -11.7 0.4 33.8
v -12.3 0.5 34.2
v -12.1 0.5 34.2
v -12.4 0.5 34.1
v -12.3 0.5 34.1
v -12.1 0.5 34.1
v -12 0.5 34.1
v -12.5 0.5 34
v -12.4 0.5 34
v -12.3 0.5 34
v -12.1 0.5 34
v -12 0.5 34
v -11.9 0.5 34
v -12.5 0.5 33.8
v -12.4 0.5 33.8
v -12.3 0.5 33.8
v -12.1 0.5 33.8
v -12 0.5 33.8
v -11.9 0.5 33.8
v -12.4 0.5 33.7
v -12.3 0.5 33.7
v -12.1 0.5 33.7
v -12 0.5 33.7
v -12.3 0.5 33.6
v -12.1 0.5 33.6

# faces
f 4/3/1 2/3/1 1/3/1
f 5/1/1 3/1/1 2/1/1
f 5/3/1 2/3/1 4/3/1
f 6/1/1 5/1/1 4/1/1
f 6/1/1 3/1/1 5/1/1
f 7/1/1 3/1/1 6/1/1
f 8/1/1 6/1/1 4/1/1
f 9/3/1 7/3/1 6/3/1
f 9/1/1 6/1/1 8/1/1
f 10/3/1 7/3/1 9/3/1
f 11/3/1 9/3/1 8/3/1
f 12/1/1 10/1/1 9/1/1
f 12/3/1 9/3/1 11/3/1
f 13/1/1 10/1/1 12/1/1
f 14/1/1 12/1/1 11/1/1
f 15/3/1 13/3/1 12/3/1
f 15/1/1 12/1/1 14/1/1
f 16/3/1 13/3/1 15/3/1
f 17/3/1 15/3/1 14/3/1
f 18/1/1 16/1/1 15/1/1
f 18/3/1 15/3/1 17/3/1
f 19/1/1 18/1/1 17/1/1
f 20/1/1 16/1/1 18/1/1
f 20/1/1 18/1/1 19/1/1
f 24/3/1 22/3/1 21/3/1
f 25/3/1 22/3/1 24/3/1
f 26/3/1 22/3/1 25/3/1
f 28/3/1 24/3/1 23/3/1
f 29/3/1 24/3/1 28/3/1
f 30/3/1 27/3/1 26/3/1
f 31/3/1 27/3/1 30/3/1
f 32/1/1 31/1/1 30/1/1
f 33/1/1 31/1/1 32/1/1
f 34/1/1 29/1/1 28/1/1
f 35/1/1 29/1/1 34/1/1
f 36/3/1 33/3/1 32/3/1
f 37/3/1 33/3/1 36/3/1
f 38/3/1 35/3/1 34/3/1
f 39/1/1 37/1/1 36/1/1
f 40/1/1 37/1/1 39/1/1
f 41/3/1 38/3/1 34/3/1
f 42/3/1 40/3/1 39/3/1
f 43/3/1 40/3/1 42/3/1
f 44/3/1 41/3/1 34/3/1
f 45/3/1 41/3/1 44/3/1
f 46/1/1 45/1/1 44/1/1
f 47/1/1 45/1/1 46/1/1
f 48/1/1 43/1/1 42/1/1
f 49/1/1 43/1/1 48/1/1
f 55/1/1 51/1/1 50/1/1
f 56/1/1 51/1/1 55/1/1
f 57/3/1 53/3/1 52/3/1
f 58/3/1 53/3/1 57/3/1
f 60/3/1 55/3/1 54/3/1
f 61/3/1 59/3/1 58/3/1
f 62/3/1 60/3/1 54/3/1
f 63/3/1 60/3/1 62/3/1
f 64/3/1 59/3/1 61/3/1
f 65/3/1 59/3/1 64/3/1
f 66/1/1 63/1/1 62/1/1
f 67/1/1 65/1/1 64/1/1
f 68/1/1 66/1/1 62/1/1
f 69/1/1 66/1/1 68/1/1
f 70/1/1 65/1/1 67/1/1
f 71/3/1 69/3/1 68/3/1
f 72/3/1 69/3/1 71/3/1
f 73/1/1 65/1/1 70/1/1
f 74/1/1 65/1/1 73/1/1
f 75/1/1 72/1/1 71/1/1
f 76/1/1 75/1/1 71/1/1
f 77/1/1 75/1/1 76/1/1
f 78/3/1 74/3/1 73/3/1
f 79/3/1 74/3/1 78/3/1
f 84/1/1 81/1/1 80/1/1
f 85/1/1 81/1/1 84/1/1
f 86/1/1 81/1/1 85/1/1
f 87/3/1 83/3/1 82/3/1
f 88/3/1 83/3/1 87/3/1
f 93/3/1 92/3/1 91/3/1
f 94/1/1 90/1/1 89/1/1
f 95/1/1 90/1/1 94/1/1
f 96/3/1 93/3/1 91/3/1
f 97/3/1 93/3/1 96/3/1
f 100/1/1 99/1/1 98/1/1
f 101/1/1 99/1/1 100/1/1
f 105/1/1 103/1/1 102/1/1
f 105/3/1 104/3/1 103/3/1
f 106/3/1 104/3/1 105/3/1
f 107/1/1 105/1/1 102/1/1
f 107/1/1 106/1/1 105/1/1
f 108/1/1 106/1/1 107/1/1
f 111/2/1 110/2/1 109/2/1
f 112/2/1 110/2/1 111/2/1
f 113/3/2 114/3/2 116/3/2
f 114/1/2 115/1/2 117/1/2
f 116/3/2 114/3/2 117/3/2
f 117/1/2 115/1/2 118/1/2
f 116/1/2 117/1/2 119/1/2
f 117/1/2 118/1/2 119/1/2
f 119/1/2 118/1/2 120/1/2
f 121/3/2 122/3/2 124/3/2
f 122/1/2 123/1/2 125/1/2
f 124/3/2 122/3/2 125/3/2
f 125/1/2 123/1/2 126/1/2
f 124/1/2 125/1/2 127/1/2
f 125/3/2 126/3/2 128/3/2
f 127/1/2 125/1/2 128/1/2
f 128/3/2 126/3/2 129/3/2
f 127/3/2 128/3/2 130/3/2
f 128/1/2 129/1/2 131/1/2
f 130/3/2 128/3/2 131/3/2
f 130/1/2 131/1/2 132/1/2
f 131/1/2 129/1/2 133/1/2
f 132/1/2 131/1/2 133/1/2
f 134/3/2 135/3/2 138/3/2
f 138/3/2 135/3/2 139/3/2
f 136/3/2 137/3/2 140/3/2
f 140/3/2 137/3/2 141/3/2
f 138/1/2 139/1/2 142/1/2
f 142/1/2 139/1/2 143/1/2
f 140/1/2 141/1/2 144/1/2
f 144/1/2 141/1/2 145/1/2
f 146/3/2 147/3/2 150/3/2
f 148/1/2 149/1/2 151/1/2
f 151/1/2 149/1/2 152/1/2
f 150/3/2 147/3/2 153/3/2
f 151/3/2 152/3/2 154/3/2
f 154/3/2 152/3/2 155/3/2
f 153/3/2 147/3/2 156/3/2
f 156/3/2 147/3/2 157/3/2
f 156/1/2 157/1/2 158/1/2
f 158/1/2 157/1/2 159/1/2
f 154/1/2 155/1/2 160/1/2
f 160/1/2 155/1/2 161/1/2
f 162/1/2 163/1/2 167/1/2
f 167/1/2 163/1/2 168/1/2
f 164/3/2 165/3/2 169/3/2
f 169/3/2 165/3/2 170/3/2
f 166/1/2 167/1/2 172/1/2
f 172/1/2 167/1/2 173/1/2
f 172/3/2 173/3/2 174/3/2
f 174/3/2 173/3/2 175/3/2
f 170/1/2 171/1/2 176/1/2
f 176/1/2 171/1/2 177/1/2
f 174/1/2 175/1/2 178/1/2
f 178/1/2 175/1/2 179/1/2
f 176/3/2 177/3/2 180/3/2
f 180/3/2 177/3/2 181/3/2
f 182/3/2 183/3/2 185/3/2
f 185/3/2 183/3/2 186/3/2
f 186/3/2 187/3/2 188/3/2
f 188/3/2 187/3/2 189/3/2
f 184/1/2 185/1/2 190/1/2
f 190/1/2 185/1/2 191/1/2
f 189/3/2 187/3/2 192/3/2
f 192/3/2 187/3/2 193/3/2
f 194/1/2 195/1/2 196/1/2
f 196/1/2 195/1/2 197/1/2
f 198/1/2 199/1/2 201/1/2
f 199/3/2 200/3/2 202/3/2
f 201/1/2 199/1/2 202/1/2
f 202/3/2 200/3/2 203/3/2
f 204/1/2 205/1/2 206/1/2
f 206/1/2 205/1/2 207/1/2
f 208/2/2 209/2/2 210/2/2
f 210/2/2 209/2/2 211/2/2
f 217/3/3 213/3/3 212/3/3
f 218/3/3 213/3/3 217/3/3
f 219/1/3 214/1/3 213/1/3
f 219/3/3 213/3/3 218/3/3
f 220/1/3 214/1/3 219/1/3
f 221/3/3 215/3/3 214/3/3
f 221/1/3 214/1/3 220/1/3
f 222/1/3 216/1/3 215/1/3
f 222/3/3 215/3/3 221/3/3
f 223/1/3 218/1/3 217/1/3
f 224/3/3 220/3/3 219/3/3
f 224/1/3 218/1/3 223/1/3
f 224/3/3 219/3/3 218/3/3
f 225/1/3 221/1/3 220/1/3
f 225/3/3 220/3/3 224/3/3
f 225/1/3 222/1/3 221/1/3
f 226/1/3 216/1/3 222/1/3
f 226/1/3 222/1/3 225/1/3
f 233/3/3 228/3/3 227/3/3
f 234/1/3 229/1/3 228/1/3
f 234/3/3 228/3/3 233/3/3
f 235/1/3 229/1/3 234/1/3
f 236/3/3 230/3/3 229/3/3
f 236/1/3 229/1/3 235/1/3
f 237/3/3 230/3/3 236/3/3
f 238/3/3 230/3/3 237/3/3
f 239/1/3 231/1/3 230/1/3
f 239/3/3 230/3/3 238/3/3
f 240/1/3 231/1/3 239/1/3
f 241/1/3 233/1/3 232/1/3
f 242/1/3 241/1/3 232/1/3
f 243/1/3 241/1/3 242/1/3
f 247/1/3 246/1/3 245/1/3
f 247/1/3 245/1/3 244/1/3
f 247/1/3 244/1/3 243/1/3
f 248/1/3 246/1/3 247/1/3
f 257/3/3 250/3/3 249/3/3
f 258/1/3 251/1/3 250/1/3
f 258/3/3 250/3/3 257/3/3
f 259/3/3 252/3/3 251/3/3
f 259/1/3 251/1/3 258/1/3
f 260/1/3 253/1/3 252/1/3
f 260/3/3 252/3/3 259/3/3
f 261/3/3 254/3/3 253/3/3
f 261/1/3 253/1/3 260/1/3
f 262/1/3 255/1/3 254/1/3
f 262/3/3 254/3/3 261/3/3
f 263/1/3 255/1/3 262/1/3
f 264/3/3 257/3/3 256/3/3
f 265/3/3 257/3/3 264/3/3
f 268/3/3 267/3/3 266/3/3
f 269/3/3 267/3/3 268/3/3
f 271/1/3 270/1/3 269/1/3
f 272/1/3 270/1/3 271/1/3
f 273/1/3 270/1/3 272/1/3
f 274/1/3 270/1/3 273/1/3
f 275/1/3 270/1/3 274/1/3
f 276/1/3 270/1/3 275/1/3
f 277/2/3 273/2/3 272/2/3
f 278/2/3 275/2/3 274/2/3
f 279/2/3 277/2/3 272/2/3
f 279/2/3 278/2/3 277/2/3
f 280/2/3 275/2/3 278/2/3
f 280/2/3 278/2/3 279/2/3
f 288/3/3 282/3/3 281/3/3
f 289/1/3 283/1/3 282/1/3
f 289/3/3 282/3/3 288/3/3
f 290/1/3 283/1/3 289/1/3
f 291/1/3 285/1/3 284/1/3
f 292/3/3 286/3/3 285/3/3
f 292/1/3 285/1/3 291/1/3
f 293/1/3 287/1/3 286/1/3
f 293/3/3 286/3/3 292/3/3
f 294/1/3 287/1/3 293/1/3
f 299/3/3 296/3/3 295/3/3
f 300/3/3 296/3/3 299/3/3
f 301/3/3 298/3/3 297/3/3
f 302/3/3 298/3/3 301/3/3
f 303/3/3 298/3/3 302/3/3
f 311/3/3 305/3/3 304/3/3
f 311/3/3 306/3/3 305/3/3
f 312/3/3 306/3/3 311/3/3
f 313/1/3 309/1/3 308/1/3
f 313/1/3 308/1/3 307/1/3
f 314/3/3 310/3/3 309/3/3
f 314/1/3 309/1/3 313/1/3
f 315/1/3 312/1/3 311/1/3
f 316/1/3 312/1/3 315/1/3
f 317/1/3 313/1/3 307/1/3
f 318/3/3 314/3/3 313/3/3
f 318/1/3 313/1/3 317/1/3
f 319/3/3 310/3/3 314/3/3
f 319/3/3 314/3/3 318/3/3
f 320/3/4 321/3/4 328/3/4
f 321/3/4 322/3/4 328/3/4
f 328/3/4 322/3/4 329/3/4
f 323/1/4 324/1/4 330/1/4
f 324/3/4 325/3/4 330/3/4
f 326/1/4 327/1/4 331/1/4
f 330/3/4 325/3/4 331/3/4
f 325/1/4 326/1/4 331/1/4
f 328/1/4 329/1/4 332/1/4
f 329/3/4 322/3/4 333/3/4
f 332/1/4 329/1/4 333/1/4
f 333/3/4 322/3/4 334/3/4
f 323/1/4 330/1/4 335/1/4
f 330/1/4 331/1/4 335/1/4
f 331/1/4 327/1/4 336/1/4
f 335/1/4 331/1/4 336/1/4
f 337/3/4 338/3/4 345/3/4
f 338/1/4 339/1/4 346/1/4
f 345/3/4 338/3/4 346/3/4
f 346/1/4 339/1/4 347/1/4
f 340/3/4 341/3/4 348/3/4
f 341/3/4 342/3/4 348/3/4
f 342/3/4 343/3/4 348/3/4
f 343/1/4 344/1/4 349/1/4
f 348/3/4 343/3/4 349/3/4
f 349/1/4 344/1/4 350/1/4
f 351/1/4 352/1/4 355/1/4
f 355/1/4 352/1/4 356/1/4
f 353/1/4 354/1/4 357/1/4
f 357/1/4 354/1/4 358/1/4
f 359/1/4 360/1/4 366/1/4
f 366/1/4 360/1/4 367/1/4
f 360/3/4 361/3/4 368/3/4
f 367/1/4 360/1/4 368/1/4
f 361/1/4 362/1/4 369/1/4
f 368/3/4 361/3/4 369/3/4
f 362/3/4 363/3/4 370/3/4
f 369/1/4 362/1/4 370/1/4
f 363/1/4 364/1/4 371/1/4
f 370/3/4 363/3/4 371/3/4
f 371/1/4 364/1/4 372/1/4
f 365/3/4 366/3/4 373/3/4
f 373/3/4 366/3/4 374/3/4
f 375/3/4 376/3/4 377/3/4
f 377/3/4 376/3/4 378/3/4
f 378/1/4 379/1/4 382/1/4
f 382/1/4 379/1/4 383/1/4
f 379/3/4 380/3/4 384/3/4
f 383/1/4 379/1/4 384/1/4
f 380/1/4 381/1/4 385/1/4
f 384/3/4 380/3/4 385/3/4
f 385/1/4 381/1/4 386/1/4
f 386/1/4 381/1/4 387/1/4
f 383/2/4 384/2/4 388/2/4
f 385/2/4 386/2/4 389/2/4
f 383/2/4 388/2/4 390/2/4
f 388/2/4 389/2/4 390/2/4
f 389/2/4 386/2/4 391/2/4
f 390/2/4 389/2/4 391/2/4
f 392/3/4 393/3/4 400/3/4
f 393/1/4 394/1/4 401/1/4
f 400/3/4 393/3/4 401/3/4
f 394/3/4 395/3/4 402/3/4
f 401/1/4 394/1/4 402/1/4
f 395/1/4 396/1/4 403/1/4
f 402/3/4 395/3/4 403/3/4
f 396/3/4 397/3/4 404/3/4
f 403/1/4 396/1/4 404/1/4
f 397/1/4 398/1/4 405/1/4
f 404/3/4 397/3/4 405/3/4
f 405/1/4 398/1/4 406/1/4
f 399/3/4 400/3/4 407/3/4
f 399/3/4 407/3/4 408/3/4
f 408/3/4 407/3/4 409/3/4
f 410/3/4 411/3/4 412/3/4
f 409/3/4 410/3/4 412/3/4
f 412/3/4 411/3/4 413/3/4
f 414/3/4 415/3/4 418/3/4
f 415/1/4 416/1/4 419/1/4
f 418/3/4 415/3/4 419/3/4
f 419/1/4 416/1/4 420/1/4
f 416/3/4 417/3/4 421/3/4
f 420/1/4 416/1/4 421/1/4
f 419/1/4 420/1/4 422/1/4
f 418/1/4 419/1/4 422/1/4
f 420/3/4 421/3/4 423/3/4
f 422/1/4 420/1/4 423/1/4
f 421/3/4 417/3/4 424/3/4
f 423/3/4 421/3/4 424/3/4
f 428/1/5 426/1/5 425/1/5
f 429/1/5 426/1/5 428/1/5
f 431/3/5 428/3/5 427/3/5
f 432/1/5 429/1/5 428/1/5
f 432/3/5 428/3/5 431/3/5
f 433/3/5 430/3/5 429/3/5
f 433/1/5 429/1/5 432/1/5
f 434/3/5 430/3/5 433/3/5
f 435/3/5 433/3/5 432/3/5
f 436/3/5 433/3/5 435/3/5
f 441/3/5 438/3/5 437/3/5
f 442/1/5 439/1/5 438/1/5
f 442/3/5 438/3/5 441/3/5
f 443/1/5 439/1/5 442/1/5
f 446/3/5 441/3/5 440/3/5
f 447/3/5 441/3/5 446/3/5
f 448/1/5 444/1/5 443/1/5
f 449/1/5 444/1/5 448/1/5
f 451/3/5 446/3/5 445/3/5
f 452/3/5 446/3/5 451/3/5
f 453/1/5 452/1/5 451/1/5
f 454/1/5 452/1/5 453/1/5
f 457/1/5 450/1/5 449/1/5
f 458/1/5 450/1/5 457/1/5
f 459/3/5 455/3/5 454/3/5
f 460/3/5 455/3/5 459/3/5
f 462/3/5 457/3/5 456/3/5
f 463/3/5 457/3/5 462/3/5
f 464/3/5 461/3/5 460/3/5
f 465/1/5 462/1/5 461/1/5
f 465/3/5 461/3/5 464/3/5
f 466/1/5 462/1/5 465/1/5
f 469/2/5 468/2/5 467/2/5
f 470/2/5 468/2/5 469/2/5
f 474/1/5 472/1/5 471/1/5
f 475/1/5 472/1/5 474/1/5
f 477/1/5 474/1/5 473/1/5
f 477/1/5 476/1/5 475/1/5
f 477/1/5 475/1/5 474/1/5
f 478/1/5 476/1/5 477/1/5
f 479/1/5 476/1/5 478/1/5
f 480/1/5 476/1/5 479/1/5
f 481/1/5 479/1/5 478/1/5
f 482/1/5 479/1/5 481/1/5
f 483/1/5 479/1/5 482/1/5
f 486/2/5 485/2/5 484/2/5
f 487/2/5 485/2/5 486/2/5
f 488/2/5 485/2/5 487/2/5
f 489/1/6 490/1/6 493/1/6
f 490/1/6 491/1/6 493/1/6
f 493/1/6 491/1/6 494/1/6
f 492/3/6 493/3/6 496/3/6
f 496/3/6 493/3/6 497/3/6
f 493/1/6 494/1/6 498/1/6
f 497/3/6 493/3/6 498/3/6
f 494/3/6 495/3/6 499/3/6
f 498/1/6 494/1/6 499/1/6
f 499/3/6 495/3/6 500/3/6
f 498/3/6 499/3/6 501/3/6
f 501/3/6 499/3/6 502/3/6
f 502/3/6 499/3/6 503/3/6
f 504/2/6 505/2/6 506/2/6
f 506/2/6 505/2/6 507/2/6
f 507/2/6 505/2/6 508/2/6
f 509/1/6 510/1/6 512/1/6
f 512/1/6 510/1/6 513/1/6
f 511/1/6 512/1/6 515/1/6
f 513/1/6 514/1/6 515/1/6
f 512/1/6 513/1/6 515/1/6
f 515/1/6 514/1/6 516/1/6
f 515/1/6 516/1/6 517/1/6
f 517/1/6 516/1/6 518/1/6
f 518/1/6 516/1/6 519/1/6
f 519/1/6 516/1/6 520/1/6
f 518/1/6 519/1/6 521/1/6
f 521/1/6 519/1/6 522/1/6
f 523/2/6 524/2/6 525/2/6
f 525/2/6 524/2/6 526/2/6
f 527/1/6 528/1/6 530/1/6
f 530/1/6 528/1/6 531/1/6
f 529/1/6 530/1/6 534/1/6
f 534/1/6 530/1/6 535/1/6
f 531/1/6 532/1/6 536/1/6
f 536/1/6 532/1/6 537/1/6
f 533/1/6 534/1/6 539/1/6
f 539/1/6 534/1/6 540/1/6
f 537/1/6 538/1/6 543/1/6
f 543/1/6 538/1/6 544/1/6
f 540/1/6 541/1/6 545/1/6
f 545/1/6 541/1/6 546/1/6
f 542/3/6 543/3/6 547/3/6
f 547/3/6 543/3/6 548/3/6
f 546/3/6 547/3/6 549/3/6
f 549/3/6 547/3/6 550/3/6
