# MagicaVoxel @ Ephtracy

# group
o Decoration - Desert - Stone - Variant1

# material
mtllib Medieval Assets-110-Decoration - Desert - Stone - Variant1.mtl
usemtl palette

# normals
vn -1 0 0
vn 1 0 0
vn 0 0 1
vn 0 0 -1
vn 0 -1 0
vn 0 1 0

# texcoords
vt 0.376953 0.5
vt 0.380859 0.5

# verts
v -26.8 0.1 -28.6
v -26.8 0.1 -28.7
v -26.8 0.1 -29.4
v -26.8 0.2 -29.3
v -26.8 0.2 -29.4
v -26.8 0.3 -28.7
v -26.8 0.3 -28.9
v -26.8 0.3 -29.1
v -26.8 0.3 -29.3
v -26.8 0.4 -28.6
v -26.8 0.4 -28.9
v -26.8 0.4 -29.1
v -26.8 0.4 -29.4
v -26.7 0 -28.7
v -26.7 0 -29
v -26.7 0 -29.1
v -26.7 0 -29.3
v -26.7 0.1 -28.7
v -26.7 0.1 -29
v -26.7 0.1 -29.1
v -26.7 0.1 -29.3
v -26.7 0.4 -28.7
v -26.7 0.4 -28.9
v -26.7 0.4 -29.1
v -26.7 0.4 -29.2
v -26.7 0.4 -29.3
v -26.7 0.5 -28.7
v -26.7 0.5 -29.2
v -26.7 0.5 -29.3
v -26.1 0 -28.7
v -26.1 0 -29
v -26.1 0 -29.3
v -26.1 0.1 -28.7
v -26.1 0.1 -28.9
v -26.1 0.1 -29
v -26.1 0.1 -29.2
v -26.1 0.1 -29.3
v -26.1 0.4 -28.7
v -26.1 0.4 -28.8
v -26.1 0.4 -28.9
v -26.1 0.4 -29
v -26.1 0.4 -29.1
v -26.1 0.4 -29.3
v -26.1 0.5 -28.7
v -26.1 0.5 -28.8
v -26.1 0.5 -28.9
v -26.1 0.5 -29
v -26.1 0.5 -29.3
v -26 0.1 -28.6
v -26 0.1 -28.7
v -26 0.1 -28.9
v -26 0.1 -29.2
v -26 0.1 -29.4
v -26 0.2 -28.7
v -26 0.2 -28.8
v -26 0.2 -28.9
v -26 0.2 -29.2
v -26 0.2 -29.3
v -26 0.3 -28.6
v -26 0.3 -28.8
v -26 0.3 -29.1
v -26 0.3 -29.2
v -26 0.3 -29.3
v -26 0.4 -28.6
v -26 0.4 -28.8
v -26 0.4 -29.1
v -26 0.4 -29.4
v -26.8 0.1 -28.6
v -26.8 0.4 -28.6
v -26.7 0.3 -28.6
v -26.7 0.4 -28.6
v -26.6 0.1 -28.6
v -26.6 0.2 -28.6
v -26.5 0.1 -28.6
v -26.5 0.2 -28.6
v -26.5 0.3 -28.6
v -26.3 0.3 -28.6
v -26.3 0.4 -28.6
v -26.2 0.1 -28.6
v -26.2 0.2 -28.6
v -26.2 0.3 -28.6
v -26.2 0.4 -28.6
v -26.1 0.1 -28.6
v -26.1 0.3 -28.6
v -26 0.1 -28.6
v -26 0.3 -28.6
v -26 0.4 -28.6
v -26.7 0 -28.7
v -26.7 0.1 -28.7
v -26.7 0.4 -28.7
v -26.7 0.5 -28.7
v -26.6 0.1 -28.7
v -26.6 0.4 -28.7
v -26.6 0.5 -28.7
v -26.5 0 -28.7
v -26.5 0.1 -28.7
v -26.4 0 -28.7
v -26.4 0.1 -28.7
v -26.3 0.4 -28.7
v -26.2 0 -28.7
v -26.2 0.1 -28.7
v -26.2 0.4 -28.7
v -26.1 0 -28.7
v -26.1 0.1 -28.7
v -26.1 0.4 -28.7
v -26.1 0.5 -28.7
v -26.7 0 -29.3
v -26.7 0.1 -29.3
v -26.7 0.4 -29.3
v -26.7 0.5 -29.3
v -26.5 0 -29.3
v -26.5 0.1 -29.3
v -26.3 0 -29.3
v -26.3 0.1 -29.3
v -26.2 0.1 -29.3
v -26.2 0.4 -29.3
v -26.2 0.5 -29.3
v -26.1 0 -29.3
v -26.1 0.1 -29.3
v -26.1 0.4 -29.3
v -26.1 0.5 -29.3
v -26.8 0.1 -29.4
v -26.8 0.2 -29.4
v -26.8 0.4 -29.4
v -26.7 0.2 -29.4
v -26.7 0.4 -29.4
v -26.6 0.2 -29.4
v -26.6 0.3 -29.4
v -26.3 0.1 -29.4
v -26.3 0.2 -29.4
v -26.3 0.3 -29.4
v -26.2 0.1 -29.4
v -26.2 0.2 -29.4
v -26 0.1 -29.4
v -26 0.4 -29.4
v -26.7 0 -28.7
v -26.5 0 -28.7
v -26.4 0 -28.7
v -26.2 0 -28.7
v -26.1 0 -28.7
v -26.5 0 -28.9
v -26.4 0 -28.9
v -26.7 0 -29
v -26.6 0 -29
v -26.2 0 -29
v -26.1 0 -29
v -26.7 0 -29.1
v -26.6 0 -29.1
v -26.4 0 -29.1
v -26.6 0 -29.2
v -26.5 0 -29.2
v -26.4 0 -29.2
v -26.3 0 -29.2
v -26.7 0 -29.3
v -26.5 0 -29.3
v -26.3 0 -29.3
v -26.1 0 -29.3
v -26.8 0.1 -28.6
v -26.6 0.1 -28.6
v -26.5 0.1 -28.6
v -26.2 0.1 -28.6
v -26.1 0.1 -28.6
v -26 0.1 -28.6
v -26.8 0.1 -28.7
v -26.7 0.1 -28.7
v -26.6 0.1 -28.7
v -26.5 0.1 -28.7
v -26.4 0.1 -28.7
v -26.2 0.1 -28.7
v -26.1 0.1 -28.7
v -26 0.1 -28.7
v -26.1 0.1 -28.9
v -26 0.1 -28.9
v -26.7 0.1 -29
v -26.1 0.1 -29
v -26.7 0.1 -29.1
v -26.1 0.1 -29.2
v -26 0.1 -29.2
v -26.7 0.1 -29.3
v -26.5 0.1 -29.3
v -26.3 0.1 -29.3
v -26.2 0.1 -29.3
v -26.1 0.1 -29.3
v -26.8 0.1 -29.4
v -26.3 0.1 -29.4
v -26.2 0.1 -29.4
v -26 0.1 -29.4
v -26.8 0.4 -28.6
v -26.7 0.4 -28.6
v -26.3 0.4 -28.6
v -26.2 0.4 -28.6
v -26 0.4 -28.6
v -26.7 0.4 -28.7
v -26.6 0.4 -28.7
v -26.3 0.4 -28.7
v -26.2 0.4 -28.7
v -26.1 0.4 -28.7
v -26.1 0.4 -28.8
v -26 0.4 -28.8
v -26.8 0.4 -28.9
v -26.7 0.4 -28.9
v -26.1 0.4 -28.9
v -26.1 0.4 -29
v -26.8 0.4 -29.1
v -26.7 0.4 -29.1
v -26.1 0.4 -29.1
v -26 0.4 -29.1
v -26.7 0.4 -29.2
v -26.7 0.4 -29.3
v -26.2 0.4 -29.3
v -26.1 0.4 -29.3
v -26.8 0.4 -29.4
v -26.7 0.4 -29.4
v -26 0.4 -29.4
v -26.7 0.5 -28.7
v -26.6 0.5 -28.7
v -26.1 0.5 -28.7
v -26.4 0.5 -28.8
v -26.1 0.5 -28.8
v -26.6 0.5 -28.9
v -26.4 0.5 -28.9
v -26.1 0.5 -28.9
v -26.5 0.5 -29
v -26.4 0.5 -29
v -26.2 0.5 -29
v -26.1 0.5 -29
v -26.6 0.5 -29.1
v -26.5 0.5 -29.1
v -26.7 0.5 -29.2
v -26.6 0.5 -29.2
v -26.7 0.5 -29.3
v -26.2 0.5 -29.3
v -26.1 0.5 -29.3

# faces
f 4/1/1 3/1/1 2/1/1
f 5/1/1 3/1/1 4/1/1
f 6/2/1 2/2/1 1/2/1
f 6/1/1 4/1/1 2/1/1
f 7/1/1 4/1/1 6/1/1
f 8/1/1 4/1/1 7/1/1
f 9/2/1 5/2/1 4/2/1
f 9/1/1 4/1/1 8/1/1
f 10/2/1 6/2/1 1/2/1
f 10/2/1 7/2/1 6/2/1
f 11/1/1 8/1/1 7/1/1
f 11/2/1 7/2/1 10/2/1
f 12/2/1 9/2/1 8/2/1
f 12/1/1 8/1/1 11/1/1
f 13/2/1 5/2/1 9/2/1
f 13/2/1 9/2/1 12/2/1
f 18/1/1 15/1/1 14/1/1
f 19/2/1 16/2/1 15/2/1
f 19/1/1 15/1/1 18/1/1
f 20/1/1 17/1/1 16/1/1
f 20/2/1 16/2/1 19/2/1
f 21/1/1 17/1/1 20/1/1
f 27/2/1 23/2/1 22/2/1
f 27/2/1 24/2/1 23/2/1
f 27/2/1 25/2/1 24/2/1
f 28/1/1 26/1/1 25/1/1
f 28/2/1 25/2/1 27/2/1
f 29/1/1 26/1/1 28/1/1
f 30/2/2 31/2/2 33/2/2
f 33/2/2 31/2/2 34/2/2
f 31/1/2 32/1/2 35/1/2
f 34/2/2 31/2/2 35/2/2
f 35/1/2 32/1/2 36/1/2
f 36/1/2 32/1/2 37/1/2
f 38/1/2 39/1/2 44/1/2
f 39/2/2 40/2/2 45/2/2
f 44/1/2 39/1/2 45/1/2
f 40/1/2 41/1/2 46/1/2
f 45/2/2 40/2/2 46/2/2
f 42/2/2 43/2/2 47/2/2
f 46/1/2 41/1/2 47/1/2
f 41/2/2 42/2/2 47/2/2
f 47/2/2 43/2/2 48/2/2
f 49/2/2 50/2/2 54/2/2
f 50/1/2 51/1/2 54/1/2
f 54/1/2 51/1/2 55/1/2
f 51/2/2 52/2/2 56/2/2
f 55/1/2 51/1/2 56/1/2
f 52/1/2 53/1/2 57/1/2
f 56/2/2 52/2/2 57/2/2
f 57/1/2 53/1/2 58/1/2
f 54/2/2 55/2/2 59/2/2
f 49/2/2 54/2/2 59/2/2
f 55/1/2 56/1/2 60/1/2
f 59/2/2 55/2/2 60/2/2
f 56/1/2 57/1/2 60/1/2
f 60/1/2 57/1/2 61/1/2
f 57/2/2 58/2/2 62/2/2
f 61/1/2 57/1/2 62/1/2
f 58/1/2 53/1/2 63/1/2
f 62/2/2 58/2/2 63/2/2
f 59/1/2 60/1/2 64/1/2
f 60/2/2 61/2/2 65/2/2
f 64/1/2 60/1/2 65/1/2
f 61/1/2 62/1/2 66/1/2
f 65/2/2 61/2/2 66/2/2
f 62/1/2 63/1/2 66/1/2
f 63/1/2 53/1/2 67/1/2
f 66/1/2 63/1/2 67/1/2
f 70/2/3 69/2/3 68/2/3
f 71/2/3 69/2/3 70/2/3
f 72/2/3 70/2/3 68/2/3
f 73/2/3 70/2/3 72/2/3
f 74/1/3 73/1/3 72/1/3
f 75/2/3 70/2/3 73/2/3
f 75/1/3 73/1/3 74/1/3
f 76/1/3 71/1/3 70/1/3
f 76/2/3 70/2/3 75/2/3
f 77/1/3 76/1/3 75/1/3
f 77/1/3 71/1/3 76/1/3
f 78/1/3 71/1/3 77/1/3
f 79/2/3 75/2/3 74/2/3
f 80/1/3 77/1/3 75/1/3
f 80/2/3 75/2/3 79/2/3
f 81/2/3 78/2/3 77/2/3
f 81/1/3 77/1/3 80/1/3
f 82/2/3 78/2/3 81/2/3
f 83/1/3 80/1/3 79/1/3
f 83/1/3 81/1/3 80/1/3
f 83/1/3 82/1/3 81/1/3
f 84/1/3 82/1/3 83/1/3
f 85/2/3 84/2/3 83/2/3
f 86/1/3 82/1/3 84/1/3
f 86/2/3 84/2/3 85/2/3
f 87/1/3 82/1/3 86/1/3
f 92/1/3 89/1/3 88/1/3
f 93/2/3 91/2/3 90/2/3
f 94/2/3 91/2/3 93/2/3
f 95/1/3 92/1/3 88/1/3
f 96/1/3 92/1/3 95/1/3
f 97/2/3 96/2/3 95/2/3
f 98/2/3 96/2/3 97/2/3
f 99/1/3 94/1/3 93/1/3
f 100/1/3 98/1/3 97/1/3
f 101/1/3 98/1/3 100/1/3
f 102/1/3 94/1/3 99/1/3
f 103/2/3 101/2/3 100/2/3
f 104/2/3 101/2/3 103/2/3
f 105/1/3 94/1/3 102/1/3
f 106/1/3 94/1/3 105/1/3
f 107/1/4 108/1/4 111/1/4
f 111/1/4 108/1/4 112/1/4
f 111/2/4 112/2/4 113/2/4
f 113/2/4 112/2/4 114/2/4
f 113/1/4 114/1/4 115/1/4
f 109/1/4 110/1/4 116/1/4
f 116/1/4 110/1/4 117/1/4
f 113/1/4 115/1/4 118/1/4
f 118/1/4 115/1/4 119/1/4
f 116/2/4 117/2/4 120/2/4
f 120/2/4 117/2/4 121/2/4
f 122/1/4 123/1/4 125/1/4
f 123/2/4 124/2/4 125/2/4
f 125/2/4 124/2/4 126/2/4
f 122/1/4 125/1/4 127/1/4
f 125/1/4 126/1/4 127/1/4
f 127/1/4 126/1/4 128/1/4
f 122/1/4 127/1/4 129/1/4
f 127/2/4 128/2/4 130/2/4
f 129/1/4 127/1/4 130/1/4
f 128/1/4 126/1/4 131/1/4
f 130/2/4 128/2/4 131/2/4
f 129/2/4 130/2/4 132/2/4
f 130/1/4 131/1/4 133/1/4
f 132/2/4 130/2/4 133/2/4
f 132/1/4 133/1/4 134/1/4
f 131/1/4 126/1/4 135/1/4
f 134/1/4 133/1/4 135/1/4
f 133/1/4 131/1/4 135/1/4
f 141/1/5 137/1/5 136/1/5
f 141/2/5 138/2/5 137/2/5
f 142/1/5 139/1/5 138/1/5
f 142/2/5 138/2/5 141/2/5
f 143/1/5 141/1/5 136/1/5
f 143/1/5 142/1/5 141/1/5
f 144/1/5 142/1/5 143/1/5
f 145/2/5 140/2/5 139/2/5
f 145/1/5 142/1/5 144/1/5
f 145/1/5 139/1/5 142/1/5
f 146/2/5 140/2/5 145/2/5
f 147/2/5 144/2/5 143/2/5
f 148/1/5 145/1/5 144/1/5
f 148/2/5 144/2/5 147/2/5
f 148/1/5 146/1/5 145/1/5
f 149/1/5 146/1/5 148/1/5
f 150/1/5 148/1/5 147/1/5
f 150/2/5 149/2/5 148/2/5
f 151/2/5 149/2/5 150/2/5
f 152/1/5 146/1/5 149/1/5
f 152/2/5 149/2/5 151/2/5
f 153/1/5 146/1/5 152/1/5
f 154/1/5 151/1/5 150/1/5
f 154/1/5 150/1/5 147/1/5
f 155/2/5 153/2/5 152/2/5
f 155/1/5 151/1/5 154/1/5
f 155/2/5 152/2/5 151/2/5
f 156/1/5 146/1/5 153/1/5
f 156/2/5 153/2/5 155/2/5
f 157/1/5 146/1/5 156/1/5
f 164/2/5 159/2/5 158/2/5
f 165/2/5 159/2/5 164/2/5
f 166/1/5 160/1/5 159/1/5
f 166/2/5 159/2/5 165/2/5
f 167/2/5 161/2/5 160/2/5
f 167/1/5 160/1/5 166/1/5
f 168/2/5 161/2/5 167/2/5
f 169/1/5 162/1/5 161/1/5
f 169/2/5 161/2/5 168/2/5
f 170/2/5 163/2/5 162/2/5
f 170/1/5 162/1/5 169/1/5
f 171/2/5 163/2/5 170/2/5
f 172/1/5 171/1/5 170/1/5
f 173/1/5 171/1/5 172/1/5
f 174/1/5 165/1/5 164/1/5
f 175/2/5 173/2/5 172/2/5
f 176/1/5 174/1/5 164/1/5
f 177/2/5 173/2/5 175/2/5
f 178/2/5 173/2/5 177/2/5
f 179/1/5 176/1/5 164/1/5
f 183/1/5 178/1/5 177/1/5
f 184/1/5 179/1/5 164/1/5
f 184/1/5 180/1/5 179/1/5
f 184/1/5 181/1/5 180/1/5
f 185/2/5 182/2/5 181/2/5
f 185/1/5 181/1/5 184/1/5
f 186/1/5 183/1/5 182/1/5
f 186/2/5 182/2/5 185/2/5
f 187/1/5 178/1/5 183/1/5
f 187/1/5 183/1/5 186/1/5
f 188/2/6 189/2/6 193/2/6
f 189/1/6 190/1/6 193/1/6
f 193/1/6 190/1/6 194/1/6
f 190/2/6 191/2/6 195/2/6
f 194/1/6 190/1/6 195/1/6
f 191/1/6 192/1/6 196/1/6
f 195/2/6 191/2/6 196/2/6
f 196/1/6 192/1/6 197/1/6
f 197/1/6 192/1/6 198/1/6
f 198/1/6 192/1/6 199/1/6
f 188/2/6 193/2/6 200/2/6
f 200/2/6 193/2/6 201/2/6
f 198/2/6 199/2/6 202/2/6
f 202/2/6 199/2/6 203/2/6
f 200/1/6 201/1/6 204/1/6
f 204/1/6 201/1/6 205/1/6
f 203/2/6 199/2/6 206/2/6
f 206/2/6 199/2/6 207/2/6
f 204/2/6 205/2/6 208/2/6
f 204/2/6 208/2/6 209/2/6
f 206/1/6 207/1/6 211/1/6
f 204/2/6 209/2/6 212/2/6
f 209/1/6 210/1/6 213/1/6
f 212/2/6 209/2/6 213/2/6
f 210/1/6 211/1/6 213/1/6
f 211/1/6 207/1/6 214/1/6
f 213/1/6 211/1/6 214/1/6
f 216/1/6 217/1/6 218/1/6
f 218/1/6 217/1/6 219/1/6
f 215/2/6 216/2/6 220/2/6
f 216/1/6 218/1/6 220/1/6
f 218/2/6 219/2/6 221/2/6
f 220/1/6 218/1/6 221/1/6
f 221/2/6 219/2/6 222/2/6
f 220/2/6 221/2/6 223/2/6
f 221/1/6 222/1/6 224/1/6
f 223/2/6 221/2/6 224/2/6
f 224/1/6 222/1/6 225/1/6
f 225/1/6 222/1/6 226/1/6
f 215/2/6 220/2/6 227/2/6
f 220/2/6 223/2/6 227/2/6
f 223/1/6 224/1/6 228/1/6
f 227/2/6 223/2/6 228/2/6
f 224/1/6 225/1/6 228/1/6
f 215/2/6 227/2/6 229/2/6
f 227/1/6 228/1/6 230/1/6
f 229/2/6 227/2/6 230/2/6
f 229/1/6 230/1/6 231/1/6
f 225/2/6 226/2/6 232/2/6
f 231/1/6 230/1/6 232/1/6
f 228/1/6 225/1/6 232/1/6
f 230/1/6 228/1/6 232/1/6
f 232/2/6 226/2/6 233/2/6
