# MagicaVoxel @ Ephtracy

# group
o Decoration - Desert - Stone Rough - Variant3

# material
mtllib Medieval Assets-104-Decoration - Desert - Stone Rough - Variant3.mtl
usemtl palette

# normals
vn -1 0 0
vn 1 0 0
vn 0 0 1
vn 0 0 -1
vn 0 -1 0
vn 0 1 0

# texcoords
vt 0.0214844 0.5
vt 0.376953 0.5
vt 0.384766 0.5

# verts
v -25 0.1 -27.6
v -25 0.1 -27.7
v -25 0.1 -28
v -25 0.1 -28.1
v -25 0.1 -28.4
v -25 0.2 -27.8
v -25 0.2 -27.9
v -25 0.2 -28.3
v -25 0.2 -28.4
v -25 0.3 -27.7
v -25 0.3 -27.8
v -25 0.3 -27.9
v -25 0.3 -28.1
v -25 0.3 -28.3
v -25 0.3 -28.4
v -25 0.4 -27.6
v -25 0.4 -27.9
v -25 0.4 -28
v -25 0.4 -28.1
v -25 0.4 -28.3
v -24.9 0 -27.7
v -24.9 0 -28
v -24.9 0 -28.1
v -24.9 0 -28.3
v -24.9 0.1 -27.7
v -24.9 0.1 -28
v -24.9 0.1 -28.1
v -24.9 0.1 -28.3
v -24.9 0.2 -27.8
v -24.9 0.2 -27.9
v -24.9 0.3 -27.8
v -24.9 0.3 -27.9
v -24.9 0.3 -28
v -24.9 0.3 -28.1
v -24.9 0.3 -28.3
v -24.9 0.3 -28.4
v -24.9 0.4 -27.7
v -24.9 0.4 -27.9
v -24.9 0.4 -28
v -24.9 0.4 -28.1
v -24.9 0.4 -28.2
v -24.9 0.4 -28.3
v -24.9 0.4 -28.4
v -24.9 0.5 -27.7
v -24.9 0.5 -28.2
v -24.9 0.5 -28.3
v -24.4 0.4 -28.2
v -24.4 0.4 -28.3
v -24.4 0.5 -28.2
v -24.4 0.5 -28.3
v -24.3 0 -27.7
v -24.3 0 -28
v -24.3 0 -28.3
v -24.3 0.1 -27.7
v -24.3 0.1 -27.9
v -24.3 0.1 -28
v -24.3 0.1 -28.2
v -24.3 0.1 -28.3
v -24.3 0.2 -27.6
v -24.3 0.2 -27.7
v -24.3 0.3 -27.6
v -24.3 0.3 -27.7
v -24.3 0.3 -27.8
v -24.3 0.3 -28
v -24.3 0.4 -27.7
v -24.3 0.4 -27.8
v -24.3 0.4 -27.9
v -24.3 0.4 -28
v -24.3 0.4 -28.1
v -24.3 0.4 -28.2
v -24.3 0.5 -27.7
v -24.3 0.5 -27.8
v -24.3 0.5 -27.9
v -24.3 0.5 -28
v -24.3 0.5 -28.2
v -24.2 0.1 -27.6
v -24.2 0.1 -27.7
v -24.2 0.1 -27.9
v -24.2 0.1 -28.2
v -24.2 0.1 -28.4
v -24.2 0.2 -27.6
v -24.2 0.2 -27.7
v -24.2 0.2 -27.8
v -24.2 0.2 -27.9
v -24.2 0.2 -28.2
v -24.2 0.2 -28.3
v -24.2 0.3 -27.6
v -24.2 0.3 -27.7
v -24.2 0.3 -27.8
v -24.2 0.3 -28
v -24.2 0.3 -28.1
v -24.2 0.3 -28.2
v -24.2 0.3 -28.3
v -24.2 0.4 -27.6
v -24.2 0.4 -27.7
v -24.2 0.4 -28
v -24.2 0.4 -28.1
v -24.2 0.4 -28.4
v -25 0.1 -27.6
v -25 0.4 -27.6
v -24.9 0.3 -27.6
v -24.9 0.4 -27.6
v -24.7 0.2 -27.6
v -24.7 0.3 -27.6
v -24.5 0.3 -27.6
v -24.5 0.4 -27.6
v -24.4 0.1 -27.6
v -24.4 0.2 -27.6
v -24.4 0.3 -27.6
v -24.4 0.4 -27.6
v -24.3 0.1 -27.6
v -24.3 0.2 -27.6
v -24.3 0.3 -27.6
v -24.2 0.1 -27.6
v -24.2 0.2 -27.6
v -24.2 0.3 -27.6
v -24.2 0.4 -27.6
v -24.9 0 -27.7
v -24.9 0.1 -27.7
v -24.9 0.4 -27.7
v -24.9 0.5 -27.7
v -24.8 0.4 -27.7
v -24.8 0.5 -27.7
v -24.7 0 -27.7
v -24.7 0.1 -27.7
v -24.6 0 -27.7
v -24.6 0.1 -27.7
v -24.5 0.4 -27.7
v -24.4 0 -27.7
v -24.4 0.1 -27.7
v -24.4 0.4 -27.7
v -24.3 0 -27.7
v -24.3 0.1 -27.7
v -24.3 0.2 -27.7
v -24.3 0.3 -27.7
v -24.3 0.4 -27.7
v -24.3 0.5 -27.7
v -24.2 0.2 -27.7
v -24.2 0.3 -27.7
v -25 0.2 -27.9
v -25 0.3 -27.9
v -24.9 0.2 -27.9
v -24.9 0.3 -27.9
v -24.3 0.3 -28
v -24.3 0.4 -28
v -24.2 0.3 -28
v -24.2 0.4 -28
v -25 0.1 -28.1
v -25 0.3 -28.1
v -25 0.4 -28.1
v -24.9 0.1 -28.1
v -24.9 0.3 -28.1
v -24.9 0.4 -28.1
v -24.3 0.3 -27.7
v -24.3 0.4 -27.7
v -24.2 0.3 -27.7
v -24.2 0.4 -27.7
v -25 0.2 -27.8
v -25 0.3 -27.8
v -24.9 0.2 -27.8
v -24.9 0.3 -27.8
v -25 0.1 -28
v -25 0.4 -28
v -24.9 0.1 -28
v -24.9 0.3 -28
v -24.9 0.4 -28
v -24.4 0.4 -28.2
v -24.4 0.5 -28.2
v -24.3 0.4 -28.2
v -24.3 0.5 -28.2
v -25 0.3 -28.3
v -25 0.4 -28.3
v -24.9 0 -28.3
v -24.9 0.1 -28.3
v -24.9 0.3 -28.3
v -24.9 0.4 -28.3
v -24.9 0.5 -28.3
v -24.7 0 -28.3
v -24.7 0.1 -28.3
v -24.5 0 -28.3
v -24.5 0.1 -28.3
v -24.4 0.1 -28.3
v -24.4 0.4 -28.3
v -24.4 0.5 -28.3
v -24.3 0 -28.3
v -24.3 0.1 -28.3
v -25 0.1 -28.4
v -25 0.2 -28.4
v -25 0.3 -28.4
v -24.9 0.2 -28.4
v -24.9 0.3 -28.4
v -24.9 0.4 -28.4
v -24.8 0.2 -28.4
v -24.8 0.3 -28.4
v -24.5 0.1 -28.4
v -24.5 0.2 -28.4
v -24.5 0.3 -28.4
v -24.4 0.1 -28.4
v -24.4 0.2 -28.4
v -24.2 0.1 -28.4
v -24.2 0.4 -28.4
v -24.9 0 -27.7
v -24.7 0 -27.7
v -24.6 0 -27.7
v -24.4 0 -27.7
v -24.3 0 -27.7
v -24.7 0 -27.9
v -24.6 0 -27.9
v -24.9 0 -28
v -24.8 0 -28
v -24.4 0 -28
v -24.3 0 -28
v -24.9 0 -28.1
v -24.8 0 -28.1
v -24.6 0 -28.1
v -24.8 0 -28.2
v -24.7 0 -28.2
v -24.6 0 -28.2
v -24.5 0 -28.2
v -24.9 0 -28.3
v -24.7 0 -28.3
v -24.5 0 -28.3
v -24.3 0 -28.3
v -25 0.1 -27.6
v -24.4 0.1 -27.6
v -24.3 0.1 -27.6
v -24.2 0.1 -27.6
v -25 0.1 -27.7
v -24.9 0.1 -27.7
v -24.7 0.1 -27.7
v -24.6 0.1 -27.7
v -24.4 0.1 -27.7
v -24.3 0.1 -27.7
v -24.2 0.1 -27.7
v -24.3 0.1 -27.9
v -24.2 0.1 -27.9
v -25 0.1 -28
v -24.9 0.1 -28
v -24.3 0.1 -28
v -25 0.1 -28.1
v -24.9 0.1 -28.1
v -24.3 0.1 -28.2
v -24.2 0.1 -28.2
v -24.9 0.1 -28.3
v -24.7 0.1 -28.3
v -24.5 0.1 -28.3
v -24.4 0.1 -28.3
v -24.3 0.1 -28.3
v -25 0.1 -28.4
v -24.5 0.1 -28.4
v -24.4 0.1 -28.4
v -24.2 0.1 -28.4
v -24.3 0.3 -27.6
v -24.2 0.3 -27.6
v -24.3 0.3 -27.7
v -24.2 0.3 -27.7
v -25 0.3 -27.8
v -24.9 0.3 -27.8
v -25 0.3 -27.9
v -24.9 0.3 -27.9
v -24.3 0.2 -27.6
v -24.2 0.2 -27.6
v -24.3 0.2 -27.7
v -24.2 0.2 -27.7
v -25 0.2 -27.8
v -24.9 0.2 -27.8
v -25 0.2 -27.9
v -24.9 0.2 -27.9
v -24.3 0.3 -27.7
v -24.2 0.3 -27.7
v -24.3 0.3 -27.8
v -24.2 0.3 -27.8
v -24.3 0.3 -28
v -24.2 0.3 -28
v -25 0.3 -28.3
v -24.9 0.3 -28.3
v -25 0.3 -28.4
v -24.9 0.3 -28.4
v -25 0.4 -27.6
v -24.9 0.4 -27.6
v -24.5 0.4 -27.6
v -24.4 0.4 -27.6
v -24.2 0.4 -27.6
v -24.9 0.4 -27.7
v -24.8 0.4 -27.7
v -24.5 0.4 -27.7
v -24.4 0.4 -27.7
v -24.3 0.4 -27.7
v -24.2 0.4 -27.7
v -25 0.4 -27.9
v -24.9 0.4 -27.9
v -25 0.4 -28
v -24.9 0.4 -28
v -24.3 0.4 -28
v -24.2 0.4 -28
v -25 0.4 -28.1
v -24.9 0.4 -28.1
v -24.3 0.4 -28.1
v -24.2 0.4 -28.1
v -24.9 0.4 -28.2
v -24.4 0.4 -28.2
v -24.3 0.4 -28.2
v -25 0.4 -28.3
v -24.9 0.4 -28.3
v -24.4 0.4 -28.3
v -24.9 0.4 -28.4
v -24.2 0.4 -28.4
v -24.9 0.5 -27.7
v -24.8 0.5 -27.7
v -24.3 0.5 -27.7
v -24.6 0.5 -27.8
v -24.3 0.5 -27.8
v -24.8 0.5 -27.9
v -24.6 0.5 -27.9
v -24.3 0.5 -27.9
v -24.7 0.5 -28
v -24.6 0.5 -28
v -24.4 0.5 -28
v -24.3 0.5 -28
v -24.8 0.5 -28.1
v -24.7 0.5 -28.1
v -24.9 0.5 -28.2
v -24.8 0.5 -28.2
v -24.4 0.5 -28.2
v -24.3 0.5 -28.2
v -24.9 0.5 -28.3
v -24.4 0.5 -28.3

# faces
f 6/3/1 3/3/1 2/3/1
f 7/3/1 3/3/1 6/3/1
f 8/3/1 5/3/1 4/3/1
f 9/3/1 5/3/1 8/3/1
f 10/2/1 2/2/1 1/2/1
f 10/3/1 6/3/1 2/3/1
f 11/3/1 6/3/1 10/3/1
f 12/3/1 3/3/1 7/3/1
f 13/3/1 8/3/1 4/3/1
f 14/1/1 9/1/1 8/1/1
f 14/3/1 8/3/1 13/3/1
f 15/1/1 9/1/1 14/1/1
f 16/2/1 11/2/1 10/2/1
f 16/2/1 12/2/1 11/2/1
f 16/2/1 10/2/1 1/2/1
f 17/3/1 3/3/1 12/3/1
f 17/2/1 12/2/1 16/2/1
f 18/3/1 3/3/1 17/3/1
f 19/1/1 14/1/1 13/1/1
f 20/1/1 14/1/1 19/1/1
f 25/3/1 22/3/1 21/3/1
f 26/2/1 23/2/1 22/2/1
f 26/3/1 22/3/1 25/3/1
f 27/3/1 24/3/1 23/3/1
f 27/2/1 23/2/1 26/2/1
f 28/3/1 24/3/1 27/3/1
f 31/2/1 30/2/1 29/2/1
f 32/2/1 30/2/1 31/2/1
f 33/2/1 27/2/1 26/2/1
f 34/2/1 27/2/1 33/2/1
f 39/3/1 34/3/1 33/3/1
f 40/3/1 34/3/1 39/3/1
f 42/3/1 36/3/1 35/3/1
f 43/3/1 36/3/1 42/3/1
f 44/2/1 38/2/1 37/2/1
f 44/2/1 41/2/1 40/2/1
f 44/2/1 39/2/1 38/2/1
f 44/2/1 40/2/1 39/2/1
f 45/3/1 42/3/1 41/3/1
f 45/2/1 41/2/1 44/2/1
f 46/3/1 42/3/1 45/3/1
f 47/3/2 48/3/2 49/3/2
f 49/3/2 48/3/2 50/3/2
f 51/2/2 52/2/2 54/2/2
f 54/2/2 52/2/2 55/2/2
f 52/3/2 53/3/2 56/3/2
f 55/2/2 52/2/2 56/2/2
f 56/3/2 53/3/2 57/3/2
f 57/3/2 53/3/2 58/3/2
f 59/3/2 60/3/2 61/3/2
f 61/3/2 60/3/2 62/3/2
f 63/3/2 64/3/2 65/3/2
f 62/3/2 63/3/2 65/3/2
f 65/3/2 64/3/2 66/3/2
f 66/3/2 64/3/2 67/3/2
f 67/3/2 64/3/2 68/3/2
f 65/3/2 66/3/2 71/3/2
f 66/2/2 67/2/2 72/2/2
f 71/3/2 66/3/2 72/3/2
f 67/3/2 68/3/2 73/3/2
f 72/2/2 67/2/2 73/2/2
f 69/1/2 70/1/2 74/1/2
f 73/3/2 68/3/2 74/3/2
f 68/1/2 69/1/2 74/1/2
f 74/1/2 70/1/2 75/1/2
f 76/2/2 77/2/2 81/2/2
f 77/3/2 78/3/2 82/3/2
f 81/2/2 77/2/2 82/2/2
f 82/3/2 78/3/2 83/3/2
f 78/2/2 79/2/2 84/2/2
f 83/3/2 78/3/2 84/3/2
f 79/3/2 80/3/2 85/3/2
f 84/2/2 79/2/2 85/2/2
f 85/3/2 80/3/2 86/3/2
f 82/2/2 83/2/2 88/2/2
f 83/3/2 84/3/2 89/3/2
f 84/3/2 85/3/2 89/3/2
f 88/2/2 83/2/2 89/2/2
f 89/3/2 85/3/2 90/3/2
f 90/3/2 85/3/2 91/3/2
f 85/2/2 86/2/2 92/2/2
f 91/3/2 85/3/2 92/3/2
f 86/3/2 80/3/2 93/3/2
f 92/2/2 86/2/2 93/2/2
f 87/3/2 88/3/2 94/3/2
f 94/3/2 88/3/2 95/3/2
f 90/1/2 91/1/2 96/1/2
f 91/3/2 92/3/2 97/3/2
f 96/1/2 91/1/2 97/1/2
f 92/3/2 93/3/2 97/3/2
f 93/3/2 80/3/2 98/3/2
f 97/3/2 93/3/2 98/3/2
f 101/2/3 100/2/3 99/2/3
f 102/2/3 100/2/3 101/2/3
f 103/2/3 101/2/3 99/2/3
f 104/3/3 102/3/3 101/3/3
f 104/2/3 101/2/3 103/2/3
f 105/3/3 104/3/3 103/3/3
f 105/3/3 102/3/3 104/3/3
f 106/3/3 102/3/3 105/3/3
f 107/2/3 103/2/3 99/2/3
f 108/3/3 105/3/3 103/3/3
f 108/2/3 103/2/3 107/2/3
f 109/2/3 106/2/3 105/2/3
f 109/3/3 105/3/3 108/3/3
f 110/2/3 106/2/3 109/2/3
f 111/3/3 108/3/3 107/3/3
f 111/3/3 109/3/3 108/3/3
f 111/3/3 110/3/3 109/3/3
f 112/3/3 110/3/3 111/3/3
f 113/3/3 110/3/3 112/3/3
f 114/2/3 112/2/3 111/2/3
f 115/2/3 112/2/3 114/2/3
f 116/3/3 110/3/3 113/3/3
f 117/3/3 110/3/3 116/3/3
f 122/2/3 121/2/3 120/2/3
f 123/2/3 121/2/3 122/2/3
f 124/3/3 119/3/3 118/3/3
f 125/3/3 119/3/3 124/3/3
f 126/2/3 125/2/3 124/2/3
f 127/2/3 125/2/3 126/2/3
f 128/3/3 123/3/3 122/3/3
f 129/3/3 127/3/3 126/3/3
f 130/3/3 127/3/3 129/3/3
f 131/3/3 123/3/3 128/3/3
f 132/2/3 130/2/3 129/2/3
f 133/2/3 130/2/3 132/2/3
f 136/3/3 123/3/3 131/3/3
f 137/3/3 123/3/3 136/3/3
f 138/2/3 135/2/3 134/2/3
f 139/2/3 135/2/3 138/2/3
f 142/3/3 141/3/3 140/3/3
f 143/3/3 141/3/3 142/3/3
f 146/1/3 145/1/3 144/1/3
f 147/1/3 145/1/3 146/1/3
f 151/3/3 149/3/3 148/3/3
f 152/1/3 150/1/3 149/1/3
f 152/3/3 149/3/3 151/3/3
f 153/1/3 150/1/3 152/1/3
f 154/3/4 155/3/4 156/3/4
f 156/3/4 155/3/4 157/3/4
f 158/3/4 159/3/4 160/3/4
f 160/3/4 159/3/4 161/3/4
f 162/3/4 163/3/4 164/3/4
f 164/3/4 163/3/4 165/3/4
f 165/3/4 163/3/4 166/3/4
f 167/1/4 168/1/4 169/1/4
f 169/1/4 168/1/4 170/1/4
f 171/1/4 172/1/4 175/1/4
f 175/1/4 172/1/4 176/1/4
f 173/3/4 174/3/4 178/3/4
f 178/3/4 174/3/4 179/3/4
f 178/2/4 179/2/4 180/2/4
f 180/2/4 179/2/4 181/2/4
f 180/3/4 181/3/4 182/3/4
f 176/3/4 177/3/4 183/3/4
f 183/3/4 177/3/4 184/3/4
f 180/3/4 182/3/4 185/3/4
f 185/3/4 182/3/4 186/3/4
f 187/3/4 188/3/4 190/3/4
f 188/1/4 189/1/4 190/1/4
f 190/1/4 189/1/4 191/1/4
f 187/3/4 190/3/4 193/3/4
f 191/3/4 192/3/4 193/3/4
f 190/3/4 191/3/4 193/3/4
f 193/3/4 192/3/4 194/3/4
f 187/3/4 193/3/4 195/3/4
f 193/2/4 194/2/4 196/2/4
f 195/3/4 193/3/4 196/3/4
f 194/3/4 192/3/4 197/3/4
f 196/2/4 194/2/4 197/2/4
f 195/2/4 196/2/4 198/2/4
f 196/3/4 197/3/4 199/3/4
f 198/2/4 196/2/4 199/2/4
f 198/3/4 199/3/4 200/3/4
f 197/3/4 192/3/4 201/3/4
f 200/3/4 199/3/4 201/3/4
f 199/3/4 197/3/4 201/3/4
f 207/3/5 203/3/5 202/3/5
f 207/2/5 204/2/5 203/2/5
f 208/3/5 205/3/5 204/3/5
f 208/2/5 204/2/5 207/2/5
f 209/3/5 207/3/5 202/3/5
f 209/3/5 208/3/5 207/3/5
f 210/3/5 208/3/5 209/3/5
f 211/2/5 206/2/5 205/2/5
f 211/3/5 208/3/5 210/3/5
f 211/3/5 205/3/5 208/3/5
f 212/2/5 206/2/5 211/2/5
f 213/2/5 210/2/5 209/2/5
f 214/3/5 211/3/5 210/3/5
f 214/2/5 210/2/5 213/2/5
f 214/3/5 212/3/5 211/3/5
f 215/3/5 212/3/5 214/3/5
f 216/3/5 214/3/5 213/3/5
f 216/2/5 215/2/5 214/2/5
f 217/2/5 215/2/5 216/2/5
f 218/3/5 212/3/5 215/3/5
f 218/2/5 215/2/5 217/2/5
f 219/3/5 212/3/5 218/3/5
f 220/3/5 217/3/5 216/3/5
f 220/3/5 216/3/5 213/3/5
f 221/2/5 219/2/5 218/2/5
f 221/3/5 217/3/5 220/3/5
f 221/2/5 218/2/5 217/2/5
f 222/3/5 212/3/5 219/3/5
f 222/2/5 219/2/5 221/2/5
f 223/3/5 212/3/5 222/3/5
f 228/2/5 225/2/5 224/2/5
f 229/2/5 225/2/5 228/2/5
f 230/2/5 225/2/5 229/2/5
f 231/2/5 225/2/5 230/2/5
f 232/3/5 226/3/5 225/3/5
f 232/2/5 225/2/5 231/2/5
f 233/2/5 227/2/5 226/2/5
f 233/3/5 226/3/5 232/3/5
f 234/2/5 227/2/5 233/2/5
f 235/3/5 234/3/5 233/3/5
f 236/3/5 234/3/5 235/3/5
f 237/3/5 229/3/5 228/3/5
f 238/3/5 229/3/5 237/3/5
f 239/2/5 236/2/5 235/2/5
f 242/2/5 236/2/5 239/2/5
f 243/2/5 236/2/5 242/2/5
f 244/3/5 241/3/5 240/3/5
f 248/3/5 243/3/5 242/3/5
f 249/3/5 244/3/5 240/3/5
f 249/3/5 245/3/5 244/3/5
f 249/3/5 246/3/5 245/3/5
f 250/2/5 247/2/5 246/2/5
f 250/3/5 246/3/5 249/3/5
f 251/3/5 248/3/5 247/3/5
f 251/2/5 247/2/5 250/2/5
f 252/3/5 243/3/5 248/3/5
f 252/3/5 248/3/5 251/3/5
f 255/3/5 254/3/5 253/3/5
f 256/3/5 254/3/5 255/3/5
f 259/2/5 258/2/5 257/2/5
f 260/2/5 258/2/5 259/2/5
f 261/2/6 262/2/6 263/2/6
f 263/2/6 262/2/6 264/2/6
f 265/3/6 266/3/6 267/3/6
f 267/3/6 266/3/6 268/3/6
f 269/2/6 270/2/6 271/2/6
f 271/2/6 270/2/6 272/2/6
f 271/3/6 272/3/6 273/3/6
f 273/3/6 272/3/6 274/3/6
f 275/1/6 276/1/6 277/1/6
f 277/1/6 276/1/6 278/1/6
f 279/2/6 280/2/6 284/2/6
f 280/3/6 281/3/6 284/3/6
f 284/3/6 281/3/6 285/3/6
f 281/2/6 282/2/6 286/2/6
f 285/3/6 281/3/6 286/3/6
f 282/3/6 283/3/6 287/3/6
f 286/2/6 282/2/6 287/2/6
f 287/3/6 283/3/6 288/3/6
f 288/3/6 283/3/6 289/3/6
f 279/2/6 284/2/6 290/2/6
f 290/2/6 284/2/6 291/2/6
f 290/3/6 291/3/6 292/3/6
f 292/3/6 291/3/6 293/3/6
f 294/1/6 295/1/6 298/1/6
f 298/1/6 295/1/6 299/1/6
f 296/1/6 297/1/6 300/1/6
f 298/3/6 299/3/6 302/3/6
f 296/1/6 300/1/6 303/1/6
f 303/1/6 300/1/6 304/1/6
f 301/3/6 302/3/6 305/3/6
f 304/3/6 305/3/6 306/3/6
f 305/3/6 302/3/6 307/3/6
f 306/3/6 305/3/6 307/3/6
f 302/3/6 299/3/6 307/3/6
f 309/3/6 310/3/6 311/3/6
f 311/3/6 310/3/6 312/3/6
f 308/2/6 309/2/6 313/2/6
f 309/3/6 311/3/6 313/3/6
f 311/2/6 312/2/6 314/2/6
f 313/3/6 311/3/6 314/3/6
f 314/2/6 312/2/6 315/2/6
f 313/2/6 314/2/6 316/2/6
f 314/3/6 315/3/6 317/3/6
f 316/2/6 314/2/6 317/2/6
f 317/3/6 315/3/6 318/3/6
f 318/3/6 315/3/6 319/3/6
f 308/2/6 313/2/6 320/2/6
f 313/2/6 316/2/6 320/2/6
f 316/3/6 317/3/6 321/3/6
f 320/2/6 316/2/6 321/2/6
f 317/3/6 318/3/6 321/3/6
f 308/2/6 320/2/6 322/2/6
f 320/3/6 321/3/6 323/3/6
f 322/2/6 320/2/6 323/2/6
f 318/1/6 319/1/6 324/1/6
f 323/3/6 321/3/6 324/3/6
f 321/3/6 318/3/6 324/3/6
f 324/1/6 319/1/6 325/1/6
f 322/3/6 323/3/6 326/3/6
f 323/3/6 324/3/6 326/3/6
f 326/3/6 324/3/6 327/3/6
