# MagicaVoxel @ Ephtracy

# group
o Tool - Fishing Pole

# material
mtllib Medieval Assets-225-Tool - Fishing Pole.mtl
usemtl palette

# normals
vn -1 0 0
vn 1 0 0
vn 0 0 1
vn 0 0 -1
vn 0 -1 0
vn 0 1 0

# texcoords
vt 0.130859 0.5
vt 0.158203 0.5
vt 0.173828 0.5
vt 0.181641 0.5

# verts
v 9 0 2.4
v 9 0 2.2
v 9 0.1 2.2
v 9 0.1 2.1
v 9 0.1 2
v 9 0.1 1.7
v 9 0.2 2.4
v 9 0.2 2.3
v 9 0.2 2.1
v 9 0.2 2
v 9 0.3 2.3
v 9 0.3 2.2
v 9 0.3 2.1
v 9 0.3 2
v 9 0.3 1.8
v 9 0.3 1.7
v 9 0.4 2.2
v 9 0.4 2.1
v 9 0.4 2
v 9 0.4 1.9
v 9 0.4 1.8
v 9 0.5 2.1
v 9 0.5 2
v 9 0.5 1.9
v 9 0.5 1.8
v 9 0.6 2
v 9 0.6 1.9
v 9 0.6 1.8
v 9 0.6 1.7
v 9 0.7 1.9
v 9 0.7 1.8
v 9 0.7 1.7
v 9 0.7 1.4
v 9 0.7 0.5
v 9 0.7 0.4
v 9 0.8 1.8
v 9 0.8 1.7
v 9 0.8 1.4
v 9 0.8 1.1
v 9 0.8 0.7
v 9 0.8 0.5
v 9 0.8 0.4
v 9 0.9 1.7
v 9 0.9 1.4
v 9 0.9 1.1
v 9 0.9 0.7
v 9 0.9 0.5
v 9 0.9 0.4
v 9 1 1.4
v 9 1 1.1
v 9 1 0.7
v 9 1 0.5
v 9 1.1 1.1
v 9 1.1 0.7
v 9.1 0 2.4
v 9.1 0 2.2
v 9.1 0.1 2.2
v 9.1 0.1 2.1
v 9.1 0.1 2
v 9.1 0.1 1.7
v 9.1 0.2 2.4
v 9.1 0.2 2.3
v 9.1 0.2 2.1
v 9.1 0.2 2
v 9.1 0.3 2.3
v 9.1 0.3 2.2
v 9.1 0.3 2.1
v 9.1 0.3 2
v 9.1 0.3 1.8
v 9.1 0.3 1.7
v 9.1 0.4 2.2
v 9.1 0.4 2.1
v 9.1 0.4 2
v 9.1 0.4 1.9
v 9.1 0.4 1.8
v 9.1 0.5 2.1
v 9.1 0.5 2
v 9.1 0.5 1.9
v 9.1 0.5 1.8
v 9.1 0.6 2
v 9.1 0.6 1.9
v 9.1 0.6 1.8
v 9.1 0.6 1.7
v 9.1 0.7 1.9
v 9.1 0.7 1.8
v 9.1 0.7 1.7
v 9.1 0.7 1.4
v 9.1 0.7 0.5
v 9.1 0.7 0.4
v 9.1 0.8 1.8
v 9.1 0.8 1.7
v 9.1 0.8 1.4
v 9.1 0.8 1.1
v 9.1 0.8 0.7
v 9.1 0.8 0.5
v 9.1 0.8 0.4
v 9.1 0.9 1.7
v 9.1 0.9 1.4
v 9.1 0.9 1.1
v 9.1 0.9 0.7
v 9.1 0.9 0.5
v 9.1 0.9 0.4
v 9.1 1 1.4
v 9.1 1 1.1
v 9.1 1 0.7
v 9.1 1 0.5
v 9.1 1.1 1.1
v 9.1 1.1 0.7
v 9 0 2.4
v 9 0.2 2.4
v 9.1 0 2.4
v 9.1 0.2 2.4
v 9 0.2 2.3
v 9 0.3 2.3
v 9.1 0.2 2.3
v 9.1 0.3 2.3
v 9 0.3 2.2
v 9 0.4 2.2
v 9.1 0.3 2.2
v 9.1 0.4 2.2
v 9 0.4 2.1
v 9 0.5 2.1
v 9.1 0.4 2.1
v 9.1 0.5 2.1
v 9 0.1 2
v 9 0.2 2
v 9 0.5 2
v 9 0.6 2
v 9.1 0.1 2
v 9.1 0.2 2
v 9.1 0.5 2
v 9.1 0.6 2
v 9 0.6 1.9
v 9 0.7 1.9
v 9.1 0.6 1.9
v 9.1 0.7 1.9
v 9 0.7 1.8
v 9 0.8 1.8
v 9.1 0.7 1.8
v 9.1 0.8 1.8
v 9 0.8 1.7
v 9 0.9 1.7
v 9.1 0.8 1.7
v 9.1 0.9 1.7
v 9 0.9 1.4
v 9 1 1.4
v 9.1 0.9 1.4
v 9.1 1 1.4
v 9 1 1.1
v 9 1.1 1.1
v 9.1 1 1.1
v 9.1 1.1 1.1
v 9 0.8 0.7
v 9 0.9 0.7
v 9.1 0.8 0.7
v 9.1 0.9 0.7
v 9 0.7 0.5
v 9 0.8 0.5
v 9.1 0.7 0.5
v 9.1 0.8 0.5
v 9 0 2.2
v 9 0.1 2.2
v 9.1 0 2.2
v 9.1 0.1 2.2
v 9 0.1 2.1
v 9 0.2 2.1
v 9.1 0.1 2.1
v 9.1 0.2 2.1
v 9 0.4 1.9
v 9 0.5 1.9
v 9.1 0.4 1.9
v 9.1 0.5 1.9
v 9 0.3 1.8
v 9 0.4 1.8
v 9 0.5 1.8
v 9 0.6 1.8
v 9.1 0.3 1.8
v 9.1 0.4 1.8
v 9.1 0.5 1.8
v 9.1 0.6 1.8
v 9 0.1 1.7
v 9 0.3 1.7
v 9 0.6 1.7
v 9 0.7 1.7
v 9.1 0.1 1.7
v 9.1 0.3 1.7
v 9.1 0.6 1.7
v 9.1 0.7 1.7
v 9 0.7 1.4
v 9 0.8 1.4
v 9.1 0.7 1.4
v 9.1 0.8 1.4
v 9 0.8 1.1
v 9 0.9 1.1
v 9.1 0.8 1.1
v 9.1 0.9 1.1
v 9 1 0.7
v 9 1.1 0.7
v 9.1 1 0.7
v 9.1 1.1 0.7
v 9 0.9 0.5
v 9 1 0.5
v 9.1 0.9 0.5
v 9.1 1 0.5
v 9 0.7 0.4
v 9 0.8 0.4
v 9 0.9 0.4
v 9.1 0.7 0.4
v 9.1 0.8 0.4
v 9.1 0.9 0.4
v 9 0 2.4
v 9.1 0 2.4
v 9 0 2.2
v 9.1 0 2.2
v 9 0.1 2.2
v 9.1 0.1 2.2
v 9 0.1 2.1
v 9.1 0.1 2.1
v 9 0.1 2
v 9.1 0.1 2
v 9 0.1 1.7
v 9.1 0.1 1.7
v 9 0.2 2.1
v 9.1 0.2 2.1
v 9 0.2 2
v 9.1 0.2 2
v 9 0.5 1.9
v 9.1 0.5 1.9
v 9 0.5 1.8
v 9.1 0.5 1.8
v 9 0.6 1.8
v 9.1 0.6 1.8
v 9 0.6 1.7
v 9.1 0.6 1.7
v 9 0.7 1.7
v 9.1 0.7 1.7
v 9 0.7 1.4
v 9.1 0.7 1.4
v 9 0.7 0.5
v 9.1 0.7 0.5
v 9 0.7 0.4
v 9.1 0.7 0.4
v 9 0.8 1.4
v 9.1 0.8 1.4
v 9 0.8 1.1
v 9.1 0.8 1.1
v 9 0.8 0.7
v 9.1 0.8 0.7
v 9 0.8 0.5
v 9.1 0.8 0.5
v 9 0.9 1.1
v 9.1 0.9 1.1
v 9 0.9 0.7
v 9.1 0.9 0.7
v 9 0.2 2.4
v 9.1 0.2 2.4
v 9 0.2 2.3
v 9.1 0.2 2.3
v 9 0.3 2.3
v 9.1 0.3 2.3
v 9 0.3 2.2
v 9.1 0.3 2.2
v 9 0.3 1.8
v 9.1 0.3 1.8
v 9 0.3 1.7
v 9.1 0.3 1.7
v 9 0.4 2.2
v 9.1 0.4 2.2
v 9 0.4 2.1
v 9.1 0.4 2.1
v 9 0.4 1.9
v 9.1 0.4 1.9
v 9 0.4 1.8
v 9.1 0.4 1.8
v 9 0.5 2.1
v 9.1 0.5 2.1
v 9 0.5 2
v 9.1 0.5 2
v 9 0.6 2
v 9.1 0.6 2
v 9 0.6 1.9
v 9.1 0.6 1.9
v 9 0.7 1.9
v 9.1 0.7 1.9
v 9 0.7 1.8
v 9.1 0.7 1.8
v 9 0.8 1.8
v 9.1 0.8 1.8
v 9 0.8 1.7
v 9.1 0.8 1.7
v 9 0.9 1.7
v 9.1 0.9 1.7
v 9 0.9 1.4
v 9.1 0.9 1.4
v 9 0.9 0.5
v 9.1 0.9 0.5
v 9 0.9 0.4
v 9.1 0.9 0.4
v 9 1 1.4
v 9.1 1 1.4
v 9 1 1.1
v 9.1 1 1.1
v 9 1 0.7
v 9.1 1 0.7
v 9 1 0.5
v 9.1 1 0.5
v 9 1.1 1.1
v 9.1 1.1 1.1
v 9 1.1 0.7
v 9.1 1.1 0.7

# faces
f 3/2/1 2/2/1 1/2/1
f 7/2/1 3/2/1 1/2/1
f 7/2/1 4/2/1 3/2/1
f 8/2/1 4/2/1 7/2/1
f 9/2/1 4/2/1 8/2/1
f 10/1/1 6/1/1 5/1/1
f 11/2/1 9/2/1 8/2/1
f 11/2/1 10/2/1 9/2/1
f 12/2/1 10/2/1 11/2/1
f 13/2/1 10/2/1 12/2/1
f 14/1/1 6/1/1 10/1/1
f 14/2/1 10/2/1 13/2/1
f 15/1/1 6/1/1 14/1/1
f 16/1/1 6/1/1 15/1/1
f 17/2/1 13/2/1 12/2/1
f 18/3/1 14/3/1 13/3/1
f 18/2/1 13/2/1 17/2/1
f 19/1/1 15/1/1 14/1/1
f 19/3/1 14/3/1 18/3/1
f 20/1/1 15/1/1 19/1/1
f 21/1/1 15/1/1 20/1/1
f 22/4/1 19/4/1 18/4/1
f 23/3/1 20/3/1 19/3/1
f 23/4/1 19/4/1 22/4/1
f 24/3/1 20/3/1 23/3/1
f 26/4/1 24/4/1 23/4/1
f 27/3/1 25/3/1 24/3/1
f 27/4/1 24/4/1 26/4/1
f 28/3/1 25/3/1 27/3/1
f 30/4/1 28/4/1 27/4/1
f 31/3/1 29/3/1 28/3/1
f 31/4/1 28/4/1 30/4/1
f 32/3/1 29/3/1 31/3/1
f 36/4/1 32/4/1 31/4/1
f 37/3/1 33/3/1 32/3/1
f 37/4/1 32/4/1 36/4/1
f 38/3/1 33/3/1 37/3/1
f 41/3/1 35/3/1 34/3/1
f 42/3/1 35/3/1 41/3/1
f 43/4/1 38/4/1 37/4/1
f 44/3/1 39/3/1 38/3/1
f 44/4/1 38/4/1 43/4/1
f 45/3/1 39/3/1 44/3/1
f 46/3/1 41/3/1 40/3/1
f 47/4/1 42/4/1 41/4/1
f 47/3/1 41/3/1 46/3/1
f 48/4/1 42/4/1 47/4/1
f 49/4/1 45/4/1 44/4/1
f 50/3/1 46/3/1 45/3/1
f 50/4/1 45/4/1 49/4/1
f 51/4/1 47/4/1 46/4/1
f 51/3/1 46/3/1 50/3/1
f 52/4/1 47/4/1 51/4/1
f 53/4/1 51/4/1 50/4/1
f 54/4/1 51/4/1 53/4/1
f 55/2/2 56/2/2 57/2/2
f 55/2/2 57/2/2 61/2/2
f 57/2/2 58/2/2 61/2/2
f 61/2/2 58/2/2 62/2/2
f 62/2/2 58/2/2 63/2/2
f 59/1/2 60/1/2 64/1/2
f 62/2/2 63/2/2 65/2/2
f 63/2/2 64/2/2 65/2/2
f 65/2/2 64/2/2 66/2/2
f 66/2/2 64/2/2 67/2/2
f 64/1/2 60/1/2 68/1/2
f 67/2/2 64/2/2 68/2/2
f 68/1/2 60/1/2 69/1/2
f 69/1/2 60/1/2 70/1/2
f 66/2/2 67/2/2 71/2/2
f 67/3/2 68/3/2 72/3/2
f 71/2/2 67/2/2 72/2/2
f 68/1/2 69/1/2 73/1/2
f 72/3/2 68/3/2 73/3/2
f 73/1/2 69/1/2 74/1/2
f 74/1/2 69/1/2 75/1/2
f 72/4/2 73/4/2 76/4/2
f 73/3/2 74/3/2 77/3/2
f 76/4/2 73/4/2 77/4/2
f 77/3/2 74/3/2 78/3/2
f 77/4/2 78/4/2 80/4/2
f 78/3/2 79/3/2 81/3/2
f 80/4/2 78/4/2 81/4/2
f 81/3/2 79/3/2 82/3/2
f 81/4/2 82/4/2 84/4/2
f 82/3/2 83/3/2 85/3/2
f 84/4/2 82/4/2 85/4/2
f 85/3/2 83/3/2 86/3/2
f 85/4/2 86/4/2 90/4/2
f 86/3/2 87/3/2 91/3/2
f 90/4/2 86/4/2 91/4/2
f 91/3/2 87/3/2 92/3/2
f 88/3/2 89/3/2 95/3/2
f 95/3/2 89/3/2 96/3/2
f 91/4/2 92/4/2 97/4/2
f 92/3/2 93/3/2 98/3/2
f 97/4/2 92/4/2 98/4/2
f 98/3/2 93/3/2 99/3/2
f 94/3/2 95/3/2 100/3/2
f 95/4/2 96/4/2 101/4/2
f 100/3/2 95/3/2 101/3/2
f 101/4/2 96/4/2 102/4/2
f 98/4/2 99/4/2 103/4/2
f 99/3/2 100/3/2 104/3/2
f 103/4/2 99/4/2 104/4/2
f 100/4/2 101/4/2 105/4/2
f 104/3/2 100/3/2 105/3/2
f 105/4/2 101/4/2 106/4/2
f 104/4/2 105/4/2 107/4/2
f 107/4/2 105/4/2 108/4/2
f 111/2/3 110/2/3 109/2/3
f 112/2/3 110/2/3 111/2/3
f 115/2/3 114/2/3 113/2/3
f 116/2/3 114/2/3 115/2/3
f 119/2/3 118/2/3 117/2/3
f 120/2/3 118/2/3 119/2/3
f 123/4/3 122/4/3 121/4/3
f 124/4/3 122/4/3 123/4/3
f 129/1/3 126/1/3 125/1/3
f 130/1/3 126/1/3 129/1/3
f 131/4/3 128/4/3 127/4/3
f 132/4/3 128/4/3 131/4/3
f 135/4/3 134/4/3 133/4/3
f 136/4/3 134/4/3 135/4/3
f 139/4/3 138/4/3 137/4/3
f 140/4/3 138/4/3 139/4/3
f 143/4/3 142/4/3 141/4/3
f 144/4/3 142/4/3 143/4/3
f 147/4/3 146/4/3 145/4/3
f 148/4/3 146/4/3 147/4/3
f 151/4/3 150/4/3 149/4/3
f 152/4/3 150/4/3 151/4/3
f 155/3/3 154/3/3 153/3/3
f 156/3/3 154/3/3 155/3/3
f 159/3/3 158/3/3 157/3/3
f 160/3/3 158/3/3 159/3/3
f 161/2/4 162/2/4 163/2/4
f 163/2/4 162/2/4 164/2/4
f 165/2/4 166/2/4 167/2/4
f 167/2/4 166/2/4 168/2/4
f 169/3/4 170/3/4 171/3/4
f 171/3/4 170/3/4 172/3/4
f 173/1/4 174/1/4 177/1/4
f 177/1/4 174/1/4 178/1/4
f 175/3/4 176/3/4 179/3/4
f 179/3/4 176/3/4 180/3/4
f 181/1/4 182/1/4 185/1/4
f 185/1/4 182/1/4 186/1/4
f 183/3/4 184/3/4 187/3/4
f 187/3/4 184/3/4 188/3/4
f 189/3/4 190/3/4 191/3/4
f 191/3/4 190/3/4 192/3/4
f 193/3/4 194/3/4 195/3/4
f 195/3/4 194/3/4 196/3/4
f 197/4/4 198/4/4 199/4/4
f 199/4/4 198/4/4 200/4/4
f 201/4/4 202/4/4 203/4/4
f 203/4/4 202/4/4 204/4/4
f 205/3/4 206/3/4 208/3/4
f 206/4/4 207/4/4 209/4/4
f 208/3/4 206/3/4 209/3/4
f 209/4/4 207/4/4 210/4/4
f 213/2/5 212/2/5 211/2/5
f 214/2/5 212/2/5 213/2/5
f 217/2/5 216/2/5 215/2/5
f 218/2/5 216/2/5 217/2/5
f 221/1/5 220/1/5 219/1/5
f 222/1/5 220/1/5 221/1/5
f 225/2/5 224/2/5 223/2/5
f 226/2/5 224/2/5 225/2/5
f 229/3/5 228/3/5 227/3/5
f 230/3/5 228/3/5 229/3/5
f 233/3/5 232/3/5 231/3/5
f 234/3/5 232/3/5 233/3/5
f 237/3/5 236/3/5 235/3/5
f 238/3/5 236/3/5 237/3/5
f 241/3/5 240/3/5 239/3/5
f 242/3/5 240/3/5 241/3/5
f 245/3/5 244/3/5 243/3/5
f 246/3/5 244/3/5 245/3/5
f 249/3/5 248/3/5 247/3/5
f 250/3/5 248/3/5 249/3/5
f 253/3/5 252/3/5 251/3/5
f 254/3/5 252/3/5 253/3/5
f 255/2/6 256/2/6 257/2/6
f 257/2/6 256/2/6 258/2/6
f 259/2/6 260/2/6 261/2/6
f 261/2/6 260/2/6 262/2/6
f 263/1/6 264/1/6 265/1/6
f 265/1/6 264/1/6 266/1/6
f 267/2/6 268/2/6 269/2/6
f 269/2/6 268/2/6 270/2/6
f 271/1/6 272/1/6 273/1/6
f 273/1/6 272/1/6 274/1/6
f 275/4/6 276/4/6 277/4/6
f 277/4/6 276/4/6 278/4/6
f 279/4/6 280/4/6 281/4/6
f 281/4/6 280/4/6 282/4/6
f 283/4/6 284/4/6 285/4/6
f 285/4/6 284/4/6 286/4/6
f 287/4/6 288/4/6 289/4/6
f 289/4/6 288/4/6 290/4/6
f 291/4/6 292/4/6 293/4/6
f 293/4/6 292/4/6 294/4/6
f 295/4/6 296/4/6 297/4/6
f 297/4/6 296/4/6 298/4/6
f 299/4/6 300/4/6 301/4/6
f 301/4/6 300/4/6 302/4/6
f 303/4/6 304/4/6 305/4/6
f 305/4/6 304/4/6 306/4/6
f 307/4/6 308/4/6 309/4/6
f 309/4/6 308/4/6 310/4/6
