# MagicaVoxel @ Ephtracy

# group
o Vegetation - Flower - Base

# material
mtllib Medieval Assets-339-Vegetation - Flower - Base.mtl
usemtl palette

# normals
vn -1 0 0
vn 1 0 0
vn 0 0 1
vn 0 0 -1
vn 0 -1 0
vn 0 1 0

# texcoords
vt 0.0488281 0.5
vt 0.0566406 0.5
vt 0.130859 0.5

# verts
v 2.5 0.3 33.9
v 2.5 0.3 33.7
v 2.5 0.4 33.9
v 2.5 0.4 33.7
v 2.7 0 33.9
v 2.7 0 33.7
v 2.7 0.2 33.9
v 2.7 0.2 33.7
v 2.7 0.3 34.1
v 2.7 0.3 33.9
v 2.7 0.3 33.7
v 2.7 0.3 33.5
v 2.7 0.4 34.1
v 2.7 0.4 33.9
v 2.7 0.4 33.7
v 2.7 0.4 33.5
v 2.9 0 33.9
v 2.9 0 33.7
v 2.9 0.2 33.9
v 2.9 0.2 33.7
v 2.9 0.3 34.1
v 2.9 0.3 33.9
v 2.9 0.3 33.7
v 2.9 0.3 33.5
v 2.9 0.4 34.1
v 2.9 0.4 33.9
v 2.9 0.4 33.7
v 2.9 0.4 33.5
v 3.1 0.3 33.9
v 3.1 0.3 33.7
v 3.1 0.4 33.9
v 3.1 0.4 33.7
v 2.7 0.3 34.1
v 2.7 0.4 34.1
v 2.9 0.3 34.1
v 2.9 0.4 34.1
v 2.5 0.3 33.9
v 2.5 0.4 33.9
v 2.7 0 33.9
v 2.7 0.2 33.9
v 2.7 0.3 33.9
v 2.7 0.4 33.9
v 2.9 0 33.9
v 2.9 0.2 33.9
v 2.9 0.3 33.9
v 2.9 0.4 33.9
v 3.1 0.3 33.9
v 3.1 0.4 33.9
v 2.5 0.3 33.7
v 2.5 0.4 33.7
v 2.7 0 33.7
v 2.7 0.2 33.7
v 2.7 0.3 33.7
v 2.7 0.4 33.7
v 2.9 0 33.7
v 2.9 0.2 33.7
v 2.9 0.3 33.7
v 2.9 0.4 33.7
v 3.1 0.3 33.7
v 3.1 0.4 33.7
v 2.7 0.3 33.5
v 2.7 0.4 33.5
v 2.9 0.3 33.5
v 2.9 0.4 33.5
v 2.7 0 33.9
v 2.9 0 33.9
v 2.7 0 33.7
v 2.9 0 33.7
v 2.7 0.3 34.1
v 2.9 0.3 34.1
v 2.5 0.3 33.9
v 2.7 0.3 33.9
v 2.9 0.3 33.9
v 3.1 0.3 33.9
v 2.5 0.3 33.7
v 2.7 0.3 33.7
v 2.9 0.3 33.7
v 3.1 0.3 33.7
v 2.7 0.3 33.5
v 2.9 0.3 33.5
v 2.7 0.4 34.1
v 2.9 0.4 34.1
v 2.5 0.4 33.9
v 2.7 0.4 33.9
v 2.9 0.4 33.9
v 3.1 0.4 33.9
v 2.5 0.4 33.7
v 2.7 0.4 33.7
v 2.9 0.4 33.7
v 3.1 0.4 33.7
v 2.7 0.4 33.5
v 2.9 0.4 33.5

# faces
f 3/3/1 2/3/1 1/3/1
f 4/3/1 2/3/1 3/3/1
f 7/2/1 6/2/1 5/2/1
f 8/2/1 6/2/1 7/2/1
f 10/1/1 8/1/1 7/1/1
f 11/1/1 8/1/1 10/1/1
f 13/3/1 10/3/1 9/3/1
f 14/3/1 10/3/1 13/3/1
f 15/3/1 12/3/1 11/3/1
f 16/3/1 12/3/1 15/3/1
f 17/2/2 18/2/2 19/2/2
f 19/2/2 18/2/2 20/2/2
f 19/1/2 20/1/2 22/1/2
f 22/1/2 20/1/2 23/1/2
f 21/3/2 22/3/2 25/3/2
f 25/3/2 22/3/2 26/3/2
f 23/3/2 24/3/2 27/3/2
f 27/3/2 24/3/2 28/3/2
f 29/3/2 30/3/2 31/3/2
f 31/3/2 30/3/2 32/3/2
f 35/3/3 34/3/3 33/3/3
f 36/3/3 34/3/3 35/3/3
f 41/3/3 38/3/3 37/3/3
f 42/3/3 38/3/3 41/3/3
f 43/2/3 40/2/3 39/2/3
f 44/1/3 41/1/3 40/1/3
f 44/2/3 40/2/3 43/2/3
f 45/1/3 41/1/3 44/1/3
f 47/3/3 46/3/3 45/3/3
f 48/3/3 46/3/3 47/3/3
f 49/3/4 50/3/4 53/3/4
f 53/3/4 50/3/4 54/3/4
f 51/2/4 52/2/4 55/2/4
f 52/1/4 53/1/4 56/1/4
f 55/2/4 52/2/4 56/2/4
f 56/1/4 53/1/4 57/1/4
f 57/3/4 58/3/4 59/3/4
f 59/3/4 58/3/4 60/3/4
f 61/3/4 62/3/4 63/3/4
f 63/3/4 62/3/4 64/3/4
f 67/2/5 66/2/5 65/2/5
f 68/2/5 66/2/5 67/2/5
f 72/3/5 70/3/5 69/3/5
f 73/3/5 70/3/5 72/3/5
f 75/3/5 72/3/5 71/3/5
f 76/3/5 72/3/5 75/3/5
f 77/3/5 74/3/5 73/3/5
f 78/3/5 74/3/5 77/3/5
f 79/3/5 77/3/5 76/3/5
f 80/3/5 77/3/5 79/3/5
f 81/3/6 82/3/6 84/3/6
f 84/3/6 82/3/6 85/3/6
f 83/3/6 84/3/6 87/3/6
f 85/3/6 86/3/6 87/3/6
f 84/3/6 85/3/6 87/3/6
f 87/3/6 86/3/6 88/3/6
f 88/3/6 86/3/6 89/3/6
f 89/3/6 86/3/6 90/3/6
f 88/3/6 89/3/6 91/3/6
f 91/3/6 89/3/6 92/3/6
