# MagicaVoxel @ Ephtracy

# group
o Banner Holder - Highlight

# material
mtllib Medieval Assets-151-Banner Holder - Highlight.mtl
usemtl palette

# normals
vn -1 0 0
vn 1 0 0
vn 0 0 1
vn 0 0 -1
vn 0 -1 0
vn 0 1 0

# texcoords
vt 0.138672 0.5
vt 0.146484 0.5

# verts
v 21.2 2.5 8.3
v 21.2 2.5 8.2
v 21.2 3.5 8.3
v 21.2 3.5 8.2
v 21.3 2.4 8.3
v 21.3 2.4 8.2
v 21.3 2.5 8.3
v 21.3 2.5 8.2
v 21.4 2.2 8.3
v 21.4 2.2 8.2
v 21.4 2.4 8.3
v 21.4 2.4 8.2
v 21.5 2.1 8.3
v 21.5 2.1 8.2
v 21.5 2.2 8.3
v 21.5 2.2 8.2
v 21.6 1.9 8.3
v 21.6 1.9 8.2
v 21.6 2.1 8.3
v 21.6 2.1 8.2
v 21.6 2.8 8.3
v 21.6 2.8 8.2
v 21.6 2.9 8.3
v 21.6 2.9 8.2
v 21.7 1.7 8.3
v 21.7 1.7 8.2
v 21.7 1.9 8.3
v 21.7 1.9 8.2
v 21.7 2.7 8.3
v 21.7 2.7 8.2
v 21.7 2.8 8.3
v 21.7 2.8 8.2
v 21.7 2.9 8.3
v 21.7 2.9 8.2
v 21.7 3 8.3
v 21.7 3 8.2
v 21.8 1.6 8.3
v 21.8 1.6 8.2
v 21.8 1.7 8.3
v 21.8 1.7 8.2
v 21.8 2.6 8.3
v 21.8 2.6 8.2
v 21.8 2.7 8.3
v 21.8 2.7 8.2
v 21.8 3 8.3
v 21.8 3 8.2
v 21.8 3.1 8.3
v 21.8 3.1 8.2
v 21.9 2.5 8.3
v 21.9 2.5 8.2
v 21.9 2.6 8.3
v 21.9 2.6 8.2
v 21.9 3.1 8.3
v 21.9 3.1 8.2
v 21.9 3.2 8.3
v 21.9 3.2 8.2
v 22.1 1.8 8.3
v 22.1 1.8 8.2
v 22.1 1.9 8.3
v 22.1 1.9 8.2
v 22.1 2.6 8.3
v 22.1 2.6 8.2
v 22.1 2.7 8.3
v 22.1 2.7 8.2
v 22.1 3 8.3
v 22.1 3 8.2
v 22.1 3.1 8.3
v 22.1 3.1 8.2
v 22.2 1.9 8.3
v 22.2 1.9 8.2
v 22.2 2.1 8.3
v 22.2 2.1 8.2
v 22.2 2.7 8.3
v 22.2 2.7 8.2
v 22.2 2.8 8.3
v 22.2 2.8 8.2
v 22.2 2.9 8.3
v 22.2 2.9 8.2
v 22.2 3 8.3
v 22.2 3 8.2
v 22.3 2.1 8.3
v 22.3 2.1 8.2
v 22.3 2.2 8.3
v 22.3 2.2 8.2
v 22.3 2.8 8.3
v 22.3 2.8 8.2
v 22.3 2.9 8.3
v 22.3 2.9 8.2
v 22.4 2.2 8.3
v 22.4 2.2 8.2
v 22.4 2.4 8.3
v 22.4 2.4 8.2
v 22.5 2.4 8.3
v 22.5 2.4 8.2
v 22.5 2.5 8.3
v 22.5 2.5 8.2
v 22.6 2.5 8.3
v 22.6 2.5 8.2
v 22.6 3.3 8.3
v 22.6 3.3 8.2
v 21.4 2.5 8.3
v 21.4 2.5 8.2
v 21.4 3.3 8.3
v 21.4 3.3 8.2
v 21.5 2.4 8.3
v 21.5 2.4 8.2
v 21.5 2.5 8.3
v 21.5 2.5 8.2
v 21.6 2.2 8.3
v 21.6 2.2 8.2
v 21.6 2.4 8.3
v 21.6 2.4 8.2
v 21.7 2.1 8.3
v 21.7 2.1 8.2
v 21.7 2.2 8.3
v 21.7 2.2 8.2
v 21.7 2.8 8.3
v 21.7 2.8 8.2
v 21.7 2.9 8.3
v 21.7 2.9 8.2
v 21.8 1.9 8.3
v 21.8 1.9 8.2
v 21.8 2.1 8.3
v 21.8 2.1 8.2
v 21.8 2.7 8.3
v 21.8 2.7 8.2
v 21.8 2.8 8.3
v 21.8 2.8 8.2
v 21.8 2.9 8.3
v 21.8 2.9 8.2
v 21.8 3 8.3
v 21.8 3 8.2
v 21.9 1.8 8.3
v 21.9 1.8 8.2
v 21.9 1.9 8.3
v 21.9 1.9 8.2
v 21.9 2.6 8.3
v 21.9 2.6 8.2
v 21.9 2.7 8.3
v 21.9 2.7 8.2
v 21.9 3 8.3
v 21.9 3 8.2
v 21.9 3.1 8.3
v 21.9 3.1 8.2
v 22.1 2.5 8.3
v 22.1 2.5 8.2
v 22.1 2.6 8.3
v 22.1 2.6 8.2
v 22.1 3.1 8.3
v 22.1 3.1 8.2
v 22.1 3.2 8.3
v 22.1 3.2 8.2
v 22.2 1.6 8.3
v 22.2 1.6 8.2
v 22.2 1.7 8.3
v 22.2 1.7 8.2
v 22.2 2.6 8.3
v 22.2 2.6 8.2
v 22.2 2.7 8.3
v 22.2 2.7 8.2
v 22.2 3 8.3
v 22.2 3 8.2
v 22.2 3.1 8.3
v 22.2 3.1 8.2
v 22.3 1.7 8.3
v 22.3 1.7 8.2
v 22.3 1.9 8.3
v 22.3 1.9 8.2
v 22.3 2.7 8.3
v 22.3 2.7 8.2
v 22.3 2.8 8.3
v 22.3 2.8 8.2
v 22.3 2.9 8.3
v 22.3 2.9 8.2
v 22.3 3 8.3
v 22.3 3 8.2
v 22.4 1.9 8.3
v 22.4 1.9 8.2
v 22.4 2.1 8.3
v 22.4 2.1 8.2
v 22.4 2.8 8.3
v 22.4 2.8 8.2
v 22.4 2.9 8.3
v 22.4 2.9 8.2
v 22.5 2.1 8.3
v 22.5 2.1 8.2
v 22.5 2.2 8.3
v 22.5 2.2 8.2
v 22.6 2.2 8.3
v 22.6 2.2 8.2
v 22.6 2.4 8.3
v 22.6 2.4 8.2
v 22.7 2.4 8.3
v 22.7 2.4 8.2
v 22.7 2.5 8.3
v 22.7 2.5 8.2
v 22.8 2.5 8.3
v 22.8 2.5 8.2
v 22.8 3.5 8.3
v 22.8 3.5 8.2
v 21.2 2.5 8.3
v 21.2 3.5 8.3
v 21.3 2.4 8.3
v 21.3 2.5 8.3
v 21.3 3.4 8.3
v 21.4 2.2 8.3
v 21.4 2.4 8.3
v 21.4 2.5 8.3
v 21.4 3.3 8.3
v 21.5 2.1 8.3
v 21.5 2.2 8.3
v 21.5 2.4 8.3
v 21.5 2.5 8.3
v 21.6 1.9 8.3
v 21.6 2.1 8.3
v 21.6 2.2 8.3
v 21.6 2.4 8.3
v 21.6 2.8 8.3
v 21.6 2.9 8.3
v 21.7 1.7 8.3
v 21.7 1.9 8.3
v 21.7 2.1 8.3
v 21.7 2.2 8.3
v 21.7 2.7 8.3
v 21.7 2.8 8.3
v 21.7 2.9 8.3
v 21.7 3 8.3
v 21.8 1.6 8.3
v 21.8 1.7 8.3
v 21.8 1.9 8.3
v 21.8 2.1 8.3
v 21.8 2.6 8.3
v 21.8 2.7 8.3
v 21.8 2.8 8.3
v 21.8 2.9 8.3
v 21.8 3 8.3
v 21.8 3.1 8.3
v 21.9 1.8 8.3
v 21.9 1.9 8.3
v 21.9 2.5 8.3
v 21.9 2.6 8.3
v 21.9 2.7 8.3
v 21.9 3 8.3
v 21.9 3.1 8.3
v 21.9 3.2 8.3
v 22.1 1.8 8.3
v 22.1 1.9 8.3
v 22.1 2.5 8.3
v 22.1 2.6 8.3
v 22.1 2.7 8.3
v 22.1 3 8.3
v 22.1 3.1 8.3
v 22.1 3.2 8.3
v 22.2 1.6 8.3
v 22.2 1.7 8.3
v 22.2 1.9 8.3
v 22.2 2.1 8.3
v 22.2 2.6 8.3
v 22.2 2.7 8.3
v 22.2 2.8 8.3
v 22.2 2.9 8.3
v 22.2 3 8.3
v 22.2 3.1 8.3
v 22.3 1.7 8.3
v 22.3 1.9 8.3
v 22.3 2.1 8.3
v 22.3 2.2 8.3
v 22.3 2.7 8.3
v 22.3 2.8 8.3
v 22.3 2.9 8.3
v 22.3 3 8.3
v 22.4 1.9 8.3
v 22.4 2.1 8.3
v 22.4 2.2 8.3
v 22.4 2.4 8.3
v 22.4 2.8 8.3
v 22.4 2.9 8.3
v 22.5 2.1 8.3
v 22.5 2.2 8.3
v 22.5 2.4 8.3
v 22.5 2.5 8.3
v 22.6 2.2 8.3
v 22.6 2.4 8.3
v 22.6 2.5 8.3
v 22.6 3.3 8.3
v 22.7 2.4 8.3
v 22.7 2.5 8.3
v 22.7 3.4 8.3
v 22.8 2.5 8.3
v 22.8 3.5 8.3
v 21.2 2.5 8.2
v 21.2 3.5 8.2
v 21.3 2.4 8.2
v 21.3 2.5 8.2
v 21.3 3.4 8.2
v 21.4 2.2 8.2
v 21.4 2.4 8.2
v 21.4 2.5 8.2
v 21.4 3.3 8.2
v 21.5 2.1 8.2
v 21.5 2.2 8.2
v 21.5 2.4 8.2
v 21.5 2.5 8.2
v 21.6 1.9 8.2
v 21.6 2.1 8.2
v 21.6 2.2 8.2
v 21.6 2.4 8.2
v 21.6 2.8 8.2
v 21.6 2.9 8.2
v 21.7 1.7 8.2
v 21.7 1.9 8.2
v 21.7 2.1 8.2
v 21.7 2.2 8.2
v 21.7 2.7 8.2
v 21.7 2.8 8.2
v 21.7 2.9 8.2
v 21.7 3 8.2
v 21.8 1.6 8.2
v 21.8 1.7 8.2
v 21.8 1.9 8.2
v 21.8 2.1 8.2
v 21.8 2.6 8.2
v 21.8 2.7 8.2
v 21.8 2.8 8.2
v 21.8 2.9 8.2
v 21.8 3 8.2
v 21.8 3.1 8.2
v 21.9 1.8 8.2
v 21.9 1.9 8.2
v 21.9 2.5 8.2
v 21.9 2.6 8.2
v 21.9 2.7 8.2
v 21.9 3 8.2
v 21.9 3.1 8.2
v 21.9 3.2 8.2
v 22.1 1.8 8.2
v 22.1 1.9 8.2
v 22.1 2.5 8.2
v 22.1 2.6 8.2
v 22.1 2.7 8.2
v 22.1 3 8.2
v 22.1 3.1 8.2
v 22.1 3.2 8.2
v 22.2 1.6 8.2
v 22.2 1.7 8.2
v 22.2 1.9 8.2
v 22.2 2.1 8.2
v 22.2 2.6 8.2
v 22.2 2.7 8.2
v 22.2 2.8 8.2
v 22.2 2.9 8.2
v 22.2 3 8.2
v 22.2 3.1 8.2
v 22.3 1.7 8.2
v 22.3 1.9 8.2
v 22.3 2.1 8.2
v 22.3 2.2 8.2
v 22.3 2.7 8.2
v 22.3 2.8 8.2
v 22.3 2.9 8.2
v 22.3 3 8.2
v 22.4 1.9 8.2
v 22.4 2.1 8.2
v 22.4 2.2 8.2
v 22.4 2.4 8.2
v 22.4 2.8 8.2
v 22.4 2.9 8.2
v 22.5 2.1 8.2
v 22.5 2.2 8.2
v 22.5 2.4 8.2
v 22.5 2.5 8.2
v 22.6 2.2 8.2
v 22.6 2.4 8.2
v 22.6 2.5 8.2
v 22.6 3.3 8.2
v 22.7 2.4 8.2
v 22.7 2.5 8.2
v 22.7 3.4 8.2
v 22.8 2.5 8.2
v 22.8 3.5 8.2
v 21.8 1.6 8.3
v 22.2 1.6 8.3
v 21.8 1.6 8.2
v 22.2 1.6 8.2
v 21.7 1.7 8.3
v 21.8 1.7 8.3
v 22.2 1.7 8.3
v 22.3 1.7 8.3
v 21.7 1.7 8.2
v 21.8 1.7 8.2
v 22.2 1.7 8.2
v 22.3 1.7 8.2
v 21.6 1.9 8.3
v 21.7 1.9 8.3
v 22.3 1.9 8.3
v 22.4 1.9 8.3
v 21.6 1.9 8.2
v 21.7 1.9 8.2
v 22.3 1.9 8.2
v 22.4 1.9 8.2
v 21.5 2.1 8.3
v 21.6 2.1 8.3
v 22.4 2.1 8.3
v 22.5 2.1 8.3
v 21.5 2.1 8.2
v 21.6 2.1 8.2
v 22.4 2.1 8.2
v 22.5 2.1 8.2
v 21.4 2.2 8.3
v 21.5 2.2 8.3
v 22.5 2.2 8.3
v 22.6 2.2 8.3
v 21.4 2.2 8.2
v 21.5 2.2 8.2
v 22.5 2.2 8.2
v 22.6 2.2 8.2
v 21.3 2.4 8.3
v 21.4 2.4 8.3
v 22.6 2.4 8.3
v 22.7 2.4 8.3
v 21.3 2.4 8.2
v 21.4 2.4 8.2
v 22.6 2.4 8.2
v 22.7 2.4 8.2
v 21.2 2.5 8.3
v 21.3 2.5 8.3
v 21.9 2.5 8.3
v 22.1 2.5 8.3
v 22.7 2.5 8.3
v 22.8 2.5 8.3
v 21.2 2.5 8.2
v 21.3 2.5 8.2
v 21.9 2.5 8.2
v 22.1 2.5 8.2
v 22.7 2.5 8.2
v 22.8 2.5 8.2
v 21.8 2.6 8.3
v 21.9 2.6 8.3
v 22.1 2.6 8.3
v 22.2 2.6 8.3
v 21.8 2.6 8.2
v 21.9 2.6 8.2
v 22.1 2.6 8.2
v 22.2 2.6 8.2
v 21.7 2.7 8.3
v 21.8 2.7 8.3
v 22.2 2.7 8.3
v 22.3 2.7 8.3
v 21.7 2.7 8.2
v 21.8 2.7 8.2
v 22.2 2.7 8.2
v 22.3 2.7 8.2
v 21.6 2.8 8.3
v 21.7 2.8 8.3
v 22.3 2.8 8.3
v 22.4 2.8 8.3
v 21.6 2.8 8.2
v 21.7 2.8 8.2
v 22.3 2.8 8.2
v 22.4 2.8 8.2
v 21.7 2.9 8.3
v 21.8 2.9 8.3
v 22.2 2.9 8.3
v 22.3 2.9 8.3
v 21.7 2.9 8.2
v 21.8 2.9 8.2
v 22.2 2.9 8.2
v 22.3 2.9 8.2
v 21.8 3 8.3
v 21.9 3 8.3
v 22.1 3 8.3
v 22.2 3 8.3
v 21.8 3 8.2
v 21.9 3 8.2
v 22.1 3 8.2
v 22.2 3 8.2
v 21.9 3.1 8.3
v 22.1 3.1 8.3
v 21.9 3.1 8.2
v 22.1 3.1 8.2
v 21.4 3.3 8.3
v 22.6 3.3 8.3
v 21.4 3.3 8.2
v 22.6 3.3 8.2
v 21.9 1.8 8.3
v 22.1 1.8 8.3
v 21.9 1.8 8.2
v 22.1 1.8 8.2
v 21.8 1.9 8.3
v 21.9 1.9 8.3
v 22.1 1.9 8.3
v 22.2 1.9 8.3
v 21.8 1.9 8.2
v 21.9 1.9 8.2
v 22.1 1.9 8.2
v 22.2 1.9 8.2
v 21.7 2.1 8.3
v 21.8 2.1 8.3
v 22.2 2.1 8.3
v 22.3 2.1 8.3
v 21.7 2.1 8.2
v 21.8 2.1 8.2
v 22.2 2.1 8.2
v 22.3 2.1 8.2
v 21.6 2.2 8.3
v 21.7 2.2 8.3
v 22.3 2.2 8.3
v 22.4 2.2 8.3
v 21.6 2.2 8.2
v 21.7 2.2 8.2
v 22.3 2.2 8.2
v 22.4 2.2 8.2
v 21.5 2.4 8.3
v 21.6 2.4 8.3
v 22.4 2.4 8.3
v 22.5 2.4 8.3
v 21.5 2.4 8.2
v 21.6 2.4 8.2
v 22.4 2.4 8.2
v 22.5 2.4 8.2
v 21.4 2.5 8.3
v 21.5 2.5 8.3
v 22.5 2.5 8.3
v 22.6 2.5 8.3
v 21.4 2.5 8.2
v 21.5 2.5 8.2
v 22.5 2.5 8.2
v 22.6 2.5 8.2
v 21.9 2.6 8.3
v 22.1 2.6 8.3
v 21.9 2.6 8.2
v 22.1 2.6 8.2
v 21.8 2.7 8.3
v 21.9 2.7 8.3
v 22.1 2.7 8.3
v 22.2 2.7 8.3
v 21.8 2.7 8.2
v 21.9 2.7 8.2
v 22.1 2.7 8.2
v 22.2 2.7 8.2
v 21.7 2.8 8.3
v 21.8 2.8 8.3
v 22.2 2.8 8.3
v 22.3 2.8 8.3
v 21.7 2.8 8.2
v 21.8 2.8 8.2
v 22.2 2.8 8.2
v 22.3 2.8 8.2
v 21.6 2.9 8.3
v 21.7 2.9 8.3
v 22.3 2.9 8.3
v 22.4 2.9 8.3
v 21.6 2.9 8.2
v 21.7 2.9 8.2
v 22.3 2.9 8.2
v 22.4 2.9 8.2
v 21.7 3 8.3
v 21.8 3 8.3
v 22.2 3 8.3
v 22.3 3 8.3
v 21.7 3 8.2
v 21.8 3 8.2
v 22.2 3 8.2
v 22.3 3 8.2
v 21.8 3.1 8.3
v 21.9 3.1 8.3
v 22.1 3.1 8.3
v 22.2 3.1 8.3
v 21.8 3.1 8.2
v 21.9 3.1 8.2
v 22.1 3.1 8.2
v 22.2 3.1 8.2
v 21.9 3.2 8.3
v 22.1 3.2 8.3
v 21.9 3.2 8.2
v 22.1 3.2 8.2
v 21.2 3.5 8.3
v 22.8 3.5 8.3
v 21.2 3.5 8.2
v 22.8 3.5 8.2

# faces
f 3/1/1 2/1/1 1/1/1
f 4/1/1 2/1/1 3/1/1
f 7/1/1 6/1/1 5/1/1
f 8/1/1 6/1/1 7/1/1
f 11/1/1 10/1/1 9/1/1
f 12/1/1 10/1/1 11/1/1
f 15/1/1 14/1/1 13/1/1
f 16/1/1 14/1/1 15/1/1
f 19/1/1 18/1/1 17/1/1
f 20/1/1 18/1/1 19/1/1
f 23/1/1 22/1/1 21/1/1
f 24/1/1 22/1/1 23/1/1
f 27/1/1 26/1/1 25/1/1
f 28/1/1 26/1/1 27/1/1
f 31/1/1 30/1/1 29/1/1
f 32/1/1 30/1/1 31/1/1
f 35/1/1 34/1/1 33/1/1
f 36/1/1 34/1/1 35/1/1
f 39/1/1 38/1/1 37/1/1
f 40/1/1 38/1/1 39/1/1
f 43/1/1 42/1/1 41/1/1
f 44/1/1 42/1/1 43/1/1
f 47/1/1 46/1/1 45/1/1
f 48/1/1 46/1/1 47/1/1
f 51/1/1 50/1/1 49/1/1
f 52/1/1 50/1/1 51/1/1
f 55/1/1 54/1/1 53/1/1
f 56/1/1 54/1/1 55/1/1
f 59/2/1 58/2/1 57/2/1
f 60/2/1 58/2/1 59/2/1
f 63/1/1 62/1/1 61/1/1
f 64/1/1 62/1/1 63/1/1
f 67/1/1 66/1/1 65/1/1
f 68/1/1 66/1/1 67/1/1
f 71/2/1 70/2/1 69/2/1
f 72/2/1 70/2/1 71/2/1
f 75/1/1 74/1/1 73/1/1
f 76/1/1 74/1/1 75/1/1
f 79/1/1 78/1/1 77/1/1
f 80/1/1 78/1/1 79/1/1
f 83/2/1 82/2/1 81/2/1
f 84/2/1 82/2/1 83/2/1
f 87/1/1 86/1/1 85/1/1
f 88/1/1 86/1/1 87/1/1
f 91/2/1 90/2/1 89/2/1
f 92/2/1 90/2/1 91/2/1
f 95/2/1 94/2/1 93/2/1
f 96/2/1 94/2/1 95/2/1
f 99/2/1 98/2/1 97/2/1
f 100/2/1 98/2/1 99/2/1
f 101/2/2 102/2/2 103/2/2
f 103/2/2 102/2/2 104/2/2
f 105/2/2 106/2/2 107/2/2
f 107/2/2 106/2/2 108/2/2
f 109/2/2 110/2/2 111/2/2
f 111/2/2 110/2/2 112/2/2
f 113/2/2 114/2/2 115/2/2
f 115/2/2 114/2/2 116/2/2
f 117/1/2 118/1/2 119/1/2
f 119/1/2 118/1/2 120/1/2
f 121/2/2 122/2/2 123/2/2
f 123/2/2 122/2/2 124/2/2
f 125/1/2 126/1/2 127/1/2
f 127/1/2 126/1/2 128/1/2
f 129/1/2 130/1/2 131/1/2
f 131/1/2 130/1/2 132/1/2
f 133/2/2 134/2/2 135/2/2
f 135/2/2 134/2/2 136/2/2
f 137/1/2 138/1/2 139/1/2
f 139/1/2 138/1/2 140/1/2
f 141/1/2 142/1/2 143/1/2
f 143/1/2 142/1/2 144/1/2
f 145/1/2 146/1/2 147/1/2
f 147/1/2 146/1/2 148/1/2
f 149/1/2 150/1/2 151/1/2
f 151/1/2 150/1/2 152/1/2
f 153/1/2 154/1/2 155/1/2
f 155/1/2 154/1/2 156/1/2
f 157/1/2 158/1/2 159/1/2
f 159/1/2 158/1/2 160/1/2
f 161/1/2 162/1/2 163/1/2
f 163/1/2 162/1/2 164/1/2
f 165/1/2 166/1/2 167/1/2
f 167/1/2 166/1/2 168/1/2
f 169/1/2 170/1/2 171/1/2
f 171/1/2 170/1/2 172/1/2
f 173/1/2 174/1/2 175/1/2
f 175/1/2 174/1/2 176/1/2
f 177/1/2 178/1/2 179/1/2
f 179/1/2 178/1/2 180/1/2
f 181/1/2 182/1/2 183/1/2
f 183/1/2 182/1/2 184/1/2
f 185/1/2 186/1/2 187/1/2
f 187/1/2 186/1/2 188/1/2
f 189/1/2 190/1/2 191/1/2
f 191/1/2 190/1/2 192/1/2
f 193/1/2 194/1/2 195/1/2
f 195/1/2 194/1/2 196/1/2
f 197/1/2 198/1/2 199/1/2
f 199/1/2 198/1/2 200/1/2
f 204/1/3 202/1/3 201/1/3
f 205/1/3 202/1/3 204/1/3
f 207/1/3 204/1/3 203/1/3
f 208/2/3 205/2/3 204/2/3
f 208/1/3 204/1/3 207/1/3
f 209/2/3 205/2/3 208/2/3
f 211/1/3 207/1/3 206/1/3
f 212/2/3 208/2/3 207/2/3
f 212/1/3 207/1/3 211/1/3
f 213/2/3 208/2/3 212/2/3
f 215/1/3 211/1/3 210/1/3
f 216/2/3 212/2/3 211/2/3
f 216/1/3 211/1/3 215/1/3
f 217/2/3 212/2/3 216/2/3
f 221/1/3 215/1/3 214/1/3
f 222/2/3 216/2/3 215/2/3
f 222/1/3 215/1/3 221/1/3
f 223/2/3 216/2/3 222/2/3
f 225/1/3 219/1/3 218/1/3
f 226/1/3 219/1/3 225/1/3
f 229/1/3 221/1/3 220/1/3
f 230/2/3 222/2/3 221/2/3
f 230/1/3 221/1/3 229/1/3
f 231/2/3 222/2/3 230/2/3
f 233/1/3 225/1/3 224/1/3
f 234/1/3 225/1/3 233/1/3
f 235/1/3 227/1/3 226/1/3
f 236/1/3 227/1/3 235/1/3
f 238/2/3 230/2/3 229/2/3
f 239/2/3 230/2/3 238/2/3
f 241/1/3 233/1/3 232/1/3
f 242/1/3 233/1/3 241/1/3
f 243/1/3 237/1/3 236/1/3
f 244/1/3 237/1/3 243/1/3
f 246/2/3 238/2/3 229/2/3
f 248/1/3 241/1/3 240/1/3
f 249/1/3 241/1/3 248/1/3
f 252/1/3 245/1/3 244/1/3
f 253/1/3 245/1/3 252/1/3
f 254/1/3 229/1/3 228/1/3
f 255/2/3 247/2/3 246/2/3
f 255/1/3 229/1/3 254/1/3
f 255/2/3 246/2/3 229/2/3
f 256/2/3 247/2/3 255/2/3
f 258/1/3 250/1/3 249/1/3
f 259/1/3 250/1/3 258/1/3
f 262/1/3 252/1/3 251/1/3
f 263/1/3 252/1/3 262/1/3
f 264/1/3 256/1/3 255/1/3
f 265/2/3 257/2/3 256/2/3
f 265/1/3 256/1/3 264/1/3
f 266/2/3 257/2/3 265/2/3
f 268/1/3 260/1/3 259/1/3
f 269/1/3 260/1/3 268/1/3
f 270/1/3 262/1/3 261/1/3
f 271/1/3 262/1/3 270/1/3
f 272/1/3 266/1/3 265/1/3
f 273/2/3 267/2/3 266/2/3
f 273/1/3 266/1/3 272/1/3
f 274/2/3 267/2/3 273/2/3
f 276/1/3 270/1/3 269/1/3
f 277/1/3 270/1/3 276/1/3
f 278/1/3 274/1/3 273/1/3
f 279/2/3 275/2/3 274/2/3
f 279/1/3 274/1/3 278/1/3
f 280/2/3 275/2/3 279/2/3
f 282/1/3 280/1/3 279/1/3
f 283/2/3 281/2/3 280/2/3
f 283/1/3 280/1/3 282/1/3
f 284/2/3 281/2/3 283/2/3
f 285/2/3 205/2/3 209/2/3
f 286/1/3 284/1/3 283/1/3
f 287/2/3 285/2/3 284/2/3
f 287/1/3 284/1/3 286/1/3
f 288/1/3 202/1/3 205/1/3
f 288/2/3 285/2/3 287/2/3
f 288/2/3 205/2/3 285/2/3
f 289/1/3 288/1/3 287/1/3
f 290/1/3 202/1/3 288/1/3
f 290/1/3 288/1/3 289/1/3
f 291/1/4 292/1/4 294/1/4
f 294/1/4 292/1/4 295/1/4
f 293/1/4 294/1/4 297/1/4
f 294/2/4 295/2/4 298/2/4
f 297/1/4 294/1/4 298/1/4
f 298/2/4 295/2/4 299/2/4
f 296/1/4 297/1/4 301/1/4
f 297/2/4 298/2/4 302/2/4
f 301/1/4 297/1/4 302/1/4
f 302/2/4 298/2/4 303/2/4
f 300/1/4 301/1/4 305/1/4
f 301/2/4 302/2/4 306/2/4
f 305/1/4 301/1/4 306/1/4
f 306/2/4 302/2/4 307/2/4
f 304/1/4 305/1/4 311/1/4
f 305/2/4 306/2/4 312/2/4
f 311/1/4 305/1/4 312/1/4
f 312/2/4 306/2/4 313/2/4
f 308/1/4 309/1/4 315/1/4
f 315/1/4 309/1/4 316/1/4
f 310/1/4 311/1/4 319/1/4
f 311/2/4 312/2/4 320/2/4
f 319/1/4 311/1/4 320/1/4
f 320/2/4 312/2/4 321/2/4
f 314/1/4 315/1/4 323/1/4
f 323/1/4 315/1/4 324/1/4
f 316/1/4 317/1/4 325/1/4
f 325/1/4 317/1/4 326/1/4
f 319/2/4 320/2/4 328/2/4
f 328/2/4 320/2/4 329/2/4
f 322/1/4 323/1/4 331/1/4
f 331/1/4 323/1/4 332/1/4
f 326/1/4 327/1/4 333/1/4
f 333/1/4 327/1/4 334/1/4
f 319/2/4 328/2/4 336/2/4
f 330/1/4 331/1/4 338/1/4
f 338/1/4 331/1/4 339/1/4
f 334/1/4 335/1/4 342/1/4
f 342/1/4 335/1/4 343/1/4
f 318/1/4 319/1/4 344/1/4
f 336/2/4 337/2/4 345/2/4
f 344/1/4 319/1/4 345/1/4
f 319/2/4 336/2/4 345/2/4
f 345/2/4 337/2/4 346/2/4
f 339/1/4 340/1/4 348/1/4
f 348/1/4 340/1/4 349/1/4
f 341/1/4 342/1/4 352/1/4
f 352/1/4 342/1/4 353/1/4
f 345/1/4 346/1/4 354/1/4
f 346/2/4 347/2/4 355/2/4
f 354/1/4 346/1/4 355/1/4
f 355/2/4 347/2/4 356/2/4
f 349/1/4 350/1/4 358/1/4
f 358/1/4 350/1/4 359/1/4
f 351/1/4 352/1/4 360/1/4
f 360/1/4 352/1/4 361/1/4
f 355/1/4 356/1/4 362/1/4
f 356/2/4 357/2/4 363/2/4
f 362/1/4 356/1/4 363/1/4
f 363/2/4 357/2/4 364/2/4
f 359/1/4 360/1/4 366/1/4
f 366/1/4 360/1/4 367/1/4
f 363/1/4 364/1/4 368/1/4
f 364/2/4 365/2/4 369/2/4
f 368/1/4 364/1/4 369/1/4
f 369/2/4 365/2/4 370/2/4
f 369/1/4 370/1/4 372/1/4
f 370/2/4 371/2/4 373/2/4
f 372/1/4 370/1/4 373/1/4
f 373/2/4 371/2/4 374/2/4
f 299/2/4 295/2/4 375/2/4
f 373/1/4 374/1/4 376/1/4
f 374/2/4 375/2/4 377/2/4
f 376/1/4 374/1/4 377/1/4
f 295/1/4 292/1/4 378/1/4
f 377/2/4 375/2/4 378/2/4
f 375/2/4 295/2/4 378/2/4
f 377/1/4 378/1/4 379/1/4
f 378/1/4 292/1/4 380/1/4
f 379/1/4 378/1/4 380/1/4
f 383/1/5 382/1/5 381/1/5
f 384/1/5 382/1/5 383/1/5
f 389/1/5 386/1/5 385/1/5
f 390/1/5 386/1/5 389/1/5
f 391/1/5 388/1/5 387/1/5
f 392/1/5 388/1/5 391/1/5
f 397/1/5 394/1/5 393/1/5
f 398/1/5 394/1/5 397/1/5
f 399/1/5 396/1/5 395/1/5
f 400/1/5 396/1/5 399/1/5
f 405/1/5 402/1/5 401/1/5
f 406/1/5 402/1/5 405/1/5
f 407/1/5 404/1/5 403/1/5
f 408/1/5 404/1/5 407/1/5
f 413/1/5 410/1/5 409/1/5
f 414/1/5 410/1/5 413/1/5
f 415/1/5 412/1/5 411/1/5
f 416/1/5 412/1/5 415/1/5
f 421/1/5 418/1/5 417/1/5
f 422/1/5 418/1/5 421/1/5
f 423/1/5 420/1/5 419/1/5
f 424/1/5 420/1/5 423/1/5
f 431/1/5 426/1/5 425/1/5
f 432/1/5 426/1/5 431/1/5
f 433/1/5 428/1/5 427/1/5
f 434/1/5 428/1/5 433/1/5
f 435/1/5 430/1/5 429/1/5
f 436/1/5 430/1/5 435/1/5
f 441/1/5 438/1/5 437/1/5
f 442/1/5 438/1/5 441/1/5
f 443/1/5 440/1/5 439/1/5
f 444/1/5 440/1/5 443/1/5
f 449/1/5 446/1/5 445/1/5
f 450/1/5 446/1/5 449/1/5
f 451/1/5 448/1/5 447/1/5
f 452/1/5 448/1/5 451/1/5
f 457/1/5 454/1/5 453/1/5
f 458/1/5 454/1/5 457/1/5
f 459/1/5 456/1/5 455/1/5
f 460/1/5 456/1/5 459/1/5
f 465/1/5 462/1/5 461/1/5
f 466/1/5 462/1/5 465/1/5
f 467/1/5 464/1/5 463/1/5
f 468/1/5 464/1/5 467/1/5
f 473/1/5 470/1/5 469/1/5
f 474/1/5 470/1/5 473/1/5
f 475/1/5 472/1/5 471/1/5
f 476/1/5 472/1/5 475/1/5
f 479/1/5 478/1/5 477/1/5
f 480/1/5 478/1/5 479/1/5
f 483/2/5 482/2/5 481/2/5
f 484/2/5 482/2/5 483/2/5
f 485/2/6 486/2/6 487/2/6
f 487/2/6 486/2/6 488/2/6
f 489/2/6 490/2/6 493/2/6
f 493/2/6 490/2/6 494/2/6
f 491/2/6 492/2/6 495/2/6
f 495/2/6 492/2/6 496/2/6
f 497/2/6 498/2/6 501/2/6
f 501/2/6 498/2/6 502/2/6
f 499/2/6 500/2/6 503/2/6
f 503/2/6 500/2/6 504/2/6
f 505/2/6 506/2/6 509/2/6
f 509/2/6 506/2/6 510/2/6
f 507/2/6 508/2/6 511/2/6
f 511/2/6 508/2/6 512/2/6
f 513/2/6 514/2/6 517/2/6
f 517/2/6 514/2/6 518/2/6
f 515/2/6 516/2/6 519/2/6
f 519/2/6 516/2/6 520/2/6
f 521/2/6 522/2/6 525/2/6
f 525/2/6 522/2/6 526/2/6
f 523/2/6 524/2/6 527/2/6
f 527/2/6 524/2/6 528/2/6
f 529/1/6 530/1/6 531/1/6
f 531/1/6 530/1/6 532/1/6
f 533/1/6 534/1/6 537/1/6
f 537/1/6 534/1/6 538/1/6
f 535/1/6 536/1/6 539/1/6
f 539/1/6 536/1/6 540/1/6
f 541/1/6 542/1/6 545/1/6
f 545/1/6 542/1/6 546/1/6
f 543/1/6 544/1/6 547/1/6
f 547/1/6 544/1/6 548/1/6
f 549/1/6 550/1/6 553/1/6
f 553/1/6 550/1/6 554/1/6
f 551/1/6 552/1/6 555/1/6
f 555/1/6 552/1/6 556/1/6
f 557/1/6 558/1/6 561/1/6
f 561/1/6 558/1/6 562/1/6
f 559/1/6 560/1/6 563/1/6
f 563/1/6 560/1/6 564/1/6
f 565/1/6 566/1/6 569/1/6
f 569/1/6 566/1/6 570/1/6
f 567/1/6 568/1/6 571/1/6
f 571/1/6 568/1/6 572/1/6
f 573/1/6 574/1/6 575/1/6
f 575/1/6 574/1/6 576/1/6
f 577/1/6 578/1/6 579/1/6
f 579/1/6 578/1/6 580/1/6
