# MagicaVoxel @ Ephtracy

# group
o Chat Bubble - End Cap

# material
mtllib Medieval Assets-218-Chat Bubble - End Cap.mtl
usemtl palette

# normals
vn -1 0 0
vn 1 0 0
vn 0 0 1
vn 0 0 -1
vn 0 -1 0
vn 0 1 0

# texcoords
vt 0.126953 0.5
vt 0.158203 0.5

# verts
v 8 1.3 15
v 8 1.3 14.8
v 8 2.7 15
v 8 2.7 14.8
v 8.2 1.2 15
v 8.2 1.2 14.8
v 8.2 1.3 15
v 8.2 1.3 14.8
v 8.2 2.7 15
v 8.2 2.7 14.8
v 8.2 2.8 15
v 8.2 2.8 14.8
v 8.4 1.2 15
v 8.4 1.2 14.8
v 8.4 1.3 15
v 8.4 1.3 14.8
v 8.4 2.7 15
v 8.4 2.7 14.8
v 8.4 2.8 15
v 8.4 2.8 14.8
v 8 1.3 15
v 8 2.7 15
v 8.1 1.4 15
v 8.1 2.6 15
v 8.2 1.2 15
v 8.2 1.3 15
v 8.2 1.4 15
v 8.2 2.6 15
v 8.2 2.7 15
v 8.2 2.8 15
v 8.4 1.2 15
v 8.4 1.3 15
v 8.4 2.7 15
v 8.4 2.8 15
v 8 1.3 14.8
v 8 2.7 14.8
v 8.1 1.4 14.8
v 8.1 2.6 14.8
v 8.2 1.2 14.8
v 8.2 1.3 14.8
v 8.2 1.4 14.8
v 8.2 2.6 14.8
v 8.2 2.7 14.8
v 8.2 2.8 14.8
v 8.4 1.2 14.8
v 8.4 1.3 14.8
v 8.4 2.7 14.8
v 8.4 2.8 14.8
v 8.2 1.2 15
v 8.4 1.2 15
v 8.2 1.2 14.8
v 8.4 1.2 14.8
v 8 1.3 15
v 8.2 1.3 15
v 8 1.3 14.8
v 8.2 1.3 14.8
v 8 2.7 15
v 8.2 2.7 15
v 8 2.7 14.8
v 8.2 2.7 14.8
v 8.2 2.8 15
v 8.4 2.8 15
v 8.2 2.8 14.8
v 8.4 2.8 14.8

# faces
f 3/2/1 2/2/1 1/2/1
f 4/2/1 2/2/1 3/2/1
f 7/2/1 6/2/1 5/2/1
f 8/2/1 6/2/1 7/2/1
f 11/2/1 10/2/1 9/2/1
f 12/2/1 10/2/1 11/2/1
f 13/2/2 14/2/2 15/2/2
f 15/2/2 14/2/2 16/2/2
f 15/1/2 16/1/2 17/1/2
f 17/1/2 16/1/2 18/1/2
f 17/2/2 18/2/2 19/2/2
f 19/2/2 18/2/2 20/2/2
f 23/2/3 22/2/3 21/2/3
f 24/2/3 22/2/3 23/2/3
f 26/2/3 23/2/3 21/2/3
f 27/1/3 24/1/3 23/1/3
f 27/2/3 23/2/3 26/2/3
f 28/2/3 22/2/3 24/2/3
f 28/1/3 24/1/3 27/1/3
f 29/2/3 22/2/3 28/2/3
f 31/2/3 26/2/3 25/2/3
f 32/1/3 27/1/3 26/1/3
f 32/2/3 26/2/3 31/2/3
f 32/1/3 28/1/3 27/1/3
f 32/1/3 29/1/3 28/1/3
f 33/2/3 30/2/3 29/2/3
f 33/1/3 29/1/3 32/1/3
f 34/2/3 30/2/3 33/2/3
f 35/2/4 36/2/4 37/2/4
f 37/2/4 36/2/4 38/2/4
f 35/2/4 37/2/4 40/2/4
f 37/1/4 38/1/4 41/1/4
f 40/2/4 37/2/4 41/2/4
f 38/2/4 36/2/4 42/2/4
f 41/1/4 38/1/4 42/1/4
f 42/2/4 36/2/4 43/2/4
f 39/2/4 40/2/4 45/2/4
f 40/1/4 41/1/4 46/1/4
f 45/2/4 40/2/4 46/2/4
f 41/1/4 42/1/4 46/1/4
f 42/1/4 43/1/4 46/1/4
f 43/2/4 44/2/4 47/2/4
f 46/1/4 43/1/4 47/1/4
f 47/2/4 44/2/4 48/2/4
f 51/2/5 50/2/5 49/2/5
f 52/2/5 50/2/5 51/2/5
f 55/2/5 54/2/5 53/2/5
f 56/2/5 54/2/5 55/2/5
f 57/2/6 58/2/6 59/2/6
f 59/2/6 58/2/6 60/2/6
f 61/2/6 62/2/6 63/2/6
f 63/2/6 62/2/6 64/2/6
