# MagicaVoxel @ Ephtracy

# group
o Dungeon - Pillar - Ground Variant2

# material
mtllib Medieval Assets-160-Dungeon - Pillar - Ground Variant2.mtl
usemtl palette

# normals
vn -1 0 0
vn 1 0 0
vn 0 0 1
vn 0 0 -1
vn 0 -1 0
vn 0 1 0

# texcoords
vt 0.134766 0.5
vt 0.138672 0.5
vt 0.142578 0.5

# verts
v -38.3 0.1 -9.4
v -38.3 0.1 -9.5
v -38.3 0.1 -9.6
v -38.3 0.1 -9.7
v -38.3 0.1 -9.8
v -38.3 0.3 -9.6
v -38.3 0.3 -9.7
v -38.3 0.5 -9.5
v -38.3 0.5 -9.6
v -38.3 0.6 -9.5
v -38.3 0.6 -9.6
v -38.3 0.7 -9.4
v -38.3 0.7 -9.5
v -38.3 0.8 -9.6
v -38.3 0.8 -9.7
v -38.3 0.9 -9.6
v -38.3 0.9 -9.7
v -38.3 1 -9.5
v -38.3 1 -9.7
v -38.3 1 -9.8
v -38.2 0 -9.4
v -38.2 0 -9.8
v -38.2 0.1 -9.4
v -38.2 0.1 -9.5
v -38.2 0.1 -9.6
v -38.2 0.1 -9.7
v -38.2 0.1 -9.8
v -38.2 0.7 -9.4
v -38.2 0.7 -9.5
v -38.2 0.8 -9.4
v -38.2 0.8 -9.5
v -38.2 0.9 -9.5
v -38.2 0.9 -9.6
v -38.2 1 -9.5
v -38.2 1 -9.6
v -38.1 0 -9.4
v -38.1 0 -9.5
v -38.1 0.1 -9.4
v -38.1 0.1 -9.5
v -38.1 0.9 -9.7
v -38.1 0.9 -9.8
v -38.1 1 -9.7
v -38.1 1 -9.8
v -38 0 -9.5
v -38 0 -9.7
v -38 0.1 -9.5
v -38 0.1 -9.6
v -38 0.1 -9.7
v -38 0.7 -9.4
v -38 0.7 -9.5
v -38 0.8 -9.4
v -38 0.8 -9.5
v -38 0.8 -9.6
v -38 0.9 -9.5
v -38 0.9 -9.6
v -38 0.9 -9.7
v -38 1 -9.6
v -38 1 -9.7
v -37.9 0 -9.7
v -37.9 0 -9.8
v -37.9 0.1 -9.4
v -37.9 0.1 -9.5
v -37.9 0.1 -9.6
v -37.9 0.1 -9.7
v -37.9 0.3 -9.6
v -37.9 0.3 -9.7
v -37.9 0.5 -9.5
v -37.9 0.5 -9.6
v -37.9 0.6 -9.5
v -37.9 0.6 -9.6
v -37.9 0.7 -9.4
v -37.9 0.7 -9.5
v -37.9 0.8 -9.5
v -37.9 0.8 -9.6
v -37.9 0.8 -9.7
v -37.9 0.9 -9.6
v -37.9 0.9 -9.7
v -37.9 0.9 -9.8
v -38.3 0.1 -9.4
v -38.3 0.7 -9.4
v -38.2 0 -9.4
v -38.2 0.1 -9.4
v -38.2 0.6 -9.4
v -38.2 0.7 -9.4
v -38.2 0.8 -9.4
v -38.1 0 -9.4
v -38.1 0.1 -9.4
v -38 0.1 -9.4
v -38 0.6 -9.4
v -38 0.7 -9.4
v -38 0.8 -9.4
v -37.9 0.1 -9.4
v -37.9 0.7 -9.4
v -38.3 0.7 -9.5
v -38.3 1 -9.5
v -38.2 0.7 -9.5
v -38.2 0.8 -9.5
v -38.2 0.9 -9.5
v -38.2 1 -9.5
v -38.1 0 -9.5
v -38.1 0.1 -9.5
v -38 0 -9.5
v -38 0.1 -9.5
v -38 0.7 -9.5
v -38 0.8 -9.5
v -38 0.9 -9.5
v -37.9 0.7 -9.5
v -37.9 0.8 -9.5
v -38.2 0.9 -9.6
v -38.2 1 -9.6
v -38 0.8 -9.6
v -38 0.9 -9.6
v -38 1 -9.6
v -37.9 0.8 -9.6
v -37.9 0.9 -9.6
v -38 0 -9.7
v -38 0.1 -9.7
v -37.9 0 -9.7
v -37.9 0.1 -9.7
v -38.1 0.9 -9.7
v -38.1 1 -9.7
v -38 0.9 -9.7
v -38 1 -9.7
v -38.3 0.1 -9.8
v -38.3 1 -9.8
v -38.2 0 -9.8
v -38.2 0.1 -9.8
v -38.2 0.6 -9.8
v -38.2 0.7 -9.8
v -38.2 1 -9.8
v -38.1 0 -9.8
v -38.1 0.2 -9.8
v -38.1 0.3 -9.8
v -38.1 0.5 -9.8
v -38.1 0.6 -9.8
v -38.1 0.7 -9.8
v -38.1 0.9 -9.8
v -38.1 1 -9.8
v -38 0 -9.8
v -38 0.2 -9.8
v -38 0.3 -9.8
v -38 0.5 -9.8
v -38 0.9 -9.8
v -37.9 0 -9.8
v -37.9 0.9 -9.8
v -38.2 0 -9.4
v -38.1 0 -9.4
v -38.1 0 -9.5
v -38 0 -9.5
v -38.1 0 -9.7
v -38 0 -9.7
v -37.9 0 -9.7
v -38.2 0 -9.8
v -38.1 0 -9.8
v -38 0 -9.8
v -37.9 0 -9.8
v -38.3 0.1 -9.4
v -38.2 0.1 -9.4
v -38.1 0.1 -9.4
v -38 0.1 -9.4
v -37.9 0.1 -9.4
v -38.3 0.1 -9.5
v -38.2 0.1 -9.5
v -38.1 0.1 -9.5
v -38 0.1 -9.5
v -37.9 0.1 -9.5
v -38.3 0.1 -9.6
v -38.2 0.1 -9.6
v -38 0.1 -9.6
v -37.9 0.1 -9.6
v -38.3 0.1 -9.7
v -38.2 0.1 -9.7
v -38 0.1 -9.7
v -37.9 0.1 -9.7
v -38.3 0.1 -9.8
v -38.2 0.1 -9.8
v -38.3 0.7 -9.4
v -38.2 0.7 -9.4
v -38 0.7 -9.4
v -37.9 0.7 -9.4
v -38.3 0.7 -9.5
v -38.2 0.7 -9.5
v -38 0.7 -9.5
v -37.9 0.7 -9.5
v -38.2 0.8 -9.4
v -38 0.8 -9.4
v -38.2 0.8 -9.5
v -38 0.8 -9.5
v -37.9 0.8 -9.5
v -38 0.8 -9.6
v -37.9 0.8 -9.6
v -38.2 0.9 -9.5
v -38 0.9 -9.5
v -38.2 0.9 -9.6
v -38 0.9 -9.6
v -37.9 0.9 -9.6
v -38.1 0.9 -9.7
v -38 0.9 -9.7
v -37.9 0.9 -9.7
v -38.1 0.9 -9.8
v -38 0.9 -9.8
v -37.9 0.9 -9.8
v -38.3 1 -9.5
v -38.2 1 -9.5
v -38.2 1 -9.6
v -38 1 -9.6
v -38.3 1 -9.7
v -38.2 1 -9.7
v -38.1 1 -9.7
v -38 1 -9.7
v -38.3 1 -9.8
v -38.2 1 -9.8
v -38.1 1 -9.8

# faces
f 6/1/1 3/1/1 2/1/1
f 6/2/1 4/2/1 3/2/1
f 7/3/1 5/3/1 4/3/1
f 7/2/1 4/2/1 6/2/1
f 8/3/1 2/3/1 1/3/1
f 8/1/1 6/1/1 2/1/1
f 8/1/1 7/1/1 6/1/1
f 9/1/1 7/1/1 8/1/1
f 10/3/1 8/3/1 1/3/1
f 10/2/1 9/2/1 8/2/1
f 11/1/1 7/1/1 9/1/1
f 11/2/1 9/2/1 10/2/1
f 12/3/1 10/3/1 1/3/1
f 13/1/1 11/1/1 10/1/1
f 13/3/1 10/3/1 12/3/1
f 14/1/1 7/1/1 11/1/1
f 14/1/1 11/1/1 13/1/1
f 15/3/1 5/3/1 7/3/1
f 15/1/1 7/1/1 14/1/1
f 16/1/1 14/1/1 13/1/1
f 16/2/1 15/2/1 14/2/1
f 17/3/1 5/3/1 15/3/1
f 17/2/1 15/2/1 16/2/1
f 18/1/1 16/1/1 13/1/1
f 18/1/1 17/1/1 16/1/1
f 19/3/1 5/3/1 17/3/1
f 19/1/1 17/1/1 18/1/1
f 20/3/1 5/3/1 19/3/1
f 23/1/1 22/1/1 21/1/1
f 24/1/1 22/1/1 23/1/1
f 25/1/1 22/1/1 24/1/1
f 26/1/1 22/1/1 25/1/1
f 27/1/1 22/1/1 26/1/1
f 30/2/1 29/2/1 28/2/1
f 31/2/1 29/2/1 30/2/1
f 32/1/2 33/1/2 34/1/2
f 34/1/2 33/1/2 35/1/2
f 36/1/2 37/1/2 38/1/2
f 38/1/2 37/1/2 39/1/2
f 40/1/2 41/1/2 42/1/2
f 42/1/2 41/1/2 43/1/2
f 44/1/2 45/1/2 46/1/2
f 46/1/2 45/1/2 47/1/2
f 47/1/2 45/1/2 48/1/2
f 49/2/2 50/2/2 51/2/2
f 51/2/2 50/2/2 52/2/2
f 52/1/2 53/1/2 54/1/2
f 54/1/2 53/1/2 55/1/2
f 55/1/2 56/1/2 57/1/2
f 57/1/2 56/1/2 58/1/2
f 59/3/2 60/3/2 64/3/2
f 62/1/2 63/1/2 65/1/2
f 63/2/2 64/2/2 65/2/2
f 64/3/2 60/3/2 66/3/2
f 65/2/2 64/2/2 66/2/2
f 62/1/2 65/1/2 67/1/2
f 61/3/2 62/3/2 67/3/2
f 65/1/2 66/1/2 67/1/2
f 67/1/2 66/1/2 68/1/2
f 61/3/2 67/3/2 69/3/2
f 67/2/2 68/2/2 69/2/2
f 68/1/2 66/1/2 70/1/2
f 69/2/2 68/2/2 70/2/2
f 61/3/2 69/3/2 71/3/2
f 69/1/2 70/1/2 72/1/2
f 71/3/2 69/3/2 72/3/2
f 72/1/2 70/1/2 73/1/2
f 70/1/2 66/1/2 74/1/2
f 73/1/2 70/1/2 74/1/2
f 66/3/2 60/3/2 75/3/2
f 74/1/2 66/1/2 75/1/2
f 74/2/2 75/2/2 76/2/2
f 75/3/2 60/3/2 77/3/2
f 76/2/2 75/2/2 77/2/2
f 77/3/2 60/3/2 78/3/2
f 82/3/3 80/3/3 79/3/3
f 83/3/3 80/3/3 82/3/3
f 84/3/3 80/3/3 83/3/3
f 86/1/3 82/1/3 81/1/3
f 86/1/3 83/1/3 82/1/3
f 87/1/3 83/1/3 86/1/3
f 88/1/3 83/1/3 87/1/3
f 89/2/3 85/2/3 84/2/3
f 89/1/3 83/1/3 88/1/3
f 89/2/3 84/2/3 83/2/3
f 90/2/3 85/2/3 89/2/3
f 91/2/3 85/2/3 90/2/3
f 92/3/3 89/3/3 88/3/3
f 92/3/3 90/3/3 89/3/3
f 93/3/3 90/3/3 92/3/3
f 96/1/3 95/1/3 94/1/3
f 97/1/3 95/1/3 96/1/3
f 98/1/3 95/1/3 97/1/3
f 99/1/3 95/1/3 98/1/3
f 102/1/3 101/1/3 100/1/3
f 103/1/3 101/1/3 102/1/3
f 105/1/3 98/1/3 97/1/3
f 106/1/3 98/1/3 105/1/3
f 107/1/3 105/1/3 104/1/3
f 108/1/3 105/1/3 107/1/3
f 112/1/3 110/1/3 109/1/3
f 113/1/3 110/1/3 112/1/3
f 114/2/3 112/2/3 111/2/3
f 115/2/3 112/2/3 114/2/3
f 118/3/3 117/3/3 116/3/3
f 119/3/3 117/3/3 118/3/3
f 120/1/4 121/1/4 122/1/4
f 122/1/4 121/1/4 123/1/4
f 124/3/4 125/3/4 127/3/4
f 127/3/4 125/3/4 128/3/4
f 128/3/4 125/3/4 129/3/4
f 129/3/4 125/3/4 130/3/4
f 126/1/4 127/1/4 131/1/4
f 127/1/4 128/1/4 131/1/4
f 131/1/4 128/1/4 132/1/4
f 132/1/4 128/1/4 133/1/4
f 133/1/4 128/1/4 134/1/4
f 128/2/4 129/2/4 135/2/4
f 134/1/4 128/1/4 135/1/4
f 129/1/4 130/1/4 136/1/4
f 135/2/4 129/2/4 136/2/4
f 136/1/4 130/1/4 137/1/4
f 137/1/4 130/1/4 138/1/4
f 131/2/4 132/2/4 139/2/4
f 132/1/4 133/1/4 140/1/4
f 139/2/4 132/2/4 140/2/4
f 133/2/4 134/2/4 141/2/4
f 140/1/4 133/1/4 141/1/4
f 134/1/4 135/1/4 142/1/4
f 141/2/4 134/2/4 142/2/4
f 135/1/4 136/1/4 142/1/4
f 136/1/4 137/1/4 142/1/4
f 142/1/4 137/1/4 143/1/4
f 140/3/4 141/3/4 144/3/4
f 139/3/4 140/3/4 144/3/4
f 142/3/4 143/3/4 144/3/4
f 141/3/4 142/3/4 144/3/4
f 144/3/4 143/3/4 145/3/4
f 148/1/5 147/1/5 146/1/5
f 150/1/5 148/1/5 146/1/5
f 150/1/5 149/1/5 148/1/5
f 151/1/5 149/1/5 150/1/5
f 153/1/5 150/1/5 146/1/5
f 154/2/5 151/2/5 150/2/5
f 154/1/5 150/1/5 153/1/5
f 155/3/5 152/3/5 151/3/5
f 155/2/5 151/2/5 154/2/5
f 156/3/5 152/3/5 155/3/5
f 162/3/5 158/3/5 157/3/5
f 163/3/5 158/3/5 162/3/5
f 164/1/5 160/1/5 159/1/5
f 165/3/5 161/3/5 160/3/5
f 165/1/5 160/1/5 164/1/5
f 166/3/5 161/3/5 165/3/5
f 167/1/5 163/1/5 162/1/5
f 168/1/5 163/1/5 167/1/5
f 169/1/5 166/1/5 165/1/5
f 170/1/5 166/1/5 169/1/5
f 171/2/5 168/2/5 167/2/5
f 172/2/5 168/2/5 171/2/5
f 173/2/5 170/2/5 169/2/5
f 174/2/5 170/2/5 173/2/5
f 175/3/5 172/3/5 171/3/5
f 176/3/5 172/3/5 175/3/5
f 177/3/6 178/3/6 181/3/6
f 181/3/6 178/3/6 182/3/6
f 179/3/6 180/3/6 183/3/6
f 183/3/6 180/3/6 184/3/6
f 185/2/6 186/2/6 187/2/6
f 187/2/6 186/2/6 188/2/6
f 188/1/6 189/1/6 190/1/6
f 190/1/6 189/1/6 191/1/6
f 192/1/6 193/1/6 194/1/6
f 194/1/6 193/1/6 195/1/6
f 195/2/6 196/2/6 198/2/6
f 198/2/6 196/2/6 199/2/6
f 197/1/6 198/1/6 200/1/6
f 198/3/6 199/3/6 201/3/6
f 200/1/6 198/1/6 201/1/6
f 201/3/6 199/3/6 202/3/6
f 203/1/6 204/1/6 205/1/6
f 203/1/6 205/1/6 207/1/6
f 205/1/6 206/1/6 207/1/6
f 207/1/6 206/1/6 208/1/6
f 208/1/6 206/1/6 209/1/6
f 209/1/6 206/1/6 210/1/6
f 207/3/6 208/3/6 211/3/6
f 208/1/6 209/1/6 212/1/6
f 211/3/6 208/3/6 212/3/6
f 212/1/6 209/1/6 213/1/6
