# MagicaVoxel @ Ephtracy

# group
o Resource - Stone - Variant4

# material
mtllib Medieval Assets-318-Resource - Stone - Variant4.mtl
usemtl palette

# normals
vn -1 0 0
vn 1 0 0
vn 0 0 1
vn 0 0 -1
vn 0 -1 0
vn 0 1 0

# texcoords
vt 0.134766 0.5
vt 0.138672 0.5
vt 0.142578 0.5

# verts
v -2 0.7 -15.4
v -2 0.7 -15.6
v -2 0.7 -15.8
v -2 0.8 -15.4
v -2 0.8 -15.5
v -2 0.8 -15.7
v -2 0.8 -15.8
v -2 0.9 -15.5
v -2 0.9 -15.6
v -2 0.9 -15.7
v -1.9 0.8 -15.4
v -1.9 0.8 -15.5
v -1.9 0.8 -15.7
v -1.9 0.8 -15.8
v -1.9 0.9 -15.4
v -1.9 0.9 -15.5
v -1.9 0.9 -15.7
v -1.9 0.9 -15.8
v -1.8 0.7 -15.2
v -1.8 0.7 -15.4
v -1.8 0.7 -15.8
v -1.8 0.7 -15.9
v -1.8 0.8 -15.2
v -1.8 0.8 -15.3
v -1.8 0.9 -15.3
v -1.8 0.9 -15.4
v -1.8 0.9 -15.6
v -1.8 0.9 -15.8
v -1.8 0.9 -15.9
v -1.8 1 -15.4
v -1.8 1 -15.6
v -1.7 0.7 -15.9
v -1.7 0.7 -16
v -1.7 0.8 -15.2
v -1.7 0.8 -15.3
v -1.7 0.8 -15.9
v -1.7 0.8 -16
v -1.7 0.9 -15.2
v -1.7 0.9 -15.3
v -1.7 0.9 -15.8
v -1.7 0.9 -15.9
v -1.7 1 -15.4
v -1.7 1 -15.6
v -1.7 1 -15.8
v -1.7 1 -15.9
v -1.7 1.1 -15.4
v -1.7 1.1 -15.6
v -1.6 0.7 -15
v -1.6 0.7 -15.2
v -1.6 0.8 -15
v -1.6 0.8 -15.1
v -1.6 0.8 -15.9
v -1.6 0.8 -16
v -1.6 0.9 -15.1
v -1.6 0.9 -15.2
v -1.6 0.9 -15.4
v -1.6 0.9 -15.6
v -1.6 0.9 -15.8
v -1.6 0.9 -15.9
v -1.6 0.9 -16
v -1.6 1 -15.2
v -1.6 1 -15.3
v -1.6 1 -15.8
v -1.6 1 -15.9
v -1.6 1.1 -15.3
v -1.6 1.1 -15.4
v -1.6 1.1 -15.6
v -1.6 1.1 -15.9
v -1.5 0.8 -15
v -1.5 0.8 -15.1
v -1.5 0.9 -15
v -1.5 0.9 -15.1
v -1.5 1 -15.2
v -1.5 1 -15.3
v -1.5 1.1 -15.2
v -1.5 1.1 -15.3
v -1.4 0.9 -15.4
v -1.4 0.9 -15.6
v -1.4 1.1 -15.4
v -1.4 1.1 -15.6
v -1.2 0.9 -15.6
v -1.2 0.9 -15.8
v -1.2 1 -15.6
v -1.2 1.1 -15.6
v -1.2 1.1 -15.8
v -1.6 0.9 -15.4
v -1.6 0.9 -15.6
v -1.6 1.1 -15.4
v -1.6 1.1 -15.6
v -1.5 1 -15.8
v -1.5 1 -15.9
v -1.5 1.1 -15.8
v -1.5 1.1 -15.9
v -1.4 0.9 -15.6
v -1.4 0.9 -15.8
v -1.4 0.9 -15.9
v -1.4 1 -15.8
v -1.4 1 -15.9
v -1.4 1.1 -15.6
v -1.4 1.1 -15.8
v -1.3 0.8 -15
v -1.3 0.8 -15.1
v -1.3 0.8 -15.9
v -1.3 0.8 -16
v -1.3 0.9 -15
v -1.3 0.9 -15.1
v -1.3 0.9 -15.9
v -1.3 0.9 -16
v -1.3 1 -15.2
v -1.3 1 -15.4
v -1.3 1 -15.6
v -1.3 1.1 -15.2
v -1.3 1.1 -15.4
v -1.3 1.1 -15.6
v -1.2 0.7 -15
v -1.2 0.7 -15.2
v -1.2 0.7 -15.9
v -1.2 0.7 -16
v -1.2 0.8 -15
v -1.2 0.8 -15.1
v -1.2 0.8 -15.9
v -1.2 0.8 -16
v -1.2 0.9 -15.1
v -1.2 0.9 -15.2
v -1.2 0.9 -15.4
v -1.2 0.9 -15.6
v -1.2 1 -15.2
v -1.2 1 -15.4
v -1.2 1 -15.6
v -1.1 0.8 -15.2
v -1.1 0.8 -15.3
v -1.1 0.8 -15.8
v -1.1 0.8 -15.9
v -1.1 0.9 -15.2
v -1.1 0.9 -15.3
v -1.1 0.9 -15.8
v -1.1 0.9 -15.9
v -1.1 1 -15.7
v -1.1 1 -15.8
v -1.1 1.1 -15.7
v -1.1 1.1 -15.8
v -1 0.7 -15.2
v -1 0.7 -15.4
v -1 0.7 -15.6
v -1 0.7 -15.8
v -1 0.7 -15.9
v -1 0.8 -15.2
v -1 0.8 -15.3
v -1 0.8 -15.8
v -1 0.8 -15.9
v -1 0.9 -15.3
v -1 0.9 -15.4
v -1 0.9 -15.6
v -1 0.9 -15.8
v -1 1 -15.7
v -1 1 -15.8
v -1 1.1 -15.6
v -1 1.1 -15.7
v -0.9 0.8 -15.7
v -0.9 0.8 -15.8
v -0.9 0.9 -15.7
v -0.9 0.9 -15.8
v -0.8 0.7 -15.6
v -0.8 0.7 -15.8
v -0.8 0.8 -15.7
v -0.8 0.8 -15.8
v -0.8 0.9 -15.6
v -0.8 0.9 -15.7
v -1.6 0.7 -15
v -1.6 0.8 -15
v -1.5 0.8 -15
v -1.5 0.9 -15
v -1.4 0.7 -15
v -1.4 0.9 -15
v -1.3 0.8 -15
v -1.3 0.9 -15
v -1.2 0.7 -15
v -1.2 0.8 -15
v -1.6 0.8 -15.1
v -1.6 0.9 -15.1
v -1.5 0.8 -15.1
v -1.5 0.9 -15.1
v -1.3 0.8 -15.1
v -1.3 0.9 -15.1
v -1.2 0.8 -15.1
v -1.2 0.9 -15.1
v -1.8 0.7 -15.2
v -1.8 0.8 -15.2
v -1.7 0.8 -15.2
v -1.7 0.9 -15.2
v -1.6 0.7 -15.2
v -1.6 0.9 -15.2
v -1.6 1 -15.2
v -1.5 1 -15.2
v -1.5 1.1 -15.2
v -1.4 0.9 -15.2
v -1.4 1.1 -15.2
v -1.3 1 -15.2
v -1.3 1.1 -15.2
v -1.2 0.7 -15.2
v -1.2 0.9 -15.2
v -1.2 1 -15.2
v -1.1 0.8 -15.2
v -1.1 0.9 -15.2
v -1 0.7 -15.2
v -1 0.8 -15.2
v -1.8 0.8 -15.3
v -1.8 0.9 -15.3
v -1.7 0.8 -15.3
v -1.7 0.9 -15.3
v -1.6 1 -15.3
v -1.6 1.1 -15.3
v -1.5 1 -15.3
v -1.5 1.1 -15.3
v -1.1 0.8 -15.3
v -1.1 0.9 -15.3
v -1 0.8 -15.3
v -1 0.9 -15.3
v -2 0.7 -15.4
v -2 0.8 -15.4
v -1.9 0.8 -15.4
v -1.9 0.9 -15.4
v -1.8 0.7 -15.4
v -1.8 0.9 -15.4
v -1.8 1 -15.4
v -1.7 1 -15.4
v -1.7 1.1 -15.4
v -1.6 0.9 -15.4
v -1.6 1.1 -15.4
v -2 0.8 -15.5
v -2 0.9 -15.5
v -1.9 0.8 -15.5
v -1.9 0.9 -15.5
v -1.6 0.9 -15.6
v -1.6 1.1 -15.6
v -1.4 0.9 -15.6
v -1.4 1.1 -15.6
v -1.2 0.9 -15.6
v -1.2 1 -15.6
v -1.2 1.1 -15.6
v -1 0.7 -15.6
v -1 0.9 -15.6
v -1 1.1 -15.6
v -0.8 0.7 -15.6
v -0.8 0.9 -15.6
v -1.7 0.9 -15.8
v -1.7 1 -15.8
v -1.6 0.9 -15.8
v -1.6 1 -15.8
v -1.6 0.9 -15.4
v -1.6 1.1 -15.4
v -1.4 0.9 -15.4
v -1.4 1.1 -15.4
v -1.8 0.9 -15.6
v -1.8 1 -15.6
v -1.7 1 -15.6
v -1.7 1.1 -15.6
v -1.6 0.9 -15.6
v -1.6 1.1 -15.6
v -1.4 0.9 -15.6
v -1.4 1.1 -15.6
v -1.3 1 -15.6
v -1.3 1.1 -15.6
v -1.2 0.9 -15.6
v -1.2 1 -15.6
v -2 0.8 -15.7
v -2 0.9 -15.7
v -1.9 0.8 -15.7
v -1.9 0.9 -15.7
v -1.1 1 -15.7
v -1.1 1.1 -15.7
v -1 1 -15.7
v -1 1.1 -15.7
v -0.9 0.8 -15.7
v -0.9 0.9 -15.7
v -0.8 0.8 -15.7
v -0.8 0.9 -15.7
v -2 0.7 -15.8
v -2 0.8 -15.8
v -1.9 0.8 -15.8
v -1.9 0.9 -15.8
v -1.8 0.7 -15.8
v -1.8 0.9 -15.8
v -1.5 1 -15.8
v -1.5 1.1 -15.8
v -1.4 1 -15.8
v -1.4 1.1 -15.8
v -1.2 0.9 -15.8
v -1.2 1.1 -15.8
v -1.1 0.8 -15.8
v -1.1 0.9 -15.8
v -1.1 1 -15.8
v -1.1 1.1 -15.8
v -1 0.7 -15.8
v -1 0.8 -15.8
v -1 0.9 -15.8
v -1 1 -15.8
v -0.9 0.8 -15.8
v -0.9 0.9 -15.8
v -0.8 0.7 -15.8
v -0.8 0.8 -15.8
v -1.8 0.7 -15.9
v -1.8 0.9 -15.9
v -1.7 0.7 -15.9
v -1.7 0.8 -15.9
v -1.7 0.9 -15.9
v -1.7 1 -15.9
v -1.6 0.8 -15.9
v -1.6 0.9 -15.9
v -1.6 1 -15.9
v -1.6 1.1 -15.9
v -1.5 1 -15.9
v -1.5 1.1 -15.9
v -1.4 0.9 -15.9
v -1.4 1 -15.9
v -1.3 0.8 -15.9
v -1.3 0.9 -15.9
v -1.2 0.7 -15.9
v -1.2 0.8 -15.9
v -1.1 0.8 -15.9
v -1.1 0.9 -15.9
v -1 0.7 -15.9
v -1 0.8 -15.9
v -1.7 0.7 -16
v -1.7 0.8 -16
v -1.6 0.8 -16
v -1.6 0.9 -16
v -1.3 0.8 -16
v -1.3 0.9 -16
v -1.2 0.7 -16
v -1.2 0.8 -16
v -1.6 0.7 -15
v -1.4 0.7 -15
v -1.2 0.7 -15
v -1.8 0.7 -15.2
v -1.6 0.7 -15.2
v -1.4 0.7 -15.2
v -1.2 0.7 -15.2
v -1 0.7 -15.2
v -2 0.7 -15.4
v -1.8 0.7 -15.4
v -1.6 0.7 -15.4
v -1.4 0.7 -15.4
v -1.2 0.7 -15.4
v -1 0.7 -15.4
v -2 0.7 -15.6
v -1.8 0.7 -15.6
v -1.6 0.7 -15.6
v -1.4 0.7 -15.6
v -1.2 0.7 -15.6
v -1 0.7 -15.6
v -0.8 0.7 -15.6
v -2 0.7 -15.8
v -1.8 0.7 -15.8
v -1.6 0.7 -15.8
v -1.4 0.7 -15.8
v -1.2 0.7 -15.8
v -1 0.7 -15.8
v -0.8 0.7 -15.8
v -1.8 0.7 -15.9
v -1.7 0.7 -15.9
v -1.2 0.7 -15.9
v -1 0.7 -15.9
v -1.7 0.7 -16
v -1.2 0.7 -16
v -1.6 0.8 -15
v -1.5 0.8 -15
v -1.3 0.8 -15
v -1.2 0.8 -15
v -1.6 0.8 -15.1
v -1.5 0.8 -15.1
v -1.3 0.8 -15.1
v -1.2 0.8 -15.1
v -1.8 0.8 -15.2
v -1.7 0.8 -15.2
v -1.1 0.8 -15.2
v -1 0.8 -15.2
v -1.8 0.8 -15.3
v -1.7 0.8 -15.3
v -1.1 0.8 -15.3
v -1 0.8 -15.3
v -2 0.8 -15.4
v -1.9 0.8 -15.4
v -2 0.8 -15.5
v -1.9 0.8 -15.5
v -2 0.8 -15.7
v -1.9 0.8 -15.7
v -0.9 0.8 -15.7
v -0.8 0.8 -15.7
v -2 0.8 -15.8
v -1.9 0.8 -15.8
v -1.1 0.8 -15.8
v -1 0.8 -15.8
v -0.9 0.8 -15.8
v -0.8 0.8 -15.8
v -1.7 0.8 -15.9
v -1.6 0.8 -15.9
v -1.3 0.8 -15.9
v -1.2 0.8 -15.9
v -1.1 0.8 -15.9
v -1 0.8 -15.9
v -1.7 0.8 -16
v -1.6 0.8 -16
v -1.3 0.8 -16
v -1.2 0.8 -16
v -1.5 0.9 -15
v -1.4 0.9 -15
v -1.3 0.9 -15
v -1.6 0.9 -15.1
v -1.5 0.9 -15.1
v -1.3 0.9 -15.1
v -1.2 0.9 -15.1
v -1.7 0.9 -15.2
v -1.6 0.9 -15.2
v -1.4 0.9 -15.2
v -1.2 0.9 -15.2
v -1.1 0.9 -15.2
v -1.8 0.9 -15.3
v -1.7 0.9 -15.3
v -1.1 0.9 -15.3
v -1 0.9 -15.3
v -1.9 0.9 -15.4
v -1.8 0.9 -15.4
v -1.6 0.9 -15.4
v -1.4 0.9 -15.4
v -1.2 0.9 -15.4
v -1 0.9 -15.4
v -2 0.9 -15.5
v -1.9 0.9 -15.5
v -2 0.9 -15.6
v -1.8 0.9 -15.6
v -1.6 0.9 -15.6
v -1.4 0.9 -15.6
v -1.2 0.9 -15.6
v -1 0.9 -15.6
v -0.8 0.9 -15.6
v -2 0.9 -15.7
v -1.9 0.9 -15.7
v -0.9 0.9 -15.7
v -0.8 0.9 -15.7
v -1.9 0.9 -15.8
v -1.8 0.9 -15.8
v -1.7 0.9 -15.8
v -1.6 0.9 -15.8
v -1.4 0.9 -15.8
v -1.2 0.9 -15.8
v -1.1 0.9 -15.8
v -1 0.9 -15.8
v -0.9 0.9 -15.8
v -1.8 0.9 -15.9
v -1.7 0.9 -15.9
v -1.6 0.9 -15.9
v -1.4 0.9 -15.9
v -1.3 0.9 -15.9
v -1.1 0.9 -15.9
v -1.6 0.9 -16
v -1.3 0.9 -16
v -1.6 1 -15.2
v -1.5 1 -15.2
v -1.3 1 -15.2
v -1.2 1 -15.2
v -1.6 1 -15.3
v -1.5 1 -15.3
v -1.8 1 -15.4
v -1.7 1 -15.4
v -1.3 1 -15.4
v -1.2 1 -15.4
v -1.8 1 -15.6
v -1.7 1 -15.6
v -1.3 1 -15.6
v -1.2 1 -15.6
v -1.1 1 -15.7
v -1 1 -15.7
v -1.7 1 -15.8
v -1.6 1 -15.8
v -1.5 1 -15.8
v -1.4 1 -15.8
v -1.1 1 -15.8
v -1 1 -15.8
v -1.7 1 -15.9
v -1.6 1 -15.9
v -1.5 1 -15.9
v -1.4 1 -15.9
v -1.5 1.1 -15.2
v -1.4 1.1 -15.2
v -1.3 1.1 -15.2
v -1.6 1.1 -15.3
v -1.5 1.1 -15.3
v -1.7 1.1 -15.4
v -1.6 1.1 -15.4
v -1.4 1.1 -15.4
v -1.3 1.1 -15.4
v -1.7 1.1 -15.6
v -1.6 1.1 -15.6
v -1.4 1.1 -15.6
v -1.3 1.1 -15.6
v -1.2 1.1 -15.6
v -1 1.1 -15.6
v -1.1 1.1 -15.7
v -1 1.1 -15.7
v -1.5 1.1 -15.8
v -1.4 1.1 -15.8
v -1.2 1.1 -15.8
v -1.1 1.1 -15.8
v -1.6 1.1 -15.9
v -1.5 1.1 -15.9

# faces
f 4/3/1 2/3/1 1/3/1
f 5/3/1 2/3/1 4/3/1
f 6/1/1 3/1/1 2/1/1
f 7/1/1 3/1/1 6/1/1
f 8/3/1 2/3/1 5/3/1
f 9/1/1 6/1/1 2/1/1
f 9/3/1 2/3/1 8/3/1
f 10/1/1 6/1/1 9/1/1
f 15/3/1 12/3/1 11/3/1
f 16/3/1 12/3/1 15/3/1
f 17/1/1 14/1/1 13/1/1
f 18/1/1 14/1/1 17/1/1
f 23/3/1 20/3/1 19/3/1
f 24/3/1 20/3/1 23/3/1
f 25/3/1 20/3/1 24/3/1
f 26/3/1 20/3/1 25/3/1
f 28/3/1 22/3/1 21/3/1
f 29/3/1 22/3/1 28/3/1
f 30/3/1 27/3/1 26/3/1
f 31/3/1 27/3/1 30/3/1
f 36/3/1 33/3/1 32/3/1
f 37/3/1 33/3/1 36/3/1
f 38/3/1 35/3/1 34/3/1
f 39/3/1 35/3/1 38/3/1
f 44/3/1 41/3/1 40/3/1
f 45/3/1 41/3/1 44/3/1
f 46/3/1 43/3/1 42/3/1
f 47/3/1 43/3/1 46/3/1
f 50/3/1 49/3/1 48/3/1
f 51/3/1 49/3/1 50/3/1
f 54/3/1 49/3/1 51/3/1
f 55/3/1 49/3/1 54/3/1
f 59/3/1 53/3/1 52/3/1
f 60/3/1 53/3/1 59/3/1
f 61/3/1 56/3/1 55/3/1
f 62/3/1 56/3/1 61/3/1
f 63/3/1 58/3/1 57/3/1
f 65/3/1 56/3/1 62/3/1
f 66/3/1 56/3/1 65/3/1
f 67/3/1 64/3/1 63/3/1
f 67/3/1 63/3/1 57/3/1
f 68/3/1 64/3/1 67/3/1
f 71/3/1 70/3/1 69/3/1
f 72/3/1 70/3/1 71/3/1
f 75/3/1 74/3/1 73/3/1
f 76/3/1 74/3/1 75/3/1
f 79/3/1 78/3/1 77/3/1
f 80/3/1 78/3/1 79/3/1
f 83/1/1 82/1/1 81/1/1
f 84/1/1 82/1/1 83/1/1
f 85/1/1 82/1/1 84/1/1
f 86/3/2 87/3/2 88/3/2
f 88/3/2 87/3/2 89/3/2
f 90/3/2 91/3/2 92/3/2
f 92/3/2 91/3/2 93/3/2
f 94/3/2 95/3/2 97/3/2
f 95/3/2 96/3/2 97/3/2
f 97/3/2 96/3/2 98/3/2
f 94/3/2 97/3/2 99/3/2
f 99/3/2 97/3/2 100/3/2
f 101/1/2 102/1/2 105/1/2
f 105/1/2 102/1/2 106/1/2
f 103/3/2 104/3/2 107/3/2
f 107/3/2 104/3/2 108/3/2
f 109/1/2 110/1/2 112/1/2
f 110/3/2 111/3/2 113/3/2
f 112/1/2 110/1/2 113/1/2
f 113/3/2 111/3/2 114/3/2
f 115/1/2 116/1/2 119/1/2
f 119/1/2 116/1/2 120/1/2
f 117/3/2 118/3/2 121/3/2
f 121/3/2 118/3/2 122/3/2
f 120/1/2 116/1/2 123/1/2
f 123/1/2 116/1/2 124/1/2
f 124/1/2 125/1/2 127/1/2
f 125/3/2 126/3/2 128/3/2
f 127/1/2 125/1/2 128/1/2
f 128/3/2 126/3/2 129/3/2
f 130/1/2 131/1/2 134/1/2
f 134/1/2 131/1/2 135/1/2
f 132/3/2 133/3/2 136/3/2
f 136/3/2 133/3/2 137/3/2
f 138/1/2 139/1/2 140/1/2
f 140/1/2 139/1/2 141/1/2
f 142/1/2 143/1/2 147/1/2
f 147/1/2 143/1/2 148/1/2
f 145/3/2 146/3/2 149/3/2
f 149/3/2 146/3/2 150/3/2
f 148/1/2 143/1/2 151/1/2
f 143/3/2 144/3/2 152/3/2
f 151/1/2 143/1/2 152/1/2
f 152/3/2 144/3/2 153/3/2
f 153/1/2 154/1/2 155/1/2
f 155/1/2 154/1/2 156/1/2
f 153/1/2 155/1/2 157/1/2
f 157/1/2 155/1/2 158/1/2
f 159/3/2 160/3/2 161/3/2
f 161/3/2 160/3/2 162/3/2
f 163/3/2 164/3/2 165/3/2
f 165/3/2 164/3/2 166/3/2
f 163/3/2 165/3/2 167/3/2
f 167/3/2 165/3/2 168/3/2
f 171/3/3 170/3/3 169/3/3
f 173/3/3 171/3/3 169/3/3
f 173/3/3 172/3/3 171/3/3
f 174/3/3 172/3/3 173/3/3
f 175/1/3 174/1/3 173/1/3
f 176/1/3 174/1/3 175/1/3
f 177/1/3 175/1/3 173/1/3
f 178/1/3 175/1/3 177/1/3
f 181/3/3 180/3/3 179/3/3
f 182/3/3 180/3/3 181/3/3
f 185/1/3 184/1/3 183/1/3
f 186/1/3 184/1/3 185/1/3
f 189/3/3 188/3/3 187/3/3
f 191/3/3 189/3/3 187/3/3
f 191/3/3 190/3/3 189/3/3
f 192/3/3 190/3/3 191/3/3
f 194/3/3 193/3/3 192/3/3
f 196/3/3 194/3/3 192/3/3
f 196/3/3 195/3/3 194/3/3
f 197/3/3 195/3/3 196/3/3
f 198/1/3 197/1/3 196/1/3
f 199/1/3 197/1/3 198/1/3
f 201/1/3 198/1/3 196/1/3
f 202/1/3 198/1/3 201/1/3
f 203/1/3 201/1/3 200/1/3
f 204/1/3 201/1/3 203/1/3
f 205/1/3 203/1/3 200/1/3
f 206/1/3 203/1/3 205/1/3
f 209/3/3 208/3/3 207/3/3
f 210/3/3 208/3/3 209/3/3
f 213/3/3 212/3/3 211/3/3
f 214/3/3 212/3/3 213/3/3
f 217/1/3 216/1/3 215/1/3
f 218/1/3 216/1/3 217/1/3
f 221/3/3 220/3/3 219/3/3
f 223/3/3 221/3/3 219/3/3
f 223/3/3 222/3/3 221/3/3
f 224/3/3 222/3/3 223/3/3
f 226/3/3 225/3/3 224/3/3
f 228/3/3 226/3/3 224/3/3
f 228/3/3 227/3/3 226/3/3
f 229/3/3 227/3/3 228/3/3
f 232/3/3 231/3/3 230/3/3
f 233/3/3 231/3/3 232/3/3
f 236/3/3 235/3/3 234/3/3
f 237/3/3 235/3/3 236/3/3
f 242/1/3 239/1/3 238/1/3
f 242/1/3 240/1/3 239/1/3
f 243/1/3 240/1/3 242/1/3
f 244/3/3 242/3/3 241/3/3
f 245/3/3 242/3/3 244/3/3
f 248/3/3 247/3/3 246/3/3
f 249/3/3 247/3/3 248/3/3
f 250/3/4 251/3/4 252/3/4
f 252/3/4 251/3/4 253/3/4
f 254/3/4 255/3/4 256/3/4
f 254/3/4 256/3/4 258/3/4
f 256/3/4 257/3/4 258/3/4
f 258/3/4 257/3/4 259/3/4
f 260/3/4 261/3/4 262/3/4
f 262/3/4 261/3/4 263/3/4
f 260/3/4 262/3/4 264/3/4
f 264/3/4 262/3/4 265/3/4
f 266/1/4 267/1/4 268/1/4
f 268/1/4 267/1/4 269/1/4
f 270/1/4 271/1/4 272/1/4
f 272/1/4 271/1/4 273/1/4
f 274/3/4 275/3/4 276/3/4
f 276/3/4 275/3/4 277/3/4
f 278/1/4 279/1/4 280/1/4
f 278/1/4 280/1/4 282/1/4
f 280/1/4 281/1/4 282/1/4
f 282/1/4 281/1/4 283/1/4
f 284/3/4 285/3/4 286/3/4
f 286/3/4 285/3/4 287/3/4
f 288/1/4 289/1/4 291/1/4
f 291/1/4 289/1/4 292/1/4
f 292/1/4 289/1/4 293/1/4
f 290/3/4 291/3/4 295/3/4
f 291/1/4 292/1/4 296/1/4
f 295/3/4 291/3/4 296/3/4
f 296/1/4 292/1/4 297/1/4
f 294/3/4 295/3/4 298/3/4
f 295/3/4 296/3/4 298/3/4
f 298/3/4 296/3/4 299/3/4
f 294/3/4 298/3/4 300/3/4
f 300/3/4 298/3/4 301/3/4
f 302/3/4 303/3/4 304/3/4
f 304/3/4 303/3/4 305/3/4
f 305/3/4 303/3/4 306/3/4
f 306/3/4 307/3/4 308/3/4
f 305/3/4 306/3/4 308/3/4
f 308/3/4 307/3/4 309/3/4
f 309/3/4 307/3/4 310/3/4
f 310/3/4 311/3/4 312/3/4
f 309/3/4 310/3/4 312/3/4
f 312/3/4 311/3/4 313/3/4
f 309/3/4 312/3/4 314/3/4
f 314/3/4 312/3/4 315/3/4
f 316/3/4 317/3/4 319/3/4
f 319/3/4 317/3/4 320/3/4
f 318/3/4 319/3/4 320/3/4
f 320/3/4 317/3/4 321/3/4
f 318/3/4 320/3/4 322/3/4
f 322/3/4 320/3/4 323/3/4
f 324/3/4 325/3/4 326/3/4
f 324/3/4 326/3/4 328/3/4
f 326/3/4 327/3/4 328/3/4
f 328/3/4 327/3/4 329/3/4
f 324/3/4 328/3/4 330/3/4
f 330/3/4 328/3/4 331/3/4
f 336/3/5 333/3/5 332/3/5
f 337/1/5 334/1/5 333/1/5
f 337/3/5 333/3/5 336/3/5
f 338/1/5 334/1/5 337/1/5
f 341/3/5 336/3/5 335/3/5
f 342/2/5 337/2/5 336/2/5
f 342/3/5 336/3/5 341/3/5
f 343/3/5 338/3/5 337/3/5
f 343/2/5 337/2/5 342/2/5
f 344/1/5 339/1/5 338/1/5
f 344/3/5 338/3/5 343/3/5
f 345/1/5 339/1/5 344/1/5
f 346/3/5 341/3/5 340/3/5
f 347/2/5 343/2/5 342/2/5
f 347/3/5 341/3/5 346/3/5
f 347/2/5 342/2/5 341/2/5
f 347/2/5 344/2/5 343/2/5
f 348/2/5 344/2/5 347/2/5
f 349/2/5 344/2/5 348/2/5
f 350/3/5 345/3/5 344/3/5
f 350/2/5 344/2/5 349/2/5
f 351/3/5 345/3/5 350/3/5
f 353/1/5 347/1/5 346/1/5
f 354/3/5 348/3/5 347/3/5
f 354/1/5 347/1/5 353/1/5
f 355/2/5 349/2/5 348/2/5
f 355/3/5 348/3/5 354/3/5
f 356/1/5 350/1/5 349/1/5
f 356/2/5 349/2/5 355/2/5
f 357/3/5 351/3/5 350/3/5
f 357/1/5 350/1/5 356/1/5
f 357/3/5 352/3/5 351/3/5
f 358/3/5 352/3/5 357/3/5
f 359/3/5 352/3/5 358/3/5
f 360/3/5 356/3/5 355/3/5
f 360/3/5 358/3/5 357/3/5
f 360/3/5 357/3/5 356/3/5
f 360/3/5 355/3/5 354/3/5
f 361/3/5 358/3/5 360/3/5
f 362/3/5 358/3/5 361/3/5
f 363/3/5 358/3/5 362/3/5
f 364/3/5 362/3/5 361/3/5
f 365/3/5 362/3/5 364/3/5
f 366/3/6 367/3/6 370/3/6
f 370/3/6 367/3/6 371/3/6
f 368/1/6 369/1/6 372/1/6
f 372/1/6 369/1/6 373/1/6
f 374/3/6 375/3/6 378/3/6
f 378/3/6 375/3/6 379/3/6
f 376/1/6 377/1/6 380/1/6
f 380/1/6 377/1/6 381/1/6
f 382/3/6 383/3/6 384/3/6
f 384/3/6 383/3/6 385/3/6
f 386/1/6 387/1/6 390/1/6
f 390/1/6 387/1/6 391/1/6
f 388/3/6 389/3/6 394/3/6
f 394/3/6 389/3/6 395/3/6
f 392/3/6 393/3/6 400/3/6
f 400/3/6 393/3/6 401/3/6
f 396/3/6 397/3/6 402/3/6
f 402/3/6 397/3/6 403/3/6
f 398/3/6 399/3/6 404/3/6
f 404/3/6 399/3/6 405/3/6
f 406/3/6 407/3/6 410/3/6
f 407/1/6 408/1/6 411/1/6
f 409/3/6 410/3/6 414/3/6
f 411/1/6 412/1/6 415/1/6
f 410/3/6 407/3/6 415/3/6
f 414/3/6 410/3/6 415/3/6
f 407/1/6 411/1/6 415/1/6
f 415/1/6 412/1/6 416/1/6
f 413/3/6 414/3/6 419/3/6
f 416/1/6 417/1/6 420/1/6
f 418/3/6 419/3/6 423/3/6
f 419/3/6 414/3/6 424/3/6
f 423/3/6 419/3/6 424/3/6
f 420/1/6 421/1/6 426/1/6
f 416/1/6 420/1/6 426/1/6
f 426/1/6 421/1/6 427/1/6
f 422/3/6 423/3/6 429/3/6
f 428/3/6 429/3/6 430/3/6
f 429/3/6 423/3/6 431/3/6
f 430/3/6 429/3/6 431/3/6
f 424/2/6 425/2/6 432/2/6
f 432/2/6 425/2/6 433/2/6
f 426/3/6 427/3/6 434/3/6
f 434/3/6 427/3/6 435/3/6
f 430/1/6 431/1/6 437/1/6
f 437/1/6 431/1/6 438/1/6
f 435/3/6 436/3/6 439/3/6
f 439/3/6 436/3/6 440/3/6
f 438/1/6 431/1/6 441/1/6
f 431/3/6 432/3/6 442/3/6
f 441/1/6 431/1/6 442/1/6
f 442/3/6 432/3/6 443/3/6
f 443/3/6 432/3/6 444/3/6
f 433/1/6 434/1/6 445/1/6
f 445/1/6 434/1/6 446/1/6
f 435/3/6 439/3/6 448/3/6
f 448/3/6 439/3/6 449/3/6
f 442/3/6 443/3/6 450/3/6
f 450/3/6 443/3/6 451/3/6
f 446/3/6 447/3/6 453/3/6
f 445/3/6 446/3/6 453/3/6
f 453/3/6 447/3/6 454/3/6
f 454/3/6 447/3/6 455/3/6
f 452/3/6 453/3/6 456/3/6
f 453/3/6 454/3/6 456/3/6
f 456/3/6 454/3/6 457/3/6
f 458/3/6 459/3/6 462/3/6
f 462/3/6 459/3/6 463/3/6
f 460/1/6 461/1/6 466/1/6
f 466/1/6 461/1/6 467/1/6
f 464/3/6 465/3/6 468/3/6
f 468/3/6 465/3/6 469/3/6
f 466/3/6 467/3/6 470/3/6
f 470/3/6 467/3/6 471/3/6
f 472/1/6 473/1/6 478/1/6
f 478/1/6 473/1/6 479/1/6
f 474/3/6 475/3/6 480/3/6
f 480/3/6 475/3/6 481/3/6
f 476/3/6 477/3/6 482/3/6
f 482/3/6 477/3/6 483/3/6
f 484/3/6 485/3/6 488/3/6
f 487/3/6 488/3/6 490/3/6
f 485/1/6 486/1/6 491/1/6
f 488/3/6 485/3/6 491/3/6
f 490/3/6 488/3/6 491/3/6
f 491/1/6 486/1/6 492/1/6
f 489/3/6 490/3/6 493/3/6
f 493/3/6 490/3/6 494/3/6
f 491/3/6 492/3/6 495/3/6
f 495/3/6 492/3/6 496/3/6
f 497/1/6 498/1/6 499/1/6
f 499/1/6 498/1/6 500/1/6
f 494/3/6 495/3/6 501/3/6
f 501/3/6 495/3/6 502/3/6
f 497/1/6 499/1/6 503/1/6
f 503/1/6 499/1/6 504/1/6
f 494/3/6 501/3/6 505/3/6
f 505/3/6 501/3/6 506/3/6
