# MagicaVoxel @ Ephtracy

# group
o Decoration - Desert - Stone Extra Tall - Variant3

# material
mtllib Medieval Assets-64-Decoration - Desert - Stone Extra Tall - Variant3.mtl
usemtl palette

# normals
vn -1 0 0
vn 1 0 0
vn 0 0 1
vn 0 0 -1
vn 0 -1 0
vn 0 1 0

# texcoords
vt 0.0214844 0.5
vt 0.376953 0.5
vt 0.384766 0.5

# verts
v -25 -0.4 -30.6
v -25 -0.4 -30.7
v -25 -0.4 -31.4
v -25 0 -31.3
v -25 0 -31.4
v -25 0.4 -30.7
v -25 0.4 -30.9
v -25 0.4 -31.1
v -25 0.4 -31.3
v -25 0.8 -30.6
v -25 0.8 -30.9
v -25 0.8 -31.1
v -25 0.8 -31.4
v -24.9 -0.5 -30.7
v -24.9 -0.5 -31.3
v -24.9 -0.4 -30.7
v -24.9 -0.4 -31.3
v -24.9 0.8 -30.7
v -24.9 0.8 -30.9
v -24.9 0.8 -31.1
v -24.9 0.8 -31.2
v -24.9 0.8 -31.3
v -24.9 0.9 -30.7
v -24.9 0.9 -31.2
v -24.9 0.9 -31.3
v -24.8 -0.4 -31
v -24.8 -0.4 -31.1
v -24.8 0.4 -31
v -24.8 0.4 -31.1
v -24.9 -0.4 -31
v -24.9 -0.4 -31.1
v -24.9 0.4 -31
v -24.9 0.4 -31.1
v -24.3 -0.5 -30.7
v -24.3 -0.5 -31
v -24.3 -0.5 -31.3
v -24.3 -0.4 -30.7
v -24.3 -0.4 -30.9
v -24.3 -0.4 -31
v -24.3 -0.4 -31.2
v -24.3 -0.4 -31.3
v -24.3 0.8 -30.7
v -24.3 0.8 -30.8
v -24.3 0.8 -30.9
v -24.3 0.8 -31
v -24.3 0.8 -31.1
v -24.3 0.8 -31.3
v -24.3 0.9 -30.7
v -24.3 0.9 -30.8
v -24.3 0.9 -30.9
v -24.3 0.9 -31
v -24.3 0.9 -31.3
v -24.2 -0.4 -30.6
v -24.2 -0.4 -30.7
v -24.2 -0.4 -30.9
v -24.2 -0.4 -31.2
v -24.2 -0.4 -31.4
v -24.2 0 -30.7
v -24.2 0 -30.8
v -24.2 0 -30.9
v -24.2 0 -31.2
v -24.2 0 -31.3
v -24.2 0.4 -30.6
v -24.2 0.4 -30.8
v -24.2 0.4 -31.1
v -24.2 0.4 -31.2
v -24.2 0.4 -31.3
v -24.2 0.8 -30.6
v -24.2 0.8 -30.8
v -24.2 0.8 -31.1
v -24.2 0.8 -31.4
v -25 -0.4 -30.6
v -25 0.8 -30.6
v -24.9 0.4 -30.6
v -24.9 0.8 -30.6
v -24.7 0 -30.6
v -24.7 0.4 -30.6
v -24.5 0.4 -30.6
v -24.5 0.8 -30.6
v -24.4 -0.4 -30.6
v -24.4 0 -30.6
v -24.4 0.4 -30.6
v -24.4 0.8 -30.6
v -24.3 -0.4 -30.6
v -24.3 0.4 -30.6
v -24.2 -0.4 -30.6
v -24.2 0.4 -30.6
v -24.2 0.8 -30.6
v -24.9 -0.5 -30.7
v -24.9 -0.4 -30.7
v -24.9 0.8 -30.7
v -24.9 0.9 -30.7
v -24.8 0.8 -30.7
v -24.8 0.9 -30.7
v -24.7 -0.5 -30.7
v -24.7 -0.4 -30.7
v -24.6 -0.5 -30.7
v -24.6 -0.4 -30.7
v -24.5 0.8 -30.7
v -24.4 -0.5 -30.7
v -24.4 -0.4 -30.7
v -24.4 0.8 -30.7
v -24.3 -0.5 -30.7
v -24.3 -0.4 -30.7
v -24.3 0.8 -30.7
v -24.3 0.9 -30.7
v -24.9 -0.4 -31.1
v -24.9 0.4 -31.1
v -24.8 -0.4 -31.1
v -24.8 0.4 -31.1
v -24.9 -0.4 -31
v -24.9 0.4 -31
v -24.8 -0.4 -31
v -24.8 0.4 -31
v -24.9 -0.5 -31.3
v -24.9 -0.4 -31.3
v -24.9 0.8 -31.3
v -24.9 0.9 -31.3
v -24.7 -0.5 -31.3
v -24.7 -0.4 -31.3
v -24.5 -0.5 -31.3
v -24.5 -0.4 -31.3
v -24.4 -0.4 -31.3
v -24.4 0.8 -31.3
v -24.4 0.9 -31.3
v -24.3 -0.5 -31.3
v -24.3 -0.4 -31.3
v -24.3 0.8 -31.3
v -24.3 0.9 -31.3
v -25 -0.4 -31.4
v -25 0 -31.4
v -25 0.8 -31.4
v -24.9 0 -31.4
v -24.9 0.8 -31.4
v -24.8 0 -31.4
v -24.8 0.4 -31.4
v -24.5 -0.4 -31.4
v -24.5 0 -31.4
v -24.5 0.4 -31.4
v -24.4 -0.4 -31.4
v -24.4 0 -31.4
v -24.2 -0.4 -31.4
v -24.2 0.8 -31.4
v -24.9 -0.5 -30.7
v -24.7 -0.5 -30.7
v -24.6 -0.5 -30.7
v -24.4 -0.5 -30.7
v -24.3 -0.5 -30.7
v -24.7 -0.5 -30.9
v -24.6 -0.5 -30.9
v -24.4 -0.5 -31
v -24.3 -0.5 -31
v -24.8 -0.5 -31.1
v -24.6 -0.5 -31.1
v -24.8 -0.5 -31.2
v -24.7 -0.5 -31.2
v -24.6 -0.5 -31.2
v -24.5 -0.5 -31.2
v -24.9 -0.5 -31.3
v -24.7 -0.5 -31.3
v -24.5 -0.5 -31.3
v -24.3 -0.5 -31.3
v -25 -0.4 -30.6
v -24.4 -0.4 -30.6
v -24.3 -0.4 -30.6
v -24.2 -0.4 -30.6
v -25 -0.4 -30.7
v -24.9 -0.4 -30.7
v -24.7 -0.4 -30.7
v -24.6 -0.4 -30.7
v -24.4 -0.4 -30.7
v -24.3 -0.4 -30.7
v -24.2 -0.4 -30.7
v -24.3 -0.4 -30.9
v -24.2 -0.4 -30.9
v -24.3 -0.4 -31
v -24.3 -0.4 -31.2
v -24.2 -0.4 -31.2
v -24.9 -0.4 -31.3
v -24.7 -0.4 -31.3
v -24.5 -0.4 -31.3
v -24.4 -0.4 -31.3
v -24.3 -0.4 -31.3
v -25 -0.4 -31.4
v -24.5 -0.4 -31.4
v -24.4 -0.4 -31.4
v -24.2 -0.4 -31.4
v -24.9 0.4 -31
v -24.8 0.4 -31
v -24.9 0.4 -31.1
v -24.8 0.4 -31.1
v -24.9 -0.4 -31
v -24.8 -0.4 -31
v -24.9 -0.4 -31.1
v -24.8 -0.4 -31.1
v -25 0.8 -30.6
v -24.9 0.8 -30.6
v -24.5 0.8 -30.6
v -24.4 0.8 -30.6
v -24.2 0.8 -30.6
v -24.9 0.8 -30.7
v -24.8 0.8 -30.7
v -24.5 0.8 -30.7
v -24.4 0.8 -30.7
v -24.3 0.8 -30.7
v -24.3 0.8 -30.8
v -24.2 0.8 -30.8
v -25 0.8 -30.9
v -24.9 0.8 -30.9
v -24.3 0.8 -30.9
v -24.3 0.8 -31
v -25 0.8 -31.1
v -24.9 0.8 -31.1
v -24.3 0.8 -31.1
v -24.2 0.8 -31.1
v -24.9 0.8 -31.2
v -24.9 0.8 -31.3
v -24.4 0.8 -31.3
v -24.3 0.8 -31.3
v -25 0.8 -31.4
v -24.9 0.8 -31.4
v -24.2 0.8 -31.4
v -24.9 0.9 -30.7
v -24.8 0.9 -30.7
v -24.3 0.9 -30.7
v -24.6 0.9 -30.8
v -24.3 0.9 -30.8
v -24.8 0.9 -30.9
v -24.6 0.9 -30.9
v -24.3 0.9 -30.9
v -24.7 0.9 -31
v -24.6 0.9 -31
v -24.4 0.9 -31
v -24.3 0.9 -31
v -24.8 0.9 -31.1
v -24.7 0.9 -31.1
v -24.9 0.9 -31.2
v -24.8 0.9 -31.2
v -24.9 0.9 -31.3
v -24.4 0.9 -31.3
v -24.3 0.9 -31.3

# faces
f 4/3/1 3/3/1 2/3/1
f 5/3/1 3/3/1 4/3/1
f 6/2/1 2/2/1 1/2/1
f 6/3/1 4/3/1 2/3/1
f 7/3/1 4/3/1 6/3/1
f 8/3/1 4/3/1 7/3/1
f 9/1/1 5/1/1 4/1/1
f 9/3/1 4/3/1 8/3/1
f 10/2/1 6/2/1 1/2/1
f 10/2/1 7/2/1 6/2/1
f 11/3/1 8/3/1 7/3/1
f 11/2/1 7/2/1 10/2/1
f 12/1/1 9/1/1 8/1/1
f 12/3/1 8/3/1 11/3/1
f 13/1/1 5/1/1 9/1/1
f 13/1/1 9/1/1 12/1/1
f 16/3/1 15/3/1 14/3/1
f 17/3/1 15/3/1 16/3/1
f 23/2/1 19/2/1 18/2/1
f 23/2/1 20/2/1 19/2/1
f 23/2/1 21/2/1 20/2/1
f 24/3/1 22/3/1 21/3/1
f 24/2/1 21/2/1 23/2/1
f 25/3/1 22/3/1 24/3/1
f 28/2/1 27/2/1 26/2/1
f 29/2/1 27/2/1 28/2/1
f 30/3/2 31/3/2 32/3/2
f 32/3/2 31/3/2 33/3/2
f 34/2/2 35/2/2 37/2/2
f 37/2/2 35/2/2 38/2/2
f 35/3/2 36/3/2 39/3/2
f 38/2/2 35/2/2 39/2/2
f 39/3/2 36/3/2 40/3/2
f 40/3/2 36/3/2 41/3/2
f 42/3/2 43/3/2 48/3/2
f 43/2/2 44/2/2 49/2/2
f 48/3/2 43/3/2 49/3/2
f 44/3/2 45/3/2 50/3/2
f 49/2/2 44/2/2 50/2/2
f 46/1/2 47/1/2 51/1/2
f 50/3/2 45/3/2 51/3/2
f 45/1/2 46/1/2 51/1/2
f 51/1/2 47/1/2 52/1/2
f 53/2/2 54/2/2 58/2/2
f 54/3/2 55/3/2 58/3/2
f 58/3/2 55/3/2 59/3/2
f 55/2/2 56/2/2 60/2/2
f 59/3/2 55/3/2 60/3/2
f 56/3/2 57/3/2 61/3/2
f 60/2/2 56/2/2 61/2/2
f 61/3/2 57/3/2 62/3/2
f 58/2/2 59/2/2 63/2/2
f 53/2/2 58/2/2 63/2/2
f 59/3/2 60/3/2 64/3/2
f 63/2/2 59/2/2 64/2/2
f 60/3/2 61/3/2 64/3/2
f 64/3/2 61/3/2 65/3/2
f 61/2/2 62/2/2 66/2/2
f 65/3/2 61/3/2 66/3/2
f 62/3/2 57/3/2 67/3/2
f 66/2/2 62/2/2 67/2/2
f 63/3/2 64/3/2 68/3/2
f 64/1/2 65/1/2 69/1/2
f 68/3/2 64/3/2 69/3/2
f 65/3/2 66/3/2 70/3/2
f 69/1/2 65/1/2 70/1/2
f 66/3/2 67/3/2 70/3/2
f 67/3/2 57/3/2 71/3/2
f 70/3/2 67/3/2 71/3/2
f 74/2/3 73/2/3 72/2/3
f 75/2/3 73/2/3 74/2/3
f 76/2/3 74/2/3 72/2/3
f 77/3/3 75/3/3 74/3/3
f 77/2/3 74/2/3 76/2/3
f 78/3/3 77/3/3 76/3/3
f 78/3/3 75/3/3 77/3/3
f 79/3/3 75/3/3 78/3/3
f 80/2/3 76/2/3 72/2/3
f 81/3/3 78/3/3 76/3/3
f 81/2/3 76/2/3 80/2/3
f 82/2/3 79/2/3 78/2/3
f 82/3/3 78/3/3 81/3/3
f 83/2/3 79/2/3 82/2/3
f 84/3/3 81/3/3 80/3/3
f 84/3/3 82/3/3 81/3/3
f 84/3/3 83/3/3 82/3/3
f 85/3/3 83/3/3 84/3/3
f 86/2/3 85/2/3 84/2/3
f 87/3/3 83/3/3 85/3/3
f 87/2/3 85/2/3 86/2/3
f 88/3/3 83/3/3 87/3/3
f 93/2/3 92/2/3 91/2/3
f 94/2/3 92/2/3 93/2/3
f 95/3/3 90/3/3 89/3/3
f 96/3/3 90/3/3 95/3/3
f 97/2/3 96/2/3 95/2/3
f 98/2/3 96/2/3 97/2/3
f 99/3/3 94/3/3 93/3/3
f 100/3/3 98/3/3 97/3/3
f 101/3/3 98/3/3 100/3/3
f 102/3/3 94/3/3 99/3/3
f 103/2/3 101/2/3 100/2/3
f 104/2/3 101/2/3 103/2/3
f 105/3/3 94/3/3 102/3/3
f 106/3/3 94/3/3 105/3/3
f 109/2/3 108/2/3 107/2/3
f 110/2/3 108/2/3 109/2/3
f 111/2/4 112/2/4 113/2/4
f 113/2/4 112/2/4 114/2/4
f 115/3/4 116/3/4 119/3/4
f 119/3/4 116/3/4 120/3/4
f 119/2/4 120/2/4 121/2/4
f 121/2/4 120/2/4 122/2/4
f 121/3/4 122/3/4 123/3/4
f 117/3/4 118/3/4 124/3/4
f 124/3/4 118/3/4 125/3/4
f 121/3/4 123/3/4 126/3/4
f 126/3/4 123/3/4 127/3/4
f 124/1/4 125/1/4 128/1/4
f 128/1/4 125/1/4 129/1/4
f 130/3/4 131/3/4 133/3/4
f 131/1/4 132/1/4 133/1/4
f 133/1/4 132/1/4 134/1/4
f 130/3/4 133/3/4 135/3/4
f 133/3/4 134/3/4 135/3/4
f 135/3/4 134/3/4 136/3/4
f 130/3/4 135/3/4 137/3/4
f 135/2/4 136/2/4 138/2/4
f 137/3/4 135/3/4 138/3/4
f 136/3/4 134/3/4 139/3/4
f 138/2/4 136/2/4 139/2/4
f 137/2/4 138/2/4 140/2/4
f 138/3/4 139/3/4 141/3/4
f 140/2/4 138/2/4 141/2/4
f 140/3/4 141/3/4 142/3/4
f 139/3/4 134/3/4 143/3/4
f 142/3/4 141/3/4 143/3/4
f 141/3/4 139/3/4 143/3/4
f 149/3/5 145/3/5 144/3/5
f 149/2/5 146/2/5 145/2/5
f 150/3/5 147/3/5 146/3/5
f 150/2/5 146/2/5 149/2/5
f 151/2/5 148/2/5 147/2/5
f 151/3/5 147/3/5 150/3/5
f 151/3/5 150/3/5 149/3/5
f 152/2/5 148/2/5 151/2/5
f 153/3/5 149/3/5 144/3/5
f 153/3/5 151/3/5 149/3/5
f 153/3/5 152/3/5 151/3/5
f 154/3/5 152/3/5 153/3/5
f 155/3/5 153/3/5 144/3/5
f 155/2/5 154/2/5 153/2/5
f 156/2/5 154/2/5 155/2/5
f 157/3/5 152/3/5 154/3/5
f 157/2/5 154/2/5 156/2/5
f 158/3/5 152/3/5 157/3/5
f 159/3/5 156/3/5 155/3/5
f 159/3/5 155/3/5 144/3/5
f 160/2/5 158/2/5 157/2/5
f 160/3/5 156/3/5 159/3/5
f 160/2/5 157/2/5 156/2/5
f 161/3/5 152/3/5 158/3/5
f 161/2/5 158/2/5 160/2/5
f 162/3/5 152/3/5 161/3/5
f 167/2/5 164/2/5 163/2/5
f 168/2/5 164/2/5 167/2/5
f 169/2/5 164/2/5 168/2/5
f 170/2/5 164/2/5 169/2/5
f 171/3/5 165/3/5 164/3/5
f 171/2/5 164/2/5 170/2/5
f 172/2/5 166/2/5 165/2/5
f 172/3/5 165/3/5 171/3/5
f 173/2/5 166/2/5 172/2/5
f 174/3/5 173/3/5 172/3/5
f 175/3/5 173/3/5 174/3/5
f 176/2/5 175/2/5 174/2/5
f 177/2/5 175/2/5 176/2/5
f 178/2/5 175/2/5 177/2/5
f 179/3/5 168/3/5 167/3/5
f 183/3/5 178/3/5 177/3/5
f 184/3/5 179/3/5 167/3/5
f 184/3/5 180/3/5 179/3/5
f 184/3/5 181/3/5 180/3/5
f 185/2/5 182/2/5 181/2/5
f 185/3/5 181/3/5 184/3/5
f 186/3/5 183/3/5 182/3/5
f 186/2/5 182/2/5 185/2/5
f 187/3/5 178/3/5 183/3/5
f 187/3/5 183/3/5 186/3/5
f 190/3/5 189/3/5 188/3/5
f 191/3/5 189/3/5 190/3/5
f 192/3/6 193/3/6 194/3/6
f 194/3/6 193/3/6 195/3/6
f 196/2/6 197/2/6 201/2/6
f 197/3/6 198/3/6 201/3/6
f 201/3/6 198/3/6 202/3/6
f 198/2/6 199/2/6 203/2/6
f 202/3/6 198/3/6 203/3/6
f 199/3/6 200/3/6 204/3/6
f 203/2/6 199/2/6 204/2/6
f 204/3/6 200/3/6 205/3/6
f 205/3/6 200/3/6 206/3/6
f 206/3/6 200/3/6 207/3/6
f 196/2/6 201/2/6 208/2/6
f 208/2/6 201/2/6 209/2/6
f 206/1/6 207/1/6 210/1/6
f 210/1/6 207/1/6 211/1/6
f 208/3/6 209/3/6 212/3/6
f 212/3/6 209/3/6 213/3/6
f 211/1/6 207/1/6 214/1/6
f 214/1/6 207/1/6 215/1/6
f 212/1/6 213/1/6 216/1/6
f 212/1/6 216/1/6 217/1/6
f 214/3/6 215/3/6 219/3/6
f 212/1/6 217/1/6 220/1/6
f 217/3/6 218/3/6 221/3/6
f 220/1/6 217/1/6 221/1/6
f 218/3/6 219/3/6 221/3/6
f 219/3/6 215/3/6 222/3/6
f 221/3/6 219/3/6 222/3/6
f 224/3/6 225/3/6 226/3/6
f 226/3/6 225/3/6 227/3/6
f 223/2/6 224/2/6 228/2/6
f 224/3/6 226/3/6 228/3/6
f 226/2/6 227/2/6 229/2/6
f 228/3/6 226/3/6 229/3/6
f 229/2/6 227/2/6 230/2/6
f 228/2/6 229/2/6 231/2/6
f 229/3/6 230/3/6 232/3/6
f 231/2/6 229/2/6 232/2/6
f 232/3/6 230/3/6 233/3/6
f 233/3/6 230/3/6 234/3/6
f 223/2/6 228/2/6 235/2/6
f 228/2/6 231/2/6 235/2/6
f 231/3/6 232/3/6 236/3/6
f 235/2/6 231/2/6 236/2/6
f 232/3/6 233/3/6 236/3/6
f 223/2/6 235/2/6 237/2/6
f 235/3/6 236/3/6 238/3/6
f 237/2/6 235/2/6 238/2/6
f 237/3/6 238/3/6 239/3/6
f 233/1/6 234/1/6 240/1/6
f 239/3/6 238/3/6 240/3/6
f 236/3/6 233/3/6 240/3/6
f 238/3/6 236/3/6 240/3/6
f 240/1/6 234/1/6 241/1/6
