# MagicaVoxel @ Ephtracy

# group
o Resource - Mine Node - Base

# material
mtllib Medieval Assets-305-Resource - Mine Node - Base.mtl
usemtl palette

# normals
vn -1 0 0
vn 1 0 0
vn 0 0 1
vn 0 0 -1
vn 0 -1 0
vn 0 1 0

# texcoords
vt 0.134766 0.5
vt 0.138672 0.5
vt 0.142578 0.5

# verts
v -0.2 0.7 1.2
v -0.2 0.7 0.4
v -0.2 0.8 1.1
v -0.2 0.8 1
v -0.2 0.9 1.1
v -0.2 0.9 1
v -0.2 0.9 0.8
v -0.2 0.9 0.7
v -0.2 1 1.2
v -0.2 1 1.1
v -0.2 1 0.8
v -0.2 1 0.7
v -0.2 1 0.5
v -0.2 1 0.4
v -0.2 1.1 1.1
v -0.2 1.1 0.5
v -0.1 0.8 1.1
v -0.1 0.8 1
v -0.1 0.9 1.1
v -0.1 0.9 1
v -0.1 0.9 0.8
v -0.1 0.9 0.7
v -0.1 1 0.8
v -0.1 1 0.7
v -0.1 1 0.5
v -0.1 1 0.4
v -0.1 1.1 0.5
v -0.1 1.1 0.4
v 0 1 1.2
v 0 1 1.1
v 0 1 0.7
v 0 1 0.6
v 0 1.1 1.2
v 0 1.1 1.1
v 0 1.1 1
v 0 1.1 0.7
v 0 1.1 0.6
v 0 1.2 0.9
v 0 1.2 0.8
v 0 1.3 0.9
v 0 1.3 0.8
v 0 1.4 1
v 0 1.4 0.9
v 0 1.4 0.7
v 0 1.4 0.6
v 0 1.5 0.9
v 0 1.5 0.7
v 0.1 0.8 1.2
v 0.1 0.8 1.1
v 0.1 0.8 0.5
v 0.1 0.8 0.4
v 0.1 0.9 1.2
v 0.1 0.9 1.1
v 0.1 0.9 0.5
v 0.1 0.9 0.4
v 0.1 1.2 0.9
v 0.1 1.2 0.8
v 0.1 1.3 0.9
v 0.1 1.3 0.8
v 0.1 1.4 1
v 0.1 1.4 0.9
v 0.1 1.4 0.7
v 0.1 1.4 0.6
v 0.1 1.5 1
v 0.1 1.5 0.9
v 0.1 1.5 0.7
v 0.1 1.5 0.6
v 0.2 1.2 1
v 0.2 1.2 0.9
v 0.2 1.3 1
v 0.2 1.3 0.9
v 0.3 1.4 0.9
v 0.3 1.4 0.8
v 0.3 1.5 0.9
v 0.3 1.5 0.8
v 0.4 0.7 0.5
v 0.4 0.7 0.4
v 0.4 0.8 0.5
v 0.4 0.8 0.4
v 0.4 1 0.5
v 0.4 1 0.4
v 0.4 1.1 0.5
v 0.4 1.1 0.4
v -0.1 1 0.7
v -0.1 1 0.6
v -0.1 1.1 0.7
v -0.1 1.1 0.6
v 0 0.8 1.2
v 0 0.8 1.1
v 0 0.8 0.5
v 0 0.8 0.4
v 0 0.9 1.2
v 0 0.9 1.1
v 0 0.9 0.5
v 0 0.9 0.4
v 0.1 1 1.2
v 0.1 1 1.1
v 0.1 1.1 1.2
v 0.1 1.1 1.1
v 0.1 1.2 1
v 0.1 1.2 0.9
v 0.1 1.3 1
v 0.1 1.3 0.9
v 0.2 0.7 1.2
v 0.2 0.7 1
v 0.2 1 1.2
v 0.2 1 1.1
v 0.2 1.1 1.1
v 0.2 1.1 1
v 0.2 1.4 0.9
v 0.2 1.4 0.8
v 0.2 1.5 0.9
v 0.2 1.5 0.8
v 0.3 0.7 0.5
v 0.3 0.7 0.4
v 0.3 0.8 0.5
v 0.3 0.8 0.4
v 0.3 0.9 1
v 0.3 0.9 0.9
v 0.3 1 1
v 0.3 1 0.9
v 0.3 1 0.5
v 0.3 1 0.4
v 0.3 1.1 0.5
v 0.3 1.1 0.4
v 0.3 1.2 0.9
v 0.3 1.2 0.8
v 0.3 1.3 0.9
v 0.3 1.3 0.8
v 0.3 1.4 1
v 0.3 1.4 0.9
v 0.3 1.4 0.7
v 0.3 1.4 0.6
v 0.3 1.5 1
v 0.3 1.5 0.9
v 0.3 1.5 0.7
v 0.3 1.5 0.6
v 0.4 0.7 1
v 0.4 0.7 0.8
v 0.4 0.9 1
v 0.4 0.9 0.9
v 0.4 1 1
v 0.4 1 0.9
v 0.4 1.1 0.8
v 0.4 1.1 0.6
v 0.4 1.2 0.9
v 0.4 1.2 0.8
v 0.4 1.3 0.9
v 0.4 1.3 0.8
v 0.4 1.4 1
v 0.4 1.4 0.9
v 0.4 1.4 0.7
v 0.4 1.4 0.6
v 0.4 1.5 0.9
v 0.4 1.5 0.7
v 0.5 0.8 0.8
v 0.5 0.8 0.7
v 0.5 0.9 0.8
v 0.5 0.9 0.7
v 0.5 1 0.7
v 0.5 1 0.6
v 0.5 1 0.5
v 0.5 1 0.4
v 0.5 1.1 0.7
v 0.5 1.1 0.6
v 0.5 1.1 0.5
v 0.5 1.1 0.4
v 0.6 0.7 0.8
v 0.6 0.7 0.4
v 0.6 0.8 0.8
v 0.6 0.8 0.7
v 0.6 0.9 0.8
v 0.6 0.9 0.7
v 0.6 1 0.7
v 0.6 1 0.6
v 0.6 1 0.5
v 0.6 1 0.4
v 0.6 1.1 0.8
v 0.6 1.1 0.7
v 0.6 1.1 0.6
v 0.6 1.1 0.5
v -0.2 0.7 1.2
v -0.2 1 1.2
v 0 0.8 1.2
v 0 0.9 1.2
v 0 1 1.2
v 0 1.1 1.2
v 0.1 0.8 1.2
v 0.1 0.9 1.2
v 0.1 1 1.2
v 0.1 1.1 1.2
v 0.2 0.7 1.2
v 0.2 1 1.2
v -0.2 1 1.1
v -0.2 1.1 1.1
v 0 0.8 1.1
v 0 0.9 1.1
v 0 1 1.1
v 0 1.1 1.1
v 0.1 0.8 1.1
v 0.1 0.9 1.1
v 0.1 1 1.1
v 0.1 1.1 1.1
v 0.2 1 1.1
v 0.2 1.1 1.1
v -0.2 0.8 1
v -0.2 0.9 1
v -0.1 0.8 1
v -0.1 0.9 1
v 0 1.1 1
v 0 1.4 1
v 0.1 1.2 1
v 0.1 1.3 1
v 0.1 1.4 1
v 0.1 1.5 1
v 0.2 0.7 1
v 0.2 1.1 1
v 0.2 1.2 1
v 0.2 1.3 1
v 0.3 0.9 1
v 0.3 1 1
v 0.3 1.4 1
v 0.3 1.5 1
v 0.4 0.7 1
v 0.4 0.9 1
v 0.4 1 1
v 0.4 1.4 1
v 0 1.4 0.9
v 0 1.5 0.9
v 0.1 1.2 0.9
v 0.1 1.3 0.9
v 0.1 1.4 0.9
v 0.1 1.5 0.9
v 0.2 1.2 0.9
v 0.2 1.3 0.9
v 0.3 0.9 0.9
v 0.3 1 0.9
v 0.3 1.4 0.9
v 0.3 1.5 0.9
v 0.4 0.9 0.9
v 0.4 1 0.9
v 0.4 1.4 0.9
v 0.4 1.5 0.9
v 0 1.2 0.8
v 0 1.3 0.8
v 0.1 1.2 0.8
v 0.1 1.3 0.8
v 0.2 1.4 0.8
v 0.2 1.5 0.8
v 0.3 1.2 0.8
v 0.3 1.3 0.8
v 0.3 1.4 0.8
v 0.3 1.5 0.8
v 0.4 0.7 0.8
v 0.4 1.1 0.8
v 0.4 1.2 0.8
v 0.4 1.3 0.8
v 0.5 0.8 0.8
v 0.5 0.9 0.8
v 0.6 0.7 0.8
v 0.6 0.8 0.8
v 0.6 0.9 0.8
v 0.6 1.1 0.8
v -0.2 0.9 0.7
v -0.2 1 0.7
v -0.1 0.9 0.7
v -0.1 1 0.7
v 0.5 0.8 0.7
v 0.5 0.9 0.7
v 0.6 0.8 0.7
v 0.6 0.9 0.7
v -0.1 1 0.6
v -0.1 1.1 0.6
v 0 1 0.6
v 0 1.1 0.6
v 0.5 1 0.6
v 0.5 1.1 0.6
v 0.6 1 0.6
v 0.6 1.1 0.6
v -0.2 0.8 1.1
v -0.2 0.9 1.1
v -0.1 0.8 1.1
v -0.1 0.9 1.1
v 0 1.2 0.9
v 0 1.3 0.9
v 0.1 1.2 0.9
v 0.1 1.3 0.9
v 0.2 1.4 0.9
v 0.2 1.5 0.9
v 0.3 1.2 0.9
v 0.3 1.3 0.9
v 0.3 1.4 0.9
v 0.3 1.5 0.9
v 0.4 1.2 0.9
v 0.4 1.3 0.9
v -0.2 0.9 0.8
v -0.2 1 0.8
v -0.1 0.9 0.8
v -0.1 1 0.8
v -0.1 1 0.7
v -0.1 1.1 0.7
v 0 1 0.7
v 0 1.1 0.7
v 0 1.4 0.7
v 0 1.5 0.7
v 0.1 1.4 0.7
v 0.1 1.5 0.7
v 0.3 1.4 0.7
v 0.3 1.5 0.7
v 0.4 1.4 0.7
v 0.4 1.5 0.7
v 0.5 1 0.7
v 0.5 1.1 0.7
v 0.6 1 0.7
v 0.6 1.1 0.7
v 0 1.1 0.6
v 0 1.4 0.6
v 0.1 1.1 0.6
v 0.1 1.4 0.6
v 0.1 1.5 0.6
v 0.2 1.1 0.6
v 0.2 1.3 0.6
v 0.3 1.1 0.6
v 0.3 1.3 0.6
v 0.3 1.4 0.6
v 0.3 1.5 0.6
v 0.4 1.1 0.6
v 0.4 1.4 0.6
v -0.2 1 0.5
v -0.2 1.1 0.5
v -0.1 1 0.5
v -0.1 1.1 0.5
v 0 0.8 0.5
v 0 0.9 0.5
v 0.1 0.8 0.5
v 0.1 0.9 0.5
v 0.3 0.7 0.5
v 0.3 0.8 0.5
v 0.3 1 0.5
v 0.3 1.1 0.5
v 0.4 0.7 0.5
v 0.4 0.8 0.5
v 0.4 1 0.5
v 0.4 1.1 0.5
v 0.5 1 0.5
v 0.5 1.1 0.5
v 0.6 1 0.5
v 0.6 1.1 0.5
v -0.2 0.7 0.4
v -0.2 1 0.4
v -0.1 0.7 0.4
v -0.1 1 0.4
v -0.1 1.1 0.4
v 0 0.8 0.4
v 0 0.9 0.4
v 0 1 0.4
v 0 1.1 0.4
v 0.1 0.8 0.4
v 0.1 0.9 0.4
v 0.3 0.7 0.4
v 0.3 0.8 0.4
v 0.3 1 0.4
v 0.3 1.1 0.4
v 0.4 0.7 0.4
v 0.4 0.8 0.4
v 0.4 1 0.4
v 0.4 1.1 0.4
v 0.5 1 0.4
v 0.5 1.1 0.4
v 0.6 0.7 0.4
v 0.6 1 0.4
v -0.2 0.7 1.2
v 0.2 0.7 1.2
v -0.1 0.7 1.1
v 0.1 0.7 1.1
v 0.1 0.7 1
v 0.2 0.7 1
v 0.4 0.7 1
v 0 0.7 0.8
v 0.2 0.7 0.8
v 0.4 0.7 0.8
v 0.6 0.7 0.8
v 0 0.7 0.6
v 0.2 0.7 0.6
v 0.3 0.7 0.5
v 0.4 0.7 0.5
v -0.2 0.7 0.4
v -0.1 0.7 0.4
v 0.3 0.7 0.4
v 0.4 0.7 0.4
v 0.6 0.7 0.4
v 0.3 0.8 0.5
v 0.4 0.8 0.5
v 0.3 0.8 0.4
v 0.4 0.8 0.4
v 0 0.9 1.2
v 0.1 0.9 1.2
v -0.2 0.9 1.1
v -0.1 0.9 1.1
v 0 0.9 1.1
v 0.1 0.9 1.1
v -0.2 0.9 1
v -0.1 0.9 1
v 0.5 0.9 0.8
v 0.6 0.9 0.8
v 0.5 0.9 0.7
v 0.6 0.9 0.7
v 0 0.9 0.5
v 0.1 0.9 0.5
v 0 0.9 0.4
v 0.1 0.9 0.4
v 0.3 1 1
v 0.4 1 1
v 0.3 1 0.9
v 0.4 1 0.9
v -0.2 1 0.8
v -0.1 1 0.8
v -0.2 1 0.7
v -0.1 1 0.7
v 0.1 1.3 1
v 0.2 1.3 1
v 0 1.3 0.9
v 0.1 1.3 0.9
v 0.2 1.3 0.9
v 0.3 1.3 0.9
v 0.4 1.3 0.9
v 0 1.3 0.8
v 0.1 1.3 0.8
v 0.3 1.3 0.8
v 0.4 1.3 0.8
v 0 0.8 1.2
v 0.1 0.8 1.2
v -0.2 0.8 1.1
v -0.1 0.8 1.1
v 0 0.8 1.1
v 0.1 0.8 1.1
v -0.2 0.8 1
v -0.1 0.8 1
v 0.5 0.8 0.8
v 0.6 0.8 0.8
v 0.5 0.8 0.7
v 0.6 0.8 0.7
v 0 0.8 0.5
v 0.1 0.8 0.5
v 0 0.8 0.4
v 0.1 0.8 0.4
v 0.3 0.9 1
v 0.4 0.9 1
v 0.3 0.9 0.9
v 0.4 0.9 0.9
v -0.2 0.9 0.8
v -0.1 0.9 0.8
v -0.2 0.9 0.7
v -0.1 0.9 0.7
v -0.2 1 1.2
v 0 1 1.2
v 0.1 1 1.2
v 0.2 1 1.2
v -0.2 1 1.1
v 0 1 1.1
v 0.1 1 1.1
v 0.2 1 1.1
v -0.1 1 0.7
v 0 1 0.7
v 0.5 1 0.7
v 0.6 1 0.7
v -0.1 1 0.6
v 0 1 0.6
v 0.5 1 0.6
v 0.6 1 0.6
v -0.2 1 0.5
v -0.1 1 0.5
v 0.3 1 0.5
v 0.4 1 0.5
v 0.5 1 0.5
v 0.6 1 0.5
v -0.2 1 0.4
v -0.1 1 0.4
v 0.3 1 0.4
v 0.4 1 0.4
v 0.5 1 0.4
v 0.6 1 0.4
v 0 1.1 1.2
v 0.1 1.1 1.2
v -0.2 1.1 1.1
v 0 1.1 1.1
v 0.1 1.1 1.1
v 0.2 1.1 1.1
v 0 1.1 1
v 0.2 1.1 1
v 0.4 1.1 0.8
v 0.6 1.1 0.8
v -0.1 1.1 0.7
v 0 1.1 0.7
v 0.5 1.1 0.7
v 0.6 1.1 0.7
v -0.1 1.1 0.6
v 0 1.1 0.6
v 0.1 1.1 0.6
v 0.2 1.1 0.6
v 0.3 1.1 0.6
v 0.4 1.1 0.6
v 0.5 1.1 0.6
v 0.6 1.1 0.6
v -0.2 1.1 0.5
v -0.1 1.1 0.5
v 0 1.1 0.5
v 0.1 1.1 0.5
v 0.3 1.1 0.5
v 0.4 1.1 0.5
v 0.5 1.1 0.5
v 0.6 1.1 0.5
v -0.1 1.1 0.4
v 0 1.1 0.4
v 0.3 1.1 0.4
v 0.4 1.1 0.4
v 0.5 1.1 0.4
v 0.1 1.2 1
v 0.2 1.2 1
v 0 1.2 0.9
v 0.1 1.2 0.9
v 0.2 1.2 0.9
v 0.3 1.2 0.9
v 0.4 1.2 0.9
v 0 1.2 0.8
v 0.1 1.2 0.8
v 0.3 1.2 0.8
v 0.4 1.2 0.8
v 0 1.4 1
v 0.1 1.4 1
v 0.3 1.4 1
v 0.4 1.4 1
v 0 1.4 0.9
v 0.1 1.4 0.9
v 0.2 1.4 0.9
v 0.3 1.4 0.9
v 0.4 1.4 0.9
v 0.2 1.4 0.8
v 0.3 1.4 0.8
v 0 1.4 0.7
v 0.1 1.4 0.7
v 0.3 1.4 0.7
v 0.4 1.4 0.7
v 0 1.4 0.6
v 0.1 1.4 0.6
v 0.3 1.4 0.6
v 0.4 1.4 0.6
v 0.1 1.5 1
v 0.3 1.5 1
v 0 1.5 0.9
v 0.1 1.5 0.9
v 0.2 1.5 0.9
v 0.3 1.5 0.9
v 0.4 1.5 0.9
v 0.2 1.5 0.8
v 0.3 1.5 0.8
v 0 1.5 0.7
v 0.1 1.5 0.7
v 0.3 1.5 0.7
v 0.4 1.5 0.7
v 0.1 1.5 0.6
v 0.3 1.5 0.6

# faces
f 3/3/1 2/3/1 1/3/1
f 4/3/1 2/3/1 3/3/1
f 5/3/1 3/3/1 1/3/1
f 6/3/1 2/3/1 4/3/1
f 7/3/1 2/3/1 6/3/1
f 8/3/1 2/3/1 7/3/1
f 9/3/1 5/3/1 1/3/1
f 9/3/1 6/3/1 5/3/1
f 9/3/1 7/3/1 6/3/1
f 10/3/1 7/3/1 9/3/1
f 11/3/1 7/3/1 10/3/1
f 12/3/1 2/3/1 8/3/1
f 13/3/1 2/3/1 12/3/1
f 14/3/1 2/3/1 13/3/1
f 15/3/1 11/3/1 10/3/1
f 15/3/1 13/3/1 12/3/1
f 15/3/1 12/3/1 11/3/1
f 16/3/1 13/3/1 15/3/1
f 19/2/1 18/2/1 17/2/1
f 20/2/1 18/2/1 19/2/1
f 23/2/1 22/2/1 21/2/1
f 24/2/1 22/2/1 23/2/1
f 27/3/1 26/3/1 25/3/1
f 28/3/1 26/3/1 27/3/1
f 33/3/1 30/3/1 29/3/1
f 34/3/1 30/3/1 33/3/1
f 36/1/1 32/1/1 31/1/1
f 37/1/1 32/1/1 36/1/1
f 38/1/1 36/1/1 35/1/1
f 38/1/1 37/1/1 36/1/1
f 39/1/1 37/1/1 38/1/1
f 40/1/1 38/1/1 35/1/1
f 41/1/1 37/1/1 39/1/1
f 42/1/1 40/1/1 35/1/1
f 42/1/1 41/1/1 40/1/1
f 43/1/1 41/1/1 42/1/1
f 44/1/1 37/1/1 41/1/1
f 44/1/1 41/1/1 43/1/1
f 45/1/1 37/1/1 44/1/1
f 46/1/1 44/1/1 43/1/1
f 47/1/1 44/1/1 46/1/1
f 52/3/1 49/3/1 48/3/1
f 53/3/1 49/3/1 52/3/1
f 54/2/1 51/2/1 50/2/1
f 55/2/1 51/2/1 54/2/1
f 58/1/1 57/1/1 56/1/1
f 59/1/1 57/1/1 58/1/1
f 64/1/1 61/1/1 60/1/1
f 65/1/1 61/1/1 64/1/1
f 66/1/1 63/1/1 62/1/1
f 67/1/1 63/1/1 66/1/1
f 70/1/1 69/1/1 68/1/1
f 71/1/1 69/1/1 70/1/1
f 74/1/1 73/1/1 72/1/1
f 75/1/1 73/1/1 74/1/1
f 78/2/1 77/2/1 76/2/1
f 79/2/1 77/2/1 78/2/1
f 82/2/1 81/2/1 80/2/1
f 83/2/1 81/2/1 82/2/1
f 84/3/2 85/3/2 86/3/2
f 86/3/2 85/3/2 87/3/2
f 88/3/2 89/3/2 92/3/2
f 92/3/2 89/3/2 93/3/2
f 90/2/2 91/2/2 94/2/2
f 94/2/2 91/2/2 95/2/2
f 96/3/2 97/3/2 98/3/2
f 98/3/2 97/3/2 99/3/2
f 100/1/2 101/1/2 102/1/2
f 102/1/2 101/1/2 103/1/2
f 104/3/2 105/3/2 106/3/2
f 106/3/2 105/3/2 107/3/2
f 107/3/2 105/3/2 108/3/2
f 108/3/2 105/3/2 109/3/2
f 110/1/2 111/1/2 112/1/2
f 112/1/2 111/1/2 113/1/2
f 114/2/2 115/2/2 116/2/2
f 116/2/2 115/2/2 117/2/2
f 118/1/2 119/1/2 120/1/2
f 120/1/2 119/1/2 121/1/2
f 122/2/2 123/2/2 124/2/2
f 124/2/2 123/2/2 125/2/2
f 126/1/2 127/1/2 128/1/2
f 128/1/2 127/1/2 129/1/2
f 130/1/2 131/1/2 134/1/2
f 134/1/2 131/1/2 135/1/2
f 132/1/2 133/1/2 136/1/2
f 136/1/2 133/1/2 137/1/2
f 138/1/2 139/1/2 140/1/2
f 140/1/2 139/1/2 141/1/2
f 141/1/2 139/1/2 143/1/2
f 143/1/2 139/1/2 144/1/2
f 142/1/2 143/1/2 144/1/2
f 142/1/2 144/1/2 146/1/2
f 144/1/2 145/1/2 146/1/2
f 146/1/2 145/1/2 147/1/2
f 142/1/2 146/1/2 148/1/2
f 147/1/2 145/1/2 149/1/2
f 142/1/2 148/1/2 150/1/2
f 148/1/2 149/1/2 150/1/2
f 150/1/2 149/1/2 151/1/2
f 149/1/2 145/1/2 152/1/2
f 151/1/2 149/1/2 152/1/2
f 152/1/2 145/1/2 153/1/2
f 151/1/2 152/1/2 154/1/2
f 154/1/2 152/1/2 155/1/2
f 156/2/2 157/2/2 158/2/2
f 158/2/2 157/2/2 159/2/2
f 160/2/2 161/2/2 164/2/2
f 164/2/2 161/2/2 165/2/2
f 162/2/2 163/2/2 166/2/2
f 166/2/2 163/2/2 167/2/2
f 168/2/2 169/2/2 170/2/2
f 170/2/2 169/2/2 171/2/2
f 171/2/2 169/2/2 173/2/2
f 173/2/2 169/2/2 174/2/2
f 172/2/2 173/2/2 174/2/2
f 174/2/2 169/2/2 175/2/2
f 175/2/2 169/2/2 176/2/2
f 176/2/2 169/2/2 177/2/2
f 172/2/2 174/2/2 178/2/2
f 178/2/2 174/2/2 179/2/2
f 175/2/2 176/2/2 180/2/2
f 180/2/2 176/2/2 181/2/2
f 184/3/3 183/3/3 182/3/3
f 185/3/3 183/3/3 184/3/3
f 186/3/3 183/3/3 185/3/3
f 188/3/3 184/3/3 182/3/3
f 189/3/3 187/3/3 186/3/3
f 189/3/3 186/3/3 185/3/3
f 190/3/3 187/3/3 189/3/3
f 191/3/3 187/3/3 190/3/3
f 192/3/3 188/3/3 182/3/3
f 192/3/3 189/3/3 188/3/3
f 192/3/3 190/3/3 189/3/3
f 193/3/3 190/3/3 192/3/3
f 198/3/3 195/3/3 194/3/3
f 199/3/3 195/3/3 198/3/3
f 200/2/3 197/2/3 196/2/3
f 201/2/3 197/2/3 200/2/3
f 204/3/3 203/3/3 202/3/3
f 205/3/3 203/3/3 204/3/3
f 208/3/3 207/3/3 206/3/3
f 209/3/3 207/3/3 208/3/3
f 212/1/3 211/1/3 210/1/3
f 213/1/3 211/1/3 212/1/3
f 214/1/3 211/1/3 213/1/3
f 217/1/3 212/1/3 210/1/3
f 218/1/3 212/1/3 217/1/3
f 219/1/3 214/1/3 213/1/3
f 219/1/3 215/1/3 214/1/3
f 220/1/3 218/1/3 217/1/3
f 220/1/3 219/1/3 218/1/3
f 220/1/3 217/1/3 216/1/3
f 221/1/3 219/1/3 220/1/3
f 222/1/3 215/1/3 219/1/3
f 222/1/3 219/1/3 221/1/3
f 223/1/3 215/1/3 222/1/3
f 224/1/3 220/1/3 216/1/3
f 225/1/3 220/1/3 224/1/3
f 226/1/3 222/1/3 221/1/3
f 227/1/3 222/1/3 226/1/3
f 232/1/3 229/1/3 228/1/3
f 233/1/3 229/1/3 232/1/3
f 234/1/3 231/1/3 230/1/3
f 235/1/3 231/1/3 234/1/3
f 240/1/3 237/1/3 236/1/3
f 241/1/3 237/1/3 240/1/3
f 242/1/3 239/1/3 238/1/3
f 243/1/3 239/1/3 242/1/3
f 246/1/3 245/1/3 244/1/3
f 247/1/3 245/1/3 246/1/3
f 252/1/3 249/1/3 248/1/3
f 253/1/3 249/1/3 252/1/3
f 256/1/3 251/1/3 250/1/3
f 257/1/3 251/1/3 256/1/3
f 258/2/3 255/2/3 254/2/3
f 259/2/3 255/2/3 258/2/3
f 260/2/3 258/2/3 254/2/3
f 261/2/3 258/2/3 260/2/3
f 262/2/3 255/2/3 259/2/3
f 263/2/3 255/2/3 262/2/3
f 266/3/3 265/3/3 264/3/3
f 267/3/3 265/3/3 266/3/3
f 270/2/3 269/2/3 268/2/3
f 271/2/3 269/2/3 270/2/3
f 274/3/3 273/3/3 272/3/3
f 275/3/3 273/3/3 274/3/3
f 278/2/3 277/2/3 276/2/3
f 279/2/3 277/2/3 278/2/3
f 280/3/4 281/3/4 282/3/4
f 282/3/4 281/3/4 283/3/4
f 284/1/4 285/1/4 286/1/4
f 286/1/4 285/1/4 287/1/4
f 288/1/4 289/1/4 292/1/4
f 292/1/4 289/1/4 293/1/4
f 290/1/4 291/1/4 294/1/4
f 294/1/4 291/1/4 295/1/4
f 296/3/4 297/3/4 298/3/4
f 298/3/4 297/3/4 299/3/4
f 300/3/4 301/3/4 302/3/4
f 302/3/4 301/3/4 303/3/4
f 304/1/4 305/1/4 306/1/4
f 306/1/4 305/1/4 307/1/4
f 308/1/4 309/1/4 310/1/4
f 310/1/4 309/1/4 311/1/4
f 312/2/4 313/2/4 314/2/4
f 314/2/4 313/2/4 315/2/4
f 316/1/4 317/1/4 318/1/4
f 318/1/4 317/1/4 319/1/4
f 318/1/4 319/1/4 321/1/4
f 319/1/4 320/1/4 321/1/4
f 321/1/4 320/1/4 322/1/4
f 321/2/4 322/2/4 323/2/4
f 322/1/4 320/1/4 324/1/4
f 323/2/4 322/2/4 324/2/4
f 324/1/4 320/1/4 325/1/4
f 325/1/4 320/1/4 326/1/4
f 323/1/4 324/1/4 327/1/4
f 324/1/4 325/1/4 327/1/4
f 327/1/4 325/1/4 328/1/4
f 329/3/4 330/3/4 331/3/4
f 331/3/4 330/3/4 332/3/4
f 333/2/4 334/2/4 335/2/4
f 335/2/4 334/2/4 336/2/4
f 337/2/4 338/2/4 341/2/4
f 341/2/4 338/2/4 342/2/4
f 339/2/4 340/2/4 343/2/4
f 343/2/4 340/2/4 344/2/4
f 345/2/4 346/2/4 347/2/4
f 347/2/4 346/2/4 348/2/4
f 349/3/4 350/3/4 351/3/4
f 351/3/4 350/3/4 352/3/4
f 351/2/4 352/2/4 354/2/4
f 354/2/4 352/2/4 355/2/4
f 352/3/4 353/3/4 356/3/4
f 355/2/4 352/2/4 356/2/4
f 356/3/4 353/3/4 357/3/4
f 351/2/4 354/2/4 358/2/4
f 356/2/4 357/2/4 359/2/4
f 355/2/4 356/2/4 359/2/4
f 351/2/4 358/2/4 360/2/4
f 358/2/4 359/2/4 360/2/4
f 360/2/4 359/2/4 361/2/4
f 359/2/4 357/2/4 362/2/4
f 361/2/4 359/2/4 362/2/4
f 362/2/4 357/2/4 363/2/4
f 361/2/4 362/2/4 365/2/4
f 365/2/4 362/2/4 366/2/4
f 364/2/4 365/2/4 368/2/4
f 366/2/4 367/2/4 368/2/4
f 365/2/4 366/2/4 368/2/4
f 368/2/4 367/2/4 369/2/4
f 364/2/4 368/2/4 370/2/4
f 370/2/4 368/2/4 371/2/4
f 374/3/5 373/3/5 372/3/5
f 375/3/5 373/3/5 374/3/5
f 376/2/5 375/2/5 374/2/5
f 376/3/5 373/3/5 375/3/5
f 377/3/5 373/3/5 376/3/5
f 379/2/5 376/2/5 374/2/5
f 379/2/5 377/2/5 376/2/5
f 380/1/5 378/1/5 377/1/5
f 380/2/5 377/2/5 379/2/5
f 381/1/5 378/1/5 380/1/5
f 383/2/5 379/2/5 374/2/5
f 383/1/5 380/1/5 379/1/5
f 384/2/5 382/2/5 381/2/5
f 384/1/5 380/1/5 383/1/5
f 384/2/5 381/2/5 380/2/5
f 385/2/5 384/2/5 383/2/5
f 385/2/5 382/2/5 384/2/5
f 386/2/5 382/2/5 385/2/5
f 387/3/5 374/3/5 372/3/5
f 388/2/5 383/2/5 374/2/5
f 388/3/5 374/3/5 387/3/5
f 388/2/5 385/2/5 383/2/5
f 389/2/5 385/2/5 388/2/5
f 390/2/5 382/2/5 386/2/5
f 391/2/5 382/2/5 390/2/5
f 394/2/5 393/2/5 392/2/5
f 395/2/5 393/2/5 394/2/5
f 400/3/5 397/3/5 396/3/5
f 401/3/5 397/3/5 400/3/5
f 402/3/5 399/3/5 398/3/5
f 403/3/5 399/3/5 402/3/5
f 406/2/5 405/2/5 404/2/5
f 407/2/5 405/2/5 406/2/5
f 410/2/5 409/2/5 408/2/5
f 411/2/5 409/2/5 410/2/5
f 414/1/5 413/1/5 412/1/5
f 415/1/5 413/1/5 414/1/5
f 418/3/5 417/3/5 416/3/5
f 419/3/5 417/3/5 418/3/5
f 423/1/5 421/1/5 420/1/5
f 424/1/5 421/1/5 423/1/5
f 427/1/5 423/1/5 422/1/5
f 428/1/5 423/1/5 427/1/5
f 429/1/5 426/1/5 425/1/5
f 430/1/5 426/1/5 429/1/5
f 431/3/6 432/3/6 435/3/6
f 435/3/6 432/3/6 436/3/6
f 433/3/6 434/3/6 437/3/6
f 437/3/6 434/3/6 438/3/6
f 439/2/6 440/2/6 441/2/6
f 441/2/6 440/2/6 442/2/6
f 443/2/6 444/2/6 445/2/6
f 445/2/6 444/2/6 446/2/6
f 447/1/6 448/1/6 449/1/6
f 449/1/6 448/1/6 450/1/6
f 451/3/6 452/3/6 453/3/6
f 453/3/6 452/3/6 454/3/6
f 455/3/6 456/3/6 459/3/6
f 459/3/6 456/3/6 460/3/6
f 457/3/6 458/3/6 461/3/6
f 461/3/6 458/3/6 462/3/6
f 463/2/6 464/2/6 467/2/6
f 467/2/6 464/2/6 468/2/6
f 465/2/6 466/2/6 469/2/6
f 469/2/6 466/2/6 470/2/6
f 471/3/6 472/3/6 477/3/6
f 477/3/6 472/3/6 478/3/6
f 473/2/6 474/2/6 479/2/6
f 479/2/6 474/2/6 480/2/6
f 475/2/6 476/2/6 481/2/6
f 481/2/6 476/2/6 482/2/6
f 483/3/6 484/3/6 486/3/6
f 486/3/6 484/3/6 487/3/6
f 485/3/6 486/3/6 489/3/6
f 487/3/6 488/3/6 489/3/6
f 486/3/6 487/3/6 489/3/6
f 489/3/6 488/3/6 490/3/6
f 485/3/6 489/3/6 493/3/6
f 493/3/6 489/3/6 494/3/6
f 491/2/6 492/2/6 495/2/6
f 495/2/6 492/2/6 496/2/6
f 485/3/6 493/3/6 497/3/6
f 491/2/6 495/2/6 502/2/6
f 502/2/6 495/2/6 503/2/6
f 485/3/6 497/3/6 505/3/6
f 497/3/6 498/3/6 505/3/6
f 498/3/6 499/3/6 505/3/6
f 505/3/6 499/3/6 506/3/6
f 506/3/6 499/3/6 507/3/6
f 500/2/6 501/2/6 508/2/6
f 507/3/6 499/3/6 508/3/6
f 503/2/6 504/2/6 508/2/6
f 502/2/6 503/2/6 508/2/6
f 501/2/6 502/2/6 508/2/6
f 499/2/6 500/2/6 508/2/6
f 508/2/6 504/2/6 509/2/6
f 509/2/6 504/2/6 510/2/6
f 510/2/6 504/2/6 511/2/6
f 511/2/6 504/2/6 512/2/6
f 506/3/6 507/3/6 513/3/6
f 507/2/6 508/2/6 514/2/6
f 513/3/6 507/3/6 514/3/6
f 508/2/6 509/2/6 514/2/6
f 514/2/6 509/2/6 515/2/6
f 510/2/6 511/2/6 516/2/6
f 516/2/6 511/2/6 517/2/6
f 518/1/6 519/1/6 521/1/6
f 521/1/6 519/1/6 522/1/6
f 520/1/6 521/1/6 525/1/6
f 525/1/6 521/1/6 526/1/6
f 523/1/6 524/1/6 527/1/6
f 527/1/6 524/1/6 528/1/6
f 529/1/6 530/1/6 533/1/6
f 533/1/6 530/1/6 534/1/6
f 531/1/6 532/1/6 536/1/6
f 536/1/6 532/1/6 537/1/6
f 535/1/6 536/1/6 538/1/6
f 538/1/6 536/1/6 539/1/6
f 540/1/6 541/1/6 544/1/6
f 544/1/6 541/1/6 545/1/6
f 542/1/6 543/1/6 546/1/6
f 546/1/6 543/1/6 547/1/6
f 548/1/6 549/1/6 551/1/6
f 551/1/6 549/1/6 552/1/6
f 552/1/6 549/1/6 553/1/6
f 550/1/6 551/1/6 555/1/6
f 551/1/6 552/1/6 555/1/6
f 553/1/6 554/1/6 556/1/6
f 550/1/6 555/1/6 557/1/6
f 555/1/6 556/1/6 557/1/6
f 557/1/6 556/1/6 558/1/6
f 556/1/6 554/1/6 559/1/6
f 558/1/6 556/1/6 559/1/6
f 559/1/6 554/1/6 560/1/6
f 558/1/6 559/1/6 561/1/6
f 561/1/6 559/1/6 562/1/6
