# MagicaVoxel @ Ephtracy

# group
o Vegetation - Crop - Strawberry

# material
mtllib Medieval Assets-342-Vegetation - Crop - Strawberry.mtl
usemtl palette

# normals
vn -1 0 0
vn 1 0 0
vn 0 0 1
vn 0 0 -1
vn 0 -1 0
vn 0 1 0

# texcoords
vt 0.0488281 0.5
vt 0.0722656 0.5
vt 0.0761719 0.5
vt 0.162109 0.5
vt 0.169922 0.5
vt 0.173828 0.5

# verts
v 3.5 0.9 19.4
v 3.5 0.9 19.3
v 3.5 1 19.5
v 3.5 1 19.4
v 3.5 1.1 19.5
v 3.5 1.1 19.3
v 3.6 0.8 19.5
v 3.6 0.8 19.3
v 3.6 0.9 19.6
v 3.6 0.9 19.5
v 3.6 0.9 19.4
v 3.6 0.9 19.3
v 3.6 0.9 19.2
v 3.6 1 19.5
v 3.6 1 19.4
v 3.6 1.1 19.6
v 3.6 1.1 19.5
v 3.6 1.1 19.3
v 3.6 1.1 19.2
v 3.6 1.2 19.5
v 3.6 1.2 19.3
v 3.7 0.7 19.5
v 3.7 0.7 19.3
v 3.7 0.8 19.5
v 3.7 0.8 19.3
v 3.7 1.2 19.5
v 3.7 1.2 19.3
v 3.7 1.3 19.5
v 3.7 1.3 19.3
v 3.8 0.7 19.6
v 3.8 0.7 19.5
v 3.8 0.7 19.3
v 3.8 0.7 19.2
v 3.8 0.8 19.6
v 3.8 0.8 19.5
v 3.8 0.9 19.7
v 3.8 0.9 19.6
v 3.8 0.9 19.5
v 3.8 0.9 19.3
v 3.8 0.9 19.2
v 3.8 0.9 19.1
v 3.8 1 19.7
v 3.8 1 19.6
v 3.8 1 19.2
v 3.8 1 19.1
v 3.8 1.1 19.7
v 3.8 1.1 19.6
v 3.8 1.1 19.5
v 3.8 1.1 19.3
v 3.8 1.1 19.2
v 3.8 1.1 19.1
v 3.8 1.3 19.6
v 3.8 1.3 19.5
v 3.8 1.3 19.3
v 3.8 1.3 19.2
v 3.9 0.8 19.7
v 3.9 0.8 19.6
v 3.9 0.8 19.2
v 3.9 0.8 19.1
v 3.9 0.9 19.7
v 3.9 0.9 19.6
v 3.9 0.9 19.2
v 3.9 0.9 19.1
v 3.9 1.1 19.7
v 3.9 1.1 19.6
v 3.9 1.1 19.2
v 3.9 1.1 19.1
v 3.9 1.2 19.7
v 3.9 1.2 19.6
v 3.9 1.2 19.2
v 3.9 1.2 19.1
v 4.2 0.7 19.6
v 4.2 0.7 19.5
v 4.2 0.7 19.3
v 4.2 0.7 19.2
v 4.2 0.8 19.7
v 4.2 0.8 19.6
v 4.2 0.8 19.5
v 4.2 0.8 19.3
v 4.2 0.8 19.2
v 4.2 0.8 19.1
v 4.2 0.9 19.7
v 4.2 0.9 19.6
v 4.2 0.9 19.2
v 4.2 0.9 19.1
v 4.2 1.1 19.7
v 4.2 1.1 19.6
v 4.2 1.1 19.2
v 4.2 1.1 19.1
v 4.2 1.2 19.7
v 4.2 1.2 19.6
v 4.2 1.2 19.5
v 4.2 1.2 19.3
v 4.2 1.2 19.2
v 4.2 1.2 19.1
v 4.2 1.3 19.6
v 4.2 1.3 19.5
v 4.2 1.3 19.3
v 4.2 1.3 19.2
v 4.3 0.7 19.5
v 4.3 0.7 19.3
v 4.3 0.8 19.6
v 4.3 0.8 19.5
v 4.3 0.8 19.3
v 4.3 0.8 19.2
v 4.3 0.9 19.7
v 4.3 0.9 19.6
v 4.3 0.9 19.5
v 4.3 0.9 19.3
v 4.3 0.9 19.2
v 4.3 0.9 19.1
v 4.3 1 19.6
v 4.3 1 19.2
v 4.3 1 19.1
v 4.3 1.1 19.7
v 4.3 1.1 19.6
v 4.3 1.1 19.5
v 4.3 1.1 19.3
v 4.3 1.1 19.2
v 4.3 1.1 19.1
v 4.3 1.2 19.6
v 4.3 1.2 19.5
v 4.3 1.2 19.4
v 4.3 1.2 19.3
v 4.3 1.2 19.2
v 4.3 1.3 19.5
v 4.3 1.3 19.4
v 4.3 1.3 19.3
v 4.4 0.8 19.5
v 4.4 0.8 19.3
v 4.4 0.9 19.6
v 4.4 0.9 19.5
v 4.4 0.9 19.3
v 4.4 0.9 19.2
v 4.4 1 19.6
v 4.4 1 19.5
v 4.4 1 19.3
v 4.4 1 19.2
v 4.4 1.1 19.6
v 4.4 1.1 19.5
v 4.4 1.1 19.4
v 4.4 1.1 19.3
v 4.4 1.1 19.2
v 4.4 1.2 19.5
v 4.4 1.2 19.4
v 4.4 1.2 19.3
v 4.5 0.9 19.5
v 4.5 0.9 19.3
v 4.5 1.1 19.5
v 4.5 1.1 19.3
v 3.8 0.9 19.7
v 3.8 1 19.7
v 3.8 1.1 19.7
v 3.9 0.8 19.7
v 3.9 0.9 19.7
v 3.9 1 19.7
v 3.9 1.1 19.7
v 3.9 1.2 19.7
v 4 1 19.7
v 4 1.1 19.7
v 4.1 1.1 19.7
v 4.1 1.2 19.7
v 4.2 0.8 19.7
v 4.2 0.9 19.7
v 4.2 1.1 19.7
v 4.2 1.2 19.7
v 4.3 0.9 19.7
v 4.3 1.1 19.7
v 3.6 0.9 19.6
v 3.6 1.1 19.6
v 3.7 0.9 19.6
v 3.7 1.1 19.6
v 3.8 0.7 19.6
v 3.8 0.8 19.6
v 3.8 0.9 19.6
v 3.8 1 19.6
v 3.8 1.1 19.6
v 3.8 1.3 19.6
v 3.9 0.8 19.6
v 3.9 0.9 19.6
v 3.9 1.1 19.6
v 3.9 1.2 19.6
v 4 0.7 19.6
v 4 0.8 19.6
v 4.1 0.7 19.6
v 4.1 0.8 19.6
v 4.1 1.2 19.6
v 4.1 1.3 19.6
v 4.2 0.7 19.6
v 4.2 0.8 19.6
v 4.2 0.9 19.6
v 4.2 1.1 19.6
v 4.2 1.2 19.6
v 4.2 1.3 19.6
v 4.3 0.8 19.6
v 4.3 0.9 19.6
v 4.3 1 19.6
v 4.3 1.1 19.6
v 4.3 1.2 19.6
v 4.4 0.9 19.6
v 4.4 1 19.6
v 4.4 1.1 19.6
v 3.5 1 19.5
v 3.5 1.1 19.5
v 3.6 0.8 19.5
v 3.6 0.9 19.5
v 3.6 1 19.5
v 3.6 1.1 19.5
v 3.6 1.2 19.5
v 3.7 0.7 19.5
v 3.7 0.8 19.5
v 3.7 0.9 19.5
v 3.7 1.1 19.5
v 3.7 1.2 19.5
v 3.7 1.3 19.5
v 3.8 0.7 19.5
v 3.8 0.8 19.5
v 3.8 0.9 19.5
v 3.8 1.1 19.5
v 3.8 1.3 19.5
v 4.2 0.7 19.5
v 4.2 0.8 19.5
v 4.2 1.2 19.5
v 4.2 1.3 19.5
v 4.3 0.7 19.5
v 4.3 0.8 19.5
v 4.3 0.9 19.5
v 4.3 1.1 19.5
v 4.3 1.2 19.5
v 4.3 1.3 19.5
v 4.4 0.8 19.5
v 4.4 0.9 19.5
v 4.4 1 19.5
v 4.4 1.1 19.5
v 4.4 1.2 19.5
v 4.5 0.9 19.5
v 4.5 1.1 19.5
v 3.5 0.9 19.4
v 3.5 1 19.4
v 3.6 0.9 19.4
v 3.6 1 19.4
v 3.5 0.9 19.3
v 3.5 1.1 19.3
v 3.6 0.8 19.3
v 3.6 0.9 19.3
v 3.6 1.1 19.3
v 3.6 1.2 19.3
v 3.7 0.7 19.3
v 3.7 0.8 19.3
v 3.7 0.9 19.3
v 3.7 1.1 19.3
v 3.7 1.2 19.3
v 3.7 1.3 19.3
v 3.8 0.7 19.3
v 3.8 0.9 19.3
v 3.8 1.1 19.3
v 3.8 1.3 19.3
v 4.2 0.7 19.3
v 4.2 0.8 19.3
v 4.2 1.2 19.3
v 4.2 1.3 19.3
v 4.3 0.7 19.3
v 4.3 0.8 19.3
v 4.3 0.9 19.3
v 4.3 1.1 19.3
v 4.3 1.2 19.3
v 4.3 1.3 19.3
v 4.4 0.8 19.3
v 4.4 0.9 19.3
v 4.4 1 19.3
v 4.4 1.1 19.3
v 4.4 1.2 19.3
v 4.5 0.9 19.3
v 4.5 1.1 19.3
v 3.6 0.9 19.2
v 3.6 1.1 19.2
v 3.7 0.9 19.2
v 3.7 1 19.2
v 3.7 1.1 19.2
v 3.8 0.7 19.2
v 3.8 0.9 19.2
v 3.8 1 19.2
v 3.8 1.1 19.2
v 3.8 1.3 19.2
v 3.9 0.8 19.2
v 3.9 0.9 19.2
v 3.9 1.1 19.2
v 3.9 1.2 19.2
v 4 0.8 19.2
v 4 1.2 19.2
v 4 1.3 19.2
v 4.1 0.7 19.2
v 4.1 0.8 19.2
v 4.2 0.7 19.2
v 4.2 0.8 19.2
v 4.2 0.9 19.2
v 4.2 1.1 19.2
v 4.2 1.2 19.2
v 4.2 1.3 19.2
v 4.3 0.8 19.2
v 4.3 0.9 19.2
v 4.3 1 19.2
v 4.3 1.1 19.2
v 4.3 1.2 19.2
v 4.4 0.9 19.2
v 4.4 1 19.2
v 4.4 1.1 19.2
v 3.8 0.9 19.1
v 3.8 1 19.1
v 3.8 1.1 19.1
v 3.9 0.8 19.1
v 3.9 0.9 19.1
v 3.9 1.1 19.1
v 3.9 1.2 19.1
v 4 0.8 19.1
v 4 0.9 19.1
v 4 1 19.1
v 4 1.2 19.1
v 4.1 0.8 19.1
v 4.1 0.9 19.1
v 4.2 0.8 19.1
v 4.2 0.9 19.1
v 4.2 1.1 19.1
v 4.2 1.2 19.1
v 4.3 0.9 19.1
v 4.3 1 19.1
v 4.3 1.1 19.1
v 3.8 0.7 19.6
v 4 0.7 19.6
v 4.1 0.7 19.6
v 4.2 0.7 19.6
v 3.7 0.7 19.5
v 3.8 0.7 19.5
v 3.9 0.7 19.5
v 4 0.7 19.5
v 4.1 0.7 19.5
v 4.2 0.7 19.5
v 4.3 0.7 19.5
v 3.8 0.7 19.4
v 3.9 0.7 19.4
v 3.7 0.7 19.3
v 3.8 0.7 19.3
v 3.9 0.7 19.3
v 4.1 0.7 19.3
v 4.2 0.7 19.3
v 4.3 0.7 19.3
v 3.8 0.7 19.2
v 4.1 0.7 19.2
v 4.2 0.7 19.2
v 3.9 0.8 19.7
v 4.2 0.8 19.7
v 3.9 0.8 19.6
v 4 0.8 19.6
v 4.1 0.8 19.6
v 4.2 0.8 19.6
v 4.3 0.8 19.6
v 3.6 0.8 19.5
v 3.7 0.8 19.5
v 4.2 0.8 19.5
v 4.3 0.8 19.5
v 4.4 0.8 19.5
v 3.6 0.8 19.3
v 3.7 0.8 19.3
v 4.2 0.8 19.3
v 4.3 0.8 19.3
v 4.4 0.8 19.3
v 3.9 0.8 19.2
v 4 0.8 19.2
v 4.1 0.8 19.2
v 4.2 0.8 19.2
v 4.3 0.8 19.2
v 3.9 0.8 19.1
v 4 0.8 19.1
v 4.1 0.8 19.1
v 4.2 0.8 19.1
v 3.8 0.9 19.7
v 3.9 0.9 19.7
v 4.2 0.9 19.7
v 4.3 0.9 19.7
v 3.6 0.9 19.6
v 3.7 0.9 19.6
v 3.8 0.9 19.6
v 3.9 0.9 19.6
v 4.2 0.9 19.6
v 4.3 0.9 19.6
v 4.4 0.9 19.6
v 3.6 0.9 19.5
v 3.7 0.9 19.5
v 3.8 0.9 19.5
v 4.3 0.9 19.5
v 4.4 0.9 19.5
v 4.5 0.9 19.5
v 3.5 0.9 19.4
v 3.6 0.9 19.4
v 3.5 0.9 19.3
v 3.6 0.9 19.3
v 3.7 0.9 19.3
v 3.8 0.9 19.3
v 4.3 0.9 19.3
v 4.4 0.9 19.3
v 4.5 0.9 19.3
v 3.6 0.9 19.2
v 3.7 0.9 19.2
v 3.8 0.9 19.2
v 3.9 0.9 19.2
v 4.2 0.9 19.2
v 4.3 0.9 19.2
v 4.4 0.9 19.2
v 3.8 0.9 19.1
v 3.9 0.9 19.1
v 4.2 0.9 19.1
v 4.3 0.9 19.1
v 3.5 1 19.5
v 3.6 1 19.5
v 3.5 1 19.4
v 3.6 1 19.4
v 3.8 1.1 19.7
v 3.9 1.1 19.7
v 4.2 1.1 19.7
v 4.3 1.1 19.7
v 3.6 1.1 19.6
v 3.7 1.1 19.6
v 3.8 1.1 19.6
v 3.9 1.1 19.6
v 4.2 1.1 19.6
v 4.3 1.1 19.6
v 4.4 1.1 19.6
v 3.5 1.1 19.5
v 3.6 1.1 19.5
v 3.7 1.1 19.5
v 3.8 1.1 19.5
v 4.3 1.1 19.5
v 4.4 1.1 19.5
v 4.5 1.1 19.5
v 4.4 1.1 19.4
v 3.5 1.1 19.3
v 3.6 1.1 19.3
v 3.7 1.1 19.3
v 3.8 1.1 19.3
v 4.3 1.1 19.3
v 4.4 1.1 19.3
v 4.5 1.1 19.3
v 3.6 1.1 19.2
v 3.7 1.1 19.2
v 3.8 1.1 19.2
v 3.9 1.1 19.2
v 4.2 1.1 19.2
v 4.3 1.1 19.2
v 4.4 1.1 19.2
v 3.8 1.1 19.1
v 3.9 1.1 19.1
v 4.2 1.1 19.1
v 4.3 1.1 19.1
v 3.9 1.2 19.7
v 4.1 1.2 19.7
v 4.2 1.2 19.7
v 3.9 1.2 19.6
v 4.1 1.2 19.6
v 4.2 1.2 19.6
v 4.3 1.2 19.6
v 3.6 1.2 19.5
v 3.7 1.2 19.5
v 4.2 1.2 19.5
v 4.3 1.2 19.5
v 4.4 1.2 19.5
v 4.3 1.2 19.4
v 4.4 1.2 19.4
v 3.6 1.2 19.3
v 3.7 1.2 19.3
v 4.2 1.2 19.3
v 4.3 1.2 19.3
v 4.4 1.2 19.3
v 3.9 1.2 19.2
v 4 1.2 19.2
v 4.2 1.2 19.2
v 4.3 1.2 19.2
v 3.9 1.2 19.1
v 4 1.2 19.1
v 4.2 1.2 19.1
v 3.8 1.3 19.6
v 4.1 1.3 19.6
v 4.2 1.3 19.6
v 3.7 1.3 19.5
v 3.8 1.3 19.5
v 3.9 1.3 19.5
v 4.1 1.3 19.5
v 4.2 1.3 19.5
v 4.3 1.3 19.5
v 3.9 1.3 19.4
v 4 1.3 19.4
v 4.1 1.3 19.4
v 4.2 1.3 19.4
v 4.3 1.3 19.4
v 3.7 1.3 19.3
v 3.8 1.3 19.3
v 3.9 1.3 19.3
v 4 1.3 19.3
v 4.1 1.3 19.3
v 4.2 1.3 19.3
v 4.3 1.3 19.3
v 3.8 1.3 19.2
v 4 1.3 19.2
v 4.2 1.3 19.2

# faces
f 4/5/1 2/5/1 1/5/1
f 5/5/1 4/5/1 3/5/1
f 6/5/1 2/5/1 4/5/1
f 6/5/1 4/5/1 5/5/1
f 10/1/1 8/1/1 7/1/1
f 11/1/1 8/1/1 10/1/1
f 12/1/1 8/1/1 11/1/1
f 14/1/1 10/1/1 9/1/1
f 14/1/1 11/1/1 10/1/1
f 15/1/1 11/1/1 14/1/1
f 16/1/1 14/1/1 9/1/1
f 17/1/1 14/1/1 16/1/1
f 18/1/1 13/1/1 12/1/1
f 19/1/1 13/1/1 18/1/1
f 20/1/1 18/1/1 17/1/1
f 21/1/1 18/1/1 20/1/1
f 24/2/1 23/2/1 22/2/1
f 25/2/1 23/2/1 24/2/1
f 28/3/1 27/3/1 26/3/1
f 29/3/1 27/3/1 28/3/1
f 34/3/1 31/3/1 30/3/1
f 35/3/1 31/3/1 34/3/1
f 37/2/1 35/2/1 34/2/1
f 38/2/1 35/2/1 37/2/1
f 39/3/1 33/3/1 32/3/1
f 40/3/1 33/3/1 39/3/1
f 42/2/1 37/2/1 36/2/1
f 43/2/1 37/2/1 42/2/1
f 44/3/1 41/3/1 40/3/1
f 45/3/1 41/3/1 44/3/1
f 46/3/1 43/3/1 42/3/1
f 47/3/1 43/3/1 46/3/1
f 50/2/1 45/2/1 44/2/1
f 51/2/1 45/2/1 50/2/1
f 52/3/1 48/3/1 47/3/1
f 53/3/1 48/3/1 52/3/1
f 54/2/1 50/2/1 49/2/1
f 55/2/1 50/2/1 54/2/1
f 60/2/1 57/2/1 56/2/1
f 61/2/1 57/2/1 60/2/1
f 62/3/1 59/3/1 58/3/1
f 63/3/1 59/3/1 62/3/1
f 68/3/1 65/3/1 64/3/1
f 69/3/1 65/3/1 68/3/1
f 70/2/1 67/2/1 66/2/1
f 71/2/1 67/2/1 70/2/1
f 72/4/2 73/4/2 77/4/2
f 77/4/2 73/4/2 78/4/2
f 74/2/2 75/2/2 79/2/2
f 79/2/2 75/2/2 80/2/2
f 76/2/2 77/2/2 82/2/2
f 82/2/2 77/2/2 83/2/2
f 80/3/2 81/3/2 84/3/2
f 84/3/2 81/3/2 85/3/2
f 86/2/2 87/2/2 90/2/2
f 90/2/2 87/2/2 91/2/2
f 88/3/2 89/3/2 94/3/2
f 94/3/2 89/3/2 95/3/2
f 91/2/2 92/2/2 96/2/2
f 96/2/2 92/2/2 97/2/2
f 93/3/2 94/3/2 98/3/2
f 98/3/2 94/3/2 99/3/2
f 100/3/2 101/3/2 103/3/2
f 103/3/2 101/3/2 104/3/2
f 102/2/2 103/2/2 107/2/2
f 107/2/2 103/2/2 108/2/2
f 104/2/2 105/2/2 109/2/2
f 109/2/2 105/2/2 110/2/2
f 106/3/2 107/3/2 112/3/2
f 110/2/2 111/2/2 113/2/2
f 113/2/2 111/2/2 114/2/2
f 106/3/2 112/3/2 115/3/2
f 115/3/2 112/3/2 116/3/2
f 113/3/2 114/3/2 119/3/2
f 119/3/2 114/3/2 120/3/2
f 116/2/2 117/2/2 121/2/2
f 121/2/2 117/2/2 122/2/2
f 118/2/2 119/2/2 124/2/2
f 124/2/2 119/2/2 125/2/2
f 122/4/2 123/4/2 126/4/2
f 123/3/2 124/3/2 127/3/2
f 126/4/2 123/4/2 127/4/2
f 127/3/2 124/3/2 128/3/2
f 129/3/2 130/3/2 132/3/2
f 132/3/2 130/3/2 133/3/2
f 131/2/2 132/2/2 135/2/2
f 135/2/2 132/2/2 136/2/2
f 133/2/2 134/2/2 137/2/2
f 137/2/2 134/2/2 138/2/2
f 135/3/2 136/3/2 139/3/2
f 139/3/2 136/3/2 140/3/2
f 137/4/2 138/4/2 142/4/2
f 142/4/2 138/4/2 143/4/2
f 140/3/2 141/3/2 144/3/2
f 141/2/2 142/2/2 145/2/2
f 144/3/2 141/3/2 145/3/2
f 145/2/2 142/2/2 146/2/2
f 147/3/2 148/3/2 149/3/2
f 149/3/2 148/3/2 150/3/2
f 155/2/3 152/2/3 151/2/3
f 156/3/3 153/3/3 152/3/3
f 156/2/3 152/2/3 155/2/3
f 157/3/3 153/3/3 156/3/3
f 159/2/3 155/2/3 154/2/3
f 159/2/3 156/2/3 155/2/3
f 159/4/3 157/4/3 156/4/3
f 160/3/3 158/3/3 157/3/3
f 160/4/3 157/4/3 159/4/3
f 161/2/3 160/2/3 159/2/3
f 161/3/3 158/3/3 160/3/3
f 162/3/3 158/3/3 161/3/3
f 163/2/3 159/2/3 154/2/3
f 163/2/3 161/2/3 159/2/3
f 163/2/3 162/2/3 161/2/3
f 164/2/3 162/2/3 163/2/3
f 165/2/3 162/2/3 164/2/3
f 166/2/3 162/2/3 165/2/3
f 167/3/3 165/3/3 164/3/3
f 168/3/3 165/3/3 167/3/3
f 171/1/3 170/1/3 169/1/3
f 172/1/3 170/1/3 171/1/3
f 175/2/3 172/2/3 171/2/3
f 176/2/3 172/2/3 175/2/3
f 177/2/3 172/2/3 176/2/3
f 179/3/3 174/3/3 173/3/3
f 179/2/3 175/2/3 174/2/3
f 180/2/3 175/2/3 179/2/3
f 181/3/3 178/3/3 177/3/3
f 182/3/3 178/3/3 181/3/3
f 183/3/3 179/3/3 173/3/3
f 184/3/3 179/3/3 183/3/3
f 185/2/3 184/2/3 183/2/3
f 186/2/3 184/2/3 185/2/3
f 187/3/3 178/3/3 182/3/3
f 188/3/3 178/3/3 187/3/3
f 189/4/3 186/4/3 185/4/3
f 190/4/3 186/4/3 189/4/3
f 193/2/3 188/2/3 187/2/3
f 194/2/3 188/2/3 193/2/3
f 195/2/3 191/2/3 190/2/3
f 196/2/3 191/2/3 195/2/3
f 198/2/3 193/2/3 192/2/3
f 199/2/3 193/2/3 198/2/3
f 200/2/3 197/2/3 196/2/3
f 201/3/3 198/3/3 197/3/3
f 201/2/3 197/2/3 200/2/3
f 202/3/3 198/3/3 201/3/3
f 207/5/3 204/5/3 203/5/3
f 208/5/3 204/5/3 207/5/3
f 211/1/3 206/1/3 205/1/3
f 212/1/3 206/1/3 211/1/3
f 213/1/3 209/1/3 208/1/3
f 214/1/3 209/1/3 213/1/3
f 216/2/3 212/2/3 211/2/3
f 216/2/3 211/2/3 210/2/3
f 217/2/3 212/2/3 216/2/3
f 218/2/3 212/2/3 217/2/3
f 219/3/3 215/3/3 214/3/3
f 219/3/3 214/3/3 213/3/3
f 220/3/3 215/3/3 219/3/3
f 225/3/3 222/3/3 221/3/3
f 226/3/3 222/3/3 225/3/3
f 229/4/3 224/4/3 223/4/3
f 230/4/3 224/4/3 229/4/3
f 231/3/3 227/3/3 226/3/3
f 232/3/3 227/3/3 231/3/3
f 234/3/3 229/3/3 228/3/3
f 235/3/3 229/3/3 234/3/3
f 236/3/3 233/3/3 232/3/3
f 236/3/3 234/3/3 233/3/3
f 237/3/3 234/3/3 236/3/3
f 240/5/3 239/5/3 238/5/3
f 241/5/3 239/5/3 240/5/3
f 242/5/4 243/5/4 245/5/4
f 245/5/4 243/5/4 246/5/4
f 244/1/4 245/1/4 249/1/4
f 249/1/4 245/1/4 250/1/4
f 246/1/4 247/1/4 251/1/4
f 251/1/4 247/1/4 252/1/4
f 249/2/4 250/2/4 254/2/4
f 248/2/4 249/2/4 254/2/4
f 254/2/4 250/2/4 255/2/4
f 252/3/4 253/3/4 256/3/4
f 251/3/4 252/3/4 256/3/4
f 256/3/4 253/3/4 257/3/4
f 258/3/4 259/3/4 262/3/4
f 262/3/4 259/3/4 263/3/4
f 260/3/4 261/3/4 266/3/4
f 266/3/4 261/3/4 267/3/4
f 263/3/4 264/3/4 268/3/4
f 268/3/4 264/3/4 269/3/4
f 265/2/4 266/2/4 271/2/4
f 271/2/4 266/2/4 272/2/4
f 269/3/4 270/3/4 273/3/4
f 270/3/4 271/3/4 273/3/4
f 273/3/4 271/3/4 274/3/4
f 275/1/4 276/1/4 277/1/4
f 277/1/4 276/1/4 278/1/4
f 278/1/4 276/1/4 279/1/4
f 277/2/4 278/2/4 281/2/4
f 278/4/4 279/4/4 282/4/4
f 281/2/4 278/2/4 282/2/4
f 282/4/4 279/4/4 283/4/4
f 280/3/4 281/3/4 285/3/4
f 285/3/4 281/3/4 286/3/4
f 283/2/4 284/2/4 287/2/4
f 287/2/4 284/2/4 288/2/4
f 280/3/4 285/3/4 289/3/4
f 288/2/4 284/2/4 290/2/4
f 290/2/4 284/2/4 291/2/4
f 280/3/4 289/3/4 292/3/4
f 292/3/4 289/3/4 293/3/4
f 292/2/4 293/2/4 294/2/4
f 294/2/4 293/2/4 295/2/4
f 290/3/4 291/3/4 298/3/4
f 298/3/4 291/3/4 299/3/4
f 295/2/4 296/2/4 300/2/4
f 300/2/4 296/2/4 301/2/4
f 297/2/4 298/2/4 303/2/4
f 303/2/4 298/2/4 304/2/4
f 301/2/4 302/2/4 305/2/4
f 302/4/4 303/4/4 306/4/4
f 305/2/4 302/2/4 306/2/4
f 306/4/4 303/4/4 307/4/4
f 308/3/4 309/3/4 312/3/4
f 309/2/4 310/2/4 313/2/4
f 311/3/4 312/3/4 315/3/4
f 312/3/4 309/3/4 316/3/4
f 315/3/4 312/3/4 316/3/4
f 313/2/4 314/2/4 317/2/4
f 316/3/4 309/3/4 317/3/4
f 309/2/4 313/2/4 317/2/4
f 317/2/4 314/2/4 318/2/4
f 315/4/4 316/4/4 319/4/4
f 316/2/4 317/2/4 320/2/4
f 319/4/4 316/4/4 320/4/4
f 319/3/4 320/3/4 321/3/4
f 320/2/4 317/2/4 322/2/4
f 321/3/4 320/3/4 322/3/4
f 317/3/4 318/3/4 323/3/4
f 323/3/4 318/3/4 324/3/4
f 322/2/4 317/2/4 325/2/4
f 317/3/4 323/3/4 326/3/4
f 325/2/4 317/2/4 326/2/4
f 326/3/4 323/3/4 327/3/4
f 333/3/5 329/3/5 328/3/5
f 334/3/5 329/3/5 333/3/5
f 335/2/5 330/2/5 329/2/5
f 335/3/5 329/3/5 334/3/5
f 336/4/5 331/4/5 330/4/5
f 336/2/5 330/2/5 335/2/5
f 337/4/5 331/4/5 336/4/5
f 339/4/5 334/4/5 333/4/5
f 339/2/5 333/2/5 332/2/5
f 340/3/5 335/3/5 334/3/5
f 340/4/5 334/4/5 339/4/5
f 340/3/5 338/3/5 337/3/5
f 340/3/5 336/3/5 335/3/5
f 340/3/5 337/3/5 336/3/5
f 341/2/5 339/2/5 332/2/5
f 341/2/5 340/2/5 339/2/5
f 342/2/5 340/2/5 341/2/5
f 343/3/5 338/3/5 340/3/5
f 343/2/5 340/2/5 342/2/5
f 344/3/5 338/3/5 343/3/5
f 345/3/5 338/3/5 344/3/5
f 346/3/5 338/3/5 345/3/5
f 347/3/5 343/3/5 342/3/5
f 347/3/5 344/3/5 343/3/5
f 348/2/5 345/2/5 344/2/5
f 348/3/5 344/3/5 347/3/5
f 349/2/5 345/2/5 348/2/5
f 352/2/5 351/2/5 350/2/5
f 353/2/5 351/2/5 352/2/5
f 354/2/5 351/2/5 353/2/5
f 355/2/5 351/2/5 354/2/5
f 359/2/5 356/2/5 355/2/5
f 360/2/5 356/2/5 359/2/5
f 362/1/5 358/1/5 357/1/5
f 363/1/5 358/1/5 362/1/5
f 365/3/5 361/3/5 360/3/5
f 366/3/5 361/3/5 365/3/5
f 370/2/5 365/2/5 364/2/5
f 371/2/5 365/2/5 370/2/5
f 372/3/5 368/3/5 367/3/5
f 373/4/5 369/4/5 368/4/5
f 373/3/5 368/3/5 372/3/5
f 374/3/5 370/3/5 369/3/5
f 374/4/5 369/4/5 373/4/5
f 375/3/5 370/3/5 374/3/5
f 382/2/5 377/2/5 376/2/5
f 383/2/5 377/2/5 382/2/5
f 384/3/5 379/3/5 378/3/5
f 385/3/5 379/3/5 384/3/5
f 387/1/5 381/1/5 380/1/5
f 388/2/5 382/2/5 381/2/5
f 388/1/5 381/1/5 387/1/5
f 389/2/5 382/2/5 388/2/5
f 390/2/5 386/2/5 385/2/5
f 391/2/5 386/2/5 390/2/5
f 395/5/5 394/5/5 393/5/5
f 396/5/5 394/5/5 395/5/5
f 400/3/5 392/3/5 391/3/5
f 401/3/5 392/3/5 400/3/5
f 402/1/5 397/1/5 396/1/5
f 403/2/5 398/2/5 397/2/5
f 403/1/5 397/1/5 402/1/5
f 404/2/5 398/2/5 403/2/5
f 407/2/5 400/2/5 399/2/5
f 408/2/5 400/2/5 407/2/5
f 409/3/5 405/3/5 404/3/5
f 410/3/5 405/3/5 409/3/5
f 411/2/5 407/2/5 406/2/5
f 412/2/5 407/2/5 411/2/5
f 415/5/5 414/5/5 413/5/5
f 416/5/5 414/5/5 415/5/5
f 417/3/6 418/3/6 423/3/6
f 423/3/6 418/3/6 424/3/6
f 419/3/6 420/3/6 425/3/6
f 425/3/6 420/3/6 426/3/6
f 421/1/6 422/1/6 429/1/6
f 422/2/6 423/2/6 430/2/6
f 429/1/6 422/1/6 430/1/6
f 430/2/6 423/2/6 431/2/6
f 426/3/6 427/3/6 432/3/6
f 432/3/6 427/3/6 433/3/6
f 433/3/6 434/3/6 435/3/6
f 428/5/6 429/5/6 436/5/6
f 436/5/6 429/5/6 437/5/6
f 435/3/6 434/3/6 441/3/6
f 441/3/6 434/3/6 442/3/6
f 437/1/6 438/1/6 443/1/6
f 438/4/6 439/4/6 444/4/6
f 443/1/6 438/1/6 444/1/6
f 444/4/6 439/4/6 445/4/6
f 440/4/6 441/4/6 448/4/6
f 448/4/6 441/4/6 449/4/6
f 445/2/6 446/2/6 450/2/6
f 450/2/6 446/2/6 451/2/6
f 447/3/6 448/3/6 452/3/6
f 452/3/6 448/3/6 453/3/6
f 454/3/6 455/3/6 457/3/6
f 455/2/6 456/2/6 458/2/6
f 457/3/6 455/3/6 458/3/6
f 458/2/6 456/2/6 459/2/6
f 459/2/6 460/2/6 463/2/6
f 463/2/6 460/2/6 464/2/6
f 464/3/6 465/3/6 466/3/6
f 466/3/6 465/3/6 467/3/6
f 461/1/6 462/1/6 468/1/6
f 468/1/6 462/1/6 469/1/6
f 466/2/6 467/2/6 471/2/6
f 471/2/6 467/2/6 472/2/6
f 470/2/6 471/2/6 475/2/6
f 475/2/6 471/2/6 476/2/6
f 473/2/6 474/2/6 477/2/6
f 474/3/6 475/3/6 478/3/6
f 477/2/6 474/2/6 478/2/6
f 478/3/6 475/3/6 479/3/6
f 480/3/6 481/3/6 484/3/6
f 484/3/6 481/3/6 485/3/6
f 481/2/6 482/2/6 486/2/6
f 485/3/6 481/3/6 486/3/6
f 486/2/6 482/2/6 487/2/6
f 484/3/6 485/3/6 489/3/6
f 483/3/6 484/3/6 489/3/6
f 486/2/6 487/2/6 489/2/6
f 485/2/6 486/2/6 489/2/6
f 489/2/6 487/2/6 490/2/6
f 490/2/6 487/2/6 491/2/6
f 487/4/6 488/4/6 492/4/6
f 491/2/6 487/2/6 492/2/6
f 492/4/6 488/4/6 493/4/6
f 483/3/6 489/3/6 494/3/6
f 494/3/6 489/3/6 495/3/6
f 489/4/6 490/4/6 496/4/6
f 495/3/6 489/3/6 496/3/6
f 490/2/6 491/2/6 497/2/6
f 496/4/6 490/4/6 497/4/6
f 491/3/6 492/3/6 498/3/6
f 497/2/6 491/2/6 498/2/6
f 492/3/6 493/3/6 498/3/6
f 498/3/6 493/3/6 499/3/6
f 499/3/6 493/3/6 500/3/6
f 495/2/6 496/2/6 501/2/6
f 496/2/6 497/2/6 501/2/6
f 498/3/6 499/3/6 502/3/6
f 501/2/6 497/2/6 502/2/6
f 497/3/6 498/3/6 502/3/6
f 502/3/6 499/3/6 503/3/6
