# MagicaVoxel @ Ephtracy

# group
o Goblin Village - Poll

# material
mtllib Medieval Assets-174-Goblin Village - Poll.mtl
usemtl palette

# normals
vn -1 0 0
vn 1 0 0
vn 0 0 1
vn 0 0 -1
vn 0 -1 0
vn 0 1 0

# texcoords
vt 0.0761719 0.5
vt 0.0800781 0.5
vt 0.0839844 0.5
vt 0.134766 0.5
vt 0.169922 0.5
vt 0.181641 0.5
vt 0.185547 0.5

# verts
v 11.3 0 -6.5
v 11.3 0 -6.6
v 11.3 0.5 -6.5
v 11.3 0.5 -6.6
v 11.3 0.8 -6.5
v 11.3 0.8 -6.6
v 11.3 0.9 -6.5
v 11.3 0.9 -6.6
v 11.3 1 -6.5
v 11.3 1 -6.6
v 11.3 1.1 -6.5
v 11.3 1.1 -6.6
v 11.3 1.2 -6.5
v 11.3 1.2 -6.6
v 11.3 1.5 -6.5
v 11.3 1.5 -6.6
v 11.3 1.6 -6.5
v 11.3 1.6 -6.6
v 11.3 1.8 -6.5
v 11.3 1.8 -6.6
v 11.3 2.1 -6.5
v 11.3 2.1 -6.6
v 11.3 2.4 -6.5
v 11.3 2.4 -6.6
v 11.3 3.4 -6.5
v 11.3 3.4 -6.6
v 11.3 3.6 -6.5
v 11.3 3.6 -6.6
v 11.3 3.7 -6.5
v 11.3 3.7 -6.6
v 11.3 4 -6.5
v 11.3 4 -6.6
v 11.3 4.1 -6.5
v 11.3 4.1 -6.6
v 11.3 4.3 -6.5
v 11.3 4.3 -6.6
v 11.3 4.4 -6.5
v 11.3 4.4 -6.6
v 11.4 0 -6.4
v 11.4 0 -6.5
v 11.4 0 -6.6
v 11.4 0 -6.7
v 11.4 0.4 -6.4
v 11.4 0.4 -6.5
v 11.4 0.5 -6.4
v 11.4 0.5 -6.5
v 11.4 0.5 -6.6
v 11.4 0.5 -6.7
v 11.4 0.6 -6.4
v 11.4 0.6 -6.5
v 11.4 0.8 -6.5
v 11.4 0.8 -6.6
v 11.4 0.9 -6.5
v 11.4 0.9 -6.6
v 11.4 0.9 -6.7
v 11.4 1 -6.5
v 11.4 1 -6.6
v 11.4 1 -6.7
v 11.4 1.1 -6.5
v 11.4 1.1 -6.6
v 11.4 1.2 -6.5
v 11.4 1.2 -6.6
v 11.4 1.2 -6.7
v 11.4 1.4 -6.6
v 11.4 1.4 -6.7
v 11.4 1.5 -6.4
v 11.4 1.5 -6.5
v 11.4 1.5 -6.6
v 11.4 1.6 -6.5
v 11.4 1.6 -6.6
v 11.4 1.8 -6.4
v 11.4 1.8 -6.5
v 11.4 1.8 -6.6
v 11.4 2 -6.4
v 11.4 2 -6.5
v 11.4 2 -6.6
v 11.4 2 -6.7
v 11.4 2.1 -6.4
v 11.4 2.1 -6.5
v 11.4 2.1 -6.6
v 11.4 2.1 -6.7
v 11.4 2.2 -6.4
v 11.4 2.2 -6.5
v 11.4 2.2 -6.6
v 11.4 2.2 -6.7
v 11.4 2.3 -6.4
v 11.4 2.3 -6.5
v 11.4 2.4 -6.5
v 11.4 2.4 -6.6
v 11.4 3.2 -6.6
v 11.4 3.2 -6.7
v 11.4 3.3 -6.6
v 11.4 3.3 -6.7
v 11.4 3.4 -6.4
v 11.4 3.4 -6.5
v 11.4 3.4 -6.6
v 11.4 3.4 -6.7
v 11.4 3.5 -6.4
v 11.4 3.5 -6.5
v 11.4 3.6 -6.5
v 11.4 3.6 -6.6
v 11.4 3.6 -6.7
v 11.4 3.7 -6.4
v 11.4 3.7 -6.5
v 11.4 3.7 -6.6
v 11.4 3.8 -6.4
v 11.4 3.8 -6.5
v 11.4 3.8 -6.6
v 11.4 3.8 -6.7
v 11.4 3.9 -6.4
v 11.4 3.9 -6.5
v 11.4 3.9 -6.6
v 11.4 3.9 -6.7
v 11.4 4 -6.4
v 11.4 4 -6.5
v 11.4 4 -6.6
v 11.4 4 -6.7
v 11.4 4.1 -6.4
v 11.4 4.1 -6.5
v 11.4 4.1 -6.6
v 11.4 4.1 -6.7
v 11.4 4.2 -6.4
v 11.4 4.2 -6.5
v 11.4 4.2 -6.6
v 11.4 4.2 -6.7
v 11.4 4.3 -6.4
v 11.4 4.3 -6.5
v 11.4 4.3 -6.6
v 11.4 4.3 -6.7
v 11.4 4.4 -6.5
v 11.4 4.4 -6.6
v 11.4 4.5 -6.5
v 11.4 4.5 -6.6
v 11.5 0 -6.4
v 11.5 0 -6.5
v 11.5 0 -6.6
v 11.5 0 -6.7
v 11.5 0.4 -6.4
v 11.5 0.4 -6.5
v 11.5 0.5 -6.4
v 11.5 0.5 -6.5
v 11.5 0.5 -6.6
v 11.5 0.5 -6.7
v 11.5 0.6 -6.4
v 11.5 0.6 -6.5
v 11.5 0.7 -6.5
v 11.5 0.7 -6.6
v 11.5 0.9 -6.5
v 11.5 0.9 -6.6
v 11.5 0.9 -6.7
v 11.5 1 -6.5
v 11.5 1 -6.6
v 11.5 1 -6.7
v 11.5 1.2 -6.6
v 11.5 1.2 -6.7
v 11.5 1.4 -6.5
v 11.5 1.4 -6.6
v 11.5 1.4 -6.7
v 11.5 1.5 -6.4
v 11.5 1.5 -6.5
v 11.5 1.7 -6.5
v 11.5 1.7 -6.6
v 11.5 1.8 -6.4
v 11.5 1.8 -6.5
v 11.5 2 -6.4
v 11.5 2 -6.5
v 11.5 2 -6.6
v 11.5 2 -6.7
v 11.5 2.1 -6.4
v 11.5 2.1 -6.5
v 11.5 2.1 -6.6
v 11.5 2.1 -6.7
v 11.5 2.2 -6.4
v 11.5 2.2 -6.5
v 11.5 2.2 -6.6
v 11.5 2.2 -6.7
v 11.5 2.3 -6.4
v 11.5 2.3 -6.5
v 11.5 2.3 -6.6
v 11.5 3.2 -6.5
v 11.5 3.2 -6.6
v 11.5 3.2 -6.7
v 11.5 3.3 -6.6
v 11.5 3.3 -6.7
v 11.5 3.4 -6.4
v 11.5 3.4 -6.5
v 11.5 3.4 -6.6
v 11.5 3.4 -6.7
v 11.5 3.5 -6.4
v 11.5 3.5 -6.5
v 11.5 3.6 -6.5
v 11.5 3.6 -6.6
v 11.5 3.6 -6.7
v 11.5 3.7 -6.4
v 11.5 3.7 -6.5
v 11.5 3.7 -6.6
v 11.5 3.8 -6.4
v 11.5 3.8 -6.5
v 11.5 3.8 -6.6
v 11.5 3.8 -6.7
v 11.5 3.9 -6.4
v 11.5 3.9 -6.5
v 11.5 3.9 -6.6
v 11.5 3.9 -6.7
v 11.5 4 -6.4
v 11.5 4 -6.5
v 11.5 4 -6.6
v 11.5 4 -6.7
v 11.5 4.1 -6.4
v 11.5 4.1 -6.5
v 11.5 4.1 -6.6
v 11.5 4.1 -6.7
v 11.5 4.2 -6.4
v 11.5 4.2 -6.5
v 11.5 4.2 -6.6
v 11.5 4.2 -6.7
v 11.5 4.3 -6.4
v 11.5 4.3 -6.5
v 11.5 4.3 -6.6
v 11.5 4.3 -6.7
v 11.5 4.4 -6.5
v 11.5 4.4 -6.6
v 11.5 4.5 -6.5
v 11.5 4.5 -6.6
v 11.6 0 -6.5
v 11.6 0 -6.6
v 11.6 0.7 -6.5
v 11.6 0.7 -6.6
v 11.6 0.9 -6.5
v 11.6 0.9 -6.6
v 11.6 1 -6.5
v 11.6 1 -6.6
v 11.6 1.4 -6.5
v 11.6 1.4 -6.6
v 11.6 1.7 -6.5
v 11.6 1.7 -6.6
v 11.6 2 -6.5
v 11.6 2 -6.6
v 11.6 2.1 -6.5
v 11.6 2.1 -6.6
v 11.6 2.3 -6.5
v 11.6 2.3 -6.6
v 11.6 3.2 -6.5
v 11.6 3.2 -6.6
v 11.6 3.4 -6.5
v 11.6 3.4 -6.6
v 11.6 3.6 -6.5
v 11.6 3.6 -6.6
v 11.6 3.7 -6.5
v 11.6 3.7 -6.6
v 11.6 3.8 -6.5
v 11.6 3.8 -6.6
v 11.6 3.9 -6.5
v 11.6 3.9 -6.6
v 11.6 4 -6.5
v 11.6 4 -6.6
v 11.6 4.1 -6.5
v 11.6 4.1 -6.6
v 11.6 4.2 -6.5
v 11.6 4.2 -6.6
v 11.6 4.3 -6.5
v 11.6 4.3 -6.6
v 11.6 4.4 -6.5
v 11.6 4.4 -6.6
v 11.4 0 -6.4
v 11.4 0.4 -6.4
v 11.4 0.5 -6.4
v 11.4 0.6 -6.4
v 11.4 1.5 -6.4
v 11.4 1.8 -6.4
v 11.4 2 -6.4
v 11.4 2.1 -6.4
v 11.4 2.2 -6.4
v 11.4 2.3 -6.4
v 11.4 3.4 -6.4
v 11.4 3.5 -6.4
v 11.4 3.7 -6.4
v 11.4 3.8 -6.4
v 11.4 3.9 -6.4
v 11.4 4 -6.4
v 11.4 4.1 -6.4
v 11.4 4.2 -6.4
v 11.4 4.3 -6.4
v 11.5 0 -6.4
v 11.5 0.4 -6.4
v 11.5 0.5 -6.4
v 11.5 0.6 -6.4
v 11.5 1.5 -6.4
v 11.5 1.8 -6.4
v 11.5 2 -6.4
v 11.5 2.1 -6.4
v 11.5 2.2 -6.4
v 11.5 2.3 -6.4
v 11.5 3.4 -6.4
v 11.5 3.5 -6.4
v 11.5 3.7 -6.4
v 11.5 3.8 -6.4
v 11.5 3.9 -6.4
v 11.5 4 -6.4
v 11.5 4.1 -6.4
v 11.5 4.2 -6.4
v 11.5 4.3 -6.4
v 11.3 0 -6.5
v 11.3 0.5 -6.5
v 11.3 0.8 -6.5
v 11.3 0.9 -6.5
v 11.3 1 -6.5
v 11.3 1.1 -6.5
v 11.3 1.2 -6.5
v 11.3 1.5 -6.5
v 11.3 1.6 -6.5
v 11.3 1.8 -6.5
v 11.3 2.1 -6.5
v 11.3 2.4 -6.5
v 11.3 3.4 -6.5
v 11.3 3.6 -6.5
v 11.3 3.7 -6.5
v 11.3 4 -6.5
v 11.3 4.1 -6.5
v 11.3 4.3 -6.5
v 11.3 4.4 -6.5
v 11.4 0 -6.5
v 11.4 0.4 -6.5
v 11.4 0.5 -6.5
v 11.4 0.6 -6.5
v 11.4 0.8 -6.5
v 11.4 0.9 -6.5
v 11.4 1 -6.5
v 11.4 1.1 -6.5
v 11.4 1.2 -6.5
v 11.4 1.5 -6.5
v 11.4 1.6 -6.5
v 11.4 1.8 -6.5
v 11.4 2 -6.5
v 11.4 2.1 -6.5
v 11.4 2.2 -6.5
v 11.4 2.3 -6.5
v 11.4 2.4 -6.5
v 11.4 3.4 -6.5
v 11.4 3.5 -6.5
v 11.4 3.6 -6.5
v 11.4 3.7 -6.5
v 11.4 3.8 -6.5
v 11.4 3.9 -6.5
v 11.4 4 -6.5
v 11.4 4.1 -6.5
v 11.4 4.2 -6.5
v 11.4 4.3 -6.5
v 11.4 4.4 -6.5
v 11.4 4.5 -6.5
v 11.5 0 -6.5
v 11.5 0.4 -6.5
v 11.5 0.5 -6.5
v 11.5 0.6 -6.5
v 11.5 0.7 -6.5
v 11.5 0.9 -6.5
v 11.5 1 -6.5
v 11.5 1.4 -6.5
v 11.5 1.5 -6.5
v 11.5 1.7 -6.5
v 11.5 1.8 -6.5
v 11.5 2 -6.5
v 11.5 2.1 -6.5
v 11.5 2.2 -6.5
v 11.5 2.3 -6.5
v 11.5 3.2 -6.5
v 11.5 3.4 -6.5
v 11.5 3.5 -6.5
v 11.5 3.6 -6.5
v 11.5 3.7 -6.5
v 11.5 3.8 -6.5
v 11.5 3.9 -6.5
v 11.5 4 -6.5
v 11.5 4.1 -6.5
v 11.5 4.2 -6.5
v 11.5 4.3 -6.5
v 11.5 4.4 -6.5
v 11.5 4.5 -6.5
v 11.6 0 -6.5
v 11.6 0.7 -6.5
v 11.6 0.9 -6.5
v 11.6 1 -6.5
v 11.6 1.4 -6.5
v 11.6 1.7 -6.5
v 11.6 2 -6.5
v 11.6 2.1 -6.5
v 11.6 2.3 -6.5
v 11.6 3.2 -6.5
v 11.6 3.4 -6.5
v 11.6 3.6 -6.5
v 11.6 3.7 -6.5
v 11.6 3.8 -6.5
v 11.6 3.9 -6.5
v 11.6 4 -6.5
v 11.6 4.1 -6.5
v 11.6 4.2 -6.5
v 11.6 4.3 -6.5
v 11.6 4.4 -6.5
v 11.3 0 -6.6
v 11.3 0.5 -6.6
v 11.3 0.8 -6.6
v 11.3 0.9 -6.6
v 11.3 1 -6.6
v 11.3 1.1 -6.6
v 11.3 1.2 -6.6
v 11.3 1.5 -6.6
v 11.3 1.6 -6.6
v 11.3 1.8 -6.6
v 11.3 2.1 -6.6
v 11.3 2.4 -6.6
v 11.3 3.4 -6.6
v 11.3 3.6 -6.6
v 11.3 3.7 -6.6
v 11.3 4 -6.6
v 11.3 4.1 -6.6
v 11.3 4.3 -6.6
v 11.3 4.4 -6.6
v 11.4 0 -6.6
v 11.4 0.5 -6.6
v 11.4 0.8 -6.6
v 11.4 0.9 -6.6
v 11.4 1 -6.6
v 11.4 1.1 -6.6
v 11.4 1.2 -6.6
v 11.4 1.4 -6.6
v 11.4 1.5 -6.6
v 11.4 1.6 -6.6
v 11.4 1.8 -6.6
v 11.4 2 -6.6
v 11.4 2.1 -6.6
v 11.4 2.2 -6.6
v 11.4 2.4 -6.6
v 11.4 3.2 -6.6
v 11.4 3.3 -6.6
v 11.4 3.4 -6.6
v 11.4 3.6 -6.6
v 11.4 3.7 -6.6
v 11.4 3.8 -6.6
v 11.4 3.9 -6.6
v 11.4 4 -6.6
v 11.4 4.1 -6.6
v 11.4 4.2 -6.6
v 11.4 4.3 -6.6
v 11.4 4.4 -6.6
v 11.4 4.5 -6.6
v 11.5 0 -6.6
v 11.5 0.5 -6.6
v 11.5 0.7 -6.6
v 11.5 0.9 -6.6
v 11.5 1 -6.6
v 11.5 1.2 -6.6
v 11.5 1.4 -6.6
v 11.5 1.7 -6.6
v 11.5 2 -6.6
v 11.5 2.1 -6.6
v 11.5 2.2 -6.6
v 11.5 2.3 -6.6
v 11.5 3.2 -6.6
v 11.5 3.3 -6.6
v 11.5 3.4 -6.6
v 11.5 3.6 -6.6
v 11.5 3.7 -6.6
v 11.5 3.8 -6.6
v 11.5 3.9 -6.6
v 11.5 4 -6.6
v 11.5 4.1 -6.6
v 11.5 4.2 -6.6
v 11.5 4.3 -6.6
v 11.5 4.4 -6.6
v 11.5 4.5 -6.6
v 11.6 0 -6.6
v 11.6 0.7 -6.6
v 11.6 0.9 -6.6
v 11.6 1 -6.6
v 11.6 1.4 -6.6
v 11.6 1.7 -6.6
v 11.6 2 -6.6
v 11.6 2.1 -6.6
v 11.6 2.3 -6.6
v 11.6 3.2 -6.6
v 11.6 3.4 -6.6
v 11.6 3.6 -6.6
v 11.6 3.7 -6.6
v 11.6 3.8 -6.6
v 11.6 3.9 -6.6
v 11.6 4 -6.6
v 11.6 4.1 -6.6
v 11.6 4.2 -6.6
v 11.6 4.3 -6.6
v 11.6 4.4 -6.6
v 11.4 0 -6.7
v 11.4 0.5 -6.7
v 11.4 0.9 -6.7
v 11.4 1 -6.7
v 11.4 1.2 -6.7
v 11.4 1.4 -6.7
v 11.4 2 -6.7
v 11.4 2.1 -6.7
v 11.4 2.2 -6.7
v 11.4 3.2 -6.7
v 11.4 3.3 -6.7
v 11.4 3.4 -6.7
v 11.4 3.6 -6.7
v 11.4 3.8 -6.7
v 11.4 3.9 -6.7
v 11.4 4 -6.7
v 11.4 4.1 -6.7
v 11.4 4.2 -6.7
v 11.4 4.3 -6.7
v 11.5 0 -6.7
v 11.5 0.5 -6.7
v 11.5 0.9 -6.7
v 11.5 1 -6.7
v 11.5 1.2 -6.7
v 11.5 1.4 -6.7
v 11.5 2 -6.7
v 11.5 2.1 -6.7
v 11.5 2.2 -6.7
v 11.5 3.2 -6.7
v 11.5 3.3 -6.7
v 11.5 3.4 -6.7
v 11.5 3.6 -6.7
v 11.5 3.8 -6.7
v 11.5 3.9 -6.7
v 11.5 4 -6.7
v 11.5 4.1 -6.7
v 11.5 4.2 -6.7
v 11.5 4.3 -6.7
v 11.4 0 -6.4
v 11.5 0 -6.4
v 11.3 0 -6.5
v 11.4 0 -6.5
v 11.5 0 -6.5
v 11.6 0 -6.5
v 11.3 0 -6.6
v 11.4 0 -6.6
v 11.5 0 -6.6
v 11.6 0 -6.6
v 11.4 0 -6.7
v 11.5 0 -6.7
v 11.4 4.3 -6.4
v 11.5 4.3 -6.4
v 11.4 4.3 -6.5
v 11.5 4.3 -6.5
v 11.4 4.3 -6.6
v 11.5 4.3 -6.6
v 11.4 4.3 -6.7
v 11.5 4.3 -6.7
v 11.3 4.4 -6.5
v 11.4 4.4 -6.5
v 11.5 4.4 -6.5
v 11.6 4.4 -6.5
v 11.3 4.4 -6.6
v 11.4 4.4 -6.6
v 11.5 4.4 -6.6
v 11.6 4.4 -6.6
v 11.4 4.5 -6.5
v 11.5 4.5 -6.5
v 11.4 4.5 -6.6
v 11.5 4.5 -6.6

# faces
f 3/5/1 2/5/1 1/5/1
f 4/5/1 2/5/1 3/5/1
f 5/7/1 4/7/1 3/7/1
f 6/7/1 4/7/1 5/7/1
f 7/5/1 6/5/1 5/5/1
f 8/5/1 6/5/1 7/5/1
f 9/6/1 8/6/1 7/6/1
f 10/6/1 8/6/1 9/6/1
f 11/7/1 10/7/1 9/7/1
f 12/7/1 10/7/1 11/7/1
f 13/6/1 12/6/1 11/6/1
f 14/6/1 12/6/1 13/6/1
f 15/7/1 14/7/1 13/7/1
f 16/7/1 14/7/1 15/7/1
f 17/6/1 16/6/1 15/6/1
f 18/6/1 16/6/1 17/6/1
f 19/7/1 18/7/1 17/7/1
f 20/7/1 18/7/1 19/7/1
f 21/6/1 20/6/1 19/6/1
f 22/6/1 20/6/1 21/6/1
f 23/7/1 22/7/1 21/7/1
f 24/7/1 22/7/1 23/7/1
f 25/5/1 24/5/1 23/5/1
f 26/5/1 24/5/1 25/5/1
f 27/1/1 26/1/1 25/1/1
f 28/1/1 26/1/1 27/1/1
f 29/3/1 28/3/1 27/3/1
f 30/3/1 28/3/1 29/3/1
f 31/5/1 30/5/1 29/5/1
f 32/5/1 30/5/1 31/5/1
f 33/1/1 32/1/1 31/1/1
f 34/1/1 32/1/1 33/1/1
f 35/4/1 34/4/1 33/4/1
f 36/4/1 34/4/1 35/4/1
f 37/2/1 36/2/1 35/2/1
f 38/2/1 36/2/1 37/2/1
f 43/5/1 40/5/1 39/5/1
f 44/5/1 40/5/1 43/5/1
f 45/7/1 44/7/1 43/7/1
f 46/7/1 44/7/1 45/7/1
f 47/5/1 42/5/1 41/5/1
f 48/5/1 42/5/1 47/5/1
f 49/5/1 46/5/1 45/5/1
f 50/5/1 46/5/1 49/5/1
f 51/7/1 50/7/1 49/7/1
f 52/7/1 48/7/1 47/7/1
f 53/7/1 51/7/1 49/7/1
f 54/7/1 48/7/1 52/7/1
f 55/7/1 48/7/1 54/7/1
f 56/7/1 53/7/1 49/7/1
f 57/6/1 55/6/1 54/6/1
f 58/6/1 55/6/1 57/6/1
f 59/7/1 56/7/1 49/7/1
f 60/7/1 58/7/1 57/7/1
f 61/7/1 59/7/1 49/7/1
f 62/7/1 58/7/1 60/7/1
f 63/7/1 58/7/1 62/7/1
f 64/6/1 63/6/1 62/6/1
f 65/6/1 63/6/1 64/6/1
f 66/7/1 61/7/1 49/7/1
f 67/7/1 61/7/1 66/7/1
f 68/7/1 65/7/1 64/7/1
f 69/6/1 67/6/1 66/6/1
f 70/7/1 65/7/1 68/7/1
f 71/6/1 69/6/1 66/6/1
f 72/6/1 69/6/1 71/6/1
f 73/7/1 65/7/1 70/7/1
f 74/7/1 72/7/1 71/7/1
f 75/7/1 72/7/1 74/7/1
f 76/7/1 65/7/1 73/7/1
f 77/7/1 65/7/1 76/7/1
f 78/6/1 75/6/1 74/6/1
f 79/6/1 75/6/1 78/6/1
f 80/6/1 77/6/1 76/6/1
f 81/6/1 77/6/1 80/6/1
f 82/5/1 79/5/1 78/5/1
f 83/5/1 79/5/1 82/5/1
f 84/7/1 81/7/1 80/7/1
f 85/7/1 81/7/1 84/7/1
f 86/7/1 83/7/1 82/7/1
f 87/7/1 83/7/1 86/7/1
f 88/5/1 87/5/1 86/5/1
f 89/5/1 85/5/1 84/5/1
f 90/5/1 85/5/1 89/5/1
f 91/5/1 85/5/1 90/5/1
f 92/3/1 91/3/1 90/3/1
f 93/3/1 91/3/1 92/3/1
f 94/5/1 88/5/1 86/5/1
f 95/5/1 88/5/1 94/5/1
f 96/1/1 93/1/1 92/1/1
f 97/1/1 93/1/1 96/1/1
f 98/2/1 95/2/1 94/2/1
f 99/2/1 95/2/1 98/2/1
f 100/5/1 99/5/1 98/5/1
f 101/5/1 97/5/1 96/5/1
f 102/5/1 97/5/1 101/5/1
f 103/5/1 100/5/1 98/5/1
f 104/5/1 100/5/1 103/5/1
f 105/3/1 102/3/1 101/3/1
f 106/1/1 104/1/1 103/1/1
f 107/1/1 104/1/1 106/1/1
f 108/3/1 102/3/1 105/3/1
f 109/3/1 102/3/1 108/3/1
f 110/3/1 107/3/1 106/3/1
f 111/3/1 107/3/1 110/3/1
f 112/1/1 109/1/1 108/1/1
f 113/1/1 109/1/1 112/1/1
f 114/5/1 111/5/1 110/5/1
f 115/5/1 111/5/1 114/5/1
f 116/2/1 113/2/1 112/2/1
f 117/2/1 113/2/1 116/2/1
f 118/4/1 115/4/1 114/4/1
f 119/4/1 115/4/1 118/4/1
f 120/4/1 117/4/1 116/4/1
f 121/4/1 117/4/1 120/4/1
f 122/2/1 119/2/1 118/2/1
f 123/2/1 119/2/1 122/2/1
f 124/2/1 121/2/1 120/2/1
f 125/2/1 121/2/1 124/2/1
f 126/4/1 123/4/1 122/4/1
f 127/4/1 123/4/1 126/4/1
f 128/4/1 125/4/1 124/4/1
f 129/4/1 125/4/1 128/4/1
f 132/1/1 131/1/1 130/1/1
f 133/1/1 131/1/1 132/1/1
f 134/5/2 135/5/2 138/5/2
f 138/5/2 135/5/2 139/5/2
f 138/7/2 139/7/2 140/7/2
f 140/7/2 139/7/2 141/7/2
f 136/5/2 137/5/2 142/5/2
f 142/5/2 137/5/2 143/5/2
f 140/5/2 141/5/2 144/5/2
f 144/5/2 141/5/2 145/5/2
f 144/7/2 145/7/2 146/7/2
f 142/7/2 143/7/2 147/7/2
f 144/7/2 146/7/2 148/7/2
f 147/7/2 143/7/2 149/7/2
f 149/7/2 143/7/2 150/7/2
f 144/7/2 148/7/2 151/7/2
f 149/6/2 150/6/2 152/6/2
f 152/6/2 150/6/2 153/6/2
f 152/7/2 153/7/2 154/7/2
f 154/7/2 153/7/2 155/7/2
f 144/7/2 151/7/2 156/7/2
f 154/6/2 155/6/2 157/6/2
f 157/6/2 155/6/2 158/6/2
f 144/7/2 156/7/2 159/7/2
f 159/7/2 156/7/2 160/7/2
f 159/6/2 160/6/2 161/6/2
f 157/7/2 158/7/2 162/7/2
f 159/6/2 161/6/2 163/6/2
f 163/6/2 161/6/2 164/6/2
f 163/7/2 164/7/2 165/7/2
f 165/7/2 164/7/2 166/7/2
f 162/7/2 158/7/2 167/7/2
f 167/7/2 158/7/2 168/7/2
f 165/6/2 166/6/2 169/6/2
f 169/6/2 166/6/2 170/6/2
f 167/6/2 168/6/2 171/6/2
f 171/6/2 168/6/2 172/6/2
f 169/5/2 170/5/2 173/5/2
f 173/5/2 170/5/2 174/5/2
f 171/7/2 172/7/2 175/7/2
f 175/7/2 172/7/2 176/7/2
f 173/7/2 174/7/2 177/7/2
f 177/7/2 174/7/2 178/7/2
f 175/5/2 176/5/2 179/5/2
f 177/5/2 178/5/2 180/5/2
f 179/5/2 176/5/2 181/5/2
f 181/5/2 176/5/2 182/5/2
f 181/3/2 182/3/2 183/3/2
f 183/3/2 182/3/2 184/3/2
f 177/5/2 180/5/2 185/5/2
f 185/5/2 180/5/2 186/5/2
f 183/1/2 184/1/2 187/1/2
f 187/1/2 184/1/2 188/1/2
f 185/2/2 186/2/2 189/2/2
f 189/2/2 186/2/2 190/2/2
f 189/5/2 190/5/2 191/5/2
f 187/5/2 188/5/2 192/5/2
f 192/5/2 188/5/2 193/5/2
f 189/5/2 191/5/2 194/5/2
f 194/5/2 191/5/2 195/5/2
f 192/3/2 193/3/2 196/3/2
f 194/1/2 195/1/2 197/1/2
f 197/1/2 195/1/2 198/1/2
f 196/3/2 193/3/2 199/3/2
f 199/3/2 193/3/2 200/3/2
f 197/3/2 198/3/2 201/3/2
f 201/3/2 198/3/2 202/3/2
f 199/1/2 200/1/2 203/1/2
f 203/1/2 200/1/2 204/1/2
f 201/5/2 202/5/2 205/5/2
f 205/5/2 202/5/2 206/5/2
f 203/2/2 204/2/2 207/2/2
f 207/2/2 204/2/2 208/2/2
f 205/4/2 206/4/2 209/4/2
f 209/4/2 206/4/2 210/4/2
f 207/4/2 208/4/2 211/4/2
f 211/4/2 208/4/2 212/4/2
f 209/2/2 210/2/2 213/2/2
f 213/2/2 210/2/2 214/2/2
f 211/2/2 212/2/2 215/2/2
f 215/2/2 212/2/2 216/2/2
f 213/4/2 214/4/2 217/4/2
f 217/4/2 214/4/2 218/4/2
f 215/4/2 216/4/2 219/4/2
f 219/4/2 216/4/2 220/4/2
f 221/1/2 222/1/2 223/1/2
f 223/1/2 222/1/2 224/1/2
f 225/5/2 226/5/2 227/5/2
f 227/5/2 226/5/2 228/5/2
f 227/7/2 228/7/2 229/7/2
f 229/7/2 228/7/2 230/7/2
f 229/6/2 230/6/2 231/6/2
f 231/6/2 230/6/2 232/6/2
f 231/7/2 232/7/2 233/7/2
f 233/7/2 232/7/2 234/7/2
f 233/6/2 234/6/2 235/6/2
f 235/6/2 234/6/2 236/6/2
f 235/7/2 236/7/2 237/7/2
f 237/7/2 236/7/2 238/7/2
f 237/6/2 238/6/2 239/6/2
f 239/6/2 238/6/2 240/6/2
f 239/7/2 240/7/2 241/7/2
f 241/7/2 240/7/2 242/7/2
f 241/5/2 242/5/2 243/5/2
f 243/5/2 242/5/2 244/5/2
f 243/3/2 244/3/2 245/3/2
f 245/3/2 244/3/2 246/3/2
f 245/1/2 246/1/2 247/1/2
f 247/1/2 246/1/2 248/1/2
f 247/3/2 248/3/2 249/3/2
f 249/3/2 248/3/2 250/3/2
f 249/5/2 250/5/2 251/5/2
f 251/5/2 250/5/2 252/5/2
f 251/1/2 252/1/2 253/1/2
f 253/1/2 252/1/2 254/1/2
f 253/2/2 254/2/2 255/2/2
f 255/2/2 254/2/2 256/2/2
f 255/5/2 256/5/2 257/5/2
f 257/5/2 256/5/2 258/5/2
f 257/4/2 258/4/2 259/4/2
f 259/4/2 258/4/2 260/4/2
f 259/2/2 260/2/2 261/2/2
f 261/2/2 260/2/2 262/2/2
f 261/4/2 262/4/2 263/4/2
f 263/4/2 262/4/2 264/4/2
f 284/5/3 266/5/3 265/5/3
f 285/7/3 267/7/3 266/7/3
f 285/5/3 266/5/3 284/5/3
f 286/5/3 268/5/3 267/5/3
f 286/7/3 267/7/3 285/7/3
f 287/7/3 269/7/3 268/7/3
f 287/5/3 268/5/3 286/5/3
f 288/6/3 270/6/3 269/6/3
f 288/7/3 269/7/3 287/7/3
f 289/7/3 271/7/3 270/7/3
f 289/6/3 270/6/3 288/6/3
f 290/6/3 272/6/3 271/6/3
f 290/7/3 271/7/3 289/7/3
f 291/5/3 273/5/3 272/5/3
f 291/6/3 272/6/3 290/6/3
f 292/7/3 274/7/3 273/7/3
f 292/5/3 273/5/3 291/5/3
f 293/5/3 275/5/3 274/5/3
f 293/7/3 274/7/3 292/7/3
f 294/2/3 276/2/3 275/2/3
f 294/5/3 275/5/3 293/5/3
f 295/5/3 277/5/3 276/5/3
f 295/2/3 276/2/3 294/2/3
f 296/1/3 278/1/3 277/1/3
f 296/5/3 277/5/3 295/5/3
f 297/3/3 279/3/3 278/3/3
f 297/1/3 278/1/3 296/1/3
f 298/5/3 280/5/3 279/5/3
f 298/3/3 279/3/3 297/3/3
f 299/4/3 281/4/3 280/4/3
f 299/5/3 280/5/3 298/5/3
f 300/2/3 282/2/3 281/2/3
f 300/4/3 281/4/3 299/4/3
f 301/4/3 283/4/3 282/4/3
f 301/2/3 282/2/3 300/2/3
f 302/4/3 283/4/3 301/4/3
f 322/5/3 304/5/3 303/5/3
f 323/5/3 304/5/3 322/5/3
f 324/7/3 305/7/3 304/7/3
f 324/5/3 304/5/3 323/5/3
f 325/7/3 305/7/3 324/7/3
f 326/5/3 306/5/3 305/5/3
f 326/7/3 305/7/3 325/7/3
f 327/6/3 307/6/3 306/6/3
f 327/5/3 306/5/3 326/5/3
f 328/7/3 308/7/3 307/7/3
f 328/6/3 307/6/3 327/6/3
f 329/6/3 309/6/3 308/6/3
f 329/7/3 308/7/3 328/7/3
f 330/7/3 310/7/3 309/7/3
f 330/6/3 309/6/3 329/6/3
f 331/6/3 311/6/3 310/6/3
f 331/7/3 310/7/3 330/7/3
f 332/7/3 312/7/3 311/7/3
f 332/6/3 311/6/3 331/6/3
f 333/6/3 313/6/3 312/6/3
f 333/7/3 312/7/3 332/7/3
f 334/6/3 313/6/3 333/6/3
f 335/7/3 314/7/3 313/7/3
f 335/6/3 313/6/3 334/6/3
f 336/7/3 314/7/3 335/7/3
f 337/7/3 314/7/3 336/7/3
f 338/5/3 315/5/3 314/5/3
f 338/7/3 314/7/3 337/7/3
f 339/1/3 316/1/3 315/1/3
f 339/5/3 315/5/3 338/5/3
f 340/1/3 316/1/3 339/1/3
f 341/3/3 317/3/3 316/3/3
f 341/1/3 316/1/3 340/1/3
f 342/5/3 318/5/3 317/5/3
f 342/3/3 317/3/3 341/3/3
f 343/5/3 318/5/3 342/5/3
f 344/5/3 318/5/3 343/5/3
f 345/1/3 319/1/3 318/1/3
f 345/5/3 318/5/3 344/5/3
f 346/4/3 320/4/3 319/4/3
f 346/1/3 319/1/3 345/1/3
f 347/4/3 320/4/3 346/4/3
f 348/2/3 321/2/3 320/2/3
f 348/4/3 320/4/3 347/4/3
f 349/2/3 321/2/3 348/2/3
f 376/1/3 350/1/3 349/1/3
f 376/1/3 349/1/3 348/1/3
f 377/1/3 350/1/3 376/1/3
f 378/1/3 350/1/3 377/1/3
f 379/5/3 352/5/3 351/5/3
f 379/5/3 353/5/3 352/5/3
f 379/5/3 354/5/3 353/5/3
f 379/5/3 355/5/3 354/5/3
f 380/7/3 356/7/3 355/7/3
f 380/5/3 355/5/3 379/5/3
f 381/6/3 357/6/3 356/6/3
f 381/7/3 356/7/3 380/7/3
f 382/7/3 358/7/3 357/7/3
f 382/6/3 357/6/3 381/6/3
f 383/6/3 359/6/3 358/6/3
f 383/7/3 358/7/3 382/7/3
f 383/6/3 360/6/3 359/6/3
f 384/7/3 361/7/3 360/7/3
f 384/6/3 360/6/3 383/6/3
f 384/7/3 362/7/3 361/7/3
f 385/6/3 363/6/3 362/6/3
f 385/7/3 362/7/3 384/7/3
f 386/7/3 364/7/3 363/7/3
f 386/6/3 363/6/3 385/6/3
f 386/7/3 365/7/3 364/7/3
f 387/5/3 366/5/3 365/5/3
f 387/7/3 365/7/3 386/7/3
f 388/3/3 367/3/3 366/3/3
f 388/5/3 366/5/3 387/5/3
f 389/1/3 368/1/3 367/1/3
f 389/3/3 367/3/3 388/3/3
f 389/1/3 369/1/3 368/1/3
f 390/3/3 370/3/3 369/3/3
f 390/1/3 369/1/3 389/1/3
f 391/5/3 371/5/3 370/5/3
f 391/3/3 370/3/3 390/3/3
f 392/1/3 372/1/3 371/1/3
f 392/5/3 371/5/3 391/5/3
f 393/2/3 373/2/3 372/2/3
f 393/1/3 372/1/3 392/1/3
f 394/5/3 374/5/3 373/5/3
f 394/2/3 373/2/3 393/2/3
f 395/4/3 375/4/3 374/4/3
f 395/5/3 374/5/3 394/5/3
f 396/2/3 376/2/3 375/2/3
f 396/4/3 375/4/3 395/4/3
f 397/4/3 377/4/3 376/4/3
f 397/2/3 376/2/3 396/2/3
f 398/4/3 377/4/3 397/4/3
f 399/5/4 400/5/4 418/5/4
f 400/7/4 401/7/4 419/7/4
f 418/5/4 400/5/4 419/5/4
f 401/5/4 402/5/4 420/5/4
f 419/7/4 401/7/4 420/7/4
f 402/6/4 403/6/4 421/6/4
f 420/5/4 402/5/4 421/5/4
f 403/7/4 404/7/4 422/7/4
f 421/6/4 403/6/4 422/6/4
f 404/6/4 405/6/4 423/6/4
f 422/7/4 404/7/4 423/7/4
f 405/7/4 406/7/4 424/7/4
f 423/6/4 405/6/4 424/6/4
f 424/7/4 406/7/4 425/7/4
f 406/6/4 407/6/4 426/6/4
f 425/7/4 406/7/4 426/7/4
f 407/7/4 408/7/4 427/7/4
f 426/6/4 407/6/4 427/6/4
f 408/6/4 409/6/4 428/6/4
f 427/7/4 408/7/4 428/7/4
f 428/6/4 409/6/4 429/6/4
f 409/7/4 410/7/4 430/7/4
f 429/6/4 409/6/4 430/6/4
f 430/7/4 410/7/4 431/7/4
f 410/5/4 411/5/4 432/5/4
f 431/7/4 410/7/4 432/7/4
f 432/5/4 411/5/4 433/5/4
f 433/5/4 411/5/4 434/5/4
f 411/1/4 412/1/4 435/1/4
f 434/5/4 411/5/4 435/5/4
f 412/3/4 413/3/4 436/3/4
f 435/1/4 412/1/4 436/1/4
f 413/5/4 414/5/4 437/5/4
f 436/3/4 413/3/4 437/3/4
f 437/5/4 414/5/4 438/5/4
f 438/5/4 414/5/4 439/5/4
f 414/1/4 415/1/4 440/1/4
f 439/5/4 414/5/4 440/5/4
f 415/4/4 416/4/4 441/4/4
f 440/1/4 415/1/4 441/1/4
f 441/4/4 416/4/4 442/4/4
f 416/2/4 417/2/4 443/2/4
f 442/4/4 416/4/4 443/4/4
f 443/2/4 417/2/4 444/2/4
f 444/1/4 445/1/4 468/1/4
f 443/1/4 444/1/4 468/1/4
f 468/1/4 445/1/4 469/1/4
f 469/1/4 445/1/4 470/1/4
f 446/5/4 447/5/4 471/5/4
f 447/5/4 448/5/4 471/5/4
f 448/7/4 449/7/4 472/7/4
f 471/5/4 448/5/4 472/5/4
f 449/6/4 450/6/4 473/6/4
f 472/7/4 449/7/4 473/7/4
f 450/7/4 451/7/4 474/7/4
f 473/6/4 450/6/4 474/6/4
f 451/7/4 452/7/4 474/7/4
f 452/6/4 453/6/4 475/6/4
f 474/7/4 452/7/4 475/7/4
f 453/7/4 454/7/4 476/7/4
f 475/6/4 453/6/4 476/6/4
f 454/6/4 455/6/4 477/6/4
f 476/7/4 454/7/4 477/7/4
f 455/7/4 456/7/4 478/7/4
f 477/6/4 455/6/4 478/6/4
f 456/7/4 457/7/4 478/7/4
f 457/5/4 458/5/4 479/5/4
f 478/7/4 457/7/4 479/7/4
f 458/3/4 459/3/4 480/3/4
f 479/5/4 458/5/4 480/5/4
f 459/3/4 460/3/4 480/3/4
f 460/1/4 461/1/4 481/1/4
f 480/3/4 460/3/4 481/3/4
f 461/3/4 462/3/4 482/3/4
f 481/1/4 461/1/4 482/1/4
f 462/5/4 463/5/4 483/5/4
f 482/3/4 462/3/4 483/3/4
f 463/1/4 464/1/4 484/1/4
f 483/5/4 463/5/4 484/5/4
f 464/2/4 465/2/4 485/2/4
f 484/1/4 464/1/4 485/1/4
f 465/5/4 466/5/4 486/5/4
f 485/2/4 465/2/4 486/2/4
f 466/4/4 467/4/4 487/4/4
f 486/5/4 466/5/4 487/5/4
f 467/2/4 468/2/4 488/2/4
f 487/4/4 467/4/4 488/4/4
f 468/4/4 469/4/4 489/4/4
f 488/2/4 468/2/4 489/2/4
f 489/4/4 469/4/4 490/4/4
f 491/5/4 492/5/4 510/5/4
f 492/7/4 493/7/4 511/7/4
f 510/5/4 492/5/4 511/5/4
f 493/6/4 494/6/4 512/6/4
f 511/7/4 493/7/4 512/7/4
f 494/7/4 495/7/4 513/7/4
f 512/6/4 494/6/4 513/6/4
f 495/6/4 496/6/4 514/6/4
f 513/7/4 495/7/4 514/7/4
f 496/7/4 497/7/4 515/7/4
f 514/6/4 496/6/4 515/6/4
f 497/6/4 498/6/4 516/6/4
f 515/7/4 497/7/4 516/7/4
f 498/7/4 499/7/4 517/7/4
f 516/6/4 498/6/4 517/6/4
f 499/5/4 500/5/4 518/5/4
f 517/7/4 499/7/4 518/7/4
f 500/3/4 501/3/4 519/3/4
f 518/5/4 500/5/4 519/5/4
f 501/1/4 502/1/4 520/1/4
f 519/3/4 501/3/4 520/3/4
f 502/5/4 503/5/4 521/5/4
f 520/1/4 502/1/4 521/1/4
f 503/3/4 504/3/4 522/3/4
f 521/5/4 503/5/4 522/5/4
f 504/1/4 505/1/4 523/1/4
f 522/3/4 504/3/4 523/3/4
f 505/2/4 506/2/4 524/2/4
f 523/1/4 505/1/4 524/1/4
f 506/4/4 507/4/4 525/4/4
f 524/2/4 506/2/4 525/2/4
f 507/2/4 508/2/4 526/2/4
f 525/4/4 507/4/4 526/4/4
f 508/4/4 509/4/4 527/4/4
f 526/2/4 508/2/4 527/2/4
f 527/4/4 509/4/4 528/4/4
f 532/5/5 530/5/5 529/5/5
f 533/5/5 530/5/5 532/5/5
f 535/5/5 532/5/5 531/5/5
f 535/5/5 534/5/5 533/5/5
f 535/5/5 533/5/5 532/5/5
f 536/5/5 534/5/5 535/5/5
f 537/5/5 534/5/5 536/5/5
f 538/5/5 534/5/5 537/5/5
f 539/5/5 537/5/5 536/5/5
f 540/5/5 537/5/5 539/5/5
f 541/4/6 542/4/6 543/4/6
f 543/4/6 542/4/6 544/4/6
f 545/4/6 546/4/6 547/4/6
f 547/4/6 546/4/6 548/4/6
f 549/2/6 550/2/6 553/2/6
f 553/2/6 550/2/6 554/2/6
f 551/4/6 552/4/6 555/4/6
f 555/4/6 552/4/6 556/4/6
f 557/1/6 558/1/6 559/1/6
f 559/1/6 558/1/6 560/1/6
