# MagicaVoxel @ Ephtracy

# group
o Vegetation - Shrub - Desert Plant

# material
mtllib Medieval Assets-340-Vegetation - Shrub - Desert Plant.mtl
usemtl palette

# normals
vn -1 0 0
vn 1 0 0
vn 0 0 1
vn 0 0 -1
vn 0 -1 0
vn 0 1 0

# texcoords
vt 0.0175781 0.5
vt 0.169922 0.5
vt 0.177734 0.5
vt 0.181641 0.5
vt 0.185547 0.5

# verts
v -0.3 0 34
v -0.3 0 33.9
v -0.3 0.1 34
v -0.3 0.1 33.9
v -0.3 0.2 34
v -0.3 0.2 33.9
v -0.1 0 34.2
v -0.1 0 34.1
v -0.1 0 34
v -0.1 0 33.9
v -0.1 0 33.8
v -0.1 0 33.7
v -0.1 0.1 34.2
v -0.1 0.1 34.1
v -0.1 0.1 34
v -0.1 0.1 33.9
v -0.1 0.1 33.8
v -0.1 0.2 34.1
v -0.1 0.2 34
v -0.1 0.2 33.8
v -0.1 0.2 33.7
v 0 0.1 34
v 0 0.1 33.9
v 0 0.2 34
v 0 0.3 34
v 0 0.3 33.9
v -0.2 0.1 34
v -0.2 0.1 33.9
v -0.2 0.2 34
v -0.2 0.2 33.9
v 0 0 34.2
v 0 0 34.1
v 0 0 33.9
v 0 0 33.8
v 0 0 33.7
v 0 0.1 34.2
v 0 0.1 34.1
v 0 0.1 34
v 0 0.1 33.9
v 0 0.1 33.8
v 0 0.2 34.1
v 0 0.2 34
v 0 0.2 33.8
v 0 0.2 33.7
v 0.1 0 34.1
v 0.1 0 34
v 0.1 0.1 34.1
v 0.1 0.1 34
v 0.1 0.1 33.9
v 0.1 0.3 34
v 0.1 0.3 33.9
v 0.2 0 34
v 0.2 0 33.9
v 0.2 0.1 34
v 0.2 0.1 33.9
v -0.1 0 34.2
v -0.1 0.1 34.2
v 0 0 34.2
v 0 0.1 34.2
v -0.1 0.1 34.1
v -0.1 0.2 34.1
v 0 0 34.1
v 0 0.1 34.1
v 0 0.2 34.1
v 0.1 0 34.1
v 0.1 0.1 34.1
v -0.3 0 34
v -0.3 0.1 34
v -0.3 0.2 34
v -0.2 0 34
v -0.2 0.1 34
v -0.2 0.2 34
v -0.1 0 34
v -0.1 0.1 34
v 0 0.1 34
v 0 0.2 34
v 0 0.3 34
v 0.1 0 34
v 0.1 0.1 34
v 0.1 0.3 34
v 0.2 0 34
v 0.2 0.1 34
v -0.1 0.1 33.8
v -0.1 0.2 33.8
v 0 0.1 33.8
v 0 0.2 33.8
v -0.1 0.1 34
v -0.1 0.2 34
v 0 0.1 34
v 0 0.2 34
v -0.3 0 33.9
v -0.3 0.1 33.9
v -0.3 0.2 33.9
v -0.2 0 33.9
v -0.2 0.1 33.9
v -0.2 0.2 33.9
v -0.1 0 33.9
v -0.1 0.1 33.9
v 0 0 33.9
v 0 0.1 33.9
v 0 0.3 33.9
v 0.1 0 33.9
v 0.1 0.1 33.9
v 0.1 0.3 33.9
v 0.2 0 33.9
v 0.2 0.1 33.9
v -0.1 0 33.7
v -0.1 0.2 33.7
v 0 0 33.7
v 0 0.2 33.7
v -0.1 0 34.2
v 0 0 34.2
v -0.1 0 34.1
v 0 0 34.1
v 0.1 0 34.1
v -0.3 0 34
v -0.2 0 34
v -0.1 0 34
v 0 0 34
v 0.1 0 34
v 0.2 0 34
v -0.3 0 33.9
v -0.2 0 33.9
v -0.1 0 33.9
v 0 0 33.9
v 0.1 0 33.9
v 0.2 0 33.9
v -0.1 0 33.8
v 0 0 33.8
v -0.1 0 33.7
v 0 0 33.7
v -0.1 0.1 34.2
v 0 0.1 34.2
v -0.1 0.1 34.1
v 0 0.1 34.1
v 0.1 0.1 34.1
v -0.2 0.1 34
v -0.1 0.1 34
v 0 0.1 34
v 0.1 0.1 34
v 0.2 0.1 34
v -0.2 0.1 33.9
v -0.1 0.1 33.9
v 0 0.1 33.9
v 0.1 0.1 33.9
v 0.2 0.1 33.9
v -0.1 0.1 33.8
v 0 0.1 33.8
v -0.1 0.2 34.1
v 0 0.2 34.1
v -0.3 0.2 34
v -0.2 0.2 34
v -0.1 0.2 34
v 0 0.2 34
v -0.3 0.2 33.9
v -0.2 0.2 33.9
v -0.1 0.2 33.8
v 0 0.2 33.8
v -0.1 0.2 33.7
v 0 0.2 33.7
v 0 0.3 34
v 0.1 0.3 34
v 0 0.3 33.9
v 0.1 0.3 33.9

# faces
f 3/4/1 2/4/1 1/4/1
f 4/4/1 2/4/1 3/4/1
f 5/5/1 4/5/1 3/5/1
f 6/5/1 4/5/1 5/5/1
f 13/5/1 8/5/1 7/5/1
f 14/4/1 9/4/1 8/4/1
f 14/5/1 8/5/1 13/5/1
f 15/4/1 9/4/1 14/4/1
f 16/2/1 11/2/1 10/2/1
f 17/4/1 12/4/1 11/4/1
f 17/2/1 11/2/1 16/2/1
f 18/5/1 15/5/1 14/5/1
f 19/5/1 15/5/1 18/5/1
f 20/4/1 12/4/1 17/4/1
f 21/4/1 12/4/1 20/4/1
f 24/4/1 23/4/1 22/4/1
f 25/4/1 23/4/1 24/4/1
f 26/4/1 23/4/1 25/4/1
f 27/5/2 28/5/2 29/5/2
f 29/5/2 28/5/2 30/5/2
f 31/5/2 32/5/2 36/5/2
f 36/5/2 32/5/2 37/5/2
f 33/2/2 34/2/2 39/2/2
f 34/4/2 35/4/2 40/4/2
f 39/2/2 34/2/2 40/2/2
f 37/5/2 38/5/2 41/5/2
f 41/5/2 38/5/2 42/5/2
f 40/4/2 35/4/2 43/4/2
f 43/4/2 35/4/2 44/4/2
f 45/1/2 46/1/2 47/1/2
f 47/1/2 46/1/2 48/1/2
f 48/4/2 49/4/2 50/4/2
f 50/4/2 49/4/2 51/4/2
f 52/5/2 53/5/2 54/5/2
f 54/5/2 53/5/2 55/5/2
f 58/5/3 57/5/3 56/5/3
f 59/5/3 57/5/3 58/5/3
f 63/5/3 61/5/3 60/5/3
f 64/5/3 61/5/3 63/5/3
f 65/1/3 63/1/3 62/1/3
f 66/1/3 63/1/3 65/1/3
f 70/4/3 68/4/3 67/4/3
f 71/5/3 69/5/3 68/5/3
f 71/4/3 68/4/3 70/4/3
f 72/5/3 69/5/3 71/5/3
f 73/2/3 71/2/3 70/2/3
f 74/2/3 71/2/3 73/2/3
f 79/4/3 76/4/3 75/4/3
f 79/4/3 77/4/3 76/4/3
f 80/4/3 77/4/3 79/4/3
f 81/5/3 79/5/3 78/5/3
f 82/5/3 79/5/3 81/5/3
f 85/4/3 84/4/3 83/4/3
f 86/4/3 84/4/3 85/4/3
f 87/5/4 88/5/4 89/5/4
f 89/5/4 88/5/4 90/5/4
f 91/4/4 92/4/4 94/4/4
f 92/5/4 93/5/4 95/5/4
f 94/4/4 92/4/4 95/4/4
f 95/5/4 93/5/4 96/5/4
f 94/2/4 95/2/4 97/2/4
f 97/2/4 95/2/4 98/2/4
f 99/4/4 100/4/4 102/4/4
f 100/4/4 101/4/4 102/4/4
f 102/4/4 101/4/4 103/4/4
f 103/4/4 101/4/4 104/4/4
f 102/5/4 103/5/4 105/5/4
f 105/5/4 103/5/4 106/5/4
f 107/4/4 108/4/4 109/4/4
f 109/4/4 108/4/4 110/4/4
f 113/5/5 112/5/5 111/5/5
f 114/5/5 112/5/5 113/5/5
f 118/4/5 114/4/5 113/4/5
f 119/1/5 115/1/5 114/1/5
f 119/4/5 114/4/5 118/4/5
f 120/1/5 115/1/5 119/1/5
f 122/4/5 117/4/5 116/4/5
f 123/2/5 118/2/5 117/2/5
f 123/4/5 117/4/5 122/4/5
f 124/3/5 119/3/5 118/3/5
f 124/2/5 118/2/5 123/2/5
f 125/4/5 120/4/5 119/4/5
f 125/3/5 119/3/5 124/3/5
f 126/5/5 121/5/5 120/5/5
f 126/4/5 120/4/5 125/4/5
f 127/5/5 121/5/5 126/5/5
f 128/2/5 125/2/5 124/2/5
f 129/2/5 125/2/5 128/2/5
f 130/4/5 129/4/5 128/4/5
f 131/4/5 129/4/5 130/4/5
f 132/5/6 133/5/6 134/5/6
f 134/5/6 133/5/6 135/5/6
f 135/1/6 136/1/6 139/1/6
f 139/1/6 136/1/6 140/1/6
f 137/2/6 138/2/6 142/2/6
f 138/3/6 139/3/6 143/3/6
f 142/2/6 138/2/6 143/2/6
f 143/3/6 139/3/6 144/3/6
f 140/5/6 141/5/6 145/5/6
f 145/5/6 141/5/6 146/5/6
f 143/2/6 144/2/6 147/2/6
f 147/2/6 144/2/6 148/2/6
f 149/5/6 150/5/6 153/5/6
f 153/5/6 150/5/6 154/5/6
f 151/5/6 152/5/6 155/5/6
f 155/5/6 152/5/6 156/5/6
f 157/4/6 158/4/6 159/4/6
f 159/4/6 158/4/6 160/4/6
f 161/4/6 162/4/6 163/4/6
f 163/4/6 162/4/6 164/4/6
