# MagicaVoxel @ Ephtracy

# group
o Decoration - Bookshelf - Book - Variant1

# material
mtllib Medieval Assets-272-Decoration - Bookshelf - Book - Variant1.mtl
usemtl palette

# normals
vn -1 0 0
vn 1 0 0
vn 0 -1 0
vn 0 1 0
vn 0 0 -1
vn 0 0 1

# texcoords
vt 0.130859 0.5
vt 0.169922 0.5
vt 0.177734 0.5
vt 0.193359 0.5
vt 0.197266 0.5
vt 0.205078 0.5

# verts
v -5.5 0 -3.1
v -5.5 2.1 -3.1
v -5.5 0 -2.9
v -5.5 0.1 -2.9
v -5.5 0.5 -2.9
v -5.5 0.7 -2.9
v -5.5 0.9 -2.9
v -5.5 1.2 -2.9
v -5.5 1.5 -2.9
v -5.5 1.8 -2.9
v -5.5 0 -2.8
v -5.5 0.1 -2.8
v -5.5 0.5 -2.8
v -5.5 0.7 -2.8
v -5.5 0.9 -2.8
v -5.5 1.2 -2.8
v -5.5 1.5 -2.8
v -5.5 1.8 -2.8
v -5.5 2.1 -2.8
v -5.2 0 -3
v -5.2 0.1 -3
v -5.2 2 -3
v -5.2 2.1 -3
v -5.2 0 -2.9
v -5.2 0.1 -2.9
v -5.2 2 -2.9
v -5.2 2.1 -2.9
v -4.1 0.1 -3
v -4.1 2 -3
v -4.1 0.1 -2.9
v -4.1 2 -2.9
v -4 0 -3.1
v -4 2.1 -3.1
v -4 0 -3
v -4 2.1 -3
v -4 0 -2.9
v -4 2.1 -2.9
v -4 0 -2.8
v -4 2.1 -2.8
v -5.5 0 -3.1
v -5.5 0 -2.9
v -5.5 0 -2.8
v -5.4 0 -2.9
v -5.4 0 -2.8
v -5.2 0 -3.1
v -5.2 0 -3
v -5.2 0 -2.9
v -5.2 0 -2.8
v -4 0 -3.1
v -4 0 -3
v -4 0 -2.9
v -4 0 -2.8
v -5.2 0.1 -3
v -5.2 0.1 -2.9
v -4.1 0.1 -3
v -4.1 0.1 -2.9
v -5.2 2 -3
v -5.2 2 -2.9
v -4.1 2 -3
v -4.1 2 -2.9
v -5.5 2.1 -3.1
v -5.5 2.1 -2.8
v -5.2 2.1 -3.1
v -5.2 2.1 -3
v -5.2 2.1 -2.9
v -5.2 2.1 -2.8
v -4 2.1 -3.1
v -4 2.1 -3
v -4 2.1 -2.9
v -4 2.1 -2.8
v -5.5 0 -3.1
v -5.2 0 -3.1
v -4 0 -3.1
v -5.4 0.2 -3.1
v -5.3 0.2 -3.1
v -5.4 0.5 -3.1
v -5.3 0.5 -3.1
v -5.4 0.8 -3.1
v -5.3 0.8 -3.1
v -4.9 0.9 -3.1
v -4.4 0.9 -3.1
v -5.4 1 -3.1
v -5.3 1 -3.1
v -4.7 1 -3.1
v -4.6 1 -3.1
v -4.9 1.1 -3.1
v -4.7 1.1 -3.1
v -4.6 1.1 -3.1
v -4.4 1.1 -3.1
v -5.4 1.5 -3.1
v -5.3 1.5 -3.1
v -5.4 1.7 -3.1
v -5.3 1.7 -3.1
v -4.9 1.7 -3.1
v -4.2 1.7 -3.1
v -5.4 1.8 -3.1
v -5.3 1.8 -3.1
v -4.9 1.8 -3.1
v -4.2 1.8 -3.1
v -5.4 2 -3.1
v -5.3 2 -3.1
v -5.5 2.1 -3.1
v -5.2 2.1 -3.1
v -4 2.1 -3.1
v -5.2 0 -2.9
v -4 0 -2.9
v -5.2 0.1 -2.9
v -4.1 0.1 -2.9
v -5.2 2 -2.9
v -4.1 2 -2.9
v -5.2 2.1 -2.9
v -4 2.1 -2.9
v -5.2 0 -3
v -4 0 -3
v -5.2 0.1 -3
v -4.1 0.1 -3
v -5.2 2 -3
v -4.1 2 -3
v -5.2 2.1 -3
v -4 2.1 -3
v -5.5 0 -2.8
v -5.4 0 -2.8
v -5.2 0 -2.8
v -4 0 -2.8
v -5.5 0.1 -2.8
v -5.4 0.1 -2.8
v -5.4 0.3 -2.8
v -5.3 0.3 -2.8
v -4.5 0.4 -2.8
v -4.2 0.4 -2.8
v -5.5 0.5 -2.8
v -5.4 0.5 -2.8
v -5.3 0.5 -2.8
v -5.2 0.5 -2.8
v -4.9 0.5 -2.8
v -4.5 0.5 -2.8
v -4.3 0.5 -2.8
v -4.2 0.5 -2.8
v -4.1 0.5 -2.8
v -4.9 0.6 -2.8
v -4.5 0.6 -2.8
v -4.3 0.6 -2.8
v -4.1 0.6 -2.8
v -5.5 0.7 -2.8
v -5.4 0.7 -2.8
v -5.3 0.7 -2.8
v -5.2 0.7 -2.8
v -5.5 0.9 -2.8
v -5.4 0.9 -2.8
v -5 1 -2.8
v -4.1 1 -2.8
v -5 1.1 -2.8
v -4.9 1.1 -2.8
v -4.7 1.1 -2.8
v -4.4 1.1 -2.8
v -4.3 1.1 -2.8
v -4.1 1.1 -2.8
v -5.5 1.2 -2.8
v -5.4 1.2 -2.8
v -5.3 1.2 -2.8
v -5.2 1.2 -2.8
v -4.9 1.2 -2.8
v -4.7 1.2 -2.8
v -4.4 1.2 -2.8
v -4.3 1.2 -2.8
v -5.4 1.4 -2.8
v -5.3 1.4 -2.8
v -5 1.4 -2.8
v -4.8 1.4 -2.8
v -4.6 1.4 -2.8
v -4.2 1.4 -2.8
v -5.5 1.5 -2.8
v -5.4 1.5 -2.8
v -5 1.5 -2.8
v -4.8 1.5 -2.8
v -4.6 1.5 -2.8
v -4.5 1.5 -2.8
v -4.3 1.5 -2.8
v -5.4 1.6 -2.8
v -5.3 1.6 -2.8
v -4.8 1.6 -2.8
v -4.5 1.6 -2.8
v -4.3 1.6 -2.8
v -4.2 1.6 -2.8
v -5.3 1.7 -2.8
v -5.2 1.7 -2.8
v -5.5 1.8 -2.8
v -5.4 1.8 -2.8
v -5.3 1.8 -2.8
v -5.2 1.8 -2.8
v -5.3 1.9 -2.8
v -5.2 1.9 -2.8
v -5.5 2.1 -2.8
v -5.2 2.1 -2.8
v -4 2.1 -2.8

# faces
f 3/5/1 2/5/1 1/5/1
f 4/5/1 2/5/1 3/5/1
f 5/5/1 2/5/1 4/5/1
f 6/5/1 2/5/1 5/5/1
f 7/5/1 2/5/1 6/5/1
f 8/5/1 2/5/1 7/5/1
f 9/5/1 2/5/1 8/5/1
f 10/5/1 2/5/1 9/5/1
f 11/4/1 4/4/1 3/4/1
f 12/5/1 5/5/1 4/5/1
f 12/4/1 4/4/1 11/4/1
f 13/4/1 6/4/1 5/4/1
f 13/5/1 5/5/1 12/5/1
f 14/5/1 7/5/1 6/5/1
f 14/4/1 6/4/1 13/4/1
f 15/4/1 8/4/1 7/4/1
f 15/5/1 7/5/1 14/5/1
f 16/5/1 9/5/1 8/5/1
f 16/4/1 8/4/1 15/4/1
f 17/4/1 10/4/1 9/4/1
f 17/5/1 9/5/1 16/5/1
f 18/5/1 2/5/1 10/5/1
f 18/4/1 10/4/1 17/4/1
f 19/5/1 2/5/1 18/5/1
f 20/5/2 21/5/2 24/5/2
f 24/5/2 21/5/2 25/5/2
f 22/5/2 23/5/2 26/5/2
f 26/5/2 23/5/2 27/5/2
f 28/1/2 29/1/2 30/1/2
f 30/1/2 29/1/2 31/1/2
f 32/2/2 33/2/2 34/2/2
f 34/2/2 33/2/2 35/2/2
f 36/2/2 37/2/2 38/2/2
f 38/2/2 37/2/2 39/2/2
f 43/5/3 41/5/3 40/5/3
f 43/4/3 42/4/3 41/4/3
f 44/4/3 42/4/3 43/4/3
f 45/5/3 43/5/3 40/5/3
f 45/5/3 44/5/3 43/5/3
f 46/5/3 44/5/3 45/5/3
f 47/5/3 44/5/3 46/5/3
f 48/5/3 44/5/3 47/5/3
f 49/2/3 46/2/3 45/2/3
f 50/2/3 46/2/3 49/2/3
f 51/2/3 48/2/3 47/2/3
f 52/2/3 48/2/3 51/2/3
f 55/1/3 54/1/3 53/1/3
f 56/1/3 54/1/3 55/1/3
f 57/1/4 58/1/4 59/1/4
f 59/1/4 58/1/4 60/1/4
f 61/5/4 62/5/4 63/5/4
f 63/5/4 62/5/4 64/5/4
f 64/5/4 62/5/4 65/5/4
f 65/5/4 62/5/4 66/5/4
f 63/2/4 64/2/4 67/2/4
f 67/2/4 64/2/4 68/2/4
f 65/2/4 66/2/4 69/2/4
f 69/2/4 66/2/4 70/2/4
f 74/5/5 72/5/5 71/5/5
f 75/5/5 72/5/5 74/5/5
f 76/5/5 74/5/5 71/5/5
f 76/4/5 75/4/5 74/4/5
f 77/5/5 72/5/5 75/5/5
f 77/4/5 75/4/5 76/4/5
f 78/5/5 76/5/5 71/5/5
f 78/5/5 77/5/5 76/5/5
f 79/5/5 72/5/5 77/5/5
f 79/5/5 77/5/5 78/5/5
f 80/2/5 73/2/5 72/2/5
f 81/2/5 73/2/5 80/2/5
f 82/5/5 78/5/5 71/5/5
f 82/4/5 79/4/5 78/4/5
f 83/5/5 72/5/5 79/5/5
f 83/4/5 79/4/5 82/4/5
f 84/3/5 81/3/5 80/3/5
f 85/3/5 81/3/5 84/3/5
f 86/2/5 80/2/5 72/2/5
f 86/3/5 84/3/5 80/3/5
f 87/2/5 85/2/5 84/2/5
f 87/3/5 84/3/5 86/3/5
f 88/3/5 81/3/5 85/3/5
f 88/2/5 85/2/5 87/2/5
f 89/2/5 73/2/5 81/2/5
f 89/3/5 81/3/5 88/3/5
f 90/5/5 82/5/5 71/5/5
f 90/5/5 83/5/5 82/5/5
f 91/5/5 72/5/5 83/5/5
f 91/5/5 83/5/5 90/5/5
f 92/5/5 90/5/5 71/5/5
f 92/4/5 91/4/5 90/4/5
f 93/5/5 72/5/5 91/5/5
f 93/4/5 91/4/5 92/4/5
f 94/2/5 88/2/5 87/2/5
f 94/2/5 87/2/5 86/2/5
f 94/2/5 89/2/5 88/2/5
f 94/2/5 86/2/5 72/2/5
f 95/2/5 73/2/5 89/2/5
f 95/2/5 89/2/5 94/2/5
f 96/5/5 92/5/5 71/5/5
f 96/5/5 93/5/5 92/5/5
f 97/5/5 72/5/5 93/5/5
f 97/5/5 93/5/5 96/5/5
f 98/2/5 94/2/5 72/2/5
f 98/3/5 95/3/5 94/3/5
f 99/2/5 73/2/5 95/2/5
f 99/3/5 95/3/5 98/3/5
f 100/5/5 96/5/5 71/5/5
f 100/4/5 97/4/5 96/4/5
f 101/5/5 72/5/5 97/5/5
f 101/4/5 97/4/5 100/4/5
f 102/5/5 100/5/5 71/5/5
f 102/5/5 101/5/5 100/5/5
f 103/5/5 72/5/5 101/5/5
f 103/5/5 101/5/5 102/5/5
f 103/2/5 98/2/5 72/2/5
f 103/2/5 99/2/5 98/2/5
f 104/2/5 73/2/5 99/2/5
f 104/2/5 99/2/5 103/2/5
f 107/2/5 106/2/5 105/2/5
f 108/2/5 106/2/5 107/2/5
f 110/2/5 106/2/5 108/2/5
f 111/2/5 110/2/5 109/2/5
f 112/2/5 106/2/5 110/2/5
f 112/2/5 110/2/5 111/2/5
f 113/2/6 114/2/6 115/2/6
f 115/2/6 114/2/6 116/2/6
f 116/2/6 114/2/6 118/2/6
f 117/2/6 118/2/6 119/2/6
f 118/2/6 114/2/6 120/2/6
f 119/2/6 118/2/6 120/2/6
f 121/4/6 122/4/6 125/4/6
f 122/5/6 123/5/6 126/5/6
f 125/4/6 122/4/6 126/4/6
f 125/5/6 126/5/6 127/5/6
f 126/5/6 123/5/6 127/5/6
f 127/5/6 123/5/6 128/5/6
f 123/2/6 124/2/6 129/2/6
f 129/2/6 124/2/6 130/2/6
f 125/5/6 127/5/6 131/5/6
f 127/4/6 128/4/6 132/4/6
f 131/5/6 127/5/6 132/5/6
f 128/5/6 123/5/6 133/5/6
f 132/4/6 128/4/6 133/4/6
f 123/2/6 129/2/6 134/2/6
f 133/5/6 123/5/6 134/5/6
f 134/2/6 129/2/6 135/2/6
f 129/3/6 130/3/6 136/3/6
f 135/2/6 129/2/6 136/2/6
f 136/3/6 130/3/6 137/3/6
f 130/2/6 124/2/6 138/2/6
f 137/3/6 130/3/6 138/3/6
f 138/2/6 124/2/6 139/2/6
f 134/2/6 135/2/6 140/2/6
f 135/3/6 136/3/6 140/3/6
f 136/2/6 137/2/6 141/2/6
f 140/3/6 136/3/6 141/3/6
f 138/3/6 139/3/6 142/3/6
f 141/2/6 137/2/6 142/2/6
f 137/3/6 138/3/6 142/3/6
f 139/2/6 124/2/6 143/2/6
f 142/3/6 139/3/6 143/3/6
f 131/4/6 132/4/6 144/4/6
f 132/5/6 133/5/6 145/5/6
f 144/4/6 132/4/6 145/4/6
f 133/4/6 134/4/6 146/4/6
f 145/5/6 133/5/6 146/5/6
f 134/2/6 140/2/6 147/2/6
f 146/4/6 134/4/6 147/4/6
f 141/2/6 142/2/6 147/2/6
f 142/2/6 143/2/6 147/2/6
f 140/2/6 141/2/6 147/2/6
f 145/5/6 146/5/6 148/5/6
f 144/5/6 145/5/6 148/5/6
f 146/5/6 147/5/6 148/5/6
f 148/5/6 147/5/6 149/5/6
f 147/2/6 143/2/6 150/2/6
f 143/2/6 124/2/6 151/2/6
f 150/2/6 143/2/6 151/2/6
f 147/2/6 150/2/6 152/2/6
f 150/3/6 151/3/6 152/3/6
f 152/3/6 151/3/6 153/3/6
f 153/3/6 151/3/6 154/3/6
f 154/3/6 151/3/6 155/3/6
f 155/3/6 151/3/6 156/3/6
f 151/2/6 124/2/6 157/2/6
f 156/3/6 151/3/6 157/3/6
f 148/4/6 149/4/6 158/4/6
f 149/5/6 147/5/6 159/5/6
f 158/4/6 149/4/6 159/4/6
f 159/5/6 147/5/6 160/5/6
f 147/2/6 152/2/6 161/2/6
f 160/5/6 147/5/6 161/5/6
f 152/2/6 153/2/6 161/2/6
f 153/3/6 154/3/6 162/3/6
f 161/2/6 153/2/6 162/2/6
f 154/2/6 155/2/6 163/2/6
f 162/3/6 154/3/6 163/3/6
f 155/3/6 156/3/6 164/3/6
f 163/2/6 155/2/6 164/2/6
f 156/2/6 157/2/6 165/2/6
f 164/3/6 156/3/6 165/3/6
f 159/5/6 160/5/6 166/5/6
f 158/5/6 159/5/6 166/5/6
f 160/4/6 161/4/6 167/4/6
f 166/5/6 160/5/6 167/5/6
f 162/2/6 163/2/6 168/2/6
f 164/2/6 165/2/6 168/2/6
f 161/2/6 162/2/6 168/2/6
f 163/2/6 164/2/6 168/2/6
f 168/2/6 165/2/6 169/2/6
f 169/2/6 165/2/6 170/2/6
f 165/2/6 157/2/6 171/2/6
f 170/2/6 165/2/6 171/2/6
f 158/5/6 166/5/6 172/5/6
f 166/4/6 167/4/6 173/4/6
f 172/5/6 166/5/6 173/5/6
f 161/2/6 168/2/6 174/2/6
f 168/3/6 169/3/6 174/3/6
f 169/2/6 170/2/6 175/2/6
f 174/3/6 169/3/6 175/3/6
f 170/3/6 171/3/6 176/3/6
f 175/2/6 170/2/6 176/2/6
f 176/3/6 171/3/6 177/3/6
f 177/3/6 171/3/6 178/3/6
f 173/4/6 167/4/6 179/4/6
f 172/4/6 173/4/6 179/4/6
f 167/4/6 161/4/6 180/4/6
f 179/4/6 167/4/6 180/4/6
f 174/2/6 175/2/6 181/2/6
f 175/3/6 176/3/6 181/3/6
f 176/3/6 177/3/6 181/3/6
f 177/2/6 178/2/6 182/2/6
f 181/3/6 177/3/6 182/3/6
f 178/3/6 171/3/6 183/3/6
f 182/2/6 178/2/6 183/2/6
f 171/2/6 157/2/6 184/2/6
f 183/3/6 171/3/6 184/3/6
f 180/4/6 161/4/6 185/4/6
f 179/5/6 180/5/6 185/5/6
f 161/2/6 174/2/6 186/2/6
f 185/4/6 161/4/6 186/4/6
f 182/2/6 183/2/6 186/2/6
f 183/2/6 184/2/6 186/2/6
f 181/2/6 182/2/6 186/2/6
f 174/2/6 181/2/6 186/2/6
f 172/4/6 179/4/6 187/4/6
f 179/5/6 185/5/6 188/5/6
f 187/4/6 179/4/6 188/4/6
f 185/5/6 186/5/6 188/5/6
f 188/5/6 186/5/6 189/5/6
f 186/2/6 184/2/6 190/2/6
f 189/5/6 186/5/6 190/5/6
f 188/5/6 189/5/6 191/5/6
f 187/5/6 188/5/6 191/5/6
f 189/4/6 190/4/6 191/4/6
f 190/2/6 184/2/6 192/2/6
f 191/4/6 190/4/6 192/4/6
f 187/5/6 191/5/6 193/5/6
f 191/5/6 192/5/6 193/5/6
f 192/2/6 184/2/6 194/2/6
f 193/5/6 192/5/6 194/5/6
f 157/2/6 124/2/6 195/2/6
f 194/2/6 184/2/6 195/2/6
f 184/2/6 157/2/6 195/2/6
