# MagicaVoxel @ Ephtracy

# group
o Tool - Broom

# material
mtllib Medieval Assets-221-Tool - Broom.mtl
usemtl palette

# normals
vn -1 0 0
vn 1 0 0
vn 0 0 1
vn 0 0 -1
vn 0 -1 0
vn 0 1 0

# texcoords
vt 0.158203 0.5
vt 0.177734 0.5
vt 0.189453 0.5
vt 0.197266 0.5
vt 0.201172 0.5
vt 0.205078 0.5

# verts
v 9 0 -4.2
v 9 0 -4.3
v 9 0 -4.4
v 9 0 -4.5
v 9 0 -4.6
v 9 0 -4.7
v 9 0 -4.8
v 9 0 -4.9
v 9 0.1 -4.4
v 9 0.1 -4.5
v 9 0.3 -4.2
v 9 0.3 -4.3
v 9 0.3 -4.4
v 9 0.3 -4.7
v 9 0.3 -4.8
v 9 0.3 -4.9
v 9 0.4 -4.2
v 9 0.4 -4.3
v 9 0.4 -4.8
v 9 0.4 -4.9
v 9 0.5 -4.2
v 9 0.5 -4.3
v 9 0.5 -4.5
v 9 0.5 -4.6
v 9 0.5 -4.7
v 9 0.5 -4.8
v 9 0.5 -4.9
v 9 0.6 -4.3
v 9 0.6 -4.4
v 9 0.6 -4.5
v 9 0.6 -4.6
v 9 0.6 -4.7
v 9 0.6 -4.8
v 9 0.7 -4.4
v 9 0.7 -4.5
v 9 0.7 -4.6
v 9 0.7 -4.7
v 9 0.8 -4.5
v 9 0.8 -4.6
v 9 2.2 -4.5
v 9 2.2 -4.6
v 9 2.5 -4.5
v 9 2.5 -4.6
v 9 2.6 -4.5
v 9 2.6 -4.6
v 9.1 0 -4.2
v 9.1 0 -4.3
v 9.1 0 -4.4
v 9.1 0 -4.5
v 9.1 0 -4.6
v 9.1 0 -4.7
v 9.1 0 -4.8
v 9.1 0 -4.9
v 9.1 0.1 -4.4
v 9.1 0.1 -4.5
v 9.1 0.3 -4.2
v 9.1 0.3 -4.3
v 9.1 0.3 -4.4
v 9.1 0.3 -4.7
v 9.1 0.3 -4.8
v 9.1 0.3 -4.9
v 9.1 0.4 -4.2
v 9.1 0.4 -4.3
v 9.1 0.4 -4.8
v 9.1 0.4 -4.9
v 9.1 0.5 -4.2
v 9.1 0.5 -4.3
v 9.1 0.5 -4.5
v 9.1 0.5 -4.6
v 9.1 0.5 -4.7
v 9.1 0.5 -4.8
v 9.1 0.5 -4.9
v 9.1 0.6 -4.3
v 9.1 0.6 -4.4
v 9.1 0.6 -4.5
v 9.1 0.6 -4.6
v 9.1 0.6 -4.7
v 9.1 0.6 -4.8
v 9.1 0.7 -4.4
v 9.1 0.7 -4.5
v 9.1 0.7 -4.6
v 9.1 0.7 -4.7
v 9.1 0.8 -4.5
v 9.1 0.8 -4.6
v 9.1 2.2 -4.5
v 9.1 2.2 -4.6
v 9.1 2.5 -4.5
v 9.1 2.5 -4.6
v 9.1 2.6 -4.5
v 9.1 2.6 -4.6
v 9 0 -4.2
v 9 0.3 -4.2
v 9 0.4 -4.2
v 9 0.5 -4.2
v 9.1 0 -4.2
v 9.1 0.3 -4.2
v 9.1 0.4 -4.2
v 9.1 0.5 -4.2
v 9 0.5 -4.3
v 9 0.6 -4.3
v 9.1 0.5 -4.3
v 9.1 0.6 -4.3
v 9 0.6 -4.4
v 9 0.7 -4.4
v 9.1 0.6 -4.4
v 9.1 0.7 -4.4
v 9 0.7 -4.5
v 9 0.8 -4.5
v 9 2.2 -4.5
v 9 2.5 -4.5
v 9 2.6 -4.5
v 9.1 0.7 -4.5
v 9.1 0.8 -4.5
v 9.1 2.2 -4.5
v 9.1 2.5 -4.5
v 9.1 2.6 -4.5
v 9 0.7 -4.6
v 9 0.8 -4.6
v 9 2.2 -4.6
v 9 2.5 -4.6
v 9 2.6 -4.6
v 9.1 0.7 -4.6
v 9.1 0.8 -4.6
v 9.1 2.2 -4.6
v 9.1 2.5 -4.6
v 9.1 2.6 -4.6
v 9 0.6 -4.7
v 9 0.7 -4.7
v 9.1 0.6 -4.7
v 9.1 0.7 -4.7
v 9 0.5 -4.8
v 9 0.6 -4.8
v 9.1 0.5 -4.8
v 9.1 0.6 -4.8
v 9 0 -4.9
v 9 0.3 -4.9
v 9 0.4 -4.9
v 9 0.5 -4.9
v 9.1 0 -4.9
v 9.1 0.3 -4.9
v 9.1 0.4 -4.9
v 9.1 0.5 -4.9
v 9 0 -4.2
v 9.1 0 -4.2
v 9 0 -4.3
v 9.1 0 -4.3
v 9 0 -4.4
v 9.1 0 -4.4
v 9 0 -4.5
v 9.1 0 -4.5
v 9 0 -4.6
v 9.1 0 -4.6
v 9 0 -4.7
v 9.1 0 -4.7
v 9 0 -4.8
v 9.1 0 -4.8
v 9 0 -4.9
v 9.1 0 -4.9
v 9 0.5 -4.2
v 9.1 0.5 -4.2
v 9 0.5 -4.3
v 9.1 0.5 -4.3
v 9 0.5 -4.8
v 9.1 0.5 -4.8
v 9 0.5 -4.9
v 9.1 0.5 -4.9
v 9 0.6 -4.3
v 9.1 0.6 -4.3
v 9 0.6 -4.4
v 9.1 0.6 -4.4
v 9 0.6 -4.7
v 9.1 0.6 -4.7
v 9 0.6 -4.8
v 9.1 0.6 -4.8
v 9 0.7 -4.4
v 9.1 0.7 -4.4
v 9 0.7 -4.5
v 9.1 0.7 -4.5
v 9 0.7 -4.6
v 9.1 0.7 -4.6
v 9 0.7 -4.7
v 9.1 0.7 -4.7
v 9 2.6 -4.5
v 9.1 2.6 -4.5
v 9 2.6 -4.6
v 9.1 2.6 -4.6

# faces
f 9/2/1 3/2/1 2/2/1
f 9/4/1 4/4/1 3/4/1
f 10/2/1 5/2/1 4/2/1
f 10/4/1 4/4/1 9/4/1
f 11/5/1 2/5/1 1/5/1
f 12/2/1 9/2/1 2/2/1
f 12/5/1 2/5/1 11/5/1
f 13/5/1 10/5/1 9/5/1
f 13/2/1 9/2/1 12/2/1
f 14/2/1 7/2/1 6/2/1
f 14/5/1 6/5/1 5/5/1
f 15/5/1 8/5/1 7/5/1
f 15/2/1 7/2/1 14/2/1
f 16/5/1 8/5/1 15/5/1
f 17/6/1 13/6/1 12/6/1
f 17/6/1 12/6/1 11/6/1
f 18/6/1 13/6/1 17/6/1
f 19/2/1 16/2/1 15/2/1
f 19/6/1 15/6/1 14/6/1
f 20/2/1 16/2/1 19/2/1
f 21/4/1 18/4/1 17/4/1
f 22/6/1 13/6/1 18/6/1
f 22/4/1 18/4/1 21/4/1
f 23/2/1 5/2/1 10/2/1
f 23/5/1 10/5/1 13/5/1
f 24/5/1 14/5/1 5/5/1
f 24/2/1 5/2/1 23/2/1
f 25/6/1 19/6/1 14/6/1
f 25/5/1 14/5/1 24/5/1
f 26/4/1 20/4/1 19/4/1
f 26/6/1 19/6/1 25/6/1
f 27/4/1 20/4/1 26/4/1
f 28/6/1 13/6/1 22/6/1
f 29/5/1 23/5/1 13/5/1
f 29/6/1 13/6/1 28/6/1
f 29/5/1 24/5/1 23/5/1
f 30/5/1 24/5/1 29/5/1
f 31/4/1 25/4/1 24/4/1
f 31/5/1 24/5/1 30/5/1
f 32/5/1 26/5/1 25/5/1
f 32/4/1 25/4/1 31/4/1
f 33/5/1 26/5/1 32/5/1
f 34/5/1 30/5/1 29/5/1
f 35/4/1 31/4/1 30/4/1
f 35/5/1 30/5/1 34/5/1
f 36/5/1 32/5/1 31/5/1
f 36/4/1 31/4/1 35/4/1
f 37/5/1 32/5/1 36/5/1
f 38/4/1 36/4/1 35/4/1
f 39/4/1 36/4/1 38/4/1
f 40/3/1 39/3/1 38/3/1
f 41/3/1 39/3/1 40/3/1
f 42/5/1 41/5/1 40/5/1
f 43/5/1 41/5/1 42/5/1
f 44/1/1 43/1/1 42/1/1
f 45/1/1 43/1/1 44/1/1
f 47/2/2 48/2/2 54/2/2
f 48/4/2 49/4/2 54/4/2
f 49/2/2 50/2/2 55/2/2
f 54/4/2 49/4/2 55/4/2
f 46/5/2 47/5/2 56/5/2
f 47/2/2 54/2/2 57/2/2
f 56/5/2 47/5/2 57/5/2
f 54/5/2 55/5/2 58/5/2
f 57/2/2 54/2/2 58/2/2
f 51/2/2 52/2/2 59/2/2
f 50/5/2 51/5/2 59/5/2
f 52/5/2 53/5/2 60/5/2
f 59/2/2 52/2/2 60/2/2
f 60/5/2 53/5/2 61/5/2
f 57/6/2 58/6/2 62/6/2
f 56/6/2 57/6/2 62/6/2
f 62/6/2 58/6/2 63/6/2
f 60/2/2 61/2/2 64/2/2
f 59/6/2 60/6/2 64/6/2
f 64/2/2 61/2/2 65/2/2
f 62/4/2 63/4/2 66/4/2
f 63/6/2 58/6/2 67/6/2
f 66/4/2 63/4/2 67/4/2
f 55/2/2 50/2/2 68/2/2
f 58/5/2 55/5/2 68/5/2
f 50/5/2 59/5/2 69/5/2
f 68/2/2 50/2/2 69/2/2
f 59/6/2 64/6/2 70/6/2
f 69/5/2 59/5/2 70/5/2
f 64/4/2 65/4/2 71/4/2
f 70/6/2 64/6/2 71/6/2
f 71/4/2 65/4/2 72/4/2
f 67/6/2 58/6/2 73/6/2
f 58/5/2 68/5/2 74/5/2
f 73/6/2 58/6/2 74/6/2
f 68/5/2 69/5/2 74/5/2
f 74/5/2 69/5/2 75/5/2
f 69/4/2 70/4/2 76/4/2
f 75/5/2 69/5/2 76/5/2
f 70/5/2 71/5/2 77/5/2
f 76/4/2 70/4/2 77/4/2
f 77/5/2 71/5/2 78/5/2
f 74/5/2 75/5/2 79/5/2
f 75/4/2 76/4/2 80/4/2
f 79/5/2 75/5/2 80/5/2
f 76/5/2 77/5/2 81/5/2
f 80/4/2 76/4/2 81/4/2
f 81/5/2 77/5/2 82/5/2
f 80/4/2 81/4/2 83/4/2
f 83/4/2 81/4/2 84/4/2
f 83/3/2 84/3/2 85/3/2
f 85/3/2 84/3/2 86/3/2
f 85/5/2 86/5/2 87/5/2
f 87/5/2 86/5/2 88/5/2
f 87/1/2 88/1/2 89/1/2
f 89/1/2 88/1/2 90/1/2
f 95/5/3 92/5/3 91/5/3
f 96/6/3 93/6/3 92/6/3
f 96/5/3 92/5/3 95/5/3
f 97/4/3 94/4/3 93/4/3
f 97/6/3 93/6/3 96/6/3
f 98/4/3 94/4/3 97/4/3
f 101/6/3 100/6/3 99/6/3
f 102/6/3 100/6/3 101/6/3
f 105/5/3 104/5/3 103/5/3
f 106/5/3 104/5/3 105/5/3
f 112/4/3 108/4/3 107/4/3
f 113/3/3 109/3/3 108/3/3
f 113/4/3 108/4/3 112/4/3
f 114/5/3 110/5/3 109/5/3
f 114/3/3 109/3/3 113/3/3
f 115/1/3 111/1/3 110/1/3
f 115/5/3 110/5/3 114/5/3
f 116/1/3 111/1/3 115/1/3
f 117/4/4 118/4/4 122/4/4
f 118/3/4 119/3/4 123/3/4
f 122/4/4 118/4/4 123/4/4
f 119/5/4 120/5/4 124/5/4
f 123/3/4 119/3/4 124/3/4
f 120/1/4 121/1/4 125/1/4
f 124/5/4 120/5/4 125/5/4
f 125/1/4 121/1/4 126/1/4
f 127/5/4 128/5/4 129/5/4
f 129/5/4 128/5/4 130/5/4
f 131/5/4 132/5/4 133/5/4
f 133/5/4 132/5/4 134/5/4
f 135/5/4 136/5/4 139/5/4
f 136/2/4 137/2/4 140/2/4
f 139/5/4 136/5/4 140/5/4
f 137/4/4 138/4/4 141/4/4
f 140/2/4 137/2/4 141/2/4
f 141/4/4 138/4/4 142/4/4
f 145/5/5 144/5/5 143/5/5
f 146/5/5 144/5/5 145/5/5
f 147/2/5 146/2/5 145/2/5
f 148/2/5 146/2/5 147/2/5
f 149/4/5 148/4/5 147/4/5
f 150/4/5 148/4/5 149/4/5
f 151/2/5 150/2/5 149/2/5
f 152/2/5 150/2/5 151/2/5
f 153/5/5 152/5/5 151/5/5
f 154/5/5 152/5/5 153/5/5
f 155/2/5 154/2/5 153/2/5
f 156/2/5 154/2/5 155/2/5
f 157/5/5 156/5/5 155/5/5
f 158/5/5 156/5/5 157/5/5
f 159/4/6 160/4/6 161/4/6
f 161/4/6 160/4/6 162/4/6
f 163/4/6 164/4/6 165/4/6
f 165/4/6 164/4/6 166/4/6
f 167/6/6 168/6/6 169/6/6
f 169/6/6 168/6/6 170/6/6
f 171/5/6 172/5/6 173/5/6
f 173/5/6 172/5/6 174/5/6
f 175/5/6 176/5/6 177/5/6
f 177/5/6 176/5/6 178/5/6
f 179/5/6 180/5/6 181/5/6
f 181/5/6 180/5/6 182/5/6
f 183/1/6 184/1/6 185/1/6
f 185/1/6 184/1/6 186/1/6
