# MagicaVoxel @ Ephtracy

# group
o Graveyard - Grave Stone - Extras

# material
mtllib Medieval Assets-193-Graveyard - Grave Stone - Extras.mtl
usemtl palette

# normals
vn 0 0 1
vn 0 0 -1
vn 0 -1 0
vn 0 1 0
vn -1 0 0
vn 1 0 0

# texcoords
vt 0.142578 0.5
vt 0.146484 0.5

# verts
v -31.8 0.7 -18.2
v -31.8 0.8 -18.2
v -31.7 0.7 -18.2
v -31.7 0.8 -18.2
v -31.6 0.7 -18.2
v -31.6 0.8 -18.2
v -31.5 0.7 -18.2
v -31.5 0.8 -18.2
v -31.7 0.7 -18.3
v -31.7 0.8 -18.3
v -31.6 0.7 -18.3
v -31.6 0.8 -18.3
v -31.8 0.7 -18.4
v -31.8 0.8 -18.4
v -31.7 0.7 -18.4
v -31.7 0.8 -18.4
v -31.8 0.7 -18.3
v -31.8 0.8 -18.3
v -31.7 0.7 -18.3
v -31.7 0.8 -18.3
v -31.6 0.7 -18.4
v -31.6 0.8 -18.4
v -31.5 0.7 -18.4
v -31.5 0.8 -18.4
v -31.8 0.7 -18.6
v -31.8 0.8 -18.6
v -31.6 0.7 -18.6
v -31.6 0.8 -18.6
v -31.8 0.7 -18.2
v -31.7 0.7 -18.2
v -31.6 0.7 -18.2
v -31.5 0.7 -18.2
v -31.8 0.7 -18.3
v -31.7 0.7 -18.3
v -31.6 0.7 -18.3
v -31.8 0.7 -18.4
v -31.7 0.7 -18.4
v -31.6 0.7 -18.4
v -31.5 0.7 -18.4
v -31.8 0.7 -18.5
v -31.6 0.7 -18.5
v -31.8 0.7 -18.6
v -31.6 0.7 -18.6
v -31.8 0.8 -18.2
v -31.7 0.8 -18.2
v -31.6 0.8 -18.2
v -31.5 0.8 -18.2
v -31.8 0.8 -18.3
v -31.7 0.8 -18.3
v -31.6 0.8 -18.3
v -31.8 0.8 -18.4
v -31.7 0.8 -18.4
v -31.6 0.8 -18.4
v -31.5 0.8 -18.4
v -31.8 0.8 -18.5
v -31.6 0.8 -18.5
v -31.8 0.8 -18.6
v -31.6 0.8 -18.6
v -31.8 0.7 -18.2
v -31.8 0.7 -18.3
v -31.8 0.7 -18.4
v -31.8 0.7 -18.5
v -31.8 0.7 -18.6
v -31.8 0.8 -18.2
v -31.8 0.8 -18.3
v -31.8 0.8 -18.4
v -31.8 0.8 -18.5
v -31.8 0.8 -18.6
v -31.7 0.7 -18.3
v -31.7 0.7 -18.4
v -31.7 0.8 -18.3
v -31.7 0.8 -18.4
v -31.6 0.7 -18.2
v -31.6 0.7 -18.3
v -31.6 0.8 -18.2
v -31.6 0.8 -18.3
v -31.7 0.7 -18.2
v -31.7 0.7 -18.3
v -31.7 0.8 -18.2
v -31.7 0.8 -18.3
v -31.6 0.7 -18.4
v -31.6 0.7 -18.5
v -31.6 0.7 -18.6
v -31.6 0.8 -18.4
v -31.6 0.8 -18.5
v -31.6 0.8 -18.6
v -31.5 0.7 -18.2
v -31.5 0.7 -18.4
v -31.5 0.8 -18.2
v -31.5 0.8 -18.4

# faces
f 3/1/1 2/1/1 1/1/1
f 4/1/1 2/1/1 3/1/1
f 7/2/1 6/2/1 5/2/1
f 8/2/1 6/2/1 7/2/1
f 11/1/1 10/1/1 9/1/1
f 12/1/1 10/1/1 11/1/1
f 15/2/1 14/2/1 13/2/1
f 16/2/1 14/2/1 15/2/1
f 17/1/2 18/1/2 19/1/2
f 19/1/2 18/1/2 20/1/2
f 21/2/2 22/2/2 23/2/2
f 23/2/2 22/2/2 24/2/2
f 25/1/2 26/1/2 27/1/2
f 27/1/2 26/1/2 28/1/2
f 33/1/3 30/1/3 29/1/3
f 34/1/3 30/1/3 33/1/3
f 35/2/3 32/2/3 31/2/3
f 37/1/3 35/1/3 34/1/3
f 38/2/3 32/2/3 35/2/3
f 38/1/3 35/1/3 37/1/3
f 39/2/3 32/2/3 38/2/3
f 40/2/3 37/2/3 36/2/3
f 40/2/3 38/2/3 37/2/3
f 41/2/3 38/2/3 40/2/3
f 42/1/3 41/1/3 40/1/3
f 43/1/3 41/1/3 42/1/3
f 44/1/4 45/1/4 48/1/4
f 48/1/4 45/1/4 49/1/4
f 46/2/4 47/2/4 50/2/4
f 49/1/4 50/1/4 52/1/4
f 50/2/4 47/2/4 53/2/4
f 52/1/4 50/1/4 53/1/4
f 53/2/4 47/2/4 54/2/4
f 51/2/4 52/2/4 55/2/4
f 52/2/4 53/2/4 55/2/4
f 55/2/4 53/2/4 56/2/4
f 55/1/4 56/1/4 57/1/4
f 57/1/4 56/1/4 58/1/4
f 64/1/5 60/1/5 59/1/5
f 65/1/5 60/1/5 64/1/5
f 66/2/5 62/2/5 61/2/5
f 67/1/5 63/1/5 62/1/5
f 67/2/5 62/2/5 66/2/5
f 68/1/5 63/1/5 67/1/5
f 71/1/5 70/1/5 69/1/5
f 72/1/5 70/1/5 71/1/5
f 75/2/5 74/2/5 73/2/5
f 76/2/5 74/2/5 75/2/5
f 77/1/6 78/1/6 79/1/6
f 79/1/6 78/1/6 80/1/6
f 81/2/6 82/2/6 84/2/6
f 82/1/6 83/1/6 85/1/6
f 84/2/6 82/2/6 85/2/6
f 85/1/6 83/1/6 86/1/6
f 87/2/6 88/2/6 89/2/6
f 89/2/6 88/2/6 90/2/6
