# MagicaVoxel @ Ephtracy

# group
o Decoration - Desert - Stone - Variant3

# material
mtllib Medieval Assets-108-Decoration - Desert - Stone - Variant3.mtl
usemtl palette

# normals
vn -1 0 0
vn 1 0 0
vn 0 0 1
vn 0 0 -1
vn 0 -1 0
vn 0 1 0

# texcoords
vt 0.0214844 0.5
vt 0.376953 0.5
vt 0.384766 0.5

# verts
v -25 0.1 -28.6
v -25 0.1 -28.7
v -25 0.1 -29.4
v -25 0.2 -29.3
v -25 0.2 -29.4
v -25 0.3 -28.7
v -25 0.3 -28.9
v -25 0.3 -29.1
v -25 0.3 -29.3
v -25 0.4 -28.6
v -25 0.4 -28.9
v -25 0.4 -29.1
v -25 0.4 -29.4
v -24.9 0 -28.7
v -24.9 0 -29
v -24.9 0 -29.1
v -24.9 0 -29.3
v -24.9 0.1 -28.7
v -24.9 0.1 -29
v -24.9 0.1 -29.1
v -24.9 0.1 -29.3
v -24.9 0.4 -28.7
v -24.9 0.4 -28.9
v -24.9 0.4 -29.1
v -24.9 0.4 -29.2
v -24.9 0.4 -29.3
v -24.9 0.5 -28.7
v -24.9 0.5 -29.2
v -24.9 0.5 -29.3
v -24.3 0 -28.7
v -24.3 0 -29
v -24.3 0 -29.3
v -24.3 0.1 -28.7
v -24.3 0.1 -28.9
v -24.3 0.1 -29
v -24.3 0.1 -29.2
v -24.3 0.1 -29.3
v -24.3 0.4 -28.7
v -24.3 0.4 -28.8
v -24.3 0.4 -28.9
v -24.3 0.4 -29
v -24.3 0.4 -29.1
v -24.3 0.4 -29.3
v -24.3 0.5 -28.7
v -24.3 0.5 -28.8
v -24.3 0.5 -28.9
v -24.3 0.5 -29
v -24.3 0.5 -29.3
v -24.2 0.1 -28.6
v -24.2 0.1 -28.7
v -24.2 0.1 -28.9
v -24.2 0.1 -29.2
v -24.2 0.1 -29.4
v -24.2 0.2 -28.7
v -24.2 0.2 -28.8
v -24.2 0.2 -28.9
v -24.2 0.2 -29.2
v -24.2 0.2 -29.3
v -24.2 0.3 -28.6
v -24.2 0.3 -28.8
v -24.2 0.3 -29.1
v -24.2 0.3 -29.2
v -24.2 0.3 -29.3
v -24.2 0.4 -28.6
v -24.2 0.4 -28.8
v -24.2 0.4 -29.1
v -24.2 0.4 -29.4
v -25 0.1 -28.6
v -25 0.4 -28.6
v -24.9 0.3 -28.6
v -24.9 0.4 -28.6
v -24.7 0.2 -28.6
v -24.7 0.3 -28.6
v -24.5 0.3 -28.6
v -24.5 0.4 -28.6
v -24.4 0.1 -28.6
v -24.4 0.2 -28.6
v -24.4 0.3 -28.6
v -24.4 0.4 -28.6
v -24.3 0.1 -28.6
v -24.3 0.3 -28.6
v -24.2 0.1 -28.6
v -24.2 0.3 -28.6
v -24.2 0.4 -28.6
v -24.9 0 -28.7
v -24.9 0.1 -28.7
v -24.9 0.4 -28.7
v -24.9 0.5 -28.7
v -24.8 0.4 -28.7
v -24.8 0.5 -28.7
v -24.7 0 -28.7
v -24.7 0.1 -28.7
v -24.6 0 -28.7
v -24.6 0.1 -28.7
v -24.5 0.4 -28.7
v -24.4 0 -28.7
v -24.4 0.1 -28.7
v -24.4 0.4 -28.7
v -24.3 0 -28.7
v -24.3 0.1 -28.7
v -24.3 0.4 -28.7
v -24.3 0.5 -28.7
v -24.9 0 -29.3
v -24.9 0.1 -29.3
v -24.9 0.4 -29.3
v -24.9 0.5 -29.3
v -24.7 0 -29.3
v -24.7 0.1 -29.3
v -24.5 0 -29.3
v -24.5 0.1 -29.3
v -24.4 0.1 -29.3
v -24.4 0.4 -29.3
v -24.4 0.5 -29.3
v -24.3 0 -29.3
v -24.3 0.1 -29.3
v -24.3 0.4 -29.3
v -24.3 0.5 -29.3
v -25 0.1 -29.4
v -25 0.2 -29.4
v -25 0.4 -29.4
v -24.9 0.2 -29.4
v -24.9 0.4 -29.4
v -24.8 0.2 -29.4
v -24.8 0.3 -29.4
v -24.5 0.1 -29.4
v -24.5 0.2 -29.4
v -24.5 0.3 -29.4
v -24.4 0.1 -29.4
v -24.4 0.2 -29.4
v -24.2 0.1 -29.4
v -24.2 0.4 -29.4
v -24.9 0 -28.7
v -24.7 0 -28.7
v -24.6 0 -28.7
v -24.4 0 -28.7
v -24.3 0 -28.7
v -24.7 0 -28.9
v -24.6 0 -28.9
v -24.9 0 -29
v -24.8 0 -29
v -24.4 0 -29
v -24.3 0 -29
v -24.9 0 -29.1
v -24.8 0 -29.1
v -24.6 0 -29.1
v -24.8 0 -29.2
v -24.7 0 -29.2
v -24.6 0 -29.2
v -24.5 0 -29.2
v -24.9 0 -29.3
v -24.7 0 -29.3
v -24.5 0 -29.3
v -24.3 0 -29.3
v -25 0.1 -28.6
v -24.4 0.1 -28.6
v -24.3 0.1 -28.6
v -24.2 0.1 -28.6
v -25 0.1 -28.7
v -24.9 0.1 -28.7
v -24.7 0.1 -28.7
v -24.6 0.1 -28.7
v -24.4 0.1 -28.7
v -24.3 0.1 -28.7
v -24.2 0.1 -28.7
v -24.3 0.1 -28.9
v -24.2 0.1 -28.9
v -24.9 0.1 -29
v -24.3 0.1 -29
v -24.9 0.1 -29.1
v -24.3 0.1 -29.2
v -24.2 0.1 -29.2
v -24.9 0.1 -29.3
v -24.7 0.1 -29.3
v -24.5 0.1 -29.3
v -24.4 0.1 -29.3
v -24.3 0.1 -29.3
v -25 0.1 -29.4
v -24.5 0.1 -29.4
v -24.4 0.1 -29.4
v -24.2 0.1 -29.4
v -25 0.4 -28.6
v -24.9 0.4 -28.6
v -24.5 0.4 -28.6
v -24.4 0.4 -28.6
v -24.2 0.4 -28.6
v -24.9 0.4 -28.7
v -24.8 0.4 -28.7
v -24.5 0.4 -28.7
v -24.4 0.4 -28.7
v -24.3 0.4 -28.7
v -24.3 0.4 -28.8
v -24.2 0.4 -28.8
v -25 0.4 -28.9
v -24.9 0.4 -28.9
v -24.3 0.4 -28.9
v -24.3 0.4 -29
v -25 0.4 -29.1
v -24.9 0.4 -29.1
v -24.3 0.4 -29.1
v -24.2 0.4 -29.1
v -24.9 0.4 -29.2
v -24.9 0.4 -29.3
v -24.4 0.4 -29.3
v -24.3 0.4 -29.3
v -25 0.4 -29.4
v -24.9 0.4 -29.4
v -24.2 0.4 -29.4
v -24.9 0.5 -28.7
v -24.8 0.5 -28.7
v -24.3 0.5 -28.7
v -24.6 0.5 -28.8
v -24.3 0.5 -28.8
v -24.8 0.5 -28.9
v -24.6 0.5 -28.9
v -24.3 0.5 -28.9
v -24.7 0.5 -29
v -24.6 0.5 -29
v -24.4 0.5 -29
v -24.3 0.5 -29
v -24.8 0.5 -29.1
v -24.7 0.5 -29.1
v -24.9 0.5 -29.2
v -24.8 0.5 -29.2
v -24.9 0.5 -29.3
v -24.4 0.5 -29.3
v -24.3 0.5 -29.3

# faces
f 4/3/1 3/3/1 2/3/1
f 5/3/1 3/3/1 4/3/1
f 6/2/1 2/2/1 1/2/1
f 6/3/1 4/3/1 2/3/1
f 7/3/1 4/3/1 6/3/1
f 8/3/1 4/3/1 7/3/1
f 9/1/1 5/1/1 4/1/1
f 9/3/1 4/3/1 8/3/1
f 10/2/1 6/2/1 1/2/1
f 10/2/1 7/2/1 6/2/1
f 11/3/1 8/3/1 7/3/1
f 11/2/1 7/2/1 10/2/1
f 12/1/1 9/1/1 8/1/1
f 12/3/1 8/3/1 11/3/1
f 13/1/1 5/1/1 9/1/1
f 13/1/1 9/1/1 12/1/1
f 18/3/1 15/3/1 14/3/1
f 19/2/1 16/2/1 15/2/1
f 19/3/1 15/3/1 18/3/1
f 20/3/1 17/3/1 16/3/1
f 20/2/1 16/2/1 19/2/1
f 21/3/1 17/3/1 20/3/1
f 27/2/1 23/2/1 22/2/1
f 27/2/1 24/2/1 23/2/1
f 27/2/1 25/2/1 24/2/1
f 28/3/1 26/3/1 25/3/1
f 28/2/1 25/2/1 27/2/1
f 29/3/1 26/3/1 28/3/1
f 30/2/2 31/2/2 33/2/2
f 33/2/2 31/2/2 34/2/2
f 31/3/2 32/3/2 35/3/2
f 34/2/2 31/2/2 35/2/2
f 35/3/2 32/3/2 36/3/2
f 36/3/2 32/3/2 37/3/2
f 38/3/2 39/3/2 44/3/2
f 39/2/2 40/2/2 45/2/2
f 44/3/2 39/3/2 45/3/2
f 40/3/2 41/3/2 46/3/2
f 45/2/2 40/2/2 46/2/2
f 42/1/2 43/1/2 47/1/2
f 46/3/2 41/3/2 47/3/2
f 41/1/2 42/1/2 47/1/2
f 47/1/2 43/1/2 48/1/2
f 49/2/2 50/2/2 54/2/2
f 50/3/2 51/3/2 54/3/2
f 54/3/2 51/3/2 55/3/2
f 51/2/2 52/2/2 56/2/2
f 55/3/2 51/3/2 56/3/2
f 52/3/2 53/3/2 57/3/2
f 56/2/2 52/2/2 57/2/2
f 57/3/2 53/3/2 58/3/2
f 54/2/2 55/2/2 59/2/2
f 49/2/2 54/2/2 59/2/2
f 55/3/2 56/3/2 60/3/2
f 59/2/2 55/2/2 60/2/2
f 56/3/2 57/3/2 60/3/2
f 60/3/2 57/3/2 61/3/2
f 57/2/2 58/2/2 62/2/2
f 61/3/2 57/3/2 62/3/2
f 58/3/2 53/3/2 63/3/2
f 62/2/2 58/2/2 63/2/2
f 59/3/2 60/3/2 64/3/2
f 60/1/2 61/1/2 65/1/2
f 64/3/2 60/3/2 65/3/2
f 61/3/2 62/3/2 66/3/2
f 65/1/2 61/1/2 66/1/2
f 62/3/2 63/3/2 66/3/2
f 63/3/2 53/3/2 67/3/2
f 66/3/2 63/3/2 67/3/2
f 70/2/3 69/2/3 68/2/3
f 71/2/3 69/2/3 70/2/3
f 72/2/3 70/2/3 68/2/3
f 73/3/3 71/3/3 70/3/3
f 73/2/3 70/2/3 72/2/3
f 74/3/3 73/3/3 72/3/3
f 74/3/3 71/3/3 73/3/3
f 75/3/3 71/3/3 74/3/3
f 76/2/3 72/2/3 68/2/3
f 77/3/3 74/3/3 72/3/3
f 77/2/3 72/2/3 76/2/3
f 78/2/3 75/2/3 74/2/3
f 78/3/3 74/3/3 77/3/3
f 79/2/3 75/2/3 78/2/3
f 80/3/3 77/3/3 76/3/3
f 80/3/3 78/3/3 77/3/3
f 80/3/3 79/3/3 78/3/3
f 81/3/3 79/3/3 80/3/3
f 82/2/3 81/2/3 80/2/3
f 83/3/3 79/3/3 81/3/3
f 83/2/3 81/2/3 82/2/3
f 84/3/3 79/3/3 83/3/3
f 89/2/3 88/2/3 87/2/3
f 90/2/3 88/2/3 89/2/3
f 91/3/3 86/3/3 85/3/3
f 92/3/3 86/3/3 91/3/3
f 93/2/3 92/2/3 91/2/3
f 94/2/3 92/2/3 93/2/3
f 95/3/3 90/3/3 89/3/3
f 96/3/3 94/3/3 93/3/3
f 97/3/3 94/3/3 96/3/3
f 98/3/3 90/3/3 95/3/3
f 99/2/3 97/2/3 96/2/3
f 100/2/3 97/2/3 99/2/3
f 101/3/3 90/3/3 98/3/3
f 102/3/3 90/3/3 101/3/3
f 103/3/4 104/3/4 107/3/4
f 107/3/4 104/3/4 108/3/4
f 107/2/4 108/2/4 109/2/4
f 109/2/4 108/2/4 110/2/4
f 109/3/4 110/3/4 111/3/4
f 105/3/4 106/3/4 112/3/4
f 112/3/4 106/3/4 113/3/4
f 109/3/4 111/3/4 114/3/4
f 114/3/4 111/3/4 115/3/4
f 112/1/4 113/1/4 116/1/4
f 116/1/4 113/1/4 117/1/4
f 118/3/4 119/3/4 121/3/4
f 119/1/4 120/1/4 121/1/4
f 121/1/4 120/1/4 122/1/4
f 118/3/4 121/3/4 123/3/4
f 121/3/4 122/3/4 123/3/4
f 123/3/4 122/3/4 124/3/4
f 118/3/4 123/3/4 125/3/4
f 123/2/4 124/2/4 126/2/4
f 125/3/4 123/3/4 126/3/4
f 124/3/4 122/3/4 127/3/4
f 126/2/4 124/2/4 127/2/4
f 125/2/4 126/2/4 128/2/4
f 126/3/4 127/3/4 129/3/4
f 128/2/4 126/2/4 129/2/4
f 128/3/4 129/3/4 130/3/4
f 127/3/4 122/3/4 131/3/4
f 130/3/4 129/3/4 131/3/4
f 129/3/4 127/3/4 131/3/4
f 137/3/5 133/3/5 132/3/5
f 137/2/5 134/2/5 133/2/5
f 138/3/5 135/3/5 134/3/5
f 138/2/5 134/2/5 137/2/5
f 139/3/5 137/3/5 132/3/5
f 139/3/5 138/3/5 137/3/5
f 140/3/5 138/3/5 139/3/5
f 141/2/5 136/2/5 135/2/5
f 141/3/5 138/3/5 140/3/5
f 141/3/5 135/3/5 138/3/5
f 142/2/5 136/2/5 141/2/5
f 143/2/5 140/2/5 139/2/5
f 144/3/5 141/3/5 140/3/5
f 144/2/5 140/2/5 143/2/5
f 144/3/5 142/3/5 141/3/5
f 145/3/5 142/3/5 144/3/5
f 146/3/5 144/3/5 143/3/5
f 146/2/5 145/2/5 144/2/5
f 147/2/5 145/2/5 146/2/5
f 148/3/5 142/3/5 145/3/5
f 148/2/5 145/2/5 147/2/5
f 149/3/5 142/3/5 148/3/5
f 150/3/5 147/3/5 146/3/5
f 150/3/5 146/3/5 143/3/5
f 151/2/5 149/2/5 148/2/5
f 151/3/5 147/3/5 150/3/5
f 151/2/5 148/2/5 147/2/5
f 152/3/5 142/3/5 149/3/5
f 152/2/5 149/2/5 151/2/5
f 153/3/5 142/3/5 152/3/5
f 158/2/5 155/2/5 154/2/5
f 159/2/5 155/2/5 158/2/5
f 160/2/5 155/2/5 159/2/5
f 161/2/5 155/2/5 160/2/5
f 162/3/5 156/3/5 155/3/5
f 162/2/5 155/2/5 161/2/5
f 163/2/5 157/2/5 156/2/5
f 163/3/5 156/3/5 162/3/5
f 164/2/5 157/2/5 163/2/5
f 165/3/5 164/3/5 163/3/5
f 166/3/5 164/3/5 165/3/5
f 167/3/5 159/3/5 158/3/5
f 168/2/5 166/2/5 165/2/5
f 169/3/5 167/3/5 158/3/5
f 170/2/5 166/2/5 168/2/5
f 171/2/5 166/2/5 170/2/5
f 172/3/5 169/3/5 158/3/5
f 176/3/5 171/3/5 170/3/5
f 177/3/5 172/3/5 158/3/5
f 177/3/5 173/3/5 172/3/5
f 177/3/5 174/3/5 173/3/5
f 178/2/5 175/2/5 174/2/5
f 178/3/5 174/3/5 177/3/5
f 179/3/5 176/3/5 175/3/5
f 179/2/5 175/2/5 178/2/5
f 180/3/5 171/3/5 176/3/5
f 180/3/5 176/3/5 179/3/5
f 181/2/6 182/2/6 186/2/6
f 182/3/6 183/3/6 186/3/6
f 186/3/6 183/3/6 187/3/6
f 183/2/6 184/2/6 188/2/6
f 187/3/6 183/3/6 188/3/6
f 184/3/6 185/3/6 189/3/6
f 188/2/6 184/2/6 189/2/6
f 189/3/6 185/3/6 190/3/6
f 190/3/6 185/3/6 191/3/6
f 191/3/6 185/3/6 192/3/6
f 181/2/6 186/2/6 193/2/6
f 193/2/6 186/2/6 194/2/6
f 191/1/6 192/1/6 195/1/6
f 195/1/6 192/1/6 196/1/6
f 193/3/6 194/3/6 197/3/6
f 197/3/6 194/3/6 198/3/6
f 196/1/6 192/1/6 199/1/6
f 199/1/6 192/1/6 200/1/6
f 197/1/6 198/1/6 201/1/6
f 197/1/6 201/1/6 202/1/6
f 199/3/6 200/3/6 204/3/6
f 197/1/6 202/1/6 205/1/6
f 202/3/6 203/3/6 206/3/6
f 205/1/6 202/1/6 206/1/6
f 203/3/6 204/3/6 206/3/6
f 204/3/6 200/3/6 207/3/6
f 206/3/6 204/3/6 207/3/6
f 209/3/6 210/3/6 211/3/6
f 211/3/6 210/3/6 212/3/6
f 208/2/6 209/2/6 213/2/6
f 209/3/6 211/3/6 213/3/6
f 211/2/6 212/2/6 214/2/6
f 213/3/6 211/3/6 214/3/6
f 214/2/6 212/2/6 215/2/6
f 213/2/6 214/2/6 216/2/6
f 214/3/6 215/3/6 217/3/6
f 216/2/6 214/2/6 217/2/6
f 217/3/6 215/3/6 218/3/6
f 218/3/6 215/3/6 219/3/6
f 208/2/6 213/2/6 220/2/6
f 213/2/6 216/2/6 220/2/6
f 216/3/6 217/3/6 221/3/6
f 220/2/6 216/2/6 221/2/6
f 217/3/6 218/3/6 221/3/6
f 208/2/6 220/2/6 222/2/6
f 220/3/6 221/3/6 223/3/6
f 222/2/6 220/2/6 223/2/6
f 222/3/6 223/3/6 224/3/6
f 218/1/6 219/1/6 225/1/6
f 224/3/6 223/3/6 225/3/6
f 221/3/6 218/3/6 225/3/6
f 223/3/6 221/3/6 225/3/6
f 225/1/6 219/1/6 226/1/6
