# MagicaVoxel @ Ephtracy

# group
o Decoration - Poll - Variant5

# material
mtllib Medieval Assets-81-Decoration - Poll - Variant5.mtl
usemtl palette

# normals
vn -1 0 0
vn 1 0 0
vn 0 0 1
vn 0 0 -1
vn 0 -1 0
vn 0 1 0

# texcoords
vt 0.00976562 0.5
vt 0.0136719 0.5
vt 0.0175781 0.5

# verts
v 11.4 0 1.4
v 11.4 0 1.3
v 11.4 0.3 1.4
v 11.4 0.3 1.3
v 11.4 0.6 1.4
v 11.4 0.6 1.3
v 11.4 0.8 1.4
v 11.4 0.8 1.3
v 11.4 1.2 1.4
v 11.4 1.2 1.3
v 11.4 1.5 1.4
v 11.4 1.5 1.3
v 11.4 2 1.4
v 11.4 2 1.3
v 11.4 2.7 1.4
v 11.4 2.7 1.3
v 11.4 4 1.4
v 11.4 4 1.3
v 11.4 4.1 1.4
v 11.4 4.1 1.3
v 11.4 4.3 1.4
v 11.4 4.3 1.3
v 11.4 4.9 1.4
v 11.4 4.9 1.3
v 11.4 5 1.4
v 11.4 5 1.3
v 11.4 5.2 1.4
v 11.4 5.2 1.3
v 11.4 5.6 1.4
v 11.4 5.6 1.3
v 11.4 5.8 1.4
v 11.4 5.8 1.3
v 11.4 5.9 1.4
v 11.4 5.9 1.3
v 11.5 0 1.5
v 11.5 0 1.4
v 11.5 0 1.3
v 11.5 0 1.2
v 11.5 0.1 1.5
v 11.5 0.1 1.4
v 11.5 0.2 1.5
v 11.5 0.2 1.4
v 11.5 0.2 1.3
v 11.5 0.2 1.2
v 11.5 0.3 1.4
v 11.5 0.3 1.3
v 11.5 0.3 1.2
v 11.5 0.6 1.4
v 11.5 0.6 1.3
v 11.5 0.8 1.4
v 11.5 0.8 1.3
v 11.5 0.8 1.2
v 11.5 1 1.5
v 11.5 1 1.4
v 11.5 1 1.3
v 11.5 1 1.2
v 11.5 1.2 1.4
v 11.5 1.2 1.3
v 11.5 1.2 1.2
v 11.5 1.5 1.4
v 11.5 1.5 1.3
v 11.5 1.5 1.2
v 11.5 1.6 1.5
v 11.5 1.6 1.4
v 11.5 1.7 1.3
v 11.5 1.7 1.2
v 11.5 1.8 1.3
v 11.5 1.8 1.2
v 11.5 1.9 1.5
v 11.5 1.9 1.4
v 11.5 2 1.4
v 11.5 2 1.3
v 11.5 2 1.2
v 11.5 2.1 1.5
v 11.5 2.1 1.4
v 11.5 2.1 1.3
v 11.5 2.1 1.2
v 11.5 2.7 1.4
v 11.5 2.7 1.3
v 11.5 2.8 1.3
v 11.5 2.8 1.2
v 11.5 3 1.3
v 11.5 3 1.2
v 11.5 3.1 1.5
v 11.5 3.1 1.4
v 11.5 3.1 1.3
v 11.5 3.1 1.2
v 11.5 3.3 1.3
v 11.5 3.3 1.2
v 11.5 3.6 1.3
v 11.5 3.6 1.2
v 11.5 3.8 1.5
v 11.5 3.8 1.4
v 11.5 4 1.5
v 11.5 4 1.4
v 11.5 4 1.3
v 11.5 4 1.2
v 11.5 4.1 1.4
v 11.5 4.1 1.3
v 11.5 4.2 1.5
v 11.5 4.2 1.4
v 11.5 4.3 1.4
v 11.5 4.3 1.3
v 11.5 4.3 1.2
v 11.5 4.4 1.5
v 11.5 4.4 1.4
v 11.5 4.6 1.3
v 11.5 4.6 1.2
v 11.5 4.7 1.5
v 11.5 4.7 1.4
v 11.5 4.7 1.3
v 11.5 4.7 1.2
v 11.5 4.8 1.5
v 11.5 4.8 1.4
v 11.5 4.9 1.5
v 11.5 4.9 1.4
v 11.5 4.9 1.3
v 11.5 5 1.5
v 11.5 5 1.4
v 11.5 5 1.3
v 11.5 5 1.2
v 11.5 5.1 1.5
v 11.5 5.1 1.4
v 11.5 5.2 1.4
v 11.5 5.2 1.3
v 11.5 5.2 1.2
v 11.5 5.3 1.5
v 11.5 5.3 1.4
v 11.5 5.6 1.4
v 11.5 5.6 1.3
v 11.5 5.6 1.2
v 11.5 5.8 1.4
v 11.5 5.8 1.3
v 11.5 5.8 1.2
v 11.5 5.9 1.5
v 11.5 5.9 1.4
v 11.5 5.9 1.3
v 11.5 5.9 1.2
v 11.5 6 1.4
v 11.5 6 1.3
v 11.6 0 1.5
v 11.6 0 1.4
v 11.6 0 1.3
v 11.6 0 1.2
v 11.6 0.1 1.5
v 11.6 0.1 1.4
v 11.6 0.2 1.5
v 11.6 0.2 1.4
v 11.6 0.2 1.3
v 11.6 0.2 1.2
v 11.6 0.3 1.3
v 11.6 0.3 1.2
v 11.6 0.8 1.4
v 11.6 0.8 1.3
v 11.6 0.8 1.2
v 11.6 1 1.5
v 11.6 1 1.4
v 11.6 1 1.3
v 11.6 1 1.2
v 11.6 1.2 1.3
v 11.6 1.2 1.2
v 11.6 1.5 1.4
v 11.6 1.5 1.3
v 11.6 1.5 1.2
v 11.6 1.6 1.5
v 11.6 1.6 1.4
v 11.6 1.7 1.4
v 11.6 1.7 1.3
v 11.6 1.7 1.2
v 11.6 1.8 1.4
v 11.6 1.8 1.3
v 11.6 1.8 1.2
v 11.6 1.9 1.5
v 11.6 1.9 1.4
v 11.6 2 1.4
v 11.6 2 1.3
v 11.6 2 1.2
v 11.6 2.1 1.5
v 11.6 2.1 1.4
v 11.6 2.1 1.3
v 11.6 2.1 1.2
v 11.6 2.2 1.4
v 11.6 2.2 1.3
v 11.6 2.7 1.4
v 11.6 2.7 1.3
v 11.6 2.8 1.4
v 11.6 2.8 1.3
v 11.6 2.8 1.2
v 11.6 2.9 1.4
v 11.6 2.9 1.3
v 11.6 3 1.3
v 11.6 3 1.2
v 11.6 3.1 1.5
v 11.6 3.1 1.4
v 11.6 3.1 1.3
v 11.6 3.1 1.2
v 11.6 3.2 1.4
v 11.6 3.2 1.3
v 11.6 3.3 1.3
v 11.6 3.3 1.2
v 11.6 3.5 1.4
v 11.6 3.5 1.3
v 11.6 3.6 1.3
v 11.6 3.6 1.2
v 11.6 3.8 1.5
v 11.6 3.8 1.4
v 11.6 4 1.5
v 11.6 4 1.4
v 11.6 4 1.3
v 11.6 4 1.2
v 11.6 4.2 1.5
v 11.6 4.2 1.4
v 11.6 4.2 1.3
v 11.6 4.3 1.3
v 11.6 4.3 1.2
v 11.6 4.4 1.5
v 11.6 4.4 1.4
v 11.6 4.4 1.3
v 11.6 4.6 1.3
v 11.6 4.6 1.2
v 11.6 4.7 1.5
v 11.6 4.7 1.4
v 11.6 4.7 1.3
v 11.6 4.7 1.2
v 11.6 4.8 1.5
v 11.6 4.8 1.4
v 11.6 4.9 1.5
v 11.6 4.9 1.4
v 11.6 5 1.5
v 11.6 5 1.4
v 11.6 5 1.3
v 11.6 5 1.2
v 11.6 5.1 1.5
v 11.6 5.1 1.4
v 11.6 5.2 1.3
v 11.6 5.2 1.2
v 11.6 5.3 1.5
v 11.6 5.3 1.4
v 11.6 5.4 1.4
v 11.6 5.4 1.3
v 11.6 5.6 1.3
v 11.6 5.6 1.2
v 11.6 5.8 1.4
v 11.6 5.8 1.3
v 11.6 5.8 1.2
v 11.6 5.9 1.5
v 11.6 5.9 1.4
v 11.6 5.9 1.3
v 11.6 5.9 1.2
v 11.6 6 1.4
v 11.6 6 1.3
v 11.7 0 1.4
v 11.7 0 1.3
v 11.7 0.8 1.4
v 11.7 0.8 1.3
v 11.7 1.5 1.4
v 11.7 1.5 1.3
v 11.7 1.7 1.4
v 11.7 1.7 1.3
v 11.7 1.8 1.4
v 11.7 1.8 1.3
v 11.7 2 1.4
v 11.7 2 1.3
v 11.7 2.2 1.4
v 11.7 2.2 1.3
v 11.7 2.7 1.4
v 11.7 2.7 1.3
v 11.7 2.8 1.4
v 11.7 2.8 1.3
v 11.7 2.9 1.4
v 11.7 2.9 1.3
v 11.7 3.2 1.4
v 11.7 3.2 1.3
v 11.7 3.5 1.4
v 11.7 3.5 1.3
v 11.7 4 1.4
v 11.7 4 1.3
v 11.7 4.2 1.4
v 11.7 4.2 1.3
v 11.7 4.4 1.4
v 11.7 4.4 1.3
v 11.7 4.7 1.4
v 11.7 4.7 1.3
v 11.7 5.4 1.4
v 11.7 5.4 1.3
v 11.7 5.8 1.4
v 11.7 5.8 1.3
v 11.7 5.9 1.4
v 11.7 5.9 1.3
v 11.5 0 1.5
v 11.5 0.1 1.5
v 11.5 0.2 1.5
v 11.5 1 1.5
v 11.5 1.6 1.5
v 11.5 1.9 1.5
v 11.5 2.1 1.5
v 11.5 3.1 1.5
v 11.5 3.8 1.5
v 11.5 4 1.5
v 11.5 4.2 1.5
v 11.5 4.4 1.5
v 11.5 4.7 1.5
v 11.5 4.8 1.5
v 11.5 4.9 1.5
v 11.5 5 1.5
v 11.5 5.1 1.5
v 11.5 5.3 1.5
v 11.5 5.9 1.5
v 11.6 0 1.5
v 11.6 0.1 1.5
v 11.6 0.2 1.5
v 11.6 1 1.5
v 11.6 1.6 1.5
v 11.6 1.9 1.5
v 11.6 2.1 1.5
v 11.6 3.1 1.5
v 11.6 3.8 1.5
v 11.6 4 1.5
v 11.6 4.2 1.5
v 11.6 4.4 1.5
v 11.6 4.7 1.5
v 11.6 4.8 1.5
v 11.6 4.9 1.5
v 11.6 5 1.5
v 11.6 5.1 1.5
v 11.6 5.3 1.5
v 11.6 5.9 1.5
v 11.4 0 1.4
v 11.4 0.3 1.4
v 11.4 0.6 1.4
v 11.4 0.8 1.4
v 11.4 1.2 1.4
v 11.4 1.5 1.4
v 11.4 2 1.4
v 11.4 2.7 1.4
v 11.4 4 1.4
v 11.4 4.1 1.4
v 11.4 4.3 1.4
v 11.4 4.9 1.4
v 11.4 5 1.4
v 11.4 5.2 1.4
v 11.4 5.6 1.4
v 11.4 5.8 1.4
v 11.4 5.9 1.4
v 11.5 0 1.4
v 11.5 0.1 1.4
v 11.5 0.2 1.4
v 11.5 0.3 1.4
v 11.5 0.6 1.4
v 11.5 0.8 1.4
v 11.5 1 1.4
v 11.5 1.2 1.4
v 11.5 1.5 1.4
v 11.5 1.6 1.4
v 11.5 1.9 1.4
v 11.5 2 1.4
v 11.5 2.1 1.4
v 11.5 2.7 1.4
v 11.5 3.1 1.4
v 11.5 3.8 1.4
v 11.5 4 1.4
v 11.5 4.1 1.4
v 11.5 4.2 1.4
v 11.5 4.3 1.4
v 11.5 4.4 1.4
v 11.5 4.7 1.4
v 11.5 4.8 1.4
v 11.5 4.9 1.4
v 11.5 5 1.4
v 11.5 5.1 1.4
v 11.5 5.2 1.4
v 11.5 5.3 1.4
v 11.5 5.6 1.4
v 11.5 5.8 1.4
v 11.5 5.9 1.4
v 11.5 6 1.4
v 11.6 0 1.4
v 11.6 0.1 1.4
v 11.6 0.2 1.4
v 11.6 0.8 1.4
v 11.6 1 1.4
v 11.6 1.5 1.4
v 11.6 1.6 1.4
v 11.6 1.7 1.4
v 11.6 1.8 1.4
v 11.6 1.9 1.4
v 11.6 2 1.4
v 11.6 2.1 1.4
v 11.6 2.2 1.4
v 11.6 2.7 1.4
v 11.6 2.8 1.4
v 11.6 2.9 1.4
v 11.6 3.1 1.4
v 11.6 3.2 1.4
v 11.6 3.5 1.4
v 11.6 3.8 1.4
v 11.6 4 1.4
v 11.6 4.2 1.4
v 11.6 4.4 1.4
v 11.6 4.7 1.4
v 11.6 4.8 1.4
v 11.6 4.9 1.4
v 11.6 5 1.4
v 11.6 5.1 1.4
v 11.6 5.3 1.4
v 11.6 5.4 1.4
v 11.6 5.8 1.4
v 11.6 5.9 1.4
v 11.6 6 1.4
v 11.7 0 1.4
v 11.7 0.8 1.4
v 11.7 1.5 1.4
v 11.7 1.7 1.4
v 11.7 1.8 1.4
v 11.7 2 1.4
v 11.7 2.2 1.4
v 11.7 2.7 1.4
v 11.7 2.8 1.4
v 11.7 2.9 1.4
v 11.7 3.2 1.4
v 11.7 3.5 1.4
v 11.7 4 1.4
v 11.7 4.2 1.4
v 11.7 4.4 1.4
v 11.7 4.7 1.4
v 11.7 5.4 1.4
v 11.7 5.8 1.4
v 11.7 5.9 1.4
v 11.4 0 1.3
v 11.4 0.3 1.3
v 11.4 0.6 1.3
v 11.4 0.8 1.3
v 11.4 1.2 1.3
v 11.4 1.5 1.3
v 11.4 2 1.3
v 11.4 2.7 1.3
v 11.4 4 1.3
v 11.4 4.1 1.3
v 11.4 4.3 1.3
v 11.4 4.9 1.3
v 11.4 5 1.3
v 11.4 5.2 1.3
v 11.4 5.6 1.3
v 11.4 5.8 1.3
v 11.4 5.9 1.3
v 11.5 0 1.3
v 11.5 0.2 1.3
v 11.5 0.3 1.3
v 11.5 0.6 1.3
v 11.5 0.8 1.3
v 11.5 1 1.3
v 11.5 1.2 1.3
v 11.5 1.5 1.3
v 11.5 1.7 1.3
v 11.5 1.8 1.3
v 11.5 2 1.3
v 11.5 2.1 1.3
v 11.5 2.7 1.3
v 11.5 2.8 1.3
v 11.5 3 1.3
v 11.5 3.1 1.3
v 11.5 3.3 1.3
v 11.5 3.6 1.3
v 11.5 4 1.3
v 11.5 4.1 1.3
v 11.5 4.3 1.3
v 11.5 4.6 1.3
v 11.5 4.7 1.3
v 11.5 4.9 1.3
v 11.5 5 1.3
v 11.5 5.2 1.3
v 11.5 5.6 1.3
v 11.5 5.8 1.3
v 11.5 5.9 1.3
v 11.5 6 1.3
v 11.6 0 1.3
v 11.6 0.2 1.3
v 11.6 0.3 1.3
v 11.6 0.8 1.3
v 11.6 1 1.3
v 11.6 1.2 1.3
v 11.6 1.5 1.3
v 11.6 1.7 1.3
v 11.6 1.8 1.3
v 11.6 2 1.3
v 11.6 2.1 1.3
v 11.6 2.2 1.3
v 11.6 2.7 1.3
v 11.6 2.8 1.3
v 11.6 2.9 1.3
v 11.6 3 1.3
v 11.6 3.1 1.3
v 11.6 3.2 1.3
v 11.6 3.3 1.3
v 11.6 3.5 1.3
v 11.6 3.6 1.3
v 11.6 4 1.3
v 11.6 4.2 1.3
v 11.6 4.3 1.3
v 11.6 4.4 1.3
v 11.6 4.6 1.3
v 11.6 4.7 1.3
v 11.6 5 1.3
v 11.6 5.2 1.3
v 11.6 5.4 1.3
v 11.6 5.6 1.3
v 11.6 5.8 1.3
v 11.6 5.9 1.3
v 11.6 6 1.3
v 11.7 0 1.3
v 11.7 0.8 1.3
v 11.7 1.5 1.3
v 11.7 1.7 1.3
v 11.7 1.8 1.3
v 11.7 2 1.3
v 11.7 2.2 1.3
v 11.7 2.7 1.3
v 11.7 2.8 1.3
v 11.7 2.9 1.3
v 11.7 3.2 1.3
v 11.7 3.5 1.3
v 11.7 4 1.3
v 11.7 4.2 1.3
v 11.7 4.4 1.3
v 11.7 4.7 1.3
v 11.7 5.4 1.3
v 11.7 5.8 1.3
v 11.7 5.9 1.3
v 11.5 0 1.2
v 11.5 0.2 1.2
v 11.5 0.3 1.2
v 11.5 0.8 1.2
v 11.5 1 1.2
v 11.5 1.2 1.2
v 11.5 1.5 1.2
v 11.5 1.7 1.2
v 11.5 1.8 1.2
v 11.5 2 1.2
v 11.5 2.1 1.2
v 11.5 2.8 1.2
v 11.5 3 1.2
v 11.5 3.1 1.2
v 11.5 3.3 1.2
v 11.5 3.6 1.2
v 11.5 4 1.2
v 11.5 4.3 1.2
v 11.5 4.6 1.2
v 11.5 4.7 1.2
v 11.5 5 1.2
v 11.5 5.2 1.2
v 11.5 5.6 1.2
v 11.5 5.8 1.2
v 11.5 5.9 1.2
v 11.6 0 1.2
v 11.6 0.2 1.2
v 11.6 0.3 1.2
v 11.6 0.8 1.2
v 11.6 1 1.2
v 11.6 1.2 1.2
v 11.6 1.5 1.2
v 11.6 1.7 1.2
v 11.6 1.8 1.2
v 11.6 2 1.2
v 11.6 2.1 1.2
v 11.6 2.8 1.2
v 11.6 3 1.2
v 11.6 3.1 1.2
v 11.6 3.3 1.2
v 11.6 3.6 1.2
v 11.6 4 1.2
v 11.6 4.3 1.2
v 11.6 4.6 1.2
v 11.6 4.7 1.2
v 11.6 5 1.2
v 11.6 5.2 1.2
v 11.6 5.6 1.2
v 11.6 5.8 1.2
v 11.6 5.9 1.2
v 11.5 0 1.5
v 11.6 0 1.5
v 11.4 0 1.4
v 11.5 0 1.4
v 11.6 0 1.4
v 11.7 0 1.4
v 11.4 0 1.3
v 11.5 0 1.3
v 11.6 0 1.3
v 11.7 0 1.3
v 11.5 0 1.2
v 11.6 0 1.2
v 11.5 5.9 1.5
v 11.6 5.9 1.5
v 11.4 5.9 1.4
v 11.5 5.9 1.4
v 11.6 5.9 1.4
v 11.7 5.9 1.4
v 11.4 5.9 1.3
v 11.5 5.9 1.3
v 11.6 5.9 1.3
v 11.7 5.9 1.3
v 11.5 5.9 1.2
v 11.6 5.9 1.2
v 11.5 6 1.4
v 11.6 6 1.4
v 11.5 6 1.3
v 11.6 6 1.3

# faces
f 3/1/1 2/1/1 1/1/1
f 4/1/1 2/1/1 3/1/1
f 5/3/1 4/3/1 3/3/1
f 6/3/1 4/3/1 5/3/1
f 7/1/1 6/1/1 5/1/1
f 8/1/1 6/1/1 7/1/1
f 9/3/1 8/3/1 7/3/1
f 10/3/1 8/3/1 9/3/1
f 11/2/1 10/2/1 9/2/1
f 12/2/1 10/2/1 11/2/1
f 13/1/1 12/1/1 11/1/1
f 14/1/1 12/1/1 13/1/1
f 15/3/1 14/3/1 13/3/1
f 16/3/1 14/3/1 15/3/1
f 17/1/1 16/1/1 15/1/1
f 18/1/1 16/1/1 17/1/1
f 19/3/1 18/3/1 17/3/1
f 20/3/1 18/3/1 19/3/1
f 21/1/1 20/1/1 19/1/1
f 22/1/1 20/1/1 21/1/1
f 23/2/1 22/2/1 21/2/1
f 24/2/1 22/2/1 23/2/1
f 25/1/1 24/1/1 23/1/1
f 26/1/1 24/1/1 25/1/1
f 27/2/1 26/2/1 25/2/1
f 28/2/1 26/2/1 27/2/1
f 29/1/1 28/1/1 27/1/1
f 30/1/1 28/1/1 29/1/1
f 31/3/1 30/3/1 29/3/1
f 32/3/1 30/3/1 31/3/1
f 33/2/1 32/2/1 31/2/1
f 34/2/1 32/2/1 33/2/1
f 39/1/1 36/1/1 35/1/1
f 40/1/1 36/1/1 39/1/1
f 41/3/1 40/3/1 39/3/1
f 42/3/1 40/3/1 41/3/1
f 43/2/1 38/2/1 37/2/1
f 44/2/1 38/2/1 43/2/1
f 45/2/1 42/2/1 41/2/1
f 46/1/1 44/1/1 43/1/1
f 47/1/1 44/1/1 46/1/1
f 48/2/1 45/2/1 41/2/1
f 49/2/1 47/2/1 46/2/1
f 50/2/1 48/2/1 41/2/1
f 51/2/1 47/2/1 49/2/1
f 52/2/1 47/2/1 51/2/1
f 53/2/1 50/2/1 41/2/1
f 54/2/1 50/2/1 53/2/1
f 55/1/1 52/1/1 51/1/1
f 56/1/1 52/1/1 55/1/1
f 57/1/1 54/1/1 53/1/1
f 58/3/1 56/3/1 55/3/1
f 59/3/1 56/3/1 58/3/1
f 60/1/1 57/1/1 53/1/1
f 61/2/1 59/2/1 58/2/1
f 62/2/1 59/2/1 61/2/1
f 63/1/1 60/1/1 53/1/1
f 64/1/1 60/1/1 63/1/1
f 65/1/1 62/1/1 61/1/1
f 66/1/1 62/1/1 65/1/1
f 67/3/1 66/3/1 65/3/1
f 68/3/1 66/3/1 67/3/1
f 69/2/1 64/2/1 63/2/1
f 70/2/1 64/2/1 69/2/1
f 71/1/1 70/1/1 69/1/1
f 72/1/1 68/1/1 67/1/1
f 73/1/1 68/1/1 72/1/1
f 74/1/1 71/1/1 69/1/1
f 75/1/1 71/1/1 74/1/1
f 76/2/1 73/2/1 72/2/1
f 77/2/1 73/2/1 76/2/1
f 78/2/1 75/2/1 74/2/1
f 79/3/1 77/3/1 76/3/1
f 80/3/1 77/3/1 79/3/1
f 81/3/1 77/3/1 80/3/1
f 82/1/1 81/1/1 80/1/1
f 83/1/1 81/1/1 82/1/1
f 84/2/1 78/2/1 74/2/1
f 85/2/1 78/2/1 84/2/1
f 86/2/1 83/2/1 82/2/1
f 87/2/1 83/2/1 86/2/1
f 88/3/1 87/3/1 86/3/1
f 89/3/1 87/3/1 88/3/1
f 90/2/1 89/2/1 88/2/1
f 91/2/1 89/2/1 90/2/1
f 92/1/1 85/1/1 84/1/1
f 93/1/1 85/1/1 92/1/1
f 94/3/1 93/3/1 92/3/1
f 95/3/1 93/3/1 94/3/1
f 96/1/1 91/1/1 90/1/1
f 97/1/1 91/1/1 96/1/1
f 98/1/1 95/1/1 94/1/1
f 99/2/1 97/2/1 96/2/1
f 100/1/1 98/1/1 94/1/1
f 101/1/1 98/1/1 100/1/1
f 102/3/1 101/3/1 100/3/1
f 103/2/1 97/2/1 99/2/1
f 104/2/1 97/2/1 103/2/1
f 105/3/1 102/3/1 100/3/1
f 106/3/1 102/3/1 105/3/1
f 107/3/1 104/3/1 103/3/1
f 108/3/1 104/3/1 107/3/1
f 109/2/1 106/2/1 105/2/1
f 110/2/1 106/2/1 109/2/1
f 111/2/1 108/2/1 107/2/1
f 112/2/1 108/2/1 111/2/1
f 113/1/1 110/1/1 109/1/1
f 114/1/1 110/1/1 113/1/1
f 115/2/1 114/2/1 113/2/1
f 116/2/1 114/2/1 115/2/1
f 117/1/1 112/1/1 111/1/1
f 118/1/1 116/1/1 115/1/1
f 119/1/1 116/1/1 118/1/1
f 120/1/1 112/1/1 117/1/1
f 121/1/1 112/1/1 120/1/1
f 122/3/1 119/3/1 118/3/1
f 123/3/1 119/3/1 122/3/1
f 124/1/1 123/1/1 122/1/1
f 125/2/1 121/2/1 120/2/1
f 126/2/1 121/2/1 125/2/1
f 127/1/1 124/1/1 122/1/1
f 128/1/1 124/1/1 127/1/1
f 129/2/1 128/2/1 127/2/1
f 130/1/1 126/1/1 125/1/1
f 131/1/1 126/1/1 130/1/1
f 132/2/1 129/2/1 127/2/1
f 133/2/1 131/2/1 130/2/1
f 134/2/1 131/2/1 133/2/1
f 135/2/1 132/2/1 127/2/1
f 136/2/1 132/2/1 135/2/1
f 137/1/1 134/1/1 133/1/1
f 138/1/1 134/1/1 137/1/1
f 139/1/1 137/1/1 136/1/1
f 140/1/1 137/1/1 139/1/1
f 141/1/2 142/1/2 145/1/2
f 145/1/2 142/1/2 146/1/2
f 145/3/2 146/3/2 147/3/2
f 147/3/2 146/3/2 148/3/2
f 143/2/2 144/2/2 149/2/2
f 149/2/2 144/2/2 150/2/2
f 149/1/2 150/1/2 151/1/2
f 151/1/2 150/1/2 152/1/2
f 147/2/2 148/2/2 153/2/2
f 151/2/2 152/2/2 154/2/2
f 154/2/2 152/2/2 155/2/2
f 147/2/2 153/2/2 156/2/2
f 156/2/2 153/2/2 157/2/2
f 154/1/2 155/1/2 158/1/2
f 158/1/2 155/1/2 159/1/2
f 158/3/2 159/3/2 160/3/2
f 160/3/2 159/3/2 161/3/2
f 156/1/2 157/1/2 162/1/2
f 160/2/2 161/2/2 163/2/2
f 163/2/2 161/2/2 164/2/2
f 156/1/2 162/1/2 165/1/2
f 165/1/2 162/1/2 166/1/2
f 165/2/2 166/2/2 167/2/2
f 163/1/2 164/1/2 168/1/2
f 168/1/2 164/1/2 169/1/2
f 165/2/2 167/2/2 170/2/2
f 168/3/2 169/3/2 171/3/2
f 171/3/2 169/3/2 172/3/2
f 165/2/2 170/2/2 173/2/2
f 173/2/2 170/2/2 174/2/2
f 173/1/2 174/1/2 175/1/2
f 171/1/2 172/1/2 176/1/2
f 176/1/2 172/1/2 177/1/2
f 173/1/2 175/1/2 178/1/2
f 178/1/2 175/1/2 179/1/2
f 176/2/2 177/2/2 180/2/2
f 180/2/2 177/2/2 181/2/2
f 178/2/2 179/2/2 182/2/2
f 180/3/2 181/3/2 183/3/2
f 178/2/2 182/2/2 184/2/2
f 183/3/2 181/3/2 185/3/2
f 178/2/2 184/2/2 186/2/2
f 185/3/2 181/3/2 187/3/2
f 187/3/2 181/3/2 188/3/2
f 178/2/2 186/2/2 189/2/2
f 187/1/2 188/1/2 190/1/2
f 190/1/2 188/1/2 191/1/2
f 191/1/2 188/1/2 192/1/2
f 178/2/2 189/2/2 193/2/2
f 193/2/2 189/2/2 194/2/2
f 191/2/2 192/2/2 195/2/2
f 195/2/2 192/2/2 196/2/2
f 193/1/2 194/1/2 197/1/2
f 195/3/2 196/3/2 198/3/2
f 198/3/2 196/3/2 199/3/2
f 199/3/2 196/3/2 200/3/2
f 193/1/2 197/1/2 201/1/2
f 199/2/2 200/2/2 202/2/2
f 202/2/2 200/2/2 203/2/2
f 203/2/2 200/2/2 204/2/2
f 193/1/2 201/1/2 205/1/2
f 205/1/2 201/1/2 206/1/2
f 205/3/2 206/3/2 207/3/2
f 207/3/2 206/3/2 208/3/2
f 203/1/2 204/1/2 209/1/2
f 209/1/2 204/1/2 210/1/2
f 207/1/2 208/1/2 211/1/2
f 211/1/2 208/1/2 212/1/2
f 209/2/2 210/2/2 213/2/2
f 213/2/2 210/2/2 214/2/2
f 214/2/2 210/2/2 215/2/2
f 211/3/2 212/3/2 216/3/2
f 216/3/2 212/3/2 217/3/2
f 214/3/2 215/3/2 218/3/2
f 218/3/2 215/3/2 219/3/2
f 219/3/2 215/3/2 220/3/2
f 216/2/2 217/2/2 221/2/2
f 221/2/2 217/2/2 222/2/2
f 219/2/2 220/2/2 223/2/2
f 223/2/2 220/2/2 224/2/2
f 221/1/2 222/1/2 225/1/2
f 225/1/2 222/1/2 226/1/2
f 225/2/2 226/2/2 227/2/2
f 227/2/2 226/2/2 228/2/2
f 227/1/2 228/1/2 229/1/2
f 229/1/2 228/1/2 230/1/2
f 223/1/2 224/1/2 231/1/2
f 231/1/2 224/1/2 232/1/2
f 229/3/2 230/3/2 233/3/2
f 233/3/2 230/3/2 234/3/2
f 231/2/2 232/2/2 235/2/2
f 235/2/2 232/2/2 236/2/2
f 233/1/2 234/1/2 237/1/2
f 237/1/2 234/1/2 238/1/2
f 237/2/2 238/2/2 239/2/2
f 235/1/2 236/1/2 240/1/2
f 240/1/2 236/1/2 241/1/2
f 241/1/2 236/1/2 242/1/2
f 237/2/2 239/2/2 243/2/2
f 241/2/2 242/2/2 244/2/2
f 244/2/2 242/2/2 245/2/2
f 237/2/2 243/2/2 246/2/2
f 246/2/2 243/2/2 247/2/2
f 244/1/2 245/1/2 248/1/2
f 248/1/2 245/1/2 249/1/2
f 247/1/2 248/1/2 250/1/2
f 250/1/2 248/1/2 251/1/2
f 252/2/2 253/2/2 254/2/2
f 254/2/2 253/2/2 255/2/2
f 254/1/2 255/1/2 256/1/2
f 256/1/2 255/1/2 257/1/2
f 256/3/2 257/3/2 258/3/2
f 258/3/2 257/3/2 259/3/2
f 258/2/2 259/2/2 260/2/2
f 260/2/2 259/2/2 261/2/2
f 260/1/2 261/1/2 262/1/2
f 262/1/2 261/1/2 263/1/2
f 262/3/2 263/3/2 264/3/2
f 264/3/2 263/3/2 265/3/2
f 264/2/2 265/2/2 266/2/2
f 266/2/2 265/2/2 267/2/2
f 266/1/2 267/1/2 268/1/2
f 268/1/2 267/1/2 269/1/2
f 268/3/2 269/3/2 270/3/2
f 270/3/2 269/3/2 271/3/2
f 270/2/2 271/2/2 272/2/2
f 272/2/2 271/2/2 273/2/2
f 272/3/2 273/3/2 274/3/2
f 274/3/2 273/3/2 275/3/2
f 274/1/2 275/1/2 276/1/2
f 276/1/2 275/1/2 277/1/2
f 276/2/2 277/2/2 278/2/2
f 278/2/2 277/2/2 279/2/2
f 278/3/2 279/3/2 280/3/2
f 280/3/2 279/3/2 281/3/2
f 280/2/2 281/2/2 282/2/2
f 282/2/2 281/2/2 283/2/2
f 282/1/2 283/1/2 284/1/2
f 284/1/2 283/1/2 285/1/2
f 284/2/2 285/2/2 286/2/2
f 286/2/2 285/2/2 287/2/2
f 286/1/2 287/1/2 288/1/2
f 288/1/2 287/1/2 289/1/2
f 309/1/3 291/1/3 290/1/3
f 310/3/3 292/3/3 291/3/3
f 310/1/3 291/1/3 309/1/3
f 311/2/3 293/2/3 292/2/3
f 311/3/3 292/3/3 310/3/3
f 312/1/3 294/1/3 293/1/3
f 312/2/3 293/2/3 311/2/3
f 313/2/3 295/2/3 294/2/3
f 313/1/3 294/1/3 312/1/3
f 314/1/3 296/1/3 295/1/3
f 314/2/3 295/2/3 313/2/3
f 315/2/3 297/2/3 296/2/3
f 315/1/3 296/1/3 314/1/3
f 316/1/3 298/1/3 297/1/3
f 316/2/3 297/2/3 315/2/3
f 317/3/3 299/3/3 298/3/3
f 317/1/3 298/1/3 316/1/3
f 318/1/3 300/1/3 299/1/3
f 318/3/3 299/3/3 317/3/3
f 319/3/3 301/3/3 300/3/3
f 319/1/3 300/1/3 318/1/3
f 320/2/3 302/2/3 301/2/3
f 320/3/3 301/3/3 319/3/3
f 321/1/3 303/1/3 302/1/3
f 321/2/3 302/2/3 320/2/3
f 322/2/3 304/2/3 303/2/3
f 322/1/3 303/1/3 321/1/3
f 323/1/3 305/1/3 304/1/3
f 323/2/3 304/2/3 322/2/3
f 324/3/3 306/3/3 305/3/3
f 324/1/3 305/1/3 323/1/3
f 325/1/3 307/1/3 306/1/3
f 325/3/3 306/3/3 324/3/3
f 326/2/3 308/2/3 307/2/3
f 326/1/3 307/1/3 325/1/3
f 327/2/3 308/2/3 326/2/3
f 345/1/3 329/1/3 328/1/3
f 346/1/3 329/1/3 345/1/3
f 347/1/3 329/1/3 346/1/3
f 348/3/3 330/3/3 329/3/3
f 348/1/3 329/1/3 347/1/3
f 349/1/3 331/1/3 330/1/3
f 349/3/3 330/3/3 348/3/3
f 350/3/3 332/3/3 331/3/3
f 350/1/3 331/1/3 349/1/3
f 351/3/3 332/3/3 350/3/3
f 352/2/3 333/2/3 332/2/3
f 352/3/3 332/3/3 351/3/3
f 353/1/3 334/1/3 333/1/3
f 353/2/3 333/2/3 352/2/3
f 354/1/3 334/1/3 353/1/3
f 355/1/3 334/1/3 354/1/3
f 356/3/3 335/3/3 334/3/3
f 356/1/3 334/1/3 355/1/3
f 357/3/3 335/3/3 356/3/3
f 358/1/3 336/1/3 335/1/3
f 358/3/3 335/3/3 357/3/3
f 359/1/3 336/1/3 358/1/3
f 360/1/3 336/1/3 359/1/3
f 361/3/3 337/3/3 336/3/3
f 361/1/3 336/1/3 360/1/3
f 362/1/3 338/1/3 337/1/3
f 362/3/3 337/3/3 361/3/3
f 363/1/3 338/1/3 362/1/3
f 364/2/3 339/2/3 338/2/3
f 364/1/3 338/1/3 363/1/3
f 365/2/3 339/2/3 364/2/3
f 366/2/3 339/2/3 365/2/3
f 367/2/3 339/2/3 366/2/3
f 368/1/3 340/1/3 339/1/3
f 368/2/3 339/2/3 367/2/3
f 369/2/3 341/2/3 340/2/3
f 369/1/3 340/1/3 368/1/3
f 370/2/3 341/2/3 369/2/3
f 371/1/3 342/1/3 341/1/3
f 371/2/3 341/2/3 370/2/3
f 372/1/3 342/1/3 371/1/3
f 373/3/3 343/3/3 342/3/3
f 373/1/3 342/1/3 372/1/3
f 374/2/3 344/2/3 343/2/3
f 374/3/3 343/3/3 373/3/3
f 375/2/3 344/2/3 374/2/3
f 408/1/3 376/1/3 375/1/3
f 409/1/3 376/1/3 408/1/3
f 410/2/3 378/2/3 377/2/3
f 410/2/3 379/2/3 378/2/3
f 410/2/3 380/2/3 379/2/3
f 411/1/3 381/1/3 380/1/3
f 411/2/3 380/2/3 410/2/3
f 411/1/3 382/1/3 381/1/3
f 412/3/3 383/3/3 382/3/3
f 412/1/3 382/1/3 411/1/3
f 412/3/3 384/3/3 383/3/3
f 413/2/3 385/2/3 384/2/3
f 413/3/3 384/3/3 412/3/3
f 414/1/3 386/1/3 385/1/3
f 414/2/3 385/2/3 413/2/3
f 414/1/3 387/1/3 386/1/3
f 415/3/3 388/3/3 387/3/3
f 415/1/3 387/1/3 414/1/3
f 415/3/3 389/3/3 388/3/3
f 416/2/3 390/2/3 389/2/3
f 416/3/3 389/3/3 415/3/3
f 417/1/3 391/1/3 390/1/3
f 417/2/3 390/2/3 416/2/3
f 418/3/3 392/3/3 391/3/3
f 418/1/3 391/1/3 417/1/3
f 419/2/3 393/2/3 392/2/3
f 419/3/3 392/3/3 418/3/3
f 419/2/3 394/2/3 393/2/3
f 420/3/3 395/3/3 394/3/3
f 420/2/3 394/2/3 419/2/3
f 421/1/3 396/1/3 395/1/3
f 421/3/3 395/3/3 420/3/3
f 421/1/3 397/1/3 396/1/3
f 422/2/3 398/2/3 397/2/3
f 422/1/3 397/1/3 421/1/3
f 423/3/3 399/3/3 398/3/3
f 423/2/3 398/2/3 422/2/3
f 424/2/3 400/2/3 399/2/3
f 424/3/3 399/3/3 423/3/3
f 425/1/3 406/1/3 405/1/3
f 425/2/3 400/2/3 424/2/3
f 425/1/3 405/1/3 404/1/3
f 425/1/3 404/1/3 403/1/3
f 425/1/3 403/1/3 402/1/3
f 425/1/3 402/1/3 401/1/3
f 425/1/3 401/1/3 400/1/3
f 426/2/3 407/2/3 406/2/3
f 426/1/3 406/1/3 425/1/3
f 427/1/3 408/1/3 407/1/3
f 427/2/3 407/2/3 426/2/3
f 428/1/3 408/1/3 427/1/3
f 429/1/4 430/1/4 446/1/4
f 446/1/4 430/1/4 447/1/4
f 430/3/4 431/3/4 448/3/4
f 447/1/4 430/1/4 448/1/4
f 431/1/4 432/1/4 449/1/4
f 448/3/4 431/3/4 449/3/4
f 432/3/4 433/3/4 450/3/4
f 449/1/4 432/1/4 450/1/4
f 450/3/4 433/3/4 451/3/4
f 433/2/4 434/2/4 452/2/4
f 451/3/4 433/3/4 452/3/4
f 434/1/4 435/1/4 453/1/4
f 452/2/4 434/2/4 453/2/4
f 453/1/4 435/1/4 454/1/4
f 454/1/4 435/1/4 455/1/4
f 435/3/4 436/3/4 456/3/4
f 455/1/4 435/1/4 456/1/4
f 456/3/4 436/3/4 457/3/4
f 436/1/4 437/1/4 458/1/4
f 457/3/4 436/3/4 458/3/4
f 458/1/4 437/1/4 459/1/4
f 459/1/4 437/1/4 460/1/4
f 460/1/4 437/1/4 461/1/4
f 461/1/4 437/1/4 462/1/4
f 462/1/4 437/1/4 463/1/4
f 437/3/4 438/3/4 464/3/4
f 463/1/4 437/1/4 464/1/4
f 438/1/4 439/1/4 465/1/4
f 464/3/4 438/3/4 465/3/4
f 439/2/4 440/2/4 466/2/4
f 465/1/4 439/1/4 466/1/4
f 466/2/4 440/2/4 467/2/4
f 467/2/4 440/2/4 468/2/4
f 440/1/4 441/1/4 469/1/4
f 468/2/4 440/2/4 469/2/4
f 441/2/4 442/2/4 470/2/4
f 469/1/4 441/1/4 470/1/4
f 442/1/4 443/1/4 471/1/4
f 470/2/4 442/2/4 471/2/4
f 443/3/4 444/3/4 472/3/4
f 471/1/4 443/1/4 472/1/4
f 444/2/4 445/2/4 473/2/4
f 472/3/4 444/3/4 473/3/4
f 473/2/4 445/2/4 474/2/4
f 474/1/4 475/1/4 508/1/4
f 508/1/4 475/1/4 509/1/4
f 476/2/4 477/2/4 510/2/4
f 477/2/4 478/2/4 510/2/4
f 478/2/4 479/2/4 510/2/4
f 479/1/4 480/1/4 511/1/4
f 510/2/4 479/2/4 511/2/4
f 480/1/4 481/1/4 511/1/4
f 481/1/4 482/1/4 511/1/4
f 482/3/4 483/3/4 512/3/4
f 511/1/4 482/1/4 512/1/4
f 483/2/4 484/2/4 513/2/4
f 512/3/4 483/3/4 513/3/4
f 484/1/4 485/1/4 514/1/4
f 513/2/4 484/2/4 514/2/4
f 485/3/4 486/3/4 515/3/4
f 514/1/4 485/1/4 515/1/4
f 486/3/4 487/3/4 515/3/4
f 487/2/4 488/2/4 516/2/4
f 515/3/4 487/3/4 516/3/4
f 488/1/4 489/1/4 517/1/4
f 516/2/4 488/2/4 517/2/4
f 489/3/4 490/3/4 518/3/4
f 517/1/4 489/1/4 518/1/4
f 490/2/4 491/2/4 519/2/4
f 518/3/4 490/3/4 519/3/4
f 491/2/4 492/2/4 519/2/4
f 492/2/4 493/2/4 519/2/4
f 493/3/4 494/3/4 520/3/4
f 519/2/4 493/2/4 520/2/4
f 494/3/4 495/3/4 520/3/4
f 495/1/4 496/1/4 521/1/4
f 520/3/4 495/3/4 521/3/4
f 496/1/4 497/1/4 521/1/4
f 497/2/4 498/2/4 522/2/4
f 521/1/4 497/1/4 522/1/4
f 499/3/4 500/3/4 523/3/4
f 522/2/4 498/2/4 523/2/4
f 498/3/4 499/3/4 523/3/4
f 501/2/4 502/2/4 524/2/4
f 523/3/4 500/3/4 524/3/4
f 500/2/4 501/2/4 524/2/4
f 504/1/4 505/1/4 525/1/4
f 524/2/4 502/2/4 525/2/4
f 503/1/4 504/1/4 525/1/4
f 502/1/4 503/1/4 525/1/4
f 506/2/4 507/2/4 526/2/4
f 525/1/4 505/1/4 526/1/4
f 505/2/4 506/2/4 526/2/4
f 507/1/4 508/1/4 527/1/4
f 526/2/4 507/2/4 527/2/4
f 527/1/4 508/1/4 528/1/4
f 529/2/4 530/2/4 554/2/4
f 530/1/4 531/1/4 555/1/4
f 554/2/4 530/2/4 555/2/4
f 531/2/4 532/2/4 556/2/4
f 555/1/4 531/1/4 556/1/4
f 532/1/4 533/1/4 557/1/4
f 556/2/4 532/2/4 557/2/4
f 533/3/4 534/3/4 558/3/4
f 557/1/4 533/1/4 558/1/4
f 534/2/4 535/2/4 559/2/4
f 558/3/4 534/3/4 559/3/4
f 535/1/4 536/1/4 560/1/4
f 559/2/4 535/2/4 560/2/4
f 536/3/4 537/3/4 561/3/4
f 560/1/4 536/1/4 561/1/4
f 537/1/4 538/1/4 562/1/4
f 561/3/4 537/3/4 562/3/4
f 538/2/4 539/2/4 563/2/4
f 562/1/4 538/1/4 563/1/4
f 539/3/4 540/3/4 564/3/4
f 563/2/4 539/2/4 564/2/4
f 540/1/4 541/1/4 565/1/4
f 564/3/4 540/3/4 565/3/4
f 541/2/4 542/2/4 566/2/4
f 565/1/4 541/1/4 566/1/4
f 542/3/4 543/3/4 567/3/4
f 566/2/4 542/2/4 567/2/4
f 543/2/4 544/2/4 568/2/4
f 567/3/4 543/3/4 568/3/4
f 544/1/4 545/1/4 569/1/4
f 568/2/4 544/2/4 569/2/4
f 545/2/4 546/2/4 570/2/4
f 569/1/4 545/1/4 570/1/4
f 546/3/4 547/3/4 571/3/4
f 570/2/4 546/2/4 571/2/4
f 547/2/4 548/2/4 572/2/4
f 571/3/4 547/3/4 572/3/4
f 548/1/4 549/1/4 573/1/4
f 572/2/4 548/2/4 573/2/4
f 549/2/4 550/2/4 574/2/4
f 573/1/4 549/1/4 574/1/4
f 550/1/4 551/1/4 575/1/4
f 574/2/4 550/2/4 575/2/4
f 551/2/4 552/2/4 576/2/4
f 575/1/4 551/1/4 576/1/4
f 552/1/4 553/1/4 577/1/4
f 576/2/4 552/2/4 577/2/4
f 577/1/4 553/1/4 578/1/4
f 582/1/5 580/1/5 579/1/5
f 583/1/5 580/1/5 582/1/5
f 585/1/5 582/1/5 581/1/5
f 586/2/5 584/2/5 583/2/5
f 586/1/5 582/1/5 585/1/5
f 586/2/5 583/2/5 582/2/5
f 587/2/5 584/2/5 586/2/5
f 588/2/5 584/2/5 587/2/5
f 589/2/5 587/2/5 586/2/5
f 590/2/5 587/2/5 589/2/5
f 591/2/6 592/2/6 594/2/6
f 594/2/6 592/2/6 595/2/6
f 593/2/6 594/2/6 597/2/6
f 597/2/6 594/2/6 598/2/6
f 595/1/6 596/1/6 599/1/6
f 599/1/6 596/1/6 600/1/6
f 598/1/6 599/1/6 601/1/6
f 601/1/6 599/1/6 602/1/6
f 603/1/6 604/1/6 605/1/6
f 605/1/6 604/1/6 606/1/6
