# MagicaVoxel @ Ephtracy

# group
o Decoration - Sign Magic

# material
mtllib Medieval Assets-289-Decoration - Sign Magic.mtl
usemtl palette

# normals
vn -1 0 0
vn 1 0 0
vn 0 0 1
vn 0 0 -1
vn 0 -1 0
vn 0 1 0

# texcoords
vt 0.0292969 0.5
vt 0.0683594 0.5
vt 0.0722656 0.5
vt 0.0761719 0.5
vt 0.138672 0.5
vt 0.181641 0.5
vt 0.193359 0.5
vt 0.197266 0.5
vt 0.205078 0.5
vt 0.244141 0.5

# verts
v -0.9 0 -8.9
v -0.9 0 -9.1
v -0.9 0.1 -8.9
v -0.9 0.1 -9.1
v -0.8 0 -8.8
v -0.8 0 -8.9
v -0.8 0 -9.1
v -0.8 0 -9.2
v -0.8 0.1 -8.8
v -0.8 0.1 -8.9
v -0.8 0.1 -9.1
v -0.8 0.1 -9.2
v -0.8 1.6 -8.9
v -0.8 1.6 -9.1
v -0.7 1.4 -8.8
v -0.7 1.4 -8.9
v -0.7 1.4 -9.1
v -0.7 1.4 -9.2
v -0.7 1.6 -8.8
v -0.7 1.6 -8.9
v -0.7 1.6 -9.1
v -0.7 1.6 -9.2
v -0.7 1.7 -8.9
v -0.7 1.7 -9.1
v -0.4 0.4 -9
v -0.4 0.4 -9.1
v -0.4 1.2 -9
v -0.4 1.2 -9.1
v -0.3 1.3 -9
v -0.3 1.3 -9.1
v -0.3 1.4 -9
v -0.3 1.4 -9.1
v -0.2 1.2 -9
v -0.2 1.2 -9.1
v -0.2 1.3 -9
v -0.2 1.3 -9.1
v 0.2 1.2 -9
v 0.2 1.2 -9.1
v 0.2 1.3 -9
v 0.2 1.3 -9.1
v 0.3 1.3 -9
v 0.3 1.3 -9.1
v 0.3 1.4 -9
v 0.3 1.4 -9.1
v -0.6 0 -8.8
v -0.6 0 -8.9
v -0.6 0 -9.1
v -0.6 0 -9.2
v -0.6 0.1 -8.8
v -0.6 0.1 -8.9
v -0.6 0.1 -9.1
v -0.6 0.1 -9.2
v -0.6 1.3 -8.9
v -0.6 1.3 -9.1
v -0.5 0 -8.9
v -0.5 0 -9.1
v -0.5 0.1 -8.9
v -0.5 0.1 -9.1
v -0.5 1.3 -8.9
v -0.5 1.3 -9.1
v -0.5 1.4 -8.8
v -0.5 1.4 -8.9
v -0.5 1.4 -9.1
v -0.5 1.4 -9.2
v -0.5 1.6 -8.8
v -0.5 1.6 -8.9
v -0.5 1.6 -9.1
v -0.5 1.6 -9.2
v -0.5 1.7 -8.9
v -0.5 1.7 -9.1
v -0.2 1.3 -9
v -0.2 1.3 -9.1
v -0.2 1.4 -9
v -0.2 1.4 -9.1
v -0.1 1.2 -9
v -0.1 1.2 -9.1
v -0.1 1.3 -9
v -0.1 1.3 -9.1
v 0.3 1.2 -9
v 0.3 1.2 -9.1
v 0.3 1.3 -9
v 0.3 1.3 -9.1
v 0.4 1.3 -9
v 0.4 1.3 -9.1
v 0.4 1.4 -8.9
v 0.4 1.4 -9
v 0.4 1.4 -9.1
v 0.4 1.6 -8.9
v 0.4 1.6 -9.1
v 0.5 0.4 -9
v 0.5 0.4 -9.1
v 0.5 1.2 -9
v 0.5 1.2 -9.1
v -0.8 0 -8.8
v -0.8 0.1 -8.8
v -0.7 1.4 -8.8
v -0.7 1.6 -8.8
v -0.6 0 -8.8
v -0.6 0.1 -8.8
v -0.5 1.4 -8.8
v -0.5 1.6 -8.8
v -0.9 0 -8.9
v -0.9 0.1 -8.9
v -0.8 0 -8.9
v -0.8 0.1 -8.9
v -0.8 1.6 -8.9
v -0.7 1.4 -8.9
v -0.7 1.6 -8.9
v -0.7 1.7 -8.9
v -0.6 0 -8.9
v -0.6 0.1 -8.9
v -0.6 1.3 -8.9
v -0.5 0 -8.9
v -0.5 0.1 -8.9
v -0.5 1.3 -8.9
v -0.5 1.4 -8.9
v -0.5 1.6 -8.9
v -0.5 1.7 -8.9
v 0.4 1.4 -8.9
v 0.4 1.6 -8.9
v -0.4 0.4 -9
v -0.4 1.2 -9
v -0.3 0.5 -9
v -0.3 0.6 -9
v -0.3 0.7 -9
v -0.3 1.3 -9
v -0.3 1.4 -9
v -0.2 0.5 -9
v -0.2 0.6 -9
v -0.2 0.7 -9
v -0.2 0.8 -9
v -0.2 1.2 -9
v -0.2 1.3 -9
v -0.2 1.4 -9
v -0.1 0.5 -9
v -0.1 0.6 -9
v -0.1 0.7 -9
v -0.1 0.8 -9
v -0.1 0.9 -9
v -0.1 1.2 -9
v -0.1 1.3 -9
v 0 0.6 -9
v 0 0.7 -9
v 0 0.8 -9
v 0 0.9 -9
v 0 1 -9
v 0 1.1 -9
v 0.1 0.7 -9
v 0.1 0.8 -9
v 0.1 0.9 -9
v 0.1 1 -9
v 0.1 1.1 -9
v 0.2 0.8 -9
v 0.2 0.9 -9
v 0.2 1 -9
v 0.2 1.1 -9
v 0.2 1.2 -9
v 0.2 1.3 -9
v 0.3 0.8 -9
v 0.3 0.9 -9
v 0.3 1 -9
v 0.3 1.1 -9
v 0.3 1.2 -9
v 0.3 1.3 -9
v 0.3 1.4 -9
v 0.4 1.3 -9
v 0.4 1.4 -9
v 0.5 0.4 -9
v 0.5 1.2 -9
v -0.9 0 -9.1
v -0.9 0.1 -9.1
v -0.8 0 -9.1
v -0.8 0.1 -9.1
v -0.8 1.6 -9.1
v -0.7 1.4 -9.1
v -0.7 1.6 -9.1
v -0.7 1.7 -9.1
v -0.6 0 -9.1
v -0.6 0.1 -9.1
v -0.6 1.3 -9.1
v -0.5 0 -9.1
v -0.5 0.1 -9.1
v -0.5 1.3 -9.1
v -0.5 1.4 -9.1
v -0.5 1.6 -9.1
v -0.5 1.7 -9.1
v -0.4 0.4 -9.1
v -0.4 1.2 -9.1
v -0.3 0.5 -9.1
v -0.3 0.6 -9.1
v -0.3 0.7 -9.1
v -0.3 1.3 -9.1
v -0.3 1.4 -9.1
v -0.2 0.5 -9.1
v -0.2 0.6 -9.1
v -0.2 0.7 -9.1
v -0.2 0.8 -9.1
v -0.2 1.2 -9.1
v -0.2 1.3 -9.1
v -0.2 1.4 -9.1
v -0.1 0.5 -9.1
v -0.1 0.6 -9.1
v -0.1 0.7 -9.1
v -0.1 0.8 -9.1
v -0.1 0.9 -9.1
v -0.1 1.2 -9.1
v -0.1 1.3 -9.1
v 0 0.6 -9.1
v 0 0.7 -9.1
v 0 0.8 -9.1
v 0 0.9 -9.1
v 0 1 -9.1
v 0 1.1 -9.1
v 0.1 0.7 -9.1
v 0.1 0.8 -9.1
v 0.1 0.9 -9.1
v 0.1 1 -9.1
v 0.1 1.1 -9.1
v 0.2 0.8 -9.1
v 0.2 0.9 -9.1
v 0.2 1 -9.1
v 0.2 1.1 -9.1
v 0.2 1.2 -9.1
v 0.2 1.3 -9.1
v 0.3 0.8 -9.1
v 0.3 0.9 -9.1
v 0.3 1 -9.1
v 0.3 1.1 -9.1
v 0.3 1.2 -9.1
v 0.3 1.3 -9.1
v 0.3 1.4 -9.1
v 0.4 1.3 -9.1
v 0.4 1.4 -9.1
v 0.4 1.6 -9.1
v 0.5 0.4 -9.1
v 0.5 1.2 -9.1
v -0.8 0 -9.2
v -0.8 0.1 -9.2
v -0.7 1.4 -9.2
v -0.7 1.6 -9.2
v -0.6 0 -9.2
v -0.6 0.1 -9.2
v -0.5 1.4 -9.2
v -0.5 1.6 -9.2
v -0.8 0 -8.8
v -0.6 0 -8.8
v -0.9 0 -8.9
v -0.8 0 -8.9
v -0.6 0 -8.9
v -0.5 0 -8.9
v -0.9 0 -9.1
v -0.8 0 -9.1
v -0.6 0 -9.1
v -0.5 0 -9.1
v -0.8 0 -9.2
v -0.6 0 -9.2
v -0.4 0.4 -9
v 0.5 0.4 -9
v -0.4 0.4 -9.1
v 0.5 0.4 -9.1
v -0.6 1.3 -8.9
v -0.5 1.3 -8.9
v -0.3 1.3 -9
v -0.2 1.3 -9
v 0.3 1.3 -9
v 0.4 1.3 -9
v -0.6 1.3 -9.1
v -0.5 1.3 -9.1
v -0.3 1.3 -9.1
v -0.2 1.3 -9.1
v 0.3 1.3 -9.1
v 0.4 1.3 -9.1
v -0.7 1.4 -8.8
v -0.5 1.4 -8.8
v -0.7 1.4 -8.9
v -0.5 1.4 -8.9
v 0.4 1.4 -8.9
v -0.3 1.4 -9
v -0.2 1.4 -9
v 0.3 1.4 -9
v 0.4 1.4 -9
v -0.7 1.4 -9.1
v -0.5 1.4 -9.1
v -0.3 1.4 -9.1
v -0.2 1.4 -9.1
v 0.3 1.4 -9.1
v -0.7 1.4 -9.2
v -0.5 1.4 -9.2
v -0.8 0.1 -8.8
v -0.6 0.1 -8.8
v -0.9 0.1 -8.9
v -0.8 0.1 -8.9
v -0.6 0.1 -8.9
v -0.5 0.1 -8.9
v -0.9 0.1 -9.1
v -0.8 0.1 -9.1
v -0.6 0.1 -9.1
v -0.5 0.1 -9.1
v -0.8 0.1 -9.2
v -0.6 0.1 -9.2
v -0.4 1.2 -9
v -0.2 1.2 -9
v -0.1 1.2 -9
v 0.2 1.2 -9
v 0.3 1.2 -9
v 0.5 1.2 -9
v -0.4 1.2 -9.1
v -0.2 1.2 -9.1
v -0.1 1.2 -9.1
v 0.2 1.2 -9.1
v 0.3 1.2 -9.1
v 0.5 1.2 -9.1
v -0.2 1.3 -9
v -0.1 1.3 -9
v 0.2 1.3 -9
v 0.3 1.3 -9
v -0.2 1.3 -9.1
v -0.1 1.3 -9.1
v 0.2 1.3 -9.1
v 0.3 1.3 -9.1
v -0.7 1.6 -8.8
v -0.5 1.6 -8.8
v -0.8 1.6 -8.9
v -0.7 1.6 -8.9
v -0.5 1.6 -8.9
v 0.4 1.6 -8.9
v -0.8 1.6 -9.1
v -0.7 1.6 -9.1
v -0.5 1.6 -9.1
v 0.4 1.6 -9.1
v -0.7 1.6 -9.2
v -0.5 1.6 -9.2
v -0.7 1.7 -8.9
v -0.5 1.7 -8.9
v -0.7 1.7 -9.1
v -0.5 1.7 -9.1

# faces
f 3/8/1 2/8/1 1/8/1
f 4/8/1 2/8/1 3/8/1
f 9/8/1 6/8/1 5/8/1
f 10/8/1 6/8/1 9/8/1
f 11/8/1 8/8/1 7/8/1
f 12/8/1 8/8/1 11/8/1
f 13/8/1 11/8/1 10/8/1
f 14/8/1 11/8/1 13/8/1
f 19/8/1 16/8/1 15/8/1
f 20/8/1 16/8/1 19/8/1
f 21/8/1 18/8/1 17/8/1
f 22/8/1 18/8/1 21/8/1
f 23/8/1 21/8/1 20/8/1
f 24/8/1 21/8/1 23/8/1
f 27/9/1 26/9/1 25/9/1
f 28/9/1 26/9/1 27/9/1
f 31/5/1 30/5/1 29/5/1
f 32/5/1 30/5/1 31/5/1
f 35/5/1 34/5/1 33/5/1
f 36/5/1 34/5/1 35/5/1
f 39/5/1 38/5/1 37/5/1
f 40/5/1 38/5/1 39/5/1
f 43/5/1 42/5/1 41/5/1
f 44/5/1 42/5/1 43/5/1
f 45/8/2 46/8/2 49/8/2
f 49/8/2 46/8/2 50/8/2
f 47/8/2 48/8/2 51/8/2
f 51/8/2 48/8/2 52/8/2
f 50/8/2 51/8/2 53/8/2
f 53/8/2 51/8/2 54/8/2
f 55/8/2 56/8/2 57/8/2
f 57/8/2 56/8/2 58/8/2
f 59/8/2 60/8/2 62/8/2
f 62/8/2 60/8/2 63/8/2
f 61/8/2 62/8/2 65/8/2
f 65/8/2 62/8/2 66/8/2
f 63/8/2 64/8/2 67/8/2
f 67/8/2 64/8/2 68/8/2
f 66/8/2 67/8/2 69/8/2
f 69/8/2 67/8/2 70/8/2
f 71/5/2 72/5/2 73/5/2
f 73/5/2 72/5/2 74/5/2
f 75/5/2 76/5/2 77/5/2
f 77/5/2 76/5/2 78/5/2
f 79/5/2 80/5/2 81/5/2
f 81/5/2 80/5/2 82/5/2
f 83/5/2 84/5/2 86/5/2
f 86/5/2 84/5/2 87/5/2
f 85/8/2 86/8/2 88/8/2
f 86/8/2 87/8/2 88/8/2
f 88/8/2 87/8/2 89/8/2
f 90/9/2 91/9/2 92/9/2
f 92/9/2 91/9/2 93/9/2
f 98/8/3 95/8/3 94/8/3
f 99/8/3 95/8/3 98/8/3
f 100/8/3 97/8/3 96/8/3
f 101/8/3 97/8/3 100/8/3
f 104/8/3 103/8/3 102/8/3
f 105/8/3 103/8/3 104/8/3
f 107/8/3 106/8/3 105/8/3
f 108/8/3 106/8/3 107/8/3
f 111/8/3 107/8/3 105/8/3
f 112/8/3 107/8/3 111/8/3
f 113/8/3 111/8/3 110/8/3
f 114/8/3 111/8/3 113/8/3
f 115/8/3 107/8/3 112/8/3
f 116/8/3 107/8/3 115/8/3
f 117/8/3 109/8/3 108/8/3
f 118/8/3 109/8/3 117/8/3
f 119/8/3 117/8/3 116/8/3
f 120/8/3 117/8/3 119/8/3
f 123/9/3 122/9/3 121/9/3
f 124/9/3 122/9/3 123/9/3
f 125/9/3 122/9/3 124/9/3
f 128/9/3 123/9/3 121/9/3
f 128/7/3 124/7/3 123/7/3
f 129/6/3 125/6/3 124/6/3
f 129/7/3 124/7/3 128/7/3
f 130/9/3 122/9/3 125/9/3
f 130/6/3 125/6/3 129/6/3
f 131/9/3 122/9/3 130/9/3
f 132/9/3 122/9/3 131/9/3
f 133/5/3 127/5/3 126/5/3
f 134/5/3 127/5/3 133/5/3
f 135/6/3 129/6/3 128/6/3
f 135/9/3 128/9/3 121/9/3
f 136/7/3 130/7/3 129/7/3
f 136/6/3 129/6/3 135/6/3
f 137/6/3 131/6/3 130/6/3
f 137/7/3 130/7/3 136/7/3
f 138/9/3 132/9/3 131/9/3
f 138/6/3 131/6/3 137/6/3
f 139/9/3 132/9/3 138/9/3
f 140/5/3 133/5/3 132/5/3
f 140/9/3 132/9/3 139/9/3
f 141/5/3 133/5/3 140/5/3
f 142/6/3 137/6/3 136/6/3
f 142/9/3 136/9/3 135/9/3
f 143/7/3 138/7/3 137/7/3
f 143/6/3 137/6/3 142/6/3
f 144/6/3 139/6/3 138/6/3
f 144/7/3 138/7/3 143/7/3
f 145/9/3 140/9/3 139/9/3
f 145/6/3 139/6/3 144/6/3
f 146/9/3 140/9/3 145/9/3
f 147/9/3 140/9/3 146/9/3
f 148/9/3 143/9/3 142/9/3
f 148/6/3 144/6/3 143/6/3
f 149/7/3 145/7/3 144/7/3
f 149/6/3 144/6/3 148/6/3
f 150/10/3 146/10/3 145/10/3
f 150/7/3 145/7/3 149/7/3
f 151/2/3 147/2/3 146/2/3
f 151/10/3 146/10/3 150/10/3
f 152/9/3 140/9/3 147/9/3
f 152/2/3 147/2/3 151/2/3
f 153/10/3 150/10/3 149/10/3
f 153/9/3 149/9/3 148/9/3
f 154/4/3 151/4/3 150/4/3
f 154/10/3 150/10/3 153/10/3
f 155/3/3 152/3/3 151/3/3
f 155/4/3 151/4/3 154/4/3
f 156/9/3 140/9/3 152/9/3
f 156/3/3 152/3/3 155/3/3
f 157/9/3 140/9/3 156/9/3
f 159/9/3 153/9/3 148/9/3
f 159/2/3 154/2/3 153/2/3
f 160/3/3 155/3/3 154/3/3
f 160/2/3 154/2/3 159/2/3
f 161/1/3 156/1/3 155/1/3
f 161/3/3 155/3/3 160/3/3
f 162/9/3 157/9/3 156/9/3
f 162/1/3 156/1/3 161/1/3
f 163/5/3 158/5/3 157/5/3
f 163/9/3 157/9/3 162/9/3
f 164/5/3 158/5/3 163/5/3
f 166/5/3 165/5/3 164/5/3
f 167/5/3 165/5/3 166/5/3
f 168/9/3 163/9/3 162/9/3
f 168/9/3 162/9/3 161/9/3
f 168/9/3 135/9/3 121/9/3
f 168/9/3 160/9/3 159/9/3
f 168/9/3 161/9/3 160/9/3
f 168/9/3 148/9/3 142/9/3
f 168/9/3 142/9/3 135/9/3
f 168/9/3 159/9/3 148/9/3
f 169/9/3 163/9/3 168/9/3
f 170/8/4 171/8/4 172/8/4
f 172/8/4 171/8/4 173/8/4
f 173/8/4 174/8/4 175/8/4
f 175/8/4 174/8/4 176/8/4
f 173/8/4 175/8/4 179/8/4
f 179/8/4 175/8/4 180/8/4
f 178/8/4 179/8/4 181/8/4
f 181/8/4 179/8/4 182/8/4
f 180/8/4 175/8/4 183/8/4
f 183/8/4 175/8/4 184/8/4
f 176/8/4 177/8/4 185/8/4
f 185/8/4 177/8/4 186/8/4
f 187/9/4 188/9/4 189/9/4
f 189/9/4 188/9/4 190/9/4
f 190/9/4 188/9/4 191/9/4
f 184/8/4 185/8/4 193/8/4
f 187/9/4 189/9/4 194/9/4
f 189/7/4 190/7/4 194/7/4
f 190/6/4 191/6/4 195/6/4
f 194/7/4 190/7/4 195/7/4
f 191/9/4 188/9/4 196/9/4
f 195/6/4 191/6/4 196/6/4
f 196/9/4 188/9/4 197/9/4
f 197/9/4 188/9/4 198/9/4
f 192/5/4 193/5/4 199/5/4
f 193/8/4 185/8/4 200/8/4
f 199/5/4 193/5/4 200/5/4
f 194/6/4 195/6/4 201/6/4
f 187/9/4 194/9/4 201/9/4
f 195/7/4 196/7/4 202/7/4
f 201/6/4 195/6/4 202/6/4
f 196/6/4 197/6/4 203/6/4
f 202/7/4 196/7/4 203/7/4
f 197/9/4 198/9/4 204/9/4
f 203/6/4 197/6/4 204/6/4
f 204/9/4 198/9/4 205/9/4
f 198/5/4 199/5/4 206/5/4
f 205/9/4 198/9/4 206/9/4
f 206/5/4 199/5/4 207/5/4
f 202/6/4 203/6/4 208/6/4
f 201/9/4 202/9/4 208/9/4
f 203/7/4 204/7/4 209/7/4
f 208/6/4 203/6/4 209/6/4
f 204/6/4 205/6/4 210/6/4
f 209/7/4 204/7/4 210/7/4
f 205/9/4 206/9/4 211/9/4
f 210/6/4 205/6/4 211/6/4
f 211/9/4 206/9/4 212/9/4
f 212/9/4 206/9/4 213/9/4
f 208/9/4 209/9/4 214/9/4
f 209/6/4 210/6/4 214/6/4
f 210/7/4 211/7/4 215/7/4
f 214/6/4 210/6/4 215/6/4
f 211/10/4 212/10/4 216/10/4
f 215/7/4 211/7/4 216/7/4
f 212/2/4 213/2/4 217/2/4
f 216/10/4 212/10/4 217/10/4
f 213/9/4 206/9/4 218/9/4
f 217/2/4 213/2/4 218/2/4
f 215/10/4 216/10/4 219/10/4
f 214/9/4 215/9/4 219/9/4
f 216/4/4 217/4/4 220/4/4
f 219/10/4 216/10/4 220/10/4
f 217/3/4 218/3/4 221/3/4
f 220/4/4 217/4/4 221/4/4
f 218/9/4 206/9/4 222/9/4
f 221/3/4 218/3/4 222/3/4
f 222/9/4 206/9/4 223/9/4
f 214/9/4 219/9/4 225/9/4
f 219/2/4 220/2/4 225/2/4
f 220/3/4 221/3/4 226/3/4
f 225/2/4 220/2/4 226/2/4
f 221/1/4 222/1/4 227/1/4
f 226/3/4 221/3/4 227/3/4
f 222/9/4 223/9/4 228/9/4
f 227/1/4 222/1/4 228/1/4
f 223/5/4 224/5/4 229/5/4
f 228/9/4 223/9/4 229/9/4
f 229/5/4 224/5/4 230/5/4
f 200/8/4 185/8/4 231/8/4
f 230/5/4 231/5/4 232/5/4
f 231/8/4 185/8/4 233/8/4
f 232/5/4 231/5/4 233/5/4
f 233/8/4 185/8/4 234/8/4
f 228/9/4 229/9/4 235/9/4
f 227/9/4 228/9/4 235/9/4
f 187/9/4 201/9/4 235/9/4
f 225/9/4 226/9/4 235/9/4
f 226/9/4 227/9/4 235/9/4
f 208/9/4 214/9/4 235/9/4
f 201/9/4 208/9/4 235/9/4
f 214/9/4 225/9/4 235/9/4
f 235/9/4 229/9/4 236/9/4
f 237/8/4 238/8/4 241/8/4
f 241/8/4 238/8/4 242/8/4
f 239/8/4 240/8/4 243/8/4
f 243/8/4 240/8/4 244/8/4
f 248/8/5 246/8/5 245/8/5
f 249/8/5 246/8/5 248/8/5
f 251/8/5 248/8/5 247/8/5
f 251/8/5 250/8/5 249/8/5
f 251/8/5 249/8/5 248/8/5
f 252/8/5 250/8/5 251/8/5
f 253/8/5 250/8/5 252/8/5
f 254/8/5 250/8/5 253/8/5
f 255/8/5 253/8/5 252/8/5
f 256/8/5 253/8/5 255/8/5
f 259/9/5 258/9/5 257/9/5
f 260/9/5 258/9/5 259/9/5
f 267/8/5 262/8/5 261/8/5
f 268/8/5 262/8/5 267/8/5
f 269/5/5 264/5/5 263/5/5
f 270/5/5 264/5/5 269/5/5
f 271/5/5 266/5/5 265/5/5
f 272/5/5 266/5/5 271/5/5
f 275/8/5 274/8/5 273/8/5
f 276/8/5 274/8/5 275/8/5
f 278/8/5 277/8/5 276/8/5
f 279/8/5 277/8/5 278/8/5
f 280/8/5 277/8/5 279/8/5
f 281/8/5 277/8/5 280/8/5
f 283/8/5 278/8/5 276/8/5
f 284/8/5 278/8/5 283/8/5
f 285/8/5 280/8/5 279/8/5
f 286/8/5 280/8/5 285/8/5
f 287/8/5 283/8/5 282/8/5
f 288/8/5 283/8/5 287/8/5
f 289/8/6 290/8/6 292/8/6
f 292/8/6 290/8/6 293/8/6
f 291/8/6 292/8/6 295/8/6
f 295/8/6 292/8/6 296/8/6
f 293/8/6 294/8/6 297/8/6
f 297/8/6 294/8/6 298/8/6
f 296/8/6 297/8/6 299/8/6
f 299/8/6 297/8/6 300/8/6
f 301/9/6 302/9/6 307/9/6
f 307/9/6 302/9/6 308/9/6
f 303/9/6 304/9/6 309/9/6
f 309/9/6 304/9/6 310/9/6
f 305/9/6 306/9/6 311/9/6
f 311/9/6 306/9/6 312/9/6
f 313/5/6 314/5/6 317/5/6
f 317/5/6 314/5/6 318/5/6
f 315/5/6 316/5/6 319/5/6
f 319/5/6 316/5/6 320/5/6
f 321/8/6 322/8/6 324/8/6
f 324/8/6 322/8/6 325/8/6
f 323/8/6 324/8/6 327/8/6
f 327/8/6 324/8/6 328/8/6
f 325/8/6 326/8/6 329/8/6
f 329/8/6 326/8/6 330/8/6
f 328/8/6 329/8/6 331/8/6
f 331/8/6 329/8/6 332/8/6
f 333/8/6 334/8/6 335/8/6
f 335/8/6 334/8/6 336/8/6
