# MagicaVoxel @ Ephtracy

# group
o Decoration - Table - Ornate Orange

# material
mtllib Medieval Assets-20-Decoration - Table - Ornate Orange.mtl
usemtl palette

# normals
vn -1 0 0
vn 1 0 0
vn 0 0 1
vn 0 0 -1
vn 0 -1 0
vn 0 1 0

# texcoords
vt 0.00195312 0.5
vt 0.00976562 0.5
vt 0.0136719 0.5
vt 0.162109 0.5
vt 0.169922 0.5
vt 0.173828 0.5
vt 0.345703 0.5

# verts
v -45.5 0 -41
v -45.5 0 -41.3
v -45.5 0 -42.1
v -45.5 0 -42.4
v -45.5 0.1 -41
v -45.5 0.1 -41.3
v -45.5 0.1 -42.1
v -45.5 0.1 -42.4
v -45.4 0.1 -41.1
v -45.4 0.1 -41.2
v -45.4 0.1 -42.2
v -45.4 0.1 -42.3
v -45.4 0.7 -41.2
v -45.4 0.7 -42.2
v -45.4 0.8 -41.1
v -45.4 0.8 -41.2
v -45.4 0.8 -41.3
v -45.4 0.8 -41.4
v -45.4 0.8 -41.6
v -45.4 0.8 -41.8
v -45.4 0.8 -42
v -45.4 0.8 -42.1
v -45.4 0.8 -42.2
v -45.4 0.8 -42.3
v -45.4 0.9 -41.1
v -45.4 0.9 -41.2
v -45.4 0.9 -41.3
v -45.4 0.9 -41.4
v -45.4 0.9 -41.6
v -45.4 0.9 -41.8
v -45.4 0.9 -42
v -45.4 0.9 -42.1
v -45.4 0.9 -42.2
v -45.4 0.9 -42.3
v -43.6 0 -41
v -43.6 0 -41.3
v -43.6 0 -42.1
v -43.6 0 -42.4
v -43.6 0.1 -41
v -43.6 0.1 -41.3
v -43.6 0.1 -42.1
v -43.6 0.1 -42.4
v -43.5 0.1 -41.1
v -43.5 0.1 -41.2
v -43.5 0.1 -42.2
v -43.5 0.1 -42.3
v -43.5 0.7 -41.1
v -43.5 0.7 -41.2
v -43.5 0.7 -42.2
v -43.5 0.7 -42.3
v -43.5 0.8 -41.2
v -43.5 0.8 -42.2
v -45.3 0.1 -41.1
v -45.3 0.1 -41.2
v -45.3 0.1 -42.2
v -45.3 0.1 -42.3
v -45.3 0.7 -41.1
v -45.3 0.7 -41.2
v -45.3 0.7 -42.2
v -45.3 0.7 -42.3
v -45.3 0.8 -41.2
v -45.3 0.8 -42.2
v -45.2 0 -41
v -45.2 0 -41.3
v -45.2 0 -42.1
v -45.2 0 -42.4
v -45.2 0.1 -41
v -45.2 0.1 -41.3
v -45.2 0.1 -42.1
v -45.2 0.1 -42.4
v -43.4 0.1 -41.1
v -43.4 0.1 -41.2
v -43.4 0.1 -42.2
v -43.4 0.1 -42.3
v -43.4 0.7 -41.2
v -43.4 0.7 -42.2
v -43.4 0.8 -41.1
v -43.4 0.8 -41.2
v -43.4 0.8 -41.3
v -43.4 0.8 -41.4
v -43.4 0.8 -41.6
v -43.4 0.8 -41.9
v -43.4 0.8 -42
v -43.4 0.8 -42.1
v -43.4 0.8 -42.2
v -43.4 0.8 -42.3
v -43.4 0.9 -41.1
v -43.4 0.9 -41.2
v -43.4 0.9 -41.3
v -43.4 0.9 -41.4
v -43.4 0.9 -41.6
v -43.4 0.9 -41.9
v -43.4 0.9 -42
v -43.4 0.9 -42.1
v -43.4 0.9 -42.2
v -43.4 0.9 -42.3
v -43.3 0 -41
v -43.3 0 -41.3
v -43.3 0 -42.1
v -43.3 0 -42.4
v -43.3 0.1 -41
v -43.3 0.1 -41.3
v -43.3 0.1 -42.1
v -43.3 0.1 -42.4
v -45.5 0 -41
v -45.5 0.1 -41
v -45.2 0 -41
v -45.2 0.1 -41
v -43.6 0 -41
v -43.6 0.1 -41
v -43.3 0 -41
v -43.3 0.1 -41
v -45.4 0.1 -41.1
v -45.4 0.8 -41.1
v -45.4 0.9 -41.1
v -45.3 0.1 -41.1
v -45.3 0.7 -41.1
v -45.3 0.8 -41.1
v -45.3 0.9 -41.1
v -45.2 0.8 -41.1
v -45.2 0.9 -41.1
v -45.1 0.8 -41.1
v -45.1 0.9 -41.1
v -45 0.8 -41.1
v -45 0.9 -41.1
v -44.4 0.8 -41.1
v -44.4 0.9 -41.1
v -44.2 0.8 -41.1
v -44.2 0.9 -41.1
v -44 0.8 -41.1
v -44 0.9 -41.1
v -43.7 0.8 -41.1
v -43.7 0.9 -41.1
v -43.6 0.8 -41.1
v -43.6 0.9 -41.1
v -43.5 0.1 -41.1
v -43.5 0.7 -41.1
v -43.5 0.8 -41.1
v -43.5 0.9 -41.1
v -43.4 0.1 -41.1
v -43.4 0.8 -41.1
v -43.4 0.9 -41.1
v -45.5 0 -42.1
v -45.5 0.1 -42.1
v -45.2 0 -42.1
v -45.2 0.1 -42.1
v -43.6 0 -42.1
v -43.6 0.1 -42.1
v -43.3 0 -42.1
v -43.3 0.1 -42.1
v -45.4 0.1 -42.2
v -45.4 0.7 -42.2
v -45.3 0.1 -42.2
v -45.3 0.7 -42.2
v -45.3 0.8 -42.2
v -43.5 0.1 -42.2
v -43.5 0.7 -42.2
v -43.5 0.8 -42.2
v -43.4 0.1 -42.2
v -43.4 0.7 -42.2
v -45.4 0.1 -41.2
v -45.4 0.7 -41.2
v -45.3 0.1 -41.2
v -45.3 0.7 -41.2
v -45.3 0.8 -41.2
v -43.5 0.1 -41.2
v -43.5 0.7 -41.2
v -43.5 0.8 -41.2
v -43.4 0.1 -41.2
v -43.4 0.7 -41.2
v -45.5 0 -41.3
v -45.5 0.1 -41.3
v -45.2 0 -41.3
v -45.2 0.1 -41.3
v -43.6 0 -41.3
v -43.6 0.1 -41.3
v -43.3 0 -41.3
v -43.3 0.1 -41.3
v -45.4 0.1 -42.3
v -45.4 0.8 -42.3
v -45.4 0.9 -42.3
v -45.3 0.1 -42.3
v -45.3 0.7 -42.3
v -45.3 0.8 -42.3
v -45.3 0.9 -42.3
v -45.2 0.8 -42.3
v -45.2 0.9 -42.3
v -45.1 0.8 -42.3
v -45.1 0.9 -42.3
v -45 0.8 -42.3
v -45 0.9 -42.3
v -44.8 0.8 -42.3
v -44.8 0.9 -42.3
v -44.7 0.8 -42.3
v -44.7 0.9 -42.3
v -44.5 0.8 -42.3
v -44.5 0.9 -42.3
v -44.2 0.8 -42.3
v -44.2 0.9 -42.3
v -44 0.8 -42.3
v -44 0.9 -42.3
v -43.7 0.8 -42.3
v -43.7 0.9 -42.3
v -43.6 0.8 -42.3
v -43.6 0.9 -42.3
v -43.5 0.1 -42.3
v -43.5 0.7 -42.3
v -43.5 0.8 -42.3
v -43.5 0.9 -42.3
v -43.4 0.1 -42.3
v -43.4 0.8 -42.3
v -43.4 0.9 -42.3
v -45.5 0 -42.4
v -45.5 0.1 -42.4
v -45.2 0 -42.4
v -45.2 0.1 -42.4
v -43.6 0 -42.4
v -43.6 0.1 -42.4
v -43.3 0 -42.4
v -43.3 0.1 -42.4
v -45.5 0 -41
v -45.2 0 -41
v -43.6 0 -41
v -43.3 0 -41
v -45.5 0 -41.3
v -45.2 0 -41.3
v -43.6 0 -41.3
v -43.3 0 -41.3
v -45.5 0 -42.1
v -45.2 0 -42.1
v -43.6 0 -42.1
v -43.3 0 -42.1
v -45.5 0 -42.4
v -45.2 0 -42.4
v -43.6 0 -42.4
v -43.3 0 -42.4
v -45.3 0.7 -41.1
v -43.5 0.7 -41.1
v -45.4 0.7 -41.2
v -45.3 0.7 -41.2
v -43.5 0.7 -41.2
v -43.4 0.7 -41.2
v -45.4 0.7 -42.2
v -45.3 0.7 -42.2
v -43.5 0.7 -42.2
v -43.4 0.7 -42.2
v -45.3 0.7 -42.3
v -43.5 0.7 -42.3
v -45.3 0.8 -41.2
v -43.5 0.8 -41.2
v -45.2 0.8 -41.3
v -45.1 0.8 -41.3
v -43.7 0.8 -41.3
v -43.6 0.8 -41.3
v -45.2 0.8 -41.4
v -45.1 0.8 -41.4
v -43.7 0.8 -41.4
v -43.6 0.8 -41.4
v -44.8 0.8 -41.5
v -44.7 0.8 -41.5
v -44.4 0.8 -41.5
v -44 0.8 -41.5
v -45 0.8 -41.6
v -44.8 0.8 -41.6
v -44.7 0.8 -41.6
v -44.4 0.8 -41.6
v -44 0.8 -41.6
v -45 0.8 -41.7
v -44.8 0.8 -41.7
v -44.7 0.8 -41.7
v -44.5 0.8 -41.7
v -44.2 0.8 -41.7
v -44 0.8 -41.7
v -43.8 0.8 -41.7
v -43.7 0.8 -41.7
v -44.9 0.8 -41.8
v -44.7 0.8 -41.8
v -44.5 0.8 -41.8
v -44.4 0.8 -41.8
v -44.2 0.8 -41.8
v -44 0.8 -41.8
v -45.1 0.8 -41.9
v -44.9 0.8 -41.9
v -44.7 0.8 -41.9
v -44.4 0.8 -41.9
v -44.2 0.8 -41.9
v -43.8 0.8 -41.9
v -43.7 0.8 -41.9
v -45.2 0.8 -42
v -45.1 0.8 -42
v -44.9 0.8 -42
v -43.7 0.8 -42
v -43.6 0.8 -42
v -45.2 0.8 -42.1
v -45.1 0.8 -42.1
v -43.7 0.8 -42.1
v -43.6 0.8 -42.1
v -45.3 0.8 -42.2
v -43.5 0.8 -42.2
v -45.5 0.1 -41
v -45.2 0.1 -41
v -43.6 0.1 -41
v -43.3 0.1 -41
v -45.4 0.1 -41.1
v -45.3 0.1 -41.1
v -43.5 0.1 -41.1
v -43.4 0.1 -41.1
v -45.4 0.1 -41.2
v -45.3 0.1 -41.2
v -43.5 0.1 -41.2
v -43.4 0.1 -41.2
v -45.5 0.1 -41.3
v -45.2 0.1 -41.3
v -43.6 0.1 -41.3
v -43.3 0.1 -41.3
v -45.5 0.1 -42.1
v -45.2 0.1 -42.1
v -43.6 0.1 -42.1
v -43.3 0.1 -42.1
v -45.4 0.1 -42.2
v -45.3 0.1 -42.2
v -43.5 0.1 -42.2
v -43.4 0.1 -42.2
v -45.4 0.1 -42.3
v -45.3 0.1 -42.3
v -43.5 0.1 -42.3
v -43.4 0.1 -42.3
v -45.5 0.1 -42.4
v -45.2 0.1 -42.4
v -43.6 0.1 -42.4
v -43.3 0.1 -42.4
v -45.4 0.9 -41.1
v -45.3 0.9 -41.1
v -45.2 0.9 -41.1
v -45.1 0.9 -41.1
v -45 0.9 -41.1
v -44.4 0.9 -41.1
v -44.2 0.9 -41.1
v -44 0.9 -41.1
v -43.7 0.9 -41.1
v -43.6 0.9 -41.1
v -43.5 0.9 -41.1
v -43.4 0.9 -41.1
v -45.4 0.9 -41.2
v -45.3 0.9 -41.2
v -45.2 0.9 -41.2
v -45.1 0.9 -41.2
v -45 0.9 -41.2
v -44.4 0.9 -41.2
v -44.2 0.9 -41.2
v -44 0.9 -41.2
v -43.7 0.9 -41.2
v -43.6 0.9 -41.2
v -43.5 0.9 -41.2
v -43.4 0.9 -41.2
v -45.4 0.9 -41.3
v -45.3 0.9 -41.3
v -45.2 0.9 -41.3
v -45.1 0.9 -41.3
v -43.7 0.9 -41.3
v -43.6 0.9 -41.3
v -43.5 0.9 -41.3
v -43.4 0.9 -41.3
v -45.4 0.9 -41.4
v -45.3 0.9 -41.4
v -45.2 0.9 -41.4
v -45.1 0.9 -41.4
v -43.7 0.9 -41.4
v -43.6 0.9 -41.4
v -43.5 0.9 -41.4
v -43.4 0.9 -41.4
v -44.8 0.9 -41.5
v -44.7 0.9 -41.5
v -44.4 0.9 -41.5
v -44 0.9 -41.5
v -45.4 0.9 -41.6
v -45.3 0.9 -41.6
v -45 0.9 -41.6
v -44.8 0.9 -41.6
v -44.7 0.9 -41.6
v -44.4 0.9 -41.6
v -44 0.9 -41.6
v -43.5 0.9 -41.6
v -43.4 0.9 -41.6
v -45 0.9 -41.7
v -44.8 0.9 -41.7
v -44.7 0.9 -41.7
v -44.5 0.9 -41.7
v -44.2 0.9 -41.7
v -44 0.9 -41.7
v -43.8 0.9 -41.7
v -43.7 0.9 -41.7
v -45.4 0.9 -41.8
v -45.3 0.9 -41.8
v -44.9 0.9 -41.8
v -44.7 0.9 -41.8
v -44.5 0.9 -41.8
v -44.4 0.9 -41.8
v -44.2 0.9 -41.8
v -44 0.9 -41.8
v -45.1 0.9 -41.9
v -44.9 0.9 -41.9
v -44.7 0.9 -41.9
v -44.4 0.9 -41.9
v -44.2 0.9 -41.9
v -43.8 0.9 -41.9
v -43.7 0.9 -41.9
v -43.5 0.9 -41.9
v -43.4 0.9 -41.9
v -45.4 0.9 -42
v -45.3 0.9 -42
v -45.2 0.9 -42
v -45.1 0.9 -42
v -44.9 0.9 -42
v -43.7 0.9 -42
v -43.6 0.9 -42
v -43.5 0.9 -42
v -43.4 0.9 -42
v -45.4 0.9 -42.1
v -45.3 0.9 -42.1
v -45.2 0.9 -42.1
v -45.1 0.9 -42.1
v -43.7 0.9 -42.1
v -43.6 0.9 -42.1
v -43.5 0.9 -42.1
v -43.4 0.9 -42.1
v -45.4 0.9 -42.2
v -45.3 0.9 -42.2
v -45.2 0.9 -42.2
v -45.1 0.9 -42.2
v -45 0.9 -42.2
v -44.8 0.9 -42.2
v -44.7 0.9 -42.2
v -44.5 0.9 -42.2
v -44.2 0.9 -42.2
v -44 0.9 -42.2
v -43.7 0.9 -42.2
v -43.6 0.9 -42.2
v -43.5 0.9 -42.2
v -43.4 0.9 -42.2
v -45.4 0.9 -42.3
v -45.3 0.9 -42.3
v -45.2 0.9 -42.3
v -45.1 0.9 -42.3
v -45 0.9 -42.3
v -44.8 0.9 -42.3
v -44.7 0.9 -42.3
v -44.5 0.9 -42.3
v -44.2 0.9 -42.3
v -44 0.9 -42.3
v -43.7 0.9 -42.3
v -43.6 0.9 -42.3
v -43.5 0.9 -42.3
v -43.4 0.9 -42.3

# faces
f 5/4/1 2/4/1 1/4/1
f 6/4/1 2/4/1 5/4/1
f 7/4/1 4/4/1 3/4/1
f 8/4/1 4/4/1 7/4/1
f 13/5/1 10/5/1 9/5/1
f 14/5/1 12/5/1 11/5/1
f 15/5/1 13/5/1 9/5/1
f 15/5/1 14/5/1 13/5/1
f 16/5/1 14/5/1 15/5/1
f 17/5/1 14/5/1 16/5/1
f 18/5/1 14/5/1 17/5/1
f 19/5/1 14/5/1 18/5/1
f 20/5/1 14/5/1 19/5/1
f 21/5/1 14/5/1 20/5/1
f 22/5/1 14/5/1 21/5/1
f 23/5/1 12/5/1 14/5/1
f 23/5/1 14/5/1 22/5/1
f 24/5/1 12/5/1 23/5/1
f 25/1/1 16/1/1 15/1/1
f 26/6/1 17/6/1 16/6/1
f 26/1/1 16/1/1 25/1/1
f 27/1/1 18/1/1 17/1/1
f 27/6/1 17/6/1 26/6/1
f 28/6/1 19/6/1 18/6/1
f 28/1/1 18/1/1 27/1/1
f 29/7/1 20/7/1 19/7/1
f 29/6/1 19/6/1 28/6/1
f 30/6/1 21/6/1 20/6/1
f 30/7/1 20/7/1 29/7/1
f 31/1/1 22/1/1 21/1/1
f 31/6/1 21/6/1 30/6/1
f 32/6/1 23/6/1 22/6/1
f 32/1/1 22/1/1 31/1/1
f 33/1/1 24/1/1 23/1/1
f 33/6/1 23/6/1 32/6/1
f 34/1/1 24/1/1 33/1/1
f 39/4/1 36/4/1 35/4/1
f 40/4/1 36/4/1 39/4/1
f 41/4/1 38/4/1 37/4/1
f 42/4/1 38/4/1 41/4/1
f 47/5/1 44/5/1 43/5/1
f 48/5/1 44/5/1 47/5/1
f 49/5/1 46/5/1 45/5/1
f 50/5/1 46/5/1 49/5/1
f 51/5/1 49/5/1 48/5/1
f 52/5/1 49/5/1 51/5/1
f 53/5/2 54/5/2 57/5/2
f 57/5/2 54/5/2 58/5/2
f 55/5/2 56/5/2 59/5/2
f 59/5/2 56/5/2 60/5/2
f 58/5/2 59/5/2 61/5/2
f 61/5/2 59/5/2 62/5/2
f 63/4/2 64/4/2 67/4/2
f 67/4/2 64/4/2 68/4/2
f 65/4/2 66/4/2 69/4/2
f 69/4/2 66/4/2 70/4/2
f 71/5/2 72/5/2 75/5/2
f 73/5/2 74/5/2 76/5/2
f 71/5/2 75/5/2 77/5/2
f 75/5/2 76/5/2 77/5/2
f 77/5/2 76/5/2 78/5/2
f 78/5/2 76/5/2 79/5/2
f 79/5/2 76/5/2 80/5/2
f 80/5/2 76/5/2 81/5/2
f 81/5/2 76/5/2 82/5/2
f 82/5/2 76/5/2 83/5/2
f 83/5/2 76/5/2 84/5/2
f 76/5/2 74/5/2 85/5/2
f 84/5/2 76/5/2 85/5/2
f 85/5/2 74/5/2 86/5/2
f 77/1/2 78/1/2 87/1/2
f 78/6/2 79/6/2 88/6/2
f 87/1/2 78/1/2 88/1/2
f 79/1/2 80/1/2 89/1/2
f 88/6/2 79/6/2 89/6/2
f 80/6/2 81/6/2 90/6/2
f 89/1/2 80/1/2 90/1/2
f 81/7/2 82/7/2 91/7/2
f 90/6/2 81/6/2 91/6/2
f 82/6/2 83/6/2 92/6/2
f 91/7/2 82/7/2 92/7/2
f 83/1/2 84/1/2 93/1/2
f 92/6/2 83/6/2 93/6/2
f 84/6/2 85/6/2 94/6/2
f 93/1/2 84/1/2 94/1/2
f 85/1/2 86/1/2 95/1/2
f 94/6/2 85/6/2 95/6/2
f 95/1/2 86/1/2 96/1/2
f 97/4/2 98/4/2 101/4/2
f 101/4/2 98/4/2 102/4/2
f 99/4/2 100/4/2 103/4/2
f 103/4/2 100/4/2 104/4/2
f 107/4/3 106/4/3 105/4/3
f 108/4/3 106/4/3 107/4/3
f 111/4/3 110/4/3 109/4/3
f 112/4/3 110/4/3 111/4/3
f 116/5/3 114/5/3 113/5/3
f 117/5/3 114/5/3 116/5/3
f 118/1/3 115/1/3 114/1/3
f 118/5/3 114/5/3 117/5/3
f 119/1/3 115/1/3 118/1/3
f 120/5/3 118/5/3 117/5/3
f 120/6/3 119/6/3 118/6/3
f 121/6/3 119/6/3 120/6/3
f 122/5/3 120/5/3 117/5/3
f 122/1/3 121/1/3 120/1/3
f 123/1/3 121/1/3 122/1/3
f 124/5/3 122/5/3 117/5/3
f 124/6/3 123/6/3 122/6/3
f 125/6/3 123/6/3 124/6/3
f 126/5/3 124/5/3 117/5/3
f 126/7/3 125/7/3 124/7/3
f 127/7/3 125/7/3 126/7/3
f 128/5/3 126/5/3 117/5/3
f 128/6/3 127/6/3 126/6/3
f 129/6/3 127/6/3 128/6/3
f 130/5/3 128/5/3 117/5/3
f 130/7/3 129/7/3 128/7/3
f 131/7/3 129/7/3 130/7/3
f 132/5/3 130/5/3 117/5/3
f 132/6/3 131/6/3 130/6/3
f 133/6/3 131/6/3 132/6/3
f 134/5/3 132/5/3 117/5/3
f 134/1/3 133/1/3 132/1/3
f 135/1/3 133/1/3 134/1/3
f 137/5/3 134/5/3 117/5/3
f 138/6/3 135/6/3 134/6/3
f 138/5/3 134/5/3 137/5/3
f 139/6/3 135/6/3 138/6/3
f 140/5/3 137/5/3 136/5/3
f 140/5/3 138/5/3 137/5/3
f 141/1/3 139/1/3 138/1/3
f 141/5/3 138/5/3 140/5/3
f 142/1/3 139/1/3 141/1/3
f 145/4/3 144/4/3 143/4/3
f 146/4/3 144/4/3 145/4/3
f 149/4/3 148/4/3 147/4/3
f 150/4/3 148/4/3 149/4/3
f 153/5/3 152/5/3 151/5/3
f 154/5/3 152/5/3 153/5/3
f 157/5/3 155/5/3 154/5/3
f 158/5/3 155/5/3 157/5/3
f 159/5/3 157/5/3 156/5/3
f 160/5/3 157/5/3 159/5/3
f 161/5/4 162/5/4 163/5/4
f 163/5/4 162/5/4 164/5/4
f 164/5/4 165/5/4 167/5/4
f 167/5/4 165/5/4 168/5/4
f 166/5/4 167/5/4 169/5/4
f 169/5/4 167/5/4 170/5/4
f 171/4/4 172/4/4 173/4/4
f 173/4/4 172/4/4 174/4/4
f 175/4/4 176/4/4 177/4/4
f 177/4/4 176/4/4 178/4/4
f 179/5/4 180/5/4 182/5/4
f 182/5/4 180/5/4 183/5/4
f 180/1/4 181/1/4 184/1/4
f 183/5/4 180/5/4 184/5/4
f 184/1/4 181/1/4 185/1/4
f 183/5/4 184/5/4 186/5/4
f 184/6/4 185/6/4 186/6/4
f 186/6/4 185/6/4 187/6/4
f 183/5/4 186/5/4 188/5/4
f 186/1/4 187/1/4 188/1/4
f 188/1/4 187/1/4 189/1/4
f 183/5/4 188/5/4 190/5/4
f 188/6/4 189/6/4 190/6/4
f 190/6/4 189/6/4 191/6/4
f 183/5/4 190/5/4 192/5/4
f 190/7/4 191/7/4 192/7/4
f 192/7/4 191/7/4 193/7/4
f 183/5/4 192/5/4 194/5/4
f 192/6/4 193/6/4 194/6/4
f 194/6/4 193/6/4 195/6/4
f 183/5/4 194/5/4 196/5/4
f 194/7/4 195/7/4 196/7/4
f 196/7/4 195/7/4 197/7/4
f 183/5/4 196/5/4 198/5/4
f 196/6/4 197/6/4 198/6/4
f 198/6/4 197/6/4 199/6/4
f 183/5/4 198/5/4 200/5/4
f 198/7/4 199/7/4 200/7/4
f 200/7/4 199/7/4 201/7/4
f 183/5/4 200/5/4 202/5/4
f 200/6/4 201/6/4 202/6/4
f 202/6/4 201/6/4 203/6/4
f 183/5/4 202/5/4 204/5/4
f 202/1/4 203/1/4 204/1/4
f 204/1/4 203/1/4 205/1/4
f 183/5/4 204/5/4 207/5/4
f 204/6/4 205/6/4 208/6/4
f 207/5/4 204/5/4 208/5/4
f 208/6/4 205/6/4 209/6/4
f 206/5/4 207/5/4 210/5/4
f 207/5/4 208/5/4 210/5/4
f 208/1/4 209/1/4 211/1/4
f 210/5/4 208/5/4 211/5/4
f 211/1/4 209/1/4 212/1/4
f 213/4/4 214/4/4 215/4/4
f 215/4/4 214/4/4 216/4/4
f 217/4/4 218/4/4 219/4/4
f 219/4/4 218/4/4 220/4/4
f 225/4/5 222/4/5 221/4/5
f 226/4/5 222/4/5 225/4/5
f 227/4/5 224/4/5 223/4/5
f 228/4/5 224/4/5 227/4/5
f 233/4/5 230/4/5 229/4/5
f 234/4/5 230/4/5 233/4/5
f 235/4/5 232/4/5 231/4/5
f 236/4/5 232/4/5 235/4/5
f 240/5/5 238/5/5 237/5/5
f 241/5/5 238/5/5 240/5/5
f 243/5/5 240/5/5 239/5/5
f 244/5/5 240/5/5 243/5/5
f 245/5/5 242/5/5 241/5/5
f 246/5/5 242/5/5 245/5/5
f 247/5/5 245/5/5 244/5/5
f 248/5/5 245/5/5 247/5/5
f 251/2/5 250/2/5 249/2/5
f 252/2/5 250/2/5 251/2/5
f 253/2/5 250/2/5 252/2/5
f 254/2/5 250/2/5 253/2/5
f 255/2/5 251/2/5 249/2/5
f 255/1/5 252/1/5 251/1/5
f 256/3/5 253/3/5 252/3/5
f 256/1/5 252/1/5 255/1/5
f 257/1/5 254/1/5 253/1/5
f 257/3/5 253/3/5 256/3/5
f 258/2/5 250/2/5 254/2/5
f 258/1/5 254/1/5 257/1/5
f 259/6/5 257/6/5 256/6/5
f 260/6/5 257/6/5 259/6/5
f 261/6/5 257/6/5 260/6/5
f 262/6/5 257/6/5 261/6/5
f 263/6/5 259/6/5 256/6/5
f 264/7/5 260/7/5 259/7/5
f 264/6/5 259/6/5 263/6/5
f 265/6/5 261/6/5 260/6/5
f 265/7/5 260/7/5 264/7/5
f 266/7/5 262/7/5 261/7/5
f 266/6/5 261/6/5 265/6/5
f 267/6/5 257/6/5 262/6/5
f 267/7/5 262/7/5 266/7/5
f 268/6/5 263/6/5 256/6/5
f 268/7/5 264/7/5 263/7/5
f 269/6/5 266/6/5 265/6/5
f 269/7/5 264/7/5 268/7/5
f 269/6/5 267/6/5 266/6/5
f 269/6/5 265/6/5 264/6/5
f 270/6/5 267/6/5 269/6/5
f 271/6/5 267/6/5 270/6/5
f 272/6/5 267/6/5 271/6/5
f 273/6/5 257/6/5 267/6/5
f 273/6/5 267/6/5 272/6/5
f 274/6/5 257/6/5 273/6/5
f 275/3/5 258/3/5 257/3/5
f 275/6/5 257/6/5 274/6/5
f 276/6/5 269/6/5 268/6/5
f 276/6/5 270/6/5 269/6/5
f 277/7/5 271/7/5 270/7/5
f 277/6/5 270/6/5 276/6/5
f 278/6/5 272/6/5 271/6/5
f 278/7/5 271/7/5 277/7/5
f 279/6/5 272/6/5 278/6/5
f 280/7/5 273/7/5 272/7/5
f 280/6/5 272/6/5 279/6/5
f 281/6/5 274/6/5 273/6/5
f 281/7/5 273/7/5 280/7/5
f 282/3/5 256/3/5 255/3/5
f 282/6/5 268/6/5 256/6/5
f 282/6/5 276/6/5 268/6/5
f 283/7/5 277/7/5 276/7/5
f 283/6/5 276/6/5 282/6/5
f 284/6/5 278/6/5 277/6/5
f 284/7/5 277/7/5 283/7/5
f 284/6/5 279/6/5 278/6/5
f 285/7/5 280/7/5 279/7/5
f 285/6/5 279/6/5 284/6/5
f 286/6/5 281/6/5 280/6/5
f 286/7/5 280/7/5 285/7/5
f 287/6/5 274/6/5 281/6/5
f 287/6/5 281/6/5 286/6/5
f 287/7/5 275/7/5 274/7/5
f 288/3/5 258/3/5 275/3/5
f 288/7/5 275/7/5 287/7/5
f 289/2/5 255/2/5 249/2/5
f 289/3/5 282/3/5 255/3/5
f 290/7/5 283/7/5 282/7/5
f 290/3/5 282/3/5 289/3/5
f 291/6/5 286/6/5 285/6/5
f 291/7/5 283/7/5 290/7/5
f 291/6/5 284/6/5 283/6/5
f 291/6/5 285/6/5 284/6/5
f 291/6/5 287/6/5 286/6/5
f 291/6/5 288/6/5 287/6/5
f 292/3/5 258/3/5 288/3/5
f 292/6/5 288/6/5 291/6/5
f 293/2/5 250/2/5 258/2/5
f 293/3/5 258/3/5 292/3/5
f 294/1/5 290/1/5 289/1/5
f 294/2/5 289/2/5 249/2/5
f 295/3/5 292/3/5 291/3/5
f 295/1/5 290/1/5 294/1/5
f 295/3/5 291/3/5 290/3/5
f 296/1/5 293/1/5 292/1/5
f 296/3/5 292/3/5 295/3/5
f 297/2/5 250/2/5 293/2/5
f 297/1/5 293/1/5 296/1/5
f 298/2/5 294/2/5 249/2/5
f 298/2/5 296/2/5 295/2/5
f 298/2/5 297/2/5 296/2/5
f 298/2/5 295/2/5 294/2/5
f 299/2/5 250/2/5 297/2/5
f 299/2/5 297/2/5 298/2/5
f 300/4/6 301/4/6 304/4/6
f 304/4/6 301/4/6 305/4/6
f 302/4/6 303/4/6 306/4/6
f 306/4/6 303/4/6 307/4/6
f 300/4/6 304/4/6 308/4/6
f 305/4/6 301/4/6 309/4/6
f 302/4/6 306/4/6 310/4/6
f 307/4/6 303/4/6 311/4/6
f 300/4/6 308/4/6 312/4/6
f 308/4/6 309/4/6 312/4/6
f 309/4/6 301/4/6 313/4/6
f 312/4/6 309/4/6 313/4/6
f 310/4/6 311/4/6 314/4/6
f 302/4/6 310/4/6 314/4/6
f 311/4/6 303/4/6 315/4/6
f 314/4/6 311/4/6 315/4/6
f 316/4/6 317/4/6 320/4/6
f 320/4/6 317/4/6 321/4/6
f 318/4/6 319/4/6 322/4/6
f 322/4/6 319/4/6 323/4/6
f 316/4/6 320/4/6 324/4/6
f 321/4/6 317/4/6 325/4/6
f 318/4/6 322/4/6 326/4/6
f 323/4/6 319/4/6 327/4/6
f 316/4/6 324/4/6 328/4/6
f 324/4/6 325/4/6 328/4/6
f 325/4/6 317/4/6 329/4/6
f 328/4/6 325/4/6 329/4/6
f 326/4/6 327/4/6 330/4/6
f 318/4/6 326/4/6 330/4/6
f 327/4/6 319/4/6 331/4/6
f 330/4/6 327/4/6 331/4/6
f 332/1/6 333/1/6 344/1/6
f 333/6/6 334/6/6 345/6/6
f 344/1/6 333/1/6 345/1/6
f 334/1/6 335/1/6 346/1/6
f 345/6/6 334/6/6 346/6/6
f 335/6/6 336/6/6 347/6/6
f 346/1/6 335/1/6 347/1/6
f 336/7/6 337/7/6 348/7/6
f 347/6/6 336/6/6 348/6/6
f 337/6/6 338/6/6 349/6/6
f 348/7/6 337/7/6 349/7/6
f 338/7/6 339/7/6 350/7/6
f 349/6/6 338/6/6 350/6/6
f 339/6/6 340/6/6 351/6/6
f 350/7/6 339/7/6 351/7/6
f 340/1/6 341/1/6 352/1/6
f 351/6/6 340/6/6 352/6/6
f 341/6/6 342/6/6 353/6/6
f 352/1/6 341/1/6 353/1/6
f 342/1/6 343/1/6 354/1/6
f 353/6/6 342/6/6 354/6/6
f 354/1/6 343/1/6 355/1/6
f 344/6/6 345/6/6 356/6/6
f 352/2/6 353/2/6 357/2/6
f 356/6/6 345/6/6 357/6/6
f 345/2/6 346/2/6 357/2/6
f 346/2/6 347/2/6 357/2/6
f 353/2/6 354/2/6 357/2/6
f 351/2/6 352/2/6 357/2/6
f 350/2/6 351/2/6 357/2/6
f 349/2/6 350/2/6 357/2/6
f 348/2/6 349/2/6 357/2/6
f 347/2/6 348/2/6 357/2/6
f 357/2/6 354/2/6 358/2/6
f 358/2/6 354/2/6 359/2/6
f 359/2/6 354/2/6 360/2/6
f 360/2/6 354/2/6 361/2/6
f 354/6/6 355/6/6 362/6/6
f 361/2/6 354/2/6 362/2/6
f 362/6/6 355/6/6 363/6/6
f 356/1/6 357/1/6 364/1/6
f 357/2/6 358/2/6 365/2/6
f 364/1/6 357/1/6 365/1/6
f 358/1/6 359/1/6 366/1/6
f 365/2/6 358/2/6 366/2/6
f 359/3/6 360/3/6 367/3/6
f 366/1/6 359/1/6 367/1/6
f 360/1/6 361/1/6 368/1/6
f 367/3/6 360/3/6 368/3/6
f 361/2/6 362/2/6 369/2/6
f 368/1/6 361/1/6 369/1/6
f 362/1/6 363/1/6 370/1/6
f 369/2/6 362/2/6 370/2/6
f 370/1/6 363/1/6 371/1/6
f 367/6/6 368/6/6 372/6/6
f 372/6/6 368/6/6 373/6/6
f 373/6/6 368/6/6 374/6/6
f 374/6/6 368/6/6 375/6/6
f 364/6/6 365/6/6 376/6/6
f 365/2/6 366/2/6 377/2/6
f 376/6/6 365/6/6 377/6/6
f 367/6/6 372/6/6 378/6/6
f 372/7/6 373/7/6 379/7/6
f 378/6/6 372/6/6 379/6/6
f 373/6/6 374/6/6 380/6/6
f 379/7/6 373/7/6 380/7/6
f 374/7/6 375/7/6 381/7/6
f 380/6/6 374/6/6 381/6/6
f 375/6/6 368/6/6 382/6/6
f 381/7/6 375/7/6 382/7/6
f 369/2/6 370/2/6 383/2/6
f 370/6/6 371/6/6 383/6/6
f 383/6/6 371/6/6 384/6/6
f 367/6/6 378/6/6 385/6/6
f 378/7/6 379/7/6 385/7/6
f 380/6/6 381/6/6 386/6/6
f 385/7/6 379/7/6 386/7/6
f 381/6/6 382/6/6 386/6/6
f 379/6/6 380/6/6 386/6/6
f 386/6/6 382/6/6 387/6/6
f 387/6/6 382/6/6 388/6/6
f 388/6/6 382/6/6 389/6/6
f 382/6/6 368/6/6 390/6/6
f 389/6/6 382/6/6 390/6/6
f 390/6/6 368/6/6 391/6/6
f 368/3/6 369/3/6 392/3/6
f 391/6/6 368/6/6 392/6/6
f 376/7/6 377/7/6 393/7/6
f 377/2/6 366/2/6 394/2/6
f 393/7/6 377/7/6 394/7/6
f 385/6/6 386/6/6 395/6/6
f 386/6/6 387/6/6 395/6/6
f 387/7/6 388/7/6 396/7/6
f 395/6/6 387/6/6 396/6/6
f 388/6/6 389/6/6 397/6/6
f 396/7/6 388/7/6 397/7/6
f 397/6/6 389/6/6 398/6/6
f 389/7/6 390/7/6 399/7/6
f 398/6/6 389/6/6 399/6/6
f 390/6/6 391/6/6 400/6/6
f 399/7/6 390/7/6 400/7/6
f 366/3/6 367/3/6 401/3/6
f 367/6/6 385/6/6 401/6/6
f 385/6/6 395/6/6 401/6/6
f 395/7/6 396/7/6 402/7/6
f 401/6/6 395/6/6 402/6/6
f 396/6/6 397/6/6 403/6/6
f 402/7/6 396/7/6 403/7/6
f 397/6/6 398/6/6 403/6/6
f 398/7/6 399/7/6 404/7/6
f 403/6/6 398/6/6 404/6/6
f 399/6/6 400/6/6 405/6/6
f 404/7/6 399/7/6 405/7/6
f 400/6/6 391/6/6 406/6/6
f 405/6/6 400/6/6 406/6/6
f 391/7/6 392/7/6 406/7/6
f 392/3/6 369/3/6 407/3/6
f 406/7/6 392/7/6 407/7/6
f 369/2/6 383/2/6 408/2/6
f 383/7/6 384/7/6 408/7/6
f 408/7/6 384/7/6 409/7/6
f 393/6/6 394/6/6 410/6/6
f 394/2/6 366/2/6 411/2/6
f 410/6/6 394/6/6 411/6/6
f 366/3/6 401/3/6 412/3/6
f 411/2/6 366/2/6 412/2/6
f 401/7/6 402/7/6 413/7/6
f 412/3/6 401/3/6 413/3/6
f 404/6/6 405/6/6 414/6/6
f 413/7/6 402/7/6 414/7/6
f 403/6/6 404/6/6 414/6/6
f 402/6/6 403/6/6 414/6/6
f 406/6/6 407/6/6 414/6/6
f 405/6/6 406/6/6 414/6/6
f 407/3/6 369/3/6 415/3/6
f 414/6/6 407/6/6 415/6/6
f 369/2/6 408/2/6 416/2/6
f 415/3/6 369/3/6 416/3/6
f 408/6/6 409/6/6 417/6/6
f 416/2/6 408/2/6 417/2/6
f 417/6/6 409/6/6 418/6/6
f 410/1/6 411/1/6 419/1/6
f 411/2/6 412/2/6 420/2/6
f 419/1/6 411/1/6 420/1/6
f 412/1/6 413/1/6 421/1/6
f 420/2/6 412/2/6 421/2/6
f 414/3/6 415/3/6 422/3/6
f 421/1/6 413/1/6 422/1/6
f 413/3/6 414/3/6 422/3/6
f 415/1/6 416/1/6 423/1/6
f 422/3/6 415/3/6 423/3/6
f 416/2/6 417/2/6 424/2/6
f 423/1/6 416/1/6 424/1/6
f 417/1/6 418/1/6 425/1/6
f 424/2/6 417/2/6 425/2/6
f 425/1/6 418/1/6 426/1/6
f 419/6/6 420/6/6 427/6/6
f 421/2/6 422/2/6 428/2/6
f 427/6/6 420/6/6 428/6/6
f 420/2/6 421/2/6 428/2/6
f 423/2/6 424/2/6 428/2/6
f 424/2/6 425/2/6 428/2/6
f 422/2/6 423/2/6 428/2/6
f 428/2/6 425/2/6 429/2/6
f 429/2/6 425/2/6 430/2/6
f 430/2/6 425/2/6 431/2/6
f 431/2/6 425/2/6 432/2/6
f 432/2/6 425/2/6 433/2/6
f 433/2/6 425/2/6 434/2/6
f 434/2/6 425/2/6 435/2/6
f 435/2/6 425/2/6 436/2/6
f 436/2/6 425/2/6 437/2/6
f 437/2/6 425/2/6 438/2/6
f 425/6/6 426/6/6 439/6/6
f 438/2/6 425/2/6 439/2/6
f 439/6/6 426/6/6 440/6/6
f 427/1/6 428/1/6 441/1/6
f 428/6/6 429/6/6 442/6/6
f 441/1/6 428/1/6 442/1/6
f 429/1/6 430/1/6 443/1/6
f 442/6/6 429/6/6 443/6/6
f 430/6/6 431/6/6 444/6/6
f 443/1/6 430/1/6 444/1/6
f 431/7/6 432/7/6 445/7/6
f 444/6/6 431/6/6 445/6/6
f 432/6/6 433/6/6 446/6/6
f 445/7/6 432/7/6 446/7/6
f 433/7/6 434/7/6 447/7/6
f 446/6/6 433/6/6 447/6/6
f 434/6/6 435/6/6 448/6/6
f 447/7/6 434/7/6 448/7/6
f 435/7/6 436/7/6 449/7/6
f 448/6/6 435/6/6 449/6/6
f 436/6/6 437/6/6 450/6/6
f 449/7/6 436/7/6 450/7/6
f 437/1/6 438/1/6 451/1/6
f 450/6/6 437/6/6 451/6/6
f 438/6/6 439/6/6 452/6/6
f 451/1/6 438/1/6 452/1/6
f 439/1/6 440/1/6 453/1/6
f 452/6/6 439/6/6 453/6/6
f 453/1/6 440/1/6 454/1/6
