# MagicaVoxel @ Ephtracy

# group
o Crafting - Work - Sharpening Wheel - Wheel

# material
mtllib Medieval Assets-202-Crafting - Work - Sharpening Wheel - Wheel.mtl
usemtl palette

# normals
vn -1 0 0
vn 1 0 0
vn 0 0 1
vn 0 0 -1
vn 0 -1 0
vn 0 1 0

# texcoords
vt 0.138672 0.5
vt 0.146484 0.5
vt 0.150391 0.5
vt 0.154297 0.5

# verts
v 9.5 0.7 -28.5
v 9.5 0.7 -29.1
v 9.5 1.7 -28.5
v 9.5 1.7 -29.1
v 9.6 1.7 -28.5
v 9.6 1.7 -29.1
v 9.6 1.8 -28.5
v 9.6 1.8 -29.1
v 9.7 0.5 -28.5
v 9.7 0.5 -29.1
v 9.7 0.7 -28.5
v 9.7 0.7 -29.1
v 9.7 1.8 -28.5
v 9.7 1.8 -29.1
v 9.7 1.9 -28.5
v 9.7 1.9 -29.1
v 9.8 1.9 -28.5
v 9.8 1.9 -29.1
v 9.8 2 -28.5
v 9.8 2 -29.1
v 9.9 0.3 -28.5
v 9.9 0.3 -29.1
v 9.9 0.5 -28.5
v 9.9 0.5 -29.1
v 9.9 2 -28.5
v 9.9 2 -29.1
v 9.9 2.1 -28.5
v 9.9 2.1 -29.1
v 10 2.1 -28.5
v 10 2.1 -29.1
v 10 2.2 -28.5
v 10 2.2 -29.1
v 10.1 0.1 -28.5
v 10.1 0.1 -29.1
v 10.1 0.3 -28.5
v 10.1 0.3 -29.1
v 10.1 2.2 -28.5
v 10.1 2.2 -29.1
v 10.1 2.3 -28.5
v 10.1 2.3 -29.1
v 10.4 1 -27.8
v 10.4 1 -27.9
v 10.4 1.4 -27.8
v 10.4 1.4 -27.9
v 10.5 0.4 -26.9
v 10.5 0.4 -27
v 10.5 0.4 -27.5
v 10.5 0.5 -26.9
v 10.5 0.5 -27
v 10.5 0.6 -26.9
v 10.5 0.6 -27.3
v 10.5 0.7 -27.3
v 10.5 0.7 -27.4
v 10.5 0.9 -27.3
v 10.5 0.9 -27.4
v 10.5 1.1 -27.5
v 10.5 1.1 -27.6
v 10.5 1.1 -27.8
v 10.5 1.2 -27.6
v 10.5 1.2 -27.7
v 10.5 1.3 -27.3
v 10.5 1.3 -27.5
v 10.5 1.3 -27.7
v 10.5 1.3 -27.8
v 10.7 1.1 -28.5
v 10.7 1.1 -29.1
v 10.7 1.3 -28.5
v 10.7 1.3 -29.1
v 10.5 1.1 -28.5
v 10.5 1.1 -29.1
v 10.5 1.3 -28.5
v 10.5 1.3 -29.1
v 10.7 0.4 -26.9
v 10.7 0.4 -27
v 10.7 0.4 -27.4
v 10.7 0.4 -27.5
v 10.7 0.5 -26.9
v 10.7 0.5 -27
v 10.7 0.5 -27.4
v 10.7 0.6 -26.9
v 10.7 0.6 -27
v 10.7 0.6 -27.3
v 10.7 0.8 -27.3
v 10.7 0.8 -27.4
v 10.7 1 -27.3
v 10.7 1 -27.4
v 10.7 1.1 -27.5
v 10.7 1.1 -27.8
v 10.7 1.2 -27.3
v 10.7 1.2 -27.6
v 10.7 1.3 -27.3
v 10.7 1.3 -27.6
v 10.7 1.3 -27.8
v 10.8 1 -27.8
v 10.8 1 -27.9
v 10.8 1.4 -27.8
v 10.8 1.4 -27.9
v 11.1 0.1 -28.5
v 11.1 0.1 -29.1
v 11.1 0.3 -28.5
v 11.1 0.3 -29.1
v 11.1 2.2 -28.5
v 11.1 2.2 -29.1
v 11.1 2.3 -28.5
v 11.1 2.3 -29.1
v 11.2 2.1 -28.5
v 11.2 2.1 -29.1
v 11.2 2.2 -28.5
v 11.2 2.2 -29.1
v 11.3 0.3 -28.5
v 11.3 0.3 -29.1
v 11.3 0.5 -28.5
v 11.3 0.5 -29.1
v 11.3 2 -28.5
v 11.3 2 -29.1
v 11.3 2.1 -28.5
v 11.3 2.1 -29.1
v 11.4 1.9 -28.5
v 11.4 1.9 -29.1
v 11.4 2 -28.5
v 11.4 2 -29.1
v 11.5 0.5 -28.5
v 11.5 0.5 -29.1
v 11.5 0.7 -28.5
v 11.5 0.7 -29.1
v 11.5 1.8 -28.5
v 11.5 1.8 -29.1
v 11.5 1.9 -28.5
v 11.5 1.9 -29.1
v 11.6 1.7 -28.5
v 11.6 1.7 -29.1
v 11.6 1.8 -28.5
v 11.6 1.8 -29.1
v 11.7 0.7 -28.5
v 11.7 0.7 -29.1
v 11.7 1.7 -28.5
v 11.7 1.7 -29.1
v 10.5 0.4 -26.9
v 10.5 0.5 -26.9
v 10.5 0.6 -26.9
v 10.6 0.4 -26.9
v 10.6 0.5 -26.9
v 10.6 0.6 -26.9
v 10.7 0.4 -26.9
v 10.7 0.5 -26.9
v 10.7 0.6 -26.9
v 10.5 0.6 -27.3
v 10.5 0.7 -27.3
v 10.5 0.9 -27.3
v 10.5 1.3 -27.3
v 10.6 0.7 -27.3
v 10.6 0.8 -27.3
v 10.6 0.9 -27.3
v 10.6 1 -27.3
v 10.6 1.2 -27.3
v 10.6 1.3 -27.3
v 10.7 0.6 -27.3
v 10.7 0.8 -27.3
v 10.7 1 -27.3
v 10.7 1.2 -27.3
v 10.7 1.3 -27.3
v 10.4 1 -27.8
v 10.4 1.4 -27.8
v 10.5 1.1 -27.8
v 10.5 1.3 -27.8
v 10.7 1.1 -27.8
v 10.7 1.3 -27.8
v 10.8 1 -27.8
v 10.8 1.4 -27.8
v 9.5 0.7 -28.5
v 9.5 1.7 -28.5
v 9.6 1.7 -28.5
v 9.6 1.8 -28.5
v 9.7 0.5 -28.5
v 9.7 0.7 -28.5
v 9.7 1.8 -28.5
v 9.7 1.9 -28.5
v 9.8 1.9 -28.5
v 9.8 2 -28.5
v 9.9 0.3 -28.5
v 9.9 0.5 -28.5
v 9.9 2 -28.5
v 9.9 2.1 -28.5
v 10 2.1 -28.5
v 10 2.2 -28.5
v 10.1 0.1 -28.5
v 10.1 0.3 -28.5
v 10.1 2.2 -28.5
v 10.1 2.3 -28.5
v 10.5 1.1 -28.5
v 10.5 1.3 -28.5
v 10.7 1.1 -28.5
v 10.7 1.3 -28.5
v 11.1 0.1 -28.5
v 11.1 0.3 -28.5
v 11.1 2.2 -28.5
v 11.1 2.3 -28.5
v 11.2 2.1 -28.5
v 11.2 2.2 -28.5
v 11.3 0.3 -28.5
v 11.3 0.5 -28.5
v 11.3 2 -28.5
v 11.3 2.1 -28.5
v 11.4 1.9 -28.5
v 11.4 2 -28.5
v 11.5 0.5 -28.5
v 11.5 0.7 -28.5
v 11.5 1.8 -28.5
v 11.5 1.9 -28.5
v 11.6 1.7 -28.5
v 11.6 1.8 -28.5
v 11.7 0.7 -28.5
v 11.7 1.7 -28.5
v 10.5 0.4 -27.5
v 10.5 1.1 -27.5
v 10.6 1.1 -27.5
v 10.7 0.4 -27.5
v 10.7 1.1 -27.5
v 10.4 1 -27.9
v 10.4 1.4 -27.9
v 10.8 1 -27.9
v 10.8 1.4 -27.9
v 9.5 0.7 -29.1
v 9.5 1.7 -29.1
v 9.6 1.7 -29.1
v 9.6 1.8 -29.1
v 9.7 0.5 -29.1
v 9.7 0.7 -29.1
v 9.7 1.8 -29.1
v 9.7 1.9 -29.1
v 9.8 1.9 -29.1
v 9.8 2 -29.1
v 9.9 0.3 -29.1
v 9.9 0.5 -29.1
v 9.9 2 -29.1
v 9.9 2.1 -29.1
v 10 2.1 -29.1
v 10 2.2 -29.1
v 10.1 0.1 -29.1
v 10.1 0.3 -29.1
v 10.1 2.2 -29.1
v 10.1 2.3 -29.1
v 10.5 1.1 -29.1
v 10.5 1.3 -29.1
v 10.7 1.1 -29.1
v 10.7 1.3 -29.1
v 11.1 0.1 -29.1
v 11.1 0.3 -29.1
v 11.1 2.2 -29.1
v 11.1 2.3 -29.1
v 11.2 2.1 -29.1
v 11.2 2.2 -29.1
v 11.3 0.3 -29.1
v 11.3 0.5 -29.1
v 11.3 2 -29.1
v 11.3 2.1 -29.1
v 11.4 1.9 -29.1
v 11.4 2 -29.1
v 11.5 0.5 -29.1
v 11.5 0.7 -29.1
v 11.5 1.8 -29.1
v 11.5 1.9 -29.1
v 11.6 1.7 -29.1
v 11.6 1.8 -29.1
v 11.7 0.7 -29.1
v 11.7 1.7 -29.1
v 10.1 0.1 -28.5
v 11.1 0.1 -28.5
v 10.1 0.1 -29.1
v 11.1 0.1 -29.1
v 9.9 0.3 -28.5
v 10.1 0.3 -28.5
v 11.1 0.3 -28.5
v 11.3 0.3 -28.5
v 9.9 0.3 -29.1
v 10.1 0.3 -29.1
v 11.1 0.3 -29.1
v 11.3 0.3 -29.1
v 10.5 0.4 -26.9
v 10.6 0.4 -26.9
v 10.7 0.4 -26.9
v 10.5 0.4 -27
v 10.6 0.4 -27
v 10.7 0.4 -27
v 10.6 0.4 -27.4
v 10.7 0.4 -27.4
v 10.5 0.4 -27.5
v 10.7 0.4 -27.5
v 9.7 0.5 -28.5
v 9.9 0.5 -28.5
v 11.3 0.5 -28.5
v 11.5 0.5 -28.5
v 9.7 0.5 -29.1
v 9.9 0.5 -29.1
v 11.3 0.5 -29.1
v 11.5 0.5 -29.1
v 9.5 0.7 -28.5
v 9.7 0.7 -28.5
v 11.5 0.7 -28.5
v 11.7 0.7 -28.5
v 9.5 0.7 -29.1
v 9.7 0.7 -29.1
v 11.5 0.7 -29.1
v 11.7 0.7 -29.1
v 10.4 1 -27.8
v 10.8 1 -27.8
v 10.4 1 -27.9
v 10.8 1 -27.9
v 10.5 1.1 -27.5
v 10.6 1.1 -27.5
v 10.7 1.1 -27.5
v 10.5 1.1 -27.6
v 10.6 1.1 -27.6
v 10.5 1.1 -27.8
v 10.7 1.1 -27.8
v 10.5 1.3 -28.5
v 10.7 1.3 -28.5
v 10.5 1.3 -29.1
v 10.7 1.3 -29.1
v 10.5 0.6 -26.9
v 10.6 0.6 -26.9
v 10.7 0.6 -26.9
v 10.6 0.6 -27
v 10.7 0.6 -27
v 10.5 0.6 -27.3
v 10.7 0.6 -27.3
v 10.5 1.1 -28.5
v 10.7 1.1 -28.5
v 10.5 1.1 -29.1
v 10.7 1.1 -29.1
v 10.5 1.3 -27.3
v 10.6 1.3 -27.3
v 10.7 1.3 -27.3
v 10.5 1.3 -27.5
v 10.6 1.3 -27.5
v 10.6 1.3 -27.6
v 10.7 1.3 -27.6
v 10.5 1.3 -27.7
v 10.6 1.3 -27.7
v 10.5 1.3 -27.8
v 10.7 1.3 -27.8
v 10.4 1.4 -27.8
v 10.8 1.4 -27.8
v 10.4 1.4 -27.9
v 10.8 1.4 -27.9
v 9.5 1.7 -28.5
v 9.6 1.7 -28.5
v 11.6 1.7 -28.5
v 11.7 1.7 -28.5
v 9.5 1.7 -29.1
v 9.6 1.7 -29.1
v 11.6 1.7 -29.1
v 11.7 1.7 -29.1
v 9.6 1.8 -28.5
v 9.7 1.8 -28.5
v 11.5 1.8 -28.5
v 11.6 1.8 -28.5
v 9.6 1.8 -29.1
v 9.7 1.8 -29.1
v 11.5 1.8 -29.1
v 11.6 1.8 -29.1
v 9.7 1.9 -28.5
v 9.8 1.9 -28.5
v 11.4 1.9 -28.5
v 11.5 1.9 -28.5
v 9.7 1.9 -29.1
v 9.8 1.9 -29.1
v 11.4 1.9 -29.1
v 11.5 1.9 -29.1
v 9.8 2 -28.5
v 9.9 2 -28.5
v 11.3 2 -28.5
v 11.4 2 -28.5
v 9.8 2 -29.1
v 9.9 2 -29.1
v 11.3 2 -29.1
v 11.4 2 -29.1
v 9.9 2.1 -28.5
v 10 2.1 -28.5
v 11.2 2.1 -28.5
v 11.3 2.1 -28.5
v 9.9 2.1 -29.1
v 10 2.1 -29.1
v 11.2 2.1 -29.1
v 11.3 2.1 -29.1
v 10 2.2 -28.5
v 10.1 2.2 -28.5
v 11.1 2.2 -28.5
v 11.2 2.2 -28.5
v 10 2.2 -29.1
v 10.1 2.2 -29.1
v 11.1 2.2 -29.1
v 11.2 2.2 -29.1
v 10.1 2.3 -28.5
v 11.1 2.3 -28.5
v 10.1 2.3 -29.1
v 11.1 2.3 -29.1

# faces
f 3/1/1 2/1/1 1/1/1
f 4/1/1 2/1/1 3/1/1
f 7/1/1 6/1/1 5/1/1
f 8/1/1 6/1/1 7/1/1
f 11/1/1 10/1/1 9/1/1
f 12/1/1 10/1/1 11/1/1
f 15/1/1 14/1/1 13/1/1
f 16/1/1 14/1/1 15/1/1
f 19/1/1 18/1/1 17/1/1
f 20/1/1 18/1/1 19/1/1
f 23/1/1 22/1/1 21/1/1
f 24/1/1 22/1/1 23/1/1
f 27/1/1 26/1/1 25/1/1
f 28/1/1 26/1/1 27/1/1
f 31/1/1 30/1/1 29/1/1
f 32/1/1 30/1/1 31/1/1
f 35/1/1 34/1/1 33/1/1
f 36/1/1 34/1/1 35/1/1
f 39/1/1 38/1/1 37/1/1
f 40/1/1 38/1/1 39/1/1
f 43/2/1 42/2/1 41/2/1
f 44/2/1 42/2/1 43/2/1
f 48/4/1 46/4/1 45/4/1
f 49/3/1 47/3/1 46/3/1
f 49/4/1 46/4/1 48/4/1
f 50/3/1 49/3/1 48/3/1
f 51/3/1 47/3/1 49/3/1
f 51/3/1 49/3/1 50/3/1
f 52/3/1 47/3/1 51/3/1
f 53/3/1 47/3/1 52/3/1
f 54/4/1 53/4/1 52/4/1
f 55/3/1 47/3/1 53/3/1
f 55/4/1 53/4/1 54/4/1
f 56/3/1 55/3/1 54/3/1
f 56/3/1 47/3/1 55/3/1
f 59/4/1 57/4/1 56/4/1
f 59/3/1 58/3/1 57/3/1
f 60/3/1 58/3/1 59/3/1
f 61/3/1 56/3/1 54/3/1
f 62/4/1 59/4/1 56/4/1
f 62/3/1 56/3/1 61/3/1
f 62/4/1 60/4/1 59/4/1
f 63/3/1 58/3/1 60/3/1
f 63/4/1 60/4/1 62/4/1
f 64/3/1 58/3/1 63/3/1
f 67/1/1 66/1/1 65/1/1
f 68/1/1 66/1/1 67/1/1
f 69/1/2 70/1/2 71/1/2
f 71/1/2 70/1/2 72/1/2
f 73/3/2 74/3/2 77/3/2
f 74/4/2 75/4/2 78/4/2
f 77/3/2 74/3/2 78/3/2
f 75/3/2 76/3/2 79/3/2
f 78/4/2 75/4/2 79/4/2
f 77/4/2 78/4/2 80/4/2
f 78/3/2 79/3/2 81/3/2
f 80/4/2 78/4/2 81/4/2
f 81/3/2 79/3/2 82/3/2
f 82/3/2 79/3/2 83/3/2
f 79/3/2 76/3/2 84/3/2
f 83/3/2 79/3/2 84/3/2
f 83/4/2 84/4/2 85/4/2
f 84/3/2 76/3/2 86/3/2
f 85/4/2 84/4/2 86/4/2
f 85/3/2 86/3/2 87/3/2
f 86/3/2 76/3/2 87/3/2
f 85/3/2 87/3/2 89/3/2
f 87/3/2 88/3/2 89/3/2
f 89/3/2 88/3/2 90/3/2
f 89/4/2 90/4/2 91/4/2
f 90/3/2 88/3/2 92/3/2
f 91/4/2 90/4/2 92/4/2
f 92/3/2 88/3/2 93/3/2
f 94/2/2 95/2/2 96/2/2
f 96/2/2 95/2/2 97/2/2
f 98/1/2 99/1/2 100/1/2
f 100/1/2 99/1/2 101/1/2
f 102/1/2 103/1/2 104/1/2
f 104/1/2 103/1/2 105/1/2
f 106/1/2 107/1/2 108/1/2
f 108/1/2 107/1/2 109/1/2
f 110/1/2 111/1/2 112/1/2
f 112/1/2 111/1/2 113/1/2
f 114/1/2 115/1/2 116/1/2
f 116/1/2 115/1/2 117/1/2
f 118/1/2 119/1/2 120/1/2
f 120/1/2 119/1/2 121/1/2
f 122/1/2 123/1/2 124/1/2
f 124/1/2 123/1/2 125/1/2
f 126/1/2 127/1/2 128/1/2
f 128/1/2 127/1/2 129/1/2
f 130/1/2 131/1/2 132/1/2
f 132/1/2 131/1/2 133/1/2
f 134/1/2 135/1/2 136/1/2
f 136/1/2 135/1/2 137/1/2
f 141/4/3 139/4/3 138/4/3
f 142/3/3 140/3/3 139/3/3
f 142/4/3 139/4/3 141/4/3
f 143/3/3 140/3/3 142/3/3
f 144/3/3 142/3/3 141/3/3
f 145/4/3 143/4/3 142/4/3
f 145/3/3 142/3/3 144/3/3
f 146/4/3 143/4/3 145/4/3
f 151/3/3 148/3/3 147/3/3
f 151/4/3 149/4/3 148/4/3
f 152/4/3 149/4/3 151/4/3
f 153/3/3 150/3/3 149/3/3
f 153/4/3 149/4/3 152/4/3
f 154/3/3 150/3/3 153/3/3
f 155/3/3 150/3/3 154/3/3
f 156/3/3 150/3/3 155/3/3
f 157/3/3 152/3/3 151/3/3
f 157/3/3 151/3/3 147/3/3
f 158/4/3 153/4/3 152/4/3
f 158/3/3 152/3/3 157/3/3
f 158/4/3 154/4/3 153/4/3
f 159/3/3 155/3/3 154/3/3
f 159/4/3 154/4/3 158/4/3
f 160/4/3 156/4/3 155/4/3
f 160/3/3 155/3/3 159/3/3
f 161/4/3 156/4/3 160/4/3
f 164/2/3 163/2/3 162/2/3
f 165/2/3 163/2/3 164/2/3
f 166/2/3 164/2/3 162/2/3
f 167/2/3 163/2/3 165/2/3
f 168/2/3 166/2/3 162/2/3
f 168/2/3 167/2/3 166/2/3
f 169/2/3 163/2/3 167/2/3
f 169/2/3 167/2/3 168/2/3
f 172/1/3 171/1/3 170/1/3
f 175/1/3 172/1/3 170/1/3
f 175/1/3 173/1/3 172/1/3
f 176/1/3 173/1/3 175/1/3
f 178/1/3 175/1/3 174/1/3
f 178/1/3 177/1/3 176/1/3
f 178/1/3 176/1/3 175/1/3
f 181/1/3 178/1/3 174/1/3
f 181/1/3 179/1/3 178/1/3
f 182/1/3 179/1/3 181/1/3
f 184/1/3 181/1/3 180/1/3
f 184/1/3 183/1/3 182/1/3
f 184/1/3 182/1/3 181/1/3
f 187/1/3 184/1/3 180/1/3
f 187/1/3 185/1/3 184/1/3
f 188/1/3 185/1/3 187/1/3
f 190/1/3 187/1/3 186/1/3
f 190/1/3 189/1/3 188/1/3
f 190/1/3 188/1/3 187/1/3
f 191/1/3 189/1/3 190/1/3
f 192/1/3 190/1/3 186/1/3
f 193/1/3 189/1/3 191/1/3
f 194/1/3 192/1/3 186/1/3
f 194/1/3 193/1/3 192/1/3
f 195/1/3 193/1/3 194/1/3
f 196/1/3 189/1/3 193/1/3
f 196/1/3 193/1/3 195/1/3
f 197/1/3 189/1/3 196/1/3
f 198/1/3 196/1/3 195/1/3
f 199/1/3 196/1/3 198/1/3
f 200/1/3 198/1/3 195/1/3
f 201/1/3 198/1/3 200/1/3
f 202/1/3 198/1/3 201/1/3
f 203/1/3 198/1/3 202/1/3
f 204/1/3 202/1/3 201/1/3
f 205/1/3 202/1/3 204/1/3
f 206/1/3 204/1/3 201/1/3
f 207/1/3 204/1/3 206/1/3
f 208/1/3 204/1/3 207/1/3
f 209/1/3 204/1/3 208/1/3
f 210/1/3 208/1/3 207/1/3
f 211/1/3 208/1/3 210/1/3
f 212/1/3 210/1/3 207/1/3
f 213/1/3 210/1/3 212/1/3
f 214/3/4 215/3/4 216/3/4
f 214/3/4 216/3/4 217/3/4
f 217/3/4 216/3/4 218/3/4
f 219/2/4 220/2/4 221/2/4
f 221/2/4 220/2/4 222/2/4
f 223/1/4 224/1/4 225/1/4
f 223/1/4 225/1/4 228/1/4
f 225/1/4 226/1/4 228/1/4
f 228/1/4 226/1/4 229/1/4
f 227/1/4 228/1/4 231/1/4
f 229/1/4 230/1/4 231/1/4
f 228/1/4 229/1/4 231/1/4
f 227/1/4 231/1/4 234/1/4
f 231/1/4 232/1/4 234/1/4
f 234/1/4 232/1/4 235/1/4
f 233/1/4 234/1/4 237/1/4
f 235/1/4 236/1/4 237/1/4
f 234/1/4 235/1/4 237/1/4
f 233/1/4 237/1/4 240/1/4
f 237/1/4 238/1/4 240/1/4
f 240/1/4 238/1/4 241/1/4
f 239/1/4 240/1/4 243/1/4
f 241/1/4 242/1/4 243/1/4
f 240/1/4 241/1/4 243/1/4
f 243/1/4 242/1/4 244/1/4
f 239/1/4 243/1/4 245/1/4
f 244/1/4 242/1/4 246/1/4
f 239/1/4 245/1/4 247/1/4
f 245/1/4 246/1/4 247/1/4
f 247/1/4 246/1/4 248/1/4
f 246/1/4 242/1/4 249/1/4
f 248/1/4 246/1/4 249/1/4
f 249/1/4 242/1/4 250/1/4
f 248/1/4 249/1/4 251/1/4
f 251/1/4 249/1/4 252/1/4
f 248/1/4 251/1/4 253/1/4
f 253/1/4 251/1/4 254/1/4
f 254/1/4 251/1/4 255/1/4
f 255/1/4 251/1/4 256/1/4
f 254/1/4 255/1/4 257/1/4
f 257/1/4 255/1/4 258/1/4
f 254/1/4 257/1/4 259/1/4
f 259/1/4 257/1/4 260/1/4
f 260/1/4 257/1/4 261/1/4
f 261/1/4 257/1/4 262/1/4
f 260/1/4 261/1/4 263/1/4
f 263/1/4 261/1/4 264/1/4
f 260/1/4 263/1/4 265/1/4
f 265/1/4 263/1/4 266/1/4
f 269/1/5 268/1/5 267/1/5
f 270/1/5 268/1/5 269/1/5
f 275/1/5 272/1/5 271/1/5
f 276/1/5 272/1/5 275/1/5
f 277/1/5 274/1/5 273/1/5
f 278/1/5 274/1/5 277/1/5
f 282/4/5 280/4/5 279/4/5
f 283/3/5 281/3/5 280/3/5
f 283/4/5 280/4/5 282/4/5
f 284/3/5 281/3/5 283/3/5
f 285/3/5 283/3/5 282/3/5
f 285/4/5 284/4/5 283/4/5
f 286/4/5 284/4/5 285/4/5
f 287/3/5 285/3/5 282/3/5
f 287/3/5 286/3/5 285/3/5
f 288/3/5 286/3/5 287/3/5
f 293/1/5 290/1/5 289/1/5
f 294/1/5 290/1/5 293/1/5
f 295/1/5 292/1/5 291/1/5
f 296/1/5 292/1/5 295/1/5
f 301/1/5 298/1/5 297/1/5
f 302/1/5 298/1/5 301/1/5
f 303/1/5 300/1/5 299/1/5
f 304/1/5 300/1/5 303/1/5
f 307/2/5 306/2/5 305/2/5
f 308/2/5 306/2/5 307/2/5
f 312/4/5 310/4/5 309/4/5
f 313/3/5 311/3/5 310/3/5
f 313/4/5 310/4/5 312/4/5
f 314/3/5 313/3/5 312/3/5
f 315/3/5 311/3/5 313/3/5
f 315/3/5 313/3/5 314/3/5
f 318/1/5 317/1/5 316/1/5
f 319/1/5 317/1/5 318/1/5
f 320/3/6 321/3/6 323/3/6
f 321/4/6 322/4/6 323/4/6
f 323/4/6 322/4/6 324/4/6
f 320/3/6 323/3/6 325/3/6
f 323/3/6 324/3/6 325/3/6
f 325/3/6 324/3/6 326/3/6
f 327/1/6 328/1/6 329/1/6
f 329/1/6 328/1/6 330/1/6
f 331/3/6 332/3/6 334/3/6
f 332/4/6 333/4/6 335/4/6
f 334/3/6 332/3/6 335/3/6
f 334/4/6 335/4/6 336/4/6
f 335/4/6 333/4/6 336/4/6
f 336/4/6 333/4/6 337/4/6
f 334/4/6 336/4/6 338/4/6
f 336/3/6 337/3/6 339/3/6
f 338/4/6 336/4/6 339/4/6
f 338/3/6 339/3/6 340/3/6
f 339/3/6 337/3/6 341/3/6
f 340/3/6 339/3/6 341/3/6
f 342/2/6 343/2/6 344/2/6
f 344/2/6 343/2/6 345/2/6
f 346/1/6 347/1/6 350/1/6
f 350/1/6 347/1/6 351/1/6
f 348/1/6 349/1/6 352/1/6
f 352/1/6 349/1/6 353/1/6
f 354/1/6 355/1/6 358/1/6
f 358/1/6 355/1/6 359/1/6
f 356/1/6 357/1/6 360/1/6
f 360/1/6 357/1/6 361/1/6
f 362/1/6 363/1/6 366/1/6
f 366/1/6 363/1/6 367/1/6
f 364/1/6 365/1/6 368/1/6
f 368/1/6 365/1/6 369/1/6
f 370/1/6 371/1/6 374/1/6
f 374/1/6 371/1/6 375/1/6
f 372/1/6 373/1/6 376/1/6
f 376/1/6 373/1/6 377/1/6
f 378/1/6 379/1/6 382/1/6
f 382/1/6 379/1/6 383/1/6
f 380/1/6 381/1/6 384/1/6
f 384/1/6 381/1/6 385/1/6
f 386/1/6 387/1/6 390/1/6
f 390/1/6 387/1/6 391/1/6
f 388/1/6 389/1/6 392/1/6
f 392/1/6 389/1/6 393/1/6
f 394/1/6 395/1/6 396/1/6
f 396/1/6 395/1/6 397/1/6
