# MagicaVoxel @ Ephtracy

# group
o Decoration - Table - Bowl

# material
mtllib Medieval Assets-238-Decoration - Table - Bowl.mtl
usemtl palette

# normals
vn -1 0 0
vn 1 0 0
vn 0 0 1
vn 0 0 -1
vn 0 -1 0
vn 0 1 0

# texcoords
vt 0.130859 0.5
vt 0.138672 0.5

# verts
v -10.9 0.2 35.4
v -10.9 0.2 35
v -10.9 0.4 35.4
v -10.9 0.4 35
v -10.9 0.5 35.4
v -10.9 0.5 35
v -10.8 0.1 35.5
v -10.8 0.1 34.9
v -10.8 0.2 35.4
v -10.8 0.2 35
v -10.8 0.4 35.5
v -10.8 0.4 35.4
v -10.8 0.4 35
v -10.8 0.4 34.9
v -10.8 0.5 35.5
v -10.8 0.5 35.4
v -10.8 0.5 35
v -10.8 0.5 34.9
v -10.7 0 35.5
v -10.7 0 34.9
v -10.7 0.1 35.6
v -10.7 0.1 35.5
v -10.7 0.1 34.9
v -10.7 0.1 34.8
v -10.7 0.4 35.6
v -10.7 0.4 35.5
v -10.7 0.4 34.9
v -10.7 0.4 34.8
v -10.7 0.5 35.6
v -10.7 0.5 35.5
v -10.7 0.5 34.9
v -10.7 0.5 34.8
v -10.6 -0.1 35.4
v -10.6 -0.1 35
v -10.6 0 35.4
v -10.6 0 35
v -10.6 0.2 35.7
v -10.6 0.2 35.6
v -10.6 0.2 34.8
v -10.6 0.2 34.7
v -10.6 0.4 35.7
v -10.6 0.4 35.6
v -10.6 0.4 34.8
v -10.6 0.4 34.7
v -10.6 0.5 35.7
v -10.6 0.5 35.6
v -10.6 0.5 34.8
v -10.6 0.5 34.7
v -10.2 0.2 35.6
v -10.2 0.2 35.5
v -10.2 0.2 34.9
v -10.2 0.2 34.8
v -10.2 0.4 35.6
v -10.2 0.4 35.5
v -10.2 0.4 34.9
v -10.2 0.4 34.8
v -10.2 0.5 35.6
v -10.2 0.5 35.5
v -10.2 0.5 34.9
v -10.2 0.5 34.8
v -10.1 0.1 35.5
v -10.1 0.1 34.9
v -10.1 0.2 35.4
v -10.1 0.2 35
v -10.1 0.4 35.5
v -10.1 0.4 35.4
v -10.1 0.4 35
v -10.1 0.4 34.9
v -10.1 0.5 35.5
v -10.1 0.5 35.4
v -10.1 0.5 35
v -10.1 0.5 34.9
v -10 0.2 35.4
v -10 0.2 35
v -10 0.4 35.4
v -10 0.4 35
v -10 0.5 35.4
v -10 0.5 35
v -10.8 0.2 35.4
v -10.8 0.2 35
v -10.8 0.4 35.4
v -10.8 0.4 35
v -10.8 0.5 35.4
v -10.8 0.5 35
v -10.7 0.1 35.5
v -10.7 0.1 34.9
v -10.7 0.2 35.4
v -10.7 0.2 35
v -10.7 0.4 35.5
v -10.7 0.4 35.4
v -10.7 0.4 35
v -10.7 0.4 34.9
v -10.7 0.5 35.5
v -10.7 0.5 35.4
v -10.7 0.5 35
v -10.7 0.5 34.9
v -10.6 0.2 35.6
v -10.6 0.2 35.5
v -10.6 0.2 34.9
v -10.6 0.2 34.8
v -10.6 0.4 35.6
v -10.6 0.4 35.5
v -10.6 0.4 34.9
v -10.6 0.4 34.8
v -10.6 0.5 35.6
v -10.6 0.5 35.5
v -10.6 0.5 34.9
v -10.6 0.5 34.8
v -10.2 -0.1 35.4
v -10.2 -0.1 35
v -10.2 0 35.4
v -10.2 0 35
v -10.2 0.2 35.7
v -10.2 0.2 35.6
v -10.2 0.2 34.8
v -10.2 0.2 34.7
v -10.2 0.4 35.7
v -10.2 0.4 35.6
v -10.2 0.4 34.8
v -10.2 0.4 34.7
v -10.2 0.5 35.7
v -10.2 0.5 35.6
v -10.2 0.5 34.8
v -10.2 0.5 34.7
v -10.1 0 35.5
v -10.1 0 34.9
v -10.1 0.1 35.6
v -10.1 0.1 35.5
v -10.1 0.1 34.9
v -10.1 0.1 34.8
v -10.1 0.4 35.6
v -10.1 0.4 35.5
v -10.1 0.4 34.9
v -10.1 0.4 34.8
v -10.1 0.5 35.6
v -10.1 0.5 35.5
v -10.1 0.5 34.9
v -10.1 0.5 34.8
v -10 0.1 35.5
v -10 0.1 34.9
v -10 0.2 35.4
v -10 0.2 35
v -10 0.4 35.5
v -10 0.4 35.4
v -10 0.4 35
v -10 0.4 34.9
v -10 0.5 35.5
v -10 0.5 35.4
v -10 0.5 35
v -10 0.5 34.9
v -9.9 0.2 35.4
v -9.9 0.2 35
v -9.9 0.4 35.4
v -9.9 0.4 35
v -9.9 0.5 35.4
v -9.9 0.5 35
v -10.6 0.2 35.7
v -10.6 0.4 35.7
v -10.6 0.5 35.7
v -10.2 0.2 35.7
v -10.2 0.4 35.7
v -10.2 0.5 35.7
v -10.7 0.1 35.6
v -10.7 0.4 35.6
v -10.7 0.5 35.6
v -10.6 0.2 35.6
v -10.6 0.4 35.6
v -10.6 0.5 35.6
v -10.2 0.2 35.6
v -10.2 0.4 35.6
v -10.2 0.5 35.6
v -10.1 0.1 35.6
v -10.1 0.4 35.6
v -10.1 0.5 35.6
v -10.8 0.1 35.5
v -10.8 0.4 35.5
v -10.8 0.5 35.5
v -10.7 0 35.5
v -10.7 0.1 35.5
v -10.7 0.4 35.5
v -10.7 0.5 35.5
v -10.1 0 35.5
v -10.1 0.1 35.5
v -10.1 0.4 35.5
v -10.1 0.5 35.5
v -10 0.1 35.5
v -10 0.4 35.5
v -10 0.5 35.5
v -10.9 0.2 35.4
v -10.9 0.4 35.4
v -10.9 0.5 35.4
v -10.8 0.2 35.4
v -10.8 0.4 35.4
v -10.8 0.5 35.4
v -10.6 -0.1 35.4
v -10.6 0 35.4
v -10.2 -0.1 35.4
v -10.2 0 35.4
v -10 0.2 35.4
v -10 0.4 35.4
v -10 0.5 35.4
v -9.9 0.2 35.4
v -9.9 0.4 35.4
v -9.9 0.5 35.4
v -10.8 0.2 35
v -10.8 0.4 35
v -10.8 0.5 35
v -10.7 0.2 35
v -10.7 0.4 35
v -10.7 0.5 35
v -10.1 0.2 35
v -10.1 0.4 35
v -10.1 0.5 35
v -10 0.2 35
v -10 0.4 35
v -10 0.5 35
v -10.7 0.1 34.9
v -10.7 0.4 34.9
v -10.7 0.5 34.9
v -10.6 0.2 34.9
v -10.6 0.4 34.9
v -10.6 0.5 34.9
v -10.2 0.2 34.9
v -10.2 0.4 34.9
v -10.2 0.5 34.9
v -10.1 0.1 34.9
v -10.1 0.4 34.9
v -10.1 0.5 34.9
v -10.6 0.2 34.8
v -10.6 0.4 34.8
v -10.6 0.5 34.8
v -10.2 0.2 34.8
v -10.2 0.4 34.8
v -10.2 0.5 34.8
v -10.6 0.2 35.6
v -10.6 0.4 35.6
v -10.6 0.5 35.6
v -10.2 0.2 35.6
v -10.2 0.4 35.6
v -10.2 0.5 35.6
v -10.7 0.1 35.5
v -10.7 0.4 35.5
v -10.7 0.5 35.5
v -10.6 0.2 35.5
v -10.6 0.4 35.5
v -10.6 0.5 35.5
v -10.2 0.2 35.5
v -10.2 0.4 35.5
v -10.2 0.5 35.5
v -10.1 0.1 35.5
v -10.1 0.4 35.5
v -10.1 0.5 35.5
v -10.8 0.2 35.4
v -10.8 0.4 35.4
v -10.8 0.5 35.4
v -10.7 0.2 35.4
v -10.7 0.4 35.4
v -10.7 0.5 35.4
v -10.1 0.2 35.4
v -10.1 0.4 35.4
v -10.1 0.5 35.4
v -10 0.2 35.4
v -10 0.4 35.4
v -10 0.5 35.4
v -10.9 0.2 35
v -10.9 0.4 35
v -10.9 0.5 35
v -10.8 0.2 35
v -10.8 0.4 35
v -10.8 0.5 35
v -10.6 -0.1 35
v -10.6 0 35
v -10.2 -0.1 35
v -10.2 0 35
v -10 0.2 35
v -10 0.4 35
v -10 0.5 35
v -9.9 0.2 35
v -9.9 0.4 35
v -9.9 0.5 35
v -10.8 0.1 34.9
v -10.8 0.4 34.9
v -10.8 0.5 34.9
v -10.7 0 34.9
v -10.7 0.1 34.9
v -10.7 0.4 34.9
v -10.7 0.5 34.9
v -10.1 0 34.9
v -10.1 0.1 34.9
v -10.1 0.4 34.9
v -10.1 0.5 34.9
v -10 0.1 34.9
v -10 0.4 34.9
v -10 0.5 34.9
v -10.7 0.1 34.8
v -10.7 0.4 34.8
v -10.7 0.5 34.8
v -10.6 0.2 34.8
v -10.6 0.4 34.8
v -10.6 0.5 34.8
v -10.2 0.2 34.8
v -10.2 0.4 34.8
v -10.2 0.5 34.8
v -10.1 0.1 34.8
v -10.1 0.4 34.8
v -10.1 0.5 34.8
v -10.6 0.2 34.7
v -10.6 0.4 34.7
v -10.6 0.5 34.7
v -10.2 0.2 34.7
v -10.2 0.4 34.7
v -10.2 0.5 34.7
v -10.6 -0.1 35.4
v -10.2 -0.1 35.4
v -10.6 -0.1 35
v -10.2 -0.1 35
v -10.7 0 35.5
v -10.1 0 35.5
v -10.6 0 35.4
v -10.2 0 35.4
v -10.6 0 35
v -10.2 0 35
v -10.7 0 34.9
v -10.1 0 34.9
v -10.7 0.1 35.6
v -10.1 0.1 35.6
v -10.8 0.1 35.5
v -10.7 0.1 35.5
v -10.1 0.1 35.5
v -10 0.1 35.5
v -10.8 0.1 34.9
v -10.7 0.1 34.9
v -10.1 0.1 34.9
v -10 0.1 34.9
v -10.7 0.1 34.8
v -10.1 0.1 34.8
v -10.6 0.2 35.7
v -10.2 0.2 35.7
v -10.6 0.2 35.6
v -10.2 0.2 35.6
v -10.9 0.2 35.4
v -10.8 0.2 35.4
v -10 0.2 35.4
v -9.9 0.2 35.4
v -10.9 0.2 35
v -10.8 0.2 35
v -10 0.2 35
v -9.9 0.2 35
v -10.6 0.2 34.8
v -10.2 0.2 34.8
v -10.6 0.2 34.7
v -10.2 0.2 34.7
v -10.7 0.1 35.5
v -10.1 0.1 35.5
v -10.7 0.1 34.9
v -10.1 0.1 34.9
v -10.6 0.2 35.6
v -10.2 0.2 35.6
v -10.6 0.2 35.5
v -10.2 0.2 35.5
v -10.8 0.2 35.4
v -10.7 0.2 35.4
v -10.1 0.2 35.4
v -10 0.2 35.4
v -10.8 0.2 35
v -10.7 0.2 35
v -10.1 0.2 35
v -10 0.2 35
v -10.6 0.2 34.9
v -10.2 0.2 34.9
v -10.6 0.2 34.8
v -10.2 0.2 34.8
v -10.6 0.5 35.7
v -10.2 0.5 35.7
v -10.7 0.5 35.6
v -10.6 0.5 35.6
v -10.2 0.5 35.6
v -10.1 0.5 35.6
v -10.8 0.5 35.5
v -10.7 0.5 35.5
v -10.6 0.5 35.5
v -10.2 0.5 35.5
v -10.1 0.5 35.5
v -10 0.5 35.5
v -10.9 0.5 35.4
v -10.8 0.5 35.4
v -10.7 0.5 35.4
v -10.1 0.5 35.4
v -10 0.5 35.4
v -9.9 0.5 35.4
v -10.9 0.5 35
v -10.8 0.5 35
v -10.7 0.5 35
v -10.1 0.5 35
v -10 0.5 35
v -9.9 0.5 35
v -10.8 0.5 34.9
v -10.7 0.5 34.9
v -10.6 0.5 34.9
v -10.2 0.5 34.9
v -10.1 0.5 34.9
v -10 0.5 34.9
v -10.7 0.5 34.8
v -10.6 0.5 34.8
v -10.2 0.5 34.8
v -10.1 0.5 34.8
v -10.6 0.5 34.7
v -10.2 0.5 34.7

# faces
f 3/1/1 2/1/1 1/1/1
f 4/1/1 2/1/1 3/1/1
f 5/2/1 4/2/1 3/2/1
f 6/2/1 4/2/1 5/2/1
f 9/1/1 8/1/1 7/1/1
f 10/1/1 8/1/1 9/1/1
f 11/1/1 9/1/1 7/1/1
f 12/1/1 9/1/1 11/1/1
f 13/1/1 8/1/1 10/1/1
f 14/1/1 8/1/1 13/1/1
f 15/2/1 12/2/1 11/2/1
f 16/2/1 12/2/1 15/2/1
f 17/2/1 14/2/1 13/2/1
f 18/2/1 14/2/1 17/2/1
f 22/1/1 20/1/1 19/1/1
f 23/1/1 20/1/1 22/1/1
f 25/1/1 22/1/1 21/1/1
f 26/1/1 22/1/1 25/1/1
f 27/1/1 24/1/1 23/1/1
f 28/1/1 24/1/1 27/1/1
f 29/2/1 26/2/1 25/2/1
f 30/2/1 26/2/1 29/2/1
f 31/2/1 28/2/1 27/2/1
f 32/2/1 28/2/1 31/2/1
f 35/1/1 34/1/1 33/1/1
f 36/1/1 34/1/1 35/1/1
f 41/1/1 38/1/1 37/1/1
f 42/1/1 38/1/1 41/1/1
f 43/1/1 40/1/1 39/1/1
f 44/1/1 40/1/1 43/1/1
f 45/2/1 42/2/1 41/2/1
f 46/2/1 42/2/1 45/2/1
f 47/2/1 44/2/1 43/2/1
f 48/2/1 44/2/1 47/2/1
f 53/1/1 50/1/1 49/1/1
f 54/1/1 50/1/1 53/1/1
f 55/1/1 52/1/1 51/1/1
f 56/1/1 52/1/1 55/1/1
f 57/2/1 54/2/1 53/2/1
f 58/2/1 54/2/1 57/2/1
f 59/2/1 56/2/1 55/2/1
f 60/2/1 56/2/1 59/2/1
f 63/1/1 62/1/1 61/1/1
f 64/1/1 62/1/1 63/1/1
f 65/1/1 63/1/1 61/1/1
f 66/1/1 63/1/1 65/1/1
f 67/1/1 62/1/1 64/1/1
f 68/1/1 62/1/1 67/1/1
f 69/2/1 66/2/1 65/2/1
f 70/2/1 66/2/1 69/2/1
f 71/2/1 68/2/1 67/2/1
f 72/2/1 68/2/1 71/2/1
f 75/1/1 74/1/1 73/1/1
f 76/1/1 74/1/1 75/1/1
f 77/2/1 76/2/1 75/2/1
f 78/2/1 76/2/1 77/2/1
f 79/1/2 80/1/2 81/1/2
f 81/1/2 80/1/2 82/1/2
f 81/2/2 82/2/2 83/2/2
f 83/2/2 82/2/2 84/2/2
f 85/1/2 86/1/2 87/1/2
f 87/1/2 86/1/2 88/1/2
f 85/1/2 87/1/2 89/1/2
f 89/1/2 87/1/2 90/1/2
f 88/1/2 86/1/2 91/1/2
f 91/1/2 86/1/2 92/1/2
f 89/2/2 90/2/2 93/2/2
f 93/2/2 90/2/2 94/2/2
f 91/2/2 92/2/2 95/2/2
f 95/2/2 92/2/2 96/2/2
f 97/1/2 98/1/2 101/1/2
f 101/1/2 98/1/2 102/1/2
f 99/1/2 100/1/2 103/1/2
f 103/1/2 100/1/2 104/1/2
f 101/2/2 102/2/2 105/2/2
f 105/2/2 102/2/2 106/2/2
f 103/2/2 104/2/2 107/2/2
f 107/2/2 104/2/2 108/2/2
f 109/1/2 110/1/2 111/1/2
f 111/1/2 110/1/2 112/1/2
f 113/1/2 114/1/2 117/1/2
f 117/1/2 114/1/2 118/1/2
f 115/1/2 116/1/2 119/1/2
f 119/1/2 116/1/2 120/1/2
f 117/2/2 118/2/2 121/2/2
f 121/2/2 118/2/2 122/2/2
f 119/2/2 120/2/2 123/2/2
f 123/2/2 120/2/2 124/2/2
f 125/1/2 126/1/2 128/1/2
f 128/1/2 126/1/2 129/1/2
f 127/1/2 128/1/2 131/1/2
f 131/1/2 128/1/2 132/1/2
f 129/1/2 130/1/2 133/1/2
f 133/1/2 130/1/2 134/1/2
f 131/2/2 132/2/2 135/2/2
f 135/2/2 132/2/2 136/2/2
f 133/2/2 134/2/2 137/2/2
f 137/2/2 134/2/2 138/2/2
f 139/1/2 140/1/2 141/1/2
f 141/1/2 140/1/2 142/1/2
f 139/1/2 141/1/2 143/1/2
f 143/1/2 141/1/2 144/1/2
f 142/1/2 140/1/2 145/1/2
f 145/1/2 140/1/2 146/1/2
f 143/2/2 144/2/2 147/2/2
f 147/2/2 144/2/2 148/2/2
f 145/2/2 146/2/2 149/2/2
f 149/2/2 146/2/2 150/2/2
f 151/1/2 152/1/2 153/1/2
f 153/1/2 152/1/2 154/1/2
f 153/2/2 154/2/2 155/2/2
f 155/2/2 154/2/2 156/2/2
f 160/1/3 158/1/3 157/1/3
f 161/2/3 159/2/3 158/2/3
f 161/1/3 158/1/3 160/1/3
f 162/2/3 159/2/3 161/2/3
f 166/1/3 164/1/3 163/1/3
f 167/2/3 165/2/3 164/2/3
f 167/1/3 164/1/3 166/1/3
f 168/2/3 165/2/3 167/2/3
f 169/1/3 166/1/3 163/1/3
f 172/1/3 169/1/3 163/1/3
f 172/1/3 170/1/3 169/1/3
f 173/2/3 171/2/3 170/2/3
f 173/1/3 170/1/3 172/1/3
f 174/2/3 171/2/3 173/2/3
f 179/1/3 176/1/3 175/1/3
f 180/2/3 177/2/3 176/2/3
f 180/1/3 176/1/3 179/1/3
f 181/2/3 177/2/3 180/2/3
f 182/1/3 179/1/3 178/1/3
f 183/1/3 179/1/3 182/1/3
f 186/1/3 184/1/3 183/1/3
f 187/2/3 185/2/3 184/2/3
f 187/1/3 184/1/3 186/1/3
f 188/2/3 185/2/3 187/2/3
f 192/1/3 190/1/3 189/1/3
f 193/2/3 191/2/3 190/2/3
f 193/1/3 190/1/3 192/1/3
f 194/2/3 191/2/3 193/2/3
f 197/1/3 196/1/3 195/1/3
f 198/1/3 196/1/3 197/1/3
f 202/1/3 200/1/3 199/1/3
f 203/2/3 201/2/3 200/2/3
f 203/1/3 200/1/3 202/1/3
f 204/2/3 201/2/3 203/2/3
f 208/1/3 206/1/3 205/1/3
f 209/2/3 207/2/3 206/2/3
f 209/1/3 206/1/3 208/1/3
f 210/2/3 207/2/3 209/2/3
f 214/1/3 212/1/3 211/1/3
f 215/2/3 213/2/3 212/2/3
f 215/1/3 212/1/3 214/1/3
f 216/2/3 213/2/3 215/2/3
f 220/1/3 218/1/3 217/1/3
f 221/2/3 219/2/3 218/2/3
f 221/1/3 218/1/3 220/1/3
f 222/2/3 219/2/3 221/2/3
f 223/1/3 220/1/3 217/1/3
f 226/1/3 223/1/3 217/1/3
f 226/1/3 224/1/3 223/1/3
f 227/2/3 225/2/3 224/2/3
f 227/1/3 224/1/3 226/1/3
f 228/2/3 225/2/3 227/2/3
f 232/1/3 230/1/3 229/1/3
f 233/2/3 231/2/3 230/2/3
f 233/1/3 230/1/3 232/1/3
f 234/2/3 231/2/3 233/2/3
f 235/1/4 236/1/4 238/1/4
f 236/2/4 237/2/4 239/2/4
f 238/1/4 236/1/4 239/1/4
f 239/2/4 237/2/4 240/2/4
f 241/1/4 242/1/4 244/1/4
f 242/2/4 243/2/4 245/2/4
f 244/1/4 242/1/4 245/1/4
f 245/2/4 243/2/4 246/2/4
f 241/1/4 244/1/4 247/1/4
f 241/1/4 247/1/4 250/1/4
f 247/1/4 248/1/4 250/1/4
f 248/2/4 249/2/4 251/2/4
f 250/1/4 248/1/4 251/1/4
f 251/2/4 249/2/4 252/2/4
f 253/1/4 254/1/4 256/1/4
f 254/2/4 255/2/4 257/2/4
f 256/1/4 254/1/4 257/1/4
f 257/2/4 255/2/4 258/2/4
f 259/1/4 260/1/4 262/1/4
f 260/2/4 261/2/4 263/2/4
f 262/1/4 260/1/4 263/1/4
f 263/2/4 261/2/4 264/2/4
f 265/1/4 266/1/4 268/1/4
f 266/2/4 267/2/4 269/2/4
f 268/1/4 266/1/4 269/1/4
f 269/2/4 267/2/4 270/2/4
f 271/1/4 272/1/4 273/1/4
f 273/1/4 272/1/4 274/1/4
f 275/1/4 276/1/4 278/1/4
f 276/2/4 277/2/4 279/2/4
f 278/1/4 276/1/4 279/1/4
f 279/2/4 277/2/4 280/2/4
f 281/1/4 282/1/4 285/1/4
f 282/2/4 283/2/4 286/2/4
f 285/1/4 282/1/4 286/1/4
f 286/2/4 283/2/4 287/2/4
f 284/1/4 285/1/4 288/1/4
f 288/1/4 285/1/4 289/1/4
f 289/1/4 290/1/4 292/1/4
f 290/2/4 291/2/4 293/2/4
f 292/1/4 290/1/4 293/1/4
f 293/2/4 291/2/4 294/2/4
f 295/1/4 296/1/4 298/1/4
f 296/2/4 297/2/4 299/2/4
f 298/1/4 296/1/4 299/1/4
f 299/2/4 297/2/4 300/2/4
f 295/1/4 298/1/4 301/1/4
f 295/1/4 301/1/4 304/1/4
f 301/1/4 302/1/4 304/1/4
f 302/2/4 303/2/4 305/2/4
f 304/1/4 302/1/4 305/1/4
f 305/2/4 303/2/4 306/2/4
f 307/1/4 308/1/4 310/1/4
f 308/2/4 309/2/4 311/2/4
f 310/1/4 308/1/4 311/1/4
f 311/2/4 309/2/4 312/2/4
f 315/1/5 314/1/5 313/1/5
f 316/1/5 314/1/5 315/1/5
f 319/1/5 318/1/5 317/1/5
f 320/1/5 318/1/5 319/1/5
f 321/1/5 319/1/5 317/1/5
f 322/1/5 318/1/5 320/1/5
f 323/1/5 321/1/5 317/1/5
f 323/1/5 322/1/5 321/1/5
f 324/1/5 318/1/5 322/1/5
f 324/1/5 322/1/5 323/1/5
f 328/1/5 326/1/5 325/1/5
f 329/1/5 326/1/5 328/1/5
f 331/1/5 328/1/5 327/1/5
f 332/1/5 328/1/5 331/1/5
f 333/1/5 330/1/5 329/1/5
f 334/1/5 330/1/5 333/1/5
f 335/1/5 333/1/5 332/1/5
f 336/1/5 333/1/5 335/1/5
f 339/1/5 338/1/5 337/1/5
f 340/1/5 338/1/5 339/1/5
f 345/1/5 342/1/5 341/1/5
f 346/1/5 342/1/5 345/1/5
f 347/1/5 344/1/5 343/1/5
f 348/1/5 344/1/5 347/1/5
f 351/1/5 350/1/5 349/1/5
f 352/1/5 350/1/5 351/1/5
f 353/1/6 354/1/6 355/1/6
f 355/1/6 354/1/6 356/1/6
f 357/1/6 358/1/6 359/1/6
f 359/1/6 358/1/6 360/1/6
f 361/1/6 362/1/6 365/1/6
f 365/1/6 362/1/6 366/1/6
f 363/1/6 364/1/6 367/1/6
f 367/1/6 364/1/6 368/1/6
f 369/1/6 370/1/6 371/1/6
f 371/1/6 370/1/6 372/1/6
f 373/2/6 374/2/6 376/2/6
f 376/2/6 374/2/6 377/2/6
f 375/2/6 376/2/6 380/2/6
f 380/2/6 376/2/6 381/2/6
f 377/2/6 378/2/6 382/2/6
f 382/2/6 378/2/6 383/2/6
f 379/2/6 380/2/6 386/2/6
f 386/2/6 380/2/6 387/2/6
f 383/2/6 384/2/6 388/2/6
f 388/2/6 384/2/6 389/2/6
f 385/2/6 386/2/6 391/2/6
f 391/2/6 386/2/6 392/2/6
f 389/2/6 390/2/6 395/2/6
f 395/2/6 390/2/6 396/2/6
f 392/2/6 393/2/6 397/2/6
f 397/2/6 393/2/6 398/2/6
f 394/2/6 395/2/6 401/2/6
f 401/2/6 395/2/6 402/2/6
f 398/2/6 399/2/6 403/2/6
f 403/2/6 399/2/6 404/2/6
f 400/2/6 401/2/6 405/2/6
f 405/2/6 401/2/6 406/2/6
f 404/2/6 405/2/6 407/2/6
f 407/2/6 405/2/6 408/2/6
