# MagicaVoxel @ Ephtracy

# group
o Decoration - Bookshelf - Book - Variant4

# material
mtllib Medieval Assets-269-Decoration - Bookshelf - Book - Variant4.mtl
usemtl palette

# normals
vn -1 0 0
vn 1 0 0
vn 0 -1 0
vn 0 1 0
vn 0 0 -1
vn 0 0 1

# texcoords
vt 0.111328 0.5
vt 0.130859 0.5
vt 0.169922 0.5
vt 0.177734 0.5
vt 0.193359 0.5
vt 0.197266 0.5
vt 0.205078 0.5

# verts
v -5.5 0 -4.2
v -5.5 2.1 -4.2
v -5.5 0 -4
v -5.5 0.1 -4
v -5.5 0.5 -4
v -5.5 0.7 -4
v -5.5 0.9 -4
v -5.5 1.2 -4
v -5.5 1.5 -4
v -5.5 1.8 -4
v -5.5 0 -3.9
v -5.5 0.1 -3.9
v -5.5 0.5 -3.9
v -5.5 0.7 -3.9
v -5.5 0.9 -3.9
v -5.5 1.2 -3.9
v -5.5 1.5 -3.9
v -5.5 1.8 -3.9
v -5.5 2.1 -3.9
v -5.2 0 -4.1
v -5.2 0.1 -4.1
v -5.2 2 -4.1
v -5.2 2.1 -4.1
v -5.2 0 -4
v -5.2 0.1 -4
v -5.2 2 -4
v -5.2 2.1 -4
v -4.1 0.1 -4.1
v -4.1 2 -4.1
v -4.1 0.1 -4
v -4.1 2 -4
v -4 0 -4.2
v -4 2.1 -4.2
v -4 0 -4.1
v -4 2.1 -4.1
v -4 0 -4
v -4 2.1 -4
v -4 0 -3.9
v -4 2.1 -3.9
v -5.5 0 -4.2
v -5.5 0 -4
v -5.5 0 -3.9
v -5.4 0 -4
v -5.4 0 -3.9
v -5.2 0 -4.2
v -5.2 0 -4.1
v -5.2 0 -4
v -5.2 0 -3.9
v -4 0 -4.2
v -4 0 -4.1
v -4 0 -4
v -4 0 -3.9
v -5.2 0.1 -4.1
v -5.2 0.1 -4
v -4.1 0.1 -4.1
v -4.1 0.1 -4
v -5.2 2 -4.1
v -5.2 2 -4
v -4.1 2 -4.1
v -4.1 2 -4
v -5.5 2.1 -4.2
v -5.5 2.1 -3.9
v -5.2 2.1 -4.2
v -5.2 2.1 -4.1
v -5.2 2.1 -4
v -5.2 2.1 -3.9
v -4 2.1 -4.2
v -4 2.1 -4.1
v -4 2.1 -4
v -4 2.1 -3.9
v -5.5 0 -4.2
v -5.2 0 -4.2
v -4 0 -4.2
v -5.4 0.2 -4.2
v -5.3 0.2 -4.2
v -5.4 0.5 -4.2
v -5.3 0.5 -4.2
v -5.4 0.8 -4.2
v -5.3 0.8 -4.2
v -4.9 0.9 -4.2
v -4.4 0.9 -4.2
v -5.4 1 -4.2
v -5.3 1 -4.2
v -4.7 1 -4.2
v -4.6 1 -4.2
v -4.9 1.1 -4.2
v -4.7 1.1 -4.2
v -4.6 1.1 -4.2
v -4.4 1.1 -4.2
v -5.4 1.5 -4.2
v -5.3 1.5 -4.2
v -5.4 1.7 -4.2
v -5.3 1.7 -4.2
v -4.9 1.7 -4.2
v -4.2 1.7 -4.2
v -5.4 1.8 -4.2
v -5.3 1.8 -4.2
v -4.9 1.8 -4.2
v -4.2 1.8 -4.2
v -5.4 2 -4.2
v -5.3 2 -4.2
v -5.5 2.1 -4.2
v -5.2 2.1 -4.2
v -4 2.1 -4.2
v -5.2 0 -4
v -4 0 -4
v -5.2 0.1 -4
v -4.1 0.1 -4
v -5.2 2 -4
v -4.1 2 -4
v -5.2 2.1 -4
v -4 2.1 -4
v -5.2 0 -4.1
v -4 0 -4.1
v -5.2 0.1 -4.1
v -4.1 0.1 -4.1
v -5.2 2 -4.1
v -4.1 2 -4.1
v -5.2 2.1 -4.1
v -4 2.1 -4.1
v -5.5 0 -3.9
v -5.4 0 -3.9
v -5.2 0 -3.9
v -4 0 -3.9
v -5.5 0.1 -3.9
v -5.4 0.1 -3.9
v -5.4 0.3 -3.9
v -5.3 0.3 -3.9
v -4.5 0.4 -3.9
v -4.2 0.4 -3.9
v -5.5 0.5 -3.9
v -5.4 0.5 -3.9
v -5.3 0.5 -3.9
v -5.2 0.5 -3.9
v -4.9 0.5 -3.9
v -4.5 0.5 -3.9
v -4.3 0.5 -3.9
v -4.2 0.5 -3.9
v -4.1 0.5 -3.9
v -4.9 0.6 -3.9
v -4.5 0.6 -3.9
v -4.3 0.6 -3.9
v -4.1 0.6 -3.9
v -5.5 0.7 -3.9
v -5.4 0.7 -3.9
v -5.3 0.7 -3.9
v -5.2 0.7 -3.9
v -5.5 0.9 -3.9
v -5.4 0.9 -3.9
v -5 1 -3.9
v -4.1 1 -3.9
v -5 1.1 -3.9
v -4.9 1.1 -3.9
v -4.7 1.1 -3.9
v -4.4 1.1 -3.9
v -4.3 1.1 -3.9
v -4.1 1.1 -3.9
v -5.5 1.2 -3.9
v -5.4 1.2 -3.9
v -5.3 1.2 -3.9
v -5.2 1.2 -3.9
v -4.9 1.2 -3.9
v -4.7 1.2 -3.9
v -4.4 1.2 -3.9
v -4.3 1.2 -3.9
v -5.4 1.4 -3.9
v -5.3 1.4 -3.9
v -5 1.4 -3.9
v -4.8 1.4 -3.9
v -4.6 1.4 -3.9
v -4.2 1.4 -3.9
v -5.5 1.5 -3.9
v -5.4 1.5 -3.9
v -5 1.5 -3.9
v -4.8 1.5 -3.9
v -4.6 1.5 -3.9
v -4.5 1.5 -3.9
v -4.3 1.5 -3.9
v -5.4 1.6 -3.9
v -5.3 1.6 -3.9
v -4.8 1.6 -3.9
v -4.5 1.6 -3.9
v -4.3 1.6 -3.9
v -4.2 1.6 -3.9
v -5.3 1.7 -3.9
v -5.2 1.7 -3.9
v -5.5 1.8 -3.9
v -5.4 1.8 -3.9
v -5.3 1.8 -3.9
v -5.2 1.8 -3.9
v -5.3 1.9 -3.9
v -5.2 1.9 -3.9
v -5.5 2.1 -3.9
v -5.2 2.1 -3.9
v -4 2.1 -3.9

# faces
f 3/6/1 2/6/1 1/6/1
f 4/6/1 2/6/1 3/6/1
f 5/6/1 2/6/1 4/6/1
f 6/6/1 2/6/1 5/6/1
f 7/6/1 2/6/1 6/6/1
f 8/6/1 2/6/1 7/6/1
f 9/6/1 2/6/1 8/6/1
f 10/6/1 2/6/1 9/6/1
f 11/5/1 4/5/1 3/5/1
f 12/6/1 5/6/1 4/6/1
f 12/5/1 4/5/1 11/5/1
f 13/5/1 6/5/1 5/5/1
f 13/6/1 5/6/1 12/6/1
f 14/6/1 7/6/1 6/6/1
f 14/5/1 6/5/1 13/5/1
f 15/5/1 8/5/1 7/5/1
f 15/6/1 7/6/1 14/6/1
f 16/6/1 9/6/1 8/6/1
f 16/5/1 8/5/1 15/5/1
f 17/5/1 10/5/1 9/5/1
f 17/6/1 9/6/1 16/6/1
f 18/6/1 2/6/1 10/6/1
f 18/5/1 10/5/1 17/5/1
f 19/6/1 2/6/1 18/6/1
f 20/6/2 21/6/2 24/6/2
f 24/6/2 21/6/2 25/6/2
f 22/6/2 23/6/2 26/6/2
f 26/6/2 23/6/2 27/6/2
f 28/2/2 29/2/2 30/2/2
f 30/2/2 29/2/2 31/2/2
f 32/1/2 33/1/2 34/1/2
f 34/1/2 33/1/2 35/1/2
f 36/1/2 37/1/2 38/1/2
f 38/1/2 37/1/2 39/1/2
f 43/6/3 41/6/3 40/6/3
f 43/5/3 42/5/3 41/5/3
f 44/5/3 42/5/3 43/5/3
f 45/6/3 43/6/3 40/6/3
f 45/6/3 44/6/3 43/6/3
f 46/6/3 44/6/3 45/6/3
f 47/6/3 44/6/3 46/6/3
f 48/6/3 44/6/3 47/6/3
f 49/1/3 46/1/3 45/1/3
f 50/1/3 46/1/3 49/1/3
f 51/1/3 48/1/3 47/1/3
f 52/1/3 48/1/3 51/1/3
f 55/2/3 54/2/3 53/2/3
f 56/2/3 54/2/3 55/2/3
f 57/2/4 58/2/4 59/2/4
f 59/2/4 58/2/4 60/2/4
f 61/6/4 62/6/4 63/6/4
f 63/6/4 62/6/4 64/6/4
f 64/6/4 62/6/4 65/6/4
f 65/6/4 62/6/4 66/6/4
f 63/1/4 64/1/4 67/1/4
f 67/1/4 64/1/4 68/1/4
f 65/1/4 66/1/4 69/1/4
f 69/1/4 66/1/4 70/1/4
f 74/6/5 72/6/5 71/6/5
f 75/6/5 72/6/5 74/6/5
f 76/6/5 74/6/5 71/6/5
f 76/5/5 75/5/5 74/5/5
f 77/6/5 72/6/5 75/6/5
f 77/5/5 75/5/5 76/5/5
f 78/6/5 76/6/5 71/6/5
f 78/6/5 77/6/5 76/6/5
f 79/6/5 72/6/5 77/6/5
f 79/6/5 77/6/5 78/6/5
f 80/1/5 73/1/5 72/1/5
f 81/1/5 73/1/5 80/1/5
f 82/6/5 78/6/5 71/6/5
f 82/5/5 79/5/5 78/5/5
f 83/6/5 72/6/5 79/6/5
f 83/5/5 79/5/5 82/5/5
f 84/4/5 81/4/5 80/4/5
f 85/4/5 81/4/5 84/4/5
f 86/1/5 80/1/5 72/1/5
f 86/4/5 84/4/5 80/4/5
f 87/1/5 85/1/5 84/1/5
f 87/4/5 84/4/5 86/4/5
f 88/4/5 81/4/5 85/4/5
f 88/1/5 85/1/5 87/1/5
f 89/1/5 73/1/5 81/1/5
f 89/4/5 81/4/5 88/4/5
f 90/6/5 82/6/5 71/6/5
f 90/6/5 83/6/5 82/6/5
f 91/6/5 72/6/5 83/6/5
f 91/6/5 83/6/5 90/6/5
f 92/6/5 90/6/5 71/6/5
f 92/5/5 91/5/5 90/5/5
f 93/6/5 72/6/5 91/6/5
f 93/5/5 91/5/5 92/5/5
f 94/1/5 88/1/5 87/1/5
f 94/1/5 87/1/5 86/1/5
f 94/1/5 89/1/5 88/1/5
f 94/1/5 86/1/5 72/1/5
f 95/1/5 73/1/5 89/1/5
f 95/1/5 89/1/5 94/1/5
f 96/6/5 92/6/5 71/6/5
f 96/6/5 93/6/5 92/6/5
f 97/6/5 72/6/5 93/6/5
f 97/6/5 93/6/5 96/6/5
f 98/1/5 94/1/5 72/1/5
f 98/4/5 95/4/5 94/4/5
f 99/1/5 73/1/5 95/1/5
f 99/4/5 95/4/5 98/4/5
f 100/6/5 96/6/5 71/6/5
f 100/5/5 97/5/5 96/5/5
f 101/6/5 72/6/5 97/6/5
f 101/5/5 97/5/5 100/5/5
f 102/6/5 100/6/5 71/6/5
f 102/6/5 101/6/5 100/6/5
f 103/6/5 72/6/5 101/6/5
f 103/6/5 101/6/5 102/6/5
f 103/1/5 98/1/5 72/1/5
f 103/1/5 99/1/5 98/1/5
f 104/1/5 73/1/5 99/1/5
f 104/1/5 99/1/5 103/1/5
f 107/1/5 106/1/5 105/1/5
f 108/1/5 106/1/5 107/1/5
f 110/1/5 106/1/5 108/1/5
f 111/1/5 110/1/5 109/1/5
f 112/1/5 106/1/5 110/1/5
f 112/1/5 110/1/5 111/1/5
f 113/1/6 114/1/6 115/1/6
f 115/1/6 114/1/6 116/1/6
f 116/1/6 114/1/6 118/1/6
f 117/1/6 118/1/6 119/1/6
f 118/1/6 114/1/6 120/1/6
f 119/1/6 118/1/6 120/1/6
f 121/5/6 122/5/6 125/5/6
f 122/6/6 123/6/6 126/6/6
f 125/5/6 122/5/6 126/5/6
f 125/6/6 126/6/6 127/6/6
f 126/6/6 123/6/6 127/6/6
f 127/6/6 123/6/6 128/6/6
f 123/1/6 124/1/6 129/1/6
f 129/1/6 124/1/6 130/1/6
f 125/6/6 127/6/6 131/6/6
f 127/5/6 128/5/6 132/5/6
f 131/6/6 127/6/6 132/6/6
f 128/6/6 123/6/6 133/6/6
f 132/5/6 128/5/6 133/5/6
f 123/1/6 129/1/6 134/1/6
f 133/6/6 123/6/6 134/6/6
f 134/1/6 129/1/6 135/1/6
f 129/4/6 130/4/6 136/4/6
f 135/1/6 129/1/6 136/1/6
f 136/4/6 130/4/6 137/4/6
f 130/1/6 124/1/6 138/1/6
f 137/4/6 130/4/6 138/4/6
f 138/1/6 124/1/6 139/1/6
f 134/1/6 135/1/6 140/1/6
f 135/4/6 136/4/6 140/4/6
f 136/1/6 137/1/6 141/1/6
f 140/4/6 136/4/6 141/4/6
f 138/4/6 139/4/6 142/4/6
f 141/1/6 137/1/6 142/1/6
f 137/4/6 138/4/6 142/4/6
f 139/1/6 124/1/6 143/1/6
f 142/4/6 139/4/6 143/4/6
f 131/5/6 132/5/6 144/5/6
f 132/6/6 133/6/6 145/6/6
f 144/5/6 132/5/6 145/5/6
f 133/5/6 134/5/6 146/5/6
f 145/6/6 133/6/6 146/6/6
f 134/1/6 140/1/6 147/1/6
f 146/5/6 134/5/6 147/5/6
f 141/1/6 142/1/6 147/1/6
f 142/1/6 143/1/6 147/1/6
f 140/1/6 141/1/6 147/1/6
f 145/6/6 146/6/6 148/6/6
f 144/6/6 145/6/6 148/6/6
f 146/6/6 147/6/6 148/6/6
f 148/6/6 147/6/6 149/6/6
f 147/1/6 143/1/6 150/1/6
f 143/1/6 124/1/6 151/1/6
f 150/1/6 143/1/6 151/1/6
f 147/1/6 150/1/6 152/1/6
f 150/4/6 151/4/6 152/4/6
f 152/4/6 151/4/6 153/4/6
f 153/4/6 151/4/6 154/4/6
f 154/4/6 151/4/6 155/4/6
f 155/4/6 151/4/6 156/4/6
f 151/1/6 124/1/6 157/1/6
f 156/4/6 151/4/6 157/4/6
f 148/5/6 149/5/6 158/5/6
f 149/6/6 147/6/6 159/6/6
f 158/5/6 149/5/6 159/5/6
f 159/6/6 147/6/6 160/6/6
f 147/1/6 152/1/6 161/1/6
f 160/6/6 147/6/6 161/6/6
f 152/1/6 153/1/6 161/1/6
f 153/4/6 154/4/6 162/4/6
f 161/1/6 153/1/6 162/1/6
f 154/1/6 155/1/6 163/1/6
f 162/4/6 154/4/6 163/4/6
f 155/4/6 156/4/6 164/4/6
f 163/1/6 155/1/6 164/1/6
f 156/1/6 157/1/6 165/1/6
f 164/4/6 156/4/6 165/4/6
f 159/6/6 160/6/6 166/6/6
f 158/6/6 159/6/6 166/6/6
f 160/5/6 161/5/6 167/5/6
f 166/6/6 160/6/6 167/6/6
f 162/1/6 163/1/6 168/1/6
f 164/1/6 165/1/6 168/1/6
f 161/1/6 162/1/6 168/1/6
f 163/1/6 164/1/6 168/1/6
f 168/1/6 165/1/6 169/1/6
f 169/1/6 165/1/6 170/1/6
f 165/1/6 157/1/6 171/1/6
f 170/1/6 165/1/6 171/1/6
f 158/6/6 166/6/6 172/6/6
f 166/5/6 167/5/6 173/5/6
f 172/6/6 166/6/6 173/6/6
f 161/1/6 168/1/6 174/1/6
f 168/4/6 169/4/6 174/4/6
f 169/1/6 170/1/6 175/1/6
f 174/4/6 169/4/6 175/4/6
f 170/4/6 171/4/6 176/4/6
f 175/1/6 170/1/6 176/1/6
f 176/4/6 171/4/6 177/4/6
f 177/4/6 171/4/6 178/4/6
f 173/5/6 167/5/6 179/5/6
f 172/5/6 173/5/6 179/5/6
f 167/5/6 161/5/6 180/5/6
f 179/5/6 167/5/6 180/5/6
f 174/1/6 175/1/6 181/1/6
f 175/4/6 176/4/6 181/4/6
f 176/4/6 177/4/6 181/4/6
f 177/1/6 178/1/6 182/1/6
f 181/4/6 177/4/6 182/4/6
f 178/4/6 171/4/6 183/4/6
f 182/1/6 178/1/6 183/1/6
f 171/1/6 157/1/6 184/1/6
f 183/4/6 171/4/6 184/4/6
f 180/5/6 161/5/6 185/5/6
f 179/6/6 180/6/6 185/6/6
f 161/1/6 174/1/6 186/1/6
f 185/5/6 161/5/6 186/5/6
f 182/1/6 183/1/6 186/1/6
f 183/1/6 184/1/6 186/1/6
f 181/1/6 182/1/6 186/1/6
f 174/1/6 181/1/6 186/1/6
f 172/5/6 179/5/6 187/5/6
f 179/6/6 185/6/6 188/6/6
f 187/5/6 179/5/6 188/5/6
f 185/6/6 186/6/6 188/6/6
f 188/6/6 186/6/6 189/6/6
f 186/1/6 184/1/6 190/1/6
f 189/6/6 186/6/6 190/6/6
f 188/6/6 189/6/6 191/6/6
f 187/6/6 188/6/6 191/6/6
f 189/5/6 190/5/6 191/5/6
f 190/1/6 184/1/6 192/1/6
f 191/5/6 190/5/6 192/5/6
f 187/6/6 191/6/6 193/6/6
f 191/6/6 192/6/6 193/6/6
f 192/1/6 184/1/6 194/1/6
f 193/6/6 192/6/6 194/6/6
f 157/1/6 124/1/6 195/1/6
f 194/1/6 184/1/6 195/1/6
f 184/1/6 157/1/6 195/1/6
