# MagicaVoxel @ Ephtracy

# group
o Vegetation - Grass - Highlight - Variant3

# material
mtllib Medieval Assets-335-Vegetation - Grass - Highlight - Variant3.mtl
usemtl palette

# normals
vn -1 0 0
vn 1 0 0
vn 0 0 1
vn 0 0 -1
vn 0 -1 0
vn 0 1 0

# texcoords
vt 0.0371094 0.5
vt 0.0527344 0.5
vt 0.0566406 0.5

# verts
v 1.5 0 31.2
v 1.5 0 31.1
v 1.5 0 31
v 1.5 0 30.9
v 1.5 0.1 31.2
v 1.5 0.1 31.1
v 1.5 0.1 31
v 1.5 0.1 30.9
v 1.5 0.2 31.2
v 1.5 0.2 31.1
v 1.5 0.2 31
v 1.5 0.2 30.9
v 1.5 0.3 31.2
v 1.5 0.3 31.1
v 1.7 0 31.1
v 1.7 0 31
v 1.7 0 30.8
v 1.7 0 30.7
v 1.7 0.1 31.1
v 1.7 0.1 31
v 1.7 0.1 30.8
v 1.7 0.1 30.7
v 1.7 0.2 31.1
v 1.7 0.2 31
v 1.7 0.2 30.8
v 1.7 0.2 30.7
v 1.7 0.3 30.8
v 1.7 0.3 30.7
v 1.9 0 31.2
v 1.9 0 31.1
v 1.9 0 30.9
v 1.9 0 30.8
v 1.9 0.1 31.2
v 1.9 0.1 31.1
v 1.9 0.2 31.2
v 1.9 0.2 31.1
v 1.9 0.2 30.9
v 1.9 0.2 30.8
v 1.9 0.3 30.9
v 1.9 0.3 30.8
v 1.6 0 31.2
v 1.6 0 31.1
v 1.6 0 31
v 1.6 0 30.9
v 1.6 0.1 31.2
v 1.6 0.1 31.1
v 1.6 0.1 31
v 1.6 0.1 30.9
v 1.6 0.2 31.2
v 1.6 0.2 31.1
v 1.6 0.2 31
v 1.6 0.2 30.9
v 1.6 0.3 31.2
v 1.6 0.3 31.1
v 1.8 0 31.1
v 1.8 0 31
v 1.8 0 30.8
v 1.8 0 30.7
v 1.8 0.1 31.1
v 1.8 0.1 31
v 1.8 0.1 30.8
v 1.8 0.1 30.7
v 1.8 0.2 31.1
v 1.8 0.2 31
v 1.8 0.2 30.8
v 1.8 0.2 30.7
v 1.8 0.3 30.8
v 1.8 0.3 30.7
v 2 0 31.2
v 2 0 31.1
v 2 0 30.9
v 2 0 30.8
v 2 0.1 31.2
v 2 0.1 31.1
v 2 0.2 31.2
v 2 0.2 31.1
v 2 0.2 30.9
v 2 0.2 30.8
v 2 0.3 30.9
v 2 0.3 30.8
v 1.5 0 31.2
v 1.5 0.1 31.2
v 1.5 0.2 31.2
v 1.5 0.3 31.2
v 1.6 0 31.2
v 1.6 0.1 31.2
v 1.6 0.2 31.2
v 1.6 0.3 31.2
v 1.9 0 31.2
v 1.9 0.1 31.2
v 1.9 0.2 31.2
v 2 0 31.2
v 2 0.1 31.2
v 2 0.2 31.2
v 1.7 0 31.1
v 1.7 0.1 31.1
v 1.7 0.2 31.1
v 1.8 0 31.1
v 1.8 0.1 31.1
v 1.8 0.2 31.1
v 1.5 0 31
v 1.5 0.1 31
v 1.5 0.2 31
v 1.6 0 31
v 1.6 0.1 31
v 1.6 0.2 31
v 1.9 0 30.9
v 1.9 0.2 30.9
v 1.9 0.3 30.9
v 2 0 30.9
v 2 0.2 30.9
v 2 0.3 30.9
v 1.7 0 30.8
v 1.7 0.1 30.8
v 1.7 0.2 30.8
v 1.7 0.3 30.8
v 1.8 0 30.8
v 1.8 0.1 30.8
v 1.8 0.2 30.8
v 1.8 0.3 30.8
v 1.5 0 31.1
v 1.5 0.1 31.1
v 1.5 0.2 31.1
v 1.5 0.3 31.1
v 1.6 0 31.1
v 1.6 0.1 31.1
v 1.6 0.2 31.1
v 1.6 0.3 31.1
v 1.9 0 31.1
v 1.9 0.1 31.1
v 1.9 0.2 31.1
v 2 0 31.1
v 2 0.1 31.1
v 2 0.2 31.1
v 1.7 0 31
v 1.7 0.1 31
v 1.7 0.2 31
v 1.8 0 31
v 1.8 0.1 31
v 1.8 0.2 31
v 1.5 0 30.9
v 1.5 0.1 30.9
v 1.5 0.2 30.9
v 1.6 0 30.9
v 1.6 0.1 30.9
v 1.6 0.2 30.9
v 1.9 0 30.8
v 1.9 0.2 30.8
v 1.9 0.3 30.8
v 2 0 30.8
v 2 0.2 30.8
v 2 0.3 30.8
v 1.7 0 30.7
v 1.7 0.1 30.7
v 1.7 0.2 30.7
v 1.7 0.3 30.7
v 1.8 0 30.7
v 1.8 0.1 30.7
v 1.8 0.2 30.7
v 1.8 0.3 30.7
v 1.5 0 31.2
v 1.6 0 31.2
v 1.9 0 31.2
v 2 0 31.2
v 1.5 0 31.1
v 1.6 0 31.1
v 1.7 0 31.1
v 1.8 0 31.1
v 1.9 0 31.1
v 2 0 31.1
v 1.5 0 31
v 1.6 0 31
v 1.7 0 31
v 1.8 0 31
v 1.5 0 30.9
v 1.6 0 30.9
v 1.9 0 30.9
v 2 0 30.9
v 1.7 0 30.8
v 1.8 0 30.8
v 1.9 0 30.8
v 2 0 30.8
v 1.7 0 30.7
v 1.8 0 30.7
v 1.9 0.2 31.2
v 2 0.2 31.2
v 1.7 0.2 31.1
v 1.8 0.2 31.1
v 1.9 0.2 31.1
v 2 0.2 31.1
v 1.5 0.2 31
v 1.6 0.2 31
v 1.7 0.2 31
v 1.8 0.2 31
v 1.5 0.2 30.9
v 1.6 0.2 30.9
v 1.5 0.3 31.2
v 1.6 0.3 31.2
v 1.5 0.3 31.1
v 1.6 0.3 31.1
v 1.9 0.3 30.9
v 2 0.3 30.9
v 1.7 0.3 30.8
v 1.8 0.3 30.8
v 1.9 0.3 30.8
v 2 0.3 30.8
v 1.7 0.3 30.7
v 1.8 0.3 30.7

# faces
f 5/1/1 2/1/1 1/1/1
f 6/1/1 2/1/1 5/1/1
f 7/2/1 4/2/1 3/2/1
f 8/2/1 4/2/1 7/2/1
f 9/2/1 6/2/1 5/2/1
f 10/2/1 6/2/1 9/2/1
f 11/1/1 8/1/1 7/1/1
f 12/1/1 8/1/1 11/1/1
f 13/3/1 10/3/1 9/3/1
f 14/3/1 10/3/1 13/3/1
f 19/3/1 16/3/1 15/3/1
f 20/3/1 16/3/1 19/3/1
f 21/1/1 18/1/1 17/1/1
f 22/1/1 18/1/1 21/1/1
f 23/2/1 20/2/1 19/2/1
f 24/2/1 20/2/1 23/2/1
f 25/2/1 22/2/1 21/2/1
f 26/2/1 22/2/1 25/2/1
f 27/3/1 26/3/1 25/3/1
f 28/3/1 26/3/1 27/3/1
f 33/2/1 30/2/1 29/2/1
f 34/2/1 30/2/1 33/2/1
f 35/1/1 34/1/1 33/1/1
f 36/1/1 34/1/1 35/1/1
f 37/2/1 32/2/1 31/2/1
f 38/2/1 32/2/1 37/2/1
f 39/3/1 38/3/1 37/3/1
f 40/3/1 38/3/1 39/3/1
f 41/1/2 42/1/2 45/1/2
f 45/1/2 42/1/2 46/1/2
f 43/2/2 44/2/2 47/2/2
f 47/2/2 44/2/2 48/2/2
f 45/2/2 46/2/2 49/2/2
f 49/2/2 46/2/2 50/2/2
f 47/1/2 48/1/2 51/1/2
f 51/1/2 48/1/2 52/1/2
f 49/3/2 50/3/2 53/3/2
f 53/3/2 50/3/2 54/3/2
f 55/3/2 56/3/2 59/3/2
f 59/3/2 56/3/2 60/3/2
f 57/1/2 58/1/2 61/1/2
f 61/1/2 58/1/2 62/1/2
f 59/2/2 60/2/2 63/2/2
f 63/2/2 60/2/2 64/2/2
f 61/2/2 62/2/2 65/2/2
f 65/2/2 62/2/2 66/2/2
f 65/3/2 66/3/2 67/3/2
f 67/3/2 66/3/2 68/3/2
f 69/2/2 70/2/2 73/2/2
f 73/2/2 70/2/2 74/2/2
f 73/1/2 74/1/2 75/1/2
f 75/1/2 74/1/2 76/1/2
f 71/2/2 72/2/2 77/2/2
f 77/2/2 72/2/2 78/2/2
f 77/3/2 78/3/2 79/3/2
f 79/3/2 78/3/2 80/3/2
f 85/1/3 82/1/3 81/1/3
f 86/2/3 83/2/3 82/2/3
f 86/1/3 82/1/3 85/1/3
f 87/3/3 84/3/3 83/3/3
f 87/2/3 83/2/3 86/2/3
f 88/3/3 84/3/3 87/3/3
f 92/2/3 90/2/3 89/2/3
f 93/1/3 91/1/3 90/1/3
f 93/2/3 90/2/3 92/2/3
f 94/1/3 91/1/3 93/1/3
f 98/3/3 96/3/3 95/3/3
f 99/2/3 97/2/3 96/2/3
f 99/3/3 96/3/3 98/3/3
f 100/2/3 97/2/3 99/2/3
f 104/2/3 102/2/3 101/2/3
f 105/1/3 103/1/3 102/1/3
f 105/2/3 102/2/3 104/2/3
f 106/1/3 103/1/3 105/1/3
f 110/2/3 108/2/3 107/2/3
f 111/3/3 109/3/3 108/3/3
f 111/2/3 108/2/3 110/2/3
f 112/3/3 109/3/3 111/3/3
f 117/1/3 114/1/3 113/1/3
f 118/2/3 115/2/3 114/2/3
f 118/1/3 114/1/3 117/1/3
f 119/3/3 116/3/3 115/3/3
f 119/2/3 115/2/3 118/2/3
f 120/3/3 116/3/3 119/3/3
f 121/1/4 122/1/4 125/1/4
f 122/2/4 123/2/4 126/2/4
f 125/1/4 122/1/4 126/1/4
f 123/3/4 124/3/4 127/3/4
f 126/2/4 123/2/4 127/2/4
f 127/3/4 124/3/4 128/3/4
f 129/2/4 130/2/4 132/2/4
f 130/1/4 131/1/4 133/1/4
f 132/2/4 130/2/4 133/2/4
f 133/1/4 131/1/4 134/1/4
f 135/3/4 136/3/4 138/3/4
f 136/2/4 137/2/4 139/2/4
f 138/3/4 136/3/4 139/3/4
f 139/2/4 137/2/4 140/2/4
f 141/2/4 142/2/4 144/2/4
f 142/1/4 143/1/4 145/1/4
f 144/2/4 142/2/4 145/2/4
f 145/1/4 143/1/4 146/1/4
f 147/2/4 148/2/4 150/2/4
f 148/3/4 149/3/4 151/3/4
f 150/2/4 148/2/4 151/2/4
f 151/3/4 149/3/4 152/3/4
f 153/1/4 154/1/4 157/1/4
f 154/2/4 155/2/4 158/2/4
f 157/1/4 154/1/4 158/1/4
f 155/3/4 156/3/4 159/3/4
f 158/2/4 155/2/4 159/2/4
f 159/3/4 156/3/4 160/3/4
f 165/1/5 162/1/5 161/1/5
f 166/1/5 162/1/5 165/1/5
f 169/2/5 164/2/5 163/2/5
f 170/2/5 164/2/5 169/2/5
f 173/3/5 168/3/5 167/3/5
f 174/3/5 168/3/5 173/3/5
f 175/2/5 172/2/5 171/2/5
f 176/2/5 172/2/5 175/2/5
f 181/2/5 178/2/5 177/2/5
f 182/2/5 178/2/5 181/2/5
f 183/1/5 180/1/5 179/1/5
f 184/1/5 180/1/5 183/1/5
f 185/1/6 186/1/6 189/1/6
f 189/1/6 186/1/6 190/1/6
f 187/2/6 188/2/6 193/2/6
f 193/2/6 188/2/6 194/2/6
f 191/1/6 192/1/6 195/1/6
f 195/1/6 192/1/6 196/1/6
f 197/3/6 198/3/6 199/3/6
f 199/3/6 198/3/6 200/3/6
f 201/3/6 202/3/6 205/3/6
f 205/3/6 202/3/6 206/3/6
f 203/3/6 204/3/6 207/3/6
f 207/3/6 204/3/6 208/3/6
