# MagicaVoxel @ Ephtracy

# group
o Decoration - Barrel - Highlight - Tap

# material
mtllib Medieval Assets-262-Decoration - Barrel - Highlight - Tap.mtl
usemtl palette

# normals
vn -1 0 0
vn 1 0 0
vn 0 0 1
vn 0 0 -1
vn 0 -1 0
vn 0 1 0

# texcoords
vt 0.134766 0.5
vt 0.138672 0.5
vt 0.142578 0.5

# verts
v -12.2 0 -9.1
v -12.2 0 -9.3
v -12.2 0.1 -9.1
v -12.2 0.1 -9.3
v -12.1 0 -9.3
v -12.1 0 -9.4
v -12.1 0.1 -9.1
v -12.1 0.1 -9.3
v -12.1 0.1 -9.4
v -12.1 0.2 -9.1
v -12.1 0.2 -9.2
v -12.1 0.3 -9.1
v -12.1 0.3 -9.2
v -12.1 0.4 -9.1
v -12.1 0.4 -9.2
v -12.1 0.4 -9.3
v -12 0 -9.3
v -12 0 -9.4
v -12 0.1 -9.1
v -12 0.1 -9.3
v -12 0.1 -9.4
v -12 0.2 -9.1
v -12 0.2 -9.2
v -12 0.3 -9.1
v -12 0.3 -9.2
v -12 0.4 -9.1
v -12 0.4 -9.2
v -12 0.4 -9.3
v -11.9 0 -9.1
v -11.9 0 -9.3
v -11.9 0.1 -9.1
v -11.9 0.1 -9.3
v -12.2 0 -9.1
v -12.2 0.1 -9.1
v -12.1 0.1 -9.1
v -12.1 0.2 -9.1
v -12.1 0.3 -9.1
v -12.1 0.4 -9.1
v -12 0.1 -9.1
v -12 0.2 -9.1
v -12 0.3 -9.1
v -12 0.4 -9.1
v -11.9 0 -9.1
v -11.9 0.1 -9.1
v -12.1 0.2 -9.2
v -12.1 0.3 -9.2
v -12 0.2 -9.2
v -12 0.3 -9.2
v -12.2 0 -9.3
v -12.2 0.1 -9.3
v -12.1 0 -9.3
v -12.1 0.1 -9.3
v -12.1 0.4 -9.3
v -12 0 -9.3
v -12 0.1 -9.3
v -12 0.4 -9.3
v -11.9 0 -9.3
v -11.9 0.1 -9.3
v -12.1 0 -9.4
v -12.1 0.1 -9.4
v -12 0 -9.4
v -12 0.1 -9.4
v -12.2 0 -9.1
v -11.9 0 -9.1
v -12.2 0 -9.3
v -12.1 0 -9.3
v -12 0 -9.3
v -11.9 0 -9.3
v -12.1 0 -9.4
v -12 0 -9.4
v -12.1 0.3 -9.1
v -12 0.3 -9.1
v -12.1 0.3 -9.2
v -12 0.3 -9.2
v -12.2 0.1 -9.1
v -12.1 0.1 -9.1
v -12 0.1 -9.1
v -11.9 0.1 -9.1
v -12.2 0.1 -9.3
v -12.1 0.1 -9.3
v -12 0.1 -9.3
v -11.9 0.1 -9.3
v -12.1 0.1 -9.4
v -12 0.1 -9.4
v -12.1 0.2 -9.1
v -12 0.2 -9.1
v -12.1 0.2 -9.2
v -12 0.2 -9.2
v -12.1 0.4 -9.1
v -12 0.4 -9.1
v -12.1 0.4 -9.2
v -12 0.4 -9.2
v -12.1 0.4 -9.3
v -12 0.4 -9.3

# faces
f 3/2/1 2/2/1 1/2/1
f 4/2/1 2/2/1 3/2/1
f 8/2/1 6/2/1 5/2/1
f 9/2/1 6/2/1 8/2/1
f 10/3/1 8/3/1 7/3/1
f 11/3/1 8/3/1 10/3/1
f 13/3/1 8/3/1 11/3/1
f 14/1/1 13/1/1 12/1/1
f 15/3/1 8/3/1 13/3/1
f 15/1/1 13/1/1 14/1/1
f 16/3/1 8/3/1 15/3/1
f 17/2/2 18/2/2 20/2/2
f 20/2/2 18/2/2 21/2/2
f 19/3/2 20/3/2 22/3/2
f 22/3/2 20/3/2 23/3/2
f 23/3/2 20/3/2 25/3/2
f 24/1/2 25/1/2 26/1/2
f 25/3/2 20/3/2 27/3/2
f 26/1/2 25/1/2 27/1/2
f 27/3/2 20/3/2 28/3/2
f 29/2/2 30/2/2 31/2/2
f 31/2/2 30/2/2 32/2/2
f 35/2/3 34/2/3 33/2/3
f 39/2/3 35/2/3 33/2/3
f 39/3/3 36/3/3 35/3/3
f 40/3/3 36/3/3 39/3/3
f 41/1/3 38/1/3 37/1/3
f 42/1/3 38/1/3 41/1/3
f 43/2/3 39/2/3 33/2/3
f 44/2/3 39/2/3 43/2/3
f 47/3/3 46/3/3 45/3/3
f 48/3/3 46/3/3 47/3/3
f 49/2/4 50/2/4 51/2/4
f 51/2/4 50/2/4 52/2/4
f 52/3/4 53/3/4 55/3/4
f 55/3/4 53/3/4 56/3/4
f 54/2/4 55/2/4 57/2/4
f 57/2/4 55/2/4 58/2/4
f 59/2/4 60/2/4 61/2/4
f 61/2/4 60/2/4 62/2/4
f 65/2/5 64/2/5 63/2/5
f 66/2/5 64/2/5 65/2/5
f 67/2/5 64/2/5 66/2/5
f 68/2/5 64/2/5 67/2/5
f 69/2/5 67/2/5 66/2/5
f 70/2/5 67/2/5 69/2/5
f 73/1/5 72/1/5 71/1/5
f 74/1/5 72/1/5 73/1/5
f 75/2/6 76/2/6 79/2/6
f 79/2/6 76/2/6 80/2/6
f 77/2/6 78/2/6 81/2/6
f 81/2/6 78/2/6 82/2/6
f 80/2/6 81/2/6 83/2/6
f 83/2/6 81/2/6 84/2/6
f 85/3/6 86/3/6 87/3/6
f 87/3/6 86/3/6 88/3/6
f 89/1/6 90/1/6 91/1/6
f 91/1/6 90/1/6 92/1/6
f 91/3/6 92/3/6 93/3/6
f 93/3/6 92/3/6 94/3/6
