# MagicaVoxel @ Ephtracy

# group
o Crafting - Table - Armor - Chest

# material
mtllib Medieval Assets-213-Crafting - Table - Armor - Chest.mtl
usemtl palette

# normals
vn -1 0 0
vn 1 0 0
vn 0 0 1
vn 0 0 -1
vn 0 -1 0
vn 0 1 0

# texcoords
vt 0.126953 0.5
vt 0.130859 0.5
vt 0.134766 0.5
vt 0.138672 0.5
vt 0.142578 0.5

# verts
v -2.7 0.8 -11
v -2.7 0.8 -11.1
v -2.7 0.9 -11.1
v -2.7 0.9 -11.2
v -2.7 1 -11
v -2.7 1 -11.1
v -2.7 1 -11.2
v -2.7 1.1 -11
v -2.7 1.1 -11.1
v -2.6 0.8 -11.1
v -2.6 0.8 -11.2
v -2.6 0.9 -11.1
v -2.6 0.9 -11.2
v -2.6 1 -11.1
v -2.6 1 -11.2
v -2.6 1.1 -11.1
v -2.6 1.1 -11.2
v -2.5 0.9 -11.2
v -2.5 0.9 -11.7
v -2.5 1 -11.2
v -2.5 1 -11.7
v -2.4 0.8 -11.2
v -2.4 0.8 -11.7
v -2.4 0.9 -11.2
v -2.4 0.9 -11.7
v -2.4 0.9 -11.8
v -2.4 1 -11.2
v -2.4 1 -11.7
v -2.4 1 -11.8
v -2.4 1.1 -11.2
v -2.4 1.1 -11.7
v -2.3 0.8 -11.7
v -2.3 0.8 -11.8
v -2.3 0.9 -11.7
v -2.3 0.9 -11.8
v -2.3 1 -11.7
v -2.3 1 -11.8
v -2.3 1.1 -11.7
v -2.3 1.1 -11.8
v -2.1 0.9 -11
v -2.1 0.9 -11.1
v -2.1 1 -11
v -2.1 1 -11.1
v -2 0.8 -11
v -2 0.8 -11.1
v -2 0.9 -11
v -2 0.9 -11.1
v -2 1 -11
v -2 1 -11.1
v -2 1.1 -11
v -2 1.1 -11.1
v -2.4 0.8 -11
v -2.4 0.8 -11.1
v -2.4 0.9 -11
v -2.4 0.9 -11.1
v -2.4 1 -11
v -2.4 1 -11.1
v -2.4 1.1 -11
v -2.4 1.1 -11.1
v -2.3 0.9 -11
v -2.3 0.9 -11.1
v -2.3 1 -11
v -2.3 1 -11.1
v -2.1 0.8 -11.7
v -2.1 0.8 -11.8
v -2.1 0.9 -11.7
v -2.1 0.9 -11.8
v -2.1 1 -11.7
v -2.1 1 -11.8
v -2.1 1.1 -11.7
v -2.1 1.1 -11.8
v -2 0.8 -11.2
v -2 0.8 -11.7
v -2 0.9 -11.2
v -2 0.9 -11.7
v -2 0.9 -11.8
v -2 1 -11.2
v -2 1 -11.7
v -2 1 -11.8
v -2 1.1 -11.2
v -2 1.1 -11.7
v -1.9 0.9 -11.2
v -1.9 0.9 -11.7
v -1.9 1 -11.2
v -1.9 1 -11.7
v -1.8 0.8 -11.1
v -1.8 0.8 -11.2
v -1.8 0.9 -11.1
v -1.8 0.9 -11.2
v -1.8 1 -11.1
v -1.8 1 -11.2
v -1.8 1.1 -11.1
v -1.8 1.1 -11.2
v -1.7 0.8 -11
v -1.7 0.8 -11.1
v -1.7 0.9 -11.1
v -1.7 0.9 -11.2
v -1.7 1 -11
v -1.7 1 -11.1
v -1.7 1 -11.2
v -1.7 1.1 -11
v -1.7 1.1 -11.1
v -2.7 0.8 -11
v -2.7 1 -11
v -2.7 1.1 -11
v -2.6 1 -11
v -2.6 1.1 -11
v -2.4 0.8 -11
v -2.4 0.9 -11
v -2.4 1 -11
v -2.4 1.1 -11
v -2.3 0.9 -11
v -2.3 1 -11
v -2.1 0.9 -11
v -2.1 1 -11
v -2 0.8 -11
v -2 0.9 -11
v -2 1 -11
v -2 1.1 -11
v -1.8 1 -11
v -1.8 1.1 -11
v -1.7 0.8 -11
v -1.7 1 -11
v -1.7 1.1 -11
v -2.4 0.8 -11.1
v -2.4 0.9 -11.1
v -2.4 1 -11.1
v -2.4 1.1 -11.1
v -2.3 0.9 -11.1
v -2.3 1 -11.1
v -2.1 0.9 -11.1
v -2.1 1 -11.1
v -2 0.8 -11.1
v -2 0.9 -11.1
v -2 1 -11.1
v -2 1.1 -11.1
v -2.7 0.8 -11.1
v -2.7 0.9 -11.1
v -2.7 1 -11.1
v -2.7 1.1 -11.1
v -2.6 0.8 -11.1
v -2.6 0.9 -11.1
v -2.6 1 -11.1
v -2.6 1.1 -11.1
v -1.8 0.8 -11.1
v -1.8 0.9 -11.1
v -1.8 1 -11.1
v -1.8 1.1 -11.1
v -1.7 0.8 -11.1
v -1.7 0.9 -11.1
v -1.7 1 -11.1
v -1.7 1.1 -11.1
v -2.7 0.9 -11.2
v -2.7 1 -11.2
v -2.6 0.8 -11.2
v -2.6 0.9 -11.2
v -2.6 1 -11.2
v -2.6 1.1 -11.2
v -2.5 0.9 -11.2
v -2.5 1 -11.2
v -2.4 0.8 -11.2
v -2.4 0.9 -11.2
v -2.4 1 -11.2
v -2.4 1.1 -11.2
v -2 0.8 -11.2
v -2 0.9 -11.2
v -2 1 -11.2
v -2 1.1 -11.2
v -1.9 0.9 -11.2
v -1.9 1 -11.2
v -1.8 0.8 -11.2
v -1.8 0.9 -11.2
v -1.8 1 -11.2
v -1.8 1.1 -11.2
v -1.7 0.9 -11.2
v -1.7 1 -11.2
v -2.5 0.9 -11.7
v -2.5 1 -11.7
v -2.4 0.8 -11.7
v -2.4 0.9 -11.7
v -2.4 1 -11.7
v -2.4 1.1 -11.7
v -2.3 0.8 -11.7
v -2.3 0.9 -11.7
v -2.3 1 -11.7
v -2.3 1.1 -11.7
v -2.1 0.8 -11.7
v -2.1 0.9 -11.7
v -2.1 1 -11.7
v -2.1 1.1 -11.7
v -2 0.8 -11.7
v -2 0.9 -11.7
v -2 1 -11.7
v -2 1.1 -11.7
v -1.9 0.9 -11.7
v -1.9 1 -11.7
v -2.4 0.9 -11.8
v -2.4 1 -11.8
v -2.3 0.8 -11.8
v -2.3 0.9 -11.8
v -2.3 1 -11.8
v -2.3 1.1 -11.8
v -2.1 0.8 -11.8
v -2.1 0.9 -11.8
v -2.1 1 -11.8
v -2.1 1.1 -11.8
v -2 0.9 -11.8
v -2 1 -11.8
v -2.7 0.8 -11
v -2.4 0.8 -11
v -2 0.8 -11
v -1.7 0.8 -11
v -2.7 0.8 -11.1
v -2.6 0.8 -11.1
v -2.4 0.8 -11.1
v -2 0.8 -11.1
v -1.8 0.8 -11.1
v -1.7 0.8 -11.1
v -2.6 0.8 -11.2
v -2.4 0.8 -11.2
v -2 0.8 -11.2
v -1.8 0.8 -11.2
v -2.4 0.8 -11.7
v -2.3 0.8 -11.7
v -2.1 0.8 -11.7
v -2 0.8 -11.7
v -2.3 0.8 -11.8
v -2.1 0.8 -11.8
v -2.4 0.9 -11
v -2.3 0.9 -11
v -2.1 0.9 -11
v -2 0.9 -11
v -2.7 0.9 -11.1
v -2.6 0.9 -11.1
v -2.4 0.9 -11.1
v -2.3 0.9 -11.1
v -2.1 0.9 -11.1
v -2 0.9 -11.1
v -1.8 0.9 -11.1
v -1.7 0.9 -11.1
v -2.7 0.9 -11.2
v -2.6 0.9 -11.2
v -2.5 0.9 -11.2
v -2.4 0.9 -11.2
v -2 0.9 -11.2
v -1.9 0.9 -11.2
v -1.8 0.9 -11.2
v -1.7 0.9 -11.2
v -2.5 0.9 -11.7
v -2.4 0.9 -11.7
v -2.3 0.9 -11.7
v -2.1 0.9 -11.7
v -2 0.9 -11.7
v -1.9 0.9 -11.7
v -2.4 0.9 -11.8
v -2.3 0.9 -11.8
v -2.1 0.9 -11.8
v -2 0.9 -11.8
v -2.4 1 -11
v -2.3 1 -11
v -2.1 1 -11
v -2 1 -11
v -2.7 1 -11.1
v -2.6 1 -11.1
v -2.4 1 -11.1
v -2.3 1 -11.1
v -2.1 1 -11.1
v -2 1 -11.1
v -1.8 1 -11.1
v -1.7 1 -11.1
v -2.7 1 -11.2
v -2.6 1 -11.2
v -2.5 1 -11.2
v -2.4 1 -11.2
v -2 1 -11.2
v -1.9 1 -11.2
v -1.8 1 -11.2
v -1.7 1 -11.2
v -2.5 1 -11.7
v -2.4 1 -11.7
v -2.3 1 -11.7
v -2.1 1 -11.7
v -2 1 -11.7
v -1.9 1 -11.7
v -2.4 1 -11.8
v -2.3 1 -11.8
v -2.1 1 -11.8
v -2 1 -11.8
v -2.7 1.1 -11
v -2.6 1.1 -11
v -2.4 1.1 -11
v -2 1.1 -11
v -1.8 1.1 -11
v -1.7 1.1 -11
v -2.7 1.1 -11.1
v -2.6 1.1 -11.1
v -2.4 1.1 -11.1
v -2 1.1 -11.1
v -1.8 1.1 -11.1
v -1.7 1.1 -11.1
v -2.6 1.1 -11.2
v -2.4 1.1 -11.2
v -2.3 1.1 -11.2
v -2.1 1.1 -11.2
v -2 1.1 -11.2
v -1.8 1.1 -11.2
v -2.4 1.1 -11.7
v -2.3 1.1 -11.7
v -2.1 1.1 -11.7
v -2 1.1 -11.7
v -2.3 1.1 -11.8
v -2.1 1.1 -11.8

# faces
f 3/1/1 2/1/1 1/1/1
f 5/1/1 3/1/1 1/1/1
f 5/1/1 4/1/1 3/1/1
f 6/1/1 4/1/1 5/1/1
f 7/1/1 4/1/1 6/1/1
f 8/2/1 6/2/1 5/2/1
f 9/2/1 6/2/1 8/2/1
f 12/1/1 11/1/1 10/1/1
f 13/1/1 11/1/1 12/1/1
f 16/2/1 15/2/1 14/2/1
f 17/2/1 15/2/1 16/2/1
f 20/3/1 19/3/1 18/3/1
f 21/3/1 19/3/1 20/3/1
f 24/1/1 23/1/1 22/1/1
f 25/1/1 23/1/1 24/1/1
f 28/2/1 26/2/1 25/2/1
f 29/2/1 26/2/1 28/2/1
f 30/2/1 28/2/1 27/2/1
f 31/2/1 28/2/1 30/2/1
f 34/1/1 33/1/1 32/1/1
f 35/1/1 33/1/1 34/1/1
f 38/1/1 37/1/1 36/1/1
f 39/1/1 37/1/1 38/1/1
f 42/4/1 41/4/1 40/4/1
f 43/4/1 41/4/1 42/4/1
f 46/1/1 45/1/1 44/1/1
f 47/1/1 45/1/1 46/1/1
f 50/1/1 49/1/1 48/1/1
f 51/1/1 49/1/1 50/1/1
f 52/1/2 53/1/2 54/1/2
f 54/1/2 53/1/2 55/1/2
f 56/1/2 57/1/2 58/1/2
f 58/1/2 57/1/2 59/1/2
f 60/4/2 61/4/2 62/4/2
f 62/4/2 61/4/2 63/4/2
f 64/1/2 65/1/2 66/1/2
f 66/1/2 65/1/2 67/1/2
f 68/1/2 69/1/2 70/1/2
f 70/1/2 69/1/2 71/1/2
f 72/1/2 73/1/2 74/1/2
f 74/1/2 73/1/2 75/1/2
f 75/2/2 76/2/2 78/2/2
f 78/2/2 76/2/2 79/2/2
f 77/2/2 78/2/2 80/2/2
f 80/2/2 78/2/2 81/2/2
f 82/3/2 83/3/2 84/3/2
f 84/3/2 83/3/2 85/3/2
f 86/1/2 87/1/2 88/1/2
f 88/1/2 87/1/2 89/1/2
f 90/2/2 91/2/2 92/2/2
f 92/2/2 91/2/2 93/2/2
f 94/1/2 95/1/2 96/1/2
f 94/1/2 96/1/2 98/1/2
f 96/1/2 97/1/2 98/1/2
f 98/1/2 97/1/2 99/1/2
f 99/1/2 97/1/2 100/1/2
f 98/2/2 99/2/2 101/2/2
f 101/2/2 99/2/2 102/2/2
f 106/1/3 104/1/3 103/1/3
f 106/2/3 105/2/3 104/2/3
f 107/2/3 105/2/3 106/2/3
f 108/1/3 106/1/3 103/1/3
f 108/1/3 107/1/3 106/1/3
f 109/1/3 107/1/3 108/1/3
f 110/1/3 107/1/3 109/1/3
f 111/1/3 107/1/3 110/1/3
f 112/4/3 110/4/3 109/4/3
f 113/4/3 110/4/3 112/4/3
f 117/4/3 115/4/3 114/4/3
f 118/4/3 115/4/3 117/4/3
f 120/1/3 118/1/3 117/1/3
f 120/1/3 119/1/3 118/1/3
f 120/1/3 117/1/3 116/1/3
f 121/1/3 119/1/3 120/1/3
f 122/1/3 120/1/3 116/1/3
f 123/2/3 121/2/3 120/2/3
f 123/1/3 120/1/3 122/1/3
f 124/2/3 121/2/3 123/2/3
f 129/1/3 126/1/3 125/1/3
f 130/1/3 128/1/3 127/1/3
f 131/1/3 129/1/3 125/1/3
f 131/1/3 130/1/3 129/1/3
f 132/1/3 128/1/3 130/1/3
f 132/1/3 130/1/3 131/1/3
f 133/1/3 131/1/3 125/1/3
f 134/1/3 131/1/3 133/1/3
f 135/1/3 128/1/3 132/1/3
f 136/1/3 128/1/3 135/1/3
f 137/1/4 138/1/4 141/1/4
f 141/1/4 138/1/4 142/1/4
f 139/2/4 140/2/4 143/2/4
f 143/2/4 140/2/4 144/2/4
f 145/1/4 146/1/4 149/1/4
f 149/1/4 146/1/4 150/1/4
f 147/2/4 148/2/4 151/2/4
f 151/2/4 148/2/4 152/2/4
f 153/1/4 154/1/4 156/1/4
f 156/1/4 154/1/4 157/1/4
f 155/1/4 156/1/4 159/1/4
f 156/1/4 157/1/4 159/1/4
f 157/2/4 158/2/4 160/2/4
f 159/1/4 157/1/4 160/1/4
f 155/1/4 159/1/4 161/1/4
f 161/1/4 159/1/4 162/1/4
f 160/2/4 158/2/4 163/2/4
f 163/2/4 158/2/4 164/2/4
f 165/1/4 166/1/4 169/1/4
f 167/2/4 168/2/4 170/2/4
f 165/1/4 169/1/4 171/1/4
f 169/1/4 170/1/4 171/1/4
f 171/1/4 170/1/4 172/1/4
f 170/2/4 168/2/4 173/2/4
f 172/1/4 170/1/4 173/1/4
f 173/2/4 168/2/4 174/2/4
f 172/1/4 173/1/4 175/1/4
f 175/1/4 173/1/4 176/1/4
f 177/3/4 178/3/4 180/3/4
f 180/3/4 178/3/4 181/3/4
f 179/1/4 180/1/4 183/1/4
f 183/1/4 180/1/4 184/1/4
f 181/2/4 182/2/4 185/2/4
f 185/2/4 182/2/4 186/2/4
f 187/1/4 188/1/4 191/1/4
f 191/1/4 188/1/4 192/1/4
f 189/2/4 190/2/4 193/2/4
f 193/2/4 190/2/4 194/2/4
f 192/3/4 193/3/4 195/3/4
f 195/3/4 193/3/4 196/3/4
f 197/2/4 198/2/4 200/2/4
f 200/2/4 198/2/4 201/2/4
f 199/1/4 200/1/4 203/1/4
f 201/1/4 202/1/4 203/1/4
f 200/1/4 201/1/4 203/1/4
f 203/1/4 202/1/4 204/1/4
f 204/1/4 202/1/4 205/1/4
f 205/1/4 202/1/4 206/1/4
f 204/2/4 205/2/4 207/2/4
f 207/2/4 205/2/4 208/2/4
f 213/1/5 210/1/5 209/1/5
f 214/1/5 210/1/5 213/1/5
f 215/1/5 210/1/5 214/1/5
f 216/1/5 212/1/5 211/1/5
f 217/1/5 212/1/5 216/1/5
f 218/1/5 212/1/5 217/1/5
f 219/1/5 215/1/5 214/1/5
f 219/1/5 217/1/5 216/1/5
f 219/1/5 216/1/5 215/1/5
f 220/1/5 217/1/5 219/1/5
f 221/1/5 217/1/5 220/1/5
f 222/1/5 217/1/5 221/1/5
f 223/1/5 221/1/5 220/1/5
f 224/1/5 221/1/5 223/1/5
f 225/1/5 221/1/5 224/1/5
f 226/1/5 221/1/5 225/1/5
f 227/1/5 225/1/5 224/1/5
f 228/1/5 225/1/5 227/1/5
f 235/4/5 230/4/5 229/4/5
f 236/4/5 230/4/5 235/4/5
f 237/4/5 232/4/5 231/4/5
f 238/4/5 232/4/5 237/4/5
f 241/1/5 234/1/5 233/1/5
f 242/1/5 234/1/5 241/1/5
f 247/1/5 240/1/5 239/1/5
f 248/1/5 240/1/5 247/1/5
f 249/3/5 244/3/5 243/3/5
f 250/3/5 244/3/5 249/3/5
f 253/3/5 246/3/5 245/3/5
f 254/3/5 246/3/5 253/3/5
f 255/2/5 251/2/5 250/2/5
f 256/2/5 251/2/5 255/2/5
f 257/2/5 253/2/5 252/2/5
f 258/2/5 253/2/5 257/2/5
f 259/4/6 260/4/6 265/4/6
f 265/4/6 260/4/6 266/4/6
f 261/4/6 262/4/6 267/4/6
f 267/4/6 262/4/6 268/4/6
f 263/1/6 264/1/6 271/1/6
f 271/1/6 264/1/6 272/1/6
f 269/1/6 270/1/6 277/1/6
f 277/1/6 270/1/6 278/1/6
f 273/3/6 274/3/6 279/3/6
f 279/3/6 274/3/6 280/3/6
f 275/3/6 276/3/6 283/3/6
f 283/3/6 276/3/6 284/3/6
f 280/2/6 281/2/6 285/2/6
f 285/2/6 281/2/6 286/2/6
f 282/2/6 283/2/6 287/2/6
f 287/2/6 283/2/6 288/2/6
f 289/2/6 290/2/6 295/2/6
f 290/1/6 291/1/6 296/1/6
f 295/2/6 290/2/6 296/2/6
f 296/1/6 291/1/6 297/1/6
f 292/1/6 293/1/6 298/1/6
f 293/2/6 294/2/6 299/2/6
f 298/1/6 293/1/6 299/1/6
f 299/2/6 294/2/6 300/2/6
f 296/2/6 297/2/6 301/2/6
f 297/1/6 298/1/6 302/1/6
f 301/2/6 297/2/6 302/2/6
f 302/1/6 298/1/6 303/1/6
f 303/1/6 298/1/6 304/1/6
f 298/2/6 299/2/6 305/2/6
f 304/1/6 298/1/6 305/1/6
f 305/2/6 299/2/6 306/2/6
f 302/2/6 303/2/6 307/2/6
f 303/1/6 304/1/6 308/1/6
f 307/2/6 303/2/6 308/2/6
f 304/2/6 305/2/6 309/2/6
f 308/1/6 304/1/6 309/1/6
f 309/2/6 305/2/6 310/2/6
f 308/1/6 309/1/6 311/1/6
f 311/1/6 309/1/6 312/1/6
