# MagicaVoxel @ Ephtracy

# group
o Decoration - Post

# material
mtllib Medieval Assets-280-Decoration - Post.mtl
usemtl palette

# normals
vn -1 0 0
vn 1 0 0
vn 0 0 1
vn 0 0 -1
vn 0 -1 0
vn 0 1 0

# texcoords
vt 0.201172 0.5
vt 0.205078 0.5

# verts
v 4.3 0 -11.2
v 4.3 0 -11.4
v 4.3 0.1 -11.2
v 4.3 0.1 -11.4
v 4.3 0.8 -11.3
v 4.3 0.8 -11.4
v 4.3 1.1 -11.3
v 4.3 1.1 -11.4
v 4.3 1.5 -11.3
v 4.3 1.5 -11.4
v 4.3 1.8 -11.3
v 4.3 1.8 -11.4
v 4.3 1.9 -11.2
v 4.3 1.9 -11.4
v 4.4 0 -11.1
v 4.4 0 -11.2
v 4.4 0 -11.4
v 4.4 0 -11.5
v 4.4 0.1 -11.1
v 4.4 0.1 -11.2
v 4.4 0.1 -11.4
v 4.4 0.1 -11.5
v 4.4 0.2 -11.1
v 4.4 0.2 -11.2
v 4.4 0.2 -11.4
v 4.4 0.2 -11.5
v 4.4 0.5 -11.1
v 4.4 0.5 -11.2
v 4.4 0.6 -11.1
v 4.4 0.6 -11.2
v 4.4 0.7 -11.4
v 4.4 0.7 -11.5
v 4.4 0.8 -11.4
v 4.4 0.9 -11.4
v 4.4 0.9 -11.5
v 4.4 1 -11.1
v 4.4 1 -11.2
v 4.4 1.1 -11.1
v 4.4 1.1 -11.2
v 4.4 1.1 -11.4
v 4.4 1.2 -11.1
v 4.4 1.2 -11.2
v 4.4 1.3 -11.1
v 4.4 1.3 -11.2
v 4.4 1.3 -11.4
v 4.4 1.3 -11.5
v 4.4 1.5 -11.4
v 4.4 1.6 -11.4
v 4.4 1.6 -11.5
v 4.4 1.8 -11.4
v 4.4 1.9 -11.1
v 4.4 1.9 -11.2
v 4.4 1.9 -11.4
v 4.4 1.9 -11.5
v 4.4 2 -11.2
v 4.4 2 -11.4
v 4.6 0 -11.1
v 4.6 0 -11.2
v 4.6 0 -11.4
v 4.6 0 -11.5
v 4.6 0.1 -11.1
v 4.6 0.1 -11.2
v 4.6 0.1 -11.4
v 4.6 0.1 -11.5
v 4.6 0.2 -11.1
v 4.6 0.2 -11.2
v 4.6 0.2 -11.4
v 4.6 0.2 -11.5
v 4.6 0.3 -11.1
v 4.6 0.3 -11.2
v 4.6 0.4 -11.1
v 4.6 0.4 -11.2
v 4.6 0.4 -11.4
v 4.6 0.4 -11.5
v 4.6 0.5 -11.1
v 4.6 0.5 -11.2
v 4.6 0.6 -11.2
v 4.6 0.6 -11.4
v 4.6 0.7 -11.1
v 4.6 0.7 -11.2
v 4.6 0.7 -11.4
v 4.6 0.7 -11.5
v 4.6 0.8 -11.4
v 4.6 0.8 -11.5
v 4.6 0.9 -11.4
v 4.6 0.9 -11.5
v 4.6 1 -11.1
v 4.6 1 -11.2
v 4.6 1 -11.4
v 4.6 1.1 -11.2
v 4.6 1.1 -11.4
v 4.6 1.1 -11.5
v 4.6 1.2 -11.2
v 4.6 1.2 -11.4
v 4.6 1.3 -11.4
v 4.6 1.3 -11.5
v 4.6 1.4 -11.2
v 4.6 1.4 -11.4
v 4.6 1.7 -11.1
v 4.6 1.7 -11.2
v 4.6 1.8 -11.1
v 4.6 1.8 -11.2
v 4.6 1.8 -11.4
v 4.6 1.9 -11.1
v 4.6 1.9 -11.2
v 4.6 1.9 -11.3
v 4.6 1.9 -11.4
v 4.6 1.9 -11.5
v 4.6 2 -11.2
v 4.6 2 -11.3
v 4.6 2 -11.4
v 4.7 0 -11.2
v 4.7 0 -11.4
v 4.7 0.1 -11.2
v 4.7 0.1 -11.4
v 4.7 0.3 -11.2
v 4.7 0.3 -11.3
v 4.7 0.4 -11.2
v 4.7 0.4 -11.3
v 4.7 0.4 -11.4
v 4.7 0.6 -11.2
v 4.7 0.6 -11.3
v 4.7 0.6 -11.4
v 4.7 0.7 -11.2
v 4.7 0.7 -11.3
v 4.7 0.7 -11.4
v 4.7 0.9 -11.3
v 4.7 0.9 -11.4
v 4.7 1 -11.3
v 4.7 1 -11.4
v 4.7 1.1 -11.2
v 4.7 1.1 -11.3
v 4.7 1.1 -11.4
v 4.7 1.2 -11.2
v 4.7 1.2 -11.3
v 4.7 1.2 -11.4
v 4.7 1.4 -11.2
v 4.7 1.4 -11.3
v 4.7 1.4 -11.4
v 4.7 1.8 -11.2
v 4.7 1.8 -11.3
v 4.7 1.8 -11.4
v 4.7 1.9 -11.2
v 4.7 1.9 -11.3
v 4.7 1.9 -11.4
v 4.4 0 -11.1
v 4.4 0.1 -11.1
v 4.4 0.2 -11.1
v 4.4 0.5 -11.1
v 4.4 0.6 -11.1
v 4.4 1 -11.1
v 4.4 1.1 -11.1
v 4.4 1.2 -11.1
v 4.4 1.3 -11.1
v 4.4 1.9 -11.1
v 4.5 0.3 -11.1
v 4.5 0.4 -11.1
v 4.5 0.6 -11.1
v 4.5 0.7 -11.1
v 4.5 1.1 -11.1
v 4.5 1.2 -11.1
v 4.5 1.3 -11.1
v 4.5 1.7 -11.1
v 4.5 1.8 -11.1
v 4.5 1.9 -11.1
v 4.6 0 -11.1
v 4.6 0.1 -11.1
v 4.6 0.2 -11.1
v 4.6 0.3 -11.1
v 4.6 0.4 -11.1
v 4.6 0.5 -11.1
v 4.6 0.7 -11.1
v 4.6 1 -11.1
v 4.6 1.7 -11.1
v 4.6 1.8 -11.1
v 4.6 1.9 -11.1
v 4.3 0 -11.2
v 4.3 0.1 -11.2
v 4.3 1.9 -11.2
v 4.4 0 -11.2
v 4.4 0.1 -11.2
v 4.4 0.2 -11.2
v 4.4 0.5 -11.2
v 4.4 0.6 -11.2
v 4.4 1 -11.2
v 4.4 1.1 -11.2
v 4.4 1.2 -11.2
v 4.4 1.3 -11.2
v 4.4 1.9 -11.2
v 4.4 2 -11.2
v 4.5 1.9 -11.2
v 4.5 2 -11.2
v 4.6 0 -11.2
v 4.6 0.1 -11.2
v 4.6 0.2 -11.2
v 4.6 0.3 -11.2
v 4.6 0.4 -11.2
v 4.6 0.5 -11.2
v 4.6 0.6 -11.2
v 4.6 0.7 -11.2
v 4.6 1 -11.2
v 4.6 1.1 -11.2
v 4.6 1.2 -11.2
v 4.6 1.4 -11.2
v 4.6 1.7 -11.2
v 4.6 1.8 -11.2
v 4.6 1.9 -11.2
v 4.6 2 -11.2
v 4.7 0 -11.2
v 4.7 0.1 -11.2
v 4.7 0.3 -11.2
v 4.7 0.4 -11.2
v 4.7 0.6 -11.2
v 4.7 0.7 -11.2
v 4.7 1.1 -11.2
v 4.7 1.2 -11.2
v 4.7 1.4 -11.2
v 4.7 1.8 -11.2
v 4.7 1.9 -11.2
v 4.3 0 -11.4
v 4.3 0.1 -11.4
v 4.3 0.8 -11.4
v 4.3 1.1 -11.4
v 4.3 1.5 -11.4
v 4.3 1.8 -11.4
v 4.3 1.9 -11.4
v 4.4 0 -11.4
v 4.4 0.1 -11.4
v 4.4 0.2 -11.4
v 4.4 0.7 -11.4
v 4.4 0.8 -11.4
v 4.4 0.9 -11.4
v 4.4 1.1 -11.4
v 4.4 1.3 -11.4
v 4.4 1.5 -11.4
v 4.4 1.6 -11.4
v 4.4 1.8 -11.4
v 4.4 1.9 -11.4
v 4.4 2 -11.4
v 4.6 0 -11.4
v 4.6 0.1 -11.4
v 4.6 0.2 -11.4
v 4.6 0.4 -11.4
v 4.6 0.6 -11.4
v 4.6 0.7 -11.4
v 4.6 0.8 -11.4
v 4.6 0.9 -11.4
v 4.6 1 -11.4
v 4.6 1.1 -11.4
v 4.6 1.2 -11.4
v 4.6 1.3 -11.4
v 4.6 1.4 -11.4
v 4.6 1.8 -11.4
v 4.6 1.9 -11.4
v 4.6 2 -11.4
v 4.7 0 -11.4
v 4.7 0.1 -11.4
v 4.7 0.4 -11.4
v 4.7 0.6 -11.4
v 4.7 0.7 -11.4
v 4.7 0.9 -11.4
v 4.7 1 -11.4
v 4.7 1.1 -11.4
v 4.7 1.2 -11.4
v 4.7 1.4 -11.4
v 4.7 1.8 -11.4
v 4.7 1.9 -11.4
v 4.4 0 -11.5
v 4.4 0.1 -11.5
v 4.4 0.2 -11.5
v 4.4 0.7 -11.5
v 4.4 0.9 -11.5
v 4.4 1.3 -11.5
v 4.4 1.6 -11.5
v 4.4 1.9 -11.5
v 4.5 0.4 -11.5
v 4.5 0.7 -11.5
v 4.5 0.8 -11.5
v 4.5 1.1 -11.5
v 4.5 1.3 -11.5
v 4.5 1.6 -11.5
v 4.6 0 -11.5
v 4.6 0.1 -11.5
v 4.6 0.2 -11.5
v 4.6 0.4 -11.5
v 4.6 0.7 -11.5
v 4.6 0.8 -11.5
v 4.6 0.9 -11.5
v 4.6 1.1 -11.5
v 4.6 1.3 -11.5
v 4.6 1.9 -11.5
v 4.4 0 -11.1
v 4.6 0 -11.1
v 4.3 0 -11.2
v 4.4 0 -11.2
v 4.6 0 -11.2
v 4.7 0 -11.2
v 4.3 0 -11.4
v 4.4 0 -11.4
v 4.6 0 -11.4
v 4.7 0 -11.4
v 4.4 0 -11.5
v 4.6 0 -11.5
v 4.4 1.9 -11.1
v 4.5 1.9 -11.1
v 4.6 1.9 -11.1
v 4.3 1.9 -11.2
v 4.4 1.9 -11.2
v 4.5 1.9 -11.2
v 4.6 1.9 -11.2
v 4.7 1.9 -11.2
v 4.6 1.9 -11.3
v 4.7 1.9 -11.3
v 4.3 1.9 -11.4
v 4.4 1.9 -11.4
v 4.6 1.9 -11.4
v 4.7 1.9 -11.4
v 4.4 1.9 -11.5
v 4.6 1.9 -11.5
v 4.4 2 -11.2
v 4.5 2 -11.2
v 4.6 2 -11.2
v 4.5 2 -11.3
v 4.6 2 -11.3
v 4.4 2 -11.4
v 4.6 2 -11.4

# faces
f 3/2/1 2/2/1 1/2/1
f 4/2/1 2/2/1 3/2/1
f 5/1/1 4/1/1 3/1/1
f 6/1/1 4/1/1 5/1/1
f 7/1/1 5/1/1 3/1/1
f 7/2/1 6/2/1 5/2/1
f 8/2/1 6/2/1 7/2/1
f 9/1/1 7/1/1 3/1/1
f 9/1/1 8/1/1 7/1/1
f 10/1/1 8/1/1 9/1/1
f 11/1/1 9/1/1 3/1/1
f 11/2/1 10/2/1 9/2/1
f 12/2/1 10/2/1 11/2/1
f 13/1/1 11/1/1 3/1/1
f 13/1/1 12/1/1 11/1/1
f 14/1/1 12/1/1 13/1/1
f 19/1/1 16/1/1 15/1/1
f 20/1/1 16/1/1 19/1/1
f 21/1/1 18/1/1 17/1/1
f 22/1/1 18/1/1 21/1/1
f 23/2/1 20/2/1 19/2/1
f 24/2/1 20/2/1 23/2/1
f 25/2/1 22/2/1 21/2/1
f 26/2/1 22/2/1 25/2/1
f 27/1/1 24/1/1 23/1/1
f 28/1/1 24/1/1 27/1/1
f 29/2/1 28/2/1 27/2/1
f 30/2/1 28/2/1 29/2/1
f 31/1/1 26/1/1 25/1/1
f 32/1/1 26/1/1 31/1/1
f 33/2/1 32/2/1 31/2/1
f 34/2/1 32/2/1 33/2/1
f 35/2/1 32/2/1 34/2/1
f 36/1/1 30/1/1 29/1/1
f 37/1/1 30/1/1 36/1/1
f 38/2/1 37/2/1 36/2/1
f 39/2/1 37/2/1 38/2/1
f 40/1/1 35/1/1 34/1/1
f 41/1/1 39/1/1 38/1/1
f 42/1/1 39/1/1 41/1/1
f 43/2/1 42/2/1 41/2/1
f 44/2/1 42/2/1 43/2/1
f 45/1/1 35/1/1 40/1/1
f 46/1/1 35/1/1 45/1/1
f 47/2/1 46/2/1 45/2/1
f 48/2/1 46/2/1 47/2/1
f 49/2/1 46/2/1 48/2/1
f 50/1/1 49/1/1 48/1/1
f 51/1/1 44/1/1 43/1/1
f 52/1/1 44/1/1 51/1/1
f 53/1/1 49/1/1 50/1/1
f 54/1/1 49/1/1 53/1/1
f 55/1/1 53/1/1 52/1/1
f 56/1/1 53/1/1 55/1/1
f 57/1/2 58/1/2 61/1/2
f 61/1/2 58/1/2 62/1/2
f 59/1/2 60/1/2 63/1/2
f 63/1/2 60/1/2 64/1/2
f 61/2/2 62/2/2 65/2/2
f 65/2/2 62/2/2 66/2/2
f 63/2/2 64/2/2 67/2/2
f 67/2/2 64/2/2 68/2/2
f 65/1/2 66/1/2 69/1/2
f 69/1/2 66/1/2 70/1/2
f 69/2/2 70/2/2 71/2/2
f 71/2/2 70/2/2 72/2/2
f 67/1/2 68/1/2 73/1/2
f 73/1/2 68/1/2 74/1/2
f 71/1/2 72/1/2 75/1/2
f 75/1/2 72/1/2 76/1/2
f 75/2/2 76/2/2 77/2/2
f 73/2/2 74/2/2 78/2/2
f 75/2/2 77/2/2 79/2/2
f 79/2/2 77/2/2 80/2/2
f 78/2/2 74/2/2 81/2/2
f 81/2/2 74/2/2 82/2/2
f 81/1/2 82/1/2 83/1/2
f 83/1/2 82/1/2 84/1/2
f 83/2/2 84/2/2 85/2/2
f 85/2/2 84/2/2 86/2/2
f 79/1/2 80/1/2 87/1/2
f 87/1/2 80/1/2 88/1/2
f 85/1/2 86/1/2 89/1/2
f 87/2/2 88/2/2 90/2/2
f 89/1/2 86/1/2 91/1/2
f 91/1/2 86/1/2 92/1/2
f 87/2/2 90/2/2 93/2/2
f 91/2/2 92/2/2 94/2/2
f 94/2/2 92/2/2 95/2/2
f 95/2/2 92/2/2 96/2/2
f 87/2/2 93/2/2 97/2/2
f 95/1/2 96/1/2 98/1/2
f 87/2/2 97/2/2 99/2/2
f 99/2/2 97/2/2 100/2/2
f 99/1/2 100/1/2 101/1/2
f 101/1/2 100/1/2 102/1/2
f 98/1/2 96/1/2 103/1/2
f 101/2/2 102/2/2 104/2/2
f 104/2/2 102/2/2 105/2/2
f 103/1/2 96/1/2 107/1/2
f 107/1/2 96/1/2 108/1/2
f 105/2/2 106/2/2 109/2/2
f 106/1/2 107/1/2 110/1/2
f 109/2/2 106/2/2 110/2/2
f 110/1/2 107/1/2 111/1/2
f 112/2/2 113/2/2 114/2/2
f 114/2/2 113/2/2 115/2/2
f 114/1/2 115/1/2 116/1/2
f 116/1/2 115/1/2 117/1/2
f 116/2/2 117/2/2 118/2/2
f 117/1/2 115/1/2 119/1/2
f 118/2/2 117/2/2 119/2/2
f 119/1/2 115/1/2 120/1/2
f 118/1/2 119/1/2 121/1/2
f 119/2/2 120/2/2 122/2/2
f 121/1/2 119/1/2 122/1/2
f 122/2/2 120/2/2 123/2/2
f 121/2/2 122/2/2 124/2/2
f 122/1/2 123/1/2 125/1/2
f 124/2/2 122/2/2 125/2/2
f 125/1/2 123/1/2 126/1/2
f 124/1/2 125/1/2 127/1/2
f 125/2/2 126/2/2 127/2/2
f 127/2/2 126/2/2 128/2/2
f 124/1/2 127/1/2 129/1/2
f 127/1/2 128/1/2 129/1/2
f 129/1/2 128/1/2 130/1/2
f 124/1/2 129/1/2 131/1/2
f 129/2/2 130/2/2 132/2/2
f 131/1/2 129/1/2 132/1/2
f 132/2/2 130/2/2 133/2/2
f 131/2/2 132/2/2 134/2/2
f 132/1/2 133/1/2 135/1/2
f 134/2/2 132/2/2 135/2/2
f 135/1/2 133/1/2 136/1/2
f 134/1/2 135/1/2 137/1/2
f 135/2/2 136/2/2 138/2/2
f 137/1/2 135/1/2 138/1/2
f 138/2/2 136/2/2 139/2/2
f 137/2/2 138/2/2 140/2/2
f 138/1/2 139/1/2 141/1/2
f 140/2/2 138/2/2 141/2/2
f 141/1/2 139/1/2 142/1/2
f 140/1/2 141/1/2 143/1/2
f 141/2/2 142/2/2 144/2/2
f 143/1/2 141/1/2 144/1/2
f 144/2/2 142/2/2 145/2/2
f 156/1/3 149/1/3 148/1/3
f 157/1/3 149/1/3 156/1/3
f 158/2/3 150/2/3 149/2/3
f 158/1/3 151/1/3 150/1/3
f 159/1/3 151/1/3 158/1/3
f 160/2/3 152/2/3 151/2/3
f 160/1/3 153/1/3 152/1/3
f 161/2/3 154/2/3 153/2/3
f 161/1/3 153/1/3 160/1/3
f 162/1/3 155/1/3 154/1/3
f 162/2/3 154/2/3 161/2/3
f 163/1/3 155/1/3 162/1/3
f 164/1/3 155/1/3 163/1/3
f 165/1/3 155/1/3 164/1/3
f 166/1/3 147/1/3 146/1/3
f 167/2/3 148/2/3 147/2/3
f 167/1/3 147/1/3 166/1/3
f 168/1/3 156/1/3 148/1/3
f 168/2/3 148/2/3 167/2/3
f 169/2/3 157/2/3 156/2/3
f 169/1/3 156/1/3 168/1/3
f 170/1/3 149/1/3 157/1/3
f 170/2/3 157/2/3 169/2/3
f 171/2/3 159/2/3 158/2/3
f 171/1/3 149/1/3 170/1/3
f 171/2/3 158/2/3 149/2/3
f 172/1/3 151/1/3 159/1/3
f 172/2/3 159/2/3 171/2/3
f 173/2/3 161/2/3 160/2/3
f 173/1/3 151/1/3 172/1/3
f 173/2/3 160/2/3 151/2/3
f 173/2/3 162/2/3 161/2/3
f 173/2/3 163/2/3 162/2/3
f 174/1/3 164/1/3 163/1/3
f 174/2/3 163/2/3 173/2/3
f 175/2/3 165/2/3 164/2/3
f 175/1/3 164/1/3 174/1/3
f 176/2/3 165/2/3 175/2/3
f 180/2/3 178/2/3 177/2/3
f 181/1/3 179/1/3 178/1/3
f 181/2/3 178/2/3 180/2/3
f 182/1/3 179/1/3 181/1/3
f 183/1/3 179/1/3 182/1/3
f 184/1/3 179/1/3 183/1/3
f 185/1/3 179/1/3 184/1/3
f 186/1/3 179/1/3 185/1/3
f 187/1/3 179/1/3 186/1/3
f 188/1/3 179/1/3 187/1/3
f 189/1/3 179/1/3 188/1/3
f 191/1/3 190/1/3 189/1/3
f 192/1/3 190/1/3 191/1/3
f 207/2/3 192/2/3 191/2/3
f 208/2/3 192/2/3 207/2/3
f 209/2/3 194/2/3 193/2/3
f 210/1/3 195/1/3 194/1/3
f 210/2/3 194/2/3 209/2/3
f 210/1/3 196/1/3 195/1/3
f 211/2/3 197/2/3 196/2/3
f 211/1/3 196/1/3 210/1/3
f 212/1/3 198/1/3 197/1/3
f 212/2/3 197/2/3 211/2/3
f 212/1/3 199/1/3 198/1/3
f 213/2/3 200/2/3 199/2/3
f 213/1/3 199/1/3 212/1/3
f 214/1/3 201/1/3 200/1/3
f 214/2/3 200/2/3 213/2/3
f 214/1/3 202/1/3 201/1/3
f 215/2/3 203/2/3 202/2/3
f 215/1/3 202/1/3 214/1/3
f 216/1/3 204/1/3 203/1/3
f 216/2/3 203/2/3 215/2/3
f 217/2/3 206/2/3 205/2/3
f 217/1/3 204/1/3 216/1/3
f 217/2/3 205/2/3 204/2/3
f 218/1/3 207/1/3 206/1/3
f 218/2/3 206/2/3 217/2/3
f 219/1/3 207/1/3 218/1/3
f 220/2/4 221/2/4 227/2/4
f 221/1/4 222/1/4 228/1/4
f 227/2/4 221/2/4 228/2/4
f 228/1/4 222/1/4 229/1/4
f 229/1/4 222/1/4 230/1/4
f 222/2/4 223/2/4 231/2/4
f 230/1/4 222/1/4 231/1/4
f 231/2/4 223/2/4 232/2/4
f 223/1/4 224/1/4 233/1/4
f 232/2/4 223/2/4 233/2/4
f 233/1/4 224/1/4 234/1/4
f 224/2/4 225/2/4 235/2/4
f 234/1/4 224/1/4 235/1/4
f 235/2/4 225/2/4 236/2/4
f 225/1/4 226/1/4 237/1/4
f 236/2/4 225/2/4 237/2/4
f 237/1/4 226/1/4 238/1/4
f 238/1/4 239/1/4 254/1/4
f 254/1/4 239/1/4 255/1/4
f 240/2/4 241/2/4 256/2/4
f 241/1/4 242/1/4 257/1/4
f 256/2/4 241/2/4 257/2/4
f 242/1/4 243/1/4 257/1/4
f 243/2/4 244/2/4 258/2/4
f 257/1/4 243/1/4 258/1/4
f 244/1/4 245/1/4 259/1/4
f 258/2/4 244/2/4 259/2/4
f 245/2/4 246/2/4 260/2/4
f 259/1/4 245/1/4 260/1/4
f 246/2/4 247/2/4 260/2/4
f 247/1/4 248/1/4 261/1/4
f 260/2/4 247/2/4 261/2/4
f 248/2/4 249/2/4 262/2/4
f 261/1/4 248/1/4 262/1/4
f 249/1/4 250/1/4 263/1/4
f 262/2/4 249/2/4 263/2/4
f 250/2/4 251/2/4 264/2/4
f 263/1/4 250/1/4 264/1/4
f 251/2/4 252/2/4 264/2/4
f 252/1/4 253/1/4 265/1/4
f 264/2/4 252/2/4 265/2/4
f 253/2/4 254/2/4 266/2/4
f 265/1/4 253/1/4 266/1/4
f 266/2/4 254/2/4 267/2/4
f 270/1/4 271/1/4 276/1/4
f 271/2/4 272/2/4 277/2/4
f 276/1/4 271/1/4 277/1/4
f 277/2/4 272/2/4 278/2/4
f 272/1/4 273/1/4 279/1/4
f 273/2/4 274/2/4 280/2/4
f 279/1/4 273/1/4 280/1/4
f 274/1/4 275/1/4 281/1/4
f 280/2/4 274/2/4 281/2/4
f 268/1/4 269/1/4 282/1/4
f 269/2/4 270/2/4 283/2/4
f 282/1/4 269/1/4 283/1/4
f 270/1/4 276/1/4 284/1/4
f 283/2/4 270/2/4 284/2/4
f 276/2/4 277/2/4 285/2/4
f 284/1/4 276/1/4 285/1/4
f 277/1/4 278/1/4 286/1/4
f 285/2/4 277/2/4 286/2/4
f 278/2/4 272/2/4 287/2/4
f 286/1/4 278/1/4 287/1/4
f 272/1/4 279/1/4 288/1/4
f 287/2/4 272/2/4 288/2/4
f 279/2/4 280/2/4 289/2/4
f 288/1/4 279/1/4 289/1/4
f 280/1/4 281/1/4 290/1/4
f 289/2/4 280/2/4 290/2/4
f 281/1/4 275/1/4 291/1/4
f 290/1/4 281/1/4 291/1/4
f 295/1/5 293/1/5 292/1/5
f 296/1/5 293/1/5 295/1/5
f 298/2/5 295/2/5 294/2/5
f 298/2/5 297/2/5 296/2/5
f 298/2/5 296/2/5 295/2/5
f 299/2/5 297/2/5 298/2/5
f 300/2/5 297/2/5 299/2/5
f 301/2/5 297/2/5 300/2/5
f 302/1/5 300/1/5 299/1/5
f 303/1/5 300/1/5 302/1/5
f 304/1/6 305/1/6 308/1/6
f 305/2/6 306/2/6 309/2/6
f 308/1/6 305/1/6 309/1/6
f 309/2/6 306/2/6 310/2/6
f 310/1/6 311/1/6 312/1/6
f 312/1/6 311/1/6 313/1/6
f 307/1/6 308/1/6 314/1/6
f 314/1/6 308/1/6 315/1/6
f 312/2/6 313/2/6 316/2/6
f 316/2/6 313/2/6 317/2/6
f 315/1/6 316/1/6 318/1/6
f 318/1/6 316/1/6 319/1/6
f 320/1/6 321/1/6 323/1/6
f 321/2/6 322/2/6 323/2/6
f 323/2/6 322/2/6 324/2/6
f 320/1/6 323/1/6 325/1/6
f 323/1/6 324/1/6 325/1/6
f 325/1/6 324/1/6 326/1/6
