# MagicaVoxel @ Ephtracy

# group
o Decoration - Wooden Plank - Variant6

# material
mtllib Medieval Assets-92-Decoration - Wooden Plank - Variant6.mtl
usemtl palette

# normals
vn -1 0 0
vn 1 0 0
vn 0 0 1
vn 0 0 -1
vn 0 -1 0
vn 0 1 0

# texcoords
vt 0.166016 0.5
vt 0.169922 0.5
vt 0.173828 0.5

# verts
v 31.9 -0.1 -3.1
v 31.9 -0.1 -3.4
v 31.9 -0.1 -3.5
v 31.9 -0.1 -4.3
v 31.9 -0.1 -4.8
v 31.9 -0.1 -5
v 31.9 -0.1 -5.9
v 31.9 -0.1 -6
v 31.9 -0.1 -6.2
v 31.9 -0.1 -6.8
v 31.9 -0.1 -7.1
v 31.9 0 -3.4
v 31.9 0 -3.5
v 31.9 0 -3.8
v 31.9 0 -4.1
v 31.9 0 -4.3
v 31.9 0 -4.8
v 31.9 0 -5
v 31.9 0 -5.1
v 31.9 0 -5.9
v 31.9 0 -6
v 31.9 0 -6.2
v 31.9 0 -6.8
v 31.9 0 -6.9
v 31.9 0.1 -3.1
v 31.9 0.1 -3.8
v 31.9 0.1 -4.1
v 31.9 0.1 -5.1
v 31.9 0.1 -6
v 31.9 0.1 -6.9
v 31.9 0.1 -7.1
v 32.9 -0.1 -3.1
v 32.9 -0.1 -4.7
v 32.9 -0.1 -5
v 32.9 -0.1 -5.8
v 32.9 -0.1 -6.1
v 32.9 -0.1 -7.1
v 32.9 0 -3.1
v 32.9 0 -3.2
v 32.9 0 -3.7
v 32.9 0 -4.3
v 32.9 0 -4.7
v 32.9 0 -5
v 32.9 0 -5.8
v 32.9 0 -5.9
v 32.9 0 -6.1
v 32.9 0.1 -3.1
v 32.9 0.1 -3.2
v 32.9 0.1 -3.7
v 32.9 0.1 -4.3
v 32.9 0.1 -5.8
v 32.9 0.1 -5.9
v 32.9 0.1 -7.1
v 31.9 -0.1 -3.1
v 31.9 0.1 -3.1
v 32.2 0 -3.1
v 32.2 0.1 -3.1
v 32.3 -0.1 -3.1
v 32.3 0 -3.1
v 32.7 -0.1 -3.1
v 32.7 0 -3.1
v 32.9 -0.1 -3.1
v 32.9 0 -3.1
v 32.9 0.1 -3.1
v 31.9 -0.1 -7.1
v 31.9 0.1 -7.1
v 32.4 -0.1 -7.1
v 32.4 0 -7.1
v 32.5 -0.1 -7.1
v 32.5 0 -7.1
v 32.8 -0.1 -7.1
v 32.8 0.1 -7.1
v 32.9 -0.1 -7.1
v 32.9 0.1 -7.1
v 31.9 -0.1 -3.1
v 32.3 -0.1 -3.1
v 32.7 -0.1 -3.1
v 32.9 -0.1 -3.1
v 32.3 -0.1 -3.2
v 32.4 -0.1 -3.2
v 32.5 -0.1 -3.2
v 32.6 -0.1 -3.2
v 32.7 -0.1 -3.2
v 31.9 -0.1 -3.4
v 32 -0.1 -3.4
v 32.5 -0.1 -3.4
v 32.6 -0.1 -3.4
v 31.9 -0.1 -3.5
v 32 -0.1 -3.5
v 32.4 -0.1 -3.5
v 32.5 -0.1 -3.5
v 32.2 -0.1 -3.6
v 32.3 -0.1 -3.6
v 32.6 -0.1 -3.6
v 32.8 -0.1 -3.6
v 32.7 -0.1 -3.7
v 32.8 -0.1 -3.7
v 32.2 -0.1 -3.9
v 32.3 -0.1 -3.9
v 32.7 -0.1 -3.9
v 32.8 -0.1 -3.9
v 32.5 -0.1 -4
v 32.6 -0.1 -4
v 32.7 -0.1 -4
v 32.8 -0.1 -4
v 32.6 -0.1 -4.1
v 32.8 -0.1 -4.1
v 32.1 -0.1 -4.2
v 32.2 -0.1 -4.2
v 31.9 -0.1 -4.3
v 32 -0.1 -4.3
v 32.1 -0.1 -4.4
v 32.2 -0.1 -4.4
v 32.3 -0.1 -4.4
v 32.4 -0.1 -4.4
v 32.3 -0.1 -4.6
v 32.4 -0.1 -4.6
v 32.6 -0.1 -4.6
v 32.7 -0.1 -4.6
v 32.8 -0.1 -4.7
v 32.9 -0.1 -4.7
v 31.9 -0.1 -4.8
v 32 -0.1 -4.8
v 32.1 -0.1 -4.8
v 32.1 -0.1 -4.9
v 32.2 -0.1 -4.9
v 32.3 -0.1 -4.9
v 32.5 -0.1 -4.9
v 32.6 -0.1 -4.9
v 31.9 -0.1 -5
v 32.1 -0.1 -5
v 32.3 -0.1 -5
v 32.4 -0.1 -5
v 32.5 -0.1 -5
v 32.6 -0.1 -5
v 32.8 -0.1 -5
v 32.9 -0.1 -5
v 32.1 -0.1 -5.2
v 32.2 -0.1 -5.2
v 32.6 -0.1 -5.2
v 32.7 -0.1 -5.2
v 32.4 -0.1 -5.3
v 32.5 -0.1 -5.3
v 32.3 -0.1 -5.4
v 32.4 -0.1 -5.4
v 32.4 -0.1 -5.6
v 32.5 -0.1 -5.6
v 32.2 -0.1 -5.7
v 32.3 -0.1 -5.7
v 32.6 -0.1 -5.7
v 32.7 -0.1 -5.7
v 32.7 -0.1 -5.8
v 32.8 -0.1 -5.8
v 32.9 -0.1 -5.8
v 31.9 -0.1 -5.9
v 32 -0.1 -5.9
v 32.2 -0.1 -5.9
v 32.3 -0.1 -5.9
v 31.9 -0.1 -6
v 32 -0.1 -6
v 32.4 -0.1 -6
v 32.5 -0.1 -6
v 32.6 -0.1 -6
v 32.7 -0.1 -6
v 32.8 -0.1 -6
v 32.2 -0.1 -6.1
v 32.3 -0.1 -6.1
v 32.5 -0.1 -6.1
v 32.6 -0.1 -6.1
v 32.8 -0.1 -6.1
v 32.9 -0.1 -6.1
v 31.9 -0.1 -6.2
v 32 -0.1 -6.2
v 32.4 -0.1 -6.2
v 32.6 -0.1 -6.2
v 32.1 -0.1 -6.3
v 32.2 -0.1 -6.3
v 32.3 -0.1 -6.3
v 32.4 -0.1 -6.3
v 32.1 -0.1 -6.4
v 32.2 -0.1 -6.4
v 32.5 -0.1 -6.4
v 32.6 -0.1 -6.4
v 32.1 -0.1 -6.5
v 32.2 -0.1 -6.5
v 32.3 -0.1 -6.5
v 32.5 -0.1 -6.5
v 32.6 -0.1 -6.6
v 32.7 -0.1 -6.6
v 32.1 -0.1 -6.7
v 32.2 -0.1 -6.7
v 31.9 -0.1 -6.8
v 32 -0.1 -6.8
v 32.1 -0.1 -6.8
v 32.2 -0.1 -6.8
v 32.3 -0.1 -6.8
v 32.6 -0.1 -6.8
v 32.7 -0.1 -6.8
v 32 -0.1 -6.9
v 32.2 -0.1 -6.9
v 32.5 -0.1 -6.9
v 32.6 -0.1 -6.9
v 32.4 -0.1 -7
v 32.5 -0.1 -7
v 32.7 -0.1 -7
v 32.8 -0.1 -7
v 31.9 -0.1 -7.1
v 32.4 -0.1 -7.1
v 32.5 -0.1 -7.1
v 32.8 -0.1 -7.1
v 32.9 -0.1 -7.1
v 31.9 0.1 -3.1
v 32.2 0.1 -3.1
v 32.9 0.1 -3.1
v 32.1 0.1 -3.2
v 32.2 0.1 -3.2
v 32.3 0.1 -3.2
v 32.7 0.1 -3.2
v 32.8 0.1 -3.2
v 32.9 0.1 -3.2
v 32.2 0.1 -3.3
v 32.3 0.1 -3.3
v 32.6 0.1 -3.3
v 32.7 0.1 -3.3
v 32.1 0.1 -3.4
v 32.3 0.1 -3.4
v 32.5 0.1 -3.4
v 32.6 0.1 -3.4
v 32.3 0.1 -3.5
v 32.4 0.1 -3.5
v 32.5 0.1 -3.6
v 32.6 0.1 -3.6
v 32.8 0.1 -3.7
v 32.9 0.1 -3.7
v 31.9 0.1 -3.8
v 32 0.1 -3.8
v 32.6 0.1 -3.8
v 32.7 0.1 -3.8
v 32.8 0.1 -3.8
v 32.2 0.1 -3.9
v 32.3 0.1 -3.9
v 32.7 0.1 -3.9
v 32.8 0.1 -3.9
v 32.4 0.1 -4
v 32.8 0.1 -4
v 31.9 0.1 -4.1
v 32 0.1 -4.1
v 32.6 0.1 -4.2
v 32.7 0.1 -4.2
v 32.1 0.1 -4.3
v 32.2 0.1 -4.3
v 32.8 0.1 -4.3
v 32.9 0.1 -4.3
v 32.1 0.1 -4.4
v 32.3 0.1 -4.4
v 32.1 0.1 -4.6
v 32.2 0.1 -4.6
v 32.6 0.1 -4.6
v 32.7 0.1 -4.6
v 32.8 0.1 -4.6
v 32 0.1 -4.7
v 32.1 0.1 -4.7
v 32.5 0.1 -4.7
v 32.7 0.1 -4.7
v 32.1 0.1 -4.8
v 32.2 0.1 -4.8
v 32.3 0.1 -4.9
v 32.4 0.1 -4.9
v 32.5 0.1 -4.9
v 32.6 0.1 -4.9
v 32 0.1 -5
v 32.1 0.1 -5
v 32.3 0.1 -5
v 32.4 0.1 -5
v 32.6 0.1 -5
v 32.7 0.1 -5
v 31.9 0.1 -5.1
v 32 0.1 -5.1
v 32.7 0.1 -5.2
v 32.8 0.1 -5.2
v 32.3 0.1 -5.3
v 32.4 0.1 -5.3
v 32.2 0.1 -5.4
v 32.3 0.1 -5.4
v 32.1 0.1 -5.5
v 32.2 0.1 -5.5
v 32.5 0.1 -5.5
v 32.6 0.1 -5.5
v 32.3 0.1 -5.6
v 32.4 0.1 -5.6
v 32.6 0.1 -5.6
v 32.7 0.1 -5.6
v 32.1 0.1 -5.7
v 32.2 0.1 -5.7
v 32.6 0.1 -5.7
v 32.7 0.1 -5.7
v 32.8 0.1 -5.7
v 32.1 0.1 -5.8
v 32.2 0.1 -5.8
v 32.5 0.1 -5.8
v 32.7 0.1 -5.8
v 32.8 0.1 -5.8
v 32.9 0.1 -5.8
v 32.7 0.1 -5.9
v 32.8 0.1 -5.9
v 32.9 0.1 -5.9
v 31.9 0.1 -6
v 32 0.1 -6
v 32.2 0.1 -6
v 32.3 0.1 -6
v 32.4 0.1 -6
v 32.6 0.1 -6
v 32.7 0.1 -6
v 32.3 0.1 -6.1
v 32.4 0.1 -6.1
v 32.6 0.1 -6.1
v 32.7 0.1 -6.1
v 32.3 0.1 -6.2
v 32.4 0.1 -6.2
v 32.7 0.1 -6.2
v 32.8 0.1 -6.2
v 32.6 0.1 -6.3
v 32.7 0.1 -6.3
v 32 0.1 -6.4
v 32.1 0.1 -6.4
v 32.2 0.1 -6.4
v 32.1 0.1 -6.5
v 32.2 0.1 -6.5
v 32.3 0.1 -6.5
v 32.4 0.1 -6.5
v 32.6 0.1 -6.5
v 32.7 0.1 -6.5
v 32 0.1 -6.6
v 32.2 0.1 -6.6
v 32.4 0.1 -6.6
v 32.6 0.1 -6.6
v 32.2 0.1 -6.7
v 32.3 0.1 -6.7
v 31.9 0.1 -6.9
v 32 0.1 -6.9
v 32.2 0.1 -6.9
v 32.3 0.1 -6.9
v 32 0.1 -7
v 32.2 0.1 -7
v 32.3 0.1 -7
v 32.4 0.1 -7
v 32.7 0.1 -7
v 32.8 0.1 -7
v 31.9 0.1 -7.1
v 32.8 0.1 -7.1
v 32.9 0.1 -7.1

# faces
f 12/3/1 2/3/1 1/3/1
f 12/2/1 3/2/1 2/2/1
f 13/3/1 4/3/1 3/3/1
f 13/2/1 3/2/1 12/2/1
f 14/3/1 4/3/1 13/3/1
f 15/3/1 4/3/1 14/3/1
f 16/2/1 5/2/1 4/2/1
f 16/3/1 4/3/1 15/3/1
f 17/1/1 6/1/1 5/1/1
f 17/2/1 5/2/1 16/2/1
f 18/3/1 7/3/1 6/3/1
f 18/1/1 6/1/1 17/1/1
f 19/3/1 7/3/1 18/3/1
f 20/2/1 8/2/1 7/2/1
f 20/3/1 7/3/1 19/3/1
f 21/1/1 9/1/1 8/1/1
f 21/2/1 8/2/1 20/2/1
f 22/3/1 10/3/1 9/3/1
f 22/1/1 9/1/1 21/1/1
f 23/2/1 11/2/1 10/2/1
f 23/3/1 10/3/1 22/3/1
f 24/2/1 11/2/1 23/2/1
f 25/3/1 12/3/1 1/3/1
f 25/3/1 13/3/1 12/3/1
f 25/3/1 14/3/1 13/3/1
f 26/1/1 15/1/1 14/1/1
f 26/3/1 14/3/1 25/3/1
f 27/3/1 16/3/1 15/3/1
f 27/1/1 15/1/1 26/1/1
f 27/3/1 17/3/1 16/3/1
f 27/3/1 18/3/1 17/3/1
f 27/3/1 19/3/1 18/3/1
f 28/1/1 21/1/1 20/1/1
f 28/3/1 19/3/1 27/3/1
f 28/1/1 20/1/1 19/1/1
f 29/3/1 22/3/1 21/3/1
f 29/1/1 21/1/1 28/1/1
f 29/3/1 23/3/1 22/3/1
f 29/3/1 24/3/1 23/3/1
f 30/2/1 11/2/1 24/2/1
f 30/3/1 24/3/1 29/3/1
f 31/2/1 11/2/1 30/2/1
f 32/3/2 33/3/2 38/3/2
f 38/3/2 33/3/2 39/3/2
f 39/3/2 33/3/2 40/3/2
f 40/3/2 33/3/2 41/3/2
f 33/1/2 34/1/2 42/1/2
f 41/3/2 33/3/2 42/3/2
f 34/3/2 35/3/2 43/3/2
f 42/1/2 34/1/2 43/1/2
f 35/1/2 36/1/2 44/1/2
f 43/3/2 35/3/2 44/3/2
f 44/1/2 36/1/2 45/1/2
f 36/3/2 37/3/2 46/3/2
f 45/1/2 36/1/2 46/1/2
f 38/2/2 39/2/2 47/2/2
f 39/3/2 40/3/2 48/3/2
f 47/2/2 39/2/2 48/2/2
f 40/1/2 41/1/2 49/1/2
f 48/3/2 40/3/2 49/3/2
f 41/3/2 42/3/2 50/3/2
f 49/1/2 41/1/2 50/1/2
f 42/3/2 43/3/2 50/3/2
f 43/3/2 44/3/2 50/3/2
f 44/2/2 45/2/2 51/2/2
f 50/3/2 44/3/2 51/3/2
f 45/3/2 46/3/2 52/3/2
f 51/2/2 45/2/2 52/2/2
f 46/3/2 37/3/2 53/3/2
f 52/3/2 46/3/2 53/3/2
f 56/3/3 55/3/3 54/3/3
f 57/3/3 55/3/3 56/3/3
f 58/3/3 56/3/3 54/3/3
f 59/2/3 57/2/3 56/2/3
f 59/3/3 56/3/3 58/3/3
f 60/2/3 59/2/3 58/2/3
f 61/2/3 57/2/3 59/2/3
f 61/2/3 59/2/3 60/2/3
f 62/3/3 61/3/3 60/3/3
f 63/2/3 57/2/3 61/2/3
f 63/3/3 61/3/3 62/3/3
f 64/2/3 57/2/3 63/2/3
f 65/2/4 66/2/4 67/2/4
f 67/2/4 66/2/4 68/2/4
f 67/1/4 68/1/4 69/1/4
f 68/2/4 66/2/4 70/2/4
f 69/1/4 68/1/4 70/1/4
f 69/2/4 70/2/4 71/2/4
f 70/2/4 66/2/4 72/2/4
f 71/2/4 70/2/4 72/2/4
f 71/3/4 72/3/4 73/3/4
f 73/3/4 72/3/4 74/3/4
f 79/3/5 76/3/5 75/3/5
f 79/2/5 77/2/5 76/2/5
f 80/2/5 77/2/5 79/2/5
f 81/2/5 77/2/5 80/2/5
f 82/2/5 77/2/5 81/2/5
f 83/3/5 78/3/5 77/3/5
f 83/2/5 77/2/5 82/2/5
f 84/3/5 79/3/5 75/3/5
f 84/3/5 80/3/5 79/3/5
f 85/3/5 80/3/5 84/3/5
f 86/1/5 82/1/5 81/1/5
f 86/2/5 81/2/5 80/2/5
f 87/3/5 83/3/5 82/3/5
f 87/1/5 82/1/5 86/1/5
f 88/2/5 85/2/5 84/2/5
f 89/3/5 80/3/5 85/3/5
f 89/2/5 85/2/5 88/2/5
f 90/2/5 86/2/5 80/2/5
f 90/3/5 80/3/5 89/3/5
f 90/2/5 87/2/5 86/2/5
f 91/2/5 87/2/5 90/2/5
f 92/3/5 89/3/5 88/3/5
f 92/3/5 90/3/5 89/3/5
f 92/3/5 91/3/5 90/3/5
f 93/3/5 91/3/5 92/3/5
f 94/2/5 87/2/5 91/2/5
f 94/3/5 83/3/5 87/3/5
f 95/3/5 78/3/5 83/3/5
f 95/3/5 83/3/5 94/3/5
f 96/1/5 95/1/5 94/1/5
f 97/3/5 78/3/5 95/3/5
f 97/1/5 95/1/5 96/1/5
f 98/1/5 93/1/5 92/1/5
f 98/3/5 92/3/5 88/3/5
f 99/3/5 91/3/5 93/3/5
f 99/1/5 93/1/5 98/1/5
f 100/3/5 97/3/5 96/3/5
f 100/1/5 96/1/5 94/1/5
f 101/3/5 78/3/5 97/3/5
f 101/3/5 97/3/5 100/3/5
f 102/2/5 94/2/5 91/2/5
f 102/3/5 91/3/5 99/3/5
f 102/3/5 99/3/5 98/3/5
f 103/1/5 100/1/5 94/1/5
f 103/2/5 94/2/5 102/2/5
f 104/2/5 101/2/5 100/2/5
f 104/1/5 100/1/5 103/1/5
f 105/3/5 78/3/5 101/3/5
f 105/2/5 101/2/5 104/2/5
f 106/1/5 104/1/5 103/1/5
f 106/3/5 103/3/5 102/3/5
f 106/1/5 105/1/5 104/1/5
f 107/3/5 78/3/5 105/3/5
f 107/1/5 105/1/5 106/1/5
f 108/3/5 106/3/5 102/3/5
f 108/3/5 98/3/5 88/3/5
f 108/3/5 107/3/5 106/3/5
f 108/3/5 102/3/5 98/3/5
f 109/3/5 107/3/5 108/3/5
f 110/3/5 108/3/5 88/3/5
f 111/3/5 108/3/5 110/3/5
f 112/1/5 109/1/5 108/1/5
f 112/3/5 108/3/5 111/3/5
f 113/3/5 107/3/5 109/3/5
f 113/1/5 109/1/5 112/1/5
f 114/3/5 107/3/5 113/3/5
f 115/3/5 107/3/5 114/3/5
f 116/3/5 113/3/5 112/3/5
f 116/3/5 114/3/5 113/3/5
f 116/1/5 115/1/5 114/1/5
f 117/3/5 107/3/5 115/3/5
f 117/1/5 115/1/5 116/1/5
f 118/3/5 107/3/5 117/3/5
f 119/3/5 107/3/5 118/3/5
f 120/3/5 78/3/5 107/3/5
f 120/3/5 107/3/5 119/3/5
f 121/3/5 78/3/5 120/3/5
f 122/2/5 111/2/5 110/2/5
f 123/3/5 112/3/5 111/3/5
f 123/2/5 111/2/5 122/2/5
f 123/3/5 116/3/5 112/3/5
f 123/3/5 117/3/5 116/3/5
f 123/3/5 118/3/5 117/3/5
f 124/3/5 118/3/5 123/3/5
f 125/1/5 123/1/5 122/1/5
f 125/3/5 118/3/5 124/3/5
f 125/1/5 124/1/5 123/1/5
f 126/3/5 118/3/5 125/3/5
f 127/3/5 118/3/5 126/3/5
f 128/3/5 118/3/5 127/3/5
f 129/1/5 119/1/5 118/1/5
f 129/3/5 118/3/5 128/3/5
f 130/1/5 125/1/5 122/1/5
f 130/1/5 126/1/5 125/1/5
f 131/1/5 126/1/5 130/1/5
f 132/3/5 128/3/5 127/3/5
f 132/2/5 127/2/5 126/2/5
f 133/3/5 128/3/5 132/3/5
f 134/2/5 129/2/5 128/2/5
f 134/3/5 128/3/5 133/3/5
f 135/1/5 119/1/5 129/1/5
f 135/2/5 129/2/5 134/2/5
f 136/1/5 121/1/5 120/1/5
f 136/3/5 120/3/5 119/3/5
f 137/1/5 121/1/5 136/1/5
f 138/1/5 126/1/5 131/1/5
f 138/3/5 131/3/5 130/3/5
f 139/2/5 133/2/5 132/2/5
f 139/1/5 126/1/5 138/1/5
f 139/2/5 132/2/5 126/2/5
f 140/1/5 119/1/5 135/1/5
f 140/3/5 135/3/5 134/3/5
f 140/3/5 134/3/5 133/3/5
f 141/3/5 136/3/5 119/3/5
f 141/1/5 119/1/5 140/1/5
f 141/3/5 137/3/5 136/3/5
f 142/2/5 133/2/5 139/2/5
f 142/3/5 140/3/5 133/3/5
f 142/3/5 141/3/5 140/3/5
f 143/3/5 141/3/5 142/3/5
f 144/2/5 142/2/5 139/2/5
f 145/1/5 143/1/5 142/1/5
f 145/2/5 142/2/5 144/2/5
f 146/1/5 145/1/5 144/1/5
f 146/1/5 143/1/5 145/1/5
f 147/3/5 141/3/5 143/3/5
f 147/1/5 143/1/5 146/1/5
f 148/3/5 139/3/5 138/3/5
f 148/2/5 144/2/5 139/2/5
f 149/1/5 146/1/5 144/1/5
f 149/2/5 144/2/5 148/2/5
f 150/3/5 141/3/5 147/3/5
f 150/3/5 147/3/5 146/3/5
f 151/3/5 137/3/5 141/3/5
f 151/3/5 141/3/5 150/3/5
f 152/2/5 151/2/5 150/2/5
f 152/3/5 137/3/5 151/3/5
f 153/3/5 137/3/5 152/3/5
f 154/3/5 137/3/5 153/3/5
f 155/3/5 138/3/5 130/3/5
f 155/3/5 148/3/5 138/3/5
f 155/3/5 149/3/5 148/3/5
f 156/3/5 149/3/5 155/3/5
f 157/3/5 149/3/5 156/3/5
f 158/1/5 146/1/5 149/1/5
f 158/3/5 149/3/5 157/3/5
f 159/2/5 156/2/5 155/2/5
f 160/3/5 157/3/5 156/3/5
f 160/2/5 156/2/5 159/2/5
f 161/3/5 150/3/5 146/3/5
f 161/1/5 146/1/5 158/1/5
f 162/3/5 150/3/5 161/3/5
f 163/2/5 153/2/5 152/2/5
f 163/3/5 150/3/5 162/3/5
f 163/2/5 152/2/5 150/2/5
f 164/2/5 153/2/5 163/2/5
f 165/1/5 154/1/5 153/1/5
f 165/2/5 153/2/5 164/2/5
f 166/3/5 157/3/5 160/3/5
f 166/2/5 158/2/5 157/2/5
f 167/1/5 162/1/5 161/1/5
f 167/2/5 158/2/5 166/2/5
f 167/1/5 161/1/5 158/1/5
f 168/2/5 164/2/5 163/2/5
f 168/1/5 162/1/5 167/1/5
f 168/2/5 163/2/5 162/2/5
f 169/2/5 164/2/5 168/2/5
f 170/1/5 154/1/5 165/1/5
f 170/3/5 165/3/5 164/3/5
f 171/1/5 154/1/5 170/1/5
f 172/1/5 160/1/5 159/1/5
f 173/3/5 166/3/5 160/3/5
f 173/1/5 160/1/5 172/1/5
f 174/1/5 167/1/5 166/1/5
f 174/1/5 169/1/5 168/1/5
f 174/1/5 168/1/5 167/1/5
f 175/2/5 164/2/5 169/2/5
f 175/1/5 169/1/5 174/1/5
f 176/3/5 166/3/5 173/3/5
f 176/3/5 173/3/5 172/3/5
f 177/1/5 174/1/5 166/1/5
f 177/3/5 166/3/5 176/3/5
f 178/1/5 174/1/5 177/1/5
f 179/3/5 175/3/5 174/3/5
f 179/1/5 174/1/5 178/1/5
f 180/3/5 176/3/5 172/3/5
f 180/2/5 177/2/5 176/2/5
f 181/1/5 178/1/5 177/1/5
f 181/2/5 177/2/5 180/2/5
f 182/3/5 175/3/5 179/3/5
f 182/3/5 179/3/5 178/3/5
f 183/2/5 164/2/5 175/2/5
f 183/3/5 175/3/5 182/3/5
f 184/3/5 180/3/5 172/3/5
f 184/1/5 181/1/5 180/1/5
f 185/1/5 178/1/5 181/1/5
f 185/1/5 181/1/5 184/1/5
f 186/3/5 182/3/5 178/3/5
f 186/1/5 178/1/5 185/1/5
f 187/1/5 183/1/5 182/1/5
f 187/3/5 182/3/5 186/3/5
f 188/2/5 164/2/5 183/2/5
f 188/1/5 183/1/5 187/1/5
f 189/3/5 171/3/5 170/3/5
f 189/2/5 164/2/5 188/2/5
f 189/3/5 170/3/5 164/3/5
f 190/3/5 184/3/5 172/3/5
f 190/2/5 185/2/5 184/2/5
f 191/1/5 186/1/5 185/1/5
f 191/2/5 185/2/5 190/2/5
f 192/3/5 190/3/5 172/3/5
f 193/3/5 190/3/5 192/3/5
f 194/1/5 191/1/5 190/1/5
f 194/3/5 190/3/5 193/3/5
f 195/1/5 186/1/5 191/1/5
f 195/1/5 191/1/5 194/1/5
f 196/2/5 187/2/5 186/2/5
f 196/1/5 186/1/5 195/1/5
f 197/3/5 189/3/5 188/3/5
f 197/1/5 188/1/5 187/1/5
f 198/3/5 171/3/5 189/3/5
f 198/3/5 189/3/5 197/3/5
f 199/3/5 195/3/5 194/3/5
f 199/3/5 194/3/5 193/3/5
f 199/2/5 193/2/5 192/2/5
f 200/2/5 196/2/5 195/2/5
f 200/3/5 195/3/5 199/3/5
f 201/1/5 197/1/5 187/1/5
f 201/2/5 196/2/5 200/2/5
f 201/2/5 187/2/5 196/2/5
f 202/2/5 198/2/5 197/2/5
f 202/1/5 197/1/5 201/1/5
f 203/2/5 200/2/5 199/2/5
f 203/2/5 201/2/5 200/2/5
f 203/2/5 202/2/5 201/2/5
f 204/2/5 202/2/5 203/2/5
f 205/2/5 198/2/5 202/2/5
f 205/2/5 202/2/5 204/2/5
f 205/3/5 171/3/5 198/3/5
f 206/3/5 171/3/5 205/3/5
f 207/2/5 203/2/5 199/2/5
f 207/2/5 199/2/5 192/2/5
f 208/1/5 204/1/5 203/1/5
f 208/2/5 203/2/5 207/2/5
f 209/2/5 206/2/5 205/2/5
f 209/1/5 204/1/5 208/1/5
f 209/2/5 205/2/5 204/2/5
f 210/3/5 171/3/5 206/3/5
f 210/2/5 206/2/5 209/2/5
f 211/3/5 171/3/5 210/3/5
f 212/3/6 213/3/6 215/3/6
f 213/2/6 214/2/6 216/2/6
f 215/3/6 213/3/6 216/3/6
f 216/2/6 214/2/6 217/2/6
f 217/2/6 214/2/6 218/2/6
f 218/2/6 214/2/6 219/2/6
f 219/2/6 214/2/6 220/2/6
f 215/1/6 216/1/6 221/1/6
f 216/3/6 217/3/6 221/3/6
f 217/2/6 218/2/6 222/2/6
f 221/3/6 217/3/6 222/3/6
f 222/2/6 218/2/6 223/2/6
f 218/1/6 219/1/6 224/1/6
f 223/2/6 218/2/6 224/2/6
f 212/3/6 215/3/6 225/3/6
f 215/1/6 221/1/6 225/1/6
f 221/1/6 222/1/6 225/1/6
f 222/2/6 223/2/6 226/2/6
f 225/1/6 222/1/6 226/1/6
f 226/2/6 223/2/6 227/2/6
f 223/3/6 224/3/6 228/3/6
f 227/2/6 223/2/6 228/2/6
f 226/2/6 227/2/6 229/2/6
f 225/3/6 226/3/6 229/3/6
f 229/2/6 227/2/6 230/2/6
f 227/3/6 228/3/6 231/3/6
f 230/2/6 227/2/6 231/2/6
f 228/3/6 224/3/6 232/3/6
f 231/3/6 228/3/6 232/3/6
f 224/1/6 219/1/6 233/1/6
f 219/3/6 220/3/6 233/3/6
f 233/3/6 220/3/6 234/3/6
f 212/3/6 225/3/6 235/3/6
f 229/3/6 230/3/6 235/3/6
f 225/3/6 229/3/6 235/3/6
f 235/3/6 230/3/6 236/3/6
f 232/3/6 224/3/6 237/3/6
f 231/2/6 232/2/6 237/2/6
f 233/1/6 234/1/6 238/1/6
f 237/3/6 224/3/6 238/3/6
f 224/1/6 233/1/6 238/1/6
f 238/1/6 234/1/6 239/1/6
f 236/3/6 230/3/6 240/3/6
f 240/3/6 230/3/6 241/3/6
f 237/2/6 238/2/6 242/2/6
f 238/3/6 239/3/6 242/3/6
f 239/1/6 234/1/6 243/1/6
f 242/3/6 239/3/6 243/3/6
f 237/2/6 242/2/6 244/2/6
f 230/2/6 231/2/6 244/2/6
f 242/2/6 243/2/6 244/2/6
f 231/2/6 237/2/6 244/2/6
f 241/3/6 230/3/6 244/3/6
f 243/1/6 234/1/6 245/1/6
f 244/2/6 243/2/6 245/2/6
f 235/1/6 236/1/6 246/1/6
f 236/3/6 240/3/6 247/3/6
f 246/1/6 236/1/6 247/1/6
f 244/3/6 245/3/6 248/3/6
f 248/3/6 245/3/6 249/3/6
f 247/3/6 240/3/6 250/3/6
f 246/3/6 247/3/6 250/3/6
f 240/1/6 241/1/6 251/1/6
f 250/3/6 240/3/6 251/3/6
f 245/1/6 234/1/6 252/1/6
f 249/3/6 245/3/6 252/3/6
f 252/1/6 234/1/6 253/1/6
f 246/3/6 250/3/6 254/3/6
f 250/1/6 251/1/6 254/1/6
f 241/3/6 244/3/6 255/3/6
f 254/1/6 251/1/6 255/1/6
f 251/1/6 241/1/6 255/1/6
f 244/3/6 248/3/6 255/3/6
f 246/3/6 254/3/6 256/3/6
f 254/3/6 255/3/6 256/3/6
f 256/3/6 255/3/6 257/3/6
f 255/3/6 248/3/6 258/3/6
f 257/3/6 255/3/6 258/3/6
f 248/1/6 249/1/6 258/1/6
f 249/3/6 252/3/6 259/3/6
f 258/1/6 249/1/6 259/1/6
f 252/3/6 253/3/6 259/3/6
f 259/3/6 253/3/6 260/3/6
f 246/3/6 256/3/6 261/3/6
f 256/1/6 257/1/6 262/1/6
f 261/3/6 256/3/6 262/3/6
f 257/3/6 258/3/6 263/3/6
f 258/3/6 259/3/6 263/3/6
f 259/2/6 260/2/6 264/2/6
f 263/3/6 259/3/6 264/3/6
f 262/1/6 257/1/6 265/1/6
f 261/1/6 262/1/6 265/1/6
f 257/3/6 263/3/6 266/3/6
f 265/1/6 257/1/6 266/1/6
f 265/3/6 266/3/6 267/3/6
f 266/3/6 263/3/6 267/3/6
f 267/3/6 263/3/6 268/3/6
f 263/2/6 264/2/6 269/2/6
f 268/3/6 263/3/6 269/3/6
f 269/2/6 264/2/6 270/2/6
f 246/3/6 261/3/6 271/3/6
f 261/1/6 265/1/6 271/1/6
f 265/3/6 267/3/6 272/3/6
f 271/1/6 265/1/6 272/1/6
f 267/2/6 268/2/6 273/2/6
f 272/3/6 267/3/6 273/3/6
f 269/3/6 270/3/6 274/3/6
f 273/2/6 268/2/6 274/2/6
f 268/3/6 269/3/6 274/3/6
f 270/2/6 264/2/6 275/2/6
f 274/3/6 270/3/6 275/3/6
f 264/2/6 260/2/6 276/2/6
f 275/2/6 264/2/6 276/2/6
f 273/3/6 274/3/6 277/3/6
f 274/3/6 275/3/6 277/3/6
f 271/3/6 272/3/6 277/3/6
f 246/3/6 271/3/6 277/3/6
f 272/3/6 273/3/6 277/3/6
f 277/3/6 275/3/6 278/3/6
f 276/2/6 260/2/6 279/2/6
f 275/1/6 276/1/6 279/1/6
f 260/3/6 253/3/6 280/3/6
f 279/2/6 260/2/6 280/2/6
f 278/3/6 275/3/6 281/3/6
f 281/3/6 275/3/6 282/3/6
f 278/3/6 281/3/6 283/3/6
f 281/2/6 282/2/6 284/2/6
f 283/3/6 281/3/6 284/3/6
f 278/3/6 283/3/6 285/3/6
f 283/2/6 284/2/6 286/2/6
f 285/3/6 283/3/6 286/3/6
f 282/3/6 275/3/6 287/3/6
f 275/1/6 279/1/6 288/1/6
f 287/3/6 275/3/6 288/3/6
f 286/2/6 284/2/6 289/2/6
f 284/2/6 282/2/6 289/2/6
f 285/2/6 286/2/6 289/2/6
f 282/3/6 287/3/6 290/3/6
f 289/2/6 282/2/6 290/2/6
f 288/1/6 279/1/6 291/1/6
f 287/1/6 288/1/6 291/1/6
f 279/3/6 280/3/6 292/3/6
f 291/1/6 279/1/6 292/1/6
f 285/2/6 289/2/6 293/2/6
f 278/3/6 285/3/6 293/3/6
f 293/2/6 289/2/6 294/2/6
f 287/1/6 291/1/6 295/1/6
f 291/3/6 292/3/6 295/3/6
f 292/3/6 280/3/6 296/3/6
f 295/3/6 292/3/6 296/3/6
f 280/3/6 253/3/6 297/3/6
f 296/3/6 280/3/6 297/3/6
f 293/3/6 294/3/6 298/3/6
f 278/3/6 293/3/6 298/3/6
f 294/2/6 289/2/6 299/2/6
f 298/3/6 294/3/6 299/3/6
f 295/1/6 296/1/6 300/1/6
f 287/1/6 295/1/6 300/1/6
f 290/3/6 287/3/6 300/3/6
f 289/3/6 290/3/6 300/3/6
f 296/2/6 297/2/6 301/2/6
f 300/1/6 296/1/6 301/1/6
f 297/3/6 253/3/6 302/3/6
f 301/2/6 297/2/6 302/2/6
f 302/3/6 253/3/6 303/3/6
f 300/3/6 301/3/6 304/3/6
f 301/2/6 302/2/6 304/2/6
f 302/2/6 303/2/6 304/2/6
f 304/2/6 303/2/6 305/2/6
f 305/2/6 303/2/6 306/2/6
f 277/1/6 278/1/6 307/1/6
f 278/3/6 298/3/6 308/3/6
f 307/1/6 278/1/6 308/1/6
f 299/2/6 289/2/6 309/2/6
f 298/1/6 299/1/6 309/1/6
f 289/3/6 300/3/6 310/3/6
f 309/2/6 289/2/6 310/2/6
f 300/3/6 304/3/6 310/3/6
f 310/3/6 304/3/6 311/3/6
f 311/3/6 304/3/6 312/3/6
f 304/1/6 305/1/6 313/1/6
f 312/3/6 304/3/6 313/3/6
f 309/3/6 310/3/6 314/3/6
f 310/2/6 311/2/6 314/2/6
f 311/3/6 312/3/6 315/3/6
f 314/2/6 311/2/6 315/2/6
f 312/2/6 313/2/6 316/2/6
f 315/3/6 312/3/6 316/3/6
f 313/1/6 305/1/6 317/1/6
f 316/2/6 313/2/6 317/2/6
f 309/3/6 314/3/6 318/3/6
f 314/1/6 315/1/6 318/1/6
f 315/3/6 316/3/6 319/3/6
f 318/1/6 315/1/6 319/1/6
f 317/1/6 305/1/6 320/1/6
f 316/1/6 317/1/6 320/1/6
f 305/3/6 306/3/6 321/3/6
f 320/1/6 305/1/6 321/1/6
f 316/1/6 320/1/6 322/1/6
f 319/3/6 316/3/6 322/3/6
f 318/3/6 319/3/6 322/3/6
f 320/3/6 321/3/6 323/3/6
f 322/1/6 320/1/6 323/1/6
f 308/3/6 298/3/6 324/3/6
f 307/3/6 308/3/6 324/3/6
f 298/1/6 309/1/6 325/1/6
f 324/3/6 298/3/6 325/3/6
f 322/3/6 323/3/6 326/3/6
f 325/1/6 309/1/6 326/1/6
f 318/3/6 322/3/6 326/3/6
f 309/3/6 318/3/6 326/3/6
f 324/1/6 325/1/6 327/1/6
f 325/3/6 326/3/6 327/3/6
f 326/3/6 323/3/6 328/3/6
f 327/3/6 326/3/6 328/3/6
f 328/3/6 323/3/6 329/3/6
f 329/3/6 323/3/6 330/3/6
f 330/3/6 323/3/6 331/3/6
f 323/3/6 321/3/6 332/3/6
f 331/3/6 323/3/6 332/3/6
f 324/1/6 327/1/6 333/1/6
f 307/3/6 324/3/6 333/3/6
f 327/1/6 328/1/6 333/1/6
f 328/2/6 329/2/6 334/2/6
f 333/1/6 328/1/6 334/1/6
f 330/3/6 331/3/6 335/3/6
f 329/1/6 330/1/6 335/1/6
f 331/2/6 332/2/6 336/2/6
f 335/3/6 331/3/6 336/3/6
f 334/2/6 329/2/6 337/2/6
f 333/3/6 334/3/6 337/3/6
f 329/1/6 335/1/6 338/1/6
f 337/2/6 329/2/6 338/2/6
f 333/3/6 337/3/6 339/3/6
f 307/3/6 333/3/6 339/3/6
f 337/3/6 338/3/6 339/3/6
f 339/3/6 338/3/6 340/3/6
f 340/3/6 338/3/6 341/3/6
f 338/1/6 335/1/6 342/1/6
f 341/3/6 338/3/6 342/3/6
f 340/3/6 341/3/6 343/3/6
f 339/2/6 340/2/6 343/2/6
f 341/2/6 342/2/6 344/2/6
f 343/3/6 341/3/6 344/3/6
f 342/1/6 335/1/6 345/1/6
f 344/2/6 342/2/6 345/2/6
f 335/2/6 336/2/6 346/2/6
f 345/1/6 335/1/6 346/1/6
f 336/2/6 332/2/6 347/2/6
f 346/2/6 336/2/6 347/2/6
f 332/3/6 321/3/6 347/3/6
f 321/3/6 306/3/6 348/3/6
f 347/3/6 321/3/6 348/3/6
f 345/2/6 346/2/6 349/2/6
f 339/2/6 343/2/6 349/2/6
f 347/2/6 348/2/6 349/2/6
f 343/2/6 344/2/6 349/2/6
f 344/2/6 345/2/6 349/2/6
f 346/2/6 347/2/6 349/2/6
f 348/3/6 306/3/6 350/3/6
f 349/2/6 348/2/6 350/2/6
f 350/3/6 306/3/6 351/3/6
