# MagicaVoxel @ Ephtracy

# group
o Decoration - Saw Dust

# material
mtllib Medieval Assets-284-Decoration - Saw Dust.mtl
usemtl palette

# normals
vn -1 0 0
vn 1 0 0
vn 0 0 1
vn 0 0 -1
vn 0 -1 0
vn 0 1 0

# texcoords
vt 0.173828 0.5
vt 0.177734 0.5
vt 0.181641 0.5

# verts
v 16.5 0.1 -15.6
v 16.5 0.1 -15.7
v 16.5 0.2 -15.6
v 16.5 0.2 -15.7
v 16.7 0.1 -16.7
v 16.7 0.1 -16.8
v 16.7 0.2 -16.7
v 16.7 0.2 -16.8
v 16.8 0.1 -16.2
v 16.8 0.1 -16.3
v 16.8 0.2 -16.2
v 16.8 0.2 -16.3
v 17 0.1 -15.5
v 17 0.1 -15.6
v 17 0.1 -15.8
v 17 0.1 -15.9
v 17 0.2 -15.8
v 17 0.2 -15.9
v 17 0.3 -15.5
v 17 0.3 -15.6
v 17.1 0.1 -15.9
v 17.1 0.1 -16
v 17.1 0.1 -16.2
v 17.1 0.1 -16.4
v 17.1 0.1 -16.5
v 17.1 0.1 -16.7
v 17.1 0.2 -15.9
v 17.1 0.2 -16
v 17.1 0.2 -16.3
v 17.1 0.2 -16.4
v 17.1 0.2 -16.5
v 17.1 0.2 -16.7
v 17.1 0.3 -16.2
v 17.1 0.3 -16.3
v 17.2 0.1 -15.2
v 17.2 0.1 -15.3
v 17.2 0.1 -16.8
v 17.2 0.1 -16.9
v 17.2 0.2 -15.2
v 17.2 0.2 -15.3
v 17.2 0.2 -16.3
v 17.2 0.2 -16.4
v 17.2 0.2 -16.8
v 17.2 0.2 -16.9
v 17.2 0.3 -16.3
v 17.2 0.3 -16.4
v 17.3 0.1 -16.6
v 17.3 0.1 -16.7
v 17.3 0.3 -16.6
v 17.3 0.3 -16.7
v 17.4 0.1 -16.1
v 17.4 0.1 -16.2
v 17.4 0.2 -16.1
v 17.4 0.2 -16.2
v 17.6 0.1 -16.8
v 17.6 0.1 -16.9
v 17.6 0.2 -16.8
v 17.6 0.2 -16.9
v 17.7 0.1 -15.4
v 17.7 0.1 -15.5
v 17.7 0.1 -15.6
v 17.7 0.1 -16.3
v 17.7 0.1 -16.5
v 17.7 0.2 -15.4
v 17.7 0.2 -15.5
v 17.7 0.2 -15.6
v 17.7 0.2 -16.3
v 17.7 0.2 -16.5
v 17.8 0.1 -15.6
v 17.8 0.1 -15.8
v 17.8 0.1 -16.7
v 17.8 0.1 -16.8
v 17.8 0.2 -15.4
v 17.8 0.2 -15.5
v 17.8 0.2 -15.6
v 17.8 0.2 -15.8
v 17.8 0.2 -16.6
v 17.8 0.2 -16.7
v 17.8 0.3 -15.4
v 17.8 0.3 -15.5
v 17.8 0.3 -16.6
v 17.8 0.3 -16.8
v 17.9 0.1 -15.4
v 17.9 0.1 -15.5
v 17.9 0.1 -15.8
v 17.9 0.1 -16.1
v 17.9 0.2 -15.3
v 17.9 0.2 -15.4
v 17.9 0.2 -15.5
v 17.9 0.2 -15.8
v 17.9 0.2 -15.9
v 17.9 0.2 -16.1
v 17.9 0.3 -15.3
v 17.9 0.3 -15.4
v 17.9 0.3 -15.8
v 17.9 0.3 -15.9
v 18 0.1 -15.7
v 18 0.1 -15.8
v 18 0.3 -15.7
v 18 0.3 -15.8
v 18.3 0.1 -16.7
v 18.3 0.1 -16.8
v 18.3 0.2 -16.7
v 18.3 0.2 -16.8
v 16.6 0.1 -15.6
v 16.6 0.1 -15.7
v 16.6 0.2 -15.6
v 16.6 0.2 -15.7
v 16.8 0.1 -16.7
v 16.8 0.1 -16.8
v 16.8 0.2 -16.7
v 16.8 0.2 -16.8
v 16.9 0.1 -16.2
v 16.9 0.1 -16.3
v 16.9 0.2 -16.2
v 16.9 0.2 -16.3
v 17.1 0.1 -15.8
v 17.1 0.1 -15.9
v 17.1 0.2 -15.8
v 17.1 0.2 -15.9
v 17.2 0.1 -15.9
v 17.2 0.1 -16
v 17.2 0.1 -16.2
v 17.2 0.1 -16.3
v 17.2 0.1 -16.5
v 17.2 0.1 -16.7
v 17.2 0.2 -15.9
v 17.2 0.2 -16
v 17.2 0.2 -16.3
v 17.2 0.2 -16.5
v 17.2 0.2 -16.7
v 17.2 0.3 -16.2
v 17.2 0.3 -16.3
v 17.3 0.1 -15.2
v 17.3 0.1 -15.3
v 17.3 0.1 -15.5
v 17.3 0.1 -15.6
v 17.3 0.1 -16.3
v 17.3 0.1 -16.4
v 17.3 0.1 -16.8
v 17.3 0.1 -16.9
v 17.3 0.2 -15.2
v 17.3 0.2 -15.3
v 17.3 0.2 -15.5
v 17.3 0.2 -15.6
v 17.3 0.2 -16.3
v 17.3 0.2 -16.4
v 17.3 0.2 -16.8
v 17.3 0.2 -16.9
v 17.3 0.3 -15.5
v 17.3 0.3 -15.6
v 17.3 0.3 -16.3
v 17.3 0.3 -16.4
v 17.4 0.1 -16.6
v 17.4 0.1 -16.7
v 17.4 0.3 -16.6
v 17.4 0.3 -16.7
v 17.5 0.1 -16.1
v 17.5 0.1 -16.2
v 17.5 0.2 -16.1
v 17.5 0.2 -16.2
v 17.7 0.1 -16.8
v 17.7 0.1 -16.9
v 17.7 0.2 -16.8
v 17.7 0.2 -16.9
v 17.8 0.1 -15.4
v 17.8 0.1 -15.5
v 17.8 0.1 -15.6
v 17.8 0.1 -16.3
v 17.8 0.1 -16.5
v 17.8 0.2 -15.4
v 17.8 0.2 -15.5
v 17.8 0.2 -15.6
v 17.8 0.2 -16.3
v 17.8 0.2 -16.5
v 17.9 0.1 -15.6
v 17.9 0.1 -15.8
v 17.9 0.1 -16.7
v 17.9 0.1 -16.8
v 17.9 0.2 -15.4
v 17.9 0.2 -15.5
v 17.9 0.2 -15.6
v 17.9 0.2 -15.8
v 17.9 0.2 -16.6
v 17.9 0.2 -16.7
v 17.9 0.3 -15.4
v 17.9 0.3 -15.5
v 17.9 0.3 -16.6
v 17.9 0.3 -16.8
v 18 0.1 -15.4
v 18 0.1 -15.5
v 18 0.1 -15.9
v 18 0.1 -16.1
v 18 0.2 -15.3
v 18 0.2 -15.4
v 18 0.2 -15.5
v 18 0.2 -15.9
v 18 0.2 -16.1
v 18 0.3 -15.3
v 18 0.3 -15.4
v 18.1 0.1 -15.7
v 18.1 0.1 -15.9
v 18.1 0.3 -15.7
v 18.1 0.3 -15.9
v 18.4 0.1 -16.7
v 18.4 0.1 -16.8
v 18.4 0.2 -16.7
v 18.4 0.2 -16.8
v 17.2 0.1 -15.2
v 17.2 0.2 -15.2
v 17.3 0.1 -15.2
v 17.3 0.2 -15.2
v 17.9 0.2 -15.3
v 17.9 0.3 -15.3
v 18 0.2 -15.3
v 18 0.3 -15.3
v 17.7 0.1 -15.4
v 17.7 0.2 -15.4
v 17.8 0.1 -15.4
v 17.8 0.2 -15.4
v 17.8 0.3 -15.4
v 17.9 0.1 -15.4
v 17.9 0.2 -15.4
v 17.9 0.3 -15.4
v 18 0.1 -15.4
v 18 0.2 -15.4
v 17 0.1 -15.5
v 17 0.3 -15.5
v 17.1 0.1 -15.5
v 17.1 0.2 -15.5
v 17.3 0.1 -15.5
v 17.3 0.2 -15.5
v 17.3 0.3 -15.5
v 16.5 0.1 -15.6
v 16.5 0.2 -15.6
v 16.6 0.1 -15.6
v 16.6 0.2 -15.6
v 17.8 0.1 -15.6
v 17.8 0.2 -15.6
v 17.9 0.1 -15.6
v 17.9 0.2 -15.6
v 18 0.1 -15.7
v 18 0.3 -15.7
v 18.1 0.1 -15.7
v 18.1 0.3 -15.7
v 17 0.1 -15.8
v 17 0.2 -15.8
v 17.1 0.1 -15.8
v 17.1 0.2 -15.8
v 17.9 0.1 -15.8
v 17.9 0.2 -15.8
v 17.9 0.3 -15.8
v 18 0.1 -15.8
v 18 0.3 -15.8
v 17.1 0.1 -15.9
v 17.1 0.2 -15.9
v 17.2 0.1 -15.9
v 17.2 0.2 -15.9
v 17.4 0.1 -16.1
v 17.4 0.2 -16.1
v 17.5 0.1 -16.1
v 17.5 0.2 -16.1
v 16.8 0.1 -16.2
v 16.8 0.2 -16.2
v 16.9 0.1 -16.2
v 16.9 0.2 -16.2
v 17.1 0.1 -16.2
v 17.1 0.3 -16.2
v 17.2 0.1 -16.2
v 17.2 0.3 -16.2
v 17.2 0.1 -16.3
v 17.2 0.2 -16.3
v 17.2 0.3 -16.3
v 17.3 0.1 -16.3
v 17.3 0.2 -16.3
v 17.3 0.3 -16.3
v 17.7 0.1 -16.3
v 17.7 0.2 -16.3
v 17.8 0.1 -16.3
v 17.8 0.2 -16.3
v 17.1 0.1 -16.5
v 17.1 0.2 -16.5
v 17.2 0.1 -16.5
v 17.2 0.2 -16.5
v 17.3 0.1 -16.6
v 17.3 0.3 -16.6
v 17.4 0.1 -16.6
v 17.4 0.3 -16.6
v 17.8 0.2 -16.6
v 17.8 0.3 -16.6
v 17.9 0.2 -16.6
v 17.9 0.3 -16.6
v 16.7 0.1 -16.7
v 16.7 0.2 -16.7
v 16.8 0.1 -16.7
v 16.8 0.2 -16.7
v 17.8 0.1 -16.7
v 17.8 0.2 -16.7
v 17.9 0.1 -16.7
v 17.9 0.2 -16.7
v 18.3 0.1 -16.7
v 18.3 0.2 -16.7
v 18.4 0.1 -16.7
v 18.4 0.2 -16.7
v 17.2 0.1 -16.8
v 17.2 0.2 -16.8
v 17.3 0.1 -16.8
v 17.3 0.2 -16.8
v 17.6 0.1 -16.8
v 17.6 0.2 -16.8
v 17.7 0.1 -16.8
v 17.7 0.2 -16.8
v 17.2 0.1 -15.3
v 17.2 0.2 -15.3
v 17.3 0.1 -15.3
v 17.3 0.2 -15.3
v 17.9 0.2 -15.4
v 17.9 0.3 -15.4
v 18 0.2 -15.4
v 18 0.3 -15.4
v 17.8 0.2 -15.5
v 17.8 0.3 -15.5
v 17.9 0.1 -15.5
v 17.9 0.2 -15.5
v 17.9 0.3 -15.5
v 18 0.1 -15.5
v 18 0.2 -15.5
v 17 0.1 -15.6
v 17 0.3 -15.6
v 17.1 0.1 -15.6
v 17.1 0.2 -15.6
v 17.3 0.1 -15.6
v 17.3 0.2 -15.6
v 17.3 0.3 -15.6
v 17.7 0.1 -15.6
v 17.7 0.2 -15.6
v 17.8 0.1 -15.6
v 17.8 0.2 -15.6
v 16.5 0.1 -15.7
v 16.5 0.2 -15.7
v 16.6 0.1 -15.7
v 16.6 0.2 -15.7
v 17.8 0.1 -15.8
v 17.8 0.2 -15.8
v 17.9 0.1 -15.8
v 17.9 0.2 -15.8
v 17 0.1 -15.9
v 17 0.2 -15.9
v 17.1 0.1 -15.9
v 17.1 0.2 -15.9
v 17.9 0.2 -15.9
v 17.9 0.3 -15.9
v 18 0.1 -15.9
v 18 0.2 -15.9
v 18.1 0.1 -15.9
v 18.1 0.3 -15.9
v 17.1 0.1 -16
v 17.1 0.2 -16
v 17.2 0.1 -16
v 17.2 0.2 -16
v 17.9 0.1 -16.1
v 17.9 0.2 -16.1
v 18 0.1 -16.1
v 18 0.2 -16.1
v 17.4 0.1 -16.2
v 17.4 0.2 -16.2
v 17.5 0.1 -16.2
v 17.5 0.2 -16.2
v 16.8 0.1 -16.3
v 16.8 0.2 -16.3
v 16.9 0.1 -16.3
v 16.9 0.2 -16.3
v 17.1 0.2 -16.3
v 17.1 0.3 -16.3
v 17.2 0.2 -16.3
v 17.2 0.3 -16.3
v 17.1 0.1 -16.4
v 17.1 0.2 -16.4
v 17.2 0.2 -16.4
v 17.2 0.3 -16.4
v 17.3 0.1 -16.4
v 17.3 0.2 -16.4
v 17.3 0.3 -16.4
v 17.7 0.1 -16.5
v 17.7 0.2 -16.5
v 17.8 0.1 -16.5
v 17.8 0.2 -16.5
v 17.1 0.1 -16.7
v 17.1 0.2 -16.7
v 17.2 0.1 -16.7
v 17.2 0.2 -16.7
v 17.3 0.1 -16.7
v 17.3 0.3 -16.7
v 17.4 0.1 -16.7
v 17.4 0.3 -16.7
v 16.7 0.1 -16.8
v 16.7 0.2 -16.8
v 16.8 0.1 -16.8
v 16.8 0.2 -16.8
v 17.8 0.1 -16.8
v 17.8 0.3 -16.8
v 17.9 0.1 -16.8
v 17.9 0.3 -16.8
v 18.3 0.1 -16.8
v 18.3 0.2 -16.8
v 18.4 0.1 -16.8
v 18.4 0.2 -16.8
v 17.2 0.1 -16.9
v 17.2 0.2 -16.9
v 17.3 0.1 -16.9
v 17.3 0.2 -16.9
v 17.6 0.1 -16.9
v 17.6 0.2 -16.9
v 17.7 0.1 -16.9
v 17.7 0.2 -16.9
v 17.2 0.1 -15.2
v 17.3 0.1 -15.2
v 17.2 0.1 -15.3
v 17.3 0.1 -15.3
v 17.7 0.1 -15.4
v 17.8 0.1 -15.4
v 17.9 0.1 -15.4
v 18 0.1 -15.4
v 17 0.1 -15.5
v 17.1 0.1 -15.5
v 17.3 0.1 -15.5
v 17.7 0.1 -15.5
v 17.8 0.1 -15.5
v 17.9 0.1 -15.5
v 18 0.1 -15.5
v 16.5 0.1 -15.6
v 16.6 0.1 -15.6
v 17 0.1 -15.6
v 17.1 0.1 -15.6
v 17.3 0.1 -15.6
v 17.7 0.1 -15.6
v 17.8 0.1 -15.6
v 17.9 0.1 -15.6
v 16.5 0.1 -15.7
v 16.6 0.1 -15.7
v 18 0.1 -15.7
v 18.1 0.1 -15.7
v 17 0.1 -15.8
v 17.1 0.1 -15.8
v 17.8 0.1 -15.8
v 17.9 0.1 -15.8
v 18 0.1 -15.8
v 17 0.1 -15.9
v 17.1 0.1 -15.9
v 17.2 0.1 -15.9
v 18 0.1 -15.9
v 18.1 0.1 -15.9
v 17.1 0.1 -16
v 17.2 0.1 -16
v 17.4 0.1 -16.1
v 17.5 0.1 -16.1
v 17.9 0.1 -16.1
v 18 0.1 -16.1
v 16.8 0.1 -16.2
v 16.9 0.1 -16.2
v 17.1 0.1 -16.2
v 17.2 0.1 -16.2
v 17.4 0.1 -16.2
v 17.5 0.1 -16.2
v 16.8 0.1 -16.3
v 16.9 0.1 -16.3
v 17.2 0.1 -16.3
v 17.3 0.1 -16.3
v 17.7 0.1 -16.3
v 17.8 0.1 -16.3
v 17.1 0.1 -16.4
v 17.3 0.1 -16.4
v 17.1 0.1 -16.5
v 17.2 0.1 -16.5
v 17.7 0.1 -16.5
v 17.8 0.1 -16.5
v 17.3 0.1 -16.6
v 17.4 0.1 -16.6
v 16.7 0.1 -16.7
v 16.8 0.1 -16.7
v 17.1 0.1 -16.7
v 17.2 0.1 -16.7
v 17.3 0.1 -16.7
v 17.4 0.1 -16.7
v 17.8 0.1 -16.7
v 17.9 0.1 -16.7
v 18.3 0.1 -16.7
v 18.4 0.1 -16.7
v 16.7 0.1 -16.8
v 16.8 0.1 -16.8
v 17.2 0.1 -16.8
v 17.3 0.1 -16.8
v 17.6 0.1 -16.8
v 17.7 0.1 -16.8
v 17.8 0.1 -16.8
v 17.9 0.1 -16.8
v 18.3 0.1 -16.8
v 18.4 0.1 -16.8
v 17.2 0.1 -16.9
v 17.3 0.1 -16.9
v 17.6 0.1 -16.9
v 17.7 0.1 -16.9
v 17.9 0.2 -15.3
v 18 0.2 -15.3
v 17.8 0.2 -15.4
v 17.9 0.2 -15.4
v 18 0.2 -15.4
v 17.8 0.2 -15.5
v 17.9 0.2 -15.5
v 17.8 0.2 -16.6
v 17.9 0.2 -16.6
v 17.8 0.2 -16.7
v 17.9 0.2 -16.7
v 17.2 0.2 -15.2
v 17.3 0.2 -15.2
v 17.2 0.2 -15.3
v 17.3 0.2 -15.3
v 17.7 0.2 -15.4
v 17.8 0.2 -15.4
v 17.9 0.2 -15.4
v 18 0.2 -15.4
v 17.7 0.2 -15.5
v 17.8 0.2 -15.5
v 17.9 0.2 -15.5
v 18 0.2 -15.5
v 16.5 0.2 -15.6
v 16.6 0.2 -15.6
v 17.7 0.2 -15.6
v 17.8 0.2 -15.6
v 17.9 0.2 -15.6
v 16.5 0.2 -15.7
v 16.6 0.2 -15.7
v 17 0.2 -15.8
v 17.1 0.2 -15.8
v 17.8 0.2 -15.8
v 17.9 0.2 -15.8
v 17 0.2 -15.9
v 17.1 0.2 -15.9
v 17.2 0.2 -15.9
v 17.9 0.2 -15.9
v 18 0.2 -15.9
v 17.1 0.2 -16
v 17.2 0.2 -16
v 17.4 0.2 -16.1
v 17.5 0.2 -16.1
v 17.9 0.2 -16.1
v 18 0.2 -16.1
v 16.8 0.2 -16.2
v 16.9 0.2 -16.2
v 17.4 0.2 -16.2
v 17.5 0.2 -16.2
v 16.8 0.2 -16.3
v 16.9 0.2 -16.3
v 17.1 0.2 -16.3
v 17.2 0.2 -16.3
v 17.7 0.2 -16.3
v 17.8 0.2 -16.3
v 17.1 0.2 -16.4
v 17.2 0.2 -16.4
v 17.1 0.2 -16.5
v 17.2 0.2 -16.5
v 17.7 0.2 -16.5
v 17.8 0.2 -16.5
v 16.7 0.2 -16.7
v 16.8 0.2 -16.7
v 17.1 0.2 -16.7
v 17.2 0.2 -16.7
v 18.3 0.2 -16.7
v 18.4 0.2 -16.7
v 16.7 0.2 -16.8
v 16.8 0.2 -16.8
v 17.2 0.2 -16.8
v 17.3 0.2 -16.8
v 17.6 0.2 -16.8
v 17.7 0.2 -16.8
v 18.3 0.2 -16.8
v 18.4 0.2 -16.8
v 17.2 0.2 -16.9
v 17.3 0.2 -16.9
v 17.6 0.2 -16.9
v 17.7 0.2 -16.9
v 17.9 0.3 -15.3
v 18 0.3 -15.3
v 17.8 0.3 -15.4
v 17.9 0.3 -15.4
v 18 0.3 -15.4
v 17 0.3 -15.5
v 17.3 0.3 -15.5
v 17.8 0.3 -15.5
v 17.9 0.3 -15.5
v 17 0.3 -15.6
v 17.3 0.3 -15.6
v 18 0.3 -15.7
v 18.1 0.3 -15.7
v 17.9 0.3 -15.8
v 18 0.3 -15.8
v 17.9 0.3 -15.9
v 18.1 0.3 -15.9
v 17.1 0.3 -16.2
v 17.2 0.3 -16.2
v 17.1 0.3 -16.3
v 17.2 0.3 -16.3
v 17.3 0.3 -16.3
v 17.2 0.3 -16.4
v 17.3 0.3 -16.4
v 17.3 0.3 -16.6
v 17.4 0.3 -16.6
v 17.8 0.3 -16.6
v 17.9 0.3 -16.6
v 17.3 0.3 -16.7
v 17.4 0.3 -16.7
v 17.8 0.3 -16.8
v 17.9 0.3 -16.8

# faces
f 3/2/1 2/2/1 1/2/1
f 4/2/1 2/2/1 3/2/1
f 7/2/1 6/2/1 5/2/1
f 8/2/1 6/2/1 7/2/1
f 11/2/1 10/2/1 9/2/1
f 12/2/1 10/2/1 11/2/1
f 17/2/1 16/2/1 15/2/1
f 18/2/1 16/2/1 17/2/1
f 19/1/1 14/1/1 13/1/1
f 20/1/1 14/1/1 19/1/1
f 27/2/1 22/2/1 21/2/1
f 28/2/1 22/2/1 27/2/1
f 29/2/1 24/2/1 23/2/1
f 30/2/1 24/2/1 29/2/1
f 31/2/1 26/2/1 25/2/1
f 32/2/1 26/2/1 31/2/1
f 33/2/1 29/2/1 23/2/1
f 34/2/1 29/2/1 33/2/1
f 39/2/1 36/2/1 35/2/1
f 40/2/1 36/2/1 39/2/1
f 43/1/1 38/1/1 37/1/1
f 44/1/1 38/1/1 43/1/1
f 45/3/1 42/3/1 41/3/1
f 46/3/1 42/3/1 45/3/1
f 49/2/1 48/2/1 47/2/1
f 50/2/1 48/2/1 49/2/1
f 53/2/1 52/2/1 51/2/1
f 54/2/1 52/2/1 53/2/1
f 57/2/1 56/2/1 55/2/1
f 58/2/1 56/2/1 57/2/1
f 64/1/1 60/1/1 59/1/1
f 65/2/1 61/2/1 60/2/1
f 65/1/1 60/1/1 64/1/1
f 66/2/1 61/2/1 65/2/1
f 67/2/1 63/2/1 62/2/1
f 68/2/1 63/2/1 67/2/1
f 75/2/1 70/2/1 69/2/1
f 76/2/1 70/2/1 75/2/1
f 78/3/1 72/3/1 71/3/1
f 79/1/1 74/1/1 73/1/1
f 80/1/1 74/1/1 79/1/1
f 81/3/1 78/3/1 77/3/1
f 82/3/1 72/3/1 78/3/1
f 82/3/1 78/3/1 81/3/1
f 88/2/1 84/2/1 83/2/1
f 89/2/1 84/2/1 88/2/1
f 90/2/1 86/2/1 85/2/1
f 91/2/1 86/2/1 90/2/1
f 92/2/1 86/2/1 91/2/1
f 93/1/1 88/1/1 87/1/1
f 94/1/1 88/1/1 93/1/1
f 95/2/1 91/2/1 90/2/1
f 96/2/1 91/2/1 95/2/1
f 99/2/1 98/2/1 97/2/1
f 100/2/1 98/2/1 99/2/1
f 103/2/1 102/2/1 101/2/1
f 104/2/1 102/2/1 103/2/1
f 105/2/2 106/2/2 107/2/2
f 107/2/2 106/2/2 108/2/2
f 109/2/2 110/2/2 111/2/2
f 111/2/2 110/2/2 112/2/2
f 113/2/2 114/2/2 115/2/2
f 115/2/2 114/2/2 116/2/2
f 117/2/2 118/2/2 119/2/2
f 119/2/2 118/2/2 120/2/2
f 121/2/2 122/2/2 127/2/2
f 127/2/2 122/2/2 128/2/2
f 123/2/2 124/2/2 129/2/2
f 125/2/2 126/2/2 130/2/2
f 130/2/2 126/2/2 131/2/2
f 123/2/2 129/2/2 132/2/2
f 132/2/2 129/2/2 133/2/2
f 134/2/2 135/2/2 142/2/2
f 142/2/2 135/2/2 143/2/2
f 136/2/2 137/2/2 144/2/2
f 144/2/2 137/2/2 145/2/2
f 138/2/2 139/2/2 146/2/2
f 146/2/2 139/2/2 147/2/2
f 140/1/2 141/1/2 148/1/2
f 148/1/2 141/1/2 149/1/2
f 144/1/2 145/1/2 150/1/2
f 150/1/2 145/1/2 151/1/2
f 146/3/2 147/3/2 152/3/2
f 152/3/2 147/3/2 153/3/2
f 154/2/2 155/2/2 156/2/2
f 156/2/2 155/2/2 157/2/2
f 158/2/2 159/2/2 160/2/2
f 160/2/2 159/2/2 161/2/2
f 162/2/2 163/2/2 164/2/2
f 164/2/2 163/2/2 165/2/2
f 166/1/2 167/1/2 171/1/2
f 167/2/2 168/2/2 172/2/2
f 171/1/2 167/1/2 172/1/2
f 172/2/2 168/2/2 173/2/2
f 169/2/2 170/2/2 174/2/2
f 174/2/2 170/2/2 175/2/2
f 176/2/2 177/2/2 182/2/2
f 182/2/2 177/2/2 183/2/2
f 178/3/2 179/3/2 185/3/2
f 180/1/2 181/1/2 186/1/2
f 186/1/2 181/1/2 187/1/2
f 184/3/2 185/3/2 188/3/2
f 185/3/2 179/3/2 189/3/2
f 188/3/2 185/3/2 189/3/2
f 190/2/2 191/2/2 195/2/2
f 195/2/2 191/2/2 196/2/2
f 192/2/2 193/2/2 197/2/2
f 197/2/2 193/2/2 198/2/2
f 194/1/2 195/1/2 199/1/2
f 199/1/2 195/1/2 200/1/2
f 201/2/2 202/2/2 203/2/2
f 203/2/2 202/2/2 204/2/2
f 205/2/2 206/2/2 207/2/2
f 207/2/2 206/2/2 208/2/2
f 211/2/3 210/2/3 209/2/3
f 212/2/3 210/2/3 211/2/3
f 215/1/3 214/1/3 213/1/3
f 216/1/3 214/1/3 215/1/3
f 219/1/3 218/1/3 217/1/3
f 220/1/3 218/1/3 219/1/3
f 223/1/3 221/1/3 220/1/3
f 224/1/3 221/1/3 223/1/3
f 225/2/3 223/2/3 222/2/3
f 226/2/3 223/2/3 225/2/3
f 229/1/3 228/1/3 227/1/3
f 230/1/3 228/1/3 229/1/3
f 231/2/3 230/2/3 229/2/3
f 232/1/3 228/1/3 230/1/3
f 232/2/3 230/2/3 231/2/3
f 233/1/3 228/1/3 232/1/3
f 236/2/3 235/2/3 234/2/3
f 237/2/3 235/2/3 236/2/3
f 240/2/3 239/2/3 238/2/3
f 241/2/3 239/2/3 240/2/3
f 244/2/3 243/2/3 242/2/3
f 245/2/3 243/2/3 244/2/3
f 248/2/3 247/2/3 246/2/3
f 249/2/3 247/2/3 248/2/3
f 253/2/3 251/2/3 250/2/3
f 253/2/3 252/2/3 251/2/3
f 254/2/3 252/2/3 253/2/3
f 257/2/3 256/2/3 255/2/3
f 258/2/3 256/2/3 257/2/3
f 261/2/3 260/2/3 259/2/3
f 262/2/3 260/2/3 261/2/3
f 265/2/3 264/2/3 263/2/3
f 266/2/3 264/2/3 265/2/3
f 269/2/3 268/2/3 267/2/3
f 270/2/3 268/2/3 269/2/3
f 274/2/3 272/2/3 271/2/3
f 275/3/3 273/3/3 272/3/3
f 275/2/3 272/2/3 274/2/3
f 276/3/3 273/3/3 275/3/3
f 279/2/3 278/2/3 277/2/3
f 280/2/3 278/2/3 279/2/3
f 283/2/3 282/2/3 281/2/3
f 284/2/3 282/2/3 283/2/3
f 287/2/3 286/2/3 285/2/3
f 288/2/3 286/2/3 287/2/3
f 291/3/3 290/3/3 289/3/3
f 292/3/3 290/3/3 291/3/3
f 295/2/3 294/2/3 293/2/3
f 296/2/3 294/2/3 295/2/3
f 299/3/3 298/3/3 297/3/3
f 300/3/3 298/3/3 299/3/3
f 303/2/3 302/2/3 301/2/3
f 304/2/3 302/2/3 303/2/3
f 307/1/3 306/1/3 305/1/3
f 308/1/3 306/1/3 307/1/3
f 311/2/3 310/2/3 309/2/3
f 312/2/3 310/2/3 311/2/3
f 313/2/4 314/2/4 315/2/4
f 315/2/4 314/2/4 316/2/4
f 317/1/4 318/1/4 319/1/4
f 319/1/4 318/1/4 320/1/4
f 321/1/4 322/1/4 324/1/4
f 324/1/4 322/1/4 325/1/4
f 323/2/4 324/2/4 326/2/4
f 326/2/4 324/2/4 327/2/4
f 328/1/4 329/1/4 330/1/4
f 330/1/4 329/1/4 331/1/4
f 330/2/4 331/2/4 332/2/4
f 331/1/4 329/1/4 333/1/4
f 332/2/4 331/2/4 333/2/4
f 333/1/4 329/1/4 334/1/4
f 335/2/4 336/2/4 337/2/4
f 337/2/4 336/2/4 338/2/4
f 339/2/4 340/2/4 341/2/4
f 341/2/4 340/2/4 342/2/4
f 343/2/4 344/2/4 345/2/4
f 345/2/4 344/2/4 346/2/4
f 347/2/4 348/2/4 349/2/4
f 349/2/4 348/2/4 350/2/4
f 351/2/4 352/2/4 354/2/4
f 353/2/4 354/2/4 355/2/4
f 354/2/4 352/2/4 356/2/4
f 355/2/4 354/2/4 356/2/4
f 357/2/4 358/2/4 359/2/4
f 359/2/4 358/2/4 360/2/4
f 361/2/4 362/2/4 363/2/4
f 363/2/4 362/2/4 364/2/4
f 365/2/4 366/2/4 367/2/4
f 367/2/4 366/2/4 368/2/4
f 369/2/4 370/2/4 371/2/4
f 371/2/4 370/2/4 372/2/4
f 373/2/4 374/2/4 375/2/4
f 375/2/4 374/2/4 376/2/4
f 377/2/4 378/2/4 379/2/4
f 377/2/4 379/2/4 381/2/4
f 379/3/4 380/3/4 382/3/4
f 381/2/4 379/2/4 382/2/4
f 382/3/4 380/3/4 383/3/4
f 384/2/4 385/2/4 386/2/4
f 386/2/4 385/2/4 387/2/4
f 388/2/4 389/2/4 390/2/4
f 390/2/4 389/2/4 391/2/4
f 392/2/4 393/2/4 394/2/4
f 394/2/4 393/2/4 395/2/4
f 396/2/4 397/2/4 398/2/4
f 398/2/4 397/2/4 399/2/4
f 400/3/4 401/3/4 402/3/4
f 402/3/4 401/3/4 403/3/4
f 404/2/4 405/2/4 406/2/4
f 406/2/4 405/2/4 407/2/4
f 408/1/4 409/1/4 410/1/4
f 410/1/4 409/1/4 411/1/4
f 412/2/4 413/2/4 414/2/4
f 414/2/4 413/2/4 415/2/4
f 418/2/5 417/2/5 416/2/5
f 419/2/5 417/2/5 418/2/5
f 427/1/5 421/1/5 420/1/5
f 428/1/5 421/1/5 427/1/5
f 429/2/5 423/2/5 422/2/5
f 430/2/5 423/2/5 429/2/5
f 433/1/5 425/1/5 424/1/5
f 434/2/5 426/2/5 425/2/5
f 434/1/5 425/1/5 433/1/5
f 435/2/5 426/2/5 434/2/5
f 436/2/5 428/2/5 427/2/5
f 437/2/5 428/2/5 436/2/5
f 439/2/5 432/2/5 431/2/5
f 440/2/5 432/2/5 439/2/5
f 445/2/5 438/2/5 437/2/5
f 446/2/5 438/2/5 445/2/5
f 447/2/5 442/2/5 441/2/5
f 448/2/5 444/2/5 443/2/5
f 449/2/5 444/2/5 448/2/5
f 451/2/5 447/2/5 446/2/5
f 451/2/5 442/2/5 447/2/5
f 452/2/5 442/2/5 451/2/5
f 453/2/5 450/2/5 449/2/5
f 454/2/5 450/2/5 453/2/5
f 457/2/5 451/2/5 446/2/5
f 458/2/5 451/2/5 457/2/5
f 463/2/5 456/2/5 455/2/5
f 464/2/5 456/2/5 463/2/5
f 465/2/5 460/2/5 459/2/5
f 466/2/5 460/2/5 465/2/5
f 467/2/5 462/2/5 461/2/5
f 471/2/5 468/2/5 467/2/5
f 471/2/5 467/2/5 461/2/5
f 472/2/5 468/2/5 471/2/5
f 475/2/5 470/2/5 469/2/5
f 476/2/5 470/2/5 475/2/5
f 481/2/5 474/2/5 473/2/5
f 482/2/5 474/2/5 481/2/5
f 483/2/5 478/2/5 477/2/5
f 484/2/5 478/2/5 483/2/5
f 489/2/5 480/2/5 479/2/5
f 490/2/5 480/2/5 489/2/5
f 495/3/5 486/3/5 485/3/5
f 496/3/5 486/3/5 495/3/5
f 497/2/5 488/2/5 487/2/5
f 498/2/5 488/2/5 497/2/5
f 499/1/5 492/1/5 491/1/5
f 500/1/5 492/1/5 499/1/5
f 501/2/5 494/2/5 493/2/5
f 502/2/5 494/2/5 501/2/5
f 506/1/5 504/1/5 503/1/5
f 507/1/5 504/1/5 506/1/5
f 508/1/5 506/1/5 505/1/5
f 509/1/5 506/1/5 508/1/5
f 512/3/5 511/3/5 510/3/5
f 513/3/5 511/3/5 512/3/5
f 514/2/6 515/2/6 516/2/6
f 516/2/6 515/2/6 517/2/6
f 518/1/6 519/1/6 522/1/6
f 522/1/6 519/1/6 523/1/6
f 520/2/6 521/2/6 524/2/6
f 524/2/6 521/2/6 525/2/6
f 522/2/6 523/2/6 528/2/6
f 528/2/6 523/2/6 529/2/6
f 526/2/6 527/2/6 531/2/6
f 531/2/6 527/2/6 532/2/6
f 529/2/6 530/2/6 535/2/6
f 535/2/6 530/2/6 536/2/6
f 533/2/6 534/2/6 537/2/6
f 537/2/6 534/2/6 538/2/6
f 538/2/6 539/2/6 542/2/6
f 542/2/6 539/2/6 543/2/6
f 540/2/6 541/2/6 546/2/6
f 546/2/6 541/2/6 547/2/6
f 544/2/6 545/2/6 550/2/6
f 550/2/6 545/2/6 551/2/6
f 548/2/6 549/2/6 552/2/6
f 552/2/6 549/2/6 553/2/6
f 554/2/6 555/2/6 558/2/6
f 558/2/6 555/2/6 559/2/6
f 556/2/6 557/2/6 562/2/6
f 562/2/6 557/2/6 563/2/6
f 560/2/6 561/2/6 566/2/6
f 566/2/6 561/2/6 567/2/6
f 564/2/6 565/2/6 570/2/6
f 570/2/6 565/2/6 571/2/6
f 568/2/6 569/2/6 576/2/6
f 576/2/6 569/2/6 577/2/6
f 572/1/6 573/1/6 578/1/6
f 578/1/6 573/1/6 579/1/6
f 574/2/6 575/2/6 580/2/6
f 580/2/6 575/2/6 581/2/6
f 582/1/6 583/1/6 585/1/6
f 585/1/6 583/1/6 586/1/6
f 584/1/6 585/1/6 589/1/6
f 589/1/6 585/1/6 590/1/6
f 587/1/6 588/1/6 591/1/6
f 591/1/6 588/1/6 592/1/6
f 593/2/6 594/2/6 596/2/6
f 595/2/6 596/2/6 597/2/6
f 596/2/6 594/2/6 598/2/6
f 597/2/6 596/2/6 598/2/6
f 599/2/6 600/2/6 601/2/6
f 601/2/6 600/2/6 602/2/6
f 602/3/6 603/3/6 604/3/6
f 604/3/6 603/3/6 605/3/6
f 606/2/6 607/2/6 610/2/6
f 610/2/6 607/2/6 611/2/6
f 608/3/6 609/3/6 612/3/6
f 612/3/6 609/3/6 613/3/6
