# MagicaVoxel @ Ephtracy

# group
o Decoration - Poll - Variant4

# material
mtllib Medieval Assets-82-Decoration - Poll - Variant4.mtl
usemtl palette

# normals
vn -1 0 0
vn 1 0 0
vn 0 0 1
vn 0 0 -1
vn 0 -1 0
vn 0 1 0

# texcoords
vt 0.177734 0.5
vt 0.181641 0.5

# verts
v 11.4 0 0.8
v 11.4 0 0.7
v 11.4 1.2 0.8
v 11.4 1.2 0.7
v 11.4 1.5 0.8
v 11.4 1.5 0.7
v 11.4 4.3 0.8
v 11.4 4.3 0.7
v 11.4 4.9 0.8
v 11.4 4.9 0.7
v 11.4 5 0.8
v 11.4 5 0.7
v 11.4 5.2 0.8
v 11.4 5.2 0.7
v 11.4 5.8 0.8
v 11.4 5.8 0.7
v 11.4 5.9 0.8
v 11.4 5.9 0.7
v 11.5 0 0.9
v 11.5 0 0.8
v 11.5 0 0.7
v 11.5 0 0.6
v 11.5 0.2 0.9
v 11.5 0.2 0.8
v 11.5 0.2 0.7
v 11.5 0.2 0.6
v 11.5 0.3 0.7
v 11.5 0.3 0.6
v 11.5 0.8 0.7
v 11.5 0.8 0.6
v 11.5 1 0.9
v 11.5 1 0.8
v 11.5 1.2 0.8
v 11.5 1.2 0.7
v 11.5 1.2 0.6
v 11.5 1.5 0.8
v 11.5 1.5 0.7
v 11.5 1.5 0.6
v 11.5 1.6 0.9
v 11.5 1.6 0.8
v 11.5 1.9 0.9
v 11.5 1.9 0.8
v 11.5 2 0.7
v 11.5 2 0.6
v 11.5 2.1 0.9
v 11.5 2.1 0.8
v 11.5 2.1 0.7
v 11.5 2.1 0.6
v 11.5 3 0.7
v 11.5 3 0.6
v 11.5 3.1 0.9
v 11.5 3.1 0.8
v 11.5 3.1 0.7
v 11.5 3.1 0.6
v 11.5 3.3 0.7
v 11.5 3.3 0.6
v 11.5 3.6 0.7
v 11.5 3.6 0.6
v 11.5 4 0.7
v 11.5 4 0.6
v 11.5 4.3 0.8
v 11.5 4.3 0.7
v 11.5 4.3 0.6
v 11.5 4.4 0.9
v 11.5 4.4 0.8
v 11.5 4.6 0.7
v 11.5 4.6 0.6
v 11.5 4.7 0.9
v 11.5 4.7 0.8
v 11.5 4.7 0.7
v 11.5 4.7 0.6
v 11.5 4.8 0.9
v 11.5 4.8 0.8
v 11.5 4.9 0.9
v 11.5 4.9 0.8
v 11.5 4.9 0.7
v 11.5 5 0.8
v 11.5 5 0.7
v 11.5 5 0.6
v 11.5 5.2 0.8
v 11.5 5.2 0.7
v 11.5 5.2 0.6
v 11.5 5.3 0.9
v 11.5 5.3 0.8
v 11.5 5.6 0.7
v 11.5 5.6 0.6
v 11.5 5.8 0.8
v 11.5 5.8 0.7
v 11.5 5.8 0.6
v 11.5 5.9 0.9
v 11.5 5.9 0.8
v 11.5 5.9 0.7
v 11.5 5.9 0.6
v 11.5 6 0.8
v 11.5 6 0.7
v 11.6 0 0.9
v 11.6 0 0.8
v 11.6 0 0.7
v 11.6 0 0.6
v 11.6 0.2 0.9
v 11.6 0.2 0.8
v 11.6 0.2 0.7
v 11.6 0.2 0.6
v 11.6 0.3 0.7
v 11.6 0.3 0.6
v 11.6 0.8 0.8
v 11.6 0.8 0.7
v 11.6 0.8 0.6
v 11.6 1 0.9
v 11.6 1 0.8
v 11.6 1.2 0.7
v 11.6 1.2 0.6
v 11.6 1.5 0.7
v 11.6 1.5 0.6
v 11.6 1.6 0.9
v 11.6 1.6 0.8
v 11.6 1.7 0.8
v 11.6 1.7 0.7
v 11.6 1.8 0.8
v 11.6 1.8 0.7
v 11.6 1.9 0.9
v 11.6 1.9 0.8
v 11.6 2 0.7
v 11.6 2 0.6
v 11.6 2.1 0.9
v 11.6 2.1 0.8
v 11.6 2.1 0.7
v 11.6 2.1 0.6
v 11.6 2.2 0.8
v 11.6 2.2 0.7
v 11.6 2.7 0.8
v 11.6 2.7 0.7
v 11.6 2.9 0.8
v 11.6 2.9 0.7
v 11.6 3 0.7
v 11.6 3 0.6
v 11.6 3.1 0.9
v 11.6 3.1 0.8
v 11.6 3.1 0.7
v 11.6 3.1 0.6
v 11.6 3.2 0.8
v 11.6 3.2 0.7
v 11.6 3.3 0.7
v 11.6 3.3 0.6
v 11.6 3.6 0.7
v 11.6 3.6 0.6
v 11.6 4 0.8
v 11.6 4 0.7
v 11.6 4 0.6
v 11.6 4.2 0.8
v 11.6 4.2 0.7
v 11.6 4.3 0.7
v 11.6 4.3 0.6
v 11.6 4.4 0.9
v 11.6 4.4 0.8
v 11.6 4.4 0.7
v 11.6 4.6 0.7
v 11.6 4.6 0.6
v 11.6 4.7 0.9
v 11.6 4.7 0.8
v 11.6 4.7 0.7
v 11.6 4.7 0.6
v 11.6 4.8 0.9
v 11.6 4.8 0.8
v 11.6 4.9 0.9
v 11.6 4.9 0.8
v 11.6 5 0.7
v 11.6 5 0.6
v 11.6 5.2 0.7
v 11.6 5.2 0.6
v 11.6 5.3 0.9
v 11.6 5.3 0.8
v 11.6 5.4 0.8
v 11.6 5.4 0.7
v 11.6 5.6 0.7
v 11.6 5.6 0.6
v 11.6 5.8 0.8
v 11.6 5.8 0.7
v 11.6 5.8 0.6
v 11.6 5.9 0.9
v 11.6 5.9 0.8
v 11.6 5.9 0.7
v 11.6 5.9 0.6
v 11.6 6 0.8
v 11.6 6 0.7
v 11.7 0 0.8
v 11.7 0 0.7
v 11.7 0.8 0.8
v 11.7 0.8 0.7
v 11.7 1.7 0.8
v 11.7 1.7 0.7
v 11.7 1.8 0.8
v 11.7 1.8 0.7
v 11.7 2.2 0.8
v 11.7 2.2 0.7
v 11.7 2.7 0.8
v 11.7 2.7 0.7
v 11.7 2.9 0.8
v 11.7 2.9 0.7
v 11.7 3.2 0.8
v 11.7 3.2 0.7
v 11.7 4 0.8
v 11.7 4 0.7
v 11.7 4.2 0.8
v 11.7 4.2 0.7
v 11.7 4.4 0.8
v 11.7 4.4 0.7
v 11.7 4.7 0.8
v 11.7 4.7 0.7
v 11.7 5.4 0.8
v 11.7 5.4 0.7
v 11.7 5.8 0.8
v 11.7 5.8 0.7
v 11.7 5.9 0.8
v 11.7 5.9 0.7
v 11.5 0 0.9
v 11.5 0.2 0.9
v 11.5 1 0.9
v 11.5 1.6 0.9
v 11.5 1.9 0.9
v 11.5 2.1 0.9
v 11.5 3.1 0.9
v 11.5 4.4 0.9
v 11.5 4.7 0.9
v 11.5 4.8 0.9
v 11.5 4.9 0.9
v 11.5 5.3 0.9
v 11.5 5.9 0.9
v 11.6 0 0.9
v 11.6 0.2 0.9
v 11.6 1 0.9
v 11.6 1.6 0.9
v 11.6 1.9 0.9
v 11.6 2.1 0.9
v 11.6 3.1 0.9
v 11.6 4.4 0.9
v 11.6 4.7 0.9
v 11.6 4.8 0.9
v 11.6 4.9 0.9
v 11.6 5.3 0.9
v 11.6 5.9 0.9
v 11.4 0 0.8
v 11.4 1.2 0.8
v 11.4 1.5 0.8
v 11.4 4.3 0.8
v 11.4 4.9 0.8
v 11.4 5 0.8
v 11.4 5.2 0.8
v 11.4 5.8 0.8
v 11.4 5.9 0.8
v 11.5 0 0.8
v 11.5 0.2 0.8
v 11.5 1 0.8
v 11.5 1.2 0.8
v 11.5 1.5 0.8
v 11.5 1.6 0.8
v 11.5 1.9 0.8
v 11.5 2.1 0.8
v 11.5 3.1 0.8
v 11.5 4.3 0.8
v 11.5 4.4 0.8
v 11.5 4.7 0.8
v 11.5 4.8 0.8
v 11.5 4.9 0.8
v 11.5 5 0.8
v 11.5 5.2 0.8
v 11.5 5.3 0.8
v 11.5 5.8 0.8
v 11.5 5.9 0.8
v 11.5 6 0.8
v 11.6 0 0.8
v 11.6 0.2 0.8
v 11.6 0.8 0.8
v 11.6 1 0.8
v 11.6 1.6 0.8
v 11.6 1.7 0.8
v 11.6 1.8 0.8
v 11.6 1.9 0.8
v 11.6 2.1 0.8
v 11.6 2.2 0.8
v 11.6 2.7 0.8
v 11.6 2.9 0.8
v 11.6 3.1 0.8
v 11.6 3.2 0.8
v 11.6 4 0.8
v 11.6 4.2 0.8
v 11.6 4.4 0.8
v 11.6 4.7 0.8
v 11.6 4.8 0.8
v 11.6 4.9 0.8
v 11.6 5.3 0.8
v 11.6 5.4 0.8
v 11.6 5.8 0.8
v 11.6 5.9 0.8
v 11.6 6 0.8
v 11.7 0 0.8
v 11.7 0.8 0.8
v 11.7 1.7 0.8
v 11.7 1.8 0.8
v 11.7 2.2 0.8
v 11.7 2.7 0.8
v 11.7 2.9 0.8
v 11.7 3.2 0.8
v 11.7 4 0.8
v 11.7 4.2 0.8
v 11.7 4.4 0.8
v 11.7 4.7 0.8
v 11.7 5.4 0.8
v 11.7 5.8 0.8
v 11.7 5.9 0.8
v 11.4 0 0.7
v 11.4 1.2 0.7
v 11.4 1.5 0.7
v 11.4 4.3 0.7
v 11.4 4.9 0.7
v 11.4 5 0.7
v 11.4 5.2 0.7
v 11.4 5.8 0.7
v 11.4 5.9 0.7
v 11.5 0 0.7
v 11.5 0.2 0.7
v 11.5 0.3 0.7
v 11.5 0.8 0.7
v 11.5 1.2 0.7
v 11.5 1.5 0.7
v 11.5 2 0.7
v 11.5 2.1 0.7
v 11.5 3 0.7
v 11.5 3.1 0.7
v 11.5 3.3 0.7
v 11.5 3.6 0.7
v 11.5 4 0.7
v 11.5 4.3 0.7
v 11.5 4.6 0.7
v 11.5 4.7 0.7
v 11.5 4.9 0.7
v 11.5 5 0.7
v 11.5 5.2 0.7
v 11.5 5.6 0.7
v 11.5 5.8 0.7
v 11.5 5.9 0.7
v 11.5 6 0.7
v 11.6 0 0.7
v 11.6 0.2 0.7
v 11.6 0.3 0.7
v 11.6 0.8 0.7
v 11.6 1.2 0.7
v 11.6 1.5 0.7
v 11.6 1.7 0.7
v 11.6 1.8 0.7
v 11.6 2 0.7
v 11.6 2.1 0.7
v 11.6 2.2 0.7
v 11.6 2.7 0.7
v 11.6 2.9 0.7
v 11.6 3 0.7
v 11.6 3.1 0.7
v 11.6 3.2 0.7
v 11.6 3.3 0.7
v 11.6 3.6 0.7
v 11.6 4 0.7
v 11.6 4.2 0.7
v 11.6 4.3 0.7
v 11.6 4.4 0.7
v 11.6 4.6 0.7
v 11.6 4.7 0.7
v 11.6 5 0.7
v 11.6 5.2 0.7
v 11.6 5.4 0.7
v 11.6 5.6 0.7
v 11.6 5.8 0.7
v 11.6 5.9 0.7
v 11.6 6 0.7
v 11.7 0 0.7
v 11.7 0.8 0.7
v 11.7 1.7 0.7
v 11.7 1.8 0.7
v 11.7 2.2 0.7
v 11.7 2.7 0.7
v 11.7 2.9 0.7
v 11.7 3.2 0.7
v 11.7 4 0.7
v 11.7 4.2 0.7
v 11.7 4.4 0.7
v 11.7 4.7 0.7
v 11.7 5.4 0.7
v 11.7 5.8 0.7
v 11.7 5.9 0.7
v 11.5 0 0.6
v 11.5 0.2 0.6
v 11.5 0.3 0.6
v 11.5 0.8 0.6
v 11.5 1.2 0.6
v 11.5 1.5 0.6
v 11.5 2 0.6
v 11.5 2.1 0.6
v 11.5 3 0.6
v 11.5 3.1 0.6
v 11.5 3.3 0.6
v 11.5 3.6 0.6
v 11.5 4 0.6
v 11.5 4.3 0.6
v 11.5 4.6 0.6
v 11.5 4.7 0.6
v 11.5 5 0.6
v 11.5 5.2 0.6
v 11.5 5.6 0.6
v 11.5 5.8 0.6
v 11.5 5.9 0.6
v 11.6 0 0.6
v 11.6 0.2 0.6
v 11.6 0.3 0.6
v 11.6 0.8 0.6
v 11.6 1.2 0.6
v 11.6 1.5 0.6
v 11.6 2 0.6
v 11.6 2.1 0.6
v 11.6 3 0.6
v 11.6 3.1 0.6
v 11.6 3.3 0.6
v 11.6 3.6 0.6
v 11.6 4 0.6
v 11.6 4.3 0.6
v 11.6 4.6 0.6
v 11.6 4.7 0.6
v 11.6 5 0.6
v 11.6 5.2 0.6
v 11.6 5.6 0.6
v 11.6 5.8 0.6
v 11.6 5.9 0.6
v 11.5 0 0.9
v 11.6 0 0.9
v 11.4 0 0.8
v 11.5 0 0.8
v 11.6 0 0.8
v 11.7 0 0.8
v 11.4 0 0.7
v 11.5 0 0.7
v 11.6 0 0.7
v 11.7 0 0.7
v 11.5 0 0.6
v 11.6 0 0.6
v 11.5 5.9 0.9
v 11.6 5.9 0.9
v 11.4 5.9 0.8
v 11.5 5.9 0.8
v 11.6 5.9 0.8
v 11.7 5.9 0.8
v 11.4 5.9 0.7
v 11.5 5.9 0.7
v 11.6 5.9 0.7
v 11.7 5.9 0.7
v 11.5 5.9 0.6
v 11.6 5.9 0.6
v 11.5 6 0.8
v 11.6 6 0.8
v 11.5 6 0.7
v 11.6 6 0.7

# faces
f 3/1/1 2/1/1 1/1/1
f 4/1/1 2/1/1 3/1/1
f 5/2/1 4/2/1 3/2/1
f 6/2/1 4/2/1 5/2/1
f 7/1/1 6/1/1 5/1/1
f 8/1/1 6/1/1 7/1/1
f 9/2/1 8/2/1 7/2/1
f 10/2/1 8/2/1 9/2/1
f 11/1/1 10/1/1 9/1/1
f 12/1/1 10/1/1 11/1/1
f 13/2/1 12/2/1 11/2/1
f 14/2/1 12/2/1 13/2/1
f 15/1/1 14/1/1 13/1/1
f 16/1/1 14/1/1 15/1/1
f 17/2/1 16/2/1 15/2/1
f 18/2/1 16/2/1 17/2/1
f 23/1/1 20/1/1 19/1/1
f 24/1/1 20/1/1 23/1/1
f 25/2/1 22/2/1 21/2/1
f 26/2/1 22/2/1 25/2/1
f 27/1/1 26/1/1 25/1/1
f 28/1/1 26/1/1 27/1/1
f 29/2/1 28/2/1 27/2/1
f 30/2/1 28/2/1 29/2/1
f 31/2/1 24/2/1 23/2/1
f 32/2/1 24/2/1 31/2/1
f 33/1/1 32/1/1 31/1/1
f 34/1/1 30/1/1 29/1/1
f 35/1/1 30/1/1 34/1/1
f 36/1/1 33/1/1 31/1/1
f 37/2/1 35/2/1 34/2/1
f 38/2/1 35/2/1 37/2/1
f 39/1/1 36/1/1 31/1/1
f 40/1/1 36/1/1 39/1/1
f 41/2/1 40/2/1 39/2/1
f 42/2/1 40/2/1 41/2/1
f 43/1/1 38/1/1 37/1/1
f 44/1/1 38/1/1 43/1/1
f 45/1/1 42/1/1 41/1/1
f 46/1/1 42/1/1 45/1/1
f 47/2/1 44/2/1 43/2/1
f 48/2/1 44/2/1 47/2/1
f 49/1/1 48/1/1 47/1/1
f 50/1/1 48/1/1 49/1/1
f 51/2/1 46/2/1 45/2/1
f 52/2/1 46/2/1 51/2/1
f 53/2/1 50/2/1 49/2/1
f 54/2/1 50/2/1 53/2/1
f 55/1/1 54/1/1 53/1/1
f 56/1/1 54/1/1 55/1/1
f 57/2/1 56/2/1 55/2/1
f 58/2/1 56/2/1 57/2/1
f 59/1/1 58/1/1 57/1/1
f 60/1/1 58/1/1 59/1/1
f 61/1/1 52/1/1 51/1/1
f 62/2/1 60/2/1 59/2/1
f 63/2/1 60/2/1 62/2/1
f 64/1/1 61/1/1 51/1/1
f 65/1/1 61/1/1 64/1/1
f 66/1/1 63/1/1 62/1/1
f 67/1/1 63/1/1 66/1/1
f 68/2/1 65/2/1 64/2/1
f 69/2/1 65/2/1 68/2/1
f 70/2/1 67/2/1 66/2/1
f 71/2/1 67/2/1 70/2/1
f 72/1/1 69/1/1 68/1/1
f 73/1/1 69/1/1 72/1/1
f 74/2/1 73/2/1 72/2/1
f 75/2/1 73/2/1 74/2/1
f 76/1/1 71/1/1 70/1/1
f 77/1/1 75/1/1 74/1/1
f 78/1/1 71/1/1 76/1/1
f 79/1/1 71/1/1 78/1/1
f 80/1/1 77/1/1 74/1/1
f 81/2/1 79/2/1 78/2/1
f 82/2/1 79/2/1 81/2/1
f 83/1/1 80/1/1 74/1/1
f 84/1/1 80/1/1 83/1/1
f 85/1/1 82/1/1 81/1/1
f 86/1/1 82/1/1 85/1/1
f 87/2/1 84/2/1 83/2/1
f 88/2/1 86/2/1 85/2/1
f 89/2/1 86/2/1 88/2/1
f 90/2/1 87/2/1 83/2/1
f 91/2/1 87/2/1 90/2/1
f 92/1/1 89/1/1 88/1/1
f 93/1/1 89/1/1 92/1/1
f 94/1/1 92/1/1 91/1/1
f 95/1/1 92/1/1 94/1/1
f 96/1/2 97/1/2 100/1/2
f 100/1/2 97/1/2 101/1/2
f 98/2/2 99/2/2 102/2/2
f 102/2/2 99/2/2 103/2/2
f 102/1/2 103/1/2 104/1/2
f 104/1/2 103/1/2 105/1/2
f 100/2/2 101/2/2 106/2/2
f 104/2/2 105/2/2 107/2/2
f 107/2/2 105/2/2 108/2/2
f 100/2/2 106/2/2 109/2/2
f 109/2/2 106/2/2 110/2/2
f 107/1/2 108/1/2 111/1/2
f 111/1/2 108/1/2 112/1/2
f 111/2/2 112/2/2 113/2/2
f 113/2/2 112/2/2 114/2/2
f 109/1/2 110/1/2 115/1/2
f 115/1/2 110/1/2 116/1/2
f 115/2/2 116/2/2 117/2/2
f 113/1/2 114/1/2 118/1/2
f 115/2/2 117/2/2 119/2/2
f 118/1/2 114/1/2 120/1/2
f 115/2/2 119/2/2 121/2/2
f 121/2/2 119/2/2 122/2/2
f 120/1/2 114/1/2 123/1/2
f 123/1/2 114/1/2 124/1/2
f 121/1/2 122/1/2 125/1/2
f 125/1/2 122/1/2 126/1/2
f 123/2/2 124/2/2 127/2/2
f 127/2/2 124/2/2 128/2/2
f 125/2/2 126/2/2 129/2/2
f 127/1/2 128/1/2 130/1/2
f 125/2/2 129/2/2 131/2/2
f 130/1/2 128/1/2 132/1/2
f 125/2/2 131/2/2 133/2/2
f 132/1/2 128/1/2 134/1/2
f 134/1/2 128/1/2 135/1/2
f 135/1/2 128/1/2 136/1/2
f 125/2/2 133/2/2 137/2/2
f 137/2/2 133/2/2 138/2/2
f 135/2/2 136/2/2 139/2/2
f 139/2/2 136/2/2 140/2/2
f 137/1/2 138/1/2 141/1/2
f 139/1/2 140/1/2 142/1/2
f 142/1/2 140/1/2 143/1/2
f 143/1/2 140/1/2 144/1/2
f 143/2/2 144/2/2 145/2/2
f 145/2/2 144/2/2 146/2/2
f 137/1/2 141/1/2 147/1/2
f 145/1/2 146/1/2 148/1/2
f 148/1/2 146/1/2 149/1/2
f 137/1/2 147/1/2 150/1/2
f 148/2/2 149/2/2 151/2/2
f 151/2/2 149/2/2 152/2/2
f 152/2/2 149/2/2 153/2/2
f 137/1/2 150/1/2 154/1/2
f 154/1/2 150/1/2 155/1/2
f 152/1/2 153/1/2 156/1/2
f 156/1/2 153/1/2 157/1/2
f 157/1/2 153/1/2 158/1/2
f 154/2/2 155/2/2 159/2/2
f 159/2/2 155/2/2 160/2/2
f 157/2/2 158/2/2 161/2/2
f 161/2/2 158/2/2 162/2/2
f 159/1/2 160/1/2 163/1/2
f 163/1/2 160/1/2 164/1/2
f 163/2/2 164/2/2 165/2/2
f 165/2/2 164/2/2 166/2/2
f 161/1/2 162/1/2 167/1/2
f 167/1/2 162/1/2 168/1/2
f 167/2/2 168/2/2 169/2/2
f 169/2/2 168/2/2 170/2/2
f 165/1/2 166/1/2 171/1/2
f 171/1/2 166/1/2 172/1/2
f 171/2/2 172/2/2 173/2/2
f 169/1/2 170/1/2 174/1/2
f 174/1/2 170/1/2 175/1/2
f 175/1/2 170/1/2 176/1/2
f 171/2/2 173/2/2 177/2/2
f 175/2/2 176/2/2 178/2/2
f 178/2/2 176/2/2 179/2/2
f 171/2/2 177/2/2 180/2/2
f 180/2/2 177/2/2 181/2/2
f 178/1/2 179/1/2 182/1/2
f 182/1/2 179/1/2 183/1/2
f 181/1/2 182/1/2 184/1/2
f 184/1/2 182/1/2 185/1/2
f 186/2/2 187/2/2 188/2/2
f 188/2/2 187/2/2 189/2/2
f 188/1/2 189/1/2 190/1/2
f 190/1/2 189/1/2 191/1/2
f 190/2/2 191/2/2 192/2/2
f 192/2/2 191/2/2 193/2/2
f 192/1/2 193/1/2 194/1/2
f 194/1/2 193/1/2 195/1/2
f 194/2/2 195/2/2 196/2/2
f 196/2/2 195/2/2 197/2/2
f 196/1/2 197/1/2 198/1/2
f 198/1/2 197/1/2 199/1/2
f 198/2/2 199/2/2 200/2/2
f 200/2/2 199/2/2 201/2/2
f 200/1/2 201/1/2 202/1/2
f 202/1/2 201/1/2 203/1/2
f 202/2/2 203/2/2 204/2/2
f 204/2/2 203/2/2 205/2/2
f 204/1/2 205/1/2 206/1/2
f 206/1/2 205/1/2 207/1/2
f 206/2/2 207/2/2 208/2/2
f 208/2/2 207/2/2 209/2/2
f 208/1/2 209/1/2 210/1/2
f 210/1/2 209/1/2 211/1/2
f 210/2/2 211/2/2 212/2/2
f 212/2/2 211/2/2 213/2/2
f 212/1/2 213/1/2 214/1/2
f 214/1/2 213/1/2 215/1/2
f 229/1/3 217/1/3 216/1/3
f 230/2/3 218/2/3 217/2/3
f 230/1/3 217/1/3 229/1/3
f 231/1/3 219/1/3 218/1/3
f 231/2/3 218/2/3 230/2/3
f 232/2/3 220/2/3 219/2/3
f 232/1/3 219/1/3 231/1/3
f 233/1/3 221/1/3 220/1/3
f 233/2/3 220/2/3 232/2/3
f 234/2/3 222/2/3 221/2/3
f 234/1/3 221/1/3 233/1/3
f 235/1/3 223/1/3 222/1/3
f 235/2/3 222/2/3 234/2/3
f 236/2/3 224/2/3 223/2/3
f 236/1/3 223/1/3 235/1/3
f 237/1/3 225/1/3 224/1/3
f 237/2/3 224/2/3 236/2/3
f 238/2/3 226/2/3 225/2/3
f 238/1/3 225/1/3 237/1/3
f 239/1/3 227/1/3 226/1/3
f 239/2/3 226/2/3 238/2/3
f 240/2/3 228/2/3 227/2/3
f 240/1/3 227/1/3 239/1/3
f 241/2/3 228/2/3 240/2/3
f 251/1/3 243/1/3 242/1/3
f 252/1/3 243/1/3 251/1/3
f 253/1/3 243/1/3 252/1/3
f 254/2/3 244/2/3 243/2/3
f 254/1/3 243/1/3 253/1/3
f 255/1/3 245/1/3 244/1/3
f 255/2/3 244/2/3 254/2/3
f 256/1/3 245/1/3 255/1/3
f 257/1/3 245/1/3 256/1/3
f 258/1/3 245/1/3 257/1/3
f 259/1/3 245/1/3 258/1/3
f 260/2/3 246/2/3 245/2/3
f 260/1/3 245/1/3 259/1/3
f 261/2/3 246/2/3 260/2/3
f 262/2/3 246/2/3 261/2/3
f 263/2/3 246/2/3 262/2/3
f 264/1/3 247/1/3 246/1/3
f 264/2/3 246/2/3 263/2/3
f 265/2/3 248/2/3 247/2/3
f 265/1/3 247/1/3 264/1/3
f 266/1/3 249/1/3 248/1/3
f 266/2/3 248/2/3 265/2/3
f 267/1/3 249/1/3 266/1/3
f 268/2/3 250/2/3 249/2/3
f 268/1/3 249/1/3 267/1/3
f 269/2/3 250/2/3 268/2/3
f 294/1/3 270/1/3 269/1/3
f 295/1/3 270/1/3 294/1/3
f 296/2/3 272/2/3 271/2/3
f 296/2/3 273/2/3 272/2/3
f 297/1/3 274/1/3 273/1/3
f 297/2/3 273/2/3 296/2/3
f 297/1/3 275/1/3 274/1/3
f 297/1/3 276/1/3 275/1/3
f 298/2/3 277/2/3 276/2/3
f 298/1/3 276/1/3 297/1/3
f 299/1/3 278/1/3 277/1/3
f 299/2/3 277/2/3 298/2/3
f 299/1/3 279/1/3 278/1/3
f 299/1/3 280/1/3 279/1/3
f 300/2/3 281/2/3 280/2/3
f 300/1/3 280/1/3 299/1/3
f 301/1/3 282/1/3 281/1/3
f 301/2/3 281/2/3 300/2/3
f 302/2/3 283/2/3 282/2/3
f 302/1/3 282/1/3 301/1/3
f 302/2/3 284/2/3 283/2/3
f 303/1/3 285/1/3 284/1/3
f 303/2/3 284/2/3 302/2/3
f 304/2/3 286/2/3 285/2/3
f 304/1/3 285/1/3 303/1/3
f 305/1/3 287/1/3 286/1/3
f 305/2/3 286/2/3 304/2/3
f 306/2/3 288/2/3 287/2/3
f 306/1/3 287/1/3 305/1/3
f 307/1/3 292/1/3 291/1/3
f 307/2/3 288/2/3 306/2/3
f 307/1/3 291/1/3 290/1/3
f 307/1/3 290/1/3 289/1/3
f 307/1/3 289/1/3 288/1/3
f 308/2/3 293/2/3 292/2/3
f 308/1/3 292/1/3 307/1/3
f 309/1/3 294/1/3 293/1/3
f 309/2/3 293/2/3 308/2/3
f 310/1/3 294/1/3 309/1/3
f 311/1/4 312/1/4 320/1/4
f 320/1/4 312/1/4 321/1/4
f 321/1/4 312/1/4 322/1/4
f 322/1/4 312/1/4 323/1/4
f 312/2/4 313/2/4 324/2/4
f 323/1/4 312/1/4 324/1/4
f 313/1/4 314/1/4 325/1/4
f 324/2/4 313/2/4 325/2/4
f 325/1/4 314/1/4 326/1/4
f 326/1/4 314/1/4 327/1/4
f 327/1/4 314/1/4 328/1/4
f 328/1/4 314/1/4 329/1/4
f 329/1/4 314/1/4 330/1/4
f 330/1/4 314/1/4 331/1/4
f 331/1/4 314/1/4 332/1/4
f 314/2/4 315/2/4 333/2/4
f 332/1/4 314/1/4 333/1/4
f 333/2/4 315/2/4 334/2/4
f 334/2/4 315/2/4 335/2/4
f 315/1/4 316/1/4 336/1/4
f 335/2/4 315/2/4 336/2/4
f 316/2/4 317/2/4 337/2/4
f 336/1/4 316/1/4 337/1/4
f 317/1/4 318/1/4 338/1/4
f 337/2/4 317/2/4 338/2/4
f 338/1/4 318/1/4 339/1/4
f 318/2/4 319/2/4 340/2/4
f 339/1/4 318/1/4 340/1/4
f 340/2/4 319/2/4 341/2/4
f 341/1/4 342/1/4 372/1/4
f 372/1/4 342/1/4 373/1/4
f 343/2/4 344/2/4 374/2/4
f 344/2/4 345/2/4 374/2/4
f 345/2/4 346/2/4 374/2/4
f 346/1/4 347/1/4 375/1/4
f 374/2/4 346/2/4 375/2/4
f 347/1/4 348/1/4 375/1/4
f 348/1/4 349/1/4 375/1/4
f 349/2/4 350/2/4 376/2/4
f 375/1/4 349/1/4 376/1/4
f 350/1/4 351/1/4 377/1/4
f 376/2/4 350/2/4 377/2/4
f 351/1/4 352/1/4 377/1/4
f 352/1/4 353/1/4 377/1/4
f 353/2/4 354/2/4 378/2/4
f 377/1/4 353/1/4 378/1/4
f 354/1/4 355/1/4 379/1/4
f 378/2/4 354/2/4 379/2/4
f 355/2/4 356/2/4 380/2/4
f 379/1/4 355/1/4 380/1/4
f 356/2/4 357/2/4 380/2/4
f 357/2/4 358/2/4 380/2/4
f 358/1/4 359/1/4 381/1/4
f 380/2/4 358/2/4 381/2/4
f 359/1/4 360/1/4 381/1/4
f 360/1/4 361/1/4 381/1/4
f 361/2/4 362/2/4 382/2/4
f 381/1/4 361/1/4 382/1/4
f 363/1/4 364/1/4 383/1/4
f 382/2/4 362/2/4 383/2/4
f 362/1/4 363/1/4 383/1/4
f 365/2/4 366/2/4 384/2/4
f 383/1/4 364/1/4 384/1/4
f 364/2/4 365/2/4 384/2/4
f 368/1/4 369/1/4 385/1/4
f 384/2/4 366/2/4 385/2/4
f 367/1/4 368/1/4 385/1/4
f 366/1/4 367/1/4 385/1/4
f 370/2/4 371/2/4 386/2/4
f 385/1/4 369/1/4 386/1/4
f 369/2/4 370/2/4 386/2/4
f 371/1/4 372/1/4 387/1/4
f 386/2/4 371/2/4 387/2/4
f 387/1/4 372/1/4 388/1/4
f 389/2/4 390/2/4 410/2/4
f 390/1/4 391/1/4 411/1/4
f 410/2/4 390/2/4 411/2/4
f 391/2/4 392/2/4 412/2/4
f 411/1/4 391/1/4 412/1/4
f 392/1/4 393/1/4 413/1/4
f 412/2/4 392/2/4 413/2/4
f 393/2/4 394/2/4 414/2/4
f 413/1/4 393/1/4 414/1/4
f 394/1/4 395/1/4 415/1/4
f 414/2/4 394/2/4 415/2/4
f 395/2/4 396/2/4 416/2/4
f 415/1/4 395/1/4 416/1/4
f 396/1/4 397/1/4 417/1/4
f 416/2/4 396/2/4 417/2/4
f 397/2/4 398/2/4 418/2/4
f 417/1/4 397/1/4 418/1/4
f 398/1/4 399/1/4 419/1/4
f 418/2/4 398/2/4 419/2/4
f 399/2/4 400/2/4 420/2/4
f 419/1/4 399/1/4 420/1/4
f 400/1/4 401/1/4 421/1/4
f 420/2/4 400/2/4 421/2/4
f 401/2/4 402/2/4 422/2/4
f 421/1/4 401/1/4 422/1/4
f 402/1/4 403/1/4 423/1/4
f 422/2/4 402/2/4 423/2/4
f 403/2/4 404/2/4 424/2/4
f 423/1/4 403/1/4 424/1/4
f 404/1/4 405/1/4 425/1/4
f 424/2/4 404/2/4 425/2/4
f 405/2/4 406/2/4 426/2/4
f 425/1/4 405/1/4 426/1/4
f 406/1/4 407/1/4 427/1/4
f 426/2/4 406/2/4 427/2/4
f 407/2/4 408/2/4 428/2/4
f 427/1/4 407/1/4 428/1/4
f 408/1/4 409/1/4 429/1/4
f 428/2/4 408/2/4 429/2/4
f 429/1/4 409/1/4 430/1/4
f 434/1/5 432/1/5 431/1/5
f 435/1/5 432/1/5 434/1/5
f 437/1/5 434/1/5 433/1/5
f 438/2/5 436/2/5 435/2/5
f 438/1/5 434/1/5 437/1/5
f 438/2/5 435/2/5 434/2/5
f 439/2/5 436/2/5 438/2/5
f 440/2/5 436/2/5 439/2/5
f 441/2/5 439/2/5 438/2/5
f 442/2/5 439/2/5 441/2/5
f 443/2/6 444/2/6 446/2/6
f 446/2/6 444/2/6 447/2/6
f 445/2/6 446/2/6 449/2/6
f 449/2/6 446/2/6 450/2/6
f 447/1/6 448/1/6 451/1/6
f 451/1/6 448/1/6 452/1/6
f 450/1/6 451/1/6 453/1/6
f 453/1/6 451/1/6 454/1/6
f 455/1/6 456/1/6 457/1/6
f 457/1/6 456/1/6 458/1/6
