# MagicaVoxel @ Ephtracy

# group
o Weapon - Arrow

# material
mtllib Medieval Assets-137-Weapon - Arrow.mtl
usemtl palette

# normals
vn 0 0 1
vn 0 0 -1
vn -1 0 0
vn 1 0 0
vn 0 1 0
vn 0 -1 0

# texcoords
vt 0.130859 0.5
vt 0.138672 0.5
vt 0.193359 0.5

# verts
v -30 1.7 -9.4
v -29.7 1.7 -9.4
v -30 1.6 -9.4
v -29.7 1.6 -9.4
v -30 1.8 -9.5
v -29.7 1.8 -9.5
v -30 1.7 -9.5
v -29.7 1.7 -9.5
v -28.5 1.7 -9.5
v -28.4 1.7 -9.5
v -30 1.6 -9.5
v -29.7 1.6 -9.5
v -28.5 1.6 -9.5
v -28.4 1.6 -9.5
v -30 1.5 -9.5
v -29.7 1.5 -9.5
v -30 1.8 -9.6
v -29.7 1.8 -9.6
v -30 1.7 -9.6
v -29.7 1.7 -9.6
v -28.5 1.7 -9.6
v -28.4 1.7 -9.6
v -30 1.6 -9.6
v -29.7 1.6 -9.6
v -28.5 1.6 -9.6
v -28.4 1.6 -9.6
v -30 1.5 -9.6
v -29.7 1.5 -9.6
v -30 1.7 -9.7
v -29.7 1.7 -9.7
v -30 1.6 -9.7
v -29.7 1.6 -9.7
v -30 1.7 -9.4
v -30 1.6 -9.4
v -30 1.8 -9.5
v -30 1.7 -9.5
v -30 1.6 -9.5
v -30 1.5 -9.5
v -30 1.8 -9.6
v -30 1.7 -9.6
v -30 1.6 -9.6
v -30 1.5 -9.6
v -30 1.7 -9.7
v -30 1.6 -9.7
v -29.7 1.7 -9.4
v -29.7 1.6 -9.4
v -29.7 1.8 -9.5
v -29.7 1.7 -9.5
v -29.7 1.6 -9.5
v -29.7 1.5 -9.5
v -29.7 1.8 -9.6
v -29.7 1.7 -9.6
v -29.7 1.6 -9.6
v -29.7 1.5 -9.6
v -29.7 1.7 -9.7
v -29.7 1.6 -9.7
v -28.4 1.7 -9.5
v -28.4 1.6 -9.5
v -28.4 1.7 -9.6
v -28.4 1.6 -9.6
v -30 1.8 -9.5
v -30 1.8 -9.6
v -29.7 1.8 -9.5
v -29.7 1.8 -9.6
v -30 1.7 -9.4
v -30 1.7 -9.5
v -30 1.7 -9.6
v -30 1.7 -9.7
v -29.7 1.7 -9.4
v -29.7 1.7 -9.5
v -29.7 1.7 -9.6
v -29.7 1.7 -9.7
v -28.5 1.7 -9.5
v -28.5 1.7 -9.6
v -28.4 1.7 -9.5
v -28.4 1.7 -9.6
v -30 1.6 -9.4
v -30 1.6 -9.5
v -30 1.6 -9.6
v -30 1.6 -9.7
v -29.7 1.6 -9.4
v -29.7 1.6 -9.5
v -29.7 1.6 -9.6
v -29.7 1.6 -9.7
v -28.5 1.6 -9.5
v -28.5 1.6 -9.6
v -28.4 1.6 -9.5
v -28.4 1.6 -9.6
v -30 1.5 -9.5
v -30 1.5 -9.6
v -29.7 1.5 -9.5
v -29.7 1.5 -9.6

# faces
f 3/1/1 2/1/1 1/1/1
f 4/1/1 2/1/1 3/1/1
f 7/1/1 6/1/1 5/1/1
f 8/1/1 6/1/1 7/1/1
f 12/3/1 9/3/1 8/3/1
f 13/2/1 10/2/1 9/2/1
f 13/3/1 9/3/1 12/3/1
f 14/2/1 10/2/1 13/2/1
f 15/1/1 12/1/1 11/1/1
f 16/1/1 12/1/1 15/1/1
f 17/1/2 18/1/2 19/1/2
f 19/1/2 18/1/2 20/1/2
f 20/3/2 21/3/2 24/3/2
f 21/2/2 22/2/2 25/2/2
f 24/3/2 21/3/2 25/3/2
f 25/2/2 22/2/2 26/2/2
f 23/1/2 24/1/2 27/1/2
f 27/1/2 24/1/2 28/1/2
f 29/1/2 30/1/2 31/1/2
f 31/1/2 30/1/2 32/1/2
f 36/1/3 34/1/3 33/1/3
f 37/1/3 34/1/3 36/1/3
f 39/1/3 36/1/3 35/1/3
f 40/3/3 37/3/3 36/3/3
f 40/1/3 36/1/3 39/1/3
f 41/1/3 38/1/3 37/1/3
f 41/3/3 37/3/3 40/3/3
f 42/1/3 38/1/3 41/1/3
f 43/1/3 41/1/3 40/1/3
f 44/1/3 41/1/3 43/1/3
f 45/1/4 46/1/4 48/1/4
f 48/1/4 46/1/4 49/1/4
f 47/1/4 48/1/4 51/1/4
f 51/1/4 48/1/4 52/1/4
f 49/1/4 50/1/4 53/1/4
f 53/1/4 50/1/4 54/1/4
f 52/1/4 53/1/4 55/1/4
f 55/1/4 53/1/4 56/1/4
f 57/2/4 58/2/4 59/2/4
f 59/2/4 58/2/4 60/2/4
f 63/1/5 62/1/5 61/1/5
f 64/1/5 62/1/5 63/1/5
f 69/1/5 66/1/5 65/1/5
f 70/1/5 66/1/5 69/1/5
f 71/1/5 68/1/5 67/1/5
f 72/1/5 68/1/5 71/1/5
f 73/3/5 71/3/5 70/3/5
f 74/3/5 71/3/5 73/3/5
f 75/2/5 74/2/5 73/2/5
f 76/2/5 74/2/5 75/2/5
f 77/1/6 78/1/6 81/1/6
f 81/1/6 78/1/6 82/1/6
f 79/1/6 80/1/6 83/1/6
f 83/1/6 80/1/6 84/1/6
f 82/3/6 83/3/6 85/3/6
f 85/3/6 83/3/6 86/3/6
f 85/2/6 86/2/6 87/2/6
f 87/2/6 86/2/6 88/2/6
f 89/1/6 90/1/6 91/1/6
f 91/1/6 90/1/6 92/1/6
