# MagicaVoxel @ Ephtracy

# group
o Decoration - Box - Variant5

# material
mtllib Medieval Assets-139-Decoration - Box - Variant5.mtl
usemtl palette

# normals
vn -1 0 0
vn 1 0 0
vn 0 0 1
vn 0 0 -1
vn 0 -1 0
vn 0 1 0

# texcoords
vt 0.166016 0.5
vt 0.181641 0.5
vt 0.189453 0.5
vt 0.201172 0.5

# verts
v -8.4 -0.1 -8.1
v -8.4 -0.1 -9.2
v -8.4 0 -8.2
v -8.4 0 -9.1
v -8.4 0.2 -8.4
v -8.4 0.2 -8.9
v -8.4 0.7 -8.4
v -8.4 0.7 -8.9
v -8.4 0.9 -8.2
v -8.4 0.9 -9.1
v -8.4 1 -8.1
v -8.4 1 -9.2
v -8.3 0.2 -8.4
v -8.3 0.2 -8.9
v -8.3 0.7 -8.4
v -8.3 0.7 -8.9
v -7.6 -0.1 -8.4
v -7.6 -0.1 -8.9
v -7.6 0 -8.4
v -7.6 0 -8.9
v -7.6 0.2 -8.1
v -7.6 0.2 -8.2
v -7.6 0.2 -9.1
v -7.6 0.2 -9.2
v -7.6 0.7 -8.1
v -7.6 0.7 -8.2
v -7.6 0.7 -9.1
v -7.6 0.7 -9.2
v -7.6 0.9 -8.4
v -7.6 0.9 -8.9
v -7.6 1 -8.4
v -7.6 1 -8.9
v -8.1 -0.1 -8.4
v -8.1 -0.1 -8.9
v -8.1 0 -8.4
v -8.1 0 -8.9
v -8.1 0.2 -8.1
v -8.1 0.2 -8.2
v -8.1 0.2 -9.1
v -8.1 0.2 -9.2
v -8.1 0.7 -8.1
v -8.1 0.7 -8.2
v -8.1 0.7 -9.1
v -8.1 0.7 -9.2
v -8.1 0.9 -8.4
v -8.1 0.9 -8.9
v -8.1 1 -8.4
v -8.1 1 -8.9
v -7.4 0.2 -8.4
v -7.4 0.2 -8.9
v -7.4 0.7 -8.4
v -7.4 0.7 -8.9
v -7.3 -0.1 -8.1
v -7.3 -0.1 -9.2
v -7.3 0 -8.2
v -7.3 0 -9.1
v -7.3 0.2 -8.4
v -7.3 0.2 -8.9
v -7.3 0.7 -8.4
v -7.3 0.7 -8.9
v -7.3 0.9 -8.2
v -7.3 0.9 -9.1
v -7.3 1 -8.1
v -7.3 1 -9.2
v -8.4 -0.1 -8.1
v -8.4 1 -8.1
v -8.3 0 -8.1
v -8.3 0.9 -8.1
v -8.1 0.2 -8.1
v -8.1 0.7 -8.1
v -7.6 0.2 -8.1
v -7.6 0.7 -8.1
v -7.4 0 -8.1
v -7.4 0.9 -8.1
v -7.3 -0.1 -8.1
v -7.3 1 -8.1
v -8.1 0.2 -8.2
v -8.1 0.7 -8.2
v -7.6 0.2 -8.2
v -7.6 0.7 -8.2
v -8.4 0.2 -8.9
v -8.4 0.7 -8.9
v -8.3 0.2 -8.9
v -8.3 0.7 -8.9
v -8.1 -0.1 -8.9
v -8.1 0 -8.9
v -8.1 0.9 -8.9
v -8.1 1 -8.9
v -7.6 -0.1 -8.9
v -7.6 0 -8.9
v -7.6 0.9 -8.9
v -7.6 1 -8.9
v -7.4 0.2 -8.9
v -7.4 0.7 -8.9
v -7.3 0.2 -8.9
v -7.3 0.7 -8.9
v -8.4 0.2 -8.4
v -8.4 0.7 -8.4
v -8.3 0.2 -8.4
v -8.3 0.7 -8.4
v -8.1 -0.1 -8.4
v -8.1 0 -8.4
v -8.1 0.9 -8.4
v -8.1 1 -8.4
v -7.6 -0.1 -8.4
v -7.6 0 -8.4
v -7.6 0.9 -8.4
v -7.6 1 -8.4
v -7.4 0.2 -8.4
v -7.4 0.7 -8.4
v -7.3 0.2 -8.4
v -7.3 0.7 -8.4
v -8.1 0.2 -9.1
v -8.1 0.7 -9.1
v -7.6 0.2 -9.1
v -7.6 0.7 -9.1
v -8.4 -0.1 -9.2
v -8.4 1 -9.2
v -8.3 0 -9.2
v -8.3 0.9 -9.2
v -8.1 0.2 -9.2
v -8.1 0.7 -9.2
v -7.6 0.2 -9.2
v -7.6 0.7 -9.2
v -7.4 0 -9.2
v -7.4 0.9 -9.2
v -7.3 -0.1 -9.2
v -7.3 1 -9.2
v -8.4 -0.1 -8.1
v -7.3 -0.1 -8.1
v -8.3 -0.1 -8.2
v -7.4 -0.1 -8.2
v -8.1 -0.1 -8.4
v -7.6 -0.1 -8.4
v -8.1 -0.1 -8.9
v -7.6 -0.1 -8.9
v -8.3 -0.1 -9.1
v -7.4 -0.1 -9.1
v -8.4 -0.1 -9.2
v -7.3 -0.1 -9.2
v -8.1 0 -8.4
v -7.6 0 -8.4
v -8.1 0 -8.9
v -7.6 0 -8.9
v -8.1 0.7 -8.1
v -7.6 0.7 -8.1
v -8.1 0.7 -8.2
v -7.6 0.7 -8.2
v -8.4 0.7 -8.4
v -8.3 0.7 -8.4
v -7.4 0.7 -8.4
v -7.3 0.7 -8.4
v -8.4 0.7 -8.9
v -8.3 0.7 -8.9
v -7.4 0.7 -8.9
v -7.3 0.7 -8.9
v -8.1 0.7 -9.1
v -7.6 0.7 -9.1
v -8.1 0.7 -9.2
v -7.6 0.7 -9.2
v -8.1 0.2 -8.1
v -7.6 0.2 -8.1
v -8.1 0.2 -8.2
v -7.6 0.2 -8.2
v -8.4 0.2 -8.4
v -8.3 0.2 -8.4
v -7.4 0.2 -8.4
v -7.3 0.2 -8.4
v -8.4 0.2 -8.9
v -8.3 0.2 -8.9
v -7.4 0.2 -8.9
v -7.3 0.2 -8.9
v -8.1 0.2 -9.1
v -7.6 0.2 -9.1
v -8.1 0.2 -9.2
v -7.6 0.2 -9.2
v -8.1 0.9 -8.4
v -7.6 0.9 -8.4
v -8.1 0.9 -8.9
v -7.6 0.9 -8.9
v -8.4 1 -8.1
v -7.3 1 -8.1
v -8.3 1 -8.2
v -7.4 1 -8.2
v -8.1 1 -8.4
v -7.6 1 -8.4
v -8.1 1 -8.9
v -7.6 1 -8.9
v -8.3 1 -9.1
v -7.4 1 -9.1
v -8.4 1 -9.2
v -7.3 1 -9.2

# faces
f 3/1/1 2/1/1 1/1/1
f 4/1/1 2/1/1 3/1/1
f 5/4/1 4/4/1 3/4/1
f 6/4/1 4/4/1 5/4/1
f 7/4/1 5/4/1 3/4/1
f 8/4/1 4/4/1 6/4/1
f 9/1/1 3/1/1 1/1/1
f 9/4/1 8/4/1 7/4/1
f 9/4/1 7/4/1 3/4/1
f 10/4/1 4/4/1 8/4/1
f 10/4/1 8/4/1 9/4/1
f 10/1/1 2/1/1 4/1/1
f 11/1/1 9/1/1 1/1/1
f 11/1/1 10/1/1 9/1/1
f 12/1/1 2/1/1 10/1/1
f 12/1/1 10/1/1 11/1/1
f 15/3/1 14/3/1 13/3/1
f 16/3/1 14/3/1 15/3/1
f 19/4/1 18/4/1 17/4/1
f 20/4/1 18/4/1 19/4/1
f 25/4/1 22/4/1 21/4/1
f 26/4/1 22/4/1 25/4/1
f 27/4/1 24/4/1 23/4/1
f 28/4/1 24/4/1 27/4/1
f 31/4/1 30/4/1 29/4/1
f 32/4/1 30/4/1 31/4/1
f 33/4/2 34/4/2 35/4/2
f 35/4/2 34/4/2 36/4/2
f 37/4/2 38/4/2 41/4/2
f 41/4/2 38/4/2 42/4/2
f 39/4/2 40/4/2 43/4/2
f 43/4/2 40/4/2 44/4/2
f 45/4/2 46/4/2 47/4/2
f 47/4/2 46/4/2 48/4/2
f 49/3/2 50/3/2 51/3/2
f 51/3/2 50/3/2 52/3/2
f 53/1/2 54/1/2 55/1/2
f 55/1/2 54/1/2 56/1/2
f 55/4/2 56/4/2 57/4/2
f 57/4/2 56/4/2 58/4/2
f 55/4/2 57/4/2 59/4/2
f 58/4/2 56/4/2 60/4/2
f 53/1/2 55/1/2 61/1/2
f 59/4/2 60/4/2 61/4/2
f 55/4/2 59/4/2 61/4/2
f 60/4/2 56/4/2 62/4/2
f 61/4/2 60/4/2 62/4/2
f 56/1/2 54/1/2 62/1/2
f 53/1/2 61/1/2 63/1/2
f 61/1/2 62/1/2 63/1/2
f 62/1/2 54/1/2 64/1/2
f 63/1/2 62/1/2 64/1/2
f 67/1/3 66/1/3 65/1/3
f 68/1/3 66/1/3 67/1/3
f 69/4/3 68/4/3 67/4/3
f 70/4/3 68/4/3 69/4/3
f 71/4/3 69/4/3 67/4/3
f 72/4/3 68/4/3 70/4/3
f 73/1/3 67/1/3 65/1/3
f 73/4/3 72/4/3 71/4/3
f 73/4/3 71/4/3 67/4/3
f 74/4/3 68/4/3 72/4/3
f 74/4/3 72/4/3 73/4/3
f 74/1/3 66/1/3 68/1/3
f 75/1/3 73/1/3 65/1/3
f 75/1/3 74/1/3 73/1/3
f 76/1/3 66/1/3 74/1/3
f 76/1/3 74/1/3 75/1/3
f 79/3/3 78/3/3 77/3/3
f 80/3/3 78/3/3 79/3/3
f 83/4/3 82/4/3 81/4/3
f 84/4/3 82/4/3 83/4/3
f 89/4/3 86/4/3 85/4/3
f 90/4/3 86/4/3 89/4/3
f 91/4/3 88/4/3 87/4/3
f 92/4/3 88/4/3 91/4/3
f 95/4/3 94/4/3 93/4/3
f 96/4/3 94/4/3 95/4/3
f 97/4/4 98/4/4 99/4/4
f 99/4/4 98/4/4 100/4/4
f 101/4/4 102/4/4 105/4/4
f 105/4/4 102/4/4 106/4/4
f 103/4/4 104/4/4 107/4/4
f 107/4/4 104/4/4 108/4/4
f 109/4/4 110/4/4 111/4/4
f 111/4/4 110/4/4 112/4/4
f 113/3/4 114/3/4 115/3/4
f 115/3/4 114/3/4 116/3/4
f 117/1/4 118/1/4 119/1/4
f 119/1/4 118/1/4 120/1/4
f 119/4/4 120/4/4 121/4/4
f 121/4/4 120/4/4 122/4/4
f 119/4/4 121/4/4 123/4/4
f 122/4/4 120/4/4 124/4/4
f 117/1/4 119/1/4 125/1/4
f 123/4/4 124/4/4 125/4/4
f 119/4/4 123/4/4 125/4/4
f 124/4/4 120/4/4 126/4/4
f 125/4/4 124/4/4 126/4/4
f 120/1/4 118/1/4 126/1/4
f 117/1/4 125/1/4 127/1/4
f 125/1/4 126/1/4 127/1/4
f 126/1/4 118/1/4 128/1/4
f 127/1/4 126/1/4 128/1/4
f 131/1/5 130/1/5 129/1/5
f 132/1/5 130/1/5 131/1/5
f 133/4/5 132/4/5 131/4/5
f 134/4/5 132/4/5 133/4/5
f 135/4/5 133/4/5 131/4/5
f 136/4/5 132/4/5 134/4/5
f 137/1/5 131/1/5 129/1/5
f 137/4/5 136/4/5 135/4/5
f 137/4/5 135/4/5 131/4/5
f 138/4/5 132/4/5 136/4/5
f 138/4/5 136/4/5 137/4/5
f 138/1/5 130/1/5 132/1/5
f 139/1/5 137/1/5 129/1/5
f 139/1/5 138/1/5 137/1/5
f 140/1/5 130/1/5 138/1/5
f 140/1/5 138/1/5 139/1/5
f 143/3/5 142/3/5 141/3/5
f 144/3/5 142/3/5 143/3/5
f 147/4/5 146/4/5 145/4/5
f 148/4/5 146/4/5 147/4/5
f 153/4/5 150/4/5 149/4/5
f 154/4/5 150/4/5 153/4/5
f 155/4/5 152/4/5 151/4/5
f 156/4/5 152/4/5 155/4/5
f 159/4/5 158/4/5 157/4/5
f 160/4/5 158/4/5 159/4/5
f 161/4/6 162/4/6 163/4/6
f 163/4/6 162/4/6 164/4/6
f 165/4/6 166/4/6 169/4/6
f 169/4/6 166/4/6 170/4/6
f 167/4/6 168/4/6 171/4/6
f 171/4/6 168/4/6 172/4/6
f 173/4/6 174/4/6 175/4/6
f 175/4/6 174/4/6 176/4/6
f 177/3/6 178/3/6 179/3/6
f 179/3/6 178/3/6 180/3/6
f 181/1/6 182/1/6 183/1/6
f 183/1/6 182/1/6 184/1/6
f 183/4/6 184/4/6 185/4/6
f 185/4/6 184/4/6 186/4/6
f 183/4/6 185/4/6 187/4/6
f 186/4/6 184/4/6 188/4/6
f 181/1/6 183/1/6 189/1/6
f 187/4/6 188/4/6 189/4/6
f 183/4/6 187/4/6 189/4/6
f 188/4/6 184/4/6 190/4/6
f 189/4/6 188/4/6 190/4/6
f 184/1/6 182/1/6 190/1/6
f 181/1/6 189/1/6 191/1/6
f 189/1/6 190/1/6 191/1/6
f 190/1/6 182/1/6 192/1/6
f 191/1/6 190/1/6 192/1/6
