# MagicaVoxel @ Ephtracy

# group
o Resource - Herb - Flax

# material
mtllib Medieval Assets-315-Resource - Herb - Flax.mtl
usemtl palette

# normals
vn -1 0 0
vn 1 0 0
vn 0 0 1
vn 0 0 -1
vn 0 -1 0
vn 0 1 0

# texcoords
vt 0.130859 0.5
vt 0.177734 0.5

# verts
v 4.8 0.5 32.8
v 4.8 0.5 32.7
v 4.8 0.6 32.8
v 4.8 0.6 32.7
v 5 0.3 32.8
v 5 0.3 32.7
v 5 0.4 32.8
v 5 0.4 32.7
v 5.1 0 32.8
v 5.1 0 32.7
v 5.1 0.2 33.1
v 5.1 0.2 33
v 5.1 0.2 32.8
v 5.1 0.2 32.7
v 5.1 0.2 32.6
v 5.1 0.3 33.1
v 5.1 0.3 33
v 5.1 0.3 32.8
v 5.1 0.3 32.7
v 5.1 0.3 32.6
v 5.1 0.4 32.8
v 5.1 0.4 32.7
v 5.1 0.4 32.4
v 5.1 0.4 32.3
v 5.1 0.5 32.8
v 5.1 0.5 32.7
v 5.1 0.5 32.5
v 5.1 0.5 32.4
v 5.1 0.5 32.3
v 5.1 0.6 32.8
v 5.1 0.6 32.7
v 5.1 0.6 32.5
v 5.1 0.6 32.4
v 5.1 0.7 33.1
v 5.1 0.7 33
v 5.1 0.7 32.8
v 5.1 0.8 33.1
v 5.1 0.8 33
v 5.1 0.8 32.8
v 5.1 0.9 32.8
v 5.1 0.9 32.7
v 5.1 1 32.8
v 5.1 1 32.7
v 5.3 0.4 32.8
v 5.3 0.4 32.7
v 5.3 0.5 32.8
v 5.3 0.5 32.7
v 5.4 0.3 32.7
v 5.4 0.3 32.6
v 5.4 0.4 32.7
v 5.4 0.4 32.6
v 5.5 0.4 32.8
v 5.5 0.4 32.7
v 5.5 0.5 32.8
v 5.5 0.5 32.7
v 5.2 0 32.8
v 5.2 0 32.7
v 5.2 0.2 33.1
v 5.2 0.2 33
v 5.2 0.2 32.8
v 5.2 0.2 32.7
v 5.2 0.2 32.6
v 5.2 0.3 33.1
v 5.2 0.3 33
v 5.2 0.3 32.8
v 5.2 0.3 32.7
v 5.2 0.3 32.6
v 5.2 0.4 32.8
v 5.2 0.4 32.7
v 5.2 0.4 32.4
v 5.2 0.4 32.3
v 5.2 0.5 32.7
v 5.2 0.5 32.5
v 5.2 0.5 32.4
v 5.2 0.5 32.3
v 5.2 0.6 32.8
v 5.2 0.6 32.7
v 5.2 0.6 32.5
v 5.2 0.6 32.4
v 5.2 0.7 33.1
v 5.2 0.7 33
v 5.2 0.7 32.8
v 5.2 0.7 32.7
v 5.2 0.8 33.1
v 5.2 0.8 33
v 5.2 0.8 32.8
v 5.2 0.9 32.8
v 5.2 0.9 32.7
v 5.2 1 32.8
v 5.2 1 32.7
v 5.3 0.6 32.8
v 5.3 0.6 32.7
v 5.3 0.7 32.8
v 5.3 0.7 32.7
v 5.4 0.4 32.8
v 5.4 0.4 32.7
v 5.4 0.5 32.8
v 5.4 0.5 32.7
v 5.5 0.3 32.8
v 5.5 0.3 32.7
v 5.5 0.3 32.6
v 5.5 0.4 32.8
v 5.5 0.4 32.7
v 5.5 0.4 32.6
v 5.7 0.4 32.8
v 5.7 0.4 32.7
v 5.7 0.5 32.8
v 5.7 0.5 32.7
v 5.1 0.2 33.1
v 5.1 0.3 33.1
v 5.1 0.7 33.1
v 5.1 0.8 33.1
v 5.2 0.2 33.1
v 5.2 0.3 33.1
v 5.2 0.7 33.1
v 5.2 0.8 33.1
v 4.8 0.5 32.8
v 4.8 0.6 32.8
v 4.9 0.5 32.8
v 4.9 0.6 32.8
v 5 0.3 32.8
v 5 0.4 32.8
v 5.1 0 32.8
v 5.1 0.2 32.8
v 5.1 0.3 32.8
v 5.1 0.4 32.8
v 5.1 0.5 32.8
v 5.1 0.6 32.8
v 5.1 0.7 32.8
v 5.1 0.8 32.8
v 5.1 0.9 32.8
v 5.1 1 32.8
v 5.2 0 32.8
v 5.2 0.2 32.8
v 5.2 0.3 32.8
v 5.2 0.4 32.8
v 5.2 0.6 32.8
v 5.2 0.7 32.8
v 5.2 0.8 32.8
v 5.2 0.9 32.8
v 5.2 1 32.8
v 5.3 0.4 32.8
v 5.3 0.5 32.8
v 5.3 0.6 32.8
v 5.3 0.7 32.8
v 5.4 0.4 32.8
v 5.4 0.5 32.8
v 5.5 0.3 32.8
v 5.5 0.4 32.8
v 5.5 0.5 32.8
v 5.6 0.4 32.8
v 5.6 0.5 32.8
v 5.7 0.4 32.8
v 5.7 0.5 32.8
v 5.1 0.5 32.5
v 5.1 0.6 32.5
v 5.2 0.5 32.5
v 5.2 0.6 32.5
v 4.8 0.5 32.7
v 4.8 0.6 32.7
v 4.9 0.5 32.7
v 4.9 0.6 32.7
v 5 0.3 32.7
v 5 0.4 32.7
v 5.1 0 32.7
v 5.1 0.2 32.7
v 5.1 0.3 32.7
v 5.1 0.4 32.7
v 5.1 0.5 32.7
v 5.1 0.6 32.7
v 5.1 0.9 32.7
v 5.1 1 32.7
v 5.2 0 32.7
v 5.2 0.2 32.7
v 5.2 0.3 32.7
v 5.2 0.4 32.7
v 5.2 0.5 32.7
v 5.2 0.6 32.7
v 5.2 0.7 32.7
v 5.2 0.9 32.7
v 5.2 1 32.7
v 5.3 0.4 32.7
v 5.3 0.5 32.7
v 5.3 0.6 32.7
v 5.3 0.7 32.7
v 5.4 0.3 32.7
v 5.4 0.4 32.7
v 5.4 0.5 32.7
v 5.5 0.4 32.7
v 5.5 0.5 32.7
v 5.6 0.4 32.7
v 5.6 0.5 32.7
v 5.7 0.4 32.7
v 5.7 0.5 32.7
v 5.1 0.2 32.6
v 5.1 0.3 32.6
v 5.2 0.2 32.6
v 5.2 0.3 32.6
v 5.4 0.3 32.6
v 5.4 0.4 32.6
v 5.5 0.3 32.6
v 5.5 0.4 32.6
v 5.1 0.5 32.4
v 5.1 0.6 32.4
v 5.2 0.5 32.4
v 5.2 0.6 32.4
v 5.1 0.4 32.3
v 5.1 0.5 32.3
v 5.2 0.4 32.3
v 5.2 0.5 32.3
v 5.1 0 32.8
v 5.2 0 32.8
v 5.1 0 32.7
v 5.2 0 32.7
v 5.1 0.2 33.1
v 5.2 0.2 33.1
v 5.1 0.2 33
v 5.2 0.2 33
v 5.1 0.2 32.8
v 5.2 0.2 32.8
v 5.1 0.2 32.7
v 5.2 0.2 32.7
v 5.1 0.2 32.6
v 5.2 0.2 32.6
v 5 0.3 32.8
v 5.1 0.3 32.8
v 5.2 0.3 32.8
v 5.5 0.3 32.8
v 5 0.3 32.7
v 5.1 0.3 32.7
v 5.2 0.3 32.7
v 5.4 0.3 32.7
v 5.5 0.3 32.7
v 5.4 0.3 32.6
v 5.5 0.3 32.6
v 5.5 0.4 32.8
v 5.6 0.4 32.8
v 5.7 0.4 32.8
v 5.1 0.4 32.7
v 5.2 0.4 32.7
v 5.5 0.4 32.7
v 5.6 0.4 32.7
v 5.7 0.4 32.7
v 5.1 0.4 32.4
v 5.2 0.4 32.4
v 5.1 0.4 32.3
v 5.2 0.4 32.3
v 4.8 0.5 32.8
v 4.9 0.5 32.8
v 5.1 0.5 32.8
v 4.8 0.5 32.7
v 4.9 0.5 32.7
v 5.1 0.5 32.7
v 5.2 0.6 32.8
v 5.3 0.6 32.8
v 5.2 0.6 32.7
v 5.3 0.6 32.7
v 5.1 0.7 33.1
v 5.2 0.7 33.1
v 5.1 0.7 33
v 5.2 0.7 33
v 5.1 0.7 32.8
v 5.2 0.7 32.8
v 5.1 0.3 33.1
v 5.2 0.3 33.1
v 5.1 0.3 33
v 5.2 0.3 33
v 5.1 0.3 32.8
v 5.2 0.3 32.8
v 5.1 0.3 32.7
v 5.2 0.3 32.7
v 5.1 0.3 32.6
v 5.2 0.3 32.6
v 5 0.4 32.8
v 5.1 0.4 32.8
v 5.2 0.4 32.8
v 5.3 0.4 32.8
v 5.4 0.4 32.8
v 5.5 0.4 32.8
v 5 0.4 32.7
v 5.1 0.4 32.7
v 5.2 0.4 32.7
v 5.3 0.4 32.7
v 5.4 0.4 32.7
v 5.5 0.4 32.7
v 5.4 0.4 32.6
v 5.5 0.4 32.6
v 5.3 0.5 32.8
v 5.4 0.5 32.8
v 5.5 0.5 32.8
v 5.6 0.5 32.8
v 5.7 0.5 32.8
v 5.1 0.5 32.7
v 5.2 0.5 32.7
v 5.3 0.5 32.7
v 5.4 0.5 32.7
v 5.5 0.5 32.7
v 5.6 0.5 32.7
v 5.7 0.5 32.7
v 5.1 0.5 32.5
v 5.2 0.5 32.5
v 5.1 0.5 32.4
v 5.2 0.5 32.4
v 5.1 0.5 32.3
v 5.2 0.5 32.3
v 4.8 0.6 32.8
v 4.9 0.6 32.8
v 5.1 0.6 32.8
v 4.8 0.6 32.7
v 4.9 0.6 32.7
v 5.1 0.6 32.7
v 5.1 0.6 32.5
v 5.2 0.6 32.5
v 5.1 0.6 32.4
v 5.2 0.6 32.4
v 5.2 0.7 32.8
v 5.3 0.7 32.8
v 5.2 0.7 32.7
v 5.3 0.7 32.7
v 5.1 0.8 33.1
v 5.2 0.8 33.1
v 5.1 0.8 33
v 5.2 0.8 33
v 5.1 0.8 32.8
v 5.2 0.8 32.8
v 5.1 1 32.8
v 5.2 1 32.8
v 5.1 1 32.7
v 5.2 1 32.7

# faces
f 3/1/1 2/1/1 1/1/1
f 4/1/1 2/1/1 3/1/1
f 7/1/1 6/1/1 5/1/1
f 8/1/1 6/1/1 7/1/1
f 13/2/1 10/2/1 9/2/1
f 14/2/1 10/2/1 13/2/1
f 16/1/1 12/1/1 11/1/1
f 17/2/1 13/2/1 12/2/1
f 17/1/1 12/1/1 16/1/1
f 17/2/1 14/2/1 13/2/1
f 18/2/1 14/2/1 17/2/1
f 19/1/1 15/1/1 14/1/1
f 19/2/1 14/2/1 18/2/1
f 20/1/1 15/1/1 19/1/1
f 25/2/1 22/2/1 21/2/1
f 25/2/1 23/2/1 22/2/1
f 26/2/1 23/2/1 25/2/1
f 27/2/1 23/2/1 26/2/1
f 28/1/1 24/1/1 23/1/1
f 28/2/1 23/2/1 27/2/1
f 29/1/1 24/1/1 28/1/1
f 32/1/1 28/1/1 27/1/1
f 33/1/1 28/1/1 32/1/1
f 36/2/1 31/2/1 30/2/1
f 37/1/1 35/1/1 34/1/1
f 38/2/1 36/2/1 35/2/1
f 38/1/1 35/1/1 37/1/1
f 39/2/1 31/2/1 36/2/1
f 39/2/1 36/2/1 38/2/1
f 40/2/1 31/2/1 39/2/1
f 41/2/1 31/2/1 40/2/1
f 42/1/1 41/1/1 40/1/1
f 43/1/1 41/1/1 42/1/1
f 46/1/1 45/1/1 44/1/1
f 47/1/1 45/1/1 46/1/1
f 50/1/1 49/1/1 48/1/1
f 51/1/1 49/1/1 50/1/1
f 54/2/1 53/2/1 52/2/1
f 55/2/1 53/2/1 54/2/1
f 56/2/2 57/2/2 60/2/2
f 60/2/2 57/2/2 61/2/2
f 58/1/2 59/1/2 63/1/2
f 59/2/2 60/2/2 64/2/2
f 63/1/2 59/1/2 64/1/2
f 60/2/2 61/2/2 64/2/2
f 64/2/2 61/2/2 65/2/2
f 61/1/2 62/1/2 66/1/2
f 65/2/2 61/2/2 66/2/2
f 66/1/2 62/1/2 67/1/2
f 68/2/2 69/2/2 72/2/2
f 69/2/2 70/2/2 72/2/2
f 72/2/2 70/2/2 73/2/2
f 70/1/2 71/1/2 74/1/2
f 73/2/2 70/2/2 74/2/2
f 74/1/2 71/1/2 75/1/2
f 68/2/2 72/2/2 76/2/2
f 76/2/2 72/2/2 77/2/2
f 73/1/2 74/1/2 78/1/2
f 78/1/2 74/1/2 79/1/2
f 80/1/2 81/1/2 84/1/2
f 82/2/2 83/2/2 85/2/2
f 84/1/2 81/1/2 85/1/2
f 81/2/2 82/2/2 85/2/2
f 85/2/2 83/2/2 86/2/2
f 86/2/2 83/2/2 87/2/2
f 87/2/2 83/2/2 88/2/2
f 87/1/2 88/1/2 89/1/2
f 89/1/2 88/1/2 90/1/2
f 91/1/2 92/1/2 93/1/2
f 93/1/2 92/1/2 94/1/2
f 95/1/2 96/1/2 97/1/2
f 97/1/2 96/1/2 98/1/2
f 99/2/2 100/2/2 102/2/2
f 100/1/2 101/1/2 103/1/2
f 102/2/2 100/2/2 103/2/2
f 103/1/2 101/1/2 104/1/2
f 105/1/2 106/1/2 107/1/2
f 107/1/2 106/1/2 108/1/2
f 113/1/3 110/1/3 109/1/3
f 114/1/3 110/1/3 113/1/3
f 115/1/3 112/1/3 111/1/3
f 116/1/3 112/1/3 115/1/3
f 119/1/3 118/1/3 117/1/3
f 120/1/3 118/1/3 119/1/3
f 125/1/3 122/1/3 121/1/3
f 126/1/3 122/1/3 125/1/3
f 127/2/3 120/2/3 119/2/3
f 128/2/3 120/2/3 127/2/3
f 133/2/3 124/2/3 123/2/3
f 134/2/3 124/2/3 133/2/3
f 135/2/3 126/2/3 125/2/3
f 135/2/3 128/2/3 127/2/3
f 135/2/3 127/2/3 126/2/3
f 135/2/3 129/2/3 128/2/3
f 136/2/3 129/2/3 135/2/3
f 137/2/3 129/2/3 136/2/3
f 138/2/3 129/2/3 137/2/3
f 139/2/3 131/2/3 130/2/3
f 140/1/3 132/1/3 131/1/3
f 140/2/3 131/2/3 139/2/3
f 141/1/3 132/1/3 140/1/3
f 142/2/3 136/2/3 135/2/3
f 144/1/3 138/1/3 137/1/3
f 145/1/3 138/1/3 144/1/3
f 146/1/3 143/1/3 142/1/3
f 146/2/3 142/2/3 135/2/3
f 147/1/3 143/1/3 146/1/3
f 148/2/3 146/2/3 135/2/3
f 149/2/3 146/2/3 148/2/3
f 151/2/3 150/2/3 149/2/3
f 152/2/3 150/2/3 151/2/3
f 153/1/3 152/1/3 151/1/3
f 154/1/3 152/1/3 153/1/3
f 157/1/3 156/1/3 155/1/3
f 158/1/3 156/1/3 157/1/3
f 159/1/4 160/1/4 161/1/4
f 161/1/4 160/1/4 162/1/4
f 163/1/4 164/1/4 167/1/4
f 167/1/4 164/1/4 168/1/4
f 161/2/4 162/2/4 169/2/4
f 169/2/4 162/2/4 170/2/4
f 165/2/4 166/2/4 173/2/4
f 173/2/4 166/2/4 174/2/4
f 167/2/4 168/2/4 175/2/4
f 175/2/4 168/2/4 176/2/4
f 169/2/4 170/2/4 177/2/4
f 170/2/4 171/2/4 177/2/4
f 177/2/4 171/2/4 178/2/4
f 178/2/4 171/2/4 179/2/4
f 171/1/4 172/1/4 180/1/4
f 179/2/4 171/2/4 180/2/4
f 180/1/4 172/1/4 181/1/4
f 175/2/4 176/2/4 182/2/4
f 178/1/4 179/1/4 184/1/4
f 184/1/4 179/1/4 185/1/4
f 175/2/4 182/2/4 186/2/4
f 182/1/4 183/1/4 187/1/4
f 186/2/4 182/2/4 187/2/4
f 187/1/4 183/1/4 188/1/4
f 189/2/4 190/2/4 191/2/4
f 191/2/4 190/2/4 192/2/4
f 191/1/4 192/1/4 193/1/4
f 193/1/4 192/1/4 194/1/4
f 195/1/4 196/1/4 197/1/4
f 197/1/4 196/1/4 198/1/4
f 199/1/4 200/1/4 201/1/4
f 201/1/4 200/1/4 202/1/4
f 203/1/4 204/1/4 205/1/4
f 205/1/4 204/1/4 206/1/4
f 207/1/4 208/1/4 209/1/4
f 209/1/4 208/1/4 210/1/4
f 213/2/5 212/2/5 211/2/5
f 214/2/5 212/2/5 213/2/5
f 217/1/5 216/1/5 215/1/5
f 218/1/5 216/1/5 217/1/5
f 219/2/5 218/2/5 217/2/5
f 220/2/5 218/2/5 219/2/5
f 223/1/5 222/1/5 221/1/5
f 224/1/5 222/1/5 223/1/5
f 229/1/5 226/1/5 225/1/5
f 230/1/5 226/1/5 229/1/5
f 231/2/5 228/2/5 227/2/5
f 232/2/5 228/2/5 231/2/5
f 233/2/5 228/2/5 232/2/5
f 234/1/5 233/1/5 232/1/5
f 235/1/5 233/1/5 234/1/5
f 241/2/5 237/2/5 236/2/5
f 242/1/5 238/1/5 237/1/5
f 242/2/5 237/2/5 241/2/5
f 243/1/5 238/1/5 242/1/5
f 244/2/5 240/2/5 239/2/5
f 245/2/5 240/2/5 244/2/5
f 246/1/5 245/1/5 244/1/5
f 247/1/5 245/1/5 246/1/5
f 251/1/5 249/1/5 248/1/5
f 252/2/5 250/2/5 249/2/5
f 252/1/5 249/1/5 251/1/5
f 253/2/5 250/2/5 252/2/5
f 256/1/5 255/1/5 254/1/5
f 257/1/5 255/1/5 256/1/5
f 260/1/5 259/1/5 258/1/5
f 261/1/5 259/1/5 260/1/5
f 262/2/5 261/2/5 260/2/5
f 263/2/5 261/2/5 262/2/5
f 264/1/6 265/1/6 266/1/6
f 266/1/6 265/1/6 267/1/6
f 266/2/6 267/2/6 268/2/6
f 268/2/6 267/2/6 269/2/6
f 270/1/6 271/1/6 272/1/6
f 272/1/6 271/1/6 273/1/6
f 274/1/6 275/1/6 280/1/6
f 280/1/6 275/1/6 281/1/6
f 276/2/6 277/2/6 282/2/6
f 282/2/6 277/2/6 283/2/6
f 278/2/6 279/2/6 284/2/6
f 284/2/6 279/2/6 285/2/6
f 284/1/6 285/1/6 286/1/6
f 286/1/6 285/1/6 287/1/6
f 288/1/6 289/1/6 295/1/6
f 295/1/6 289/1/6 296/1/6
f 290/2/6 291/2/6 297/2/6
f 291/1/6 292/1/6 298/1/6
f 297/2/6 291/2/6 298/2/6
f 298/1/6 292/1/6 299/1/6
f 293/2/6 294/2/6 300/2/6
f 300/2/6 294/2/6 301/2/6
f 302/1/6 303/1/6 304/1/6
f 304/1/6 303/1/6 305/1/6
f 306/1/6 307/1/6 309/1/6
f 307/2/6 308/2/6 310/2/6
f 309/1/6 307/1/6 310/1/6
f 310/2/6 308/2/6 311/2/6
f 312/1/6 313/1/6 314/1/6
f 314/1/6 313/1/6 315/1/6
f 316/1/6 317/1/6 318/1/6
f 318/1/6 317/1/6 319/1/6
f 320/1/6 321/1/6 322/1/6
f 322/1/6 321/1/6 323/1/6
f 322/2/6 323/2/6 324/2/6
f 324/2/6 323/2/6 325/2/6
f 326/1/6 327/1/6 328/1/6
f 328/1/6 327/1/6 329/1/6
