# MagicaVoxel @ Ephtracy

# group
o Dungeon - Pillar - Ground Variant1

# material
mtllib Medieval Assets-161-Dungeon - Pillar - Ground Variant1.mtl
usemtl palette

# normals
vn -1 0 0
vn 1 0 0
vn 0 0 1
vn 0 0 -1
vn 0 -1 0
vn 0 1 0

# texcoords
vt 0.134766 0.5
vt 0.138672 0.5
vt 0.142578 0.5

# verts
v -38.3 0.1 -9.9
v -38.3 0.1 -10.1
v -38.3 0.2 -9.8
v -38.3 0.2 -9.9
v -38.3 0.2 -10
v -38.3 0.2 -10.1
v -38.3 0.3 -10.1
v -38.3 0.3 -10.2
v -38.3 0.5 -9.8
v -38.3 0.5 -9.9
v -38.3 0.5 -10
v -38.3 0.5 -10.1
v -38.3 0.6 -9.8
v -38.3 0.6 -9.9
v -38.3 0.7 -10
v -38.3 0.7 -10.1
v -38.3 0.9 -10
v -38.3 0.9 -10.1
v -38.3 1.1 -9.9
v -38.3 1.1 -10
v -38.3 1.2 -9.9
v -38.3 1.2 -10
v -38.3 1.3 -9.8
v -38.3 1.3 -9.9
v -38.3 1.4 -10
v -38.3 1.4 -10.1
v -38.3 1.5 -10
v -38.3 1.5 -10.1
v -38.3 1.6 -9.9
v -38.3 1.6 -10.1
v -38.3 1.6 -10.2
v -38.2 0.1 -9.8
v -38.2 0.1 -9.9
v -38.2 0.2 -9.8
v -38.2 0.2 -9.9
v -38.2 0.2 -10.1
v -38.2 0.2 -10.2
v -38.2 0.3 -10.1
v -38.2 0.3 -10.2
v -38.2 0.5 -9.8
v -38.2 0.5 -9.9
v -38.2 0.6 -9.8
v -38.2 0.6 -9.9
v -38.2 1.3 -9.8
v -38.2 1.3 -9.9
v -38.2 1.4 -9.8
v -38.2 1.4 -9.9
v -38.1 0 -9.8
v -38.1 0 -9.9
v -38.1 0 -10.1
v -38.1 0 -10.2
v -38.1 0.1 -9.8
v -38.1 0.1 -9.9
v -38.1 0.1 -10.1
v -38.1 0.1 -10.2
v -38.1 0.2 -10.1
v -38.1 0.2 -10.2
v -38 0 -9.9
v -38 0 -10
v -38 0.1 -9.9
v -38 0.1 -10
v -38.2 1.5 -9.9
v -38.2 1.5 -10
v -38.2 1.6 -9.9
v -38.2 1.6 -10
v -38.1 1.5 -10.1
v -38.1 1.5 -10.2
v -38.1 1.6 -10.1
v -38.1 1.6 -10.2
v -38 0 -10.1
v -38 0 -10.2
v -38 0.1 -10.1
v -38 0.1 -10.2
v -38 1.3 -9.8
v -38 1.3 -9.9
v -38 1.4 -9.8
v -38 1.4 -9.9
v -38 1.4 -10
v -38 1.5 -9.9
v -38 1.5 -10
v -38 1.5 -10.1
v -38 1.6 -10
v -38 1.6 -10.1
v -37.9 0 -9.8
v -37.9 0 -9.9
v -37.9 0 -10
v -37.9 0.1 -10
v -37.9 0.1 -10.1
v -37.9 0.1 -10.2
v -37.9 0.2 -10
v -37.9 0.2 -10.1
v -37.9 0.5 -10
v -37.9 0.5 -10.1
v -37.9 0.7 -10
v -37.9 0.7 -10.1
v -37.9 0.9 -10
v -37.9 0.9 -10.1
v -37.9 1.1 -9.9
v -37.9 1.1 -10
v -37.9 1.2 -9.9
v -37.9 1.2 -10
v -37.9 1.3 -9.8
v -37.9 1.3 -9.9
v -37.9 1.4 -9.9
v -37.9 1.4 -10
v -37.9 1.4 -10.1
v -37.9 1.5 -10
v -37.9 1.5 -10.1
v -37.9 1.5 -10.2
v -38.3 0.2 -9.8
v -38.3 0.5 -9.8
v -38.3 0.6 -9.8
v -38.3 1.3 -9.8
v -38.2 0.1 -9.8
v -38.2 0.2 -9.8
v -38.2 0.3 -9.8
v -38.2 0.5 -9.8
v -38.2 0.6 -9.8
v -38.2 1.2 -9.8
v -38.2 1.3 -9.8
v -38.2 1.4 -9.8
v -38.1 0 -9.8
v -38.1 0.1 -9.8
v -38 0 -9.8
v -38 0.1 -9.8
v -38 0.2 -9.8
v -38 0.3 -9.8
v -38 0.6 -9.8
v -38 1.2 -9.8
v -38 1.3 -9.8
v -38 1.4 -9.8
v -37.9 0 -9.8
v -37.9 1.3 -9.8
v -38.3 0.1 -9.9
v -38.3 0.2 -9.9
v -38.3 0.5 -9.9
v -38.3 0.6 -9.9
v -38.3 1.3 -9.9
v -38.3 1.6 -9.9
v -38.2 0.1 -9.9
v -38.2 0.2 -9.9
v -38.2 0.5 -9.9
v -38.2 0.6 -9.9
v -38.2 1.3 -9.9
v -38.2 1.4 -9.9
v -38.2 1.5 -9.9
v -38.2 1.6 -9.9
v -38 1.3 -9.9
v -38 1.4 -9.9
v -38 1.5 -9.9
v -37.9 1.3 -9.9
v -37.9 1.4 -9.9
v -38.2 1.5 -10
v -38.2 1.6 -10
v -38 1.4 -10
v -38 1.5 -10
v -38 1.6 -10
v -37.9 1.4 -10
v -37.9 1.5 -10
v -38.1 0 -10.1
v -38.1 0.1 -10.1
v -38 0 -10.1
v -38 0.1 -10.1
v -38.1 0 -9.9
v -38.1 0.1 -9.9
v -38 0 -9.9
v -38 0.1 -9.9
v -38 0 -10
v -38 0.1 -10
v -37.9 0 -10
v -37.9 0.1 -10
v -38.3 0.1 -10.1
v -38.3 0.2 -10.1
v -38.3 0.3 -10.1
v -38.2 0.2 -10.1
v -38.2 0.3 -10.1
v -38.1 0.1 -10.1
v -38.1 0.2 -10.1
v -38.1 1.5 -10.1
v -38.1 1.6 -10.1
v -38 1.5 -10.1
v -38 1.6 -10.1
v -38.3 0.3 -10.2
v -38.3 1.6 -10.2
v -38.2 0.2 -10.2
v -38.2 0.3 -10.2
v -38.2 0.4 -10.2
v -38.2 0.6 -10.2
v -38.2 1.2 -10.2
v -38.2 1.3 -10.2
v -38.2 1.6 -10.2
v -38.1 0 -10.2
v -38.1 0.1 -10.2
v -38.1 0.2 -10.2
v -38.1 0.4 -10.2
v -38.1 0.6 -10.2
v -38.1 0.8 -10.2
v -38.1 0.9 -10.2
v -38.1 1.1 -10.2
v -38.1 1.2 -10.2
v -38.1 1.3 -10.2
v -38.1 1.5 -10.2
v -38.1 1.6 -10.2
v -38 0 -10.2
v -38 0.1 -10.2
v -38 0.2 -10.2
v -38 0.6 -10.2
v -38 0.8 -10.2
v -38 0.9 -10.2
v -38 1.1 -10.2
v -38 1.5 -10.2
v -37.9 0.1 -10.2
v -37.9 1.5 -10.2
v -38.1 0 -9.8
v -38 0 -9.8
v -37.9 0 -9.8
v -38.1 0 -9.9
v -38 0 -9.9
v -37.9 0 -9.9
v -38 0 -10
v -37.9 0 -10
v -38.1 0 -10.1
v -38 0 -10.1
v -38.1 0 -10.2
v -38 0 -10.2
v -38.2 0.1 -9.8
v -38.1 0.1 -9.8
v -38.3 0.1 -9.9
v -38.2 0.1 -9.9
v -38.1 0.1 -9.9
v -38 0.1 -9.9
v -38 0.1 -10
v -37.9 0.1 -10
v -38.3 0.1 -10.1
v -38.1 0.1 -10.1
v -38 0.1 -10.1
v -37.9 0.1 -10.1
v -38 0.1 -10.2
v -37.9 0.1 -10.2
v -38.3 0.2 -9.8
v -38.2 0.2 -9.8
v -38.3 0.2 -9.9
v -38.2 0.2 -9.9
v -38.2 0.2 -10.1
v -38.1 0.2 -10.1
v -38.2 0.2 -10.2
v -38.1 0.2 -10.2
v -38.3 0.3 -10.1
v -38.2 0.3 -10.1
v -38.3 0.3 -10.2
v -38.2 0.3 -10.2
v -38.3 0.6 -9.8
v -38.2 0.6 -9.8
v -38.3 0.6 -9.9
v -38.2 0.6 -9.9
v -38.3 0.5 -9.8
v -38.2 0.5 -9.8
v -38.3 0.5 -9.9
v -38.2 0.5 -9.9
v -38.3 1.3 -9.8
v -38.2 1.3 -9.8
v -38 1.3 -9.8
v -37.9 1.3 -9.8
v -38.3 1.3 -9.9
v -38.2 1.3 -9.9
v -38 1.3 -9.9
v -37.9 1.3 -9.9
v -38.2 1.4 -9.8
v -38 1.4 -9.8
v -38.2 1.4 -9.9
v -38 1.4 -9.9
v -37.9 1.4 -9.9
v -38 1.4 -10
v -37.9 1.4 -10
v -38.2 1.5 -9.9
v -38 1.5 -9.9
v -38.2 1.5 -10
v -38 1.5 -10
v -37.9 1.5 -10
v -38.1 1.5 -10.1
v -38 1.5 -10.1
v -37.9 1.5 -10.1
v -38.1 1.5 -10.2
v -38 1.5 -10.2
v -37.9 1.5 -10.2
v -38.3 1.6 -9.9
v -38.2 1.6 -9.9
v -38.2 1.6 -10
v -38 1.6 -10
v -38.3 1.6 -10.1
v -38.2 1.6 -10.1
v -38.1 1.6 -10.1
v -38 1.6 -10.1
v -38.3 1.6 -10.2
v -38.2 1.6 -10.2
v -38.1 1.6 -10.2

# faces
f 4/1/1 2/1/1 1/1/1
f 5/1/1 2/1/1 4/1/1
f 6/1/1 2/1/1 5/1/1
f 7/2/1 6/2/1 5/2/1
f 9/3/1 4/3/1 3/3/1
f 10/1/1 5/1/1 4/1/1
f 10/3/1 4/3/1 9/3/1
f 11/2/1 7/2/1 5/2/1
f 11/1/1 5/1/1 10/1/1
f 12/3/1 8/3/1 7/3/1
f 12/2/1 7/2/1 11/2/1
f 14/1/1 11/1/1 10/1/1
f 14/1/1 12/1/1 11/1/1
f 15/1/1 12/1/1 14/1/1
f 16/3/1 8/3/1 12/3/1
f 16/1/1 12/1/1 15/1/1
f 17/1/1 15/1/1 14/1/1
f 17/2/1 16/2/1 15/2/1
f 18/3/1 8/3/1 16/3/1
f 18/2/1 16/2/1 17/2/1
f 19/1/1 17/1/1 14/1/1
f 19/3/1 14/3/1 13/3/1
f 19/1/1 18/1/1 17/1/1
f 20/1/1 18/1/1 19/1/1
f 21/3/1 19/3/1 13/3/1
f 21/2/1 20/2/1 19/2/1
f 22/1/1 18/1/1 20/1/1
f 22/2/1 20/2/1 21/2/1
f 23/3/1 21/3/1 13/3/1
f 24/1/1 22/1/1 21/1/1
f 24/3/1 21/3/1 23/3/1
f 25/1/1 18/1/1 22/1/1
f 25/1/1 22/1/1 24/1/1
f 26/3/1 8/3/1 18/3/1
f 26/1/1 18/1/1 25/1/1
f 27/1/1 25/1/1 24/1/1
f 27/2/1 26/2/1 25/2/1
f 28/3/1 8/3/1 26/3/1
f 28/2/1 26/2/1 27/2/1
f 29/1/1 27/1/1 24/1/1
f 29/1/1 28/1/1 27/1/1
f 30/3/1 8/3/1 28/3/1
f 30/1/1 28/1/1 29/1/1
f 31/3/1 8/3/1 30/3/1
f 34/2/1 33/2/1 32/2/1
f 35/2/1 33/2/1 34/2/1
f 38/1/1 37/1/1 36/1/1
f 39/1/1 37/1/1 38/1/1
f 42/2/1 41/2/1 40/2/1
f 43/2/1 41/2/1 42/2/1
f 46/2/1 45/2/1 44/2/1
f 47/2/1 45/2/1 46/2/1
f 52/1/1 49/1/1 48/1/1
f 53/1/1 49/1/1 52/1/1
f 54/1/1 51/1/1 50/1/1
f 55/1/1 51/1/1 54/1/1
f 56/2/1 55/2/1 54/2/1
f 57/2/1 55/2/1 56/2/1
f 60/1/1 59/1/1 58/1/1
f 61/1/1 59/1/1 60/1/1
f 62/1/2 63/1/2 64/1/2
f 64/1/2 63/1/2 65/1/2
f 66/1/2 67/1/2 68/1/2
f 68/1/2 67/1/2 69/1/2
f 70/1/2 71/1/2 72/1/2
f 72/1/2 71/1/2 73/1/2
f 74/2/2 75/2/2 76/2/2
f 76/2/2 75/2/2 77/2/2
f 77/1/2 78/1/2 79/1/2
f 79/1/2 78/1/2 80/1/2
f 80/1/2 81/1/2 82/1/2
f 82/1/2 81/1/2 83/1/2
f 85/1/2 86/1/2 87/1/2
f 85/1/2 87/1/2 90/1/2
f 87/1/2 88/1/2 90/1/2
f 88/3/2 89/3/2 91/3/2
f 90/1/2 88/1/2 91/1/2
f 85/1/2 90/1/2 92/1/2
f 90/2/2 91/2/2 92/2/2
f 91/3/2 89/3/2 93/3/2
f 92/2/2 91/2/2 93/2/2
f 85/1/2 92/1/2 94/1/2
f 92/1/2 93/1/2 94/1/2
f 93/3/2 89/3/2 95/3/2
f 94/1/2 93/1/2 95/1/2
f 85/1/2 94/1/2 96/1/2
f 94/2/2 95/2/2 96/2/2
f 95/3/2 89/3/2 97/3/2
f 96/2/2 95/2/2 97/2/2
f 84/3/2 85/3/2 98/3/2
f 85/1/2 96/1/2 98/1/2
f 96/1/2 97/1/2 98/1/2
f 98/1/2 97/1/2 99/1/2
f 84/3/2 98/3/2 100/3/2
f 98/2/2 99/2/2 100/2/2
f 99/1/2 97/1/2 101/1/2
f 100/2/2 99/2/2 101/2/2
f 84/3/2 100/3/2 102/3/2
f 100/1/2 101/1/2 103/1/2
f 102/3/2 100/3/2 103/3/2
f 103/1/2 101/1/2 104/1/2
f 101/1/2 97/1/2 105/1/2
f 104/1/2 101/1/2 105/1/2
f 97/3/2 89/3/2 106/3/2
f 105/1/2 97/1/2 106/1/2
f 105/2/2 106/2/2 107/2/2
f 106/3/2 89/3/2 108/3/2
f 107/2/2 106/2/2 108/2/2
f 108/3/2 89/3/2 109/3/2
f 115/3/3 111/3/3 110/3/3
f 116/3/3 111/3/3 115/3/3
f 117/3/3 111/3/3 116/3/3
f 118/3/3 113/3/3 112/3/3
f 119/3/3 113/3/3 118/3/3
f 120/3/3 113/3/3 119/3/3
f 123/2/3 115/2/3 114/2/3
f 124/1/3 123/1/3 122/1/3
f 125/2/3 115/2/3 123/2/3
f 125/1/3 123/1/3 124/1/3
f 126/1/3 116/1/3 115/1/3
f 126/2/3 115/2/3 125/2/3
f 127/2/3 117/2/3 116/2/3
f 127/1/3 116/1/3 126/1/3
f 127/2/3 118/2/3 117/2/3
f 128/1/3 119/1/3 118/1/3
f 128/2/3 118/2/3 127/2/3
f 129/2/3 121/2/3 120/2/3
f 129/1/3 119/1/3 128/1/3
f 129/2/3 120/2/3 119/2/3
f 130/2/3 121/2/3 129/2/3
f 131/2/3 121/2/3 130/2/3
f 132/3/3 126/3/3 125/3/3
f 132/3/3 128/3/3 127/3/3
f 132/3/3 130/3/3 129/3/3
f 132/3/3 129/3/3 128/3/3
f 132/3/3 125/3/3 124/3/3
f 132/3/3 127/3/3 126/3/3
f 133/3/3 130/3/3 132/3/3
f 140/1/3 135/1/3 134/1/3
f 141/1/3 135/1/3 140/1/3
f 142/1/3 137/1/3 136/1/3
f 143/1/3 137/1/3 142/1/3
f 144/1/3 139/1/3 138/1/3
f 145/1/3 139/1/3 144/1/3
f 146/1/3 139/1/3 145/1/3
f 147/1/3 139/1/3 146/1/3
f 149/1/3 146/1/3 145/1/3
f 150/1/3 146/1/3 149/1/3
f 151/1/3 149/1/3 148/1/3
f 152/1/3 149/1/3 151/1/3
f 156/1/3 154/1/3 153/1/3
f 157/1/3 154/1/3 156/1/3
f 158/2/3 156/2/3 155/2/3
f 159/2/3 156/2/3 158/2/3
f 162/1/3 161/1/3 160/1/3
f 163/1/3 161/1/3 162/1/3
f 164/1/4 165/1/4 166/1/4
f 166/1/4 165/1/4 167/1/4
f 168/1/4 169/1/4 170/1/4
f 170/1/4 169/1/4 171/1/4
f 172/1/4 173/1/4 175/1/4
f 173/2/4 174/2/4 175/2/4
f 175/2/4 174/2/4 176/2/4
f 172/1/4 175/1/4 177/1/4
f 177/1/4 175/1/4 178/1/4
f 179/1/4 180/1/4 181/1/4
f 181/1/4 180/1/4 182/1/4
f 183/3/4 184/3/4 186/3/4
f 186/3/4 184/3/4 187/3/4
f 187/3/4 184/3/4 188/3/4
f 188/3/4 184/3/4 189/3/4
f 189/3/4 184/3/4 190/3/4
f 190/3/4 184/3/4 191/3/4
f 185/1/4 186/1/4 194/1/4
f 186/1/4 187/1/4 194/1/4
f 187/2/4 188/2/4 195/2/4
f 194/1/4 187/1/4 195/1/4
f 188/1/4 189/1/4 196/1/4
f 195/2/4 188/2/4 196/2/4
f 196/1/4 189/1/4 197/1/4
f 197/1/4 189/1/4 198/1/4
f 198/1/4 189/1/4 199/1/4
f 189/2/4 190/2/4 200/2/4
f 199/1/4 189/1/4 200/1/4
f 190/1/4 191/1/4 201/1/4
f 200/2/4 190/2/4 201/2/4
f 201/1/4 191/1/4 202/1/4
f 202/1/4 191/1/4 203/1/4
f 192/1/4 193/1/4 204/1/4
f 193/2/4 194/2/4 205/2/4
f 204/1/4 193/1/4 205/1/4
f 194/1/4 195/1/4 206/1/4
f 205/2/4 194/2/4 206/2/4
f 195/1/4 196/1/4 206/1/4
f 196/2/4 197/2/4 207/2/4
f 206/1/4 196/1/4 207/1/4
f 197/1/4 198/1/4 208/1/4
f 207/2/4 197/2/4 208/2/4
f 198/2/4 199/2/4 209/2/4
f 208/1/4 198/1/4 209/1/4
f 199/1/4 200/1/4 210/1/4
f 209/2/4 199/2/4 210/2/4
f 201/1/4 202/1/4 210/1/4
f 200/1/4 201/1/4 210/1/4
f 210/1/4 202/1/4 211/1/4
f 207/3/4 208/3/4 212/3/4
f 210/3/4 211/3/4 212/3/4
f 209/3/4 210/3/4 212/3/4
f 205/3/4 206/3/4 212/3/4
f 206/3/4 207/3/4 212/3/4
f 208/3/4 209/3/4 212/3/4
f 212/3/4 211/3/4 213/3/4
f 217/1/5 215/1/5 214/1/5
f 218/3/5 216/3/5 215/3/5
f 218/1/5 215/1/5 217/1/5
f 219/3/5 216/3/5 218/3/5
f 220/1/5 219/1/5 218/1/5
f 221/1/5 219/1/5 220/1/5
f 224/1/5 223/1/5 222/1/5
f 225/1/5 223/1/5 224/1/5
f 229/2/5 227/2/5 226/2/5
f 230/2/5 227/2/5 229/2/5
f 232/1/5 229/1/5 228/1/5
f 232/1/5 231/1/5 230/1/5
f 232/1/5 230/1/5 229/1/5
f 234/1/5 232/1/5 228/1/5
f 234/1/5 233/1/5 232/1/5
f 235/1/5 233/1/5 234/1/5
f 236/1/5 233/1/5 235/1/5
f 237/1/5 233/1/5 236/1/5
f 238/3/5 237/3/5 236/3/5
f 239/3/5 237/3/5 238/3/5
f 242/3/5 241/3/5 240/3/5
f 243/3/5 241/3/5 242/3/5
f 246/1/5 245/1/5 244/1/5
f 247/1/5 245/1/5 246/1/5
f 250/3/5 249/3/5 248/3/5
f 251/3/5 249/3/5 250/3/5
f 254/3/5 253/3/5 252/3/5
f 255/3/5 253/3/5 254/3/5
f 256/3/6 257/3/6 258/3/6
f 258/3/6 257/3/6 259/3/6
f 260/3/6 261/3/6 264/3/6
f 264/3/6 261/3/6 265/3/6
f 262/3/6 263/3/6 266/3/6
f 266/3/6 263/3/6 267/3/6
f 268/2/6 269/2/6 270/2/6
f 270/2/6 269/2/6 271/2/6
f 271/1/6 272/1/6 273/1/6
f 273/1/6 272/1/6 274/1/6
f 275/1/6 276/1/6 277/1/6
f 277/1/6 276/1/6 278/1/6
f 278/2/6 279/2/6 281/2/6
f 281/2/6 279/2/6 282/2/6
f 280/1/6 281/1/6 283/1/6
f 281/3/6 282/3/6 284/3/6
f 283/1/6 281/1/6 284/1/6
f 284/3/6 282/3/6 285/3/6
f 286/1/6 287/1/6 288/1/6
f 286/1/6 288/1/6 290/1/6
f 288/1/6 289/1/6 290/1/6
f 290/1/6 289/1/6 291/1/6
f 291/1/6 289/1/6 292/1/6
f 292/1/6 289/1/6 293/1/6
f 290/3/6 291/3/6 294/3/6
f 291/1/6 292/1/6 295/1/6
f 294/3/6 291/3/6 295/3/6
f 295/1/6 292/1/6 296/1/6
