# MagicaVoxel @ Ephtracy

# group
o Decoration - Barrel - Fragment

# material
mtllib Medieval Assets-7-Decoration - Barrel - Fragment.mtl
usemtl palette

# normals
vn 0 1 0
vn 0 -1 0
vn 0 0 1
vn 0 0 -1
vn -1 0 0
vn 1 0 0

# texcoords
vt 0.169922 0.5
vt 0.193359 0.5

# verts
v 42.3 1.5 -11
v 42.3 1.5 -11.2
v 42.6 1.5 -11.1
v 42.6 1.5 -11.2
v 42.7 1.5 -11.1
v 42.7 1.5 -11.2
v 43 1.5 -11
v 43 1.5 -11.1
v 43.2 1.5 -11
v 43.2 1.5 -11.1
v 43.3 1.5 -11
v 43.3 1.5 -11.2
v 42 1.4 -11
v 42 1.4 -11.1
v 42 1.4 -11.2
v 42.1 1.4 -11.1
v 42.1 1.4 -11.2
v 42.2 1.4 -11
v 42.2 1.4 -11.2
v 42.3 1.4 -11
v 42.3 1.4 -11.2
v 43.3 1.4 -11
v 43.3 1.4 -11.1
v 43.3 1.4 -11.2
v 43.4 1.4 -11.1
v 43.4 1.4 -11.2
v 43.6 1.4 -11
v 43.6 1.4 -11.2
v 41.8 1.3 -11
v 41.8 1.3 -11.2
v 41.9 1.3 -11
v 41.9 1.3 -11.1
v 42 1.3 -11
v 42 1.3 -11.1
v 42 1.3 -11.2
v 43.6 1.3 -11
v 43.6 1.3 -11.2
v 43.8 1.3 -11
v 43.8 1.3 -11.2
v 42.2 1.2 -11
v 42.2 1.2 -11.1
v 42.2 1.2 -11.2
v 42.3 1.2 -11.1
v 42.3 1.2 -11.2
v 42.7 1.2 -11
v 42.7 1.2 -11.1
v 42.8 1.2 -11.1
v 42.8 1.2 -11.2
v 43.5 1.2 -11
v 43.5 1.2 -11.1
v 43.5 1.2 -11.2
v 41.8 1.1 -11
v 41.8 1.1 -11.2
v 41.9 1.1 -11.1
v 41.9 1.1 -11.2
v 42.2 1.1 -11
v 42.2 1.1 -11.1
v 42.2 1.1 -11.2
v 43.5 1.1 -11
v 43.5 1.1 -11.1
v 43.5 1.1 -11.2
v 43.8 1.1 -11
v 43.8 1.1 -11.1
v 43.8 1.1 -11.2
v 42.3 1.5 -11
v 43 1.5 -11
v 43.2 1.5 -11
v 43.3 1.5 -11
v 42 1.4 -11
v 42.2 1.4 -11
v 42.3 1.4 -11
v 42.6 1.4 -11
v 43 1.4 -11
v 43.2 1.4 -11
v 43.3 1.4 -11
v 43.6 1.4 -11
v 41.8 1.3 -11
v 41.9 1.3 -11
v 42 1.3 -11
v 42.2 1.3 -11
v 42.3 1.3 -11
v 42.6 1.3 -11
v 42.7 1.3 -11
v 43.6 1.3 -11
v 43.8 1.3 -11
v 41.9 1.2 -11
v 42 1.2 -11
v 42.2 1.2 -11
v 42.7 1.2 -11
v 43.5 1.2 -11
v 41.8 1.1 -11
v 42.2 1.1 -11
v 43.5 1.1 -11
v 43.8 1.1 -11
v 42.3 1.5 -11.2
v 42.6 1.5 -11.2
v 42.7 1.5 -11.2
v 43.3 1.5 -11.2
v 42 1.4 -11.2
v 42.1 1.4 -11.2
v 42.2 1.4 -11.2
v 42.3 1.4 -11.2
v 42.6 1.4 -11.2
v 42.7 1.4 -11.2
v 42.9 1.4 -11.2
v 43.3 1.4 -11.2
v 43.4 1.4 -11.2
v 43.6 1.4 -11.2
v 41.8 1.3 -11.2
v 42 1.3 -11.2
v 42.1 1.3 -11.2
v 42.2 1.3 -11.2
v 42.3 1.3 -11.2
v 42.8 1.3 -11.2
v 42.9 1.3 -11.2
v 43.4 1.3 -11.2
v 43.6 1.3 -11.2
v 43.8 1.3 -11.2
v 41.9 1.2 -11.2
v 42.2 1.2 -11.2
v 42.3 1.2 -11.2
v 42.8 1.2 -11.2
v 43.5 1.2 -11.2
v 43.8 1.2 -11.2
v 41.8 1.1 -11.2
v 41.9 1.1 -11.2
v 42.2 1.1 -11.2
v 43.5 1.1 -11.2
v 43.8 1.1 -11.2
v 41.8 1.3 -11
v 41.8 1.1 -11
v 41.8 1.3 -11.2
v 41.8 1.1 -11.2
v 42 1.4 -11
v 42 1.3 -11
v 42 1.4 -11.1
v 42 1.3 -11.1
v 42 1.4 -11.2
v 42 1.3 -11.2
v 42.3 1.5 -11
v 42.3 1.4 -11
v 42.3 1.5 -11.2
v 42.3 1.4 -11.2
v 43.5 1.2 -11
v 43.5 1.1 -11
v 43.5 1.2 -11.1
v 43.5 1.1 -11.1
v 43.5 1.2 -11.2
v 43.5 1.1 -11.2
v 42.2 1.2 -11
v 42.2 1.1 -11
v 42.2 1.2 -11.1
v 42.2 1.1 -11.1
v 42.2 1.2 -11.2
v 42.2 1.1 -11.2
v 43.3 1.5 -11
v 43.3 1.4 -11
v 43.3 1.4 -11.1
v 43.3 1.5 -11.2
v 43.3 1.4 -11.2
v 43.6 1.4 -11
v 43.6 1.3 -11
v 43.6 1.4 -11.2
v 43.6 1.3 -11.2
v 43.8 1.3 -11
v 43.8 1.1 -11
v 43.8 1.2 -11.1
v 43.8 1.1 -11.1
v 43.8 1.3 -11.2
v 43.8 1.2 -11.2
v 43.8 1.1 -11.2

# faces
f 3/2/1 2/2/1 1/2/1
f 4/2/1 2/2/1 3/2/1
f 5/2/1 3/2/1 1/2/1
f 5/1/1 4/1/1 3/1/1
f 6/1/1 4/1/1 5/1/1
f 7/2/1 5/2/1 1/2/1
f 7/2/1 6/2/1 5/2/1
f 8/2/1 6/2/1 7/2/1
f 9/1/1 8/1/1 7/1/1
f 10/2/1 6/2/1 8/2/1
f 10/1/1 8/1/1 9/1/1
f 11/2/1 10/2/1 9/2/1
f 12/2/1 6/2/1 10/2/1
f 12/2/1 10/2/1 11/2/1
f 16/1/1 14/1/1 13/1/1
f 16/2/1 15/2/1 14/2/1
f 17/2/1 15/2/1 16/2/1
f 18/1/1 16/1/1 13/1/1
f 18/1/1 17/1/1 16/1/1
f 19/1/1 17/1/1 18/1/1
f 20/2/1 19/2/1 18/2/1
f 21/2/1 19/2/1 20/2/1
f 25/2/1 23/2/1 22/2/1
f 25/1/1 24/1/1 23/1/1
f 26/1/1 24/1/1 25/1/1
f 27/2/1 25/2/1 22/2/1
f 27/2/1 26/2/1 25/2/1
f 28/2/1 26/2/1 27/2/1
f 31/2/1 30/2/1 29/2/1
f 32/2/1 30/2/1 31/2/1
f 33/1/1 32/1/1 31/1/1
f 34/2/1 30/2/1 32/2/1
f 34/1/1 32/1/1 33/1/1
f 35/2/1 30/2/1 34/2/1
f 38/2/1 37/2/1 36/2/1
f 39/2/1 37/2/1 38/2/1
f 40/1/2 41/1/2 43/1/2
f 41/2/2 42/2/2 43/2/2
f 43/2/2 42/2/2 44/2/2
f 40/1/2 43/1/2 45/1/2
f 43/1/2 44/1/2 45/1/2
f 45/1/2 44/1/2 46/1/2
f 45/2/2 46/2/2 47/2/2
f 46/1/2 44/1/2 47/1/2
f 47/1/2 44/1/2 48/1/2
f 45/2/2 47/2/2 49/2/2
f 47/2/2 48/2/2 49/2/2
f 49/2/2 48/2/2 50/2/2
f 50/2/2 48/2/2 51/2/2
f 52/2/2 53/2/2 54/2/2
f 54/2/2 53/2/2 55/2/2
f 52/2/2 54/2/2 56/2/2
f 54/1/2 55/1/2 57/1/2
f 56/2/2 54/2/2 57/2/2
f 57/1/2 55/1/2 58/1/2
f 59/2/2 60/2/2 62/2/2
f 60/1/2 61/1/2 63/1/2
f 62/2/2 60/2/2 63/2/2
f 63/1/2 61/1/2 64/1/2
f 71/2/3 66/2/3 65/2/3
f 72/2/3 66/2/3 71/2/3
f 73/1/3 67/1/3 66/1/3
f 73/2/3 66/2/3 72/2/3
f 74/2/3 68/2/3 67/2/3
f 74/1/3 67/1/3 73/1/3
f 75/2/3 68/2/3 74/2/3
f 79/1/3 70/1/3 69/1/3
f 80/2/3 71/2/3 70/2/3
f 80/1/3 70/1/3 79/1/3
f 81/1/3 72/1/3 71/1/3
f 81/2/3 71/2/3 80/2/3
f 82/2/3 73/2/3 72/2/3
f 82/1/3 72/1/3 81/1/3
f 82/2/3 74/2/3 73/2/3
f 82/2/3 75/2/3 74/2/3
f 82/2/3 76/2/3 75/2/3
f 83/2/3 76/2/3 82/2/3
f 84/2/3 76/2/3 83/2/3
f 86/2/3 78/2/3 77/2/3
f 86/1/3 79/1/3 78/1/3
f 87/2/3 80/2/3 79/2/3
f 87/1/3 79/1/3 86/1/3
f 88/1/3 81/1/3 80/1/3
f 88/2/3 80/2/3 87/2/3
f 88/1/3 82/1/3 81/1/3
f 88/1/3 83/1/3 82/1/3
f 89/2/3 85/2/3 84/2/3
f 89/1/3 83/1/3 88/1/3
f 89/2/3 84/2/3 83/2/3
f 90/2/3 85/2/3 89/2/3
f 91/2/3 88/2/3 87/2/3
f 91/2/3 86/2/3 77/2/3
f 91/2/3 87/2/3 86/2/3
f 92/2/3 88/2/3 91/2/3
f 93/2/3 85/2/3 90/2/3
f 94/2/3 85/2/3 93/2/3
f 95/2/4 96/2/4 102/2/4
f 96/1/4 97/1/4 103/1/4
f 102/2/4 96/2/4 103/2/4
f 97/2/4 98/2/4 104/2/4
f 103/1/4 97/1/4 104/1/4
f 104/2/4 98/2/4 105/2/4
f 105/2/4 98/2/4 106/2/4
f 99/2/4 100/2/4 110/2/4
f 100/1/4 101/1/4 111/1/4
f 110/2/4 100/2/4 111/2/4
f 101/2/4 102/2/4 112/2/4
f 111/1/4 101/1/4 112/1/4
f 102/2/4 103/2/4 112/2/4
f 103/2/4 104/2/4 112/2/4
f 104/2/4 105/2/4 112/2/4
f 112/2/4 105/2/4 113/2/4
f 113/2/4 105/2/4 114/2/4
f 106/1/4 107/1/4 115/1/4
f 114/2/4 105/2/4 115/2/4
f 105/1/4 106/1/4 115/1/4
f 107/2/4 108/2/4 116/2/4
f 115/1/4 107/1/4 116/1/4
f 116/2/4 108/2/4 117/2/4
f 109/2/4 110/2/4 119/2/4
f 110/2/4 111/2/4 119/2/4
f 112/2/4 113/2/4 119/2/4
f 111/2/4 112/2/4 119/2/4
f 119/2/4 113/2/4 120/2/4
f 113/1/4 114/1/4 121/1/4
f 120/2/4 113/2/4 121/2/4
f 117/2/4 118/2/4 122/2/4
f 121/1/4 114/1/4 122/1/4
f 116/2/4 117/2/4 122/2/4
f 114/2/4 115/2/4 122/2/4
f 115/2/4 116/2/4 122/2/4
f 122/2/4 118/2/4 123/2/4
f 123/2/4 118/2/4 124/2/4
f 109/2/4 119/2/4 125/2/4
f 119/1/4 120/1/4 126/1/4
f 125/2/4 119/2/4 126/2/4
f 126/1/4 120/1/4 127/1/4
f 123/1/4 124/1/4 128/1/4
f 128/1/4 124/1/4 129/1/4
f 132/2/5 131/2/5 130/2/5
f 133/2/5 131/2/5 132/2/5
f 136/1/5 135/1/5 134/1/5
f 137/1/5 135/1/5 136/1/5
f 138/2/5 137/2/5 136/2/5
f 139/2/5 137/2/5 138/2/5
f 142/2/5 141/2/5 140/2/5
f 143/2/5 141/2/5 142/2/5
f 146/2/5 145/2/5 144/2/5
f 147/2/5 145/2/5 146/2/5
f 148/1/5 147/1/5 146/1/5
f 149/1/5 147/1/5 148/1/5
f 150/2/6 151/2/6 152/2/6
f 152/2/6 151/2/6 153/2/6
f 152/1/6 153/1/6 154/1/6
f 154/1/6 153/1/6 155/1/6
f 156/2/6 157/2/6 158/2/6
f 156/2/6 158/2/6 159/2/6
f 159/2/6 158/2/6 160/2/6
f 161/2/6 162/2/6 163/2/6
f 163/2/6 162/2/6 164/2/6
f 165/2/6 166/2/6 167/2/6
f 167/2/6 166/2/6 168/2/6
f 165/2/6 167/2/6 169/2/6
f 167/1/6 168/1/6 170/1/6
f 169/2/6 167/2/6 170/2/6
f 170/1/6 168/1/6 171/1/6
