# MagicaVoxel @ Ephtracy

# group
o Graveyard - Grave Stone - Cross - Variant2

# material
mtllib Medieval Assets-186-Graveyard - Grave Stone - Cross - Variant2.mtl
usemtl palette

# normals
vn -1 0 0
vn 1 0 0
vn 0 0 1
vn 0 0 -1
vn 0 -1 0
vn 0 1 0

# texcoords
vt 0.134766 0.5
vt 0.138672 0.5
vt 0.146484 0.5

# verts
v -31.7 1.6 -16.4
v -31.7 1.6 -16.5
v -31.7 1.7 -16.4
v -31.7 1.7 -16.5
v -31.6 0.7 -16.4
v -31.6 0.7 -16.5
v -31.6 0.8 -16.4
v -31.6 0.8 -16.5
v -31.6 1.5 -16.4
v -31.6 1.5 -16.5
v -31.6 1.6 -16.3
v -31.6 1.6 -16.4
v -31.6 1.6 -16.5
v -31.6 1.6 -16.6
v -31.6 1.7 -16.3
v -31.6 1.7 -16.4
v -31.6 1.7 -16.5
v -31.6 1.7 -16.6
v -31.6 1.8 -16.4
v -31.6 1.8 -16.5
v -31.3 0.7 -16.3
v -31.3 0.7 -16.4
v -31.3 0.7 -16.5
v -31.3 0.7 -16.6
v -31.3 0.8 -16.3
v -31.3 0.8 -16.4
v -31.3 0.8 -16.5
v -31.3 0.8 -16.6
v -31.3 1 -16.4
v -31.3 1 -16.5
v -31.3 1.3 -16.4
v -31.3 1.3 -16.5
v -31.3 1.5 -16.4
v -31.3 1.5 -16.5
v -31.3 1.8 -16.4
v -31.3 1.8 -16.5
v -31.3 1.9 -16.4
v -31.3 1.9 -16.5
v -31.2 0.8 -16.3
v -31.2 0.8 -16.4
v -31.2 0.8 -16.5
v -31.2 0.8 -16.6
v -31.2 0.9 -16.5
v -31.2 0.9 -16.6
v -31.2 1 -16.3
v -31.2 1 -16.4
v -31.2 1 -16.5
v -31.2 1.1 -16.5
v -31.2 1.1 -16.6
v -31.2 1.3 -16.3
v -31.2 1.3 -16.4
v -31.2 1.3 -16.5
v -31.2 1.3 -16.6
v -31.2 1.4 -16.3
v -31.2 1.4 -16.4
v -31.2 1.6 -16.3
v -31.2 1.6 -16.4
v -31.2 1.6 -16.5
v -31.2 1.6 -16.6
v -31.2 1.7 -16.3
v -31.2 1.7 -16.4
v -31.2 1.7 -16.5
v -31.2 1.7 -16.6
v -31.2 1.8 -16.4
v -31.2 1.8 -16.5
v -31.2 1.8 -16.6
v -31.2 1.9 -16.3
v -31.2 1.9 -16.4
v -31.2 1.9 -16.5
v -31.2 1.9 -16.6
v -31.2 2 -16.4
v -31.2 2 -16.5
v -30.9 0.7 -16.5
v -30.9 0.7 -16.6
v -30.9 0.9 -16.5
v -30.9 0.9 -16.6
v -30.8 0.7 -16.4
v -30.8 0.7 -16.5
v -30.8 0.9 -16.4
v -30.8 0.9 -16.5
v -30.7 0.7 -16.3
v -30.7 0.7 -16.4
v -30.7 0.8 -16.3
v -30.7 0.8 -16.4
v -31.5 0.7 -16.4
v -31.5 0.7 -16.5
v -31.5 0.8 -16.4
v -31.5 0.8 -16.5
v -31.1 0.8 -16.3
v -31.1 0.8 -16.4
v -31.1 0.8 -16.5
v -31.1 0.8 -16.6
v -31.1 0.9 -16.5
v -31.1 0.9 -16.6
v -31.1 1 -16.3
v -31.1 1 -16.4
v -31.1 1 -16.5
v -31.1 1.1 -16.4
v -31.1 1.1 -16.5
v -31.1 1.1 -16.6
v -31.1 1.3 -16.3
v -31.1 1.3 -16.4
v -31.1 1.3 -16.5
v -31.1 1.3 -16.6
v -31.1 1.4 -16.3
v -31.1 1.4 -16.4
v -31.1 1.5 -16.4
v -31.1 1.5 -16.5
v -31.1 1.6 -16.3
v -31.1 1.6 -16.4
v -31.1 1.6 -16.5
v -31.1 1.6 -16.6
v -31.1 1.7 -16.3
v -31.1 1.7 -16.4
v -31.1 1.7 -16.5
v -31.1 1.7 -16.6
v -31.1 1.8 -16.4
v -31.1 1.8 -16.5
v -31.1 1.8 -16.6
v -31.1 1.9 -16.3
v -31.1 1.9 -16.4
v -31.1 1.9 -16.5
v -31.1 1.9 -16.6
v -31.1 2 -16.4
v -31.1 2 -16.5
v -31 0.7 -16.3
v -31 0.7 -16.4
v -31 0.7 -16.5
v -31 0.7 -16.6
v -31 0.8 -16.3
v -31 0.8 -16.4
v -31 0.8 -16.5
v -31 0.8 -16.6
v -31 1 -16.4
v -31 1 -16.5
v -31 1.1 -16.4
v -31 1.1 -16.5
v -31 1.5 -16.4
v -31 1.5 -16.5
v -31 1.8 -16.4
v -31 1.8 -16.5
v -31 1.9 -16.4
v -31 1.9 -16.5
v -30.9 1.5 -16.4
v -30.9 1.5 -16.5
v -30.9 1.6 -16.3
v -30.9 1.6 -16.4
v -30.9 1.6 -16.5
v -30.9 1.7 -16.3
v -30.9 1.7 -16.4
v -30.9 1.7 -16.5
v -30.9 1.8 -16.4
v -30.9 1.8 -16.5
v -30.8 0.8 -16.5
v -30.8 0.8 -16.6
v -30.8 0.9 -16.5
v -30.8 0.9 -16.6
v -30.8 1.6 -16.4
v -30.8 1.6 -16.5
v -30.8 1.6 -16.6
v -30.8 1.7 -16.4
v -30.8 1.7 -16.5
v -30.8 1.7 -16.6
v -30.7 0.7 -16.5
v -30.7 0.7 -16.6
v -30.7 0.8 -16.4
v -30.7 0.8 -16.5
v -30.7 0.8 -16.6
v -30.7 0.9 -16.4
v -30.7 0.9 -16.5
v -30.6 0.7 -16.3
v -30.6 0.7 -16.5
v -30.6 0.8 -16.3
v -30.6 0.8 -16.5
v -31.6 1.6 -16.3
v -31.6 1.7 -16.3
v -31.3 0.7 -16.3
v -31.3 0.8 -16.3
v -31.2 0.7 -16.3
v -31.2 0.8 -16.3
v -31.2 1 -16.3
v -31.2 1.3 -16.3
v -31.2 1.4 -16.3
v -31.2 1.6 -16.3
v -31.2 1.7 -16.3
v -31.2 1.9 -16.3
v -31.1 0.7 -16.3
v -31.1 0.8 -16.3
v -31.1 1 -16.3
v -31.1 1.3 -16.3
v -31.1 1.4 -16.3
v -31.1 1.6 -16.3
v -31.1 1.7 -16.3
v -31.1 1.9 -16.3
v -31 0.7 -16.3
v -31 0.8 -16.3
v -30.9 1.6 -16.3
v -30.9 1.7 -16.3
v -30.7 0.7 -16.3
v -30.7 0.8 -16.3
v -30.6 0.7 -16.3
v -30.6 0.8 -16.3
v -31.7 1.6 -16.4
v -31.7 1.7 -16.4
v -31.6 0.7 -16.4
v -31.6 0.8 -16.4
v -31.6 1.5 -16.4
v -31.6 1.6 -16.4
v -31.6 1.7 -16.4
v -31.6 1.8 -16.4
v -31.5 0.7 -16.4
v -31.5 0.8 -16.4
v -31.3 0.8 -16.4
v -31.3 1 -16.4
v -31.3 1.3 -16.4
v -31.3 1.5 -16.4
v -31.3 1.6 -16.4
v -31.3 1.7 -16.4
v -31.3 1.8 -16.4
v -31.3 1.9 -16.4
v -31.2 0.8 -16.4
v -31.2 1 -16.4
v -31.2 1.3 -16.4
v -31.2 1.4 -16.4
v -31.2 1.6 -16.4
v -31.2 1.7 -16.4
v -31.2 1.8 -16.4
v -31.2 1.9 -16.4
v -31.2 2 -16.4
v -31.1 0.8 -16.4
v -31.1 1 -16.4
v -31.1 1.1 -16.4
v -31.1 1.3 -16.4
v -31.1 1.4 -16.4
v -31.1 1.5 -16.4
v -31.1 1.6 -16.4
v -31.1 1.7 -16.4
v -31.1 1.8 -16.4
v -31.1 1.9 -16.4
v -31.1 2 -16.4
v -31 0.8 -16.4
v -31 1 -16.4
v -31 1.1 -16.4
v -31 1.5 -16.4
v -31 1.6 -16.4
v -31 1.7 -16.4
v -31 1.8 -16.4
v -31 1.9 -16.4
v -30.9 1.5 -16.4
v -30.9 1.6 -16.4
v -30.9 1.7 -16.4
v -30.9 1.8 -16.4
v -30.8 0.7 -16.4
v -30.8 0.9 -16.4
v -30.8 1.6 -16.4
v -30.8 1.7 -16.4
v -30.7 0.7 -16.4
v -30.7 0.8 -16.4
v -30.7 0.9 -16.4
v -30.9 0.7 -16.5
v -30.9 0.9 -16.5
v -30.8 0.7 -16.5
v -30.8 0.9 -16.5
v -31.7 1.6 -16.5
v -31.7 1.7 -16.5
v -31.6 0.7 -16.5
v -31.6 0.8 -16.5
v -31.6 1.5 -16.5
v -31.6 1.6 -16.5
v -31.6 1.7 -16.5
v -31.6 1.8 -16.5
v -31.5 0.7 -16.5
v -31.5 0.8 -16.5
v -31.4 1.6 -16.5
v -31.4 1.7 -16.5
v -31.3 0.8 -16.5
v -31.3 1 -16.5
v -31.3 1.3 -16.5
v -31.3 1.5 -16.5
v -31.3 1.6 -16.5
v -31.3 1.7 -16.5
v -31.3 1.8 -16.5
v -31.3 1.9 -16.5
v -31.2 0.8 -16.5
v -31.2 0.9 -16.5
v -31.2 1 -16.5
v -31.2 1.3 -16.5
v -31.2 1.6 -16.5
v -31.2 1.7 -16.5
v -31.2 1.8 -16.5
v -31.2 1.9 -16.5
v -31.2 2 -16.5
v -31.1 0.8 -16.5
v -31.1 0.9 -16.5
v -31.1 1 -16.5
v -31.1 1.1 -16.5
v -31.1 1.3 -16.5
v -31.1 1.5 -16.5
v -31.1 1.6 -16.5
v -31.1 1.7 -16.5
v -31.1 1.8 -16.5
v -31.1 1.9 -16.5
v -31.1 2 -16.5
v -31 0.8 -16.5
v -31 1 -16.5
v -31 1.1 -16.5
v -31 1.5 -16.5
v -31 1.6 -16.5
v -31 1.7 -16.5
v -31 1.8 -16.5
v -31 1.9 -16.5
v -30.9 1.5 -16.5
v -30.9 1.6 -16.5
v -30.9 1.7 -16.5
v -30.9 1.8 -16.5
v -30.8 0.8 -16.5
v -30.8 0.9 -16.5
v -30.7 0.7 -16.5
v -30.7 0.8 -16.5
v -30.7 0.9 -16.5
v -30.6 0.7 -16.5
v -30.6 0.8 -16.5
v -31.6 1.6 -16.6
v -31.6 1.7 -16.6
v -31.4 1.6 -16.6
v -31.4 1.7 -16.6
v -31.3 0.7 -16.6
v -31.3 0.8 -16.6
v -31.2 0.7 -16.6
v -31.2 0.8 -16.6
v -31.2 0.9 -16.6
v -31.2 1.1 -16.6
v -31.2 1.3 -16.6
v -31.2 1.6 -16.6
v -31.2 1.7 -16.6
v -31.2 1.8 -16.6
v -31.2 1.9 -16.6
v -31.1 0.7 -16.6
v -31.1 0.8 -16.6
v -31.1 0.9 -16.6
v -31.1 1.1 -16.6
v -31.1 1.3 -16.6
v -31.1 1.6 -16.6
v -31.1 1.7 -16.6
v -31.1 1.8 -16.6
v -31.1 1.9 -16.6
v -31 0.7 -16.6
v -31 0.8 -16.6
v -30.9 0.7 -16.6
v -30.9 0.9 -16.6
v -30.9 1.6 -16.6
v -30.9 1.7 -16.6
v -30.8 0.8 -16.6
v -30.8 0.9 -16.6
v -30.8 1.6 -16.6
v -30.8 1.7 -16.6
v -30.7 0.7 -16.6
v -30.7 0.8 -16.6
v -31.3 0.7 -16.3
v -31.2 0.7 -16.3
v -31.1 0.7 -16.3
v -31 0.7 -16.3
v -30.7 0.7 -16.3
v -30.6 0.7 -16.3
v -31.6 0.7 -16.4
v -31.5 0.7 -16.4
v -31.3 0.7 -16.4
v -31.2 0.7 -16.4
v -31.1 0.7 -16.4
v -31 0.7 -16.4
v -30.8 0.7 -16.4
v -30.7 0.7 -16.4
v -31.6 0.7 -16.5
v -31.5 0.7 -16.5
v -31.3 0.7 -16.5
v -31.2 0.7 -16.5
v -31.1 0.7 -16.5
v -31 0.7 -16.5
v -30.9 0.7 -16.5
v -30.8 0.7 -16.5
v -30.7 0.7 -16.5
v -30.6 0.7 -16.5
v -31.3 0.7 -16.6
v -31.2 0.7 -16.6
v -31.1 0.7 -16.6
v -31 0.7 -16.6
v -30.9 0.7 -16.6
v -30.7 0.7 -16.6
v -31.3 1.3 -16.4
v -31.2 1.3 -16.4
v -31.3 1.3 -16.5
v -31.2 1.3 -16.5
v -31.6 1.5 -16.4
v -31.3 1.5 -16.4
v -31 1.5 -16.4
v -30.9 1.5 -16.4
v -31.6 1.5 -16.5
v -31.3 1.5 -16.5
v -31 1.5 -16.5
v -30.9 1.5 -16.5
v -31.6 1.6 -16.3
v -31.2 1.6 -16.3
v -31.1 1.6 -16.3
v -30.9 1.6 -16.3
v -31.7 1.6 -16.4
v -31.6 1.6 -16.4
v -31.3 1.6 -16.4
v -31.2 1.6 -16.4
v -31.1 1.6 -16.4
v -31 1.6 -16.4
v -30.9 1.6 -16.4
v -30.8 1.6 -16.4
v -31.7 1.6 -16.5
v -31.6 1.6 -16.5
v -31.4 1.6 -16.5
v -31.3 1.6 -16.5
v -31.2 1.6 -16.5
v -31.1 1.6 -16.5
v -31 1.6 -16.5
v -30.9 1.6 -16.5
v -30.8 1.6 -16.5
v -31.6 1.6 -16.6
v -31.4 1.6 -16.6
v -31.2 1.6 -16.6
v -31.1 1.6 -16.6
v -30.9 1.6 -16.6
v -30.8 1.6 -16.6
v -31.3 0.8 -16.3
v -31.2 0.8 -16.3
v -31.1 0.8 -16.3
v -31 0.8 -16.3
v -30.7 0.8 -16.3
v -30.6 0.8 -16.3
v -31.6 0.8 -16.4
v -31.5 0.8 -16.4
v -31.3 0.8 -16.4
v -31.2 0.8 -16.4
v -31.1 0.8 -16.4
v -31 0.8 -16.4
v -30.7 0.8 -16.4
v -31.6 0.8 -16.5
v -31.5 0.8 -16.5
v -31.3 0.8 -16.5
v -31.2 0.8 -16.5
v -31.1 0.8 -16.5
v -31 0.8 -16.5
v -30.8 0.8 -16.5
v -30.7 0.8 -16.5
v -30.6 0.8 -16.5
v -31.3 0.8 -16.6
v -31.2 0.8 -16.6
v -31.1 0.8 -16.6
v -31 0.8 -16.6
v -30.8 0.8 -16.6
v -30.7 0.8 -16.6
v -30.8 0.9 -16.4
v -30.7 0.9 -16.4
v -30.9 0.9 -16.5
v -30.8 0.9 -16.5
v -30.7 0.9 -16.5
v -30.9 0.9 -16.6
v -30.8 0.9 -16.6
v -31.3 1 -16.4
v -31.2 1 -16.4
v -31.3 1 -16.5
v -31.2 1 -16.5
v -31.6 1.7 -16.3
v -31.2 1.7 -16.3
v -31.1 1.7 -16.3
v -30.9 1.7 -16.3
v -31.7 1.7 -16.4
v -31.6 1.7 -16.4
v -31.3 1.7 -16.4
v -31.2 1.7 -16.4
v -31.1 1.7 -16.4
v -31 1.7 -16.4
v -30.9 1.7 -16.4
v -30.8 1.7 -16.4
v -31.7 1.7 -16.5
v -31.6 1.7 -16.5
v -31.4 1.7 -16.5
v -31.3 1.7 -16.5
v -31.2 1.7 -16.5
v -31.1 1.7 -16.5
v -31 1.7 -16.5
v -30.9 1.7 -16.5
v -30.8 1.7 -16.5
v -31.6 1.7 -16.6
v -31.4 1.7 -16.6
v -31.2 1.7 -16.6
v -31.1 1.7 -16.6
v -30.9 1.7 -16.6
v -30.8 1.7 -16.6
v -31.6 1.8 -16.4
v -31.3 1.8 -16.4
v -31 1.8 -16.4
v -30.9 1.8 -16.4
v -31.6 1.8 -16.5
v -31.3 1.8 -16.5
v -31 1.8 -16.5
v -30.9 1.8 -16.5
v -31.2 1.9 -16.3
v -31.1 1.9 -16.3
v -31.3 1.9 -16.4
v -31.2 1.9 -16.4
v -31.1 1.9 -16.4
v -31 1.9 -16.4
v -31.3 1.9 -16.5
v -31.2 1.9 -16.5
v -31.1 1.9 -16.5
v -31 1.9 -16.5
v -31.2 1.9 -16.6
v -31.1 1.9 -16.6
v -31.2 2 -16.4
v -31.1 2 -16.4
v -31.2 2 -16.5
v -31.1 2 -16.5

# faces
f 3/2/1 2/2/1 1/2/1
f 4/2/1 2/2/1 3/2/1
f 7/2/1 6/2/1 5/2/1
f 8/2/1 6/2/1 7/2/1
f 12/1/1 10/1/1 9/1/1
f 13/1/1 10/1/1 12/1/1
f 15/2/1 12/2/1 11/2/1
f 16/2/1 12/2/1 15/2/1
f 17/1/1 14/1/1 13/1/1
f 18/1/1 14/1/1 17/1/1
f 19/2/1 17/2/1 16/2/1
f 20/2/1 17/2/1 19/2/1
f 25/2/1 22/2/1 21/2/1
f 26/1/1 23/1/1 22/1/1
f 26/2/1 22/2/1 25/2/1
f 27/3/1 24/3/1 23/3/1
f 27/1/1 23/1/1 26/1/1
f 28/3/1 24/3/1 27/3/1
f 29/3/1 27/3/1 26/3/1
f 30/3/1 27/3/1 29/3/1
f 33/2/1 32/2/1 31/2/1
f 34/2/1 32/2/1 33/2/1
f 37/2/1 36/2/1 35/2/1
f 38/2/1 36/2/1 37/2/1
f 43/3/1 42/3/1 41/3/1
f 44/3/1 42/3/1 43/3/1
f 45/3/1 40/3/1 39/3/1
f 46/3/1 40/3/1 45/3/1
f 47/2/1 44/2/1 43/2/1
f 48/2/1 44/2/1 47/2/1
f 48/1/1 47/1/1 46/1/1
f 49/2/1 44/2/1 48/2/1
f 50/2/1 46/2/1 45/2/1
f 51/1/1 48/1/1 46/1/1
f 51/2/1 46/2/1 50/2/1
f 51/1/1 49/1/1 48/1/1
f 52/1/1 49/1/1 51/1/1
f 53/1/1 49/1/1 52/1/1
f 54/1/1 51/1/1 50/1/1
f 55/1/1 51/1/1 54/1/1
f 56/2/1 55/2/1 54/2/1
f 57/2/1 55/2/1 56/2/1
f 58/2/1 53/2/1 52/2/1
f 59/2/1 53/2/1 58/2/1
f 64/2/1 61/2/1 60/2/1
f 65/2/1 63/2/1 62/2/1
f 66/2/1 63/2/1 65/2/1
f 67/2/1 64/2/1 60/2/1
f 68/2/1 64/2/1 67/2/1
f 69/1/1 66/1/1 65/1/1
f 70/1/1 66/1/1 69/1/1
f 71/1/1 69/1/1 68/1/1
f 72/1/1 69/1/1 71/1/1
f 75/2/1 74/2/1 73/2/1
f 76/2/1 74/2/1 75/2/1
f 79/2/1 78/2/1 77/2/1
f 80/2/1 78/2/1 79/2/1
f 83/2/1 82/2/1 81/2/1
f 84/2/1 82/2/1 83/2/1
f 85/2/2 86/2/2 87/2/2
f 87/2/2 86/2/2 88/2/2
f 91/3/2 92/3/2 93/3/2
f 93/3/2 92/3/2 94/3/2
f 89/3/2 90/3/2 95/3/2
f 95/3/2 90/3/2 96/3/2
f 93/2/2 94/2/2 97/2/2
f 95/2/2 96/2/2 98/2/2
f 97/2/2 94/2/2 99/2/2
f 99/2/2 94/2/2 100/2/2
f 95/2/2 98/2/2 101/2/2
f 101/2/2 98/2/2 102/2/2
f 99/1/2 100/1/2 103/1/2
f 103/1/2 100/1/2 104/1/2
f 101/1/2 102/1/2 105/1/2
f 105/1/2 102/1/2 106/1/2
f 105/2/2 106/2/2 107/2/2
f 103/2/2 104/2/2 108/2/2
f 105/2/2 107/2/2 109/2/2
f 109/2/2 107/2/2 110/2/2
f 108/2/2 104/2/2 111/2/2
f 111/2/2 104/2/2 112/2/2
f 113/2/2 114/2/2 117/2/2
f 115/2/2 116/2/2 118/2/2
f 118/2/2 116/2/2 119/2/2
f 113/2/2 117/2/2 120/2/2
f 120/2/2 117/2/2 121/2/2
f 118/1/2 119/1/2 122/1/2
f 122/1/2 119/1/2 123/1/2
f 121/1/2 122/1/2 124/1/2
f 124/1/2 122/1/2 125/1/2
f 126/3/2 127/3/2 130/3/2
f 127/1/2 128/1/2 131/1/2
f 130/3/2 127/3/2 131/3/2
f 128/3/2 129/3/2 132/3/2
f 131/1/2 128/1/2 132/1/2
f 132/3/2 129/3/2 133/3/2
f 131/2/2 132/2/2 134/2/2
f 134/2/2 132/2/2 135/2/2
f 134/3/2 135/3/2 136/3/2
f 136/3/2 135/3/2 137/3/2
f 136/2/2 137/2/2 138/2/2
f 138/2/2 137/2/2 139/2/2
f 140/2/2 141/2/2 142/2/2
f 142/2/2 141/2/2 143/2/2
f 144/2/2 145/2/2 147/2/2
f 147/2/2 145/2/2 148/2/2
f 146/2/2 147/2/2 149/2/2
f 149/2/2 147/2/2 150/2/2
f 150/2/2 151/2/2 152/2/2
f 152/2/2 151/2/2 153/2/2
f 154/2/2 155/2/2 156/2/2
f 156/2/2 155/2/2 157/2/2
f 158/1/2 159/1/2 161/1/2
f 159/2/2 160/2/2 162/2/2
f 161/1/2 159/1/2 162/1/2
f 162/2/2 160/2/2 163/2/2
f 164/2/2 165/2/2 167/2/2
f 167/2/2 165/2/2 168/2/2
f 166/2/2 167/2/2 169/2/2
f 169/2/2 167/2/2 170/2/2
f 171/2/2 172/2/2 173/2/2
f 173/2/2 172/2/2 174/2/2
f 179/2/3 178/2/3 177/2/3
f 180/2/3 178/2/3 179/2/3
f 184/2/3 176/2/3 175/2/3
f 185/2/3 176/2/3 184/2/3
f 187/1/3 180/1/3 179/1/3
f 188/3/3 181/3/3 180/3/3
f 188/1/3 180/1/3 187/1/3
f 189/2/3 182/2/3 181/2/3
f 189/3/3 181/3/3 188/3/3
f 190/1/3 183/1/3 182/1/3
f 190/2/3 182/2/3 189/2/3
f 191/2/3 184/2/3 183/2/3
f 191/1/3 183/1/3 190/1/3
f 192/1/3 185/1/3 184/1/3
f 192/2/3 184/2/3 191/2/3
f 193/2/3 186/2/3 185/2/3
f 193/1/3 185/1/3 192/1/3
f 194/2/3 186/2/3 193/2/3
f 195/3/3 188/3/3 187/3/3
f 196/3/3 188/3/3 195/3/3
f 197/2/3 193/2/3 192/2/3
f 198/2/3 193/2/3 197/2/3
f 201/2/3 200/2/3 199/2/3
f 202/2/3 200/2/3 201/2/3
f 208/2/3 204/2/3 203/2/3
f 209/2/3 204/2/3 208/2/3
f 211/2/3 206/2/3 205/2/3
f 212/2/3 206/2/3 211/2/3
f 216/1/3 208/1/3 207/1/3
f 217/1/3 208/1/3 216/1/3
f 218/2/3 210/2/3 209/2/3
f 219/2/3 210/2/3 218/2/3
f 221/3/3 214/3/3 213/3/3
f 222/3/3 214/3/3 221/3/3
f 223/2/3 217/2/3 216/2/3
f 223/2/3 216/2/3 215/2/3
f 224/2/3 217/2/3 223/2/3
f 225/2/3 217/2/3 224/2/3
f 226/1/3 219/1/3 218/1/3
f 227/2/3 220/2/3 219/2/3
f 227/1/3 219/1/3 226/1/3
f 228/2/3 220/2/3 227/2/3
f 239/1/3 229/1/3 228/1/3
f 240/1/3 229/1/3 239/1/3
f 241/2/3 231/2/3 230/2/3
f 242/3/3 232/3/3 231/3/3
f 242/2/3 231/2/3 241/2/3
f 243/2/3 233/2/3 232/2/3
f 243/3/3 232/3/3 242/3/3
f 243/2/3 234/2/3 233/2/3
f 243/2/3 235/2/3 234/2/3
f 244/1/3 236/1/3 235/1/3
f 244/2/3 235/2/3 243/2/3
f 245/1/3 236/1/3 244/1/3
f 246/1/3 238/1/3 237/1/3
f 247/2/3 239/2/3 238/2/3
f 247/1/3 238/1/3 246/1/3
f 248/2/3 239/2/3 247/2/3
f 249/2/3 245/2/3 244/2/3
f 250/2/3 245/2/3 249/2/3
f 251/2/3 247/2/3 246/2/3
f 252/2/3 247/2/3 251/2/3
f 255/1/3 251/1/3 250/1/3
f 256/1/3 251/1/3 255/1/3
f 257/2/3 254/2/3 253/2/3
f 258/2/3 254/2/3 257/2/3
f 259/2/3 254/2/3 258/2/3
f 262/2/3 261/2/3 260/2/3
f 263/2/3 261/2/3 262/2/3
f 264/2/4 265/2/4 269/2/4
f 269/2/4 265/2/4 270/2/4
f 266/2/4 267/2/4 272/2/4
f 272/2/4 267/2/4 273/2/4
f 268/1/4 269/1/4 274/1/4
f 270/2/4 271/2/4 275/2/4
f 268/1/4 274/1/4 279/1/4
f 279/1/4 274/1/4 280/1/4
f 275/2/4 271/2/4 281/2/4
f 281/2/4 271/2/4 282/2/4
f 276/3/4 277/3/4 284/3/4
f 284/3/4 277/3/4 285/3/4
f 285/3/4 277/3/4 286/3/4
f 279/2/4 280/2/4 287/2/4
f 278/2/4 279/2/4 287/2/4
f 287/2/4 280/2/4 288/2/4
f 281/1/4 282/1/4 289/1/4
f 282/2/4 283/2/4 290/2/4
f 289/1/4 282/1/4 290/1/4
f 290/2/4 283/2/4 291/2/4
f 291/1/4 292/1/4 302/1/4
f 302/1/4 292/1/4 303/1/4
f 293/2/4 294/2/4 304/2/4
f 294/2/4 295/2/4 304/2/4
f 295/3/4 296/3/4 305/3/4
f 304/2/4 295/2/4 305/2/4
f 296/2/4 297/2/4 306/2/4
f 305/3/4 296/3/4 306/3/4
f 297/2/4 298/2/4 306/2/4
f 298/1/4 299/1/4 307/1/4
f 306/2/4 298/2/4 307/2/4
f 307/1/4 299/1/4 308/1/4
f 300/1/4 301/1/4 309/1/4
f 301/2/4 302/2/4 310/2/4
f 309/1/4 301/1/4 310/1/4
f 310/2/4 302/2/4 311/2/4
f 307/2/4 308/2/4 312/2/4
f 312/2/4 308/2/4 313/2/4
f 309/2/4 310/2/4 314/2/4
f 314/2/4 310/2/4 315/2/4
f 316/2/4 317/2/4 319/2/4
f 319/2/4 317/2/4 320/2/4
f 318/2/4 319/2/4 321/2/4
f 321/2/4 319/2/4 322/2/4
f 323/1/4 324/1/4 325/1/4
f 325/1/4 324/1/4 326/1/4
f 327/3/4 328/3/4 329/3/4
f 329/3/4 328/3/4 330/3/4
f 325/2/4 326/2/4 334/2/4
f 334/2/4 326/2/4 335/2/4
f 329/1/4 330/1/4 338/1/4
f 330/3/4 331/3/4 339/3/4
f 338/1/4 330/1/4 339/1/4
f 331/2/4 332/2/4 340/2/4
f 339/3/4 331/3/4 340/3/4
f 332/1/4 333/1/4 341/1/4
f 340/2/4 332/2/4 341/2/4
f 333/2/4 334/2/4 342/2/4
f 341/1/4 333/1/4 342/1/4
f 334/1/4 335/1/4 343/1/4
f 342/2/4 334/2/4 343/2/4
f 335/2/4 336/2/4 344/2/4
f 343/1/4 335/1/4 344/1/4
f 336/1/4 337/1/4 345/1/4
f 344/2/4 336/2/4 345/2/4
f 345/1/4 337/1/4 346/1/4
f 338/3/4 339/3/4 347/3/4
f 347/3/4 339/3/4 348/3/4
f 343/1/4 344/1/4 351/1/4
f 351/1/4 344/1/4 352/1/4
f 349/2/4 350/2/4 353/2/4
f 353/2/4 350/2/4 354/2/4
f 351/2/4 352/2/4 355/2/4
f 355/2/4 352/2/4 356/2/4
f 349/2/4 353/2/4 357/2/4
f 357/2/4 353/2/4 358/2/4
f 367/2/5 360/2/5 359/2/5
f 368/1/5 361/1/5 360/1/5
f 368/2/5 360/2/5 367/2/5
f 369/3/5 362/3/5 361/3/5
f 369/1/5 361/1/5 368/1/5
f 370/3/5 362/3/5 369/3/5
f 372/2/5 364/2/5 363/2/5
f 373/2/5 366/2/5 365/2/5
f 374/2/5 366/2/5 373/2/5
f 375/1/5 368/1/5 367/1/5
f 375/1/5 370/1/5 369/1/5
f 375/1/5 369/1/5 368/1/5
f 376/1/5 370/1/5 375/1/5
f 377/1/5 370/1/5 376/1/5
f 378/1/5 370/1/5 377/1/5
f 380/2/5 372/2/5 371/2/5
f 381/2/5 364/2/5 372/2/5
f 381/2/5 372/2/5 380/2/5
f 382/2/5 364/2/5 381/2/5
f 383/3/5 376/3/5 375/3/5
f 384/1/5 377/1/5 376/1/5
f 384/3/5 376/3/5 383/3/5
f 385/3/5 378/3/5 377/3/5
f 385/1/5 377/1/5 384/1/5
f 386/3/5 378/3/5 385/3/5
f 387/2/5 380/2/5 379/2/5
f 387/2/5 381/2/5 380/2/5
f 388/2/5 381/2/5 387/2/5
f 391/2/5 390/2/5 389/2/5
f 392/2/5 390/2/5 391/2/5
f 397/1/5 394/1/5 393/1/5
f 398/1/5 394/1/5 397/1/5
f 399/2/5 396/2/5 395/2/5
f 400/2/5 396/2/5 399/2/5
f 406/2/5 402/2/5 401/2/5
f 407/2/5 402/2/5 406/2/5
f 408/2/5 402/2/5 407/2/5
f 409/2/5 404/2/5 403/2/5
f 410/2/5 404/2/5 409/2/5
f 411/2/5 404/2/5 410/2/5
f 413/2/5 406/2/5 405/2/5
f 414/2/5 406/2/5 413/2/5
f 420/1/5 412/1/5 411/1/5
f 421/1/5 412/1/5 420/1/5
f 422/1/5 415/1/5 414/1/5
f 423/2/5 416/2/5 415/2/5
f 423/1/5 415/1/5 422/1/5
f 423/2/5 417/2/5 416/2/5
f 424/2/5 417/2/5 423/2/5
f 425/1/5 419/1/5 418/1/5
f 425/1/5 420/1/5 419/1/5
f 426/2/5 421/2/5 420/2/5
f 426/1/5 420/1/5 425/1/5
f 427/2/5 421/2/5 426/2/5
f 428/2/6 429/2/6 436/2/6
f 436/2/6 429/2/6 437/2/6
f 430/3/6 431/3/6 438/3/6
f 438/3/6 431/3/6 439/3/6
f 432/2/6 433/2/6 440/2/6
f 434/2/6 435/2/6 441/2/6
f 441/2/6 435/2/6 442/2/6
f 440/2/6 433/2/6 448/2/6
f 448/2/6 433/2/6 449/2/6
f 443/3/6 444/3/6 450/3/6
f 450/3/6 444/3/6 451/3/6
f 445/3/6 446/3/6 452/3/6
f 452/3/6 446/3/6 453/3/6
f 447/2/6 448/2/6 454/2/6
f 454/2/6 448/2/6 455/2/6
f 456/2/6 457/2/6 459/2/6
f 459/2/6 457/2/6 460/2/6
f 458/2/6 459/2/6 461/2/6
f 461/2/6 459/2/6 462/2/6
f 463/3/6 464/3/6 465/3/6
f 465/3/6 464/3/6 466/3/6
f 467/2/6 468/2/6 472/2/6
f 472/2/6 468/2/6 473/2/6
f 473/2/6 468/2/6 474/2/6
f 469/2/6 470/2/6 475/2/6
f 475/2/6 470/2/6 476/2/6
f 476/2/6 470/2/6 477/2/6
f 471/2/6 472/2/6 479/2/6
f 479/2/6 472/2/6 480/2/6
f 477/1/6 478/1/6 486/1/6
f 486/1/6 478/1/6 487/1/6
f 480/1/6 481/1/6 488/1/6
f 481/2/6 482/2/6 489/2/6
f 488/1/6 481/1/6 489/1/6
f 482/2/6 483/2/6 489/2/6
f 489/2/6 483/2/6 490/2/6
f 484/1/6 485/1/6 491/1/6
f 485/1/6 486/1/6 491/1/6
f 486/2/6 487/2/6 492/2/6
f 491/1/6 486/1/6 492/1/6
f 492/2/6 487/2/6 493/2/6
f 494/2/6 495/2/6 498/2/6
f 498/2/6 495/2/6 499/2/6
f 496/2/6 497/2/6 500/2/6
f 500/2/6 497/2/6 501/2/6
f 502/2/6 503/2/6 505/2/6
f 505/2/6 503/2/6 506/2/6
f 504/2/6 505/2/6 508/2/6
f 508/2/6 505/2/6 509/2/6
f 506/2/6 507/2/6 510/2/6
f 510/2/6 507/2/6 511/2/6
f 509/1/6 510/1/6 512/1/6
f 512/1/6 510/1/6 513/1/6
f 514/1/6 515/1/6 516/1/6
f 516/1/6 515/1/6 517/1/6
