# MagicaVoxel @ Ephtracy

# group
o Decoration - Chair

# material
mtllib Medieval Assets-277-Decoration - Chair.mtl
usemtl palette

# normals
vn -1 0 0
vn 1 0 0
vn 0 0 1
vn 0 0 -1
vn 0 -1 0
vn 0 1 0

# texcoords
vt 0.197266 0.5
vt 0.201172 0.5
vt 0.205078 0.5

# verts
v -9.4 0 -6.6
v -9.4 0 -6.7
v -9.4 0 -7.2
v -9.4 0 -7.3
v -9.4 0.4 -6.7
v -9.4 0.4 -6.9
v -9.4 0.4 -7
v -9.4 0.4 -7.2
v -9.4 0.5 -6.6
v -9.4 0.5 -6.8
v -9.4 0.5 -7.1
v -9.4 0.5 -7.3
v -9.4 0.6 -6.6
v -9.4 0.6 -6.7
v -9.4 0.6 -6.8
v -9.4 0.6 -6.9
v -9.4 0.6 -7
v -9.4 0.6 -7.1
v -9.4 0.7 -6.6
v -9.4 0.7 -6.7
v -9.4 0.7 -6.8
v -9.4 0.7 -6.9
v -9.4 0.7 -7
v -9.4 0.7 -7.1
v -9.3 0.5 -6.7
v -9.3 0.5 -6.8
v -9.3 0.5 -7.1
v -9.3 0.5 -7.2
v -9.3 0.6 -6.5
v -9.3 0.6 -6.6
v -9.3 0.6 -6.7
v -9.3 0.6 -6.8
v -9.3 0.6 -7.1
v -9.3 0.6 -7.2
v -9.3 0.6 -7.3
v -9.3 0.7 -6.5
v -9.3 0.7 -6.6
v -9.3 0.7 -7.1
v -9.3 0.7 -7.2
v -9.3 0.7 -7.3
v -9.3 0.7 -7.4
v -9.3 0.8 -7.2
v -9.3 0.8 -7.3
v -9.3 1 -7.3
v -9.3 1 -7.4
v -9.3 1.5 -7.3
v -9.3 1.5 -7.4
v -9.2 0.6 -7.3
v -9.2 0.6 -7.4
v -9.2 0.7 -7.3
v -9.2 0.7 -7.4
v -8.9 0.4 -6.7
v -8.9 0.4 -6.8
v -8.9 0.4 -7.1
v -8.9 0.4 -7.2
v -8.9 0.5 -6.8
v -8.9 0.5 -6.9
v -8.9 0.5 -7
v -8.9 0.5 -7.1
v -8.9 0.6 -6.7
v -8.9 0.6 -6.9
v -8.9 0.6 -7
v -8.9 0.6 -7.2
v -8.8 0 -6.6
v -8.8 0 -6.7
v -8.8 0 -7.2
v -8.8 0 -7.3
v -8.8 0.4 -6.7
v -8.8 0.4 -6.8
v -8.8 0.4 -6.9
v -8.8 0.4 -7
v -8.8 0.4 -7.1
v -8.8 0.4 -7.2
v -8.8 0.5 -6.6
v -8.8 0.5 -6.7
v -8.8 0.5 -6.8
v -8.8 0.5 -6.9
v -8.8 0.5 -7
v -8.8 0.5 -7.1
v -8.8 0.5 -7.2
v -8.8 0.5 -7.3
v -9.3 0 -6.6
v -9.3 0 -6.7
v -9.3 0 -7.2
v -9.3 0 -7.3
v -9.3 0.4 -6.7
v -9.3 0.4 -6.8
v -9.3 0.4 -6.9
v -9.3 0.4 -7
v -9.3 0.4 -7.1
v -9.3 0.4 -7.2
v -9.3 0.5 -6.6
v -9.3 0.5 -6.7
v -9.3 0.5 -6.8
v -9.3 0.5 -6.9
v -9.3 0.5 -7
v -9.3 0.5 -7.1
v -9.3 0.5 -7.2
v -9.3 0.5 -7.3
v -9.2 0.4 -6.7
v -9.2 0.4 -6.8
v -9.2 0.4 -7.1
v -9.2 0.4 -7.2
v -9.2 0.5 -6.8
v -9.2 0.5 -6.9
v -9.2 0.5 -7
v -9.2 0.5 -7.1
v -9.2 0.6 -6.7
v -9.2 0.6 -6.9
v -9.2 0.6 -7
v -9.2 0.6 -7.2
v -8.9 0.6 -7.3
v -8.9 0.6 -7.4
v -8.9 0.7 -7.3
v -8.9 0.7 -7.4
v -8.8 0.5 -6.7
v -8.8 0.5 -6.8
v -8.8 0.5 -7.1
v -8.8 0.5 -7.2
v -8.8 0.6 -6.5
v -8.8 0.6 -6.6
v -8.8 0.6 -6.7
v -8.8 0.6 -6.8
v -8.8 0.6 -7.1
v -8.8 0.6 -7.2
v -8.8 0.6 -7.3
v -8.8 0.7 -6.5
v -8.8 0.7 -6.6
v -8.8 0.7 -7.1
v -8.8 0.7 -7.2
v -8.8 0.7 -7.3
v -8.8 0.7 -7.4
v -8.8 0.8 -7.2
v -8.8 0.8 -7.3
v -8.8 0.8 -7.4
v -8.8 0.9 -7.3
v -8.8 0.9 -7.4
v -8.8 1.1 -7.3
v -8.8 1.1 -7.4
v -8.8 1.5 -7.3
v -8.8 1.5 -7.4
v -8.7 0 -6.6
v -8.7 0 -6.7
v -8.7 0 -7.2
v -8.7 0 -7.3
v -8.7 0.4 -6.7
v -8.7 0.4 -6.9
v -8.7 0.4 -7
v -8.7 0.4 -7.2
v -8.7 0.5 -6.6
v -8.7 0.5 -6.8
v -8.7 0.5 -7.1
v -8.7 0.5 -7.3
v -8.7 0.6 -6.6
v -8.7 0.6 -6.7
v -8.7 0.6 -6.8
v -8.7 0.6 -6.9
v -8.7 0.6 -7
v -8.7 0.6 -7.1
v -8.7 0.7 -6.6
v -8.7 0.7 -6.7
v -8.7 0.7 -6.8
v -8.7 0.7 -6.9
v -8.7 0.7 -7
v -8.7 0.7 -7.1
v -9.3 0.6 -6.5
v -9.3 0.7 -6.5
v -9.2 0.6 -6.5
v -9.2 0.7 -6.5
v -9.1 0.6 -6.5
v -9.1 0.7 -6.5
v -9 0.6 -6.5
v -9 0.7 -6.5
v -8.9 0.6 -6.5
v -8.9 0.7 -6.5
v -8.8 0.6 -6.5
v -8.8 0.7 -6.5
v -9.4 0 -6.6
v -9.4 0.5 -6.6
v -9.4 0.6 -6.6
v -9.4 0.7 -6.6
v -9.3 0 -6.6
v -9.3 0.5 -6.6
v -9.3 0.6 -6.6
v -9.3 0.7 -6.6
v -8.8 0 -6.6
v -8.8 0.5 -6.6
v -8.8 0.6 -6.6
v -8.8 0.7 -6.6
v -8.7 0 -6.6
v -8.7 0.5 -6.6
v -8.7 0.6 -6.6
v -8.7 0.7 -6.6
v -9.3 0.4 -6.7
v -9.3 0.5 -6.7
v -9.3 0.6 -6.7
v -9.2 0.4 -6.7
v -9.2 0.6 -6.7
v -8.9 0.4 -6.7
v -8.9 0.6 -6.7
v -8.8 0.4 -6.7
v -8.8 0.5 -6.7
v -8.8 0.6 -6.7
v -9.4 0.5 -6.8
v -9.4 0.6 -6.8
v -9.3 0.5 -6.8
v -9.3 0.6 -6.8
v -8.8 0.5 -6.8
v -8.8 0.6 -6.8
v -8.7 0.5 -6.8
v -8.7 0.6 -6.8
v -9.4 0.4 -7
v -9.4 0.6 -7
v -9.3 0.4 -7
v -9.3 0.5 -7
v -9.2 0.5 -7
v -9.2 0.6 -7
v -8.9 0.5 -7
v -8.9 0.6 -7
v -8.8 0.4 -7
v -8.8 0.5 -7
v -8.7 0.4 -7
v -8.7 0.6 -7
v -9.3 0.4 -7.1
v -9.3 0.5 -7.1
v -9.2 0.4 -7.1
v -9.2 0.5 -7.1
v -8.9 0.4 -7.1
v -8.9 0.5 -7.1
v -8.8 0.4 -7.1
v -8.8 0.5 -7.1
v -9.4 0 -7.2
v -9.4 0.4 -7.2
v -9.3 0 -7.2
v -9.3 0.4 -7.2
v -9.3 0.7 -7.2
v -9.3 0.8 -7.2
v -9.2 0.7 -7.2
v -9.2 0.8 -7.2
v -8.9 0.7 -7.2
v -8.9 0.8 -7.2
v -8.8 0 -7.2
v -8.8 0.4 -7.2
v -8.8 0.7 -7.2
v -8.8 0.8 -7.2
v -8.7 0 -7.2
v -8.7 0.4 -7.2
v -9.3 0.8 -7.3
v -9.3 1 -7.3
v -9.3 1.5 -7.3
v -9.2 0.8 -7.3
v -9.2 1 -7.3
v -9.2 1.2 -7.3
v -9.1 1.2 -7.3
v -9.1 1.3 -7.3
v -8.9 0.8 -7.3
v -8.9 0.9 -7.3
v -8.9 1.1 -7.3
v -8.9 1.3 -7.3
v -8.8 0.8 -7.3
v -8.8 0.9 -7.3
v -8.8 1.1 -7.3
v -8.8 1.5 -7.3
v -9.4 0 -6.7
v -9.4 0.4 -6.7
v -9.3 0 -6.7
v -9.3 0.4 -6.7
v -8.8 0 -6.7
v -8.8 0.4 -6.7
v -8.7 0 -6.7
v -8.7 0.4 -6.7
v -9.3 0.4 -6.8
v -9.3 0.5 -6.8
v -9.2 0.4 -6.8
v -9.2 0.5 -6.8
v -8.9 0.4 -6.8
v -8.9 0.5 -6.8
v -8.8 0.4 -6.8
v -8.8 0.5 -6.8
v -9.4 0.4 -6.9
v -9.4 0.6 -6.9
v -9.3 0.4 -6.9
v -9.3 0.5 -6.9
v -9.2 0.5 -6.9
v -9.2 0.6 -6.9
v -8.9 0.5 -6.9
v -8.9 0.6 -6.9
v -8.8 0.4 -6.9
v -8.8 0.5 -6.9
v -8.7 0.4 -6.9
v -8.7 0.6 -6.9
v -9.4 0.5 -7.1
v -9.4 0.6 -7.1
v -9.4 0.7 -7.1
v -9.3 0.5 -7.1
v -9.3 0.6 -7.1
v -9.3 0.7 -7.1
v -8.8 0.5 -7.1
v -8.8 0.6 -7.1
v -8.8 0.7 -7.1
v -8.7 0.5 -7.1
v -8.7 0.6 -7.1
v -8.7 0.7 -7.1
v -9.3 0.4 -7.2
v -9.3 0.5 -7.2
v -9.3 0.6 -7.2
v -9.2 0.4 -7.2
v -9.2 0.6 -7.2
v -8.9 0.4 -7.2
v -8.9 0.6 -7.2
v -8.8 0.4 -7.2
v -8.8 0.5 -7.2
v -8.8 0.6 -7.2
v -9.4 0 -7.3
v -9.4 0.5 -7.3
v -9.3 0 -7.3
v -9.3 0.5 -7.3
v -9.3 0.6 -7.3
v -9.3 0.7 -7.3
v -9.2 0.6 -7.3
v -9.2 0.7 -7.3
v -8.9 0.6 -7.3
v -8.9 0.7 -7.3
v -8.8 0 -7.3
v -8.8 0.5 -7.3
v -8.8 0.6 -7.3
v -8.8 0.7 -7.3
v -8.7 0 -7.3
v -8.7 0.5 -7.3
v -9.3 0.7 -7.4
v -9.3 1 -7.4
v -9.3 1.5 -7.4
v -9.2 0.6 -7.4
v -9.2 0.7 -7.4
v -9.2 1 -7.4
v -9.2 1.2 -7.4
v -9.1 0.6 -7.4
v -9.1 0.7 -7.4
v -9.1 1.2 -7.4
v -9.1 1.3 -7.4
v -9 0.6 -7.4
v -9 0.7 -7.4
v -8.9 0.6 -7.4
v -8.9 0.7 -7.4
v -8.9 0.8 -7.4
v -8.9 0.9 -7.4
v -8.9 1.1 -7.4
v -8.9 1.3 -7.4
v -8.8 0.7 -7.4
v -8.8 0.8 -7.4
v -8.8 0.9 -7.4
v -8.8 1.1 -7.4
v -8.8 1.5 -7.4
v -9.4 0 -6.6
v -9.3 0 -6.6
v -8.8 0 -6.6
v -8.7 0 -6.6
v -9.4 0 -6.7
v -9.3 0 -6.7
v -8.8 0 -6.7
v -8.7 0 -6.7
v -9.4 0 -7.2
v -9.3 0 -7.2
v -8.8 0 -7.2
v -8.7 0 -7.2
v -9.4 0 -7.3
v -9.3 0 -7.3
v -8.8 0 -7.3
v -8.7 0 -7.3
v -9.4 0.4 -6.7
v -9.3 0.4 -6.7
v -9.2 0.4 -6.7
v -8.9 0.4 -6.7
v -8.8 0.4 -6.7
v -8.7 0.4 -6.7
v -9.3 0.4 -6.8
v -9.2 0.4 -6.8
v -8.9 0.4 -6.8
v -8.8 0.4 -6.8
v -9.4 0.4 -6.9
v -9.3 0.4 -6.9
v -8.8 0.4 -6.9
v -8.7 0.4 -6.9
v -9.4 0.4 -7
v -9.3 0.4 -7
v -8.8 0.4 -7
v -8.7 0.4 -7
v -9.3 0.4 -7.1
v -9.2 0.4 -7.1
v -8.9 0.4 -7.1
v -8.8 0.4 -7.1
v -9.4 0.4 -7.2
v -9.3 0.4 -7.2
v -9.2 0.4 -7.2
v -8.9 0.4 -7.2
v -8.8 0.4 -7.2
v -8.7 0.4 -7.2
v -9.3 0.5 -6.8
v -9.2 0.5 -6.8
v -8.9 0.5 -6.8
v -8.8 0.5 -6.8
v -9.3 0.5 -6.9
v -9.2 0.5 -6.9
v -8.9 0.5 -6.9
v -8.8 0.5 -6.9
v -9.3 0.5 -7
v -9.2 0.5 -7
v -8.9 0.5 -7
v -8.8 0.5 -7
v -9.3 0.5 -7.1
v -9.2 0.5 -7.1
v -8.9 0.5 -7.1
v -8.8 0.5 -7.1
v -9.3 0.6 -6.5
v -9.2 0.6 -6.5
v -9.1 0.6 -6.5
v -9 0.6 -6.5
v -8.9 0.6 -6.5
v -8.8 0.6 -6.5
v -9.4 0.6 -6.6
v -9.3 0.6 -6.6
v -9.2 0.6 -6.6
v -9.1 0.6 -6.6
v -9 0.6 -6.6
v -8.9 0.6 -6.6
v -8.8 0.6 -6.6
v -8.7 0.6 -6.6
v -9.4 0.6 -6.7
v -9.3 0.6 -6.7
v -9.2 0.6 -6.7
v -8.9 0.6 -6.7
v -8.8 0.6 -6.7
v -8.7 0.6 -6.7
v -9.4 0.6 -6.8
v -9.3 0.6 -6.8
v -8.8 0.6 -6.8
v -8.7 0.6 -6.8
v -9.4 0.6 -6.9
v -9.2 0.6 -6.9
v -8.9 0.6 -6.9
v -8.7 0.6 -6.9
v -9.4 0.6 -7
v -9.2 0.6 -7
v -8.9 0.6 -7
v -8.7 0.6 -7
v -9.3 0.6 -7.2
v -9.2 0.6 -7.2
v -8.9 0.6 -7.2
v -8.8 0.6 -7.2
v -9.3 0.6 -7.3
v -9.2 0.6 -7.3
v -9.1 0.6 -7.3
v -9 0.6 -7.3
v -8.9 0.6 -7.3
v -8.8 0.6 -7.3
v -9.2 0.6 -7.4
v -9.1 0.6 -7.4
v -9 0.6 -7.4
v -8.9 0.6 -7.4
v -9.3 0.7 -7.3
v -9.2 0.7 -7.3
v -8.9 0.7 -7.3
v -8.8 0.7 -7.3
v -9.3 0.7 -7.4
v -9.2 0.7 -7.4
v -8.9 0.7 -7.4
v -8.8 0.7 -7.4
v -9.4 0.5 -6.6
v -9.3 0.5 -6.6
v -8.8 0.5 -6.6
v -8.7 0.5 -6.6
v -9.3 0.5 -6.7
v -8.8 0.5 -6.7
v -9.4 0.5 -6.8
v -9.3 0.5 -6.8
v -8.8 0.5 -6.8
v -8.7 0.5 -6.8
v -9.4 0.5 -7.1
v -9.3 0.5 -7.1
v -8.8 0.5 -7.1
v -8.7 0.5 -7.1
v -9.3 0.5 -7.2
v -8.8 0.5 -7.2
v -9.4 0.5 -7.3
v -9.3 0.5 -7.3
v -8.8 0.5 -7.3
v -8.7 0.5 -7.3
v -9.3 0.7 -6.5
v -9.2 0.7 -6.5
v -9.1 0.7 -6.5
v -9 0.7 -6.5
v -8.9 0.7 -6.5
v -8.8 0.7 -6.5
v -9.4 0.7 -6.6
v -9.3 0.7 -6.6
v -9.2 0.7 -6.6
v -9.1 0.7 -6.6
v -9 0.7 -6.6
v -8.9 0.7 -6.6
v -8.8 0.7 -6.6
v -8.7 0.7 -6.6
v -9.4 0.7 -6.7
v -9.2 0.7 -6.7
v -8.9 0.7 -6.7
v -8.7 0.7 -6.7
v -9.4 0.7 -6.8
v -9.3 0.7 -6.8
v -8.8 0.7 -6.8
v -8.7 0.7 -6.8
v -9.4 0.7 -6.9
v -9.3 0.7 -6.9
v -8.8 0.7 -6.9
v -8.7 0.7 -6.9
v -9.4 0.7 -7
v -9.3 0.7 -7
v -8.8 0.7 -7
v -8.7 0.7 -7
v -9.4 0.7 -7.1
v -9.3 0.7 -7.1
v -8.8 0.7 -7.1
v -8.7 0.7 -7.1
v -9.3 0.7 -7.2
v -9.2 0.7 -7.2
v -8.9 0.7 -7.2
v -8.8 0.7 -7.2
v -9.3 0.8 -7.2
v -9.2 0.8 -7.2
v -8.9 0.8 -7.2
v -8.8 0.8 -7.2
v -9.3 0.8 -7.3
v -9.2 0.8 -7.3
v -8.9 0.8 -7.3
v -8.8 0.8 -7.3
v -9.3 1.5 -7.3
v -8.8 1.5 -7.3
v -9.3 1.5 -7.4
v -8.8 1.5 -7.4

# faces
f 5/2/1 2/2/1 1/2/1
f 8/2/1 4/2/1 3/2/1
f 9/2/1 6/2/1 5/2/1
f 9/2/1 5/2/1 1/2/1
f 10/2/1 6/2/1 9/2/1
f 11/2/1 8/2/1 7/2/1
f 12/2/1 4/2/1 8/2/1
f 12/2/1 8/2/1 11/2/1
f 15/2/1 6/2/1 10/2/1
f 16/2/1 6/2/1 15/2/1
f 17/2/1 11/2/1 7/2/1
f 18/2/1 11/2/1 17/2/1
f 19/2/1 14/2/1 13/2/1
f 20/3/1 15/3/1 14/3/1
f 20/2/1 14/2/1 19/2/1
f 21/1/1 16/1/1 15/1/1
f 21/3/1 15/3/1 20/3/1
f 22/3/1 17/3/1 16/3/1
f 22/1/1 16/1/1 21/1/1
f 23/1/1 18/1/1 17/1/1
f 23/3/1 17/3/1 22/3/1
f 24/1/1 18/1/1 23/1/1
f 31/2/1 26/2/1 25/2/1
f 32/2/1 26/2/1 31/2/1
f 33/2/1 28/2/1 27/2/1
f 34/2/1 28/2/1 33/2/1
f 36/2/1 30/2/1 29/2/1
f 37/2/1 30/2/1 36/2/1
f 38/3/1 34/3/1 33/3/1
f 39/2/1 35/2/1 34/2/1
f 39/3/1 34/3/1 38/3/1
f 40/2/1 35/2/1 39/2/1
f 42/1/1 40/1/1 39/1/1
f 43/2/1 41/2/1 40/2/1
f 43/1/1 40/1/1 42/1/1
f 44/2/1 41/2/1 43/2/1
f 45/2/1 41/2/1 44/2/1
f 46/1/1 45/1/1 44/1/1
f 47/1/1 45/1/1 46/1/1
f 50/1/1 49/1/1 48/1/1
f 51/1/1 49/1/1 50/1/1
f 56/2/1 53/2/1 52/2/1
f 59/2/1 55/2/1 54/2/1
f 60/2/1 57/2/1 56/2/1
f 60/2/1 56/2/1 52/2/1
f 61/2/1 57/2/1 60/2/1
f 62/2/1 59/2/1 58/2/1
f 63/2/1 55/2/1 59/2/1
f 63/2/1 59/2/1 62/2/1
f 68/2/1 65/2/1 64/2/1
f 73/2/1 67/2/1 66/2/1
f 74/2/1 68/2/1 64/2/1
f 75/2/1 68/2/1 74/2/1
f 76/2/1 70/2/1 69/2/1
f 77/2/1 70/2/1 76/2/1
f 78/2/1 72/2/1 71/2/1
f 79/2/1 72/2/1 78/2/1
f 80/2/1 67/2/1 73/2/1
f 81/2/1 67/2/1 80/2/1
f 82/2/2 83/2/2 86/2/2
f 84/2/2 85/2/2 91/2/2
f 82/2/2 86/2/2 92/2/2
f 92/2/2 86/2/2 93/2/2
f 87/2/2 88/2/2 94/2/2
f 94/2/2 88/2/2 95/2/2
f 89/2/2 90/2/2 96/2/2
f 96/2/2 90/2/2 97/2/2
f 91/2/2 85/2/2 98/2/2
f 98/2/2 85/2/2 99/2/2
f 100/2/2 101/2/2 104/2/2
f 102/2/2 103/2/2 107/2/2
f 104/2/2 105/2/2 108/2/2
f 100/2/2 104/2/2 108/2/2
f 108/2/2 105/2/2 109/2/2
f 106/2/2 107/2/2 110/2/2
f 107/2/2 103/2/2 111/2/2
f 110/2/2 107/2/2 111/2/2
f 112/1/2 113/1/2 114/1/2
f 114/1/2 113/1/2 115/1/2
f 116/2/2 117/2/2 122/2/2
f 122/2/2 117/2/2 123/2/2
f 118/2/2 119/2/2 124/2/2
f 124/2/2 119/2/2 125/2/2
f 120/2/2 121/2/2 127/2/2
f 127/2/2 121/2/2 128/2/2
f 124/3/2 125/3/2 129/3/2
f 125/2/2 126/2/2 130/2/2
f 129/3/2 125/3/2 130/3/2
f 130/2/2 126/2/2 131/2/2
f 130/1/2 131/1/2 133/1/2
f 131/2/2 132/2/2 134/2/2
f 133/1/2 131/1/2 134/1/2
f 134/2/2 132/2/2 135/2/2
f 134/1/2 135/1/2 136/1/2
f 136/1/2 135/1/2 137/1/2
f 136/2/2 137/2/2 138/2/2
f 138/2/2 137/2/2 139/2/2
f 138/1/2 139/1/2 140/1/2
f 140/1/2 139/1/2 141/1/2
f 142/2/2 143/2/2 146/2/2
f 144/2/2 145/2/2 149/2/2
f 146/2/2 147/2/2 150/2/2
f 142/2/2 146/2/2 150/2/2
f 150/2/2 147/2/2 151/2/2
f 148/2/2 149/2/2 152/2/2
f 149/2/2 145/2/2 153/2/2
f 152/2/2 149/2/2 153/2/2
f 151/2/2 147/2/2 156/2/2
f 156/2/2 147/2/2 157/2/2
f 148/2/2 152/2/2 158/2/2
f 158/2/2 152/2/2 159/2/2
f 154/2/2 155/2/2 160/2/2
f 155/3/2 156/3/2 161/3/2
f 160/2/2 155/2/2 161/2/2
f 156/1/2 157/1/2 162/1/2
f 161/3/2 156/3/2 162/3/2
f 157/3/2 158/3/2 163/3/2
f 162/1/2 157/1/2 163/1/2
f 158/1/2 159/1/2 164/1/2
f 163/3/2 158/3/2 164/3/2
f 164/1/2 159/1/2 165/1/2
f 168/2/3 167/2/3 166/2/3
f 169/2/3 167/2/3 168/2/3
f 170/1/3 169/1/3 168/1/3
f 171/1/3 169/1/3 170/1/3
f 172/3/3 171/3/3 170/3/3
f 173/3/3 171/3/3 172/3/3
f 174/1/3 173/1/3 172/1/3
f 175/1/3 173/1/3 174/1/3
f 176/2/3 175/2/3 174/2/3
f 177/2/3 175/2/3 176/2/3
f 182/2/3 179/2/3 178/2/3
f 183/2/3 179/2/3 182/2/3
f 184/2/3 181/2/3 180/2/3
f 185/2/3 181/2/3 184/2/3
f 190/2/3 187/2/3 186/2/3
f 191/2/3 187/2/3 190/2/3
f 192/2/3 189/2/3 188/2/3
f 193/2/3 189/2/3 192/2/3
f 197/2/3 195/2/3 194/2/3
f 197/2/3 196/2/3 195/2/3
f 198/2/3 196/2/3 197/2/3
f 201/2/3 200/2/3 199/2/3
f 202/2/3 200/2/3 201/2/3
f 203/2/3 200/2/3 202/2/3
f 206/2/3 205/2/3 204/2/3
f 207/2/3 205/2/3 206/2/3
f 210/2/3 209/2/3 208/2/3
f 211/2/3 209/2/3 210/2/3
f 214/2/3 213/2/3 212/2/3
f 215/2/3 213/2/3 214/2/3
f 216/2/3 213/2/3 215/2/3
f 217/2/3 213/2/3 216/2/3
f 221/2/3 219/2/3 218/2/3
f 222/2/3 221/2/3 220/2/3
f 223/2/3 219/2/3 221/2/3
f 223/2/3 221/2/3 222/2/3
f 226/2/3 225/2/3 224/2/3
f 227/2/3 225/2/3 226/2/3
f 230/2/3 229/2/3 228/2/3
f 231/2/3 229/2/3 230/2/3
f 234/2/3 233/2/3 232/2/3
f 235/2/3 233/2/3 234/2/3
f 238/1/3 237/1/3 236/1/3
f 239/1/3 237/1/3 238/1/3
f 240/3/3 239/3/3 238/3/3
f 241/3/3 239/3/3 240/3/3
f 244/1/3 241/1/3 240/1/3
f 245/1/3 241/1/3 244/1/3
f 246/2/3 243/2/3 242/2/3
f 247/2/3 243/2/3 246/2/3
f 251/2/3 249/2/3 248/2/3
f 252/1/3 250/1/3 249/1/3
f 252/2/3 249/2/3 251/2/3
f 253/1/3 250/1/3 252/1/3
f 254/2/3 252/2/3 251/2/3
f 254/1/3 250/1/3 253/1/3
f 254/2/3 253/2/3 252/2/3
f 255/1/3 250/1/3 254/1/3
f 256/2/3 254/2/3 251/2/3
f 256/2/3 255/2/3 254/2/3
f 257/2/3 255/2/3 256/2/3
f 258/2/3 255/2/3 257/2/3
f 259/1/3 250/1/3 255/1/3
f 259/2/3 255/2/3 258/2/3
f 260/1/3 257/1/3 256/1/3
f 261/2/3 258/2/3 257/2/3
f 261/1/3 257/1/3 260/1/3
f 262/1/3 259/1/3 258/1/3
f 262/2/3 258/2/3 261/2/3
f 263/1/3 250/1/3 259/1/3
f 263/1/3 259/1/3 262/1/3
f 264/2/4 265/2/4 266/2/4
f 266/2/4 265/2/4 267/2/4
f 268/2/4 269/2/4 270/2/4
f 270/2/4 269/2/4 271/2/4
f 272/2/4 273/2/4 274/2/4
f 274/2/4 273/2/4 275/2/4
f 276/2/4 277/2/4 278/2/4
f 278/2/4 277/2/4 279/2/4
f 280/2/4 281/2/4 282/2/4
f 282/2/4 281/2/4 283/2/4
f 283/2/4 281/2/4 284/2/4
f 284/2/4 281/2/4 285/2/4
f 286/2/4 287/2/4 289/2/4
f 288/2/4 289/2/4 290/2/4
f 289/2/4 287/2/4 291/2/4
f 290/2/4 289/2/4 291/2/4
f 292/2/4 293/2/4 295/2/4
f 293/1/4 294/1/4 296/1/4
f 295/2/4 293/2/4 296/2/4
f 296/1/4 294/1/4 297/1/4
f 298/2/4 299/2/4 301/2/4
f 299/1/4 300/1/4 302/1/4
f 301/2/4 299/2/4 302/2/4
f 302/1/4 300/1/4 303/1/4
f 304/2/4 305/2/4 307/2/4
f 305/2/4 306/2/4 307/2/4
f 307/2/4 306/2/4 308/2/4
f 309/2/4 310/2/4 311/2/4
f 311/2/4 310/2/4 312/2/4
f 312/2/4 310/2/4 313/2/4
f 314/2/4 315/2/4 316/2/4
f 316/2/4 315/2/4 317/2/4
f 318/2/4 319/2/4 320/2/4
f 320/2/4 319/2/4 321/2/4
f 322/2/4 323/2/4 326/2/4
f 326/2/4 323/2/4 327/2/4
f 324/2/4 325/2/4 328/2/4
f 328/2/4 325/2/4 329/2/4
f 330/2/4 331/2/4 334/2/4
f 331/1/4 332/1/4 335/1/4
f 334/2/4 331/2/4 335/2/4
f 335/1/4 332/1/4 336/1/4
f 333/1/4 334/1/4 337/1/4
f 334/2/4 335/2/4 338/2/4
f 337/1/4 334/1/4 338/1/4
f 335/2/4 336/2/4 338/2/4
f 336/1/4 332/1/4 339/1/4
f 338/2/4 336/2/4 339/2/4
f 339/1/4 332/1/4 340/1/4
f 337/2/4 338/2/4 341/2/4
f 338/2/4 339/2/4 341/2/4
f 339/2/4 340/2/4 341/2/4
f 341/2/4 340/2/4 342/2/4
f 341/1/4 342/1/4 343/1/4
f 342/2/4 340/2/4 344/2/4
f 343/1/4 342/1/4 344/1/4
f 344/2/4 340/2/4 345/2/4
f 345/2/4 340/2/4 346/2/4
f 346/2/4 340/2/4 347/2/4
f 340/1/4 332/1/4 348/1/4
f 347/2/4 340/2/4 348/2/4
f 344/2/4 345/2/4 349/2/4
f 345/1/4 346/1/4 350/1/4
f 349/2/4 345/2/4 350/2/4
f 346/2/4 347/2/4 351/2/4
f 350/1/4 346/1/4 351/1/4
f 347/1/4 348/1/4 352/1/4
f 351/2/4 347/2/4 352/2/4
f 348/1/4 332/1/4 353/1/4
f 352/1/4 348/1/4 353/1/4
f 358/2/5 355/2/5 354/2/5
f 359/2/5 355/2/5 358/2/5
f 360/2/5 357/2/5 356/2/5
f 361/2/5 357/2/5 360/2/5
f 366/2/5 363/2/5 362/2/5
f 367/2/5 363/2/5 366/2/5
f 368/2/5 365/2/5 364/2/5
f 369/2/5 365/2/5 368/2/5
f 376/2/5 371/2/5 370/2/5
f 376/2/5 372/2/5 371/2/5
f 377/2/5 372/2/5 376/2/5
f 378/2/5 375/2/5 374/2/5
f 378/2/5 374/2/5 373/2/5
f 379/2/5 375/2/5 378/2/5
f 380/2/5 376/2/5 370/2/5
f 381/2/5 376/2/5 380/2/5
f 382/2/5 375/2/5 379/2/5
f 383/2/5 375/2/5 382/2/5
f 388/2/5 385/2/5 384/2/5
f 391/2/5 387/2/5 386/2/5
f 392/2/5 389/2/5 388/2/5
f 392/2/5 388/2/5 384/2/5
f 393/2/5 389/2/5 392/2/5
f 394/2/5 389/2/5 393/2/5
f 395/2/5 391/2/5 390/2/5
f 396/2/5 387/2/5 391/2/5
f 396/2/5 391/2/5 395/2/5
f 397/2/5 387/2/5 396/2/5
f 402/2/5 399/2/5 398/2/5
f 403/2/5 399/2/5 402/2/5
f 404/2/5 401/2/5 400/2/5
f 405/2/5 401/2/5 404/2/5
f 410/2/5 407/2/5 406/2/5
f 411/2/5 407/2/5 410/2/5
f 412/2/5 409/2/5 408/2/5
f 413/2/5 409/2/5 412/2/5
f 421/2/5 415/2/5 414/2/5
f 422/1/5 416/1/5 415/1/5
f 422/2/5 415/2/5 421/2/5
f 423/3/5 417/3/5 416/3/5
f 423/1/5 416/1/5 422/1/5
f 424/1/5 418/1/5 417/1/5
f 424/3/5 417/3/5 423/3/5
f 425/2/5 419/2/5 418/2/5
f 425/1/5 418/1/5 424/1/5
f 426/2/5 419/2/5 425/2/5
f 428/2/5 421/2/5 420/2/5
f 428/2/5 422/2/5 421/2/5
f 429/2/5 422/2/5 428/2/5
f 430/3/5 424/3/5 423/3/5
f 430/2/5 422/2/5 429/2/5
f 430/3/5 423/3/5 422/3/5
f 430/3/5 425/3/5 424/3/5
f 431/2/5 427/2/5 426/2/5
f 431/3/5 425/3/5 430/3/5
f 431/2/5 426/2/5 425/2/5
f 432/2/5 427/2/5 431/2/5
f 433/2/5 427/2/5 432/2/5
f 434/3/5 429/3/5 428/3/5
f 435/3/5 429/3/5 434/3/5
f 436/3/5 433/3/5 432/3/5
f 437/3/5 433/3/5 436/3/5
f 439/3/5 431/3/5 430/3/5
f 440/3/5 431/3/5 439/3/5
f 442/3/5 439/3/5 438/3/5
f 442/3/5 441/3/5 440/3/5
f 442/3/5 440/3/5 439/3/5
f 443/3/5 441/3/5 442/3/5
f 444/3/5 441/3/5 443/3/5
f 445/3/5 441/3/5 444/3/5
f 447/3/5 444/3/5 443/3/5
f 448/3/5 444/3/5 447/3/5
f 450/2/5 447/2/5 446/2/5
f 451/3/5 448/3/5 447/3/5
f 451/2/5 447/2/5 450/2/5
f 452/3/5 448/3/5 451/3/5
f 453/3/5 448/3/5 452/3/5
f 454/2/5 449/2/5 448/2/5
f 454/3/5 448/3/5 453/3/5
f 455/2/5 449/2/5 454/2/5
f 456/1/5 452/1/5 451/1/5
f 457/2/5 453/2/5 452/2/5
f 457/1/5 452/1/5 456/1/5
f 458/1/5 454/1/5 453/1/5
f 458/2/5 453/2/5 457/2/5
f 459/1/5 454/1/5 458/1/5
f 464/2/5 461/2/5 460/2/5
f 465/2/5 461/2/5 464/2/5
f 466/2/5 463/2/5 462/2/5
f 467/2/5 463/2/5 466/2/5
f 468/2/6 469/2/6 472/2/6
f 470/2/6 471/2/6 473/2/6
f 468/2/6 472/2/6 474/2/6
f 474/2/6 472/2/6 475/2/6
f 473/2/6 471/2/6 476/2/6
f 476/2/6 471/2/6 477/2/6
f 478/2/6 479/2/6 482/2/6
f 480/2/6 481/2/6 483/2/6
f 478/2/6 482/2/6 484/2/6
f 484/2/6 482/2/6 485/2/6
f 483/2/6 481/2/6 486/2/6
f 486/2/6 481/2/6 487/2/6
f 488/2/6 489/2/6 495/2/6
f 489/1/6 490/1/6 496/1/6
f 495/2/6 489/2/6 496/2/6
f 490/3/6 491/3/6 497/3/6
f 496/1/6 490/1/6 497/1/6
f 491/1/6 492/1/6 498/1/6
f 497/3/6 491/3/6 498/3/6
f 492/2/6 493/2/6 499/2/6
f 498/1/6 492/1/6 499/1/6
f 499/2/6 493/2/6 500/2/6
f 494/2/6 495/2/6 502/2/6
f 495/2/6 496/2/6 502/2/6
f 497/3/6 498/3/6 503/3/6
f 502/2/6 496/2/6 503/2/6
f 496/3/6 497/3/6 503/3/6
f 498/3/6 499/3/6 503/3/6
f 500/2/6 501/2/6 504/2/6
f 503/3/6 499/3/6 504/3/6
f 499/2/6 500/2/6 504/2/6
f 504/2/6 501/2/6 505/2/6
f 502/3/6 503/3/6 506/3/6
f 503/3/6 504/3/6 506/3/6
f 504/3/6 505/3/6 506/3/6
f 506/3/6 505/3/6 507/3/6
f 507/3/6 505/3/6 508/3/6
f 508/3/6 505/3/6 509/3/6
f 506/1/6 507/1/6 510/1/6
f 507/3/6 508/3/6 511/3/6
f 510/1/6 507/1/6 511/1/6
f 508/1/6 509/1/6 512/1/6
f 511/3/6 508/3/6 512/3/6
f 512/1/6 509/1/6 513/1/6
f 510/3/6 511/3/6 514/3/6
f 511/3/6 512/3/6 514/3/6
f 512/3/6 513/3/6 514/3/6
f 514/3/6 513/3/6 515/3/6
f 515/3/6 513/3/6 516/3/6
f 516/3/6 513/3/6 517/3/6
f 514/1/6 515/1/6 518/1/6
f 515/3/6 516/3/6 519/3/6
f 518/1/6 515/1/6 519/1/6
f 516/1/6 517/1/6 520/1/6
f 519/3/6 516/3/6 520/3/6
f 520/1/6 517/1/6 521/1/6
f 519/3/6 520/3/6 522/3/6
f 522/3/6 520/3/6 523/3/6
f 523/3/6 520/3/6 524/3/6
f 524/3/6 520/3/6 525/3/6
f 526/1/6 527/1/6 530/1/6
f 527/3/6 528/3/6 531/3/6
f 530/1/6 527/1/6 531/1/6
f 528/1/6 529/1/6 532/1/6
f 531/3/6 528/3/6 532/3/6
f 532/1/6 529/1/6 533/1/6
f 534/1/6 535/1/6 536/1/6
f 536/1/6 535/1/6 537/1/6
