# MagicaVoxel @ Ephtracy

# group
o Fire Log

# material
mtllib Medieval Assets-98-Fire Log.mtl
usemtl palette

# normals
vn -1 0 0
vn 1 0 0
vn 0 0 1
vn 0 0 -1
vn 0 -1 0
vn 0 1 0

# texcoords
vt 0.169922 0.5
vt 0.173828 0.5
vt 0.189453 0.5

# verts
v 19.8 0 -2.5
v 19.8 0 -2.7
v 19.8 0.1 -2.4
v 19.8 0.1 -2.5
v 19.8 0.1 -2.7
v 19.8 0.1 -2.8
v 19.8 0.3 -2.4
v 19.8 0.3 -2.5
v 19.8 0.3 -2.7
v 19.8 0.3 -2.8
v 19.8 0.4 -2.5
v 19.8 0.4 -2.7
v 19.9 0 -2.4
v 19.9 0 -2.5
v 19.9 0 -2.7
v 19.9 0 -2.8
v 19.9 0.1 -2.4
v 19.9 0.1 -2.5
v 19.9 0.1 -2.7
v 19.9 0.1 -2.8
v 19.9 0.3 -2.7
v 19.9 0.3 -2.8
v 19.9 0.4 -2.7
v 19.9 0.4 -2.8
v 20 0.3 -2.5
v 20 0.3 -2.6
v 20 0.4 -2.5
v 20 0.4 -2.6
v 20.2 0.3 -2.4
v 20.2 0.3 -2.5
v 20.2 0.4 -2.4
v 20.2 0.4 -2.5
v 20.4 0 -2.7
v 20.4 0 -2.8
v 20.4 0.1 -2.7
v 20.4 0.1 -2.8
v 20.5 0.3 -2.7
v 20.5 0.3 -2.8
v 20.5 0.4 -2.7
v 20.5 0.4 -2.8
v 20.7 0.3 -2.4
v 20.7 0.3 -2.5
v 20.7 0.4 -2.4
v 20.7 0.4 -2.5
v 20.8 0 -2.4
v 20.8 0 -2.5
v 20.8 0.1 -2.4
v 20.8 0.1 -2.5
v 20.9 0 -2.7
v 20.9 0 -2.8
v 20.9 0.1 -2.7
v 20.9 0.1 -2.8
v 21.1 0.3 -2.7
v 21.1 0.3 -2.8
v 21.1 0.4 -2.7
v 21.1 0.4 -2.8
v 21.2 0 -2.4
v 21.2 0 -2.5
v 21.2 0.1 -2.4
v 21.2 0.1 -2.5
v 21.3 0 -2.7
v 21.3 0 -2.8
v 21.3 0.1 -2.7
v 21.3 0.1 -2.8
v 21.3 0.3 -2.4
v 21.3 0.3 -2.5
v 21.3 0.4 -2.4
v 21.3 0.4 -2.5
v 21.5 0 -2.7
v 21.5 0 -2.8
v 21.5 0.1 -2.7
v 21.5 0.1 -2.8
v 21.6 0 -2.4
v 21.6 0 -2.5
v 21.6 0.1 -2.4
v 21.6 0.1 -2.5
v 21.6 0.3 -2.7
v 21.6 0.3 -2.8
v 21.6 0.4 -2.7
v 21.6 0.4 -2.8
v 19.9 0.3 -2.5
v 19.9 0.3 -2.6
v 19.9 0.4 -2.5
v 19.9 0.4 -2.6
v 20.2 0 -2.7
v 20.2 0 -2.8
v 20.2 0.1 -2.7
v 20.2 0.1 -2.8
v 20.3 0 -2.4
v 20.3 0 -2.5
v 20.3 0.1 -2.4
v 20.3 0.1 -2.5
v 20.4 0.3 -2.7
v 20.4 0.3 -2.8
v 20.4 0.4 -2.7
v 20.4 0.4 -2.8
v 20.6 0 -2.7
v 20.6 0 -2.8
v 20.6 0.1 -2.7
v 20.6 0.1 -2.8
v 20.6 0.3 -2.4
v 20.6 0.3 -2.5
v 20.6 0.4 -2.4
v 20.6 0.4 -2.5
v 20.8 0.3 -2.7
v 20.8 0.3 -2.8
v 20.8 0.4 -2.7
v 20.8 0.4 -2.8
v 21.1 0 -2.4
v 21.1 0 -2.5
v 21.1 0 -2.7
v 21.1 0 -2.8
v 21.1 0.1 -2.4
v 21.1 0.1 -2.5
v 21.1 0.1 -2.7
v 21.1 0.1 -2.8
v 21.1 0.3 -2.4
v 21.1 0.3 -2.5
v 21.1 0.4 -2.4
v 21.1 0.4 -2.5
v 21.4 0 -2.7
v 21.4 0 -2.8
v 21.4 0.1 -2.7
v 21.4 0.1 -2.8
v 21.4 0.3 -2.7
v 21.4 0.3 -2.8
v 21.4 0.4 -2.7
v 21.4 0.4 -2.8
v 21.5 0 -2.4
v 21.5 0 -2.5
v 21.5 0.1 -2.4
v 21.5 0.1 -2.5
v 21.7 0 -2.7
v 21.7 0 -2.8
v 21.7 0.1 -2.7
v 21.7 0.1 -2.8
v 21.7 0.3 -2.7
v 21.7 0.3 -2.8
v 21.7 0.4 -2.7
v 21.7 0.4 -2.8
v 21.8 0 -2.6
v 21.8 0 -2.7
v 21.8 0.1 -2.6
v 21.8 0.1 -2.7
v 21.8 0.1 -2.8
v 21.8 0.2 -2.4
v 21.8 0.2 -2.5
v 21.8 0.2 -2.6
v 21.8 0.2 -2.8
v 21.8 0.3 -2.4
v 21.8 0.3 -2.5
v 21.8 0.3 -2.6
v 21.8 0.3 -2.7
v 21.8 0.3 -2.8
v 21.8 0.4 -2.4
v 21.8 0.4 -2.5
v 21.8 0.4 -2.7
v 21.9 0 -2.4
v 21.9 0 -2.6
v 21.9 0.2 -2.4
v 21.9 0.2 -2.6
v 19.8 0.1 -2.4
v 19.8 0.3 -2.4
v 19.9 0 -2.4
v 19.9 0.1 -2.4
v 19.9 0.2 -2.4
v 20 0 -2.4
v 20 0.1 -2.4
v 20.1 0 -2.4
v 20.1 0.1 -2.4
v 20.2 0.3 -2.4
v 20.2 0.4 -2.4
v 20.3 0 -2.4
v 20.3 0.1 -2.4
v 20.3 0.2 -2.4
v 20.3 0.3 -2.4
v 20.6 0.3 -2.4
v 20.6 0.4 -2.4
v 20.7 0.3 -2.4
v 20.7 0.4 -2.4
v 20.8 0 -2.4
v 20.8 0.1 -2.4
v 20.8 0.2 -2.4
v 20.8 0.3 -2.4
v 21.1 0 -2.4
v 21.1 0.1 -2.4
v 21.1 0.3 -2.4
v 21.1 0.4 -2.4
v 21.2 0 -2.4
v 21.2 0.1 -2.4
v 21.3 0.2 -2.4
v 21.3 0.3 -2.4
v 21.3 0.4 -2.4
v 21.5 0 -2.4
v 21.5 0.1 -2.4
v 21.5 0.2 -2.4
v 21.5 0.3 -2.4
v 21.5 0.4 -2.4
v 21.6 0 -2.4
v 21.6 0.1 -2.4
v 21.6 0.3 -2.4
v 21.6 0.4 -2.4
v 21.7 0.1 -2.4
v 21.7 0.2 -2.4
v 21.7 0.3 -2.4
v 21.8 0.2 -2.4
v 21.8 0.3 -2.4
v 21.8 0.4 -2.4
v 21.9 0 -2.4
v 21.9 0.2 -2.4
v 19.8 0 -2.5
v 19.8 0.1 -2.5
v 19.8 0.3 -2.5
v 19.8 0.4 -2.5
v 19.9 0 -2.5
v 19.9 0.1 -2.5
v 19.9 0.3 -2.5
v 19.9 0.4 -2.5
v 20 0.3 -2.5
v 20 0.4 -2.5
v 20.2 0.3 -2.5
v 20.2 0.4 -2.5
v 20.3 0 -2.5
v 20.3 0.1 -2.5
v 20.6 0.3 -2.5
v 20.6 0.4 -2.5
v 20.7 0.3 -2.5
v 20.7 0.4 -2.5
v 20.8 0 -2.5
v 20.8 0.1 -2.5
v 21.1 0 -2.5
v 21.1 0.1 -2.5
v 21.1 0.3 -2.5
v 21.1 0.4 -2.5
v 21.2 0 -2.5
v 21.2 0.1 -2.5
v 21.3 0.3 -2.5
v 21.3 0.4 -2.5
v 21.5 0 -2.5
v 21.5 0.1 -2.5
v 21.6 0 -2.5
v 21.6 0.1 -2.5
v 19.9 0.3 -2.6
v 19.9 0.4 -2.6
v 20 0.3 -2.6
v 20 0.4 -2.6
v 21.8 0 -2.6
v 21.8 0.1 -2.6
v 21.8 0.2 -2.6
v 21.9 0 -2.6
v 21.9 0.2 -2.6
v 19.8 0 -2.7
v 19.8 0.1 -2.7
v 19.8 0.3 -2.7
v 19.8 0.4 -2.7
v 19.9 0 -2.7
v 19.9 0.1 -2.7
v 19.9 0.3 -2.7
v 19.9 0.4 -2.7
v 20.2 0 -2.7
v 20.2 0.1 -2.7
v 20.4 0 -2.7
v 20.4 0.1 -2.7
v 20.4 0.3 -2.7
v 20.4 0.4 -2.7
v 20.5 0.3 -2.7
v 20.5 0.4 -2.7
v 20.6 0 -2.7
v 20.6 0.1 -2.7
v 20.8 0.3 -2.7
v 20.8 0.4 -2.7
v 20.9 0 -2.7
v 20.9 0.1 -2.7
v 20.9 0.3 -2.7
v 21.1 0 -2.7
v 21.1 0.1 -2.7
v 21.1 0.3 -2.7
v 21.1 0.4 -2.7
v 21.3 0 -2.7
v 21.3 0.1 -2.7
v 21.4 0 -2.7
v 21.4 0.1 -2.7
v 21.4 0.3 -2.7
v 21.4 0.4 -2.7
v 21.5 0 -2.7
v 21.5 0.1 -2.7
v 21.5 0.3 -2.7
v 21.6 0.3 -2.7
v 21.6 0.4 -2.7
v 21.7 0 -2.7
v 21.7 0.1 -2.7
v 21.7 0.3 -2.7
v 21.7 0.4 -2.7
v 21.8 0 -2.7
v 21.8 0.1 -2.7
v 21.8 0.3 -2.7
v 21.8 0.4 -2.7
v 19.8 0.1 -2.8
v 19.8 0.3 -2.8
v 19.9 0 -2.8
v 19.9 0.1 -2.8
v 19.9 0.2 -2.8
v 19.9 0.3 -2.8
v 19.9 0.4 -2.8
v 20.2 0 -2.8
v 20.2 0.1 -2.8
v 20.2 0.2 -2.8
v 20.3 0.2 -2.8
v 20.3 0.3 -2.8
v 20.4 0 -2.8
v 20.4 0.1 -2.8
v 20.4 0.3 -2.8
v 20.4 0.4 -2.8
v 20.5 0.3 -2.8
v 20.5 0.4 -2.8
v 20.6 0 -2.8
v 20.6 0.1 -2.8
v 20.8 0.2 -2.8
v 20.8 0.3 -2.8
v 20.8 0.4 -2.8
v 20.9 0 -2.8
v 20.9 0.1 -2.8
v 20.9 0.2 -2.8
v 20.9 0.3 -2.8
v 21.1 0 -2.8
v 21.1 0.1 -2.8
v 21.1 0.3 -2.8
v 21.1 0.4 -2.8
v 21.2 0.2 -2.8
v 21.2 0.3 -2.8
v 21.2 0.4 -2.8
v 21.3 0 -2.8
v 21.3 0.1 -2.8
v 21.3 0.2 -2.8
v 21.3 0.3 -2.8
v 21.4 0 -2.8
v 21.4 0.1 -2.8
v 21.4 0.3 -2.8
v 21.4 0.4 -2.8
v 21.5 0 -2.8
v 21.5 0.1 -2.8
v 21.5 0.2 -2.8
v 21.5 0.3 -2.8
v 21.6 0.3 -2.8
v 21.6 0.4 -2.8
v 21.7 0 -2.8
v 21.7 0.1 -2.8
v 21.7 0.2 -2.8
v 21.7 0.3 -2.8
v 21.7 0.4 -2.8
v 21.8 0.1 -2.8
v 21.8 0.2 -2.8
v 21.8 0.3 -2.8
v 19.9 0 -2.4
v 20 0 -2.4
v 20.1 0 -2.4
v 20.3 0 -2.4
v 20.8 0 -2.4
v 21.1 0 -2.4
v 21.2 0 -2.4
v 21.5 0 -2.4
v 21.6 0 -2.4
v 21.9 0 -2.4
v 19.8 0 -2.5
v 19.9 0 -2.5
v 20 0 -2.5
v 20.1 0 -2.5
v 20.2 0 -2.5
v 20.3 0 -2.5
v 20.8 0 -2.5
v 21.1 0 -2.5
v 21.2 0 -2.5
v 21.5 0 -2.5
v 21.6 0 -2.5
v 20.1 0 -2.6
v 20.2 0 -2.6
v 21 0 -2.6
v 21.3 0 -2.6
v 21.8 0 -2.6
v 21.9 0 -2.6
v 19.8 0 -2.7
v 19.9 0 -2.7
v 20.2 0 -2.7
v 20.4 0 -2.7
v 20.6 0 -2.7
v 20.9 0 -2.7
v 21 0 -2.7
v 21.1 0 -2.7
v 21.3 0 -2.7
v 21.4 0 -2.7
v 21.5 0 -2.7
v 21.7 0 -2.7
v 21.8 0 -2.7
v 19.9 0 -2.8
v 20.2 0 -2.8
v 20.4 0 -2.8
v 20.6 0 -2.8
v 20.9 0 -2.8
v 21.1 0 -2.8
v 21.3 0 -2.8
v 21.4 0 -2.8
v 21.5 0 -2.8
v 21.7 0 -2.8
v 19.8 0.1 -2.4
v 19.9 0.1 -2.4
v 20.3 0.1 -2.4
v 20.8 0.1 -2.4
v 21.1 0.1 -2.4
v 21.2 0.1 -2.4
v 21.5 0.1 -2.4
v 21.6 0.1 -2.4
v 19.8 0.1 -2.5
v 19.9 0.1 -2.5
v 20.3 0.1 -2.5
v 20.8 0.1 -2.5
v 21.1 0.1 -2.5
v 21.2 0.1 -2.5
v 21.5 0.1 -2.5
v 21.6 0.1 -2.5
v 19.8 0.1 -2.7
v 19.9 0.1 -2.7
v 20.2 0.1 -2.7
v 20.4 0.1 -2.7
v 20.6 0.1 -2.7
v 20.9 0.1 -2.7
v 21.1 0.1 -2.7
v 21.3 0.1 -2.7
v 21.4 0.1 -2.7
v 21.5 0.1 -2.7
v 21.7 0.1 -2.7
v 21.8 0.1 -2.7
v 19.8 0.1 -2.8
v 19.9 0.1 -2.8
v 20.2 0.1 -2.8
v 20.4 0.1 -2.8
v 20.6 0.1 -2.8
v 20.9 0.1 -2.8
v 21.1 0.1 -2.8
v 21.3 0.1 -2.8
v 21.4 0.1 -2.8
v 21.5 0.1 -2.8
v 21.7 0.1 -2.8
v 21.8 0.1 -2.8
v 21.8 0.2 -2.4
v 21.9 0.2 -2.4
v 21.8 0.2 -2.5
v 21.8 0.2 -2.6
v 21.9 0.2 -2.6
v 19.8 0.3 -2.4
v 20.2 0.3 -2.4
v 20.6 0.3 -2.4
v 20.7 0.3 -2.4
v 21.1 0.3 -2.4
v 21.3 0.3 -2.4
v 19.8 0.3 -2.5
v 19.9 0.3 -2.5
v 20 0.3 -2.5
v 20.2 0.3 -2.5
v 20.6 0.3 -2.5
v 20.7 0.3 -2.5
v 21.1 0.3 -2.5
v 21.3 0.3 -2.5
v 19.9 0.3 -2.6
v 20 0.3 -2.6
v 19.8 0.3 -2.7
v 19.9 0.3 -2.7
v 20.4 0.3 -2.7
v 20.5 0.3 -2.7
v 20.8 0.3 -2.7
v 20.9 0.3 -2.7
v 21.1 0.3 -2.7
v 21.4 0.3 -2.7
v 21.5 0.3 -2.7
v 21.6 0.3 -2.7
v 21.7 0.3 -2.7
v 21.8 0.3 -2.7
v 19.8 0.3 -2.8
v 19.9 0.3 -2.8
v 20.4 0.3 -2.8
v 20.5 0.3 -2.8
v 20.8 0.3 -2.8
v 20.9 0.3 -2.8
v 21.1 0.3 -2.8
v 21.4 0.3 -2.8
v 21.5 0.3 -2.8
v 21.6 0.3 -2.8
v 21.7 0.3 -2.8
v 21.8 0.3 -2.8
v 20.2 0.4 -2.4
v 20.6 0.4 -2.4
v 20.7 0.4 -2.4
v 21.1 0.4 -2.4
v 21.3 0.4 -2.4
v 21.5 0.4 -2.4
v 21.6 0.4 -2.4
v 21.8 0.4 -2.4
v 19.8 0.4 -2.5
v 19.9 0.4 -2.5
v 20 0.4 -2.5
v 20.2 0.4 -2.5
v 20.3 0.4 -2.5
v 20.4 0.4 -2.5
v 20.6 0.4 -2.5
v 20.7 0.4 -2.5
v 21.1 0.4 -2.5
v 21.3 0.4 -2.5
v 21.6 0.4 -2.5
v 21.8 0.4 -2.5
v 19.9 0.4 -2.6
v 20 0.4 -2.6
v 20.2 0.4 -2.6
v 20.3 0.4 -2.6
v 20.4 0.4 -2.6
v 20.7 0.4 -2.6
v 21.1 0.4 -2.6
v 21.4 0.4 -2.6
v 21.5 0.4 -2.6
v 19.8 0.4 -2.7
v 19.9 0.4 -2.7
v 20.2 0.4 -2.7
v 20.4 0.4 -2.7
v 20.5 0.4 -2.7
v 20.7 0.4 -2.7
v 20.8 0.4 -2.7
v 21.1 0.4 -2.7
v 21.2 0.4 -2.7
v 21.4 0.4 -2.7
v 21.6 0.4 -2.7
v 21.7 0.4 -2.7
v 21.8 0.4 -2.7
v 19.9 0.4 -2.8
v 20.4 0.4 -2.8
v 20.5 0.4 -2.8
v 20.8 0.4 -2.8
v 21.1 0.4 -2.8
v 21.2 0.4 -2.8
v 21.4 0.4 -2.8
v 21.6 0.4 -2.8
v 21.7 0.4 -2.8

# faces
f 4/2/1 2/2/1 1/2/1
f 5/2/1 2/2/1 4/2/1
f 7/2/1 4/2/1 3/2/1
f 7/2/1 6/2/1 5/2/1
f 7/2/1 5/2/1 4/2/1
f 8/2/1 6/2/1 7/2/1
f 9/2/1 6/2/1 8/2/1
f 10/2/1 6/2/1 9/2/1
f 11/2/1 9/2/1 8/2/1
f 12/2/1 9/2/1 11/2/1
f 17/2/1 14/2/1 13/2/1
f 18/2/1 14/2/1 17/2/1
f 19/2/1 16/2/1 15/2/1
f 20/2/1 16/2/1 19/2/1
f 23/2/1 22/2/1 21/2/1
f 24/2/1 22/2/1 23/2/1
f 27/2/1 26/2/1 25/2/1
f 28/2/1 26/2/1 27/2/1
f 31/2/1 30/2/1 29/2/1
f 32/2/1 30/2/1 31/2/1
f 35/2/1 34/2/1 33/2/1
f 36/2/1 34/2/1 35/2/1
f 39/2/1 38/2/1 37/2/1
f 40/2/1 38/2/1 39/2/1
f 43/2/1 42/2/1 41/2/1
f 44/2/1 42/2/1 43/2/1
f 47/2/1 46/2/1 45/2/1
f 48/2/1 46/2/1 47/2/1
f 51/2/1 50/2/1 49/2/1
f 52/2/1 50/2/1 51/2/1
f 55/2/1 54/2/1 53/2/1
f 56/2/1 54/2/1 55/2/1
f 59/2/1 58/2/1 57/2/1
f 60/2/1 58/2/1 59/2/1
f 63/2/1 62/2/1 61/2/1
f 64/2/1 62/2/1 63/2/1
f 67/1/1 66/1/1 65/1/1
f 68/1/1 66/1/1 67/1/1
f 71/2/1 70/2/1 69/2/1
f 72/2/1 70/2/1 71/2/1
f 75/2/1 74/2/1 73/2/1
f 76/2/1 74/2/1 75/2/1
f 79/2/1 78/2/1 77/2/1
f 80/2/1 78/2/1 79/2/1
f 81/2/2 82/2/2 83/2/2
f 83/2/2 82/2/2 84/2/2
f 85/2/2 86/2/2 87/2/2
f 87/2/2 86/2/2 88/2/2
f 89/1/2 90/1/2 91/1/2
f 91/1/2 90/1/2 92/1/2
f 93/2/2 94/2/2 95/2/2
f 95/2/2 94/2/2 96/2/2
f 97/2/2 98/2/2 99/2/2
f 99/2/2 98/2/2 100/2/2
f 101/2/2 102/2/2 103/2/2
f 103/2/2 102/2/2 104/2/2
f 105/2/2 106/2/2 107/2/2
f 107/2/2 106/2/2 108/2/2
f 109/2/2 110/2/2 113/2/2
f 113/2/2 110/2/2 114/2/2
f 111/2/2 112/2/2 115/2/2
f 115/2/2 112/2/2 116/2/2
f 117/2/2 118/2/2 119/2/2
f 119/2/2 118/2/2 120/2/2
f 121/2/2 122/2/2 123/2/2
f 123/2/2 122/2/2 124/2/2
f 125/1/2 126/1/2 127/1/2
f 127/1/2 126/1/2 128/1/2
f 129/2/2 130/2/2 131/2/2
f 131/2/2 130/2/2 132/2/2
f 133/2/2 134/2/2 135/2/2
f 135/2/2 134/2/2 136/2/2
f 137/2/2 138/2/2 139/2/2
f 139/2/2 138/2/2 140/2/2
f 141/2/2 142/2/2 143/2/2
f 143/2/2 142/2/2 144/2/2
f 143/1/2 144/1/2 148/1/2
f 144/1/2 145/1/2 148/1/2
f 148/1/2 145/1/2 149/1/2
f 146/3/2 147/3/2 150/3/2
f 147/1/2 148/1/2 151/1/2
f 150/3/2 147/3/2 151/3/2
f 148/2/2 149/2/2 152/2/2
f 151/1/2 148/1/2 152/1/2
f 152/2/2 149/2/2 153/2/2
f 153/2/2 149/2/2 154/2/2
f 150/1/2 151/1/2 155/1/2
f 151/2/2 152/2/2 156/2/2
f 155/1/2 151/1/2 156/1/2
f 152/2/2 153/2/2 156/2/2
f 156/2/2 153/2/2 157/2/2
f 158/2/2 159/2/2 160/2/2
f 160/2/2 159/2/2 161/2/2
f 165/2/3 163/2/3 162/2/3
f 166/2/3 163/2/3 165/2/3
f 167/2/3 165/2/3 164/2/3
f 168/1/3 166/1/3 165/1/3
f 168/2/3 165/2/3 167/2/3
f 169/3/3 168/3/3 167/3/3
f 170/1/3 166/1/3 168/1/3
f 170/3/3 168/3/3 169/3/3
f 171/2/3 163/2/3 166/2/3
f 173/1/3 170/1/3 169/1/3
f 174/1/3 166/1/3 170/1/3
f 174/1/3 170/1/3 173/1/3
f 175/2/3 172/2/3 171/2/3
f 175/1/3 166/1/3 174/1/3
f 175/2/3 171/2/3 166/2/3
f 176/2/3 172/2/3 175/2/3
f 177/2/3 172/2/3 176/2/3
f 177/1/3 176/1/3 175/1/3
f 178/2/3 172/2/3 177/2/3
f 179/1/3 177/1/3 175/1/3
f 182/2/3 175/2/3 174/2/3
f 183/1/3 179/1/3 175/1/3
f 183/2/3 175/2/3 182/2/3
f 184/2/3 180/2/3 179/2/3
f 184/1/3 179/1/3 183/1/3
f 185/2/3 183/2/3 182/2/3
f 185/2/3 182/2/3 181/2/3
f 185/2/3 184/2/3 183/2/3
f 186/2/3 184/2/3 185/2/3
f 187/2/3 180/2/3 184/2/3
f 187/2/3 184/2/3 186/2/3
f 188/2/3 180/2/3 187/2/3
f 190/2/3 187/2/3 186/2/3
f 191/2/3 187/2/3 190/2/3
f 191/2/3 190/2/3 189/2/3
f 192/2/3 187/2/3 191/2/3
f 194/2/3 191/2/3 189/2/3
f 195/2/3 191/2/3 194/2/3
f 196/1/3 193/1/3 192/1/3
f 196/2/3 191/2/3 195/2/3
f 196/1/3 192/1/3 191/1/3
f 197/1/3 193/1/3 196/1/3
f 198/1/3 193/1/3 197/1/3
f 200/3/3 196/3/3 195/3/3
f 201/2/3 198/2/3 197/2/3
f 201/1/3 197/1/3 196/1/3
f 202/2/3 198/2/3 201/2/3
f 203/2/3 200/2/3 199/2/3
f 203/3/3 196/3/3 200/3/3
f 204/1/3 202/1/3 201/1/3
f 204/3/3 196/3/3 203/3/3
f 204/1/3 201/1/3 196/1/3
f 205/1/3 202/1/3 204/1/3
f 206/2/3 204/2/3 203/2/3
f 206/3/3 205/3/3 204/3/3
f 207/1/3 202/1/3 205/1/3
f 207/3/3 205/3/3 206/3/3
f 208/1/3 202/1/3 207/1/3
f 209/2/3 203/2/3 199/2/3
f 209/2/3 206/2/3 203/2/3
f 210/2/3 206/2/3 209/2/3
f 215/2/3 212/2/3 211/2/3
f 216/2/3 212/2/3 215/2/3
f 217/2/3 214/2/3 213/2/3
f 218/2/3 214/2/3 217/2/3
f 221/2/3 220/2/3 219/2/3
f 222/2/3 220/2/3 221/2/3
f 227/2/3 226/2/3 225/2/3
f 228/2/3 226/2/3 227/2/3
f 229/2/3 224/2/3 223/2/3
f 230/2/3 224/2/3 229/2/3
f 235/2/3 232/2/3 231/2/3
f 236/2/3 232/2/3 235/2/3
f 237/1/3 234/1/3 233/1/3
f 238/1/3 234/1/3 237/1/3
f 241/2/3 240/2/3 239/2/3
f 242/2/3 240/2/3 241/2/3
f 245/2/3 244/2/3 243/2/3
f 246/2/3 244/2/3 245/2/3
f 247/2/4 248/2/4 250/2/4
f 248/2/4 249/2/4 250/2/4
f 250/2/4 249/2/4 251/2/4
f 252/2/4 253/2/4 256/2/4
f 256/2/4 253/2/4 257/2/4
f 254/2/4 255/2/4 258/2/4
f 258/2/4 255/2/4 259/2/4
f 260/2/4 261/2/4 262/2/4
f 262/2/4 261/2/4 263/2/4
f 264/1/4 265/1/4 266/1/4
f 266/1/4 265/1/4 267/1/4
f 268/2/4 269/2/4 272/2/4
f 272/2/4 269/2/4 273/2/4
f 270/2/4 271/2/4 274/2/4
f 274/2/4 271/2/4 277/2/4
f 277/2/4 271/2/4 278/2/4
f 275/1/4 276/1/4 279/1/4
f 279/1/4 276/1/4 280/1/4
f 281/2/4 282/2/4 285/2/4
f 285/2/4 282/2/4 286/2/4
f 283/2/4 284/2/4 287/2/4
f 287/2/4 284/2/4 288/2/4
f 288/2/4 284/2/4 289/2/4
f 290/2/4 291/2/4 294/2/4
f 294/2/4 291/2/4 295/2/4
f 292/2/4 293/2/4 296/2/4
f 296/2/4 293/2/4 297/2/4
f 298/2/4 299/2/4 301/2/4
f 301/2/4 299/2/4 302/2/4
f 302/2/4 299/2/4 303/2/4
f 300/2/4 301/2/4 305/2/4
f 301/1/4 302/1/4 306/1/4
f 305/2/4 301/2/4 306/2/4
f 303/2/4 304/2/4 307/2/4
f 306/1/4 302/1/4 307/1/4
f 302/2/4 303/2/4 307/2/4
f 307/2/4 304/2/4 308/2/4
f 306/2/4 307/2/4 308/2/4
f 308/2/4 304/2/4 309/2/4
f 306/2/4 308/2/4 311/2/4
f 309/2/4 304/2/4 312/2/4
f 308/1/4 309/1/4 312/1/4
f 312/2/4 304/2/4 313/2/4
f 308/1/4 312/1/4 314/1/4
f 310/2/4 311/2/4 316/2/4
f 311/2/4 308/2/4 317/2/4
f 316/2/4 311/2/4 317/2/4
f 308/1/4 314/1/4 318/1/4
f 317/2/4 308/2/4 318/2/4
f 314/2/4 315/2/4 319/2/4
f 318/1/4 314/1/4 319/1/4
f 319/2/4 315/2/4 320/2/4
f 317/2/4 318/2/4 322/2/4
f 318/2/4 319/2/4 322/2/4
f 322/2/4 319/2/4 323/2/4
f 323/2/4 319/2/4 324/2/4
f 321/2/4 322/2/4 325/2/4
f 322/2/4 323/2/4 325/2/4
f 325/2/4 323/2/4 326/2/4
f 323/1/4 324/1/4 327/1/4
f 323/1/4 327/1/4 329/1/4
f 326/2/4 323/2/4 329/2/4
f 327/2/4 328/2/4 330/2/4
f 329/1/4 327/1/4 330/1/4
f 330/2/4 328/2/4 331/2/4
f 326/2/4 329/2/4 333/2/4
f 329/2/4 330/2/4 333/2/4
f 333/2/4 330/2/4 334/2/4
f 330/1/4 331/1/4 335/1/4
f 334/2/4 330/2/4 335/2/4
f 333/2/4 334/2/4 336/2/4
f 332/2/4 333/2/4 336/2/4
f 336/2/4 334/2/4 337/2/4
f 335/1/4 331/1/4 338/1/4
f 334/1/4 335/1/4 338/1/4
f 338/1/4 331/1/4 339/1/4
f 337/2/4 334/2/4 341/2/4
f 334/1/4 338/1/4 342/1/4
f 341/2/4 334/2/4 342/2/4
f 342/1/4 338/1/4 343/1/4
f 340/2/4 341/2/4 344/2/4
f 341/2/4 342/2/4 344/2/4
f 342/2/4 343/2/4 344/2/4
f 340/2/4 344/2/4 346/2/4
f 344/2/4 345/2/4 346/2/4
f 346/2/4 345/2/4 347/2/4
f 347/2/4 345/2/4 348/2/4
f 348/2/4 345/2/4 349/2/4
f 349/2/4 345/2/4 350/2/4
f 347/1/4 348/1/4 351/1/4
f 348/2/4 349/2/4 352/2/4
f 351/1/4 348/1/4 352/1/4
f 352/2/4 349/2/4 353/2/4
f 365/2/5 355/2/5 354/2/5
f 366/3/5 356/3/5 355/3/5
f 366/2/5 355/2/5 365/2/5
f 367/1/5 357/1/5 356/1/5
f 367/3/5 356/3/5 366/3/5
f 368/1/5 357/1/5 367/1/5
f 369/1/5 357/1/5 368/1/5
f 370/2/5 359/2/5 358/2/5
f 371/2/5 359/2/5 370/2/5
f 372/2/5 361/2/5 360/2/5
f 373/2/5 361/2/5 372/2/5
f 374/2/5 363/2/5 362/2/5
f 375/2/5 365/2/5 364/2/5
f 375/2/5 366/2/5 365/2/5
f 375/2/5 367/2/5 366/2/5
f 375/1/5 368/1/5 367/1/5
f 376/2/5 373/2/5 372/2/5
f 376/1/5 368/1/5 375/1/5
f 376/2/5 374/2/5 373/2/5
f 376/2/5 369/2/5 368/2/5
f 376/2/5 370/2/5 369/2/5
f 376/2/5 371/2/5 370/2/5
f 376/2/5 372/2/5 371/2/5
f 377/2/5 374/2/5 376/2/5
f 378/2/5 374/2/5 377/2/5
f 379/2/5 363/2/5 374/2/5
f 379/2/5 374/2/5 378/2/5
f 380/2/5 363/2/5 379/2/5
f 381/2/5 375/2/5 364/2/5
f 381/2/5 376/2/5 375/2/5
f 381/2/5 377/2/5 376/2/5
f 382/2/5 377/2/5 381/2/5
f 383/2/5 377/2/5 382/2/5
f 384/2/5 377/2/5 383/2/5
f 385/2/5 377/2/5 384/2/5
f 386/2/5 377/2/5 385/2/5
f 387/1/5 378/1/5 377/1/5
f 387/2/5 377/2/5 386/2/5
f 388/1/5 378/1/5 387/1/5
f 389/2/5 379/2/5 378/2/5
f 389/1/5 378/1/5 388/1/5
f 390/2/5 379/2/5 389/2/5
f 391/2/5 379/2/5 390/2/5
f 392/2/5 379/2/5 391/2/5
f 393/2/5 379/2/5 392/2/5
f 394/2/5 383/2/5 382/2/5
f 395/2/5 383/2/5 394/2/5
f 396/2/5 385/2/5 384/2/5
f 397/2/5 385/2/5 396/2/5
f 398/2/5 388/2/5 387/2/5
f 398/2/5 387/2/5 386/2/5
f 399/2/5 388/2/5 398/2/5
f 400/2/5 390/2/5 389/2/5
f 401/2/5 390/2/5 400/2/5
f 402/2/5 392/2/5 391/2/5
f 403/2/5 392/2/5 402/2/5
f 412/2/5 405/2/5 404/2/5
f 413/2/5 405/2/5 412/2/5
f 414/2/5 407/2/5 406/2/5
f 415/2/5 407/2/5 414/2/5
f 416/2/5 409/2/5 408/2/5
f 417/2/5 409/2/5 416/2/5
f 418/3/5 411/3/5 410/3/5
f 419/3/5 411/3/5 418/3/5
f 432/2/5 421/2/5 420/2/5
f 433/2/5 421/2/5 432/2/5
f 434/2/5 423/2/5 422/2/5
f 435/2/5 423/2/5 434/2/5
f 436/2/5 425/2/5 424/2/5
f 437/2/5 425/2/5 436/2/5
f 438/2/5 427/2/5 426/2/5
f 439/2/5 427/2/5 438/2/5
f 440/2/5 429/2/5 428/2/5
f 441/2/5 429/2/5 440/2/5
f 442/1/5 431/1/5 430/1/5
f 443/1/5 431/1/5 442/1/5
f 444/2/6 445/2/6 446/2/6
f 446/2/6 445/2/6 447/2/6
f 447/2/6 445/2/6 448/2/6
f 449/2/6 450/2/6 455/2/6
f 455/2/6 450/2/6 456/2/6
f 456/2/6 450/2/6 457/2/6
f 457/2/6 450/2/6 458/2/6
f 451/1/6 452/1/6 459/1/6
f 459/1/6 452/1/6 460/1/6
f 453/2/6 454/2/6 461/2/6
f 461/2/6 454/2/6 462/2/6
f 456/2/6 457/2/6 463/2/6
f 463/2/6 457/2/6 464/2/6
f 465/2/6 466/2/6 477/2/6
f 477/2/6 466/2/6 478/2/6
f 467/1/6 468/1/6 479/1/6
f 479/1/6 468/1/6 480/1/6
f 469/2/6 470/2/6 481/2/6
f 470/1/6 471/1/6 482/1/6
f 481/2/6 470/2/6 482/2/6
f 482/1/6 471/1/6 483/1/6
f 472/1/6 473/1/6 484/1/6
f 473/2/6 474/2/6 485/2/6
f 484/1/6 473/1/6 485/1/6
f 485/2/6 474/2/6 486/2/6
f 475/2/6 476/2/6 487/2/6
f 487/2/6 476/2/6 488/2/6
f 489/2/6 490/2/6 500/2/6
f 500/2/6 490/2/6 501/2/6
f 501/2/6 490/2/6 502/2/6
f 502/2/6 490/2/6 503/2/6
f 491/2/6 492/2/6 504/2/6
f 504/2/6 492/2/6 505/2/6
f 493/1/6 494/1/6 506/1/6
f 494/2/6 495/2/6 507/2/6
f 495/1/6 496/1/6 507/1/6
f 507/1/6 496/1/6 508/1/6
f 497/2/6 498/2/6 509/2/6
f 499/2/6 500/2/6 510/2/6
f 500/2/6 501/2/6 510/2/6
f 510/2/6 501/2/6 511/2/6
f 501/3/6 502/3/6 512/3/6
f 511/2/6 501/2/6 512/2/6
f 502/2/6 503/2/6 513/2/6
f 512/3/6 502/3/6 513/3/6
f 504/2/6 505/2/6 513/2/6
f 503/2/6 504/2/6 513/2/6
f 513/2/6 505/2/6 514/2/6
f 505/1/6 506/1/6 515/1/6
f 514/2/6 505/2/6 515/2/6
f 506/1/6 494/1/6 516/1/6
f 515/1/6 506/1/6 516/1/6
f 507/2/6 508/2/6 517/2/6
f 516/1/6 494/1/6 517/1/6
f 494/2/6 507/2/6 517/2/6
f 509/2/6 510/2/6 518/2/6
f 497/2/6 509/2/6 518/2/6
f 510/2/6 511/2/6 518/2/6
f 518/2/6 511/2/6 519/2/6
f 511/1/6 512/1/6 520/1/6
f 519/2/6 511/2/6 520/2/6
f 513/1/6 514/1/6 520/1/6
f 512/1/6 513/1/6 520/1/6
f 520/1/6 514/1/6 521/1/6
f 521/1/6 514/1/6 522/1/6
f 514/2/6 515/2/6 523/2/6
f 522/1/6 514/1/6 523/1/6
f 523/2/6 515/2/6 524/2/6
f 515/3/6 516/3/6 525/3/6
f 524/2/6 515/2/6 525/2/6
f 525/3/6 516/3/6 526/3/6
f 516/2/6 517/2/6 527/2/6
f 526/3/6 516/3/6 527/3/6
f 517/2/6 508/2/6 528/2/6
f 527/2/6 517/2/6 528/2/6
f 528/2/6 508/2/6 529/2/6
f 529/2/6 508/2/6 530/2/6
f 519/2/6 520/2/6 531/2/6
f 520/2/6 521/2/6 531/2/6
f 531/2/6 521/2/6 532/2/6
f 523/2/6 524/2/6 533/2/6
f 522/2/6 523/2/6 533/2/6
f 533/2/6 524/2/6 534/2/6
f 525/2/6 526/2/6 535/2/6
f 526/1/6 527/1/6 536/1/6
f 535/2/6 526/2/6 536/2/6
f 536/1/6 527/1/6 537/1/6
f 528/2/6 529/2/6 538/2/6
f 538/2/6 529/2/6 539/2/6
