# MagicaVoxel @ Ephtracy

# group
o Tool - Pickaxe

# material
mtllib Medieval Assets-228-Tool - Pickaxe.mtl
usemtl palette

# normals
vn -1 0 0
vn 1 0 0
vn 0 0 1
vn 0 0 -1
vn 0 -1 0
vn 0 1 0

# texcoords
vt 0.138672 0.5
vt 0.142578 0.5
vt 0.158203 0.5
vt 0.189453 0.5
vt 0.201172 0.5

# verts
v 9 0 -0.2
v 9 0 -0.3
v 9 0.1 -0.2
v 9 0.1 -0.3
v 9 0.4 -0.2
v 9 0.4 -0.3
v 9 0.8 0.3
v 9 0.8 0.2
v 9 0.8 0.1
v 9 0.8 -0.6
v 9 0.8 -0.7
v 9 0.8 -0.8
v 9 0.9 0.3
v 9 0.9 0.2
v 9 0.9 0.1
v 9 0.9 -0.1
v 9 0.9 -0.2
v 9 0.9 -0.3
v 9 0.9 -0.4
v 9 0.9 -0.6
v 9 0.9 -0.7
v 9 0.9 -0.8
v 9 1 0.2
v 9 1 0.1
v 9 1 0
v 9 1 -0.1
v 9 1 -0.4
v 9 1 -0.5
v 9 1 -0.6
v 9 1 -0.7
v 9 1.1 0
v 9 1.1 -0.1
v 9 1.1 -0.4
v 9 1.1 -0.5
v 9.1 0 -0.2
v 9.1 0 -0.3
v 9.1 0.1 -0.2
v 9.1 0.1 -0.3
v 9.1 0.4 -0.2
v 9.1 0.4 -0.3
v 9.1 0.8 0.3
v 9.1 0.8 0.2
v 9.1 0.8 0.1
v 9.1 0.8 -0.6
v 9.1 0.8 -0.7
v 9.1 0.8 -0.8
v 9.1 0.9 0.3
v 9.1 0.9 0.2
v 9.1 0.9 0.1
v 9.1 0.9 -0.1
v 9.1 0.9 -0.2
v 9.1 0.9 -0.3
v 9.1 0.9 -0.4
v 9.1 0.9 -0.6
v 9.1 0.9 -0.7
v 9.1 0.9 -0.8
v 9.1 1 0.2
v 9.1 1 0.1
v 9.1 1 0
v 9.1 1 -0.1
v 9.1 1 -0.4
v 9.1 1 -0.5
v 9.1 1 -0.6
v 9.1 1 -0.7
v 9.1 1.1 0
v 9.1 1.1 -0.1
v 9.1 1.1 -0.4
v 9.1 1.1 -0.5
v 9 0.8 0.3
v 9 0.9 0.3
v 9.1 0.8 0.3
v 9.1 0.9 0.3
v 9 0.9 0.2
v 9 1 0.2
v 9.1 0.9 0.2
v 9.1 1 0.2
v 9 1 0
v 9 1.1 0
v 9.1 1 0
v 9.1 1.1 0
v 9 0 -0.2
v 9 0.1 -0.2
v 9 0.4 -0.2
v 9 0.9 -0.2
v 9.1 0 -0.2
v 9.1 0.1 -0.2
v 9.1 0.4 -0.2
v 9.1 0.9 -0.2
v 9 0.8 -0.6
v 9 0.9 -0.6
v 9.1 0.8 -0.6
v 9.1 0.9 -0.6
v 9 0.8 0.1
v 9 0.9 0.1
v 9.1 0.8 0.1
v 9.1 0.9 0.1
v 9 0 -0.3
v 9 0.1 -0.3
v 9 0.4 -0.3
v 9 0.9 -0.3
v 9.1 0 -0.3
v 9.1 0.1 -0.3
v 9.1 0.4 -0.3
v 9.1 0.9 -0.3
v 9 1 -0.5
v 9 1.1 -0.5
v 9.1 1 -0.5
v 9.1 1.1 -0.5
v 9 0.9 -0.7
v 9 1 -0.7
v 9.1 0.9 -0.7
v 9.1 1 -0.7
v 9 0.8 -0.8
v 9 0.9 -0.8
v 9.1 0.8 -0.8
v 9.1 0.9 -0.8
v 9 0 -0.2
v 9.1 0 -0.2
v 9 0 -0.3
v 9.1 0 -0.3
v 9 0.8 0.3
v 9.1 0.8 0.3
v 9 0.8 0.2
v 9.1 0.8 0.2
v 9 0.8 0.1
v 9.1 0.8 0.1
v 9 0.8 -0.6
v 9.1 0.8 -0.6
v 9 0.8 -0.7
v 9.1 0.8 -0.7
v 9 0.8 -0.8
v 9.1 0.8 -0.8
v 9 0.9 0.1
v 9.1 0.9 0.1
v 9 0.9 -0.1
v 9.1 0.9 -0.1
v 9 0.9 -0.2
v 9.1 0.9 -0.2
v 9 0.9 -0.3
v 9.1 0.9 -0.3
v 9 0.9 -0.4
v 9.1 0.9 -0.4
v 9 0.9 -0.6
v 9.1 0.9 -0.6
v 9 0.9 0.3
v 9.1 0.9 0.3
v 9 0.9 0.2
v 9.1 0.9 0.2
v 9 0.9 -0.7
v 9.1 0.9 -0.7
v 9 0.9 -0.8
v 9.1 0.9 -0.8
v 9 1 0.2
v 9.1 1 0.2
v 9 1 0.1
v 9.1 1 0.1
v 9 1 0
v 9.1 1 0
v 9 1 -0.5
v 9.1 1 -0.5
v 9 1 -0.6
v 9.1 1 -0.6
v 9 1 -0.7
v 9.1 1 -0.7
v 9 1.1 0
v 9.1 1.1 0
v 9 1.1 -0.1
v 9.1 1.1 -0.1
v 9 1.1 -0.4
v 9.1 1.1 -0.4
v 9 1.1 -0.5
v 9.1 1.1 -0.5

# faces
f 3/3/1 2/3/1 1/3/1
f 4/3/1 2/3/1 3/3/1
f 5/5/1 4/5/1 3/5/1
f 6/5/1 4/5/1 5/5/1
f 13/2/1 8/2/1 7/2/1
f 14/1/1 9/1/1 8/1/1
f 14/2/1 8/2/1 13/2/1
f 15/1/1 9/1/1 14/1/1
f 17/4/1 6/4/1 5/4/1
f 18/4/1 6/4/1 17/4/1
f 20/1/1 11/1/1 10/1/1
f 21/2/1 12/2/1 11/2/1
f 21/1/1 11/1/1 20/1/1
f 22/2/1 12/2/1 21/2/1
f 23/2/1 15/2/1 14/2/1
f 24/1/1 16/1/1 15/1/1
f 24/2/1 15/2/1 23/2/1
f 25/1/1 16/1/1 24/1/1
f 26/2/1 19/2/1 18/2/1
f 26/1/1 16/1/1 25/1/1
f 26/2/1 17/2/1 16/2/1
f 26/2/1 18/2/1 17/2/1
f 27/1/1 20/1/1 19/1/1
f 27/2/1 19/2/1 26/2/1
f 28/1/1 20/1/1 27/1/1
f 29/2/1 21/2/1 20/2/1
f 29/1/1 20/1/1 28/1/1
f 30/2/1 21/2/1 29/2/1
f 31/2/1 26/2/1 25/2/1
f 32/1/1 27/1/1 26/1/1
f 32/2/1 26/2/1 31/2/1
f 33/2/1 28/2/1 27/2/1
f 33/1/1 27/1/1 32/1/1
f 34/2/1 28/2/1 33/2/1
f 35/3/2 36/3/2 37/3/2
f 37/3/2 36/3/2 38/3/2
f 37/5/2 38/5/2 39/5/2
f 39/5/2 38/5/2 40/5/2
f 41/2/2 42/2/2 47/2/2
f 42/1/2 43/1/2 48/1/2
f 47/2/2 42/2/2 48/2/2
f 48/1/2 43/1/2 49/1/2
f 39/4/2 40/4/2 51/4/2
f 51/4/2 40/4/2 52/4/2
f 44/1/2 45/1/2 54/1/2
f 45/2/2 46/2/2 55/2/2
f 54/1/2 45/1/2 55/1/2
f 55/2/2 46/2/2 56/2/2
f 48/2/2 49/2/2 57/2/2
f 49/1/2 50/1/2 58/1/2
f 57/2/2 49/2/2 58/2/2
f 58/1/2 50/1/2 59/1/2
f 52/2/2 53/2/2 60/2/2
f 59/1/2 50/1/2 60/1/2
f 50/2/2 51/2/2 60/2/2
f 51/2/2 52/2/2 60/2/2
f 53/1/2 54/1/2 61/1/2
f 60/2/2 53/2/2 61/2/2
f 61/1/2 54/1/2 62/1/2
f 54/2/2 55/2/2 63/2/2
f 62/1/2 54/1/2 63/1/2
f 63/2/2 55/2/2 64/2/2
f 59/2/2 60/2/2 65/2/2
f 60/1/2 61/1/2 66/1/2
f 65/2/2 60/2/2 66/2/2
f 61/2/2 62/2/2 67/2/2
f 66/1/2 61/1/2 67/1/2
f 67/2/2 62/2/2 68/2/2
f 71/2/3 70/2/3 69/2/3
f 72/2/3 70/2/3 71/2/3
f 75/2/3 74/2/3 73/2/3
f 76/2/3 74/2/3 75/2/3
f 79/2/3 78/2/3 77/2/3
f 80/2/3 78/2/3 79/2/3
f 85/3/3 82/3/3 81/3/3
f 86/5/3 83/5/3 82/5/3
f 86/3/3 82/3/3 85/3/3
f 87/4/3 84/4/3 83/4/3
f 87/5/3 83/5/3 86/5/3
f 88/4/3 84/4/3 87/4/3
f 91/1/3 90/1/3 89/1/3
f 92/1/3 90/1/3 91/1/3
f 93/1/4 94/1/4 95/1/4
f 95/1/4 94/1/4 96/1/4
f 97/3/4 98/3/4 101/3/4
f 98/5/4 99/5/4 102/5/4
f 101/3/4 98/3/4 102/3/4
f 99/4/4 100/4/4 103/4/4
f 102/5/4 99/5/4 103/5/4
f 103/4/4 100/4/4 104/4/4
f 105/2/4 106/2/4 107/2/4
f 107/2/4 106/2/4 108/2/4
f 109/2/4 110/2/4 111/2/4
f 111/2/4 110/2/4 112/2/4
f 113/2/4 114/2/4 115/2/4
f 115/2/4 114/2/4 116/2/4
f 119/3/5 118/3/5 117/3/5
f 120/3/5 118/3/5 119/3/5
f 123/2/5 122/2/5 121/2/5
f 124/2/5 122/2/5 123/2/5
f 125/1/5 124/1/5 123/1/5
f 126/1/5 124/1/5 125/1/5
f 129/1/5 128/1/5 127/1/5
f 130/1/5 128/1/5 129/1/5
f 131/2/5 130/2/5 129/2/5
f 132/2/5 130/2/5 131/2/5
f 135/1/5 134/1/5 133/1/5
f 136/1/5 134/1/5 135/1/5
f 137/2/5 136/2/5 135/2/5
f 138/2/5 136/2/5 137/2/5
f 141/2/5 140/2/5 139/2/5
f 142/2/5 140/2/5 141/2/5
f 143/1/5 142/1/5 141/1/5
f 144/1/5 142/1/5 143/1/5
f 145/2/6 146/2/6 147/2/6
f 147/2/6 146/2/6 148/2/6
f 149/2/6 150/2/6 151/2/6
f 151/2/6 150/2/6 152/2/6
f 153/2/6 154/2/6 155/2/6
f 155/2/6 154/2/6 156/2/6
f 155/1/6 156/1/6 157/1/6
f 157/1/6 156/1/6 158/1/6
f 159/1/6 160/1/6 161/1/6
f 161/1/6 160/1/6 162/1/6
f 161/2/6 162/2/6 163/2/6
f 163/2/6 162/2/6 164/2/6
f 165/2/6 166/2/6 167/2/6
f 167/2/6 166/2/6 168/2/6
f 167/1/6 168/1/6 169/1/6
f 169/1/6 168/1/6 170/1/6
f 169/2/6 170/2/6 171/2/6
f 171/2/6 170/2/6 172/2/6
