# MagicaVoxel @ Ephtracy

# group
o Light - Player Torch

# material
mtllib Medieval Assets-303-Light - Player Torch.mtl
usemtl palette

# normals
vn -1 0 0
vn 1 0 0
vn 0 0 1
vn 0 0 -1
vn 0 -1 0
vn 0 1 0

# texcoords
vt 0.0136719 0.5
vt 0.0253906 0.5
vt 0.0644531 0.5
vt 0.0722656 0.5
vt 0.0800781 0.5
vt 0.0839844 0.5
vt 0.126953 0.5
vt 0.158203 0.5
vt 0.193359 0.5

# verts
v -14.2 0.7 -7.6
v -14.2 0.7 -7.8
v -14.2 0.8 -7.6
v -14.2 0.8 -7.8
v -14.2 1.3 -7.6
v -14.2 1.3 -7.7
v -14.2 1.3 -7.8
v -14.2 1.4 -7.6
v -14.2 1.4 -7.7
v -14.2 1.4 -7.8
v -14.2 1.5 -7.6
v -14.2 1.5 -7.7
v -14.2 1.5 -7.8
v -14.2 1.6 -7.6
v -14.2 1.6 -7.7
v -14.2 1.6 -7.8
v -14.2 1.7 -7.6
v -14.2 1.7 -7.7
v -14.2 1.7 -7.8
v -14 0.7 -7.6
v -14 0.7 -7.8
v -14 0.8 -7.6
v -14 0.8 -7.7
v -14 0.8 -7.8
v -14 0.9 -7.7
v -14 0.9 -7.8
v -14 1.3 -7.6
v -14 1.3 -7.8
v -14 1.4 -7.6
v -14 1.4 -7.7
v -14 1.4 -7.8
v -14 1.5 -7.6
v -14 1.5 -7.7
v -14 1.5 -7.8
v -14 1.6 -7.6
v -14 1.6 -7.7
v -14 1.6 -7.8
v -14 1.7 -7.6
v -14 1.7 -7.7
v -14 1.7 -7.8
v -14.2 0.7 -7.6
v -14.2 0.8 -7.6
v -14.2 1.3 -7.6
v -14.2 1.4 -7.6
v -14.2 1.5 -7.6
v -14.2 1.6 -7.6
v -14.2 1.7 -7.6
v -14.1 1.3 -7.6
v -14.1 1.4 -7.6
v -14.1 1.5 -7.6
v -14.1 1.6 -7.6
v -14.1 1.7 -7.6
v -14 0.7 -7.6
v -14 0.8 -7.6
v -14 1.3 -7.6
v -14 1.4 -7.6
v -14 1.5 -7.6
v -14 1.6 -7.6
v -14 1.7 -7.6
v -14.2 0.7 -7.8
v -14.2 0.8 -7.8
v -14.2 1.3 -7.8
v -14.2 1.4 -7.8
v -14.2 1.5 -7.8
v -14.2 1.6 -7.8
v -14.2 1.7 -7.8
v -14.1 0.8 -7.8
v -14.1 0.9 -7.8
v -14.1 1.3 -7.8
v -14.1 1.4 -7.8
v -14.1 1.5 -7.8
v -14.1 1.6 -7.8
v -14.1 1.7 -7.8
v -14 0.7 -7.8
v -14 0.8 -7.8
v -14 0.9 -7.8
v -14 1.3 -7.8
v -14 1.4 -7.8
v -14 1.5 -7.8
v -14 1.6 -7.8
v -14 1.7 -7.8
v -14.2 0.7 -7.6
v -14 0.7 -7.6
v -14.2 0.7 -7.8
v -14 0.7 -7.8
v -14.2 1.7 -7.6
v -14.1 1.7 -7.6
v -14 1.7 -7.6
v -14.2 1.7 -7.7
v -14.1 1.7 -7.7
v -14 1.7 -7.7
v -14.2 1.7 -7.8
v -14.1 1.7 -7.8
v -14 1.7 -7.8

# faces
f 3/8/1 2/8/1 1/8/1
f 4/8/1 2/8/1 3/8/1
f 5/9/1 4/9/1 3/9/1
f 6/9/1 4/9/1 5/9/1
f 7/9/1 4/9/1 6/9/1
f 8/1/1 6/1/1 5/1/1
f 9/4/1 7/4/1 6/4/1
f 9/1/1 6/1/1 8/1/1
f 10/4/1 7/4/1 9/4/1
f 11/4/1 9/4/1 8/4/1
f 12/3/1 10/3/1 9/3/1
f 12/4/1 9/4/1 11/4/1
f 13/3/1 10/3/1 12/3/1
f 14/2/1 12/2/1 11/2/1
f 15/7/1 13/7/1 12/7/1
f 15/2/1 12/2/1 14/2/1
f 16/7/1 13/7/1 15/7/1
f 17/7/1 15/7/1 14/7/1
f 18/3/1 16/3/1 15/3/1
f 18/7/1 15/7/1 17/7/1
f 19/3/1 16/3/1 18/3/1
f 20/8/2 21/8/2 22/8/2
f 22/8/2 21/8/2 23/8/2
f 23/8/2 21/8/2 24/8/2
f 22/9/2 23/9/2 25/9/2
f 23/6/2 24/6/2 25/6/2
f 25/6/2 24/6/2 26/6/2
f 22/9/2 25/9/2 27/9/2
f 25/9/2 26/9/2 27/9/2
f 27/9/2 26/9/2 28/9/2
f 27/7/2 28/7/2 29/7/2
f 29/7/2 28/7/2 30/7/2
f 30/7/2 28/7/2 31/7/2
f 29/1/2 30/1/2 32/1/2
f 30/5/2 31/5/2 33/5/2
f 32/1/2 30/1/2 33/1/2
f 33/5/2 31/5/2 34/5/2
f 32/3/2 33/3/2 35/3/2
f 33/7/2 34/7/2 36/7/2
f 35/3/2 33/3/2 36/3/2
f 36/7/2 34/7/2 37/7/2
f 35/4/2 36/4/2 38/4/2
f 36/6/2 37/6/2 39/6/2
f 38/4/2 36/4/2 39/4/2
f 39/6/2 37/6/2 40/6/2
f 48/9/3 43/9/3 42/9/3
f 48/1/3 44/1/3 43/1/3
f 49/4/3 45/4/3 44/4/3
f 49/1/3 44/1/3 48/1/3
f 50/2/3 46/2/3 45/2/3
f 50/4/3 45/4/3 49/4/3
f 51/7/3 47/7/3 46/7/3
f 51/2/3 46/2/3 50/2/3
f 52/7/3 47/7/3 51/7/3
f 53/8/3 42/8/3 41/8/3
f 54/9/3 48/9/3 42/9/3
f 54/8/3 42/8/3 53/8/3
f 55/7/3 49/7/3 48/7/3
f 55/9/3 48/9/3 54/9/3
f 56/1/3 50/1/3 49/1/3
f 56/7/3 49/7/3 55/7/3
f 57/3/3 51/3/3 50/3/3
f 57/1/3 50/1/3 56/1/3
f 58/4/3 52/4/3 51/4/3
f 58/3/3 51/3/3 57/3/3
f 59/4/3 52/4/3 58/4/3
f 60/8/4 61/8/4 67/8/4
f 61/9/4 62/9/4 67/9/4
f 67/9/4 62/9/4 68/9/4
f 62/4/4 63/4/4 69/4/4
f 68/9/4 62/9/4 69/9/4
f 63/3/4 64/3/4 70/3/4
f 69/4/4 63/4/4 70/4/4
f 64/7/4 65/7/4 71/7/4
f 70/3/4 64/3/4 71/3/4
f 65/3/4 66/3/4 72/3/4
f 71/7/4 65/7/4 72/7/4
f 72/3/4 66/3/4 73/3/4
f 60/8/4 67/8/4 74/8/4
f 67/6/4 68/6/4 75/6/4
f 74/8/4 67/8/4 75/8/4
f 68/9/4 69/9/4 76/9/4
f 75/6/4 68/6/4 76/6/4
f 69/7/4 70/7/4 77/7/4
f 76/9/4 69/9/4 77/9/4
f 70/5/4 71/5/4 78/5/4
f 77/7/4 70/7/4 78/7/4
f 71/7/4 72/7/4 79/7/4
f 78/5/4 71/5/4 79/5/4
f 72/6/4 73/6/4 80/6/4
f 79/7/4 72/7/4 80/7/4
f 80/6/4 73/6/4 81/6/4
f 84/8/5 83/8/5 82/8/5
f 85/8/5 83/8/5 84/8/5
f 86/7/6 87/7/6 89/7/6
f 87/4/6 88/4/6 90/4/6
f 89/7/6 87/7/6 90/7/6
f 90/4/6 88/4/6 91/4/6
f 89/3/6 90/3/6 92/3/6
f 90/6/6 91/6/6 93/6/6
f 92/3/6 90/3/6 93/3/6
f 93/6/6 91/6/6 94/6/6
