# MagicaVoxel @ Ephtracy

# group
o Decoration - Wooden Plank Short - Variant6

# material
mtllib Medieval Assets-86-Decoration - Wooden Plank Short - Variant6.mtl
usemtl palette

# normals
vn -1 0 0
vn 1 0 0
vn 0 0 1
vn 0 0 -1
vn 0 -1 0
vn 0 1 0

# texcoords
vt 0.166016 0.5
vt 0.169922 0.5
vt 0.173828 0.5

# verts
v 31.9 -0.1 0.3
v 31.9 -0.1 0.1
v 31.9 -0.1 -0.4
v 31.9 -0.1 -0.6
v 31.9 -0.1 -1.5
v 31.9 -0.1 -1.6
v 31.9 -0.1 -1.7
v 31.9 0 0.1
v 31.9 0 -0.4
v 31.9 0 -0.6
v 31.9 0 -0.7
v 31.9 0 -1.5
v 31.9 0 -1.6
v 31.9 0 -1.7
v 31.9 0.1 0.3
v 31.9 0.1 -0.7
v 31.9 0.1 -1.6
v 31.9 0.1 -1.7
v 32.9 -0.1 0.3
v 32.9 -0.1 -0.3
v 32.9 -0.1 -0.6
v 32.9 -0.1 -1.4
v 32.9 -0.1 -1.7
v 32.9 0 0.3
v 32.9 0 0.1
v 32.9 0 -0.3
v 32.9 0 -0.6
v 32.9 0 -1.4
v 32.9 0 -1.5
v 32.9 0 -1.7
v 32.9 0.1 0.3
v 32.9 0.1 0.1
v 32.9 0.1 -1.4
v 32.9 0.1 -1.5
v 32.9 0.1 -1.7
v 31.9 -0.1 0.3
v 31.9 0.1 0.3
v 32.2 0 0.3
v 32.2 0.1 0.3
v 32.3 0 0.3
v 32.3 0.1 0.3
v 32.8 0 0.3
v 32.8 0.1 0.3
v 32.9 -0.1 0.3
v 32.9 0 0.3
v 32.9 0.1 0.3
v 31.9 -0.1 -1.7
v 31.9 0 -1.7
v 31.9 0.1 -1.7
v 32 -0.1 -1.7
v 32 0 -1.7
v 32.1 0 -1.7
v 32.1 0.1 -1.7
v 32.2 -0.1 -1.7
v 32.2 0 -1.7
v 32.2 0.1 -1.7
v 32.3 -0.1 -1.7
v 32.3 0 -1.7
v 32.3 0.1 -1.7
v 32.4 0 -1.7
v 32.4 0.1 -1.7
v 32.5 -0.1 -1.7
v 32.5 0 -1.7
v 32.6 0 -1.7
v 32.6 0.1 -1.7
v 32.7 -0.1 -1.7
v 32.7 0 -1.7
v 32.7 0.1 -1.7
v 32.8 -0.1 -1.7
v 32.8 0 -1.7
v 32.8 0.1 -1.7
v 32.9 -0.1 -1.7
v 32.9 0 -1.7
v 32.9 0.1 -1.7
v 31.9 -0.1 0.3
v 32.9 -0.1 0.3
v 32.1 -0.1 0.2
v 32.2 -0.1 0.2
v 31.9 -0.1 0.1
v 32 -0.1 0.1
v 32.1 -0.1 0
v 32.2 -0.1 0
v 32.3 -0.1 0
v 32.4 -0.1 0
v 32.3 -0.1 -0.2
v 32.4 -0.1 -0.2
v 32.6 -0.1 -0.2
v 32.7 -0.1 -0.2
v 32.8 -0.1 -0.3
v 32.9 -0.1 -0.3
v 31.9 -0.1 -0.4
v 32 -0.1 -0.4
v 32.1 -0.1 -0.4
v 32.1 -0.1 -0.5
v 32.2 -0.1 -0.5
v 32.3 -0.1 -0.5
v 32.5 -0.1 -0.5
v 32.6 -0.1 -0.5
v 31.9 -0.1 -0.6
v 32.1 -0.1 -0.6
v 32.3 -0.1 -0.6
v 32.4 -0.1 -0.6
v 32.5 -0.1 -0.6
v 32.6 -0.1 -0.6
v 32.8 -0.1 -0.6
v 32.9 -0.1 -0.6
v 32.1 -0.1 -0.8
v 32.2 -0.1 -0.8
v 32.6 -0.1 -0.8
v 32.7 -0.1 -0.8
v 32.4 -0.1 -0.9
v 32.5 -0.1 -0.9
v 32.3 -0.1 -1
v 32.4 -0.1 -1
v 32.4 -0.1 -1.2
v 32.5 -0.1 -1.2
v 32.2 -0.1 -1.3
v 32.3 -0.1 -1.3
v 32.6 -0.1 -1.3
v 32.7 -0.1 -1.3
v 32.7 -0.1 -1.4
v 32.8 -0.1 -1.4
v 32.9 -0.1 -1.4
v 31.9 -0.1 -1.5
v 32 -0.1 -1.5
v 32.2 -0.1 -1.5
v 32.3 -0.1 -1.5
v 31.9 -0.1 -1.6
v 32 -0.1 -1.6
v 32.4 -0.1 -1.6
v 32.5 -0.1 -1.6
v 32.6 -0.1 -1.6
v 32.7 -0.1 -1.6
v 32.8 -0.1 -1.6
v 31.9 -0.1 -1.7
v 32 -0.1 -1.7
v 32.2 -0.1 -1.7
v 32.3 -0.1 -1.7
v 32.5 -0.1 -1.7
v 32.7 -0.1 -1.7
v 32.8 -0.1 -1.7
v 32.9 -0.1 -1.7
v 31.9 0.1 0.3
v 32.2 0.1 0.3
v 32.3 0.1 0.3
v 32.8 0.1 0.3
v 32.9 0.1 0.3
v 32.6 0.1 0.2
v 32.7 0.1 0.2
v 32.1 0.1 0.1
v 32.2 0.1 0.1
v 32.8 0.1 0.1
v 32.9 0.1 0.1
v 32.1 0.1 0
v 32.3 0.1 0
v 32.1 0.1 -0.2
v 32.2 0.1 -0.2
v 32.6 0.1 -0.2
v 32.7 0.1 -0.2
v 32.8 0.1 -0.2
v 32 0.1 -0.3
v 32.1 0.1 -0.3
v 32.5 0.1 -0.3
v 32.7 0.1 -0.3
v 32.1 0.1 -0.4
v 32.2 0.1 -0.4
v 32.3 0.1 -0.5
v 32.4 0.1 -0.5
v 32.5 0.1 -0.5
v 32.6 0.1 -0.5
v 32 0.1 -0.6
v 32.1 0.1 -0.6
v 32.3 0.1 -0.6
v 32.4 0.1 -0.6
v 32.6 0.1 -0.6
v 32.7 0.1 -0.6
v 31.9 0.1 -0.7
v 32 0.1 -0.7
v 32.7 0.1 -0.8
v 32.8 0.1 -0.8
v 32.3 0.1 -0.9
v 32.4 0.1 -0.9
v 32.2 0.1 -1
v 32.3 0.1 -1
v 32.1 0.1 -1.1
v 32.2 0.1 -1.1
v 32.5 0.1 -1.1
v 32.6 0.1 -1.1
v 32.3 0.1 -1.2
v 32.4 0.1 -1.2
v 32.6 0.1 -1.2
v 32.7 0.1 -1.2
v 32.1 0.1 -1.3
v 32.2 0.1 -1.3
v 32.6 0.1 -1.3
v 32.7 0.1 -1.3
v 32.8 0.1 -1.3
v 32.1 0.1 -1.4
v 32.2 0.1 -1.4
v 32.5 0.1 -1.4
v 32.7 0.1 -1.4
v 32.8 0.1 -1.4
v 32.9 0.1 -1.4
v 32.7 0.1 -1.5
v 32.8 0.1 -1.5
v 32.9 0.1 -1.5
v 31.9 0.1 -1.6
v 32 0.1 -1.6
v 32.2 0.1 -1.6
v 32.3 0.1 -1.6
v 32.4 0.1 -1.6
v 32.6 0.1 -1.6
v 32.7 0.1 -1.6
v 31.9 0.1 -1.7
v 32.1 0.1 -1.7
v 32.2 0.1 -1.7
v 32.3 0.1 -1.7
v 32.4 0.1 -1.7
v 32.6 0.1 -1.7
v 32.7 0.1 -1.7
v 32.8 0.1 -1.7
v 32.9 0.1 -1.7

# faces
f 8/3/1 2/3/1 1/3/1
f 8/2/1 3/2/1 2/2/1
f 9/1/1 4/1/1 3/1/1
f 9/2/1 3/2/1 8/2/1
f 10/3/1 5/3/1 4/3/1
f 10/1/1 4/1/1 9/1/1
f 11/3/1 5/3/1 10/3/1
f 12/2/1 6/2/1 5/2/1
f 12/3/1 5/3/1 11/3/1
f 13/1/1 7/1/1 6/1/1
f 13/2/1 6/2/1 12/2/1
f 14/1/1 7/1/1 13/1/1
f 15/3/1 11/3/1 10/3/1
f 15/3/1 8/3/1 1/3/1
f 15/3/1 9/3/1 8/3/1
f 15/3/1 10/3/1 9/3/1
f 16/1/1 12/1/1 11/1/1
f 16/3/1 11/3/1 15/3/1
f 16/1/1 13/1/1 12/1/1
f 17/3/1 14/3/1 13/3/1
f 17/1/1 13/1/1 16/1/1
f 18/3/1 14/3/1 17/3/1
f 19/3/2 20/3/2 24/3/2
f 24/3/2 20/3/2 25/3/2
f 20/1/2 21/1/2 26/1/2
f 25/3/2 20/3/2 26/3/2
f 21/3/2 22/3/2 27/3/2
f 26/1/2 21/1/2 27/1/2
f 22/1/2 23/1/2 28/1/2
f 27/3/2 22/3/2 28/3/2
f 28/1/2 23/1/2 29/1/2
f 29/1/2 23/1/2 30/1/2
f 24/1/2 25/1/2 31/1/2
f 26/3/2 27/3/2 32/3/2
f 31/1/2 25/1/2 32/1/2
f 25/3/2 26/3/2 32/3/2
f 27/3/2 28/3/2 32/3/2
f 28/2/2 29/2/2 33/2/2
f 32/3/2 28/3/2 33/3/2
f 29/3/2 30/3/2 34/3/2
f 33/2/2 29/2/2 34/2/2
f 34/3/2 30/3/2 35/3/2
f 38/3/3 37/3/3 36/3/3
f 39/3/3 37/3/3 38/3/3
f 40/3/3 38/3/3 36/3/3
f 40/1/3 39/1/3 38/1/3
f 41/1/3 39/1/3 40/1/3
f 42/3/3 40/3/3 36/3/3
f 42/3/3 41/3/3 40/3/3
f 43/3/3 41/3/3 42/3/3
f 44/3/3 42/3/3 36/3/3
f 45/1/3 43/1/3 42/1/3
f 45/3/3 42/3/3 44/3/3
f 46/1/3 43/1/3 45/1/3
f 47/1/4 48/1/4 50/1/4
f 48/3/4 49/3/4 51/3/4
f 50/1/4 48/1/4 51/1/4
f 50/3/4 51/3/4 52/3/4
f 51/3/4 49/3/4 52/3/4
f 52/3/4 49/3/4 53/3/4
f 50/3/4 52/3/4 54/3/4
f 52/1/4 53/1/4 55/1/4
f 54/3/4 52/3/4 55/3/4
f 55/1/4 53/1/4 56/1/4
f 54/2/4 55/2/4 57/2/4
f 55/3/4 56/3/4 58/3/4
f 57/2/4 55/2/4 58/2/4
f 58/3/4 56/3/4 59/3/4
f 57/1/4 58/1/4 60/1/4
f 58/2/4 59/2/4 60/2/4
f 60/2/4 59/2/4 61/2/4
f 57/1/4 60/1/4 62/1/4
f 60/3/4 61/3/4 63/3/4
f 62/1/4 60/1/4 63/1/4
f 62/2/4 63/2/4 64/2/4
f 63/3/4 61/3/4 64/3/4
f 64/3/4 61/3/4 65/3/4
f 62/2/4 64/2/4 66/2/4
f 64/2/4 65/2/4 66/2/4
f 66/2/4 65/2/4 67/2/4
f 67/2/4 65/2/4 68/2/4
f 66/3/4 67/3/4 69/3/4
f 67/1/4 68/1/4 70/1/4
f 69/3/4 67/3/4 70/3/4
f 70/1/4 68/1/4 71/1/4
f 69/1/4 70/1/4 72/1/4
f 70/3/4 71/3/4 73/3/4
f 72/1/4 70/1/4 73/1/4
f 73/3/4 71/3/4 74/3/4
f 77/3/5 76/3/5 75/3/5
f 78/3/5 76/3/5 77/3/5
f 79/3/5 77/3/5 75/3/5
f 80/3/5 77/3/5 79/3/5
f 81/1/5 78/1/5 77/1/5
f 81/3/5 77/3/5 80/3/5
f 82/3/5 76/3/5 78/3/5
f 82/1/5 78/1/5 81/1/5
f 83/3/5 76/3/5 82/3/5
f 84/3/5 76/3/5 83/3/5
f 85/3/5 82/3/5 81/3/5
f 85/3/5 83/3/5 82/3/5
f 85/1/5 84/1/5 83/1/5
f 86/3/5 76/3/5 84/3/5
f 86/1/5 84/1/5 85/1/5
f 87/3/5 76/3/5 86/3/5
f 88/3/5 76/3/5 87/3/5
f 89/3/5 76/3/5 88/3/5
f 90/3/5 76/3/5 89/3/5
f 91/2/5 80/2/5 79/2/5
f 92/3/5 81/3/5 80/3/5
f 92/2/5 80/2/5 91/2/5
f 92/3/5 85/3/5 81/3/5
f 92/3/5 86/3/5 85/3/5
f 92/3/5 87/3/5 86/3/5
f 93/3/5 87/3/5 92/3/5
f 94/1/5 92/1/5 91/1/5
f 94/3/5 87/3/5 93/3/5
f 94/1/5 93/1/5 92/1/5
f 95/3/5 87/3/5 94/3/5
f 96/3/5 87/3/5 95/3/5
f 97/3/5 87/3/5 96/3/5
f 98/1/5 88/1/5 87/1/5
f 98/3/5 87/3/5 97/3/5
f 99/1/5 94/1/5 91/1/5
f 99/1/5 95/1/5 94/1/5
f 100/1/5 95/1/5 99/1/5
f 101/3/5 97/3/5 96/3/5
f 101/2/5 96/2/5 95/2/5
f 102/3/5 97/3/5 101/3/5
f 103/2/5 98/2/5 97/2/5
f 103/3/5 97/3/5 102/3/5
f 104/1/5 88/1/5 98/1/5
f 104/2/5 98/2/5 103/2/5
f 105/1/5 90/1/5 89/1/5
f 105/3/5 89/3/5 88/3/5
f 106/1/5 90/1/5 105/1/5
f 107/1/5 95/1/5 100/1/5
f 107/3/5 100/3/5 99/3/5
f 108/2/5 102/2/5 101/2/5
f 108/1/5 95/1/5 107/1/5
f 108/2/5 101/2/5 95/2/5
f 109/1/5 88/1/5 104/1/5
f 109/3/5 104/3/5 103/3/5
f 109/3/5 103/3/5 102/3/5
f 110/3/5 105/3/5 88/3/5
f 110/1/5 88/1/5 109/1/5
f 110/3/5 106/3/5 105/3/5
f 111/2/5 102/2/5 108/2/5
f 111/3/5 109/3/5 102/3/5
f 111/3/5 110/3/5 109/3/5
f 112/3/5 110/3/5 111/3/5
f 113/2/5 111/2/5 108/2/5
f 114/1/5 112/1/5 111/1/5
f 114/2/5 111/2/5 113/2/5
f 115/1/5 114/1/5 113/1/5
f 115/1/5 112/1/5 114/1/5
f 116/3/5 110/3/5 112/3/5
f 116/1/5 112/1/5 115/1/5
f 117/3/5 108/3/5 107/3/5
f 117/2/5 113/2/5 108/2/5
f 118/1/5 115/1/5 113/1/5
f 118/2/5 113/2/5 117/2/5
f 119/3/5 110/3/5 116/3/5
f 119/3/5 116/3/5 115/3/5
f 120/3/5 106/3/5 110/3/5
f 120/3/5 110/3/5 119/3/5
f 121/2/5 120/2/5 119/2/5
f 121/3/5 106/3/5 120/3/5
f 122/3/5 106/3/5 121/3/5
f 123/3/5 106/3/5 122/3/5
f 124/3/5 107/3/5 99/3/5
f 124/3/5 117/3/5 107/3/5
f 124/3/5 118/3/5 117/3/5
f 125/3/5 118/3/5 124/3/5
f 126/3/5 118/3/5 125/3/5
f 127/1/5 115/1/5 118/1/5
f 127/3/5 118/3/5 126/3/5
f 128/2/5 125/2/5 124/2/5
f 129/3/5 126/3/5 125/3/5
f 129/2/5 125/2/5 128/2/5
f 130/3/5 119/3/5 115/3/5
f 130/1/5 115/1/5 127/1/5
f 131/3/5 119/3/5 130/3/5
f 132/2/5 122/2/5 121/2/5
f 132/3/5 119/3/5 131/3/5
f 132/2/5 121/2/5 119/2/5
f 133/2/5 122/2/5 132/2/5
f 134/1/5 123/1/5 122/1/5
f 134/2/5 122/2/5 133/2/5
f 135/1/5 129/1/5 128/1/5
f 136/3/5 126/3/5 129/3/5
f 136/1/5 129/1/5 135/1/5
f 137/2/5 127/2/5 126/2/5
f 137/3/5 126/3/5 136/3/5
f 138/1/5 131/1/5 130/1/5
f 138/2/5 127/2/5 137/2/5
f 138/1/5 130/1/5 127/1/5
f 139/2/5 133/2/5 132/2/5
f 139/1/5 131/1/5 138/1/5
f 139/2/5 132/2/5 131/2/5
f 140/3/5 134/3/5 133/3/5
f 140/2/5 133/2/5 139/2/5
f 141/1/5 123/1/5 134/1/5
f 141/3/5 134/3/5 140/3/5
f 142/1/5 123/1/5 141/1/5
f 145/3/6 146/3/6 148/3/6
f 148/3/6 146/3/6 149/3/6
f 143/3/6 144/3/6 150/3/6
f 144/1/6 145/1/6 151/1/6
f 150/3/6 144/3/6 151/3/6
f 149/3/6 146/3/6 152/3/6
f 146/1/6 147/1/6 152/1/6
f 152/1/6 147/1/6 153/1/6
f 143/3/6 150/3/6 154/3/6
f 150/1/6 151/1/6 154/1/6
f 151/1/6 145/1/6 155/1/6
f 154/1/6 151/1/6 155/1/6
f 145/3/6 148/3/6 155/3/6
f 143/3/6 154/3/6 156/3/6
f 154/3/6 155/3/6 156/3/6
f 156/3/6 155/3/6 157/3/6
f 155/3/6 148/3/6 158/3/6
f 157/3/6 155/3/6 158/3/6
f 148/1/6 149/1/6 158/1/6
f 152/3/6 153/3/6 159/3/6
f 158/1/6 149/1/6 159/1/6
f 149/3/6 152/3/6 159/3/6
f 159/3/6 153/3/6 160/3/6
f 143/3/6 156/3/6 161/3/6
f 156/1/6 157/1/6 162/1/6
f 161/3/6 156/3/6 162/3/6
f 157/3/6 158/3/6 163/3/6
f 158/3/6 159/3/6 163/3/6
f 159/2/6 160/2/6 164/2/6
f 163/3/6 159/3/6 164/3/6
f 162/1/6 157/1/6 165/1/6
f 161/1/6 162/1/6 165/1/6
f 157/3/6 163/3/6 166/3/6
f 165/1/6 157/1/6 166/1/6
f 165/3/6 166/3/6 167/3/6
f 166/3/6 163/3/6 167/3/6
f 167/3/6 163/3/6 168/3/6
f 163/2/6 164/2/6 169/2/6
f 168/3/6 163/3/6 169/3/6
f 169/2/6 164/2/6 170/2/6
f 143/3/6 161/3/6 171/3/6
f 161/1/6 165/1/6 171/1/6
f 165/3/6 167/3/6 172/3/6
f 171/1/6 165/1/6 172/1/6
f 167/2/6 168/2/6 173/2/6
f 172/3/6 167/3/6 173/3/6
f 169/3/6 170/3/6 174/3/6
f 173/2/6 168/2/6 174/2/6
f 168/3/6 169/3/6 174/3/6
f 170/2/6 164/2/6 175/2/6
f 174/3/6 170/3/6 175/3/6
f 164/2/6 160/2/6 176/2/6
f 175/2/6 164/2/6 176/2/6
f 173/3/6 174/3/6 177/3/6
f 174/3/6 175/3/6 177/3/6
f 171/3/6 172/3/6 177/3/6
f 143/3/6 171/3/6 177/3/6
f 172/3/6 173/3/6 177/3/6
f 177/3/6 175/3/6 178/3/6
f 176/2/6 160/2/6 179/2/6
f 175/1/6 176/1/6 179/1/6
f 160/3/6 153/3/6 180/3/6
f 179/2/6 160/2/6 180/2/6
f 178/3/6 175/3/6 181/3/6
f 181/3/6 175/3/6 182/3/6
f 178/3/6 181/3/6 183/3/6
f 181/2/6 182/2/6 184/2/6
f 183/3/6 181/3/6 184/3/6
f 178/3/6 183/3/6 185/3/6
f 183/2/6 184/2/6 186/2/6
f 185/3/6 183/3/6 186/3/6
f 182/3/6 175/3/6 187/3/6
f 175/1/6 179/1/6 188/1/6
f 187/3/6 175/3/6 188/3/6
f 186/2/6 184/2/6 189/2/6
f 184/2/6 182/2/6 189/2/6
f 185/2/6 186/2/6 189/2/6
f 182/3/6 187/3/6 190/3/6
f 189/2/6 182/2/6 190/2/6
f 188/1/6 179/1/6 191/1/6
f 187/1/6 188/1/6 191/1/6
f 179/3/6 180/3/6 192/3/6
f 191/1/6 179/1/6 192/1/6
f 185/2/6 189/2/6 193/2/6
f 178/3/6 185/3/6 193/3/6
f 193/2/6 189/2/6 194/2/6
f 187/1/6 191/1/6 195/1/6
f 191/3/6 192/3/6 195/3/6
f 192/3/6 180/3/6 196/3/6
f 195/3/6 192/3/6 196/3/6
f 180/3/6 153/3/6 197/3/6
f 196/3/6 180/3/6 197/3/6
f 193/3/6 194/3/6 198/3/6
f 178/3/6 193/3/6 198/3/6
f 194/2/6 189/2/6 199/2/6
f 198/3/6 194/3/6 199/3/6
f 195/1/6 196/1/6 200/1/6
f 187/1/6 195/1/6 200/1/6
f 190/3/6 187/3/6 200/3/6
f 189/3/6 190/3/6 200/3/6
f 196/2/6 197/2/6 201/2/6
f 200/1/6 196/1/6 201/1/6
f 197/3/6 153/3/6 202/3/6
f 201/2/6 197/2/6 202/2/6
f 202/3/6 153/3/6 203/3/6
f 200/3/6 201/3/6 204/3/6
f 201/2/6 202/2/6 204/2/6
f 202/2/6 203/2/6 204/2/6
f 204/2/6 203/2/6 205/2/6
f 205/2/6 203/2/6 206/2/6
f 177/1/6 178/1/6 207/1/6
f 178/3/6 198/3/6 208/3/6
f 207/1/6 178/1/6 208/1/6
f 199/2/6 189/2/6 209/2/6
f 198/1/6 199/1/6 209/1/6
f 189/3/6 200/3/6 210/3/6
f 209/2/6 189/2/6 210/2/6
f 200/3/6 204/3/6 210/3/6
f 210/3/6 204/3/6 211/3/6
f 211/3/6 204/3/6 212/3/6
f 204/1/6 205/1/6 213/1/6
f 212/3/6 204/3/6 213/3/6
f 207/3/6 208/3/6 214/3/6
f 208/3/6 198/3/6 215/3/6
f 214/3/6 208/3/6 215/3/6
f 198/1/6 209/1/6 215/1/6
f 209/3/6 210/3/6 216/3/6
f 215/1/6 209/1/6 216/1/6
f 210/2/6 211/2/6 217/2/6
f 216/3/6 210/3/6 217/3/6
f 211/3/6 212/3/6 218/3/6
f 217/2/6 211/2/6 218/2/6
f 212/2/6 213/2/6 219/2/6
f 218/3/6 212/3/6 219/3/6
f 213/1/6 205/1/6 220/1/6
f 219/2/6 213/2/6 220/2/6
f 205/3/6 206/3/6 221/3/6
f 220/1/6 205/1/6 221/1/6
f 221/3/6 206/3/6 222/3/6
