# MagicaVoxel @ Ephtracy

# group
o Tent - Cloth

# material
mtllib Medieval Assets-166-Tent - Cloth.mtl
usemtl palette

# normals
vn -1 0 0
vn 1 0 0
vn 0 0 1
vn 0 0 -1
vn 0 -1 0
vn 0 1 0

# texcoords
vt 0.173828 0.5
vt 0.177734 0.5
vt 0.181641 0.5
vt 0.185547 0.5
vt 0.201172 0.5

# verts
v 11 0 -1.8
v 11 0 -2
v 11 0 -2.1
v 11 0 -2.3
v 11 0 -2.4
v 11 0 -2.7
v 11 0.1 -1.8
v 11 0.1 -2
v 11 0.1 -2.1
v 11 0.1 -2.3
v 11 0.1 -2.4
v 11 0.1 -2.7
v 11.1 0 -2
v 11.1 0 -2.1
v 11.1 0 -2.3
v 11.1 0 -2.4
v 11.1 0 -2.7
v 11.1 0 -2.8
v 11.1 0.1 -2
v 11.1 0.1 -2.1
v 11.1 0.1 -2.3
v 11.1 0.1 -2.4
v 11.1 0.1 -2.7
v 11.1 0.1 -2.8
v 11.4 0 -2.7
v 11.4 0 -2.8
v 11.4 0.1 -2.7
v 11.4 0.1 -2.8
v 11.6 0 -1.8
v 11.6 0 -1.9
v 11.6 0 -2.7
v 11.6 0 -2.8
v 11.6 0.1 -1.8
v 11.6 0.1 -1.9
v 11.6 0.1 -2.7
v 11.6 0.1 -2.8
v 11.3 0 -2.7
v 11.3 0 -2.8
v 11.3 0.1 -2.7
v 11.3 0.1 -2.8
v 11.5 0 -1.8
v 11.5 0 -1.9
v 11.5 0 -2.7
v 11.5 0 -2.8
v 11.5 0.1 -1.8
v 11.5 0.1 -1.9
v 11.5 0.1 -2.7
v 11.5 0.1 -2.8
v 11.9 0 -2.1
v 11.9 0 -2.2
v 11.9 0 -2.3
v 11.9 0 -2.4
v 11.9 0 -2.5
v 11.9 0 -2.7
v 11.9 0 -2.8
v 11.9 0.1 -2.1
v 11.9 0.1 -2.2
v 11.9 0.1 -2.3
v 11.9 0.1 -2.4
v 11.9 0.1 -2.5
v 11.9 0.1 -2.7
v 11.9 0.1 -2.8
v 12 0 -1.8
v 12 0 -2.1
v 12 0 -2.3
v 12 0 -2.4
v 12 0 -2.5
v 12 0 -2.6
v 12 0 -2.7
v 12 0.1 -1.8
v 12 0.1 -2.1
v 12 0.1 -2.3
v 12 0.1 -2.4
v 12 0.1 -2.5
v 12 0.1 -2.6
v 12 0.1 -2.7
v 11 0 -1.8
v 11 0.1 -1.8
v 11.1 0 -1.8
v 11.1 0.1 -1.8
v 11.2 0 -1.8
v 11.2 0.1 -1.8
v 11.4 0 -1.8
v 11.4 0.1 -1.8
v 11.5 0 -1.8
v 11.5 0.1 -1.8
v 11.6 0 -1.8
v 11.6 0.1 -1.8
v 11.7 0 -1.8
v 11.7 0.1 -1.8
v 11.8 0 -1.8
v 11.8 0.1 -1.8
v 11.9 0 -1.8
v 11.9 0.1 -1.8
v 12 0 -1.8
v 12 0.1 -1.8
v 11.5 0 -1.9
v 11.5 0.1 -1.9
v 11.6 0 -1.9
v 11.6 0.1 -1.9
v 11 0 -2.1
v 11 0.1 -2.1
v 11.1 0 -2.1
v 11.1 0.1 -2.1
v 11.9 0 -2.3
v 11.9 0.1 -2.3
v 12 0 -2.3
v 12 0.1 -2.3
v 11 0 -2.4
v 11 0.1 -2.4
v 11.1 0 -2.4
v 11.1 0.1 -2.4
v 11.9 0 -2.5
v 11.9 0.1 -2.5
v 12 0 -2.5
v 12 0.1 -2.5
v 11 0 -2
v 11 0.1 -2
v 11.1 0 -2
v 11.1 0.1 -2
v 11.9 0 -2.1
v 11.9 0.1 -2.1
v 12 0 -2.1
v 12 0.1 -2.1
v 11 0 -2.3
v 11 0.1 -2.3
v 11.1 0 -2.3
v 11.1 0.1 -2.3
v 11.9 0 -2.4
v 11.9 0.1 -2.4
v 12 0 -2.4
v 12 0.1 -2.4
v 11 0 -2.7
v 11 0.1 -2.7
v 11.1 0 -2.7
v 11.1 0.1 -2.7
v 11.3 0 -2.7
v 11.3 0.1 -2.7
v 11.4 0 -2.7
v 11.4 0.1 -2.7
v 11.5 0 -2.7
v 11.5 0.1 -2.7
v 11.6 0 -2.7
v 11.6 0.1 -2.7
v 11.9 0 -2.7
v 11.9 0.1 -2.7
v 12 0 -2.7
v 12 0.1 -2.7
v 11.1 0 -2.8
v 11.1 0.1 -2.8
v 11.3 0 -2.8
v 11.3 0.1 -2.8
v 11.4 0 -2.8
v 11.4 0.1 -2.8
v 11.5 0 -2.8
v 11.5 0.1 -2.8
v 11.6 0 -2.8
v 11.6 0.1 -2.8
v 11.9 0 -2.8
v 11.9 0.1 -2.8
v 11 0 -1.8
v 11.1 0 -1.8
v 11.2 0 -1.8
v 11.4 0 -1.8
v 11.5 0 -1.8
v 11.6 0 -1.8
v 11.7 0 -1.8
v 11.8 0 -1.8
v 11.9 0 -1.8
v 12 0 -1.8
v 11.4 0 -1.9
v 11.5 0 -1.9
v 11.6 0 -1.9
v 11.7 0 -1.9
v 11 0 -2
v 11.1 0 -2
v 11.2 0 -2
v 11.4 0 -2
v 11.6 0 -2
v 11.8 0 -2
v 11.9 0 -2
v 11 0 -2.1
v 11.1 0 -2.1
v 11.3 0 -2.1
v 11.5 0 -2.1
v 11.7 0 -2.1
v 11.9 0 -2.1
v 12 0 -2.1
v 11.3 0 -2.2
v 11.5 0 -2.2
v 11.6 0 -2.2
v 11.7 0 -2.2
v 11.8 0 -2.2
v 11.9 0 -2.2
v 11 0 -2.3
v 11.1 0 -2.3
v 11.3 0 -2.3
v 11.4 0 -2.3
v 11.5 0 -2.3
v 11.6 0 -2.3
v 11.8 0 -2.3
v 11.9 0 -2.3
v 12 0 -2.3
v 11 0 -2.4
v 11.1 0 -2.4
v 11.2 0 -2.4
v 11.4 0 -2.4
v 11.5 0 -2.4
v 11.6 0 -2.4
v 11.7 0 -2.4
v 11.9 0 -2.4
v 12 0 -2.4
v 11.3 0 -2.5
v 11.5 0 -2.5
v 11.6 0 -2.5
v 11.7 0 -2.5
v 11.9 0 -2.5
v 12 0 -2.5
v 11.3 0 -2.6
v 11.5 0 -2.6
v 11.6 0 -2.6
v 11.7 0 -2.6
v 11.9 0 -2.6
v 12 0 -2.6
v 11 0 -2.7
v 11.1 0 -2.7
v 11.2 0 -2.7
v 11.3 0 -2.7
v 11.4 0 -2.7
v 11.5 0 -2.7
v 11.6 0 -2.7
v 11.7 0 -2.7
v 11.9 0 -2.7
v 12 0 -2.7
v 11.1 0 -2.8
v 11.3 0 -2.8
v 11.4 0 -2.8
v 11.5 0 -2.8
v 11.6 0 -2.8
v 11.9 0 -2.8
v 11 0.1 -1.8
v 11.1 0.1 -1.8
v 11.2 0.1 -1.8
v 11.4 0.1 -1.8
v 11.5 0.1 -1.8
v 11.6 0.1 -1.8
v 11.7 0.1 -1.8
v 11.8 0.1 -1.8
v 11.9 0.1 -1.8
v 12 0.1 -1.8
v 11.4 0.1 -1.9
v 11.5 0.1 -1.9
v 11.6 0.1 -1.9
v 11.7 0.1 -1.9
v 11 0.1 -2
v 11.1 0.1 -2
v 11.2 0.1 -2
v 11.4 0.1 -2
v 11.6 0.1 -2
v 11.8 0.1 -2
v 11.9 0.1 -2
v 11 0.1 -2.1
v 11.1 0.1 -2.1
v 11.3 0.1 -2.1
v 11.5 0.1 -2.1
v 11.7 0.1 -2.1
v 11.9 0.1 -2.1
v 12 0.1 -2.1
v 11.3 0.1 -2.2
v 11.5 0.1 -2.2
v 11.6 0.1 -2.2
v 11.7 0.1 -2.2
v 11.8 0.1 -2.2
v 11.9 0.1 -2.2
v 11 0.1 -2.3
v 11.1 0.1 -2.3
v 11.3 0.1 -2.3
v 11.4 0.1 -2.3
v 11.5 0.1 -2.3
v 11.6 0.1 -2.3
v 11.8 0.1 -2.3
v 11.9 0.1 -2.3
v 12 0.1 -2.3
v 11 0.1 -2.4
v 11.1 0.1 -2.4
v 11.2 0.1 -2.4
v 11.4 0.1 -2.4
v 11.5 0.1 -2.4
v 11.6 0.1 -2.4
v 11.7 0.1 -2.4
v 11.9 0.1 -2.4
v 12 0.1 -2.4
v 11.3 0.1 -2.5
v 11.5 0.1 -2.5
v 11.6 0.1 -2.5
v 11.7 0.1 -2.5
v 11.9 0.1 -2.5
v 12 0.1 -2.5
v 11.3 0.1 -2.6
v 11.5 0.1 -2.6
v 11.6 0.1 -2.6
v 11.7 0.1 -2.6
v 11.9 0.1 -2.6
v 12 0.1 -2.6
v 11 0.1 -2.7
v 11.1 0.1 -2.7
v 11.2 0.1 -2.7
v 11.3 0.1 -2.7
v 11.4 0.1 -2.7
v 11.5 0.1 -2.7
v 11.6 0.1 -2.7
v 11.7 0.1 -2.7
v 11.9 0.1 -2.7
v 12 0.1 -2.7
v 11.1 0.1 -2.8
v 11.3 0.1 -2.8
v 11.4 0.1 -2.8
v 11.5 0.1 -2.8
v 11.6 0.1 -2.8
v 11.9 0.1 -2.8

# faces
f 7/4/1 2/4/1 1/4/1
f 8/4/1 2/4/1 7/4/1
f 9/3/1 4/3/1 3/3/1
f 10/3/1 4/3/1 9/3/1
f 11/4/1 6/4/1 5/4/1
f 12/4/1 6/4/1 11/4/1
f 19/3/1 14/3/1 13/3/1
f 20/3/1 14/3/1 19/3/1
f 21/3/1 16/3/1 15/3/1
f 22/3/1 16/3/1 21/3/1
f 23/3/1 18/3/1 17/3/1
f 24/3/1 18/3/1 23/3/1
f 27/3/1 26/3/1 25/3/1
f 28/3/1 26/3/1 27/3/1
f 33/4/1 30/4/1 29/4/1
f 34/4/1 30/4/1 33/4/1
f 35/2/1 32/2/1 31/2/1
f 36/2/1 32/2/1 35/2/1
f 37/3/2 38/3/2 39/3/2
f 39/3/2 38/3/2 40/3/2
f 41/3/2 42/3/2 45/3/2
f 45/3/2 42/3/2 46/3/2
f 43/3/2 44/3/2 47/3/2
f 47/3/2 44/3/2 48/3/2
f 49/3/2 50/3/2 56/3/2
f 50/1/2 51/1/2 57/1/2
f 56/3/2 50/3/2 57/3/2
f 57/1/2 51/1/2 58/1/2
f 52/3/2 53/3/2 59/3/2
f 59/3/2 53/3/2 60/3/2
f 54/2/2 55/2/2 61/2/2
f 61/2/2 55/2/2 62/2/2
f 63/3/2 64/3/2 70/3/2
f 70/3/2 64/3/2 71/3/2
f 65/3/2 66/3/2 72/3/2
f 72/3/2 66/3/2 73/3/2
f 67/3/2 68/3/2 74/3/2
f 68/2/2 69/2/2 75/2/2
f 74/3/2 68/3/2 75/3/2
f 75/2/2 69/2/2 76/2/2
f 79/4/3 78/4/3 77/4/3
f 80/4/3 78/4/3 79/4/3
f 81/3/3 80/3/3 79/3/3
f 82/3/3 80/3/3 81/3/3
f 83/4/3 82/4/3 81/4/3
f 84/4/3 82/4/3 83/4/3
f 85/3/3 84/3/3 83/3/3
f 86/3/3 84/3/3 85/3/3
f 89/4/3 88/4/3 87/4/3
f 90/4/3 88/4/3 89/4/3
f 91/3/3 90/3/3 89/3/3
f 92/3/3 90/3/3 91/3/3
f 93/4/3 92/4/3 91/4/3
f 94/4/3 92/4/3 93/4/3
f 95/3/3 94/3/3 93/3/3
f 96/3/3 94/3/3 95/3/3
f 99/1/3 98/1/3 97/1/3
f 100/1/3 98/1/3 99/1/3
f 103/3/3 102/3/3 101/3/3
f 104/3/3 102/3/3 103/3/3
f 107/3/3 106/3/3 105/3/3
f 108/3/3 106/3/3 107/3/3
f 111/4/3 110/4/3 109/4/3
f 112/4/3 110/4/3 111/4/3
f 115/3/3 114/3/3 113/3/3
f 116/3/3 114/3/3 115/3/3
f 117/4/4 118/4/4 119/4/4
f 119/4/4 118/4/4 120/4/4
f 121/3/4 122/3/4 123/3/4
f 123/3/4 122/3/4 124/3/4
f 125/3/4 126/3/4 127/3/4
f 127/3/4 126/3/4 128/3/4
f 129/3/4 130/3/4 131/3/4
f 131/3/4 130/3/4 132/3/4
f 133/4/4 134/4/4 135/4/4
f 135/4/4 134/4/4 136/4/4
f 137/3/4 138/3/4 139/3/4
f 139/3/4 138/3/4 140/3/4
f 141/3/4 142/3/4 143/3/4
f 143/3/4 142/3/4 144/3/4
f 145/2/4 146/2/4 147/2/4
f 147/2/4 146/2/4 148/2/4
f 149/3/4 150/3/4 151/3/4
f 151/3/4 150/3/4 152/3/4
f 153/3/4 154/3/4 155/3/4
f 155/3/4 154/3/4 156/3/4
f 157/2/4 158/2/4 159/2/4
f 159/2/4 158/2/4 160/2/4
f 171/4/5 164/4/5 163/4/5
f 171/3/5 165/3/5 164/3/5
f 172/3/5 165/3/5 171/3/5
f 173/4/5 167/4/5 166/4/5
f 174/3/5 168/3/5 167/3/5
f 174/4/5 167/4/5 173/4/5
f 175/4/5 162/4/5 161/4/5
f 176/3/5 163/3/5 162/3/5
f 176/4/5 162/4/5 175/4/5
f 177/4/5 171/4/5 163/4/5
f 177/3/5 163/3/5 176/3/5
f 178/1/5 172/1/5 171/1/5
f 178/4/5 171/4/5 177/4/5
f 178/1/5 173/1/5 172/1/5
f 179/3/5 174/3/5 173/3/5
f 179/1/5 173/1/5 178/1/5
f 180/3/5 168/3/5 174/3/5
f 180/3/5 174/3/5 179/3/5
f 180/4/5 169/4/5 168/4/5
f 181/3/5 170/3/5 169/3/5
f 181/4/5 169/4/5 180/4/5
f 183/3/5 179/3/5 178/3/5
f 183/3/5 181/3/5 180/3/5
f 183/3/5 180/3/5 179/3/5
f 183/3/5 178/3/5 177/3/5
f 183/3/5 177/3/5 176/3/5
f 184/3/5 181/3/5 183/3/5
f 185/3/5 181/3/5 184/3/5
f 186/3/5 181/3/5 185/3/5
f 187/3/5 170/3/5 181/3/5
f 187/3/5 181/3/5 186/3/5
f 188/3/5 170/3/5 187/3/5
f 189/4/5 184/4/5 183/4/5
f 189/3/5 185/3/5 184/3/5
f 190/4/5 186/4/5 185/4/5
f 190/3/5 185/3/5 189/3/5
f 191/4/5 186/4/5 190/4/5
f 192/3/5 187/3/5 186/3/5
f 192/4/5 186/4/5 191/4/5
f 193/3/5 187/3/5 192/3/5
f 194/3/5 187/3/5 193/3/5
f 195/3/5 183/3/5 182/3/5
f 196/4/5 189/4/5 183/4/5
f 196/3/5 183/3/5 195/3/5
f 197/2/5 190/2/5 189/2/5
f 197/4/5 189/4/5 196/4/5
f 198/2/5 190/2/5 197/2/5
f 199/4/5 191/4/5 190/4/5
f 199/2/5 190/2/5 198/2/5
f 200/3/5 192/3/5 191/3/5
f 200/4/5 191/4/5 199/4/5
f 200/3/5 193/3/5 192/3/5
f 201/1/5 194/1/5 193/1/5
f 201/3/5 193/3/5 200/3/5
f 202/1/5 194/1/5 201/1/5
f 205/3/5 198/3/5 197/3/5
f 205/3/5 197/3/5 196/3/5
f 206/3/5 198/3/5 205/3/5
f 207/4/5 199/4/5 198/4/5
f 207/3/5 198/3/5 206/3/5
f 208/3/5 202/3/5 201/3/5
f 208/4/5 199/4/5 207/4/5
f 208/3/5 201/3/5 200/3/5
f 208/3/5 203/3/5 202/3/5
f 208/3/5 200/3/5 199/3/5
f 209/3/5 203/3/5 208/3/5
f 210/3/5 203/3/5 209/3/5
f 211/3/5 203/3/5 210/3/5
f 212/3/5 203/3/5 211/3/5
f 213/3/5 207/3/5 206/3/5
f 213/3/5 208/3/5 207/3/5
f 213/3/5 209/3/5 208/3/5
f 214/3/5 209/3/5 213/3/5
f 215/2/5 210/2/5 209/2/5
f 215/3/5 209/3/5 214/3/5
f 216/3/5 211/3/5 210/3/5
f 216/2/5 210/2/5 215/2/5
f 217/3/5 211/3/5 216/3/5
f 219/1/5 214/1/5 213/1/5
f 219/3/5 213/3/5 206/3/5
f 220/5/5 215/5/5 214/5/5
f 220/1/5 214/1/5 219/1/5
f 221/4/5 217/4/5 216/4/5
f 221/5/5 215/5/5 220/5/5
f 221/4/5 216/4/5 215/4/5
f 222/4/5 217/4/5 221/4/5
f 223/3/5 218/3/5 217/3/5
f 223/4/5 217/4/5 222/4/5
f 224/3/5 218/3/5 223/3/5
f 225/4/5 205/4/5 204/4/5
f 225/4/5 206/4/5 205/4/5
f 226/4/5 206/4/5 225/4/5
f 227/3/5 219/3/5 206/3/5
f 227/4/5 206/4/5 226/4/5
f 227/3/5 220/3/5 219/3/5
f 227/3/5 221/3/5 220/3/5
f 228/3/5 221/3/5 227/3/5
f 229/3/5 221/3/5 228/3/5
f 230/3/5 221/3/5 229/3/5
f 231/2/5 222/2/5 221/2/5
f 231/3/5 221/3/5 230/3/5
f 232/4/5 223/4/5 222/4/5
f 232/2/5 222/2/5 231/2/5
f 233/2/5 224/2/5 223/2/5
f 233/4/5 223/4/5 232/4/5
f 234/2/5 224/2/5 233/2/5
f 235/3/5 227/3/5 226/3/5
f 235/3/5 228/3/5 227/3/5
f 236/3/5 228/3/5 235/3/5
f 237/3/5 230/3/5 229/3/5
f 238/3/5 230/3/5 237/3/5
f 239/2/5 232/2/5 231/2/5
f 239/2/5 233/2/5 232/2/5
f 240/2/5 233/2/5 239/2/5
f 243/4/6 244/4/6 251/4/6
f 244/3/6 245/3/6 251/3/6
f 251/3/6 245/3/6 252/3/6
f 246/4/6 247/4/6 253/4/6
f 247/3/6 248/3/6 254/3/6
f 253/4/6 247/4/6 254/4/6
f 241/4/6 242/4/6 255/4/6
f 242/3/6 243/3/6 256/3/6
f 255/4/6 242/4/6 256/4/6
f 243/4/6 251/4/6 257/4/6
f 256/3/6 243/3/6 257/3/6
f 251/1/6 252/1/6 258/1/6
f 257/4/6 251/4/6 258/4/6
f 252/1/6 253/1/6 258/1/6
f 253/3/6 254/3/6 259/3/6
f 258/1/6 253/1/6 259/1/6
f 254/3/6 248/3/6 260/3/6
f 259/3/6 254/3/6 260/3/6
f 248/4/6 249/4/6 260/4/6
f 249/3/6 250/3/6 261/3/6
f 260/4/6 249/4/6 261/4/6
f 258/3/6 259/3/6 263/3/6
f 260/3/6 261/3/6 263/3/6
f 259/3/6 260/3/6 263/3/6
f 257/3/6 258/3/6 263/3/6
f 256/3/6 257/3/6 263/3/6
f 263/3/6 261/3/6 264/3/6
f 264/3/6 261/3/6 265/3/6
f 265/3/6 261/3/6 266/3/6
f 261/3/6 250/3/6 267/3/6
f 266/3/6 261/3/6 267/3/6
f 267/3/6 250/3/6 268/3/6
f 263/4/6 264/4/6 269/4/6
f 264/3/6 265/3/6 269/3/6
f 265/4/6 266/4/6 270/4/6
f 269/3/6 265/3/6 270/3/6
f 270/4/6 266/4/6 271/4/6
f 266/3/6 267/3/6 272/3/6
f 271/4/6 266/4/6 272/4/6
f 272/3/6 267/3/6 273/3/6
f 273/3/6 267/3/6 274/3/6
f 262/3/6 263/3/6 275/3/6
f 263/4/6 269/4/6 276/4/6
f 275/3/6 263/3/6 276/3/6
f 269/2/6 270/2/6 277/2/6
f 276/4/6 269/4/6 277/4/6
f 277/2/6 270/2/6 278/2/6
f 270/4/6 271/4/6 279/4/6
f 278/2/6 270/2/6 279/2/6
f 271/3/6 272/3/6 280/3/6
f 279/4/6 271/4/6 280/4/6
f 272/3/6 273/3/6 280/3/6
f 273/1/6 274/1/6 281/1/6
f 280/3/6 273/3/6 281/3/6
f 281/1/6 274/1/6 282/1/6
f 277/3/6 278/3/6 285/3/6
f 276/3/6 277/3/6 285/3/6
f 285/3/6 278/3/6 286/3/6
f 278/4/6 279/4/6 287/4/6
f 286/3/6 278/3/6 287/3/6
f 281/3/6 282/3/6 288/3/6
f 287/4/6 279/4/6 288/4/6
f 280/3/6 281/3/6 288/3/6
f 282/3/6 283/3/6 288/3/6
f 279/3/6 280/3/6 288/3/6
f 288/3/6 283/3/6 289/3/6
f 289/3/6 283/3/6 290/3/6
f 290/3/6 283/3/6 291/3/6
f 291/3/6 283/3/6 292/3/6
f 286/3/6 287/3/6 293/3/6
f 287/3/6 288/3/6 293/3/6
f 288/3/6 289/3/6 293/3/6
f 293/3/6 289/3/6 294/3/6
f 289/2/6 290/2/6 295/2/6
f 294/3/6 289/3/6 295/3/6
f 290/3/6 291/3/6 296/3/6
f 295/2/6 290/2/6 296/2/6
f 296/3/6 291/3/6 297/3/6
f 293/1/6 294/1/6 299/1/6
f 286/3/6 293/3/6 299/3/6
f 294/5/6 295/5/6 300/5/6
f 299/1/6 294/1/6 300/1/6
f 296/4/6 297/4/6 301/4/6
f 300/5/6 295/5/6 301/5/6
f 295/4/6 296/4/6 301/4/6
f 301/4/6 297/4/6 302/4/6
f 297/3/6 298/3/6 303/3/6
f 302/4/6 297/4/6 303/4/6
f 303/3/6 298/3/6 304/3/6
f 284/4/6 285/4/6 305/4/6
f 285/4/6 286/4/6 305/4/6
f 305/4/6 286/4/6 306/4/6
f 286/3/6 299/3/6 307/3/6
f 306/4/6 286/4/6 307/4/6
f 299/3/6 300/3/6 307/3/6
f 300/3/6 301/3/6 307/3/6
f 307/3/6 301/3/6 308/3/6
f 308/3/6 301/3/6 309/3/6
f 309/3/6 301/3/6 310/3/6
f 301/2/6 302/2/6 311/2/6
f 310/3/6 301/3/6 311/3/6
f 302/4/6 303/4/6 312/4/6
f 311/2/6 302/2/6 312/2/6
f 303/2/6 304/2/6 313/2/6
f 312/4/6 303/4/6 313/4/6
f 313/2/6 304/2/6 314/2/6
f 306/3/6 307/3/6 315/3/6
f 307/3/6 308/3/6 315/3/6
f 315/3/6 308/3/6 316/3/6
f 309/3/6 310/3/6 317/3/6
f 317/3/6 310/3/6 318/3/6
f 311/2/6 312/2/6 319/2/6
f 312/2/6 313/2/6 319/2/6
f 319/2/6 313/2/6 320/2/6
