# MagicaVoxel @ Ephtracy

# group
o Crafting - Table - Runecraft

# material
mtllib Medieval Assets-211-Crafting - Table - Runecraft.mtl
usemtl palette

# normals
vn -1 0 0
vn 1 0 0
vn 0 0 1
vn 0 0 -1
vn 0 -1 0
vn 0 1 0

# texcoords
vt 0.0292969 0.5
vt 0.0527344 0.5
vt 0.0761719 0.5
vt 0.0800781 0.5
vt 0.0878906 0.5
vt 0.119141 0.5
vt 0.123047 0.5

# verts
v -3 0.8 -9.6
v -3 0.8 -9.7
v -3 0.9 -9.6
v -3 0.9 -9.7
v -2.9 0.8 -9.5
v -2.9 0.8 -9.6
v -2.9 0.8 -9.7
v -2.9 0.8 -9.8
v -2.9 0.9 -9.5
v -2.9 0.9 -9.6
v -2.9 0.9 -9.7
v -2.9 0.9 -9.8
v -2.7 0.8 -9.3
v -2.7 0.8 -9.4
v -2.7 0.9 -9.3
v -2.7 0.9 -9.4
v -2.6 0.8 -9.4
v -2.6 0.8 -9.5
v -2.6 0.9 -9.4
v -2.6 0.9 -9.5
v -2.5 0.8 -9.5
v -2.5 0.8 -9.6
v -2.5 0.9 -9.5
v -2.5 0.9 -9.6
v -2.1 0.8 -9.1
v -2.1 0.8 -9.2
v -2.1 0.8 -9.4
v -2.1 0.8 -9.5
v -2.1 0.9 -9.1
v -2.1 0.9 -9.2
v -2.1 0.9 -9.4
v -2.1 0.9 -9.5
v -2 0.8 -9
v -2 0.8 -9.1
v -2 0.8 -9.2
v -2 0.8 -9.4
v -2 0.8 -9.5
v -2 0.8 -9.6
v -2 0.9 -9
v -2 0.9 -9.1
v -2 0.9 -9.2
v -2 0.9 -9.4
v -2 0.9 -9.5
v -2 0.9 -9.6
v -2.8 0.8 -9.5
v -2.8 0.8 -9.6
v -2.8 0.8 -9.7
v -2.8 0.8 -9.8
v -2.8 0.9 -9.5
v -2.8 0.9 -9.6
v -2.8 0.9 -9.7
v -2.8 0.9 -9.8
v -2.7 0.8 -9.6
v -2.7 0.8 -9.7
v -2.7 0.9 -9.6
v -2.7 0.9 -9.7
v -2.4 0.8 -9.5
v -2.4 0.8 -9.6
v -2.4 0.9 -9.5
v -2.4 0.9 -9.6
v -2.3 0.8 -9.4
v -2.3 0.8 -9.5
v -2.3 0.9 -9.4
v -2.3 0.9 -9.5
v -2.2 0.8 -9.3
v -2.2 0.8 -9.4
v -2.2 0.9 -9.3
v -2.2 0.9 -9.4
v -1.9 0.8 -9
v -1.9 0.8 -9.1
v -1.9 0.8 -9.2
v -1.9 0.8 -9.4
v -1.9 0.8 -9.5
v -1.9 0.8 -9.6
v -1.9 0.9 -9
v -1.9 0.9 -9.1
v -1.9 0.9 -9.2
v -1.9 0.9 -9.4
v -1.9 0.9 -9.5
v -1.9 0.9 -9.6
v -1.8 0.8 -9.1
v -1.8 0.8 -9.2
v -1.8 0.8 -9.4
v -1.8 0.8 -9.5
v -1.8 0.9 -9.1
v -1.8 0.9 -9.2
v -1.8 0.9 -9.4
v -1.8 0.9 -9.5
v -2 0.8 -9
v -2 0.9 -9
v -1.9 0.8 -9
v -1.9 0.9 -9
v -2.1 0.8 -9.1
v -2.1 0.9 -9.1
v -2 0.8 -9.1
v -2 0.9 -9.1
v -1.9 0.8 -9.1
v -1.9 0.9 -9.1
v -1.8 0.8 -9.1
v -1.8 0.9 -9.1
v -2.7 0.8 -9.3
v -2.7 0.9 -9.3
v -2.6 0.8 -9.3
v -2.6 0.9 -9.3
v -2.3 0.8 -9.3
v -2.3 0.9 -9.3
v -2.2 0.8 -9.3
v -2.2 0.9 -9.3
v -2.1 0.8 -9.4
v -2.1 0.9 -9.4
v -2 0.8 -9.4
v -2 0.9 -9.4
v -1.9 0.8 -9.4
v -1.9 0.9 -9.4
v -1.8 0.8 -9.4
v -1.8 0.9 -9.4
v -2.9 0.8 -9.5
v -2.9 0.9 -9.5
v -2.8 0.8 -9.5
v -2.8 0.9 -9.5
v -3 0.8 -9.6
v -3 0.9 -9.6
v -2.9 0.8 -9.6
v -2.9 0.9 -9.6
v -2.8 0.8 -9.6
v -2.8 0.9 -9.6
v -2.7 0.8 -9.6
v -2.7 0.9 -9.6
v -2.1 0.8 -9.2
v -2.1 0.9 -9.2
v -2 0.8 -9.2
v -2 0.9 -9.2
v -1.9 0.8 -9.2
v -1.9 0.9 -9.2
v -1.8 0.8 -9.2
v -1.8 0.9 -9.2
v -2.7 0.8 -9.4
v -2.7 0.9 -9.4
v -2.6 0.8 -9.4
v -2.6 0.9 -9.4
v -2.3 0.8 -9.4
v -2.3 0.9 -9.4
v -2.2 0.8 -9.4
v -2.2 0.9 -9.4
v -2.6 0.8 -9.5
v -2.6 0.9 -9.5
v -2.5 0.8 -9.5
v -2.5 0.9 -9.5
v -2.4 0.8 -9.5
v -2.4 0.9 -9.5
v -2.3 0.8 -9.5
v -2.3 0.9 -9.5
v -2.1 0.8 -9.5
v -2.1 0.9 -9.5
v -2 0.8 -9.5
v -2 0.9 -9.5
v -1.9 0.8 -9.5
v -1.9 0.9 -9.5
v -1.8 0.8 -9.5
v -1.8 0.9 -9.5
v -2.5 0.8 -9.6
v -2.5 0.9 -9.6
v -2.4 0.8 -9.6
v -2.4 0.9 -9.6
v -2 0.8 -9.6
v -2 0.9 -9.6
v -1.9 0.8 -9.6
v -1.9 0.9 -9.6
v -3 0.8 -9.7
v -3 0.9 -9.7
v -2.9 0.8 -9.7
v -2.9 0.9 -9.7
v -2.8 0.8 -9.7
v -2.8 0.9 -9.7
v -2.7 0.8 -9.7
v -2.7 0.9 -9.7
v -2.9 0.8 -9.8
v -2.9 0.9 -9.8
v -2.8 0.8 -9.8
v -2.8 0.9 -9.8
v -2 0.8 -9
v -1.9 0.8 -9
v -2.1 0.8 -9.1
v -2 0.8 -9.1
v -1.9 0.8 -9.1
v -1.8 0.8 -9.1
v -2.1 0.8 -9.2
v -2 0.8 -9.2
v -1.9 0.8 -9.2
v -1.8 0.8 -9.2
v -2.7 0.8 -9.3
v -2.6 0.8 -9.3
v -2.3 0.8 -9.3
v -2.2 0.8 -9.3
v -2.7 0.8 -9.4
v -2.6 0.8 -9.4
v -2.3 0.8 -9.4
v -2.2 0.8 -9.4
v -2.1 0.8 -9.4
v -2 0.8 -9.4
v -1.9 0.8 -9.4
v -1.8 0.8 -9.4
v -2.9 0.8 -9.5
v -2.8 0.8 -9.5
v -2.6 0.8 -9.5
v -2.5 0.8 -9.5
v -2.4 0.8 -9.5
v -2.3 0.8 -9.5
v -2.1 0.8 -9.5
v -2 0.8 -9.5
v -1.9 0.8 -9.5
v -1.8 0.8 -9.5
v -3 0.8 -9.6
v -2.9 0.8 -9.6
v -2.8 0.8 -9.6
v -2.7 0.8 -9.6
v -2.5 0.8 -9.6
v -2.4 0.8 -9.6
v -2 0.8 -9.6
v -1.9 0.8 -9.6
v -3 0.8 -9.7
v -2.9 0.8 -9.7
v -2.8 0.8 -9.7
v -2.7 0.8 -9.7
v -2.9 0.8 -9.8
v -2.8 0.8 -9.8
v -2 0.9 -9
v -1.9 0.9 -9
v -2.1 0.9 -9.1
v -2 0.9 -9.1
v -1.9 0.9 -9.1
v -1.8 0.9 -9.1
v -2.1 0.9 -9.2
v -2 0.9 -9.2
v -1.9 0.9 -9.2
v -1.8 0.9 -9.2
v -2.7 0.9 -9.3
v -2.6 0.9 -9.3
v -2.3 0.9 -9.3
v -2.2 0.9 -9.3
v -2.7 0.9 -9.4
v -2.6 0.9 -9.4
v -2.3 0.9 -9.4
v -2.2 0.9 -9.4
v -2.1 0.9 -9.4
v -2 0.9 -9.4
v -1.9 0.9 -9.4
v -1.8 0.9 -9.4
v -2.9 0.9 -9.5
v -2.8 0.9 -9.5
v -2.6 0.9 -9.5
v -2.5 0.9 -9.5
v -2.4 0.9 -9.5
v -2.3 0.9 -9.5
v -2.1 0.9 -9.5
v -2 0.9 -9.5
v -1.9 0.9 -9.5
v -1.8 0.9 -9.5
v -3 0.9 -9.6
v -2.9 0.9 -9.6
v -2.8 0.9 -9.6
v -2.7 0.9 -9.6
v -2.5 0.9 -9.6
v -2.4 0.9 -9.6
v -2 0.9 -9.6
v -1.9 0.9 -9.6
v -3 0.9 -9.7
v -2.9 0.9 -9.7
v -2.8 0.9 -9.7
v -2.7 0.9 -9.7
v -2.9 0.9 -9.8
v -2.8 0.9 -9.8

# faces
f 3/7/1 2/7/1 1/7/1
f 4/7/1 2/7/1 3/7/1
f 9/7/1 6/7/1 5/7/1
f 10/7/1 6/7/1 9/7/1
f 11/7/1 8/7/1 7/7/1
f 12/7/1 8/7/1 11/7/1
f 15/1/1 14/1/1 13/1/1
f 16/1/1 14/1/1 15/1/1
f 19/2/1 18/2/1 17/2/1
f 20/2/1 18/2/1 19/2/1
f 23/1/1 22/1/1 21/1/1
f 24/1/1 22/1/1 23/1/1
f 29/3/1 26/3/1 25/3/1
f 30/3/1 26/3/1 29/3/1
f 31/3/1 28/3/1 27/3/1
f 32/3/1 28/3/1 31/3/1
f 39/3/1 34/3/1 33/3/1
f 40/3/1 34/3/1 39/3/1
f 41/4/1 36/4/1 35/4/1
f 42/4/1 36/4/1 41/4/1
f 43/3/1 38/3/1 37/3/1
f 44/3/1 38/3/1 43/3/1
f 45/7/2 46/7/2 49/7/2
f 49/7/2 46/7/2 50/7/2
f 47/7/2 48/7/2 51/7/2
f 51/7/2 48/7/2 52/7/2
f 53/7/2 54/7/2 55/7/2
f 55/7/2 54/7/2 56/7/2
f 57/1/2 58/1/2 59/1/2
f 59/1/2 58/1/2 60/1/2
f 61/2/2 62/2/2 63/2/2
f 63/2/2 62/2/2 64/2/2
f 65/1/2 66/1/2 67/1/2
f 67/1/2 66/1/2 68/1/2
f 69/3/2 70/3/2 75/3/2
f 75/3/2 70/3/2 76/3/2
f 71/4/2 72/4/2 77/4/2
f 77/4/2 72/4/2 78/4/2
f 73/3/2 74/3/2 79/3/2
f 79/3/2 74/3/2 80/3/2
f 81/3/2 82/3/2 85/3/2
f 85/3/2 82/3/2 86/3/2
f 83/3/2 84/3/2 87/3/2
f 87/3/2 84/3/2 88/3/2
f 91/3/3 90/3/3 89/3/3
f 92/3/3 90/3/3 91/3/3
f 95/3/3 94/3/3 93/3/3
f 96/3/3 94/3/3 95/3/3
f 99/3/3 98/3/3 97/3/3
f 100/3/3 98/3/3 99/3/3
f 103/1/3 102/1/3 101/1/3
f 104/1/3 102/1/3 103/1/3
f 105/2/3 104/2/3 103/2/3
f 106/2/3 104/2/3 105/2/3
f 107/1/3 106/1/3 105/1/3
f 108/1/3 106/1/3 107/1/3
f 111/3/3 110/3/3 109/3/3
f 112/3/3 110/3/3 111/3/3
f 115/3/3 114/3/3 113/3/3
f 116/3/3 114/3/3 115/3/3
f 119/7/3 118/7/3 117/7/3
f 120/7/3 118/7/3 119/7/3
f 123/7/3 122/7/3 121/7/3
f 124/7/3 122/7/3 123/7/3
f 127/7/3 126/7/3 125/7/3
f 128/7/3 126/7/3 127/7/3
f 129/3/4 130/3/4 131/3/4
f 131/3/4 130/3/4 132/3/4
f 133/3/4 134/3/4 135/3/4
f 135/3/4 134/3/4 136/3/4
f 137/1/4 138/1/4 139/1/4
f 139/1/4 138/1/4 140/1/4
f 141/1/4 142/1/4 143/1/4
f 143/1/4 142/1/4 144/1/4
f 145/2/4 146/2/4 147/2/4
f 147/2/4 146/2/4 148/2/4
f 149/2/4 150/2/4 151/2/4
f 151/2/4 150/2/4 152/2/4
f 153/3/4 154/3/4 155/3/4
f 155/3/4 154/3/4 156/3/4
f 157/3/4 158/3/4 159/3/4
f 159/3/4 158/3/4 160/3/4
f 161/1/4 162/1/4 163/1/4
f 163/1/4 162/1/4 164/1/4
f 165/3/4 166/3/4 167/3/4
f 167/3/4 166/3/4 168/3/4
f 169/7/4 170/7/4 171/7/4
f 171/7/4 170/7/4 172/7/4
f 173/7/4 174/7/4 175/7/4
f 175/7/4 174/7/4 176/7/4
f 177/7/4 178/7/4 179/7/4
f 179/7/4 178/7/4 180/7/4
f 184/3/5 182/3/5 181/3/5
f 185/3/5 182/3/5 184/3/5
f 187/3/5 184/3/5 183/3/5
f 188/4/5 185/4/5 184/4/5
f 188/3/5 184/3/5 187/3/5
f 189/3/5 186/3/5 185/3/5
f 189/4/5 185/4/5 188/4/5
f 190/3/5 186/3/5 189/3/5
f 195/1/5 192/1/5 191/1/5
f 196/2/5 193/2/5 192/2/5
f 196/1/5 192/1/5 195/1/5
f 197/1/5 194/1/5 193/1/5
f 197/2/5 193/2/5 196/2/5
f 198/1/5 194/1/5 197/1/5
f 200/4/5 189/4/5 188/4/5
f 201/4/5 189/4/5 200/4/5
f 205/2/5 197/2/5 196/2/5
f 206/2/5 197/2/5 205/2/5
f 207/2/5 197/2/5 206/2/5
f 208/2/5 197/2/5 207/2/5
f 209/3/5 200/3/5 199/3/5
f 210/5/5 201/5/5 200/5/5
f 210/3/5 200/3/5 209/3/5
f 211/3/5 202/3/5 201/3/5
f 211/5/5 201/5/5 210/5/5
f 212/3/5 202/3/5 211/3/5
f 214/7/5 204/7/5 203/7/5
f 215/7/5 204/7/5 214/7/5
f 217/1/5 207/1/5 206/1/5
f 218/1/5 207/1/5 217/1/5
f 219/3/5 211/3/5 210/3/5
f 220/3/5 211/3/5 219/3/5
f 221/7/5 214/7/5 213/7/5
f 222/6/5 215/6/5 214/6/5
f 222/7/5 214/7/5 221/7/5
f 223/7/5 216/7/5 215/7/5
f 223/6/5 215/6/5 222/6/5
f 224/7/5 216/7/5 223/7/5
f 225/7/5 223/7/5 222/7/5
f 226/7/5 223/7/5 225/7/5
f 227/3/6 228/3/6 230/3/6
f 230/3/6 228/3/6 231/3/6
f 229/3/6 230/3/6 233/3/6
f 230/4/6 231/4/6 234/4/6
f 233/3/6 230/3/6 234/3/6
f 231/3/6 232/3/6 235/3/6
f 234/4/6 231/4/6 235/4/6
f 235/3/6 232/3/6 236/3/6
f 237/1/6 238/1/6 241/1/6
f 238/2/6 239/2/6 242/2/6
f 241/1/6 238/1/6 242/1/6
f 239/1/6 240/1/6 243/1/6
f 242/2/6 239/2/6 243/2/6
f 243/1/6 240/1/6 244/1/6
f 234/4/6 235/4/6 246/4/6
f 246/4/6 235/4/6 247/4/6
f 242/2/6 243/2/6 251/2/6
f 251/2/6 243/2/6 252/2/6
f 252/2/6 243/2/6 253/2/6
f 253/2/6 243/2/6 254/2/6
f 245/3/6 246/3/6 255/3/6
f 246/5/6 247/5/6 256/5/6
f 255/3/6 246/3/6 256/3/6
f 247/3/6 248/3/6 257/3/6
f 256/5/6 247/5/6 257/5/6
f 257/3/6 248/3/6 258/3/6
f 249/7/6 250/7/6 260/7/6
f 260/7/6 250/7/6 261/7/6
f 252/1/6 253/1/6 263/1/6
f 263/1/6 253/1/6 264/1/6
f 256/3/6 257/3/6 265/3/6
f 265/3/6 257/3/6 266/3/6
f 259/7/6 260/7/6 267/7/6
f 260/6/6 261/6/6 268/6/6
f 267/7/6 260/7/6 268/7/6
f 261/7/6 262/7/6 269/7/6
f 268/6/6 261/6/6 269/6/6
f 269/7/6 262/7/6 270/7/6
f 268/7/6 269/7/6 271/7/6
f 271/7/6 269/7/6 272/7/6
