# MagicaVoxel @ Ephtracy

# group
o Potion - Contents

# material
mtllib Medieval Assets-200-Potion - Contents.mtl
usemtl palette

# normals
vn -1 0 0
vn 1 0 0
vn 0 0 1
vn 0 0 -1
vn 0 -1 0
vn 0 1 0

# texcoords
vt 0.126953 0.5
vt 0.134766 0.5
vt 0.142578 0.5

# verts
v -1.9 0.1 -4.8
v -1.9 0.1 -5
v -1.9 0.2 -4.8
v -1.9 0.2 -5
v -1.9 0.3 -4.8
v -1.9 0.3 -5
v -1.9 0.4 -4.8
v -1.9 0.4 -5
v -1.8 0.1 -4.7
v -1.8 0.1 -4.8
v -1.8 0.1 -5
v -1.8 0.1 -5.1
v -1.8 0.2 -4.7
v -1.8 0.2 -4.8
v -1.8 0.2 -5
v -1.8 0.2 -5.1
v -1.8 0.3 -4.7
v -1.8 0.3 -4.8
v -1.8 0.3 -5
v -1.8 0.3 -5.1
v -1.8 0.4 -4.7
v -1.8 0.4 -4.8
v -1.8 0.4 -5
v -1.8 0.4 -5.1
v -1.8 0.5 -4.8
v -1.8 0.5 -5
v -1.6 0.1 -4.7
v -1.6 0.1 -4.8
v -1.6 0.1 -5
v -1.6 0.1 -5.1
v -1.6 0.2 -4.7
v -1.6 0.2 -4.8
v -1.6 0.2 -5
v -1.6 0.2 -5.1
v -1.6 0.3 -4.7
v -1.6 0.3 -4.8
v -1.6 0.3 -5
v -1.6 0.3 -5.1
v -1.6 0.4 -4.7
v -1.6 0.4 -4.8
v -1.6 0.4 -5
v -1.6 0.4 -5.1
v -1.6 0.5 -4.8
v -1.6 0.5 -5
v -1.5 0.1 -4.8
v -1.5 0.1 -5
v -1.5 0.2 -4.8
v -1.5 0.2 -5
v -1.5 0.3 -4.8
v -1.5 0.3 -5
v -1.5 0.4 -4.8
v -1.5 0.4 -5
v -1.8 0.1 -4.7
v -1.8 0.2 -4.7
v -1.8 0.3 -4.7
v -1.8 0.4 -4.7
v -1.6 0.1 -4.7
v -1.6 0.2 -4.7
v -1.6 0.3 -4.7
v -1.6 0.4 -4.7
v -1.9 0.1 -4.8
v -1.9 0.2 -4.8
v -1.9 0.3 -4.8
v -1.9 0.4 -4.8
v -1.8 0.1 -4.8
v -1.8 0.2 -4.8
v -1.8 0.3 -4.8
v -1.8 0.4 -4.8
v -1.8 0.5 -4.8
v -1.6 0.1 -4.8
v -1.6 0.2 -4.8
v -1.6 0.3 -4.8
v -1.6 0.4 -4.8
v -1.6 0.5 -4.8
v -1.5 0.1 -4.8
v -1.5 0.2 -4.8
v -1.5 0.3 -4.8
v -1.5 0.4 -4.8
v -1.9 0.1 -5
v -1.9 0.2 -5
v -1.9 0.3 -5
v -1.9 0.4 -5
v -1.8 0.1 -5
v -1.8 0.2 -5
v -1.8 0.3 -5
v -1.8 0.4 -5
v -1.8 0.5 -5
v -1.6 0.1 -5
v -1.6 0.2 -5
v -1.6 0.3 -5
v -1.6 0.4 -5
v -1.6 0.5 -5
v -1.5 0.1 -5
v -1.5 0.2 -5
v -1.5 0.3 -5
v -1.5 0.4 -5
v -1.8 0.1 -5.1
v -1.8 0.2 -5.1
v -1.8 0.3 -5.1
v -1.8 0.4 -5.1
v -1.6 0.1 -5.1
v -1.6 0.2 -5.1
v -1.6 0.3 -5.1
v -1.6 0.4 -5.1
v -1.8 0.1 -4.7
v -1.6 0.1 -4.7
v -1.9 0.1 -4.8
v -1.8 0.1 -4.8
v -1.6 0.1 -4.8
v -1.5 0.1 -4.8
v -1.9 0.1 -5
v -1.8 0.1 -5
v -1.6 0.1 -5
v -1.5 0.1 -5
v -1.8 0.1 -5.1
v -1.6 0.1 -5.1
v -1.8 0.4 -4.7
v -1.6 0.4 -4.7
v -1.9 0.4 -4.8
v -1.8 0.4 -4.8
v -1.6 0.4 -4.8
v -1.5 0.4 -4.8
v -1.9 0.4 -5
v -1.8 0.4 -5
v -1.6 0.4 -5
v -1.5 0.4 -5
v -1.8 0.4 -5.1
v -1.6 0.4 -5.1
v -1.8 0.5 -4.8
v -1.6 0.5 -4.8
v -1.8 0.5 -5
v -1.6 0.5 -5

# faces
f 3/3/1 2/3/1 1/3/1
f 4/3/1 2/3/1 3/3/1
f 5/2/1 4/2/1 3/2/1
f 6/2/1 4/2/1 5/2/1
f 7/1/1 6/1/1 5/1/1
f 8/1/1 6/1/1 7/1/1
f 13/3/1 10/3/1 9/3/1
f 14/3/1 10/3/1 13/3/1
f 15/3/1 12/3/1 11/3/1
f 16/3/1 12/3/1 15/3/1
f 17/2/1 14/2/1 13/2/1
f 18/2/1 14/2/1 17/2/1
f 19/2/1 16/2/1 15/2/1
f 20/2/1 16/2/1 19/2/1
f 21/1/1 18/1/1 17/1/1
f 22/1/1 18/1/1 21/1/1
f 23/1/1 20/1/1 19/1/1
f 24/1/1 20/1/1 23/1/1
f 25/1/1 23/1/1 22/1/1
f 26/1/1 23/1/1 25/1/1
f 27/3/2 28/3/2 31/3/2
f 31/3/2 28/3/2 32/3/2
f 29/3/2 30/3/2 33/3/2
f 33/3/2 30/3/2 34/3/2
f 31/2/2 32/2/2 35/2/2
f 35/2/2 32/2/2 36/2/2
f 33/2/2 34/2/2 37/2/2
f 37/2/2 34/2/2 38/2/2
f 35/1/2 36/1/2 39/1/2
f 39/1/2 36/1/2 40/1/2
f 37/1/2 38/1/2 41/1/2
f 41/1/2 38/1/2 42/1/2
f 40/1/2 41/1/2 43/1/2
f 43/1/2 41/1/2 44/1/2
f 45/3/2 46/3/2 47/3/2
f 47/3/2 46/3/2 48/3/2
f 47/2/2 48/2/2 49/2/2
f 49/2/2 48/2/2 50/2/2
f 49/1/2 50/1/2 51/1/2
f 51/1/2 50/1/2 52/1/2
f 57/3/3 54/3/3 53/3/3
f 58/2/3 55/2/3 54/2/3
f 58/3/3 54/3/3 57/3/3
f 59/1/3 56/1/3 55/1/3
f 59/2/3 55/2/3 58/2/3
f 60/1/3 56/1/3 59/1/3
f 65/3/3 62/3/3 61/3/3
f 66/2/3 63/2/3 62/2/3
f 66/3/3 62/3/3 65/3/3
f 67/1/3 64/1/3 63/1/3
f 67/2/3 63/2/3 66/2/3
f 68/1/3 64/1/3 67/1/3
f 73/1/3 69/1/3 68/1/3
f 74/1/3 69/1/3 73/1/3
f 75/3/3 71/3/3 70/3/3
f 76/2/3 72/2/3 71/2/3
f 76/3/3 71/3/3 75/3/3
f 77/1/3 73/1/3 72/1/3
f 77/2/3 72/2/3 76/2/3
f 78/1/3 73/1/3 77/1/3
f 79/3/4 80/3/4 83/3/4
f 80/2/4 81/2/4 84/2/4
f 83/3/4 80/3/4 84/3/4
f 81/1/4 82/1/4 85/1/4
f 84/2/4 81/2/4 85/2/4
f 85/1/4 82/1/4 86/1/4
f 86/1/4 87/1/4 91/1/4
f 91/1/4 87/1/4 92/1/4
f 88/3/4 89/3/4 93/3/4
f 89/2/4 90/2/4 94/2/4
f 93/3/4 89/3/4 94/3/4
f 90/1/4 91/1/4 95/1/4
f 94/2/4 90/2/4 95/2/4
f 95/1/4 91/1/4 96/1/4
f 97/3/4 98/3/4 101/3/4
f 98/2/4 99/2/4 102/2/4
f 101/3/4 98/3/4 102/3/4
f 99/1/4 100/1/4 103/1/4
f 102/2/4 99/2/4 103/2/4
f 103/1/4 100/1/4 104/1/4
f 108/3/5 106/3/5 105/3/5
f 109/3/5 106/3/5 108/3/5
f 111/3/5 108/3/5 107/3/5
f 111/3/5 110/3/5 109/3/5
f 111/3/5 109/3/5 108/3/5
f 112/3/5 110/3/5 111/3/5
f 113/3/5 110/3/5 112/3/5
f 114/3/5 110/3/5 113/3/5
f 115/3/5 113/3/5 112/3/5
f 116/3/5 113/3/5 115/3/5
f 117/1/6 118/1/6 120/1/6
f 120/1/6 118/1/6 121/1/6
f 119/1/6 120/1/6 123/1/6
f 123/1/6 120/1/6 124/1/6
f 121/1/6 122/1/6 125/1/6
f 125/1/6 122/1/6 126/1/6
f 124/1/6 125/1/6 127/1/6
f 127/1/6 125/1/6 128/1/6
f 129/1/6 130/1/6 131/1/6
f 131/1/6 130/1/6 132/1/6
