# MagicaVoxel @ Ephtracy

# group
o Decoration - Bookshelf - Paper

# material
mtllib Medieval Assets-254-Decoration - Bookshelf - Paper.mtl
usemtl palette

# normals
vn -1 0 0
vn 1 0 0
vn 0 0 -1
vn 0 0 1
vn 0 1 0
vn 0 -1 0

# texcoords
vt 0.126953 0.5
vt 0.130859 0.5
vt 0.134766 0.5
vt 0.166016 0.5
vt 0.169922 0.5
vt 0.177734 0.5
vt 0.197266 0.5
vt 0.205078 0.5

# verts
v -7.8 1.2 -1
v -7.8 1.2 0.5
v -7.8 1.1 -1
v -7.8 1.1 0.5
v -7.7 1.2 -1.1
v -7.7 1.2 -1
v -7.7 1.2 0.5
v -7.7 1.2 0.6
v -7.7 1.1 -1.1
v -7.7 1.1 -1
v -7.7 1.1 0.5
v -7.7 1.1 0.6
v -7.6 1.3 -1
v -7.6 1.3 -0.9
v -7.6 1.3 -0.7
v -7.6 1.3 -0.6
v -7.6 1.3 -0.4
v -7.6 1.3 -0.3
v -7.6 1.3 -0.2
v -7.6 1.3 0
v -7.6 1.3 0.0999999
v -7.6 1.3 0.3
v -7.6 1.3 0.4
v -7.6 1.3 0.5
v -7.6 1.2 -1.2
v -7.6 1.2 -1.1
v -7.6 1.2 -1
v -7.6 1.2 -0.9
v -7.6 1.2 -0.8
v -7.6 1.2 -0.7
v -7.6 1.2 -0.6
v -7.6 1.2 -0.5
v -7.6 1.2 -0.4
v -7.6 1.2 -0.3
v -7.6 1.2 -0.2
v -7.6 1.2 0
v -7.6 1.2 0.0999999
v -7.6 1.2 0.3
v -7.6 1.2 0.4
v -7.6 1.2 0.5
v -7.6 1.2 0.6
v -7.6 1.2 0.7
v -7.6 1.1 -1.2
v -7.6 1.1 -1.1
v -7.6 1.1 0.6
v -7.6 1.1 0.7
v -7.5 1.4 -1
v -7.5 1.4 -0.8
v -7.5 1.4 -0.7
v -7.5 1.4 -0.5
v -7.5 1.4 -0.4
v -7.5 1.4 -0.3
v -7.5 1.4 -0.2
v -7.5 1.4 0
v -7.5 1.4 0.0999999
v -7.5 1.4 0.3
v -7.5 1.4 0.4
v -7.5 1.4 0.6
v -7.5 1.3 -1
v -7.5 1.3 -0.9
v -7.5 1.3 -0.8
v -7.5 1.3 -0.7
v -7.5 1.3 -0.6
v -7.5 1.3 -0.5
v -7.5 1.3 -0.4
v -7.5 1.3 -0.3
v -7.5 1.3 -0.2
v -7.5 1.3 0
v -7.5 1.3 0.0999999
v -7.5 1.3 0.3
v -7.5 1.3 0.4
v -7.5 1.3 0.5
v -7.5 1.2 0.5
v -7.5 1.2 0.6
v -7.3 1.5 -0.7
v -7.3 1.5 -0.5
v -7.3 1.5 -0.4
v -7.3 1.5 -0.2
v -7.3 1.5 -0.1
v -7.3 1.5 0.0999999
v -7.3 1.5 0.2
v -7.3 1.4 -0.7
v -7.3 1.4 -0.5
v -7.3 1.4 -0.4
v -7.3 1.4 -0.3
v -7.3 1.4 -0.2
v -7.3 1.4 -0.1
v -7.3 1.4 0
v -7.3 1.4 0.0999999
v -7.3 1.4 0.2
v -7.2 1.5 -1
v -7.2 1.5 -0.8
v -7.2 1.5 -0.7
v -7.2 1.5 0.2
v -7.2 1.5 0.3
v -7.2 1.5 0.4
v -7.2 1.4 -1
v -7.2 1.4 -0.8
v -7.2 1.4 -0.7
v -7.2 1.4 0.2
v -7.2 1.4 0.3
v -7.2 1.4 0.4
v -7.1 1.5 0.4
v -7.1 1.5 0.5
v -7.1 1.4 0.4
v -7.1 1.4 0.5
v -6.9 1.5 0.0999999
v -6.9 1.5 0.2
v -6.9 1.4 0.0999999
v -6.9 1.4 0.2
v -6.8 1.3 -1.1
v -6.8 1.3 -1
v -6.8 1.2 -1.1
v -6.8 1.2 -1
v -6.7 1.4 -1.1
v -6.7 1.4 -1
v -6.7 1.4 0.5
v -6.7 1.4 0.6
v -6.7 1.3 -1.2
v -6.7 1.3 -1.1
v -6.7 1.3 -1
v -6.7 1.3 0.5
v -6.7 1.3 0.6
v -6.7 1.3 0.7
v -6.7 1.2 -1.2
v -6.7 1.2 -1.1
v -6.7 1.2 0.6
v -6.7 1.2 0.7
v -7 1.5 0.0999999
v -7 1.5 0.2
v -7 1.4 0.0999999
v -7 1.4 0.2
v -6.8 1.5 -1
v -6.8 1.5 -0.8
v -6.8 1.5 -0.7
v -6.8 1.5 -0.6
v -6.8 1.5 -0.5
v -6.8 1.5 -0.3
v -6.8 1.5 -0.2
v -6.8 1.5 0
v -6.8 1.5 0.0999999
v -6.8 1.5 0.4
v -6.8 1.5 0.5
v -6.8 1.4 -1
v -6.8 1.4 -0.9
v -6.8 1.4 -0.8
v -6.8 1.4 -0.7
v -6.8 1.4 -0.6
v -6.8 1.4 -0.5
v -6.8 1.4 -0.3
v -6.8 1.4 -0.2
v -6.8 1.4 0
v -6.8 1.4 0.0999999
v -6.8 1.4 0.3
v -6.8 1.4 0.4
v -6.8 1.4 0.5
v -6.8 1.4 0.6
v -6.8 1.3 0.5
v -6.8 1.3 0.6
v -6.6 1.4 -1.1
v -6.6 1.4 0.6
v -6.6 1.3 -1.1
v -6.6 1.3 0.6
v -6.5 1.3 -1.2
v -6.5 1.3 0.7
v -6.5 1.2 -1.2
v -6.5 1.2 0.7
v -6.4 1.2 -1.2
v -6.4 1.2 0.7
v -6.4 1.1 -1.2
v -6.4 1.1 0.7
v -7.6 1.2 -1.2
v -7.6 1.1 -1.2
v -6.7 1.3 -1.2
v -6.7 1.2 -1.2
v -6.7 1.1 -1.2
v -6.6 1.2 -1.2
v -6.6 1.1 -1.2
v -6.5 1.3 -1.2
v -6.5 1.2 -1.2
v -6.4 1.2 -1.2
v -6.4 1.1 -1.2
v -7.7 1.2 -1.1
v -7.7 1.1 -1.1
v -7.6 1.2 -1.1
v -7.6 1.1 -1.1
v -6.8 1.3 -1.1
v -6.8 1.2 -1.1
v -6.7 1.4 -1.1
v -6.7 1.3 -1.1
v -6.7 1.2 -1.1
v -6.6 1.4 -1.1
v -6.6 1.3 -1.1
v -7.8 1.2 -1
v -7.8 1.1 -1
v -7.7 1.2 -1
v -7.7 1.1 -1
v -7.6 1.3 -1
v -7.6 1.2 -1
v -7.5 1.4 -1
v -7.5 1.3 -1
v -7.2 1.5 -1
v -7.2 1.4 -1
v -6.8 1.5 -1
v -6.8 1.4 -1
v -6.8 1.3 -1
v -6.8 1.2 -1
v -6.7 1.4 -1
v -6.7 1.3 -1
v -7.3 1.5 -0.7
v -7.3 1.4 -0.7
v -7.2 1.5 -0.7
v -7.2 1.4 -0.7
v -7 1.5 0.2
v -7 1.4 0.2
v -6.9 1.5 0.2
v -6.9 1.4 0.2
v -7 1.5 0.0999999
v -7 1.4 0.0999999
v -6.9 1.5 0.0999999
v -6.9 1.4 0.0999999
v -7.3 1.5 0.2
v -7.3 1.4 0.2
v -7.2 1.5 0.2
v -7.2 1.4 0.2
v -7.2 1.5 0.4
v -7.2 1.4 0.4
v -7.1 1.5 0.4
v -7.1 1.4 0.4
v -7.8 1.2 0.5
v -7.8 1.1 0.5
v -7.7 1.2 0.5
v -7.7 1.1 0.5
v -7.6 1.3 0.5
v -7.6 1.2 0.5
v -7.5 1.3 0.5
v -7.5 1.2 0.5
v -7.1 1.5 0.5
v -7.1 1.4 0.5
v -6.8 1.5 0.5
v -6.8 1.4 0.5
v -6.8 1.3 0.5
v -6.7 1.4 0.5
v -6.7 1.3 0.5
v -7.7 1.2 0.6
v -7.7 1.1 0.6
v -7.6 1.2 0.6
v -7.6 1.1 0.6
v -7.5 1.4 0.6
v -7.5 1.2 0.6
v -6.8 1.4 0.6
v -6.8 1.3 0.6
v -6.7 1.4 0.6
v -6.7 1.3 0.6
v -6.7 1.2 0.6
v -6.6 1.4 0.6
v -6.6 1.3 0.6
v -7.6 1.2 0.7
v -7.6 1.1 0.7
v -6.7 1.3 0.7
v -6.7 1.2 0.7
v -6.7 1.1 0.7
v -6.6 1.2 0.7
v -6.6 1.1 0.7
v -6.5 1.3 0.7
v -6.5 1.2 0.7
v -6.4 1.2 0.7
v -6.4 1.1 0.7
v -7.2 1.5 -1
v -6.8 1.5 -1
v -7.2 1.5 -0.8
v -6.8 1.5 -0.8
v -7.3 1.5 -0.7
v -7.2 1.5 -0.7
v -6.8 1.5 -0.7
v -7.1 1.5 -0.6
v -6.8 1.5 -0.6
v -7.3 1.5 -0.5
v -7.1 1.5 -0.5
v -6.8 1.5 -0.5
v -7.3 1.5 -0.4
v -7.1 1.5 -0.4
v -7.1 1.5 -0.3
v -6.8 1.5 -0.3
v -7.3 1.5 -0.2
v -7.1 1.5 -0.2
v -6.8 1.5 -0.2
v -7.3 1.5 -0.1
v -7.1 1.5 -0.1
v -7.1 1.5 0
v -6.8 1.5 0
v -7.3 1.5 0.0999999
v -7.1 1.5 0.0999999
v -7 1.5 0.0999999
v -6.9 1.5 0.0999999
v -6.8 1.5 0.0999999
v -7.3 1.5 0.2
v -7.2 1.5 0.2
v -7.1 1.5 0.2
v -7 1.5 0.2
v -6.9 1.5 0.2
v -7.2 1.5 0.3
v -7.1 1.5 0.3
v -7.2 1.5 0.4
v -7.1 1.5 0.4
v -6.8 1.5 0.4
v -7.1 1.5 0.5
v -6.8 1.5 0.5
v -6.7 1.4 -1.1
v -6.6 1.4 -1.1
v -7.5 1.4 -1
v -7.2 1.4 -1
v -6.8 1.4 -1
v -6.7 1.4 -1
v -6.8 1.4 -0.9
v -6.7 1.4 -0.9
v -7.5 1.4 -0.8
v -7.2 1.4 -0.8
v -6.8 1.4 -0.8
v -6.7 1.4 -0.8
v -7.5 1.4 -0.7
v -7.3 1.4 -0.7
v -7.2 1.4 -0.7
v -6.8 1.4 -0.7
v -6.8 1.4 -0.6
v -6.7 1.4 -0.6
v -7.5 1.4 -0.5
v -7.3 1.4 -0.5
v -6.8 1.4 -0.5
v -6.7 1.4 -0.5
v -7.5 1.4 -0.4
v -7.3 1.4 -0.4
v -7.5 1.4 -0.3
v -7.3 1.4 -0.3
v -6.8 1.4 -0.3
v -6.7 1.4 -0.3
v -7.5 1.4 -0.2
v -7.3 1.4 -0.2
v -6.8 1.4 -0.2
v -6.7 1.4 -0.2
v -7.3 1.4 -0.1
v -7.5 1.4 0
v -7.3 1.4 0
v -6.8 1.4 0
v -6.7 1.4 0
v -7.5 1.4 0.0999999
v -7.3 1.4 0.0999999
v -7 1.4 0.0999999
v -6.9 1.4 0.0999999
v -6.8 1.4 0.0999999
v -6.7 1.4 0.0999999
v -7.3 1.4 0.2
v -7.2 1.4 0.2
v -7 1.4 0.2
v -6.9 1.4 0.2
v -7.5 1.4 0.3
v -7.2 1.4 0.3
v -6.8 1.4 0.3
v -6.7 1.4 0.3
v -7.5 1.4 0.4
v -7.2 1.4 0.4
v -7.1 1.4 0.4
v -6.8 1.4 0.4
v -6.7 1.4 0.4
v -7.1 1.4 0.5
v -6.8 1.4 0.5
v -6.7 1.4 0.5
v -7.5 1.4 0.6
v -6.8 1.4 0.6
v -6.7 1.4 0.6
v -6.6 1.4 0.6
v -6.7 1.3 -1.2
v -6.5 1.3 -1.2
v -6.8 1.3 -1.1
v -6.7 1.3 -1.1
v -6.6 1.3 -1.1
v -7.6 1.3 -1
v -7.5 1.3 -1
v -6.8 1.3 -1
v -6.7 1.3 -1
v -7.6 1.3 -0.9
v -7.5 1.3 -0.9
v -7.5 1.3 -0.8
v -7.6 1.3 -0.7
v -7.5 1.3 -0.7
v -7.6 1.3 -0.6
v -7.5 1.3 -0.6
v -7.5 1.3 -0.5
v -7.6 1.3 -0.4
v -7.5 1.3 -0.4
v -7.6 1.3 -0.3
v -7.5 1.3 -0.3
v -7.6 1.3 -0.2
v -7.5 1.3 -0.2
v -7.6 1.3 0
v -7.5 1.3 0
v -7.6 1.3 0.0999999
v -7.5 1.3 0.0999999
v -7.6 1.3 0.3
v -7.5 1.3 0.3
v -7.6 1.3 0.4
v -7.5 1.3 0.4
v -7.6 1.3 0.5
v -7.5 1.3 0.5
v -6.8 1.3 0.5
v -6.7 1.3 0.5
v -6.8 1.3 0.6
v -6.7 1.3 0.6
v -6.6 1.3 0.6
v -6.7 1.3 0.7
v -6.5 1.3 0.7
v -7.6 1.2 -1.2
v -6.7 1.2 -1.2
v -6.5 1.2 -1.2
v -6.4 1.2 -1.2
v -7.7 1.2 -1.1
v -7.6 1.2 -1.1
v -6.8 1.2 -1.1
v -6.7 1.2 -1.1
v -7.8 1.2 -1
v -7.7 1.2 -1
v -7.6 1.2 -1
v -6.8 1.2 -1
v -7.7 1.2 -0.9
v -7.6 1.2 -0.9
v -7.7 1.2 -0.8
v -7.6 1.2 -0.8
v -7.6 1.2 -0.7
v -7.7 1.2 -0.6
v -7.6 1.2 -0.6
v -7.7 1.2 -0.5
v -7.6 1.2 -0.5
v -7.6 1.2 -0.4
v -7.7 1.2 -0.3
v -7.6 1.2 -0.3
v -7.7 1.2 -0.2
v -7.6 1.2 -0.2
v -7.7 1.2 0
v -7.6 1.2 0
v -7.7 1.2 0.0999999
v -7.6 1.2 0.0999999
v -7.7 1.2 0.3
v -7.6 1.2 0.3
v -7.7 1.2 0.4
v -7.6 1.2 0.4
v -7.8 1.2 0.5
v -7.7 1.2 0.5
v -7.6 1.2 0.5
v -7.5 1.2 0.5
v -7.7 1.2 0.6
v -7.6 1.2 0.6
v -7.5 1.2 0.6
v -6.7 1.2 0.6
v -7.6 1.2 0.7
v -6.7 1.2 0.7
v -6.5 1.2 0.7
v -6.4 1.2 0.7
v -7.6 1.1 -1.2
v -6.7 1.1 -1.2
v -6.6 1.1 -1.2
v -6.4 1.1 -1.2
v -7.7 1.1 -1.1
v -7.6 1.1 -1.1
v -6.7 1.1 -1.1
v -6.6 1.1 -1.1
v -6.5 1.1 -1.1
v -7.8 1.1 -1
v -7.7 1.1 -1
v -6.6 1.1 -1
v -6.5 1.1 -1
v -7.7 1.1 -0.9
v -7.6 1.1 -0.9
v -7.7 1.1 -0.8
v -7.6 1.1 -0.8
v -7.5 1.1 -0.8
v -7.3 1.1 -0.8
v -7 1.1 -0.8
v -7.5 1.1 -0.7
v -7.3 1.1 -0.7
v -7.2 1.1 -0.7
v -7 1.1 -0.7
v -6.8 1.1 -0.7
v -7.7 1.1 -0.6
v -7.6 1.1 -0.6
v -7.2 1.1 -0.6
v -7 1.1 -0.6
v -6.8 1.1 -0.6
v -7.7 1.1 -0.5
v -7.6 1.1 -0.5
v -7.5 1.1 -0.4
v -7.4 1.1 -0.4
v -7.1 1.1 -0.4
v -6.9 1.1 -0.4
v -6.7 1.1 -0.4
v -6.6 1.1 -0.4
v -7.7 1.1 -0.3
v -7.5 1.1 -0.3
v -7.4 1.1 -0.3
v -7.1 1.1 -0.3
v -6.9 1.1 -0.3
v -6.8 1.1 -0.3
v -7.7 1.1 -0.2
v -7.5 1.1 -0.2
v -7.4 1.1 -0.2
v -7.1 1.1 -0.2
v -6.9 1.1 -0.2
v -6.8 1.1 -0.2
v -7.5 1.1 -0.1
v -7.4 1.1 -0.1
v -7.1 1.1 -0.1
v -6.9 1.1 -0.1
v -6.7 1.1 -0.1
v -6.6 1.1 -0.1
v -7.7 1.1 0
v -7.6 1.1 0
v -7.7 1.1 0.0999999
v -7.6 1.1 0.0999999
v -7.2 1.1 0.0999999
v -7 1.1 0.0999999
v -6.8 1.1 0.0999999
v -7.5 1.1 0.2
v -7.3 1.1 0.2
v -7.2 1.1 0.2
v -7 1.1 0.2
v -6.8 1.1 0.2
v -7.7 1.1 0.3
v -7.6 1.1 0.3
v -7.5 1.1 0.3
v -7.3 1.1 0.3
v -7 1.1 0.3
v -7.7 1.1 0.4
v -7.6 1.1 0.4
v -7.8 1.1 0.5
v -7.7 1.1 0.5
v -6.6 1.1 0.5
v -6.5 1.1 0.5
v -7.7 1.1 0.6
v -7.6 1.1 0.6
v -6.7 1.1 0.6
v -6.6 1.1 0.6
v -6.5 1.1 0.6
v -7.6 1.1 0.7
v -6.7 1.1 0.7
v -6.6 1.1 0.7
v -6.4 1.1 0.7

# faces
f 3/1/1 2/1/1 1/1/1
f 4/1/1 2/1/1 3/1/1
f 9/1/1 6/1/1 5/1/1
f 10/1/1 6/1/1 9/1/1
f 11/1/1 8/1/1 7/1/1
f 12/1/1 8/1/1 11/1/1
f 27/1/1 14/1/1 13/1/1
f 28/4/1 15/4/1 14/4/1
f 28/1/1 14/1/1 27/1/1
f 29/4/1 15/4/1 28/4/1
f 30/1/1 16/1/1 15/1/1
f 30/4/1 15/4/1 29/4/1
f 31/4/1 17/4/1 16/4/1
f 31/1/1 16/1/1 30/1/1
f 32/4/1 17/4/1 31/4/1
f 33/1/1 18/1/1 17/1/1
f 33/4/1 17/4/1 32/4/1
f 34/4/1 19/4/1 18/4/1
f 34/1/1 18/1/1 33/1/1
f 35/1/1 20/1/1 19/1/1
f 35/4/1 19/4/1 34/4/1
f 36/4/1 21/4/1 20/4/1
f 36/1/1 20/1/1 35/1/1
f 37/1/1 22/1/1 21/1/1
f 37/4/1 21/4/1 36/4/1
f 38/4/1 23/4/1 22/4/1
f 38/1/1 22/1/1 37/1/1
f 39/1/1 24/1/1 23/1/1
f 39/4/1 23/4/1 38/4/1
f 40/1/1 24/1/1 39/1/1
f 43/1/1 26/1/1 25/1/1
f 44/1/1 26/1/1 43/1/1
f 45/1/1 42/1/1 41/1/1
f 46/1/1 42/1/1 45/1/1
f 59/1/1 48/1/1 47/1/1
f 60/1/1 48/1/1 59/1/1
f 61/4/1 49/4/1 48/4/1
f 61/1/1 48/1/1 60/1/1
f 62/1/1 50/1/1 49/1/1
f 62/4/1 49/4/1 61/4/1
f 63/1/1 50/1/1 62/1/1
f 64/4/1 51/4/1 50/4/1
f 64/1/1 50/1/1 63/1/1
f 65/1/1 52/1/1 51/1/1
f 65/4/1 51/4/1 64/4/1
f 66/4/1 53/4/1 52/4/1
f 66/1/1 52/1/1 65/1/1
f 67/1/1 54/1/1 53/1/1
f 67/4/1 53/4/1 66/4/1
f 68/4/1 55/4/1 54/4/1
f 68/1/1 54/1/1 67/1/1
f 69/1/1 56/1/1 55/1/1
f 69/4/1 55/4/1 68/4/1
f 70/4/1 57/4/1 56/4/1
f 70/1/1 56/1/1 69/1/1
f 71/1/1 58/1/1 57/1/1
f 71/4/1 57/4/1 70/4/1
f 72/1/1 58/1/1 71/1/1
f 73/1/1 58/1/1 72/1/1
f 74/1/1 58/1/1 73/1/1
f 82/1/1 76/1/1 75/1/1
f 83/4/1 77/4/1 76/4/1
f 83/1/1 76/1/1 82/1/1
f 84/1/1 78/1/1 77/1/1
f 84/4/1 77/4/1 83/4/1
f 85/1/1 78/1/1 84/1/1
f 86/4/1 79/4/1 78/4/1
f 86/1/1 78/1/1 85/1/1
f 87/1/1 80/1/1 79/1/1
f 87/4/1 79/4/1 86/4/1
f 88/1/1 80/1/1 87/1/1
f 89/4/1 81/4/1 80/4/1
f 89/1/1 80/1/1 88/1/1
f 90/4/1 81/4/1 89/4/1
f 97/1/1 92/1/1 91/1/1
f 98/4/1 93/4/1 92/4/1
f 98/1/1 92/1/1 97/1/1
f 99/4/1 93/4/1 98/4/1
f 100/1/1 95/1/1 94/1/1
f 101/4/1 96/4/1 95/4/1
f 101/1/1 95/1/1 100/1/1
f 102/4/1 96/4/1 101/4/1
f 105/4/1 104/4/1 103/4/1
f 106/4/1 104/4/1 105/4/1
f 109/1/1 108/1/1 107/1/1
f 110/1/1 108/1/1 109/1/1
f 113/1/1 112/1/1 111/1/1
f 114/1/1 112/1/1 113/1/1
f 120/1/1 116/1/1 115/1/1
f 121/1/1 116/1/1 120/1/1
f 122/1/1 118/1/1 117/1/1
f 123/1/1 118/1/1 122/1/1
f 125/1/1 120/1/1 119/1/1
f 126/1/1 120/1/1 125/1/1
f 127/1/1 124/1/1 123/1/1
f 128/1/1 124/1/1 127/1/1
f 129/1/2 130/1/2 131/1/2
f 131/1/2 130/1/2 132/1/2
f 133/1/2 134/1/2 144/1/2
f 144/1/2 134/1/2 145/1/2
f 134/4/2 135/4/2 146/4/2
f 145/1/2 134/1/2 146/1/2
f 135/1/2 136/1/2 147/1/2
f 146/4/2 135/4/2 147/4/2
f 136/4/2 137/4/2 148/4/2
f 147/1/2 136/1/2 148/1/2
f 137/1/2 138/1/2 149/1/2
f 148/4/2 137/4/2 149/4/2
f 138/4/2 139/4/2 150/4/2
f 149/1/2 138/1/2 150/1/2
f 139/1/2 140/1/2 151/1/2
f 150/4/2 139/4/2 151/4/2
f 140/4/2 141/4/2 152/4/2
f 151/1/2 140/1/2 152/1/2
f 141/1/2 142/1/2 153/1/2
f 152/4/2 141/4/2 153/4/2
f 153/1/2 142/1/2 154/1/2
f 142/4/2 143/4/2 155/4/2
f 154/1/2 142/1/2 155/1/2
f 155/4/2 143/4/2 156/4/2
f 156/1/2 157/1/2 158/1/2
f 158/1/2 157/1/2 159/1/2
f 160/1/2 161/1/2 162/1/2
f 162/1/2 161/1/2 163/1/2
f 164/1/2 165/1/2 166/1/2
f 166/1/2 165/1/2 167/1/2
f 168/3/2 169/3/2 170/3/2
f 170/3/2 169/3/2 171/3/2
f 175/1/3 173/1/3 172/1/3
f 176/1/3 173/1/3 175/1/3
f 177/1/3 175/1/3 174/1/3
f 177/2/3 176/2/3 175/2/3
f 178/2/3 176/2/3 177/2/3
f 179/1/3 177/1/3 174/1/3
f 180/3/3 178/3/3 177/3/3
f 180/1/3 177/1/3 179/1/3
f 181/3/3 178/3/3 180/3/3
f 182/3/3 178/3/3 181/3/3
f 185/1/3 184/1/3 183/1/3
f 186/1/3 184/1/3 185/1/3
f 190/1/3 188/1/3 187/1/3
f 191/1/3 188/1/3 190/1/3
f 192/1/3 190/1/3 189/1/3
f 193/1/3 190/1/3 192/1/3
f 196/1/3 195/1/3 194/1/3
f 197/1/3 195/1/3 196/1/3
f 201/1/3 199/1/3 198/1/3
f 203/1/3 201/1/3 200/1/3
f 204/1/3 203/1/3 202/1/3
f 205/1/3 201/1/3 203/1/3
f 205/1/3 203/1/3 204/1/3
f 206/1/3 199/1/3 201/1/3
f 206/1/3 201/1/3 205/1/3
f 207/1/3 199/1/3 206/1/3
f 208/1/3 206/1/3 205/1/3
f 209/1/3 206/1/3 208/1/3
f 212/1/3 211/1/3 210/1/3
f 213/1/3 211/1/3 212/1/3
f 216/1/3 215/1/3 214/1/3
f 217/1/3 215/1/3 216/1/3
f 218/4/4 219/4/4 220/4/4
f 220/4/4 219/4/4 221/4/4
f 222/4/4 223/4/4 224/4/4
f 224/4/4 223/4/4 225/4/4
f 226/4/4 227/4/4 228/4/4
f 228/4/4 227/4/4 229/4/4
f 230/1/4 231/1/4 232/1/4
f 232/1/4 231/1/4 233/1/4
f 234/1/4 235/1/4 236/1/4
f 236/1/4 235/1/4 237/1/4
f 238/4/4 239/4/4 240/4/4
f 240/4/4 239/4/4 241/4/4
f 241/1/4 242/1/4 243/1/4
f 243/1/4 242/1/4 244/1/4
f 245/1/4 246/1/4 247/1/4
f 247/1/4 246/1/4 248/1/4
f 249/1/4 250/1/4 251/1/4
f 251/1/4 250/1/4 252/1/4
f 252/1/4 250/1/4 254/1/4
f 254/1/4 250/1/4 255/1/4
f 253/1/4 254/1/4 256/1/4
f 256/1/4 254/1/4 257/1/4
f 258/1/4 259/1/4 261/1/4
f 261/1/4 259/1/4 262/1/4
f 260/1/4 261/1/4 263/1/4
f 261/2/4 262/2/4 263/2/4
f 263/2/4 262/2/4 264/2/4
f 260/1/4 263/1/4 265/1/4
f 263/3/4 264/3/4 266/3/4
f 265/1/4 263/1/4 266/1/4
f 266/3/4 264/3/4 267/3/4
f 267/3/4 264/3/4 268/3/4
f 271/1/5 270/1/5 269/1/5
f 272/1/5 270/1/5 271/1/5
f 274/4/5 272/4/5 271/4/5
f 275/4/5 272/4/5 274/4/5
f 276/1/5 274/1/5 273/1/5
f 276/1/5 275/1/5 274/1/5
f 277/1/5 275/1/5 276/1/5
f 278/1/5 276/1/5 273/1/5
f 279/4/5 277/4/5 276/4/5
f 279/1/5 276/1/5 278/1/5
f 280/4/5 277/4/5 279/4/5
f 281/4/5 279/4/5 278/4/5
f 282/1/5 280/1/5 279/1/5
f 282/4/5 279/4/5 281/4/5
f 283/1/5 282/1/5 281/1/5
f 283/1/5 280/1/5 282/1/5
f 284/1/5 280/1/5 283/1/5
f 285/1/5 283/1/5 281/1/5
f 286/4/5 284/4/5 283/4/5
f 286/1/5 283/1/5 285/1/5
f 287/4/5 284/4/5 286/4/5
f 288/4/5 286/4/5 285/4/5
f 289/1/5 287/1/5 286/1/5
f 289/4/5 286/4/5 288/4/5
f 290/1/5 289/1/5 288/1/5
f 290/1/5 287/1/5 289/1/5
f 291/1/5 287/1/5 290/1/5
f 292/1/5 290/1/5 288/1/5
f 293/4/5 291/4/5 290/4/5
f 293/1/5 290/1/5 292/1/5
f 294/4/5 291/4/5 293/4/5
f 295/4/5 291/4/5 294/4/5
f 296/4/5 291/4/5 295/4/5
f 297/4/5 293/4/5 292/4/5
f 298/4/5 293/4/5 297/4/5
f 299/1/5 294/1/5 293/1/5
f 299/4/5 293/4/5 298/4/5
f 300/1/5 294/1/5 299/1/5
f 301/1/5 296/1/5 295/1/5
f 302/1/5 301/1/5 300/1/5
f 302/1/5 300/1/5 299/1/5
f 302/1/5 299/1/5 298/1/5
f 303/1/5 301/1/5 302/1/5
f 304/4/5 303/4/5 302/4/5
f 305/1/5 301/1/5 303/1/5
f 305/4/5 303/4/5 304/4/5
f 306/1/5 296/1/5 301/1/5
f 306/1/5 301/1/5 305/1/5
f 307/4/5 306/4/5 305/4/5
f 308/4/5 306/4/5 307/4/5
f 314/1/5 310/1/5 309/1/5
f 315/1/5 314/1/5 313/1/5
f 316/1/5 310/1/5 314/1/5
f 316/1/5 314/1/5 315/1/5
f 317/1/5 312/1/5 311/1/5
f 318/1/5 312/1/5 317/1/5
f 319/4/5 316/4/5 315/4/5
f 320/1/5 310/1/5 316/1/5
f 320/4/5 316/4/5 319/4/5
f 321/4/5 318/4/5 317/4/5
f 322/4/5 318/4/5 321/4/5
f 323/4/5 318/4/5 322/4/5
f 324/1/5 320/1/5 319/1/5
f 325/1/5 320/1/5 324/1/5
f 326/1/5 310/1/5 320/1/5
f 326/1/5 320/1/5 325/1/5
f 327/1/5 322/1/5 321/1/5
f 328/1/5 322/1/5 327/1/5
f 329/4/5 326/4/5 325/4/5
f 330/1/5 310/1/5 326/1/5
f 330/4/5 326/4/5 329/4/5
f 331/4/5 328/4/5 327/4/5
f 332/4/5 328/4/5 331/4/5
f 333/1/5 332/1/5 331/1/5
f 334/1/5 332/1/5 333/1/5
f 335/1/5 330/1/5 329/1/5
f 336/1/5 310/1/5 330/1/5
f 336/1/5 330/1/5 335/1/5
f 337/4/5 334/4/5 333/4/5
f 338/4/5 334/4/5 337/4/5
f 339/4/5 336/4/5 335/4/5
f 340/1/5 310/1/5 336/1/5
f 340/4/5 336/4/5 339/4/5
f 341/1/5 338/1/5 337/1/5
f 342/1/5 341/1/5 337/1/5
f 343/1/5 341/1/5 342/1/5
f 344/1/5 340/1/5 339/1/5
f 345/1/5 310/1/5 340/1/5
f 345/1/5 340/1/5 344/1/5
f 346/4/5 343/4/5 342/4/5
f 347/4/5 343/4/5 346/4/5
f 350/4/5 345/4/5 344/4/5
f 351/1/5 310/1/5 345/1/5
f 351/4/5 345/4/5 350/4/5
f 352/1/5 347/1/5 346/1/5
f 354/1/5 349/1/5 348/1/5
f 355/1/5 349/1/5 354/1/5
f 356/1/5 353/1/5 352/1/5
f 356/1/5 352/1/5 346/1/5
f 357/1/5 353/1/5 356/1/5
f 358/1/5 351/1/5 350/1/5
f 359/1/5 310/1/5 351/1/5
f 359/1/5 351/1/5 358/1/5
f 360/4/5 357/4/5 356/4/5
f 361/4/5 357/4/5 360/4/5
f 363/4/5 359/4/5 358/4/5
f 364/1/5 310/1/5 359/1/5
f 364/4/5 359/4/5 363/4/5
f 365/1/5 362/1/5 361/1/5
f 365/1/5 361/1/5 360/1/5
f 366/1/5 364/1/5 363/1/5
f 367/1/5 310/1/5 364/1/5
f 367/1/5 364/1/5 366/1/5
f 368/1/5 366/1/5 365/1/5
f 368/1/5 365/1/5 360/1/5
f 369/1/5 366/1/5 368/1/5
f 370/1/5 310/1/5 367/1/5
f 371/1/5 310/1/5 370/1/5
f 375/1/5 373/1/5 372/1/5
f 376/1/5 373/1/5 375/1/5
f 379/1/5 375/1/5 374/1/5
f 380/1/5 375/1/5 379/1/5
f 381/1/5 378/1/5 377/1/5
f 382/1/5 378/1/5 381/1/5
f 383/4/5 382/4/5 381/4/5
f 384/4/5 383/4/5 381/4/5
f 385/4/5 383/4/5 384/4/5
f 386/1/5 385/1/5 384/1/5
f 387/1/5 385/1/5 386/1/5
f 388/4/5 387/4/5 386/4/5
f 389/4/5 388/4/5 386/4/5
f 390/4/5 388/4/5 389/4/5
f 391/1/5 390/1/5 389/1/5
f 392/1/5 390/1/5 391/1/5
f 393/4/5 392/4/5 391/4/5
f 394/4/5 392/4/5 393/4/5
f 395/1/5 394/1/5 393/1/5
f 396/1/5 394/1/5 395/1/5
f 397/4/5 396/4/5 395/4/5
f 398/4/5 396/4/5 397/4/5
f 399/1/5 398/1/5 397/1/5
f 400/1/5 398/1/5 399/1/5
f 401/4/5 400/4/5 399/4/5
f 402/4/5 400/4/5 401/4/5
f 403/1/5 402/1/5 401/1/5
f 404/1/5 402/1/5 403/1/5
f 407/1/5 406/1/5 405/1/5
f 408/1/5 406/1/5 407/1/5
f 409/1/5 373/1/5 376/1/5
f 410/1/5 409/1/5 408/1/5
f 411/1/5 373/1/5 409/1/5
f 411/1/5 409/1/5 410/1/5
f 417/1/5 413/1/5 412/1/5
f 418/1/5 413/1/5 417/1/5
f 419/1/5 413/1/5 418/1/5
f 421/1/5 417/1/5 416/1/5
f 421/1/5 418/1/5 417/1/5
f 422/1/5 418/1/5 421/1/5
f 423/1/5 418/1/5 422/1/5
f 424/1/5 421/1/5 420/1/5
f 424/1/5 422/1/5 421/1/5
f 425/1/5 422/1/5 424/1/5
f 426/1/5 424/1/5 420/1/5
f 426/4/5 425/4/5 424/4/5
f 427/4/5 425/4/5 426/4/5
f 428/1/5 427/1/5 426/1/5
f 429/1/5 426/1/5 420/1/5
f 429/1/5 428/1/5 426/1/5
f 430/1/5 428/1/5 429/1/5
f 431/1/5 429/1/5 420/1/5
f 431/4/5 430/4/5 429/4/5
f 432/4/5 430/4/5 431/4/5
f 433/1/5 432/1/5 431/1/5
f 434/1/5 431/1/5 420/1/5
f 434/1/5 433/1/5 431/1/5
f 435/1/5 433/1/5 434/1/5
f 436/1/5 434/1/5 420/1/5
f 436/6/5 435/6/5 434/6/5
f 437/6/5 435/6/5 436/6/5
f 438/1/5 436/1/5 420/1/5
f 438/1/5 437/1/5 436/1/5
f 439/1/5 437/1/5 438/1/5
f 440/1/5 438/1/5 420/1/5
f 440/4/5 439/4/5 438/4/5
f 441/4/5 439/4/5 440/4/5
f 442/1/5 440/1/5 420/1/5
f 442/1/5 441/1/5 440/1/5
f 443/1/5 441/1/5 442/1/5
f 444/1/5 442/1/5 420/1/5
f 444/4/5 443/4/5 442/4/5
f 445/4/5 443/4/5 444/4/5
f 446/1/5 444/1/5 420/1/5
f 446/1/5 445/1/5 444/1/5
f 447/1/5 445/1/5 446/1/5
f 448/1/5 445/1/5 447/1/5
f 450/1/5 448/1/5 447/1/5
f 450/1/5 449/1/5 448/1/5
f 451/1/5 449/1/5 450/1/5
f 452/1/5 449/1/5 451/1/5
f 454/1/5 452/1/5 451/1/5
f 454/1/5 453/1/5 452/1/5
f 455/1/5 453/1/5 454/1/5
f 456/3/5 415/3/5 414/3/5
f 457/3/5 415/3/5 456/3/5
f 458/1/6 459/1/6 463/1/6
f 459/2/6 460/2/6 464/2/6
f 463/1/6 459/1/6 464/1/6
f 460/3/6 461/3/6 465/3/6
f 464/2/6 460/2/6 465/2/6
f 465/3/6 461/3/6 466/3/6
f 463/1/6 464/1/6 468/1/6
f 462/1/6 463/1/6 468/1/6
f 465/7/6 466/7/6 469/7/6
f 464/5/6 465/5/6 469/5/6
f 466/3/6 461/3/6 470/3/6
f 469/7/6 466/7/6 470/7/6
f 467/1/6 468/1/6 471/1/6
f 468/1/6 464/1/6 471/1/6
f 471/1/6 464/1/6 472/1/6
f 467/1/6 471/1/6 473/1/6
f 471/4/6 472/4/6 473/4/6
f 472/1/6 464/1/6 474/1/6
f 473/4/6 472/4/6 474/4/6
f 474/1/6 464/1/6 475/1/6
f 475/1/6 464/1/6 476/1/6
f 476/1/6 464/1/6 477/1/6
f 474/6/6 475/6/6 478/6/6
f 475/1/6 476/1/6 478/1/6
f 476/6/6 477/6/6 479/6/6
f 478/1/6 476/1/6 479/1/6
f 479/6/6 477/6/6 480/6/6
f 477/1/6 464/1/6 481/1/6
f 480/6/6 477/6/6 481/6/6
f 481/1/6 464/1/6 482/1/6
f 467/1/6 473/1/6 483/1/6
f 473/1/6 474/1/6 483/1/6
f 479/6/6 480/6/6 484/6/6
f 483/1/6 474/1/6 484/1/6
f 474/6/6 478/6/6 484/6/6
f 478/6/6 479/6/6 484/6/6
f 480/1/6 481/1/6 485/1/6
f 484/6/6 480/6/6 485/6/6
f 481/6/6 482/6/6 486/6/6
f 485/1/6 481/1/6 486/1/6
f 482/1/6 464/1/6 487/1/6
f 486/6/6 482/6/6 487/6/6
f 467/1/6 483/1/6 488/1/6
f 483/4/6 484/4/6 488/4/6
f 485/1/6 486/1/6 489/1/6
f 488/4/6 484/4/6 489/4/6
f 484/1/6 485/1/6 489/1/6
f 486/1/6 487/1/6 489/1/6
f 488/1/6 489/1/6 490/1/6
f 489/1/6 487/1/6 490/1/6
f 490/1/6 487/1/6 491/1/6
f 491/1/6 487/1/6 492/1/6
f 492/1/6 487/1/6 493/1/6
f 464/5/6 469/5/6 494/5/6
f 493/1/6 487/1/6 494/1/6
f 487/1/6 464/1/6 494/1/6
f 469/3/6 470/3/6 495/3/6
f 494/5/6 469/5/6 495/5/6
f 467/1/6 488/1/6 496/1/6
f 488/1/6 490/1/6 496/1/6
f 490/6/6 491/6/6 497/6/6
f 496/1/6 490/1/6 497/1/6
f 491/1/6 492/1/6 498/1/6
f 497/6/6 491/6/6 498/6/6
f 492/6/6 493/6/6 499/6/6
f 498/1/6 492/1/6 499/1/6
f 493/1/6 494/1/6 500/1/6
f 499/6/6 493/6/6 500/6/6
f 500/1/6 494/1/6 501/1/6
f 497/6/6 498/6/6 502/6/6
f 498/6/6 499/6/6 502/6/6
f 500/6/6 501/6/6 502/6/6
f 499/6/6 500/6/6 502/6/6
f 467/1/6 496/1/6 502/1/6
f 496/6/6 497/6/6 502/6/6
f 502/6/6 501/6/6 503/6/6
f 503/6/6 501/6/6 504/6/6
f 504/6/6 501/6/6 505/6/6
f 505/6/6 501/6/6 506/6/6
f 501/1/6 494/1/6 507/1/6
f 506/6/6 501/6/6 507/6/6
f 502/1/6 503/1/6 508/1/6
f 503/6/6 504/6/6 508/6/6
f 504/1/6 505/1/6 509/1/6
f 508/6/6 504/6/6 509/6/6
f 505/6/6 506/6/6 510/6/6
f 509/1/6 505/1/6 510/1/6
f 506/1/6 507/1/6 511/1/6
f 510/6/6 506/6/6 511/6/6
f 494/8/6 495/8/6 512/8/6
f 511/1/6 507/1/6 512/1/6
f 507/1/6 494/1/6 512/1/6
f 495/3/6 470/3/6 513/3/6
f 512/8/6 495/8/6 513/8/6
f 508/1/6 509/1/6 514/1/6
f 510/1/6 511/1/6 514/1/6
f 511/1/6 512/1/6 514/1/6
f 509/1/6 510/1/6 514/1/6
f 502/1/6 508/1/6 514/1/6
f 467/1/6 502/1/6 514/1/6
f 514/1/6 512/1/6 515/1/6
f 467/1/6 514/1/6 516/1/6
f 514/4/6 515/4/6 516/4/6
f 515/1/6 512/1/6 517/1/6
f 516/4/6 515/4/6 517/4/6
f 517/1/6 512/1/6 518/1/6
f 518/1/6 512/1/6 519/1/6
f 519/1/6 512/1/6 520/1/6
f 517/6/6 518/6/6 521/6/6
f 521/6/6 518/6/6 522/6/6
f 518/1/6 519/1/6 523/1/6
f 522/6/6 518/6/6 523/6/6
f 519/6/6 520/6/6 524/6/6
f 523/1/6 519/1/6 524/1/6
f 520/1/6 512/1/6 525/1/6
f 524/6/6 520/6/6 525/6/6
f 467/1/6 516/1/6 526/1/6
f 516/1/6 517/1/6 526/1/6
f 517/6/6 521/6/6 527/6/6
f 526/1/6 517/1/6 527/1/6
f 521/1/6 522/1/6 528/1/6
f 527/6/6 521/6/6 528/6/6
f 523/6/6 524/6/6 529/6/6
f 528/1/6 522/1/6 529/1/6
f 522/6/6 523/6/6 529/6/6
f 524/1/6 525/1/6 530/1/6
f 529/6/6 524/6/6 530/6/6
f 526/4/6 527/4/6 531/4/6
f 467/1/6 526/1/6 531/1/6
f 528/1/6 529/1/6 532/1/6
f 531/4/6 527/4/6 532/4/6
f 527/1/6 528/1/6 532/1/6
f 529/1/6 530/1/6 532/1/6
f 467/1/6 531/1/6 533/1/6
f 531/1/6 532/1/6 533/1/6
f 533/1/6 532/1/6 534/1/6
f 513/3/6 470/3/6 535/3/6
f 512/5/6 513/5/6 535/5/6
f 470/3/6 461/3/6 536/3/6
f 535/3/6 470/3/6 536/3/6
f 534/1/6 532/1/6 537/1/6
f 532/1/6 530/1/6 538/1/6
f 537/1/6 532/1/6 538/1/6
f 512/5/6 535/5/6 539/5/6
f 538/1/6 530/1/6 539/1/6
f 525/1/6 512/1/6 539/1/6
f 530/1/6 525/1/6 539/1/6
f 535/7/6 536/7/6 540/7/6
f 539/5/6 535/5/6 540/5/6
f 536/3/6 461/3/6 541/3/6
f 540/7/6 536/7/6 541/7/6
f 538/1/6 539/1/6 542/1/6
f 539/2/6 540/2/6 543/2/6
f 542/1/6 539/1/6 543/1/6
f 540/3/6 541/3/6 544/3/6
f 543/2/6 540/2/6 544/2/6
f 541/3/6 461/3/6 545/3/6
f 544/3/6 541/3/6 545/3/6
