# MagicaVoxel @ Ephtracy

# group
o Decoration - Desert - Stone Obelisk Top

# material
mtllib Medieval Assets-102-Decoration - Desert - Stone Obelisk Top.mtl
usemtl palette

# normals
vn -1 0 0
vn 1 0 0
vn 0 0 1
vn 0 0 -1
vn 0 -1 0
vn 0 1 0

# texcoords
vt 0.376953 0.5
vt 0.380859 0.5

# verts
v -28.2 0.1 -27.7
v -28.2 0.1 -28.1
v -28.2 0.1 -28.3
v -28.2 0.2 -27.7
v -28.2 0.2 -27.8
v -28.2 0.2 -28.1
v -28.2 0.2 -28.3
v -28.2 0.3 -27.7
v -28.2 0.3 -27.8
v -28.2 0.3 -28
v -28.2 0.4 -27.7
v -28.2 0.4 -27.8
v -28.2 0.4 -28
v -28.2 0.4 -28.3
v -28.1 0.4 -27.8
v -28.1 0.4 -28
v -28.1 0.4 -28.2
v -28.1 0.5 -27.9
v -28.1 0.5 -28
v -28.1 0.5 -28.1
v -28.1 0.7 -27.8
v -28.1 0.7 -27.9
v -28.1 0.7 -28
v -28.1 0.7 -28.1
v -28.1 0.7 -28.2
v -28.1 0.8 -27.8
v -28.1 0.8 -27.9
v -28.1 0.9 -27.8
v -28.1 0.9 -27.9
v -28.1 0.9 -28.1
v -28.1 0.9 -28.2
v -28 0.9 -27.9
v -28 0.9 -28.1
v -28 1 -28
v -28 1 -28.1
v -28 1.2 -27.9
v -28 1.2 -28
v -28 1.4 -27.9
v -28 1.4 -28.1
v -27.8 0.9 -27.9
v -27.8 0.9 -28
v -27.8 0.9 -28.1
v -27.8 1 -27.9
v -27.8 1 -28
v -27.8 1.2 -27.9
v -27.8 1.2 -28
v -27.8 1.3 -28
v -27.8 1.3 -28.1
v -27.8 1.4 -27.9
v -27.8 1.4 -28.1
v -27.7 0.4 -27.8
v -27.7 0.4 -27.9
v -27.7 0.4 -28
v -27.7 0.4 -28.1
v -27.7 0.4 -28.2
v -27.7 0.5 -27.9
v -27.7 0.5 -28
v -27.7 0.6 -27.8
v -27.7 0.6 -28
v -27.7 0.8 -27.8
v -27.7 0.8 -28.1
v -27.7 0.9 -27.8
v -27.7 0.9 -28.2
v -27.6 0.1 -27.7
v -27.6 0.1 -28.3
v -27.6 0.2 -27.7
v -27.6 0.2 -27.8
v -27.6 0.2 -28
v -27.6 0.2 -28.1
v -27.6 0.3 -27.8
v -27.6 0.3 -28
v -27.6 0.3 -28.1
v -27.6 0.4 -27.7
v -27.6 0.4 -28
v -27.6 0.4 -28.3
v -28.2 0.1 -27.7
v -28.2 0.2 -27.7
v -28.2 0.3 -27.7
v -28.2 0.4 -27.7
v -28.1 0.2 -27.7
v -28.1 0.3 -27.7
v -28.1 0.4 -27.7
v -28 0.1 -27.7
v -28 0.2 -27.7
v -28 0.3 -27.7
v -28 0.4 -27.7
v -27.9 0.2 -27.7
v -27.9 0.3 -27.7
v -27.8 0.3 -27.7
v -27.8 0.4 -27.7
v -27.7 0.1 -27.7
v -27.7 0.2 -27.7
v -27.6 0.1 -27.7
v -27.6 0.2 -27.7
v -27.6 0.4 -27.7
v -28.1 0.4 -27.8
v -28.1 0.7 -27.8
v -28.1 0.8 -27.8
v -28.1 0.9 -27.8
v -28 0.4 -27.8
v -28 0.5 -27.8
v -28 0.7 -27.8
v -28 0.8 -27.8
v -27.9 0.4 -27.8
v -27.9 0.5 -27.8
v -27.9 0.7 -27.8
v -27.9 0.8 -27.8
v -27.8 0.4 -27.8
v -27.8 0.6 -27.8
v -27.7 0.4 -27.8
v -27.7 0.6 -27.8
v -27.7 0.8 -27.8
v -27.7 0.9 -27.8
v -28 0.9 -27.9
v -28 1.2 -27.9
v -28 1.4 -27.9
v -27.9 1 -27.9
v -27.9 1.2 -27.9
v -27.9 1.4 -27.9
v -27.8 0.9 -27.9
v -27.8 1 -27.9
v -27.8 1.2 -27.9
v -27.8 1.4 -27.9
v -28 0.9 -28.1
v -28 1 -28.1
v -28 1.4 -28.1
v -27.9 0.9 -28.1
v -27.9 1 -28.1
v -27.9 1.3 -28.1
v -27.9 1.4 -28.1
v -27.8 0.9 -28.1
v -27.8 1.3 -28.1
v -27.8 1.4 -28.1
v -28.1 0.4 -28.2
v -28.1 0.7 -28.2
v -28.1 0.9 -28.2
v -27.9 0.6 -28.2
v -27.9 0.7 -28.2
v -27.9 0.8 -28.2
v -27.9 0.9 -28.2
v -27.8 0.4 -28.2
v -27.8 0.6 -28.2
v -27.8 0.8 -28.2
v -27.8 0.9 -28.2
v -27.7 0.4 -28.2
v -27.7 0.9 -28.2
v -28.2 0.1 -28.3
v -28.2 0.2 -28.3
v -28.2 0.4 -28.3
v -28 0.1 -28.3
v -28 0.2 -28.3
v -27.8 0.1 -28.3
v -27.8 0.4 -28.3
v -27.7 0.1 -28.3
v -27.7 0.4 -28.3
v -27.6 0.1 -28.3
v -27.6 0.4 -28.3
v -28.2 0.1 -27.7
v -28 0.1 -27.7
v -27.7 0.1 -27.7
v -27.6 0.1 -27.7
v -27.9 0.1 -27.8
v -27.7 0.1 -27.8
v -28.1 0.1 -28
v -28 0.1 -28
v -28.2 0.1 -28.1
v -28.1 0.1 -28.1
v -27.9 0.1 -28.1
v -28.1 0.1 -28.2
v -28 0.1 -28.2
v -27.8 0.1 -28.2
v -27.7 0.1 -28.2
v -28.2 0.1 -28.3
v -28 0.1 -28.3
v -27.8 0.1 -28.3
v -27.7 0.1 -28.3
v -27.6 0.1 -28.3
v -28.2 0.4 -27.7
v -28.1 0.4 -27.7
v -28 0.4 -27.7
v -27.8 0.4 -27.7
v -27.6 0.4 -27.7
v -28.2 0.4 -27.8
v -28.1 0.4 -27.8
v -28 0.4 -27.8
v -27.9 0.4 -27.8
v -27.8 0.4 -27.8
v -27.7 0.4 -27.8
v -27.7 0.4 -27.9
v -28.2 0.4 -28
v -28.1 0.4 -28
v -27.7 0.4 -28
v -27.6 0.4 -28
v -27.7 0.4 -28.1
v -28.1 0.4 -28.2
v -27.8 0.4 -28.2
v -27.7 0.4 -28.2
v -28.2 0.4 -28.3
v -27.8 0.4 -28.3
v -27.7 0.4 -28.3
v -27.6 0.4 -28.3
v -28.1 0.9 -27.8
v -27.7 0.9 -27.8
v -28.1 0.9 -27.9
v -28 0.9 -27.9
v -27.8 0.9 -27.9
v -27.8 0.9 -28
v -28.1 0.9 -28.1
v -28 0.9 -28.1
v -27.9 0.9 -28.1
v -27.8 0.9 -28.1
v -28.1 0.9 -28.2
v -27.9 0.9 -28.2
v -27.8 0.9 -28.2
v -27.7 0.9 -28.2
v -28 1.4 -27.9
v -27.9 1.4 -27.9
v -27.8 1.4 -27.9
v -28 1.4 -28.1
v -27.9 1.4 -28.1
v -27.8 1.4 -28.1

# faces
f 4/2/1 2/2/1 1/2/1
f 5/2/1 2/2/1 4/2/1
f 6/1/1 3/1/1 2/1/1
f 6/2/1 2/2/1 5/2/1
f 7/1/1 3/1/1 6/1/1
f 8/1/1 5/1/1 4/1/1
f 9/2/1 6/2/1 5/2/1
f 9/1/1 5/1/1 8/1/1
f 9/2/1 7/2/1 6/2/1
f 10/2/1 7/2/1 9/2/1
f 11/2/1 9/2/1 8/2/1
f 12/1/1 10/1/1 9/1/1
f 12/2/1 9/2/1 11/2/1
f 13/2/1 7/2/1 10/2/1
f 13/1/1 10/1/1 12/1/1
f 14/2/1 7/2/1 13/2/1
f 18/1/1 16/1/1 15/1/1
f 19/2/1 17/2/1 16/2/1
f 19/1/1 16/1/1 18/1/1
f 20/2/1 17/2/1 19/2/1
f 21/1/1 18/1/1 15/1/1
f 22/2/1 19/2/1 18/2/1
f 22/1/1 18/1/1 21/1/1
f 23/1/1 20/1/1 19/1/1
f 23/2/1 19/2/1 22/2/1
f 24/2/1 17/2/1 20/2/1
f 24/1/1 20/1/1 23/1/1
f 25/2/1 17/2/1 24/2/1
f 26/2/1 23/2/1 22/2/1
f 26/2/1 22/2/1 21/2/1
f 26/2/1 24/2/1 23/2/1
f 27/2/1 24/2/1 26/2/1
f 28/1/1 27/1/1 26/1/1
f 29/2/1 24/2/1 27/2/1
f 29/1/1 27/1/1 28/1/1
f 30/1/1 25/1/1 24/1/1
f 30/2/1 24/2/1 29/2/1
f 31/1/1 25/1/1 30/1/1
f 34/1/1 33/1/1 32/1/1
f 35/1/1 33/1/1 34/1/1
f 36/1/1 34/1/1 32/1/1
f 37/2/1 35/2/1 34/2/1
f 37/1/1 34/1/1 36/1/1
f 38/2/1 37/2/1 36/2/1
f 39/2/1 35/2/1 37/2/1
f 39/2/1 37/2/1 38/2/1
f 40/1/2 41/1/2 43/1/2
f 41/2/2 42/2/2 44/2/2
f 43/1/2 41/1/2 44/1/2
f 43/2/2 44/2/2 45/2/2
f 44/2/2 42/2/2 46/2/2
f 45/2/2 44/2/2 46/2/2
f 45/1/2 46/1/2 47/1/2
f 46/2/2 42/2/2 47/2/2
f 47/2/2 42/2/2 48/2/2
f 45/1/2 47/1/2 49/1/2
f 47/1/2 48/1/2 49/1/2
f 49/1/2 48/1/2 50/1/2
f 51/1/2 52/1/2 56/1/2
f 52/2/2 53/2/2 56/2/2
f 53/2/2 54/2/2 56/2/2
f 56/2/2 54/2/2 57/2/2
f 51/1/2 56/1/2 58/1/2
f 56/1/2 57/1/2 58/1/2
f 57/2/2 54/2/2 59/2/2
f 58/1/2 57/1/2 59/1/2
f 58/2/2 59/2/2 60/2/2
f 54/1/2 55/1/2 61/1/2
f 60/2/2 59/2/2 61/2/2
f 59/2/2 54/2/2 61/2/2
f 60/1/2 61/1/2 62/1/2
f 61/1/2 55/1/2 63/1/2
f 62/1/2 61/1/2 63/1/2
f 64/2/2 65/2/2 66/2/2
f 66/2/2 65/2/2 67/2/2
f 67/2/2 65/2/2 68/2/2
f 68/2/2 65/2/2 69/2/2
f 66/1/2 67/1/2 70/1/2
f 67/2/2 68/2/2 70/2/2
f 68/1/2 69/1/2 71/1/2
f 70/2/2 68/2/2 71/2/2
f 69/2/2 65/2/2 72/2/2
f 71/1/2 69/1/2 72/1/2
f 70/1/2 71/1/2 73/1/2
f 66/1/2 70/1/2 73/1/2
f 71/2/2 72/2/2 74/2/2
f 73/1/2 71/1/2 74/1/2
f 72/2/2 65/2/2 75/2/2
f 74/2/2 72/2/2 75/2/2
f 80/2/3 77/2/3 76/2/3
f 80/1/3 78/1/3 77/1/3
f 81/2/3 79/2/3 78/2/3
f 81/1/3 78/1/3 80/1/3
f 82/2/3 79/2/3 81/2/3
f 83/2/3 80/2/3 76/2/3
f 83/2/3 81/2/3 80/2/3
f 84/2/3 81/2/3 83/2/3
f 85/1/3 82/1/3 81/1/3
f 85/2/3 81/2/3 84/2/3
f 86/1/3 82/1/3 85/1/3
f 87/1/3 84/1/3 83/1/3
f 87/2/3 85/2/3 84/2/3
f 87/2/3 86/2/3 85/2/3
f 88/2/3 86/2/3 87/2/3
f 89/1/3 88/1/3 87/1/3
f 89/2/3 86/2/3 88/2/3
f 90/2/3 86/2/3 89/2/3
f 91/1/3 87/1/3 83/1/3
f 91/1/3 89/1/3 87/1/3
f 91/1/3 90/1/3 89/1/3
f 92/1/3 90/1/3 91/1/3
f 93/2/3 92/2/3 91/2/3
f 94/1/3 90/1/3 92/1/3
f 94/2/3 92/2/3 93/2/3
f 95/1/3 90/1/3 94/1/3
f 100/1/3 97/1/3 96/1/3
f 101/1/3 97/1/3 100/1/3
f 102/2/3 98/2/3 97/2/3
f 102/1/3 97/1/3 101/1/3
f 103/1/3 99/1/3 98/1/3
f 103/2/3 98/2/3 102/2/3
f 104/1/3 101/1/3 100/1/3
f 105/2/3 102/2/3 101/2/3
f 105/1/3 101/1/3 104/1/3
f 106/1/3 103/1/3 102/1/3
f 106/2/3 102/2/3 105/2/3
f 107/1/3 99/1/3 103/1/3
f 107/1/3 103/1/3 106/1/3
f 108/2/3 106/2/3 105/2/3
f 108/2/3 105/2/3 104/2/3
f 108/2/3 107/2/3 106/2/3
f 109/2/3 107/2/3 108/2/3
f 110/1/3 109/1/3 108/1/3
f 111/2/3 107/2/3 109/2/3
f 111/1/3 109/1/3 110/1/3
f 112/1/3 99/1/3 107/1/3
f 112/2/3 107/2/3 111/2/3
f 113/1/3 99/1/3 112/1/3
f 117/1/3 115/1/3 114/1/3
f 118/2/3 116/2/3 115/2/3
f 118/1/3 115/1/3 117/1/3
f 119/2/3 116/2/3 118/2/3
f 120/1/3 117/1/3 114/1/3
f 121/2/3 118/2/3 117/2/3
f 121/1/3 117/1/3 120/1/3
f 122/1/3 119/1/3 118/1/3
f 122/2/3 118/2/3 121/2/3
f 123/1/3 119/1/3 122/1/3
f 124/1/4 125/1/4 127/1/4
f 125/2/4 126/2/4 128/2/4
f 127/1/4 125/1/4 128/1/4
f 128/2/4 126/2/4 129/2/4
f 129/2/4 126/2/4 130/2/4
f 127/2/4 128/2/4 131/2/4
f 128/2/4 129/2/4 131/2/4
f 129/1/4 130/1/4 132/1/4
f 131/2/4 129/2/4 132/2/4
f 132/1/4 130/1/4 133/1/4
f 134/2/4 135/2/4 137/2/4
f 135/1/4 136/1/4 138/1/4
f 137/2/4 135/2/4 138/2/4
f 138/1/4 136/1/4 139/1/4
f 139/1/4 136/1/4 140/1/4
f 134/2/4 137/2/4 141/2/4
f 137/1/4 138/1/4 142/1/4
f 141/2/4 137/2/4 142/2/4
f 138/1/4 139/1/4 142/1/4
f 139/2/4 140/2/4 143/2/4
f 142/1/4 139/1/4 143/1/4
f 143/2/4 140/2/4 144/2/4
f 141/1/4 142/1/4 145/1/4
f 142/1/4 143/1/4 145/1/4
f 143/1/4 144/1/4 145/1/4
f 145/1/4 144/1/4 146/1/4
f 147/1/4 148/1/4 150/1/4
f 148/2/4 149/2/4 151/2/4
f 150/1/4 148/1/4 151/1/4
f 150/2/4 151/2/4 152/2/4
f 151/2/4 149/2/4 153/2/4
f 152/2/4 151/2/4 153/2/4
f 152/1/4 153/1/4 154/1/4
f 154/1/4 153/1/4 155/1/4
f 154/2/4 155/2/4 156/2/4
f 156/2/4 155/2/4 157/2/4
f 162/1/5 160/1/5 159/1/5
f 163/2/5 161/2/5 160/2/5
f 163/1/5 160/1/5 162/1/5
f 164/2/5 159/2/5 158/2/5
f 165/1/5 162/1/5 159/1/5
f 165/2/5 159/2/5 164/2/5
f 166/2/5 164/2/5 158/2/5
f 167/1/5 165/1/5 164/1/5
f 167/2/5 164/2/5 166/2/5
f 168/1/5 162/1/5 165/1/5
f 168/1/5 165/1/5 167/1/5
f 168/2/5 163/2/5 162/2/5
f 169/1/5 167/1/5 166/1/5
f 169/2/5 168/2/5 167/2/5
f 170/2/5 168/2/5 169/2/5
f 171/2/5 163/2/5 168/2/5
f 171/2/5 168/2/5 170/2/5
f 172/2/5 161/2/5 163/2/5
f 172/2/5 163/2/5 171/2/5
f 173/1/5 170/1/5 169/1/5
f 173/1/5 169/1/5 166/1/5
f 174/2/5 171/2/5 170/2/5
f 174/1/5 170/1/5 173/1/5
f 175/1/5 172/1/5 171/1/5
f 175/2/5 171/2/5 174/2/5
f 176/2/5 161/2/5 172/2/5
f 176/1/5 172/1/5 175/1/5
f 177/2/5 161/2/5 176/2/5
f 178/2/6 179/2/6 183/2/6
f 179/1/6 180/1/6 184/1/6
f 183/2/6 179/2/6 184/2/6
f 180/2/6 181/2/6 185/2/6
f 184/1/6 180/1/6 185/1/6
f 185/2/6 181/2/6 186/2/6
f 181/1/6 182/1/6 187/1/6
f 186/2/6 181/2/6 187/2/6
f 187/1/6 182/1/6 188/1/6
f 188/1/6 182/1/6 189/1/6
f 183/1/6 184/1/6 190/1/6
f 190/1/6 184/1/6 191/1/6
f 189/1/6 182/1/6 192/1/6
f 192/1/6 182/1/6 193/1/6
f 192/2/6 193/2/6 194/2/6
f 190/2/6 191/2/6 195/2/6
f 194/2/6 193/2/6 197/2/6
f 195/2/6 196/2/6 198/2/6
f 190/2/6 195/2/6 198/2/6
f 196/1/6 197/1/6 199/1/6
f 198/2/6 196/2/6 199/2/6
f 197/2/6 193/2/6 200/2/6
f 199/1/6 197/1/6 200/1/6
f 200/2/6 193/2/6 201/2/6
f 202/1/6 203/1/6 204/1/6
f 204/1/6 203/1/6 205/1/6
f 205/1/6 203/1/6 206/1/6
f 206/1/6 203/1/6 207/1/6
f 204/2/6 205/2/6 208/2/6
f 208/2/6 205/2/6 209/2/6
f 207/1/6 203/1/6 211/1/6
f 209/1/6 210/1/6 212/1/6
f 208/1/6 209/1/6 212/1/6
f 210/2/6 211/2/6 213/2/6
f 212/1/6 210/1/6 213/1/6
f 211/1/6 203/1/6 214/1/6
f 213/2/6 211/2/6 214/2/6
f 214/1/6 203/1/6 215/1/6
f 216/2/6 217/2/6 219/2/6
f 217/1/6 218/1/6 220/1/6
f 219/2/6 217/2/6 220/2/6
f 220/1/6 218/1/6 221/1/6
