# MagicaVoxel @ Ephtracy

# group
o Graveyard - Grave Crypt

# material
mtllib Medieval Assets-191-Graveyard - Grave Crypt.mtl
usemtl palette

# normals
vn -1 0 0
vn 1 0 0
vn 0 0 1
vn 0 0 -1
vn 0 -1 0
vn 0 1 0

# texcoords
vt 0.130859 0.5
vt 0.134766 0.5
vt 0.138672 0.5
vt 0.150391 0.5
vt 0.166016 0.5

# verts
v -30.4 0.7 -15.8
v -30.4 0.7 -16.8
v -30.4 0.8 -15.8
v -30.4 0.8 -16.8
v -30.4 1.2 -15.9
v -30.4 1.2 -16.7
v -30.4 1.3 -15.9
v -30.4 1.3 -16.7
v -30.3 0.8 -15.9
v -30.3 0.8 -16.4
v -30.3 0.8 -16.7
v -30.3 0.9 -15.9
v -30.3 0.9 -16
v -30.3 0.9 -16.4
v -30.3 0.9 -16.5
v -30.3 1 -16
v -30.3 1 -16.5
v -30.3 1 -16.7
v -30.3 1.1 -15.9
v -30.3 1.1 -16
v -30.3 1.1 -16.1
v -30.3 1.1 -16.5
v -30.3 1.2 -15.9
v -30.3 1.2 -16
v -30.3 1.2 -16.1
v -30.3 1.2 -16.7
v -30.3 1.3 -15.8
v -30.3 1.3 -15.9
v -30.3 1.3 -16.7
v -30.3 1.4 -15.8
v -30.3 1.4 -16.7
v -30.2 1.4 -15.8
v -30.2 1.4 -16.7
v -30.2 1.7 -15.8
v -30.2 1.7 -16.7
v -30.1 0.8 -15.8
v -30.1 0.8 -15.9
v -30.1 1.3 -15.8
v -30.1 1.3 -15.9
v -30.1 1.7 -16
v -30.1 1.7 -16.7
v -30.1 1.8 -16
v -30.1 1.8 -16.7
v -30 1.8 -16.1
v -30 1.8 -16.6
v -30 1.9 -16.1
v -30 1.9 -16.6
v -29.7 1.6 -15.8
v -29.7 1.6 -15.9
v -29.7 1.7 -15.8
v -29.7 1.7 -15.9
v -29.6 0.7 -15.8
v -29.6 0.7 -15.9
v -29.6 1.3 -15.8
v -29.6 1.3 -15.9
v -29.6 1.4 -15.8
v -29.6 1.4 -15.9
v -29.6 1.6 -15.8
v -29.6 1.6 -15.9
v -29.5 1.3 -15.8
v -29.5 1.3 -15.9
v -29.5 1.4 -15.8
v -29.5 1.4 -15.9
v -29.4 0.7 -16
v -29.4 0.7 -16.2
v -29.4 0.7 -16.6
v -29.4 0.8 -16
v -29.4 0.8 -16.2
v -29.4 0.8 -16.4
v -29.4 0.8 -16.6
v -29.4 0.9 -16.4
v -29.4 0.9 -16.5
v -29.4 1 -16
v -29.4 1 -16.5
v -29.4 1 -16.6
v -29.4 1.1 -16.1
v -29.4 1.1 -16.5
v -29.4 1.1 -16.6
v -29.4 1.2 -16
v -29.4 1.2 -16.1
v -29.4 1.2 -16.6
v -29.4 1.3 -16
v -29.4 1.3 -16.6
v -29.4 1.4 -16
v -29.4 1.4 -16.6
v -30.2 0.7 -16
v -30.2 0.7 -16.2
v -30.2 0.7 -16.6
v -30.2 0.8 -16
v -30.2 0.8 -16.2
v -30.2 0.8 -16.4
v -30.2 0.8 -16.6
v -30.2 0.9 -16.4
v -30.2 0.9 -16.5
v -30.2 1 -16
v -30.2 1 -16.5
v -30.2 1 -16.6
v -30.2 1.1 -16.1
v -30.2 1.1 -16.5
v -30.2 1.1 -16.6
v -30.2 1.2 -16
v -30.2 1.2 -16.1
v -30.2 1.2 -16.6
v -30.2 1.3 -16
v -30.2 1.3 -16.6
v -30.2 1.4 -16
v -30.2 1.4 -16.6
v -30.1 1.3 -15.8
v -30.1 1.3 -15.9
v -30.1 1.4 -15.8
v -30.1 1.4 -15.9
v -30 0.7 -15.8
v -30 0.7 -15.9
v -30 1.3 -15.8
v -30 1.3 -15.9
v -30 1.4 -15.8
v -30 1.4 -15.9
v -30 1.6 -15.8
v -30 1.6 -15.9
v -29.9 1.6 -15.8
v -29.9 1.6 -15.9
v -29.9 1.7 -15.8
v -29.9 1.7 -15.9
v -29.6 1.8 -16.1
v -29.6 1.8 -16.6
v -29.6 1.9 -16.1
v -29.6 1.9 -16.6
v -29.5 0.8 -15.8
v -29.5 0.8 -15.9
v -29.5 1.3 -15.8
v -29.5 1.3 -15.9
v -29.5 1.7 -16
v -29.5 1.7 -16.7
v -29.5 1.8 -16
v -29.5 1.8 -16.7
v -29.4 1.4 -15.8
v -29.4 1.4 -16.7
v -29.4 1.7 -15.8
v -29.4 1.7 -16.7
v -29.3 0.8 -15.9
v -29.3 0.8 -16.4
v -29.3 0.8 -16.7
v -29.3 0.9 -15.9
v -29.3 0.9 -16
v -29.3 0.9 -16.4
v -29.3 0.9 -16.5
v -29.3 1 -16
v -29.3 1 -16.5
v -29.3 1 -16.7
v -29.3 1.1 -15.9
v -29.3 1.1 -16
v -29.3 1.1 -16.1
v -29.3 1.1 -16.5
v -29.3 1.2 -15.9
v -29.3 1.2 -16
v -29.3 1.2 -16.1
v -29.3 1.2 -16.7
v -29.3 1.3 -15.8
v -29.3 1.3 -15.9
v -29.3 1.3 -16.7
v -29.3 1.4 -15.8
v -29.3 1.4 -16.7
v -29.2 0.7 -15.8
v -29.2 0.7 -16.8
v -29.2 0.8 -15.8
v -29.2 0.8 -16.8
v -29.2 1.2 -15.9
v -29.2 1.2 -16.7
v -29.2 1.3 -15.9
v -29.2 1.3 -16.7
v -30.4 0.7 -15.8
v -30.4 0.8 -15.8
v -30.3 1.3 -15.8
v -30.3 1.4 -15.8
v -30.2 1.4 -15.8
v -30.2 1.7 -15.8
v -30.1 0.8 -15.8
v -30.1 1.3 -15.8
v -30.1 1.4 -15.8
v -30 0.7 -15.8
v -30 1.3 -15.8
v -30 1.4 -15.8
v -30 1.6 -15.8
v -29.9 1.6 -15.8
v -29.9 1.7 -15.8
v -29.7 1.6 -15.8
v -29.7 1.7 -15.8
v -29.6 0.7 -15.8
v -29.6 1.3 -15.8
v -29.6 1.4 -15.8
v -29.6 1.6 -15.8
v -29.5 0.8 -15.8
v -29.5 1.3 -15.8
v -29.5 1.4 -15.8
v -29.4 1.4 -15.8
v -29.4 1.7 -15.8
v -29.3 1.3 -15.8
v -29.3 1.4 -15.8
v -29.2 0.7 -15.8
v -29.2 0.8 -15.8
v -30.4 1.2 -15.9
v -30.4 1.3 -15.9
v -30.3 0.8 -15.9
v -30.3 0.9 -15.9
v -30.3 1.1 -15.9
v -30.3 1.2 -15.9
v -30.3 1.3 -15.9
v -30.2 0.9 -15.9
v -30.2 1.1 -15.9
v -30.1 0.8 -15.9
v -30.1 1.3 -15.9
v -30.1 1.4 -15.9
v -30 0.7 -15.9
v -30 1.3 -15.9
v -30 1.4 -15.9
v -30 1.6 -15.9
v -29.9 1.6 -15.9
v -29.9 1.7 -15.9
v -29.7 1.6 -15.9
v -29.7 1.7 -15.9
v -29.6 0.7 -15.9
v -29.6 1.3 -15.9
v -29.6 1.4 -15.9
v -29.6 1.6 -15.9
v -29.5 0.8 -15.9
v -29.5 1.3 -15.9
v -29.5 1.4 -15.9
v -29.4 0.9 -15.9
v -29.4 1.1 -15.9
v -29.3 0.8 -15.9
v -29.3 0.9 -15.9
v -29.3 1.1 -15.9
v -29.3 1.2 -15.9
v -29.3 1.3 -15.9
v -29.2 1.2 -15.9
v -29.2 1.3 -15.9
v -30.1 1.7 -16
v -30.1 1.8 -16
v -29.5 1.7 -16
v -29.5 1.8 -16
v -30 1.8 -16.1
v -30 1.9 -16.1
v -29.6 1.8 -16.1
v -29.6 1.9 -16.1
v -30.2 0.7 -16.6
v -30.2 0.8 -16.6
v -30.2 1 -16.6
v -30.2 1.1 -16.6
v -30.2 1.2 -16.6
v -30.2 1.3 -16.6
v -30.2 1.4 -16.6
v -30 0.9 -16.6
v -30 1 -16.6
v -29.6 0.9 -16.6
v -29.6 1 -16.6
v -29.4 0.7 -16.6
v -29.4 0.8 -16.6
v -29.4 1 -16.6
v -29.4 1.1 -16.6
v -29.4 1.2 -16.6
v -29.4 1.3 -16.6
v -29.4 1.4 -16.6
v -30.2 0.7 -16
v -30.2 0.8 -16
v -30.2 1 -16
v -30.2 1.2 -16
v -30.2 1.3 -16
v -30.2 1.4 -16
v -30.1 1.1 -16
v -30.1 1.3 -16
v -30 0.7 -16
v -30 1.1 -16
v -30 1.3 -16
v -29.6 0.7 -16
v -29.6 1.1 -16
v -29.6 1.3 -16
v -29.5 1.1 -16
v -29.5 1.3 -16
v -29.4 0.7 -16
v -29.4 0.8 -16
v -29.4 1 -16
v -29.4 1.2 -16
v -29.4 1.3 -16
v -29.4 1.4 -16
v -30 1.8 -16.6
v -30 1.9 -16.6
v -29.6 1.8 -16.6
v -29.6 1.9 -16.6
v -30.4 1.2 -16.7
v -30.4 1.3 -16.7
v -30.3 0.8 -16.7
v -30.3 1 -16.7
v -30.3 1.2 -16.7
v -30.3 1.3 -16.7
v -30.3 1.4 -16.7
v -30.2 0.8 -16.7
v -30.2 1 -16.7
v -30.2 1.1 -16.7
v -30.2 1.2 -16.7
v -30.2 1.3 -16.7
v -30.2 1.4 -16.7
v -30.2 1.7 -16.7
v -30.1 1.7 -16.7
v -30.1 1.8 -16.7
v -30 0.9 -16.7
v -30 1 -16.7
v -29.6 0.9 -16.7
v -29.6 1 -16.7
v -29.5 1.7 -16.7
v -29.5 1.8 -16.7
v -29.4 0.8 -16.7
v -29.4 1 -16.7
v -29.4 1.1 -16.7
v -29.4 1.2 -16.7
v -29.4 1.3 -16.7
v -29.4 1.4 -16.7
v -29.4 1.7 -16.7
v -29.3 0.8 -16.7
v -29.3 1 -16.7
v -29.3 1.2 -16.7
v -29.3 1.3 -16.7
v -29.3 1.4 -16.7
v -29.2 1.2 -16.7
v -29.2 1.3 -16.7
v -30.4 0.7 -16.8
v -30.4 0.8 -16.8
v -29.2 0.7 -16.8
v -29.2 0.8 -16.8
v -30.4 0.7 -15.8
v -30 0.7 -15.8
v -29.6 0.7 -15.8
v -29.2 0.7 -15.8
v -30.2 0.7 -15.9
v -30 0.7 -15.9
v -29.6 0.7 -15.9
v -29.4 0.7 -15.9
v -30.2 0.7 -16
v -30 0.7 -16
v -29.6 0.7 -16
v -29.4 0.7 -16
v -30.3 0.7 -16.2
v -30.2 0.7 -16.2
v -29.4 0.7 -16.2
v -29.3 0.7 -16.2
v -30.2 0.7 -16.6
v -29.4 0.7 -16.6
v -30.3 0.7 -16.7
v -30.2 0.7 -16.7
v -29.4 0.7 -16.7
v -29.3 0.7 -16.7
v -30.4 0.7 -16.8
v -29.2 0.7 -16.8
v -30.4 1.2 -15.9
v -30.3 1.2 -15.9
v -29.3 1.2 -15.9
v -29.2 1.2 -15.9
v -30.3 1.2 -16
v -29.3 1.2 -16
v -30.3 1.2 -16.1
v -29.3 1.2 -16.1
v -30.4 1.2 -16.7
v -30.3 1.2 -16.7
v -29.3 1.2 -16.7
v -29.2 1.2 -16.7
v -30.3 1.3 -15.8
v -30.1 1.3 -15.8
v -29.5 1.3 -15.8
v -29.3 1.3 -15.8
v -30.3 1.3 -15.9
v -30.1 1.3 -15.9
v -29.5 1.3 -15.9
v -29.3 1.3 -15.9
v -30.1 1.4 -15.8
v -30 1.4 -15.8
v -29.6 1.4 -15.8
v -29.5 1.4 -15.8
v -30.1 1.4 -15.9
v -30 1.4 -15.9
v -29.6 1.4 -15.9
v -29.5 1.4 -15.9
v -30.2 1.4 -16
v -29.4 1.4 -16
v -30.2 1.4 -16.6
v -29.4 1.4 -16.6
v -30 1.6 -15.8
v -29.9 1.6 -15.8
v -29.7 1.6 -15.8
v -29.6 1.6 -15.8
v -30 1.6 -15.9
v -29.9 1.6 -15.9
v -29.7 1.6 -15.9
v -29.6 1.6 -15.9
v -30.4 0.8 -15.8
v -30.1 0.8 -15.8
v -29.5 0.8 -15.8
v -29.2 0.8 -15.8
v -30.3 0.8 -15.9
v -30.1 0.8 -15.9
v -29.5 0.8 -15.9
v -29.3 0.8 -15.9
v -30.3 0.8 -16.4
v -29.3 0.8 -16.4
v -30.3 0.8 -16.7
v -30.2 0.8 -16.7
v -29.4 0.8 -16.7
v -29.3 0.8 -16.7
v -30.4 0.8 -16.8
v -29.2 0.8 -16.8
v -30.1 1.3 -15.8
v -30 1.3 -15.8
v -29.6 1.3 -15.8
v -29.5 1.3 -15.8
v -30.4 1.3 -15.9
v -30.3 1.3 -15.9
v -30.1 1.3 -15.9
v -30 1.3 -15.9
v -29.6 1.3 -15.9
v -29.5 1.3 -15.9
v -29.3 1.3 -15.9
v -29.2 1.3 -15.9
v -30.4 1.3 -16.7
v -30.3 1.3 -16.7
v -29.3 1.3 -16.7
v -29.2 1.3 -16.7
v -30.3 1.4 -15.8
v -30.2 1.4 -15.8
v -29.4 1.4 -15.8
v -29.3 1.4 -15.8
v -30.3 1.4 -16.7
v -30.2 1.4 -16.7
v -29.4 1.4 -16.7
v -29.3 1.4 -16.7
v -30.2 1.7 -15.8
v -29.9 1.7 -15.8
v -29.7 1.7 -15.8
v -29.4 1.7 -15.8
v -29.9 1.7 -15.9
v -29.7 1.7 -15.9
v -30.1 1.7 -16
v -29.5 1.7 -16
v -30.2 1.7 -16.7
v -30.1 1.7 -16.7
v -29.5 1.7 -16.7
v -29.4 1.7 -16.7
v -30.1 1.8 -16
v -29.5 1.8 -16
v -30 1.8 -16.1
v -29.6 1.8 -16.1
v -30 1.8 -16.6
v -29.6 1.8 -16.6
v -30.1 1.8 -16.7
v -29.5 1.8 -16.7
v -30 1.9 -16.1
v -29.6 1.9 -16.1
v -30 1.9 -16.6
v -29.6 1.9 -16.6

# faces
f 3/4/1 2/4/1 1/4/1
f 4/4/1 2/4/1 3/4/1
f 7/4/1 6/4/1 5/4/1
f 8/4/1 6/4/1 7/4/1
f 12/2/1 10/2/1 9/2/1
f 13/2/1 10/2/1 12/2/1
f 14/3/1 11/3/1 10/3/1
f 14/2/1 10/2/1 13/2/1
f 15/3/1 11/3/1 14/3/1
f 16/3/1 13/3/1 12/3/1
f 16/2/1 14/2/1 13/2/1
f 16/2/1 15/2/1 14/2/1
f 17/3/1 11/3/1 15/3/1
f 17/2/1 15/2/1 16/2/1
f 18/3/1 11/3/1 17/3/1
f 19/3/1 16/3/1 12/3/1
f 19/3/1 17/3/1 16/3/1
f 20/3/1 17/3/1 19/3/1
f 21/3/1 17/3/1 20/3/1
f 22/2/1 18/2/1 17/2/1
f 22/3/1 17/3/1 21/3/1
f 23/2/1 20/2/1 19/2/1
f 24/3/1 21/3/1 20/3/1
f 24/2/1 20/2/1 23/2/1
f 25/2/1 22/2/1 21/2/1
f 25/3/1 21/3/1 24/3/1
f 26/2/1 18/2/1 22/2/1
f 26/2/1 22/2/1 25/2/1
f 30/1/1 28/1/1 27/1/1
f 30/1/1 29/1/1 28/1/1
f 31/1/1 29/1/1 30/1/1
f 34/4/1 33/4/1 32/4/1
f 35/4/1 33/4/1 34/4/1
f 38/4/1 37/4/1 36/4/1
f 39/4/1 37/4/1 38/4/1
f 42/4/1 41/4/1 40/4/1
f 43/4/1 41/4/1 42/4/1
f 46/4/1 45/4/1 44/4/1
f 47/4/1 45/4/1 46/4/1
f 50/4/1 49/4/1 48/4/1
f 51/4/1 49/4/1 50/4/1
f 54/4/1 53/4/1 52/4/1
f 55/4/1 53/4/1 54/4/1
f 58/4/1 57/4/1 56/4/1
f 59/4/1 57/4/1 58/4/1
f 62/1/1 61/1/1 60/1/1
f 63/1/1 61/1/1 62/1/1
f 67/4/1 65/4/1 64/4/1
f 68/2/1 66/2/1 65/2/1
f 68/4/1 65/4/1 67/4/1
f 69/2/1 66/2/1 68/2/1
f 70/2/1 66/2/1 69/2/1
f 71/2/1 68/2/1 67/2/1
f 71/2/1 69/2/1 68/2/1
f 71/3/1 70/3/1 69/3/1
f 72/3/1 70/3/1 71/3/1
f 73/2/1 71/2/1 67/2/1
f 73/2/1 72/2/1 71/2/1
f 74/3/1 70/3/1 72/3/1
f 74/2/1 72/2/1 73/2/1
f 75/3/1 70/3/1 74/3/1
f 76/3/1 74/3/1 73/3/1
f 77/2/1 75/2/1 74/2/1
f 77/3/1 74/3/1 76/3/1
f 78/2/1 75/2/1 77/2/1
f 79/3/1 76/3/1 73/3/1
f 80/2/1 77/2/1 76/2/1
f 80/3/1 76/3/1 79/3/1
f 80/2/1 78/2/1 77/2/1
f 81/2/1 78/2/1 80/2/1
f 82/2/1 80/2/1 79/2/1
f 82/2/1 81/2/1 80/2/1
f 83/2/1 81/2/1 82/2/1
f 84/1/1 83/1/1 82/1/1
f 85/1/1 83/1/1 84/1/1
f 86/4/2 87/4/2 89/4/2
f 87/2/2 88/2/2 90/2/2
f 89/4/2 87/4/2 90/4/2
f 90/2/2 88/2/2 91/2/2
f 91/2/2 88/2/2 92/2/2
f 89/2/2 90/2/2 93/2/2
f 90/2/2 91/2/2 93/2/2
f 91/3/2 92/3/2 93/3/2
f 93/3/2 92/3/2 94/3/2
f 89/2/2 93/2/2 95/2/2
f 93/2/2 94/2/2 95/2/2
f 94/3/2 92/3/2 96/3/2
f 95/2/2 94/2/2 96/2/2
f 96/3/2 92/3/2 97/3/2
f 95/3/2 96/3/2 98/3/2
f 96/2/2 97/2/2 99/2/2
f 98/3/2 96/3/2 99/3/2
f 99/2/2 97/2/2 100/2/2
f 95/3/2 98/3/2 101/3/2
f 98/2/2 99/2/2 102/2/2
f 101/3/2 98/3/2 102/3/2
f 99/2/2 100/2/2 102/2/2
f 102/2/2 100/2/2 103/2/2
f 101/2/2 102/2/2 104/2/2
f 102/2/2 103/2/2 104/2/2
f 104/2/2 103/2/2 105/2/2
f 104/1/2 105/1/2 106/1/2
f 106/1/2 105/1/2 107/1/2
f 108/1/2 109/1/2 110/1/2
f 110/1/2 109/1/2 111/1/2
f 112/4/2 113/4/2 114/4/2
f 114/4/2 113/4/2 115/4/2
f 116/4/2 117/4/2 118/4/2
f 118/4/2 117/4/2 119/4/2
f 120/4/2 121/4/2 122/4/2
f 122/4/2 121/4/2 123/4/2
f 124/4/2 125/4/2 126/4/2
f 126/4/2 125/4/2 127/4/2
f 128/4/2 129/4/2 130/4/2
f 130/4/2 129/4/2 131/4/2
f 132/4/2 133/4/2 134/4/2
f 134/4/2 133/4/2 135/4/2
f 136/4/2 137/4/2 138/4/2
f 138/4/2 137/4/2 139/4/2
f 140/2/2 141/2/2 143/2/2
f 143/2/2 141/2/2 144/2/2
f 141/3/2 142/3/2 145/3/2
f 144/2/2 141/2/2 145/2/2
f 145/3/2 142/3/2 146/3/2
f 143/3/2 144/3/2 147/3/2
f 144/2/2 145/2/2 147/2/2
f 145/2/2 146/2/2 147/2/2
f 146/3/2 142/3/2 148/3/2
f 147/2/2 146/2/2 148/2/2
f 148/3/2 142/3/2 149/3/2
f 143/3/2 147/3/2 150/3/2
f 147/3/2 148/3/2 150/3/2
f 150/3/2 148/3/2 151/3/2
f 151/3/2 148/3/2 152/3/2
f 148/2/2 149/2/2 153/2/2
f 152/3/2 148/3/2 153/3/2
f 150/2/2 151/2/2 154/2/2
f 151/3/2 152/3/2 155/3/2
f 154/2/2 151/2/2 155/2/2
f 152/2/2 153/2/2 156/2/2
f 155/3/2 152/3/2 156/3/2
f 153/2/2 149/2/2 157/2/2
f 156/2/2 153/2/2 157/2/2
f 158/1/2 159/1/2 161/1/2
f 159/1/2 160/1/2 161/1/2
f 161/1/2 160/1/2 162/1/2
f 163/4/2 164/4/2 165/4/2
f 165/4/2 164/4/2 166/4/2
f 167/4/2 168/4/2 169/4/2
f 169/4/2 168/4/2 170/4/2
f 175/1/3 174/1/3 173/1/3
f 177/4/3 172/4/3 171/4/3
f 178/1/3 175/1/3 173/1/3
f 179/4/3 176/4/3 175/4/3
f 179/1/3 175/1/3 178/1/3
f 180/4/3 178/4/3 177/4/3
f 180/4/3 177/4/3 171/4/3
f 181/4/3 178/4/3 180/4/3
f 182/4/3 176/4/3 179/4/3
f 183/4/3 176/4/3 182/4/3
f 184/4/3 176/4/3 183/4/3
f 185/4/3 176/4/3 184/4/3
f 191/4/3 187/4/3 186/4/3
f 192/4/3 189/4/3 188/4/3
f 193/4/3 189/4/3 192/4/3
f 194/4/3 191/4/3 190/4/3
f 195/1/3 194/1/3 193/1/3
f 195/4/3 191/4/3 194/4/3
f 196/4/3 187/4/3 191/4/3
f 196/4/3 191/4/3 195/4/3
f 197/1/3 195/1/3 193/1/3
f 198/1/3 195/1/3 197/1/3
f 199/4/3 192/4/3 188/4/3
f 200/4/3 192/4/3 199/4/3
f 206/4/3 202/4/3 201/4/3
f 207/4/3 202/4/3 206/4/3
f 208/3/3 205/3/3 204/3/3
f 208/2/3 204/2/3 203/2/3
f 209/2/3 207/2/3 206/2/3
f 209/3/3 205/3/3 208/3/3
f 209/2/3 206/2/3 205/2/3
f 210/2/3 208/2/3 203/2/3
f 210/2/3 209/2/3 208/2/3
f 211/2/3 207/2/3 209/2/3
f 211/2/3 209/2/3 210/2/3
f 214/4/3 212/4/3 211/4/3
f 215/4/3 212/4/3 214/4/3
f 217/4/3 215/4/3 214/4/3
f 217/4/3 216/4/3 215/4/3
f 219/4/3 217/4/3 214/4/3
f 219/4/3 218/4/3 217/4/3
f 220/4/3 218/4/3 219/4/3
f 221/5/3 214/5/3 213/5/3
f 222/4/3 219/4/3 214/4/3
f 222/5/3 214/5/3 221/5/3
f 223/4/3 219/4/3 222/4/3
f 224/4/3 219/4/3 223/4/3
f 226/4/3 223/4/3 222/4/3
f 227/4/3 223/4/3 226/4/3
f 228/2/3 226/2/3 225/2/3
f 229/2/3 226/2/3 228/2/3
f 230/2/3 228/2/3 225/2/3
f 231/3/3 229/3/3 228/3/3
f 231/2/3 228/2/3 230/2/3
f 232/2/3 226/2/3 229/2/3
f 232/3/3 229/3/3 231/3/3
f 233/2/3 226/2/3 232/2/3
f 234/2/3 226/2/3 233/2/3
f 235/4/3 234/4/3 233/4/3
f 236/4/3 234/4/3 235/4/3
f 239/4/3 238/4/3 237/4/3
f 240/4/3 238/4/3 239/4/3
f 243/4/3 242/4/3 241/4/3
f 244/4/3 242/4/3 243/4/3
f 252/2/3 247/2/3 246/2/3
f 252/2/3 248/2/3 247/2/3
f 253/2/3 248/2/3 252/2/3
f 254/2/3 252/2/3 246/2/3
f 254/3/3 253/3/3 252/3/3
f 255/2/3 248/2/3 253/2/3
f 255/3/3 253/3/3 254/3/3
f 256/4/3 246/4/3 245/4/3
f 257/2/3 254/2/3 246/2/3
f 257/4/3 246/4/3 256/4/3
f 257/2/3 255/2/3 254/2/3
f 258/2/3 248/2/3 255/2/3
f 258/2/3 255/2/3 257/2/3
f 259/3/3 249/3/3 248/3/3
f 259/2/3 248/2/3 258/2/3
f 260/2/3 250/2/3 249/2/3
f 260/3/3 249/3/3 259/3/3
f 261/4/3 251/4/3 250/4/3
f 261/2/3 250/2/3 260/2/3
f 262/4/3 251/4/3 261/4/3
f 263/2/4 264/2/4 269/2/4
f 264/2/4 265/2/4 269/2/4
f 266/2/4 267/2/4 269/2/4
f 265/2/4 266/2/4 269/2/4
f 267/4/4 268/4/4 270/4/4
f 269/2/4 267/2/4 270/2/4
f 263/2/4 269/2/4 271/2/4
f 269/4/4 270/4/4 272/4/4
f 271/2/4 269/2/4 272/2/4
f 270/4/4 268/4/4 273/4/4
f 272/4/4 270/4/4 273/4/4
f 271/5/4 272/5/4 274/5/4
f 272/5/4 273/5/4 274/5/4
f 274/5/4 273/5/4 275/5/4
f 273/4/4 268/4/4 276/4/4
f 275/5/4 273/5/4 276/5/4
f 274/2/4 275/2/4 277/2/4
f 275/4/4 276/4/4 277/4/4
f 276/4/4 268/4/4 278/4/4
f 277/4/4 276/4/4 278/4/4
f 274/2/4 277/2/4 279/2/4
f 277/2/4 278/2/4 279/2/4
f 279/2/4 278/2/4 280/2/4
f 280/2/4 278/2/4 281/2/4
f 281/2/4 278/2/4 282/2/4
f 278/4/4 268/4/4 283/4/4
f 282/2/4 278/2/4 283/2/4
f 283/4/4 268/4/4 284/4/4
f 285/4/4 286/4/4 287/4/4
f 287/4/4 286/4/4 288/4/4
f 289/4/4 290/4/4 293/4/4
f 293/4/4 290/4/4 294/4/4
f 291/3/4 292/3/4 296/3/4
f 292/2/4 293/2/4 297/2/4
f 296/3/4 292/3/4 297/3/4
f 293/2/4 294/2/4 297/2/4
f 297/2/4 294/2/4 298/2/4
f 298/2/4 294/2/4 299/2/4
f 294/1/4 295/1/4 300/1/4
f 299/2/4 294/2/4 300/2/4
f 300/1/4 295/1/4 301/1/4
f 300/4/4 301/4/4 303/4/4
f 301/4/4 302/4/4 303/4/4
f 296/2/4 297/2/4 305/2/4
f 297/2/4 298/2/4 305/2/4
f 305/2/4 298/2/4 306/2/4
f 296/2/4 305/2/4 307/2/4
f 305/3/4 306/3/4 307/3/4
f 306/2/4 298/2/4 308/2/4
f 307/3/4 306/3/4 308/3/4
f 303/4/4 304/4/4 309/4/4
f 300/4/4 303/4/4 309/4/4
f 309/4/4 304/4/4 310/4/4
f 307/2/4 308/2/4 311/2/4
f 296/2/4 307/2/4 311/2/4
f 308/2/4 298/2/4 312/2/4
f 311/2/4 308/2/4 312/2/4
f 298/3/4 299/3/4 313/3/4
f 312/2/4 298/2/4 313/2/4
f 299/2/4 300/2/4 314/2/4
f 313/3/4 299/3/4 314/3/4
f 300/4/4 309/4/4 315/4/4
f 314/2/4 300/2/4 315/2/4
f 315/4/4 309/4/4 316/4/4
f 316/4/4 309/4/4 317/4/4
f 311/3/4 312/3/4 318/3/4
f 312/2/4 313/2/4 319/2/4
f 318/3/4 312/3/4 319/3/4
f 313/2/4 314/2/4 319/2/4
f 314/2/4 315/2/4 319/2/4
f 319/2/4 315/2/4 320/2/4
f 315/1/4 316/1/4 321/1/4
f 320/2/4 315/2/4 321/2/4
f 321/1/4 316/1/4 322/1/4
f 320/4/4 321/4/4 323/4/4
f 323/4/4 321/4/4 324/4/4
f 325/4/4 326/4/4 327/4/4
f 327/4/4 326/4/4 328/4/4
f 333/4/5 330/4/5 329/4/5
f 334/4/5 330/4/5 333/4/5
f 335/4/5 332/4/5 331/4/5
f 336/4/5 332/4/5 335/4/5
f 337/2/5 334/2/5 333/2/5
f 337/4/5 333/4/5 329/4/5
f 338/5/5 335/5/5 334/5/5
f 338/2/5 334/2/5 337/2/5
f 339/2/5 336/2/5 335/2/5
f 339/5/5 335/5/5 338/5/5
f 340/4/5 332/4/5 336/4/5
f 340/2/5 336/2/5 339/2/5
f 341/4/5 337/4/5 329/4/5
f 342/4/5 337/4/5 341/4/5
f 343/4/5 332/4/5 340/4/5
f 344/4/5 332/4/5 343/4/5
f 345/2/5 342/2/5 341/2/5
f 346/2/5 344/2/5 343/2/5
f 347/4/5 341/4/5 329/4/5
f 347/2/5 345/2/5 341/2/5
f 348/4/5 346/4/5 345/4/5
f 348/2/5 345/2/5 347/2/5
f 349/2/5 344/2/5 346/2/5
f 349/4/5 346/4/5 348/4/5
f 350/4/5 332/4/5 344/4/5
f 350/2/5 344/2/5 349/2/5
f 351/4/5 349/4/5 348/4/5
f 351/4/5 347/4/5 329/4/5
f 351/4/5 350/4/5 349/4/5
f 351/4/5 348/4/5 347/4/5
f 352/4/5 332/4/5 350/4/5
f 352/4/5 350/4/5 351/4/5
f 357/4/5 354/4/5 353/4/5
f 358/4/5 356/4/5 355/4/5
f 359/4/5 357/4/5 353/4/5
f 360/4/5 356/4/5 358/4/5
f 361/4/5 359/4/5 353/4/5
f 362/4/5 359/4/5 361/4/5
f 363/4/5 356/4/5 360/4/5
f 364/4/5 356/4/5 363/4/5
f 369/1/5 366/1/5 365/1/5
f 370/1/5 366/1/5 369/1/5
f 371/1/5 368/1/5 367/1/5
f 372/1/5 368/1/5 371/1/5
f 377/4/5 374/4/5 373/4/5
f 378/4/5 374/4/5 377/4/5
f 379/4/5 376/4/5 375/4/5
f 380/4/5 376/4/5 379/4/5
f 383/4/5 382/4/5 381/4/5
f 384/4/5 382/4/5 383/4/5
f 389/4/5 386/4/5 385/4/5
f 390/4/5 386/4/5 389/4/5
f 391/4/5 388/4/5 387/4/5
f 392/4/5 388/4/5 391/4/5
f 393/4/6 394/4/6 397/4/6
f 397/4/6 394/4/6 398/4/6
f 395/4/6 396/4/6 399/4/6
f 399/4/6 396/4/6 400/4/6
f 393/4/6 397/4/6 401/4/6
f 400/4/6 396/4/6 402/4/6
f 393/4/6 401/4/6 403/4/6
f 402/4/6 396/4/6 406/4/6
f 404/4/6 405/4/6 407/4/6
f 405/4/6 406/4/6 407/4/6
f 393/4/6 403/4/6 407/4/6
f 403/4/6 404/4/6 407/4/6
f 406/4/6 396/4/6 408/4/6
f 407/4/6 406/4/6 408/4/6
f 409/4/6 410/4/6 415/4/6
f 415/4/6 410/4/6 416/4/6
f 411/4/6 412/4/6 417/4/6
f 417/4/6 412/4/6 418/4/6
f 413/4/6 414/4/6 421/4/6
f 421/4/6 414/4/6 422/4/6
f 419/4/6 420/4/6 423/4/6
f 423/4/6 420/4/6 424/4/6
f 425/1/6 426/1/6 429/1/6
f 429/1/6 426/1/6 430/1/6
f 427/1/6 428/1/6 431/1/6
f 431/1/6 428/1/6 432/1/6
f 433/4/6 434/4/6 437/4/6
f 435/4/6 436/4/6 438/4/6
f 433/4/6 437/4/6 439/4/6
f 437/4/6 438/4/6 439/4/6
f 438/4/6 436/4/6 440/4/6
f 439/4/6 438/4/6 440/4/6
f 433/4/6 439/4/6 441/4/6
f 441/4/6 439/4/6 442/4/6
f 440/4/6 436/4/6 443/4/6
f 443/4/6 436/4/6 444/4/6
f 445/4/6 446/4/6 447/4/6
f 447/4/6 446/4/6 448/4/6
f 445/4/6 447/4/6 449/4/6
f 448/4/6 446/4/6 450/4/6
f 445/4/6 449/4/6 451/4/6
f 449/4/6 450/4/6 451/4/6
f 450/4/6 446/4/6 452/4/6
f 451/4/6 450/4/6 452/4/6
f 453/4/6 454/4/6 455/4/6
f 455/4/6 454/4/6 456/4/6
