# MagicaVoxel @ Ephtracy

# group
o Decoration - Table - Plank Variant2

# material
mtllib Medieval Assets-18-Decoration - Table - Plank Variant2.mtl
usemtl palette

# normals
vn -1 0 0
vn 1 0 0
vn 0 0 1
vn 0 0 -1
vn 0 -1 0
vn 0 1 0

# texcoords
vt 0.162109 0.5
vt 0.169922 0.5
vt 0.185547 0.5
vt 0.201172 0.5

# verts
v -43.3 0 -43.8
v -43.3 0 -44.1
v -43.3 0 -44.9
v -43.3 0 -45.2
v -43.3 0.1 -43.8
v -43.3 0.1 -44.1
v -43.3 0.1 -44.9
v -43.3 0.1 -45.2
v -43.2 0.1 -43.9
v -43.2 0.1 -44
v -43.2 0.1 -45
v -43.2 0.1 -45.1
v -43.2 0.7 -44
v -43.2 0.7 -45
v -43.2 0.8 -44
v -43.2 0.8 -44.1
v -43.2 0.8 -44.2
v -43.2 0.8 -44.3
v -43.2 0.8 -44.4
v -43.2 0.8 -44.5
v -43.2 0.8 -44.6
v -43.2 0.8 -44.7
v -43.2 0.8 -44.8
v -43.2 0.8 -44.9
v -43.2 0.8 -45
v -43.2 0.8 -45.1
v -43.2 0.9 -43.9
v -43.2 0.9 -44
v -43.2 0.9 -44.1
v -43.2 0.9 -44.2
v -43.2 0.9 -44.3
v -43.2 0.9 -44.4
v -43.2 0.9 -44.5
v -43.2 0.9 -44.6
v -43.2 0.9 -44.7
v -43.2 0.9 -44.8
v -43.2 0.9 -44.9
v -43.2 0.9 -45
v -43.2 0.9 -45.1
v -41.4 0 -43.8
v -41.4 0 -44.1
v -41.4 0 -44.9
v -41.4 0 -45.2
v -41.4 0.1 -43.8
v -41.4 0.1 -44.1
v -41.4 0.1 -44.9
v -41.4 0.1 -45.2
v -41.3 0.1 -43.9
v -41.3 0.1 -44
v -41.3 0.1 -45
v -41.3 0.1 -45.1
v -41.3 0.7 -43.9
v -41.3 0.7 -44
v -41.3 0.7 -45
v -41.3 0.7 -45.1
v -41.3 0.8 -44
v -41.3 0.8 -44.1
v -41.3 0.8 -44.2
v -41.3 0.8 -44.3
v -41.3 0.8 -44.4
v -41.3 0.8 -44.5
v -41.3 0.8 -44.6
v -41.3 0.8 -44.7
v -41.3 0.8 -44.8
v -41.3 0.8 -44.9
v -41.3 0.8 -45
v -43.1 0.1 -43.9
v -43.1 0.1 -44
v -43.1 0.1 -45
v -43.1 0.1 -45.1
v -43.1 0.7 -43.9
v -43.1 0.7 -44
v -43.1 0.7 -45
v -43.1 0.7 -45.1
v -43.1 0.8 -44
v -43.1 0.8 -44.1
v -43.1 0.8 -44.2
v -43.1 0.8 -44.3
v -43.1 0.8 -44.4
v -43.1 0.8 -44.5
v -43.1 0.8 -44.6
v -43.1 0.8 -44.7
v -43.1 0.8 -44.8
v -43.1 0.8 -44.9
v -43.1 0.8 -45
v -43 0 -43.8
v -43 0 -44.1
v -43 0 -44.9
v -43 0 -45.2
v -43 0.1 -43.8
v -43 0.1 -44.1
v -43 0.1 -44.9
v -43 0.1 -45.2
v -41.2 0.1 -43.9
v -41.2 0.1 -44
v -41.2 0.1 -45
v -41.2 0.1 -45.1
v -41.2 0.7 -44
v -41.2 0.7 -45
v -41.2 0.8 -44
v -41.2 0.8 -44.1
v -41.2 0.8 -44.2
v -41.2 0.8 -44.3
v -41.2 0.8 -44.4
v -41.2 0.8 -44.5
v -41.2 0.8 -44.6
v -41.2 0.8 -44.7
v -41.2 0.8 -44.8
v -41.2 0.8 -44.9
v -41.2 0.8 -45
v -41.2 0.8 -45.1
v -41.2 0.9 -43.9
v -41.2 0.9 -44
v -41.2 0.9 -44.1
v -41.2 0.9 -44.2
v -41.2 0.9 -44.3
v -41.2 0.9 -44.4
v -41.2 0.9 -44.5
v -41.2 0.9 -44.6
v -41.2 0.9 -44.7
v -41.2 0.9 -44.8
v -41.2 0.9 -44.9
v -41.2 0.9 -45
v -41.2 0.9 -45.1
v -41.1 0 -43.8
v -41.1 0 -44.1
v -41.1 0 -44.9
v -41.1 0 -45.2
v -41.1 0.1 -43.8
v -41.1 0.1 -44.1
v -41.1 0.1 -44.9
v -41.1 0.1 -45.2
v -43.3 0 -43.8
v -43.3 0.1 -43.8
v -43 0 -43.8
v -43 0.1 -43.8
v -41.4 0 -43.8
v -41.4 0.1 -43.8
v -41.1 0 -43.8
v -41.1 0.1 -43.8
v -43.2 0.1 -43.9
v -43.2 0.9 -43.9
v -43.1 0.1 -43.9
v -43.1 0.7 -43.9
v -41.3 0.1 -43.9
v -41.3 0.7 -43.9
v -41.2 0.1 -43.9
v -41.2 0.9 -43.9
v -43.3 0 -44.9
v -43.3 0.1 -44.9
v -43 0 -44.9
v -43 0.1 -44.9
v -41.4 0 -44.9
v -41.4 0.1 -44.9
v -41.1 0 -44.9
v -41.1 0.1 -44.9
v -43.2 0.1 -45
v -43.2 0.7 -45
v -43.1 0.1 -45
v -43.1 0.7 -45
v -43.1 0.8 -45
v -41.3 0.1 -45
v -41.3 0.7 -45
v -41.3 0.8 -45
v -41.2 0.1 -45
v -41.2 0.7 -45
v -43.2 0.1 -44
v -43.2 0.7 -44
v -43.1 0.1 -44
v -43.1 0.7 -44
v -43.1 0.8 -44
v -42.7 0.8 -44
v -42.5 0.8 -44
v -41.9 0.8 -44
v -41.7 0.8 -44
v -41.3 0.1 -44
v -41.3 0.7 -44
v -41.3 0.8 -44
v -41.2 0.1 -44
v -41.2 0.7 -44
v -43.3 0 -44.1
v -43.3 0.1 -44.1
v -43 0 -44.1
v -43 0.1 -44.1
v -41.4 0 -44.1
v -41.4 0.1 -44.1
v -41.1 0 -44.1
v -41.1 0.1 -44.1
v -43.2 0.1 -45.1
v -43.2 0.8 -45.1
v -43.2 0.9 -45.1
v -43.1 0.1 -45.1
v -43.1 0.7 -45.1
v -42.9 0.8 -45.1
v -42.9 0.9 -45.1
v -42.5 0.8 -45.1
v -42.5 0.9 -45.1
v -42.2 0.8 -45.1
v -42.2 0.9 -45.1
v -41.3 0.1 -45.1
v -41.3 0.7 -45.1
v -41.2 0.1 -45.1
v -41.2 0.8 -45.1
v -41.2 0.9 -45.1
v -43.3 0 -45.2
v -43.3 0.1 -45.2
v -43 0 -45.2
v -43 0.1 -45.2
v -41.4 0 -45.2
v -41.4 0.1 -45.2
v -41.1 0 -45.2
v -41.1 0.1 -45.2
v -43.3 0 -43.8
v -43 0 -43.8
v -41.4 0 -43.8
v -41.1 0 -43.8
v -43.3 0 -44.1
v -43 0 -44.1
v -41.4 0 -44.1
v -41.1 0 -44.1
v -43.3 0 -44.9
v -43 0 -44.9
v -41.4 0 -44.9
v -41.1 0 -44.9
v -43.3 0 -45.2
v -43 0 -45.2
v -41.4 0 -45.2
v -41.1 0 -45.2
v -43.1 0.7 -43.9
v -41.3 0.7 -43.9
v -43.2 0.7 -44
v -43.1 0.7 -44
v -41.3 0.7 -44
v -41.2 0.7 -44
v -43.2 0.7 -45
v -43.1 0.7 -45
v -41.3 0.7 -45
v -41.2 0.7 -45
v -43.1 0.7 -45.1
v -41.3 0.7 -45.1
v -43.1 0.8 -44
v -42.7 0.8 -44
v -42.5 0.8 -44
v -41.9 0.8 -44
v -41.7 0.8 -44
v -41.3 0.8 -44
v -43.1 0.8 -44.1
v -42.7 0.8 -44.1
v -42.5 0.8 -44.1
v -41.9 0.8 -44.1
v -41.7 0.8 -44.1
v -41.3 0.8 -44.1
v -43.1 0.8 -44.2
v -42.8 0.8 -44.2
v -42.6 0.8 -44.2
v -42.3 0.8 -44.2
v -42.1 0.8 -44.2
v -41.8 0.8 -44.2
v -41.6 0.8 -44.2
v -41.3 0.8 -44.2
v -43.1 0.8 -44.3
v -42.8 0.8 -44.3
v -42.6 0.8 -44.3
v -42.3 0.8 -44.3
v -42.1 0.8 -44.3
v -41.8 0.8 -44.3
v -41.6 0.8 -44.3
v -41.3 0.8 -44.3
v -43.1 0.8 -44.4
v -42.5 0.8 -44.4
v -42.1 0.8 -44.4
v -41.3 0.8 -44.4
v -43.1 0.8 -44.5
v -42.5 0.8 -44.5
v -42.1 0.8 -44.5
v -41.3 0.8 -44.5
v -43.1 0.8 -44.6
v -42.9 0.8 -44.6
v -42.5 0.8 -44.6
v -42.4 0.8 -44.6
v -42.3 0.8 -44.6
v -42.1 0.8 -44.6
v -42 0.8 -44.6
v -41.9 0.8 -44.6
v -41.6 0.8 -44.6
v -41.3 0.8 -44.6
v -43.1 0.8 -44.7
v -42.9 0.8 -44.7
v -42.5 0.8 -44.7
v -42.4 0.8 -44.7
v -42.3 0.8 -44.7
v -42.1 0.8 -44.7
v -42 0.8 -44.7
v -41.9 0.8 -44.7
v -41.6 0.8 -44.7
v -41.3 0.8 -44.7
v -43.1 0.8 -44.8
v -43 0.8 -44.8
v -42.7 0.8 -44.8
v -42.6 0.8 -44.8
v -41.8 0.8 -44.8
v -41.7 0.8 -44.8
v -41.4 0.8 -44.8
v -41.3 0.8 -44.8
v -43.1 0.8 -44.9
v -43 0.8 -44.9
v -42.7 0.8 -44.9
v -42.6 0.8 -44.9
v -41.8 0.8 -44.9
v -41.7 0.8 -44.9
v -41.4 0.8 -44.9
v -41.3 0.8 -44.9
v -43.1 0.8 -45
v -41.3 0.8 -45
v -43.3 0.1 -43.8
v -43 0.1 -43.8
v -41.4 0.1 -43.8
v -41.1 0.1 -43.8
v -43.2 0.1 -43.9
v -43.1 0.1 -43.9
v -41.3 0.1 -43.9
v -41.2 0.1 -43.9
v -43.2 0.1 -44
v -43.1 0.1 -44
v -41.3 0.1 -44
v -41.2 0.1 -44
v -43.3 0.1 -44.1
v -43 0.1 -44.1
v -41.4 0.1 -44.1
v -41.1 0.1 -44.1
v -43.3 0.1 -44.9
v -43 0.1 -44.9
v -41.4 0.1 -44.9
v -41.1 0.1 -44.9
v -43.2 0.1 -45
v -43.1 0.1 -45
v -41.3 0.1 -45
v -41.2 0.1 -45
v -43.2 0.1 -45.1
v -43.1 0.1 -45.1
v -41.3 0.1 -45.1
v -41.2 0.1 -45.1
v -43.3 0.1 -45.2
v -43 0.1 -45.2
v -41.4 0.1 -45.2
v -41.1 0.1 -45.2
v -43.2 0.9 -43.9
v -41.2 0.9 -43.9
v -43.2 0.9 -44
v -42.7 0.9 -44
v -42.5 0.9 -44
v -41.9 0.9 -44
v -41.7 0.9 -44
v -41.2 0.9 -44
v -43.2 0.9 -44.1
v -42.7 0.9 -44.1
v -42.5 0.9 -44.1
v -41.9 0.9 -44.1
v -41.7 0.9 -44.1
v -41.2 0.9 -44.1
v -43.2 0.9 -44.2
v -42.8 0.9 -44.2
v -42.6 0.9 -44.2
v -42.3 0.9 -44.2
v -42.1 0.9 -44.2
v -41.8 0.9 -44.2
v -41.6 0.9 -44.2
v -41.2 0.9 -44.2
v -43.2 0.9 -44.3
v -42.8 0.9 -44.3
v -42.6 0.9 -44.3
v -42.3 0.9 -44.3
v -42.1 0.9 -44.3
v -41.8 0.9 -44.3
v -41.6 0.9 -44.3
v -41.2 0.9 -44.3
v -43.2 0.9 -44.4
v -43.1 0.9 -44.4
v -42.5 0.9 -44.4
v -42.1 0.9 -44.4
v -41.3 0.9 -44.4
v -41.2 0.9 -44.4
v -43.2 0.9 -44.5
v -43.1 0.9 -44.5
v -42.5 0.9 -44.5
v -42.1 0.9 -44.5
v -41.3 0.9 -44.5
v -41.2 0.9 -44.5
v -43.2 0.9 -44.6
v -43.1 0.9 -44.6
v -42.9 0.9 -44.6
v -42.5 0.9 -44.6
v -42.4 0.9 -44.6
v -42.3 0.9 -44.6
v -42.1 0.9 -44.6
v -42 0.9 -44.6
v -41.9 0.9 -44.6
v -41.6 0.9 -44.6
v -41.3 0.9 -44.6
v -41.2 0.9 -44.6
v -43.2 0.9 -44.7
v -43.1 0.9 -44.7
v -42.9 0.9 -44.7
v -42.5 0.9 -44.7
v -42.4 0.9 -44.7
v -42.3 0.9 -44.7
v -42.1 0.9 -44.7
v -42 0.9 -44.7
v -41.9 0.9 -44.7
v -41.6 0.9 -44.7
v -41.3 0.9 -44.7
v -41.2 0.9 -44.7
v -43.2 0.9 -44.8
v -43.1 0.9 -44.8
v -43 0.9 -44.8
v -42.7 0.9 -44.8
v -42.6 0.9 -44.8
v -41.8 0.9 -44.8
v -41.7 0.9 -44.8
v -41.4 0.9 -44.8
v -41.3 0.9 -44.8
v -41.2 0.9 -44.8
v -43.2 0.9 -44.9
v -43.1 0.9 -44.9
v -43 0.9 -44.9
v -42.7 0.9 -44.9
v -42.6 0.9 -44.9
v -41.8 0.9 -44.9
v -41.7 0.9 -44.9
v -41.4 0.9 -44.9
v -41.3 0.9 -44.9
v -41.2 0.9 -44.9
v -43.2 0.9 -45
v -42.9 0.9 -45
v -42.5 0.9 -45
v -42.2 0.9 -45
v -41.2 0.9 -45
v -43.2 0.9 -45.1
v -42.9 0.9 -45.1
v -42.5 0.9 -45.1
v -42.2 0.9 -45.1
v -41.2 0.9 -45.1

# faces
f 5/1/1 2/1/1 1/1/1
f 6/1/1 2/1/1 5/1/1
f 7/1/1 4/1/1 3/1/1
f 8/1/1 4/1/1 7/1/1
f 13/2/1 10/2/1 9/2/1
f 14/2/1 12/2/1 11/2/1
f 15/2/1 13/2/1 9/2/1
f 15/2/1 14/2/1 13/2/1
f 16/2/1 14/2/1 15/2/1
f 17/2/1 14/2/1 16/2/1
f 18/2/1 14/2/1 17/2/1
f 19/2/1 14/2/1 18/2/1
f 20/2/1 14/2/1 19/2/1
f 21/2/1 14/2/1 20/2/1
f 22/2/1 14/2/1 21/2/1
f 23/2/1 14/2/1 22/2/1
f 24/2/1 14/2/1 23/2/1
f 25/2/1 12/2/1 14/2/1
f 25/2/1 14/2/1 24/2/1
f 26/2/1 12/2/1 25/2/1
f 27/2/1 15/2/1 9/2/1
f 28/3/1 16/3/1 15/3/1
f 28/2/1 15/2/1 27/2/1
f 29/2/1 17/2/1 16/2/1
f 29/3/1 16/3/1 28/3/1
f 30/3/1 18/3/1 17/3/1
f 30/2/1 17/2/1 29/2/1
f 31/2/1 19/2/1 18/2/1
f 31/3/1 18/3/1 30/3/1
f 32/4/1 20/4/1 19/4/1
f 32/2/1 19/2/1 31/2/1
f 33/2/1 21/2/1 20/2/1
f 33/4/1 20/4/1 32/4/1
f 34/4/1 22/4/1 21/4/1
f 34/2/1 21/2/1 33/2/1
f 35/2/1 23/2/1 22/2/1
f 35/4/1 22/4/1 34/4/1
f 36/3/1 24/3/1 23/3/1
f 36/2/1 23/2/1 35/2/1
f 37/2/1 25/2/1 24/2/1
f 37/3/1 24/3/1 36/3/1
f 38/4/1 26/4/1 25/4/1
f 38/2/1 25/2/1 37/2/1
f 39/4/1 26/4/1 38/4/1
f 44/1/1 41/1/1 40/1/1
f 45/1/1 41/1/1 44/1/1
f 46/1/1 43/1/1 42/1/1
f 47/1/1 43/1/1 46/1/1
f 52/2/1 49/2/1 48/2/1
f 53/2/1 49/2/1 52/2/1
f 54/2/1 51/2/1 50/2/1
f 55/2/1 51/2/1 54/2/1
f 56/2/1 54/2/1 53/2/1
f 57/2/1 54/2/1 56/2/1
f 58/2/1 54/2/1 57/2/1
f 59/2/1 54/2/1 58/2/1
f 60/2/1 54/2/1 59/2/1
f 61/2/1 54/2/1 60/2/1
f 62/2/1 54/2/1 61/2/1
f 63/2/1 54/2/1 62/2/1
f 64/2/1 54/2/1 63/2/1
f 65/2/1 54/2/1 64/2/1
f 66/2/1 54/2/1 65/2/1
f 67/2/2 68/2/2 71/2/2
f 71/2/2 68/2/2 72/2/2
f 69/2/2 70/2/2 73/2/2
f 73/2/2 70/2/2 74/2/2
f 72/2/2 73/2/2 75/2/2
f 75/2/2 73/2/2 76/2/2
f 76/2/2 73/2/2 77/2/2
f 77/2/2 73/2/2 78/2/2
f 78/2/2 73/2/2 79/2/2
f 79/2/2 73/2/2 80/2/2
f 80/2/2 73/2/2 81/2/2
f 81/2/2 73/2/2 82/2/2
f 82/2/2 73/2/2 83/2/2
f 83/2/2 73/2/2 84/2/2
f 84/2/2 73/2/2 85/2/2
f 86/1/2 87/1/2 90/1/2
f 90/1/2 87/1/2 91/1/2
f 88/1/2 89/1/2 92/1/2
f 92/1/2 89/1/2 93/1/2
f 94/2/2 95/2/2 98/2/2
f 96/2/2 97/2/2 99/2/2
f 94/2/2 98/2/2 100/2/2
f 98/2/2 99/2/2 100/2/2
f 100/2/2 99/2/2 101/2/2
f 101/2/2 99/2/2 102/2/2
f 102/2/2 99/2/2 103/2/2
f 103/2/2 99/2/2 104/2/2
f 104/2/2 99/2/2 105/2/2
f 105/2/2 99/2/2 106/2/2
f 106/2/2 99/2/2 107/2/2
f 107/2/2 99/2/2 108/2/2
f 108/2/2 99/2/2 109/2/2
f 99/2/2 97/2/2 110/2/2
f 109/2/2 99/2/2 110/2/2
f 110/2/2 97/2/2 111/2/2
f 94/2/2 100/2/2 112/2/2
f 100/3/2 101/3/2 113/3/2
f 112/2/2 100/2/2 113/2/2
f 101/2/2 102/2/2 114/2/2
f 113/3/2 101/3/2 114/3/2
f 102/3/2 103/3/2 115/3/2
f 114/2/2 102/2/2 115/2/2
f 103/2/2 104/2/2 116/2/2
f 115/3/2 103/3/2 116/3/2
f 104/4/2 105/4/2 117/4/2
f 116/2/2 104/2/2 117/2/2
f 105/2/2 106/2/2 118/2/2
f 117/4/2 105/4/2 118/4/2
f 106/4/2 107/4/2 119/4/2
f 118/2/2 106/2/2 119/2/2
f 107/2/2 108/2/2 120/2/2
f 119/4/2 107/4/2 120/4/2
f 108/3/2 109/3/2 121/3/2
f 120/2/2 108/2/2 121/2/2
f 109/2/2 110/2/2 122/2/2
f 121/3/2 109/3/2 122/3/2
f 110/3/2 111/3/2 123/3/2
f 122/2/2 110/2/2 123/2/2
f 123/3/2 111/3/2 124/3/2
f 125/1/2 126/1/2 129/1/2
f 129/1/2 126/1/2 130/1/2
f 127/1/2 128/1/2 131/1/2
f 131/1/2 128/1/2 132/1/2
f 135/1/3 134/1/3 133/1/3
f 136/1/3 134/1/3 135/1/3
f 139/1/3 138/1/3 137/1/3
f 140/1/3 138/1/3 139/1/3
f 143/2/3 142/2/3 141/2/3
f 144/2/3 142/2/3 143/2/3
f 146/2/3 142/2/3 144/2/3
f 147/2/3 146/2/3 145/2/3
f 148/2/3 142/2/3 146/2/3
f 148/2/3 146/2/3 147/2/3
f 151/1/3 150/1/3 149/1/3
f 152/1/3 150/1/3 151/1/3
f 155/1/3 154/1/3 153/1/3
f 156/1/3 154/1/3 155/1/3
f 159/2/3 158/2/3 157/2/3
f 160/2/3 158/2/3 159/2/3
f 163/2/3 161/2/3 160/2/3
f 164/2/3 161/2/3 163/2/3
f 165/2/3 163/2/3 162/2/3
f 166/2/3 163/2/3 165/2/3
f 167/2/4 168/2/4 169/2/4
f 169/2/4 168/2/4 170/2/4
f 170/2/4 171/2/4 172/2/4
f 170/2/4 172/2/4 173/2/4
f 170/2/4 173/2/4 174/2/4
f 170/2/4 174/2/4 175/2/4
f 170/2/4 175/2/4 177/2/4
f 177/2/4 175/2/4 178/2/4
f 176/2/4 177/2/4 179/2/4
f 179/2/4 177/2/4 180/2/4
f 181/1/4 182/1/4 183/1/4
f 183/1/4 182/1/4 184/1/4
f 185/1/4 186/1/4 187/1/4
f 187/1/4 186/1/4 188/1/4
f 189/2/4 190/2/4 192/2/4
f 192/2/4 190/2/4 193/2/4
f 190/4/4 191/4/4 194/4/4
f 193/2/4 190/2/4 194/2/4
f 194/4/4 191/4/4 195/4/4
f 193/2/4 194/2/4 196/2/4
f 194/3/4 195/3/4 196/3/4
f 196/3/4 195/3/4 197/3/4
f 193/2/4 196/2/4 198/2/4
f 196/4/4 197/4/4 198/4/4
f 198/4/4 197/4/4 199/4/4
f 193/2/4 198/2/4 201/2/4
f 200/2/4 201/2/4 202/2/4
f 198/3/4 199/3/4 203/3/4
f 202/2/4 201/2/4 203/2/4
f 201/2/4 198/2/4 203/2/4
f 203/3/4 199/3/4 204/3/4
f 205/1/4 206/1/4 207/1/4
f 207/1/4 206/1/4 208/1/4
f 209/1/4 210/1/4 211/1/4
f 211/1/4 210/1/4 212/1/4
f 217/1/5 214/1/5 213/1/5
f 218/1/5 214/1/5 217/1/5
f 219/1/5 216/1/5 215/1/5
f 220/1/5 216/1/5 219/1/5
f 225/1/5 222/1/5 221/1/5
f 226/1/5 222/1/5 225/1/5
f 227/1/5 224/1/5 223/1/5
f 228/1/5 224/1/5 227/1/5
f 232/2/5 230/2/5 229/2/5
f 233/2/5 230/2/5 232/2/5
f 235/2/5 232/2/5 231/2/5
f 236/2/5 232/2/5 235/2/5
f 237/2/5 234/2/5 233/2/5
f 238/2/5 234/2/5 237/2/5
f 239/2/5 237/2/5 236/2/5
f 240/2/5 237/2/5 239/2/5
f 247/3/5 242/3/5 241/3/5
f 248/4/5 243/4/5 242/4/5
f 248/3/5 242/3/5 247/3/5
f 249/3/5 244/3/5 243/3/5
f 249/4/5 243/4/5 248/4/5
f 250/4/5 245/4/5 244/4/5
f 250/3/5 244/3/5 249/3/5
f 251/3/5 246/3/5 245/3/5
f 251/4/5 245/4/5 250/4/5
f 252/3/5 246/3/5 251/3/5
f 253/2/5 250/2/5 249/2/5
f 253/2/5 248/2/5 247/2/5
f 253/2/5 252/2/5 251/2/5
f 253/2/5 251/2/5 250/2/5
f 253/2/5 249/2/5 248/2/5
f 254/2/5 252/2/5 253/2/5
f 255/2/5 252/2/5 254/2/5
f 256/2/5 252/2/5 255/2/5
f 257/2/5 252/2/5 256/2/5
f 258/2/5 252/2/5 257/2/5
f 259/2/5 252/2/5 258/2/5
f 260/2/5 252/2/5 259/2/5
f 261/3/5 254/3/5 253/3/5
f 262/4/5 255/4/5 254/4/5
f 262/3/5 254/3/5 261/3/5
f 263/3/5 256/3/5 255/3/5
f 263/4/5 255/4/5 262/4/5
f 264/4/5 257/4/5 256/4/5
f 264/3/5 256/3/5 263/3/5
f 265/3/5 258/3/5 257/3/5
f 265/4/5 257/4/5 264/4/5
f 266/4/5 259/4/5 258/4/5
f 266/3/5 258/3/5 265/3/5
f 267/3/5 260/3/5 259/3/5
f 267/4/5 259/4/5 266/4/5
f 268/3/5 260/3/5 267/3/5
f 269/2/5 262/2/5 261/2/5
f 269/2/5 263/2/5 262/2/5
f 269/2/5 268/2/5 267/2/5
f 269/2/5 267/2/5 266/2/5
f 269/2/5 266/2/5 265/2/5
f 269/2/5 265/2/5 264/2/5
f 269/2/5 264/2/5 263/2/5
f 270/2/5 268/2/5 269/2/5
f 271/2/5 268/2/5 270/2/5
f 272/2/5 268/2/5 271/2/5
f 273/3/5 270/3/5 269/3/5
f 274/4/5 271/4/5 270/4/5
f 274/3/5 270/3/5 273/3/5
f 275/3/5 272/3/5 271/3/5
f 275/4/5 271/4/5 274/4/5
f 276/3/5 272/3/5 275/3/5
f 277/2/5 274/2/5 273/2/5
f 277/2/5 275/2/5 274/2/5
f 277/2/5 276/2/5 275/2/5
f 278/2/5 276/2/5 277/2/5
f 279/2/5 276/2/5 278/2/5
f 280/2/5 276/2/5 279/2/5
f 281/2/5 276/2/5 280/2/5
f 282/2/5 276/2/5 281/2/5
f 283/2/5 276/2/5 282/2/5
f 284/2/5 276/2/5 283/2/5
f 285/2/5 276/2/5 284/2/5
f 286/2/5 276/2/5 285/2/5
f 287/3/5 278/3/5 277/3/5
f 288/4/5 279/4/5 278/4/5
f 288/3/5 278/3/5 287/3/5
f 289/3/5 280/3/5 279/3/5
f 289/4/5 279/4/5 288/4/5
f 290/4/5 281/4/5 280/4/5
f 290/3/5 280/3/5 289/3/5
f 291/3/5 282/3/5 281/3/5
f 291/4/5 281/4/5 290/4/5
f 292/4/5 283/4/5 282/4/5
f 292/3/5 282/3/5 291/3/5
f 293/3/5 284/3/5 283/3/5
f 293/4/5 283/4/5 292/4/5
f 294/4/5 285/4/5 284/4/5
f 294/3/5 284/3/5 293/3/5
f 295/3/5 286/3/5 285/3/5
f 295/4/5 285/4/5 294/4/5
f 296/3/5 286/3/5 295/3/5
f 297/2/5 288/2/5 287/2/5
f 297/2/5 289/2/5 288/2/5
f 297/2/5 296/2/5 295/2/5
f 297/2/5 295/2/5 294/2/5
f 297/2/5 294/2/5 293/2/5
f 297/2/5 293/2/5 292/2/5
f 297/2/5 292/2/5 291/2/5
f 297/2/5 291/2/5 290/2/5
f 297/2/5 290/2/5 289/2/5
f 298/2/5 296/2/5 297/2/5
f 299/2/5 296/2/5 298/2/5
f 300/2/5 296/2/5 299/2/5
f 301/2/5 296/2/5 300/2/5
f 302/2/5 296/2/5 301/2/5
f 303/2/5 296/2/5 302/2/5
f 304/2/5 296/2/5 303/2/5
f 305/4/5 298/4/5 297/4/5
f 306/3/5 299/3/5 298/3/5
f 306/4/5 298/4/5 305/4/5
f 307/4/5 300/4/5 299/4/5
f 307/3/5 299/3/5 306/3/5
f 308/3/5 301/3/5 300/3/5
f 308/4/5 300/4/5 307/4/5
f 309/4/5 302/4/5 301/4/5
f 309/3/5 301/3/5 308/3/5
f 310/3/5 303/3/5 302/3/5
f 310/4/5 302/4/5 309/4/5
f 311/4/5 304/4/5 303/4/5
f 311/3/5 303/3/5 310/3/5
f 312/4/5 304/4/5 311/4/5
f 313/2/5 306/2/5 305/2/5
f 313/2/5 307/2/5 306/2/5
f 313/2/5 312/2/5 311/2/5
f 313/2/5 311/2/5 310/2/5
f 313/2/5 310/2/5 309/2/5
f 313/2/5 309/2/5 308/2/5
f 313/2/5 308/2/5 307/2/5
f 314/2/5 312/2/5 313/2/5
f 315/1/6 316/1/6 319/1/6
f 319/1/6 316/1/6 320/1/6
f 317/1/6 318/1/6 321/1/6
f 321/1/6 318/1/6 322/1/6
f 315/1/6 319/1/6 323/1/6
f 320/1/6 316/1/6 324/1/6
f 317/1/6 321/1/6 325/1/6
f 322/1/6 318/1/6 326/1/6
f 315/1/6 323/1/6 327/1/6
f 323/1/6 324/1/6 327/1/6
f 324/1/6 316/1/6 328/1/6
f 327/1/6 324/1/6 328/1/6
f 325/1/6 326/1/6 329/1/6
f 317/1/6 325/1/6 329/1/6
f 326/1/6 318/1/6 330/1/6
f 329/1/6 326/1/6 330/1/6
f 331/1/6 332/1/6 335/1/6
f 335/1/6 332/1/6 336/1/6
f 333/1/6 334/1/6 337/1/6
f 337/1/6 334/1/6 338/1/6
f 331/1/6 335/1/6 339/1/6
f 336/1/6 332/1/6 340/1/6
f 333/1/6 337/1/6 341/1/6
f 338/1/6 334/1/6 342/1/6
f 331/1/6 339/1/6 343/1/6
f 339/1/6 340/1/6 343/1/6
f 340/1/6 332/1/6 344/1/6
f 343/1/6 340/1/6 344/1/6
f 341/1/6 342/1/6 345/1/6
f 333/1/6 341/1/6 345/1/6
f 342/1/6 334/1/6 346/1/6
f 345/1/6 342/1/6 346/1/6
f 347/2/6 348/2/6 349/2/6
f 349/2/6 348/2/6 350/2/6
f 350/2/6 348/2/6 351/2/6
f 351/2/6 348/2/6 352/2/6
f 352/2/6 348/2/6 353/2/6
f 353/2/6 348/2/6 354/2/6
f 349/3/6 350/3/6 355/3/6
f 350/4/6 351/4/6 356/4/6
f 355/3/6 350/3/6 356/3/6
f 351/3/6 352/3/6 357/3/6
f 356/4/6 351/4/6 357/4/6
f 352/4/6 353/4/6 358/4/6
f 357/3/6 352/3/6 358/3/6
f 353/3/6 354/3/6 359/3/6
f 358/4/6 353/4/6 359/4/6
f 359/3/6 354/3/6 360/3/6
f 355/2/6 356/2/6 361/2/6
f 356/2/6 357/2/6 361/2/6
f 359/2/6 360/2/6 361/2/6
f 358/2/6 359/2/6 361/2/6
f 357/2/6 358/2/6 361/2/6
f 361/2/6 360/2/6 362/2/6
f 362/2/6 360/2/6 363/2/6
f 363/2/6 360/2/6 364/2/6
f 364/2/6 360/2/6 365/2/6
f 365/2/6 360/2/6 366/2/6
f 366/2/6 360/2/6 367/2/6
f 367/2/6 360/2/6 368/2/6
f 361/3/6 362/3/6 369/3/6
f 362/4/6 363/4/6 370/4/6
f 369/3/6 362/3/6 370/3/6
f 363/3/6 364/3/6 371/3/6
f 370/4/6 363/4/6 371/4/6
f 364/4/6 365/4/6 372/4/6
f 371/3/6 364/3/6 372/3/6
f 365/3/6 366/3/6 373/3/6
f 372/4/6 365/4/6 373/4/6
f 366/4/6 367/4/6 374/4/6
f 373/3/6 366/3/6 374/3/6
f 367/3/6 368/3/6 375/3/6
f 374/4/6 367/4/6 375/4/6
f 375/3/6 368/3/6 376/3/6
f 369/2/6 370/2/6 377/2/6
f 370/2/6 371/2/6 377/2/6
f 375/2/6 376/2/6 377/2/6
f 374/2/6 375/2/6 377/2/6
f 373/2/6 374/2/6 377/2/6
f 372/2/6 373/2/6 377/2/6
f 371/2/6 372/2/6 377/2/6
f 377/2/6 376/2/6 378/2/6
f 378/2/6 376/2/6 379/2/6
f 379/2/6 376/2/6 380/2/6
f 380/2/6 376/2/6 381/2/6
f 381/2/6 376/2/6 382/2/6
f 377/4/6 378/4/6 383/4/6
f 378/3/6 379/3/6 384/3/6
f 383/4/6 378/4/6 384/4/6
f 379/4/6 380/4/6 385/4/6
f 384/3/6 379/3/6 385/3/6
f 380/3/6 381/3/6 386/3/6
f 385/4/6 380/4/6 386/4/6
f 381/4/6 382/4/6 387/4/6
f 386/3/6 381/3/6 387/3/6
f 387/4/6 382/4/6 388/4/6
f 383/2/6 384/2/6 389/2/6
f 384/2/6 385/2/6 389/2/6
f 387/2/6 388/2/6 389/2/6
f 386/2/6 387/2/6 389/2/6
f 385/2/6 386/2/6 389/2/6
f 389/2/6 388/2/6 390/2/6
f 390/2/6 388/2/6 391/2/6
f 391/2/6 388/2/6 392/2/6
f 392/2/6 388/2/6 393/2/6
f 393/2/6 388/2/6 394/2/6
f 394/2/6 388/2/6 395/2/6
f 395/2/6 388/2/6 396/2/6
f 396/2/6 388/2/6 397/2/6
f 397/2/6 388/2/6 398/2/6
f 398/2/6 388/2/6 399/2/6
f 399/2/6 388/2/6 400/2/6
f 389/4/6 390/4/6 401/4/6
f 390/3/6 391/3/6 402/3/6
f 401/4/6 390/4/6 402/4/6
f 391/4/6 392/4/6 403/4/6
f 402/3/6 391/3/6 403/3/6
f 392/3/6 393/3/6 404/3/6
f 403/4/6 392/4/6 404/4/6
f 393/4/6 394/4/6 405/4/6
f 404/3/6 393/3/6 405/3/6
f 394/3/6 395/3/6 406/3/6
f 405/4/6 394/4/6 406/4/6
f 395/4/6 396/4/6 407/4/6
f 406/3/6 395/3/6 407/3/6
f 396/3/6 397/3/6 408/3/6
f 407/4/6 396/4/6 408/4/6
f 397/4/6 398/4/6 409/4/6
f 408/3/6 397/3/6 409/3/6
f 398/3/6 399/3/6 410/3/6
f 409/4/6 398/4/6 410/4/6
f 399/4/6 400/4/6 411/4/6
f 410/3/6 399/3/6 411/3/6
f 411/4/6 400/4/6 412/4/6
f 401/2/6 402/2/6 413/2/6
f 402/2/6 403/2/6 413/2/6
f 411/2/6 412/2/6 413/2/6
f 410/2/6 411/2/6 413/2/6
f 409/2/6 410/2/6 413/2/6
f 408/2/6 409/2/6 413/2/6
f 407/2/6 408/2/6 413/2/6
f 406/2/6 407/2/6 413/2/6
f 405/2/6 406/2/6 413/2/6
f 404/2/6 405/2/6 413/2/6
f 403/2/6 404/2/6 413/2/6
f 413/2/6 412/2/6 414/2/6
f 414/2/6 412/2/6 415/2/6
f 415/2/6 412/2/6 416/2/6
f 416/2/6 412/2/6 417/2/6
f 417/2/6 412/2/6 418/2/6
f 418/2/6 412/2/6 419/2/6
f 419/2/6 412/2/6 420/2/6
f 420/2/6 412/2/6 421/2/6
f 421/2/6 412/2/6 422/2/6
f 413/3/6 414/3/6 423/3/6
f 414/4/6 415/4/6 424/4/6
f 423/3/6 414/3/6 424/3/6
f 415/3/6 416/3/6 425/3/6
f 424/4/6 415/4/6 425/4/6
f 416/4/6 417/4/6 426/4/6
f 425/3/6 416/3/6 426/3/6
f 417/3/6 418/3/6 427/3/6
f 426/4/6 417/4/6 427/4/6
f 418/4/6 419/4/6 428/4/6
f 427/3/6 418/3/6 428/3/6
f 419/3/6 420/3/6 429/3/6
f 428/4/6 419/4/6 429/4/6
f 420/4/6 421/4/6 430/4/6
f 429/3/6 420/3/6 430/3/6
f 421/3/6 422/3/6 431/3/6
f 430/4/6 421/4/6 431/4/6
f 431/3/6 422/3/6 432/3/6
f 423/2/6 424/2/6 433/2/6
f 424/2/6 425/2/6 433/2/6
f 431/2/6 432/2/6 433/2/6
f 430/2/6 431/2/6 433/2/6
f 429/2/6 430/2/6 433/2/6
f 428/2/6 429/2/6 433/2/6
f 427/2/6 428/2/6 433/2/6
f 426/2/6 427/2/6 433/2/6
f 425/2/6 426/2/6 433/2/6
f 433/2/6 432/2/6 434/2/6
f 434/2/6 432/2/6 435/2/6
f 435/2/6 432/2/6 436/2/6
f 436/2/6 432/2/6 437/2/6
f 433/4/6 434/4/6 438/4/6
f 434/3/6 435/3/6 439/3/6
f 438/4/6 434/4/6 439/4/6
f 435/4/6 436/4/6 440/4/6
f 439/3/6 435/3/6 440/3/6
f 436/3/6 437/3/6 441/3/6
f 440/4/6 436/4/6 441/4/6
f 441/3/6 437/3/6 442/3/6
