# MagicaVoxel @ Ephtracy

# group
o Resource - Stone - Variant2

# material
mtllib Medieval Assets-320-Resource - Stone - Variant2.mtl
usemtl palette

# normals
vn -1 0 0
vn 1 0 0
vn 0 0 1
vn 0 0 -1
vn 0 -1 0
vn 0 1 0

# texcoords
vt 0.138672 0.5
vt 0.142578 0.5

# verts
v -1.1 0.7 -14.3
v -1.1 0.7 -14.4
v -1.1 0.8 -14.3
v -1.1 0.8 -14.4
v -1 0.7 -14.2
v -1 0.7 -14.3
v -1 0.7 -14.4
v -1 0.7 -14.5
v -1 0.8 -14.2
v -1 0.8 -14.3
v -1 0.8 -14.4
v -1 0.8 -14.5
v -1 0.9 -14.4
v -1 0.9 -14.5
v -0.9 0.8 -14.3
v -0.9 0.8 -14.4
v -0.9 0.9 -14.3
v -0.9 0.9 -14.4
v -0.9 0.7 -14.2
v -0.9 0.7 -14.3
v -0.9 0.8 -14.2
v -0.9 0.8 -14.3
v -0.9 0.8 -14.4
v -0.9 0.8 -14.5
v -0.9 0.9 -14.4
v -0.9 0.9 -14.5
v -0.8 0.7 -14.3
v -0.8 0.7 -14.5
v -0.8 0.8 -14.3
v -0.8 0.8 -14.4
v -0.8 0.8 -14.5
v -0.8 0.9 -14.3
v -0.8 0.9 -14.4
v -1 0.7 -14.2
v -1 0.8 -14.2
v -0.9 0.7 -14.2
v -0.9 0.8 -14.2
v -1.1 0.7 -14.3
v -1.1 0.8 -14.3
v -1 0.7 -14.3
v -1 0.8 -14.3
v -0.9 0.7 -14.3
v -0.9 0.8 -14.3
v -0.9 0.9 -14.3
v -0.8 0.7 -14.3
v -0.8 0.8 -14.3
v -0.8 0.9 -14.3
v -1 0.8 -14.4
v -1 0.9 -14.4
v -0.9 0.8 -14.4
v -0.9 0.9 -14.4
v -1.1 0.7 -14.4
v -1.1 0.8 -14.4
v -1 0.7 -14.4
v -1 0.8 -14.4
v -0.9 0.8 -14.4
v -0.9 0.9 -14.4
v -0.8 0.8 -14.4
v -0.8 0.9 -14.4
v -1 0.7 -14.5
v -1 0.8 -14.5
v -1 0.9 -14.5
v -0.9 0.8 -14.5
v -0.9 0.9 -14.5
v -0.8 0.7 -14.5
v -0.8 0.8 -14.5
v -1 0.7 -14.2
v -0.9 0.7 -14.2
v -1.1 0.7 -14.3
v -1 0.7 -14.3
v -0.9 0.7 -14.3
v -0.8 0.7 -14.3
v -1.1 0.7 -14.4
v -1 0.7 -14.4
v -1 0.7 -14.5
v -0.8 0.7 -14.5
v -1 0.8 -14.2
v -0.9 0.8 -14.2
v -1.1 0.8 -14.3
v -1 0.8 -14.3
v -0.9 0.8 -14.3
v -1.1 0.8 -14.4
v -1 0.8 -14.4
v -0.9 0.8 -14.4
v -0.8 0.8 -14.4
v -0.9 0.8 -14.5
v -0.8 0.8 -14.5
v -0.9 0.9 -14.3
v -0.8 0.9 -14.3
v -1 0.9 -14.4
v -0.9 0.9 -14.4
v -0.8 0.9 -14.4
v -1 0.9 -14.5
v -0.9 0.9 -14.5

# faces
f 3/1/1 2/1/1 1/1/1
f 4/1/1 2/1/1 3/1/1
f 9/1/1 6/1/1 5/1/1
f 10/1/1 6/1/1 9/1/1
f 11/1/1 8/1/1 7/1/1
f 12/1/1 8/1/1 11/1/1
f 13/2/1 12/2/1 11/2/1
f 14/2/1 12/2/1 13/2/1
f 17/2/1 16/2/1 15/2/1
f 18/2/1 16/2/1 17/2/1
f 19/1/2 20/1/2 21/1/2
f 21/1/2 20/1/2 22/1/2
f 23/2/2 24/2/2 25/2/2
f 25/2/2 24/2/2 26/2/2
f 27/1/2 28/1/2 29/1/2
f 29/1/2 28/1/2 30/1/2
f 30/1/2 28/1/2 31/1/2
f 29/2/2 30/2/2 32/2/2
f 32/2/2 30/2/2 33/2/2
f 36/1/3 35/1/3 34/1/3
f 37/1/3 35/1/3 36/1/3
f 40/1/3 39/1/3 38/1/3
f 41/1/3 39/1/3 40/1/3
f 45/1/3 43/1/3 42/1/3
f 46/2/3 44/2/3 43/2/3
f 46/1/3 43/1/3 45/1/3
f 47/2/3 44/2/3 46/2/3
f 50/2/3 49/2/3 48/2/3
f 51/2/3 49/2/3 50/2/3
f 52/1/4 53/1/4 54/1/4
f 54/1/4 53/1/4 55/1/4
f 56/2/4 57/2/4 58/2/4
f 58/2/4 57/2/4 59/2/4
f 60/1/4 61/1/4 63/1/4
f 61/2/4 62/2/4 63/2/4
f 63/2/4 62/2/4 64/2/4
f 60/1/4 63/1/4 65/1/4
f 65/1/4 63/1/4 66/1/4
f 70/1/5 68/1/5 67/1/5
f 71/1/5 68/1/5 70/1/5
f 73/1/5 70/1/5 69/1/5
f 73/1/5 72/1/5 71/1/5
f 73/1/5 71/1/5 70/1/5
f 74/1/5 72/1/5 73/1/5
f 75/1/5 72/1/5 74/1/5
f 76/1/5 72/1/5 75/1/5
f 77/1/6 78/1/6 80/1/6
f 80/1/6 78/1/6 81/1/6
f 79/1/6 80/1/6 82/1/6
f 80/1/6 81/1/6 82/1/6
f 82/1/6 81/1/6 83/1/6
f 83/1/6 81/1/6 84/1/6
f 84/1/6 85/1/6 86/1/6
f 86/1/6 85/1/6 87/1/6
f 88/2/6 89/2/6 91/2/6
f 91/2/6 89/2/6 92/2/6
f 90/2/6 91/2/6 93/2/6
f 93/2/6 91/2/6 94/2/6
