# MagicaVoxel @ Ephtracy

# group
o Tool - Shovel

# material
mtllib Medieval Assets-224-Tool - Shovel.mtl
usemtl palette

# normals
vn -1 0 0
vn 1 0 0
vn 0 0 1
vn 0 0 -1
vn 0 -1 0
vn 0 1 0

# texcoords
vt 0.134766 0.5
vt 0.142578 0.5
vt 0.146484 0.5
vt 0.158203 0.5
vt 0.189453 0.5
vt 0.201172 0.5

# verts
v 9 0 -2.7
v 9 0 -2.8
v 9 0.1 -2.7
v 9 0.1 -2.8
v 9 0.4 -2.7
v 9 0.4 -2.8
v 9 0.7 -2.6
v 9 0.7 -2.7
v 9 0.7 -2.8
v 9 0.7 -2.9
v 9 0.8 -2.5
v 9 0.8 -2.6
v 9 0.8 -2.7
v 9 0.8 -2.8
v 9 0.8 -2.9
v 9 0.8 -3
v 9 1.2 -2.5
v 9 1.2 -2.6
v 9 1.2 -2.9
v 9 1.2 -3
v 9 1.3 -2.6
v 9 1.3 -2.9
v 9.1 0 -2.7
v 9.1 0 -2.8
v 9.1 0.1 -2.7
v 9.1 0.1 -2.8
v 9.1 0.4 -2.7
v 9.1 0.4 -2.8
v 9.1 0.7 -2.6
v 9.1 0.7 -2.7
v 9.1 0.7 -2.8
v 9.1 0.7 -2.9
v 9.1 0.8 -2.5
v 9.1 0.8 -2.6
v 9.1 0.8 -2.7
v 9.1 0.8 -2.8
v 9.1 0.8 -2.9
v 9.1 0.8 -3
v 9.1 1.2 -2.5
v 9.1 1.2 -2.6
v 9.1 1.2 -2.9
v 9.1 1.2 -3
v 9.1 1.3 -2.6
v 9.1 1.3 -2.9
v 9 0.8 -2.5
v 9 1.2 -2.5
v 9.1 0.8 -2.5
v 9.1 1.2 -2.5
v 9 0.7 -2.6
v 9 0.8 -2.6
v 9 1.2 -2.6
v 9 1.3 -2.6
v 9.1 0.7 -2.6
v 9.1 0.8 -2.6
v 9.1 1.2 -2.6
v 9.1 1.3 -2.6
v 9 0 -2.7
v 9 0.1 -2.7
v 9 0.4 -2.7
v 9 0.7 -2.7
v 9.1 0 -2.7
v 9.1 0.1 -2.7
v 9.1 0.4 -2.7
v 9.1 0.7 -2.7
v 9 0 -2.8
v 9 0.1 -2.8
v 9 0.4 -2.8
v 9 0.7 -2.8
v 9.1 0 -2.8
v 9.1 0.1 -2.8
v 9.1 0.4 -2.8
v 9.1 0.7 -2.8
v 9 0.7 -2.9
v 9 0.8 -2.9
v 9 1.2 -2.9
v 9 1.3 -2.9
v 9.1 0.7 -2.9
v 9.1 0.8 -2.9
v 9.1 1.2 -2.9
v 9.1 1.3 -2.9
v 9 0.8 -3
v 9 1.2 -3
v 9.1 0.8 -3
v 9.1 1.2 -3
v 9 0 -2.7
v 9.1 0 -2.7
v 9 0 -2.8
v 9.1 0 -2.8
v 9 0.7 -2.6
v 9.1 0.7 -2.6
v 9 0.7 -2.7
v 9.1 0.7 -2.7
v 9 0.7 -2.8
v 9.1 0.7 -2.8
v 9 0.7 -2.9
v 9.1 0.7 -2.9
v 9 0.8 -2.5
v 9.1 0.8 -2.5
v 9 0.8 -2.6
v 9.1 0.8 -2.6
v 9 0.8 -2.9
v 9.1 0.8 -2.9
v 9 0.8 -3
v 9.1 0.8 -3
v 9 1.2 -2.5
v 9.1 1.2 -2.5
v 9 1.2 -2.6
v 9.1 1.2 -2.6
v 9 1.2 -2.9
v 9.1 1.2 -2.9
v 9 1.2 -3
v 9.1 1.2 -3
v 9 1.3 -2.6
v 9.1 1.3 -2.6
v 9 1.3 -2.9
v 9.1 1.3 -2.9

# faces
f 3/4/1 2/4/1 1/4/1
f 4/4/1 2/4/1 3/4/1
f 5/6/1 4/6/1 3/6/1
f 6/6/1 4/6/1 5/6/1
f 8/5/1 6/5/1 5/5/1
f 9/5/1 6/5/1 8/5/1
f 12/2/1 8/2/1 7/2/1
f 13/3/1 9/3/1 8/3/1
f 13/2/1 8/2/1 12/2/1
f 14/2/1 10/2/1 9/2/1
f 14/3/1 9/3/1 13/3/1
f 15/2/1 10/2/1 14/2/1
f 17/2/1 12/2/1 11/2/1
f 18/1/1 13/1/1 12/1/1
f 18/2/1 12/2/1 17/2/1
f 18/1/1 14/1/1 13/1/1
f 18/1/1 15/1/1 14/1/1
f 19/2/1 16/2/1 15/2/1
f 19/1/1 15/1/1 18/1/1
f 20/2/1 16/2/1 19/2/1
f 21/1/1 19/1/1 18/1/1
f 22/1/1 19/1/1 21/1/1
f 23/4/2 24/4/2 25/4/2
f 25/4/2 24/4/2 26/4/2
f 25/6/2 26/6/2 27/6/2
f 27/6/2 26/6/2 28/6/2
f 27/5/2 28/5/2 30/5/2
f 30/5/2 28/5/2 31/5/2
f 29/2/2 30/2/2 34/2/2
f 30/3/2 31/3/2 35/3/2
f 34/2/2 30/2/2 35/2/2
f 31/2/2 32/2/2 36/2/2
f 35/3/2 31/3/2 36/3/2
f 36/2/2 32/2/2 37/2/2
f 33/2/2 34/2/2 39/2/2
f 34/1/2 35/1/2 40/1/2
f 39/2/2 34/2/2 40/2/2
f 35/1/2 36/1/2 40/1/2
f 36/1/2 37/1/2 40/1/2
f 37/2/2 38/2/2 41/2/2
f 40/1/2 37/1/2 41/1/2
f 41/2/2 38/2/2 42/2/2
f 40/1/2 41/1/2 43/1/2
f 43/1/2 41/1/2 44/1/2
f 47/2/3 46/2/3 45/2/3
f 48/2/3 46/2/3 47/2/3
f 53/2/3 50/2/3 49/2/3
f 54/2/3 50/2/3 53/2/3
f 55/1/3 52/1/3 51/1/3
f 56/1/3 52/1/3 55/1/3
f 61/4/3 58/4/3 57/4/3
f 62/6/3 59/6/3 58/6/3
f 62/4/3 58/4/3 61/4/3
f 63/5/3 60/5/3 59/5/3
f 63/6/3 59/6/3 62/6/3
f 64/5/3 60/5/3 63/5/3
f 65/4/4 66/4/4 69/4/4
f 66/6/4 67/6/4 70/6/4
f 69/4/4 66/4/4 70/4/4
f 67/5/4 68/5/4 71/5/4
f 70/6/4 67/6/4 71/6/4
f 71/5/4 68/5/4 72/5/4
f 73/2/4 74/2/4 77/2/4
f 77/2/4 74/2/4 78/2/4
f 75/1/4 76/1/4 79/1/4
f 79/1/4 76/1/4 80/1/4
f 81/2/4 82/2/4 83/2/4
f 83/2/4 82/2/4 84/2/4
f 87/4/5 86/4/5 85/4/5
f 88/4/5 86/4/5 87/4/5
f 91/2/5 90/2/5 89/2/5
f 92/2/5 90/2/5 91/2/5
f 95/2/5 94/2/5 93/2/5
f 96/2/5 94/2/5 95/2/5
f 99/2/5 98/2/5 97/2/5
f 100/2/5 98/2/5 99/2/5
f 103/2/5 102/2/5 101/2/5
f 104/2/5 102/2/5 103/2/5
f 105/2/6 106/2/6 107/2/6
f 107/2/6 106/2/6 108/2/6
f 109/2/6 110/2/6 111/2/6
f 111/2/6 110/2/6 112/2/6
f 113/1/6 114/1/6 115/1/6
f 115/1/6 114/1/6 116/1/6
