# MagicaVoxel @ Ephtracy

# group
o Decoration - Bookshelf - Scroll - Variant2

# material
mtllib Medieval Assets-264-Decoration - Bookshelf - Scroll - Variant2.mtl
usemtl palette

# normals
vn -1 0 0
vn 1 0 0
vn 0 0 -1
vn 0 0 1
vn 0 1 0
vn 0 -1 0

# texcoords
vt 0.103516 0.5
vt 0.111328 0.5
vt 0.126953 0.5

# verts
v -2.2 1.7 -0.4
v -2.2 1.7 -0.3
v -2.2 1.6 -0.3
v -2.2 1.6 -0.2
v -2.2 1 -0.4
v -2.2 1 -0.3
v -2.2 1 -0.2
v -2.2 1 -0.1
v -2.2 0.9 -0.3
v -2.2 0.9 -0.1
v -2.2 0.8 -0.4
v -2.2 0.8 -0.1
v -2.2 0.6 -0.2
v -2.2 0.6 -0.1
v -2.2 0 -0.4
v -2.2 0 -0.2
v -2.1 1.7 -0.5
v -2.1 1.7 -0.4
v -2.1 1.7 -0.1
v -2.1 1.7 0
v -2.1 1.6 -0.2
v -2.1 1.6 -0.1
v -2.1 1.5 -0.5
v -2.1 1.5 -0.4
v -2.1 1.1 -0.5
v -2.1 1.1 -0.4
v -2.1 1.1 -0.1
v -2.1 1.1 0
v -2.1 1 -0.5
v -2.1 1 -0.4
v -2.1 1 -0.2
v -2.1 1 -0.1
v -2.1 0.9 -0.1
v -2.1 0.8 -0.5
v -2.1 0.8 -0.4
v -2.1 0.8 -0.1
v -2.1 0.8 0
v -2.1 0.6 -0.2
v -2.1 0.6 -0.1
v -2.1 0.1 -0.2
v -2.1 0.1 -0.1
v -2.1 0 -0.5
v -2.1 0 -0.4
v -2.1 0 -0.1
v -2.1 0 0
v -2 1.7 -0.4
v -2 1.7 -0.3
v -2 1.6 -0.4
v -2 1.6 -0.3
v -2 1.5 -0.5
v -2 1.5 -0.4
v -2 1.1 -0.5
v -2 1.1 -0.4
v -2 0.1 -0.3
v -2 0.1 -0.1
v -2 0 -0.3
v -2 0 -0.1
v -1.9 1.7 -0.3
v -1.9 1.7 -0.2
v -1.9 1.6 -0.3
v -1.9 1.6 -0.2
v -2.1 1.7 -0.4
v -2.1 1.7 -0.3
v -2.1 1.6 -0.4
v -2.1 1.6 -0.3
v -2.1 0.1 -0.4
v -2.1 0.1 -0.2
v -2.1 0 -0.4
v -2.1 0 -0.2
v -2 0.1 -0.5
v -2 0.1 -0.4
v -2 0.1 -0.1
v -2 0.1 0
v -2 0 -0.5
v -2 0 -0.4
v -2 0 -0.1
v -2 0 0
v -1.9 1.7 -0.5
v -1.9 1.7 -0.3
v -1.9 1.7 -0.1
v -1.9 1.7 0
v -1.9 1.6 -0.5
v -1.9 1.6 -0.3
v -1.9 1.6 -0.1
v -1.9 1.6 0
v -1.9 0.6 -0.5
v -1.9 0.6 -0.4
v -1.9 0.1 -0.5
v -1.9 0.1 -0.4
v -1.9 0.1 -0.2
v -1.9 0.1 -0.1
v -1.9 0 -0.2
v -1.9 0 -0.1
v -1.8 1.7 -0.3
v -1.8 1.7 -0.2
v -1.8 1.6 -0.5
v -1.8 1.6 -0.4
v -1.8 1.6 -0.3
v -1.8 1.6 -0.2
v -1.8 1.6 -0.1
v -1.8 1.6 0
v -1.8 1.5 -0.2
v -1.8 1.5 -0.1
v -1.8 1.1 -0.2
v -1.8 1.1 -0.1
v -1.8 1.1 0
v -1.8 0.9 -0.5
v -1.8 0.9 -0.4
v -1.8 0.9 -0.1
v -1.8 0.8 -0.5
v -1.8 0.8 -0.4
v -1.8 0.8 -0.1
v -1.8 0.8 0
v -1.8 0.7 -0.4
v -1.8 0.6 -0.5
v -1.8 0.6 -0.4
v -1.8 0.6 -0.3
v -1.8 0.1 -0.4
v -1.8 0.1 -0.3
v -1.8 0.1 -0.2
v -1.8 0.1 -0.1
v -1.8 0.1 0
v -1.8 0 -0.3
v -1.8 0 -0.2
v -1.7 1.6 -0.4
v -1.7 1.6 -0.1
v -1.7 1.5 -0.2
v -1.7 1.5 -0.1
v -1.7 1.1 -0.2
v -1.7 1.1 -0.1
v -1.7 0.9 -0.4
v -1.7 0.9 -0.1
v -1.7 0.8 -0.3
v -1.7 0.8 -0.1
v -1.7 0.7 -0.4
v -1.7 0.7 -0.3
v -1.7 0.6 -0.4
v -1.7 0.6 -0.3
v -1.7 0.1 -0.3
v -1.7 0.1 -0.1
v -2.1 1.7 -0.5
v -2.1 1.5 -0.5
v -2.1 1.1 -0.5
v -2.1 1 -0.5
v -2.1 0.8 -0.5
v -2.1 0 -0.5
v -2 1.5 -0.5
v -2 1.1 -0.5
v -2 1 -0.5
v -2 0.9 -0.5
v -2 0.1 -0.5
v -2 0 -0.5
v -1.9 1.7 -0.5
v -1.9 1.6 -0.5
v -1.9 0.6 -0.5
v -1.9 0.1 -0.5
v -1.8 1.6 -0.5
v -1.8 0.9 -0.5
v -1.8 0.8 -0.5
v -1.8 0.6 -0.5
v -2.2 1.7 -0.4
v -2.2 1 -0.4
v -2.2 0.8 -0.4
v -2.2 0 -0.4
v -2.1 1.7 -0.4
v -2.1 1.5 -0.4
v -2.1 1.1 -0.4
v -2.1 1 -0.4
v -2.1 0.8 -0.4
v -2.1 0 -0.4
v -2 1.5 -0.4
v -2 1.1 -0.4
v -1.9 0.6 -0.4
v -1.9 0.1 -0.4
v -1.8 1.6 -0.4
v -1.8 0.9 -0.4
v -1.8 0.8 -0.4
v -1.8 0.7 -0.4
v -1.8 0.6 -0.4
v -1.8 0.1 -0.4
v -1.7 1.6 -0.4
v -1.7 0.9 -0.4
v -1.7 0.7 -0.4
v -1.7 0.6 -0.4
v -2 0.1 -0.3
v -2 0 -0.3
v -1.9 1.7 -0.3
v -1.9 1.6 -0.3
v -1.8 1.7 -0.3
v -1.8 1.6 -0.3
v -1.8 0.6 -0.3
v -1.8 0.1 -0.3
v -1.8 0 -0.3
v -1.7 0.6 -0.3
v -1.7 0.1 -0.3
v -2.1 1.7 -0.1
v -2.1 1.6 -0.1
v -2.1 0.1 -0.1
v -2.1 0 -0.1
v -2 0.1 -0.1
v -2 0 -0.1
v -1.9 1.7 -0.1
v -1.9 1.6 -0.1
v -2.1 1.7 -0.4
v -2.1 1.6 -0.4
v -2.1 0.1 -0.4
v -2.1 0 -0.4
v -2 1.7 -0.4
v -2 1.6 -0.4
v -2 0.1 -0.4
v -2 0 -0.4
v -2.2 1.7 -0.3
v -2.2 1.6 -0.3
v -2.1 1.7 -0.3
v -2.1 1.6 -0.3
v -2 1.7 -0.3
v -2 1.6 -0.3
v -1.9 1.7 -0.3
v -1.9 1.6 -0.3
v -2.2 1.6 -0.2
v -2.2 1 -0.2
v -2.2 0.6 -0.2
v -2.2 0 -0.2
v -2.1 1.6 -0.2
v -2.1 1 -0.2
v -2.1 0.6 -0.2
v -2.1 0.1 -0.2
v -2.1 0 -0.2
v -1.9 1.7 -0.2
v -1.9 1.6 -0.2
v -1.9 0.1 -0.2
v -1.9 0 -0.2
v -1.8 1.7 -0.2
v -1.8 1.6 -0.2
v -1.8 1.5 -0.2
v -1.8 1.1 -0.2
v -1.8 0.1 -0.2
v -1.8 0 -0.2
v -1.7 1.5 -0.2
v -1.7 1.1 -0.2
v -2.2 1 -0.1
v -2.2 0.9 -0.1
v -2.2 0.8 -0.1
v -2.2 0.6 -0.1
v -2.1 1 -0.1
v -2.1 0.9 -0.1
v -2.1 0.8 -0.1
v -2.1 0.6 -0.1
v -2 0.1 -0.1
v -2 0 -0.1
v -1.9 0.1 -0.1
v -1.9 0 -0.1
v -1.8 1.6 -0.1
v -1.8 1.5 -0.1
v -1.8 1.1 -0.1
v -1.8 0.9 -0.1
v -1.8 0.8 -0.1
v -1.8 0.1 -0.1
v -1.7 1.6 -0.1
v -1.7 1.5 -0.1
v -1.7 1.1 -0.1
v -1.7 0.9 -0.1
v -1.7 0.8 -0.1
v -1.7 0.1 -0.1
v -2.1 1.7 0
v -2.1 1.1 0
v -2.1 0.8 0
v -2.1 0 0
v -2 0.1 0
v -2 0 0
v -1.9 1.7 0
v -1.9 1.6 0
v -1.8 1.6 0
v -1.8 1.1 0
v -1.8 0.8 0
v -1.8 0.1 0
v -2.1 1.7 -0.5
v -1.9 1.7 -0.5
v -2.2 1.7 -0.4
v -2.1 1.7 -0.4
v -2 1.7 -0.4
v -2.2 1.7 -0.3
v -2.1 1.7 -0.3
v -2 1.7 -0.3
v -1.9 1.7 -0.3
v -1.8 1.7 -0.3
v -1.9 1.7 -0.2
v -1.8 1.7 -0.2
v -2.1 1.7 -0.1
v -1.9 1.7 -0.1
v -2.1 1.7 0
v -1.9 1.7 0
v -1.9 1.6 -0.5
v -1.8 1.6 -0.5
v -2.1 1.6 -0.4
v -2 1.6 -0.4
v -1.8 1.6 -0.4
v -1.7 1.6 -0.4
v -2.2 1.6 -0.3
v -2.1 1.6 -0.3
v -2 1.6 -0.3
v -1.9 1.6 -0.3
v -1.8 1.6 -0.3
v -2.2 1.6 -0.2
v -2.1 1.6 -0.2
v -1.9 1.6 -0.2
v -1.8 1.6 -0.2
v -2.1 1.6 -0.1
v -1.9 1.6 -0.1
v -1.8 1.6 -0.1
v -1.7 1.6 -0.1
v -1.9 1.6 0
v -1.8 1.6 0
v -2.1 1.1 -0.5
v -2 1.1 -0.5
v -2.1 1.1 -0.4
v -2 1.1 -0.4
v -1.8 1.1 -0.2
v -1.7 1.1 -0.2
v -1.8 1.1 -0.1
v -1.7 1.1 -0.1
v -2.2 1 -0.2
v -2.1 1 -0.2
v -2.2 1 -0.1
v -2.1 1 -0.1
v -2.1 1.5 -0.5
v -2 1.5 -0.5
v -2.1 1.5 -0.4
v -2 1.5 -0.4
v -1.8 1.5 -0.2
v -1.7 1.5 -0.2
v -1.8 1.5 -0.1
v -1.7 1.5 -0.1
v -1.9 0.6 -0.5
v -1.8 0.6 -0.5
v -1.9 0.6 -0.4
v -1.8 0.6 -0.4
v -1.7 0.6 -0.4
v -1.8 0.6 -0.3
v -1.7 0.6 -0.3
v -2.2 0.6 -0.2
v -2.1 0.6 -0.2
v -2.2 0.6 -0.1
v -2.1 0.6 -0.1
v -2 0.1 -0.5
v -1.9 0.1 -0.5
v -2.1 0.1 -0.4
v -2 0.1 -0.4
v -1.9 0.1 -0.4
v -1.8 0.1 -0.4
v -2 0.1 -0.3
v -1.8 0.1 -0.3
v -1.7 0.1 -0.3
v -2.1 0.1 -0.2
v -1.9 0.1 -0.2
v -1.8 0.1 -0.2
v -2.1 0.1 -0.1
v -2 0.1 -0.1
v -1.9 0.1 -0.1
v -1.8 0.1 -0.1
v -1.7 0.1 -0.1
v -2 0.1 0
v -1.8 0.1 0
v -2.1 0 -0.5
v -2 0 -0.5
v -2.2 0 -0.4
v -2.1 0 -0.4
v -2 0 -0.4
v -2 0 -0.3
v -1.8 0 -0.3
v -2.2 0 -0.2
v -2.1 0 -0.2
v -1.9 0 -0.2
v -1.8 0 -0.2
v -2.1 0 -0.1
v -2 0 -0.1
v -1.9 0 -0.1
v -2.1 0 0
v -2 0 0

# faces
f 3/3/1 2/3/1 1/3/1
f 5/3/1 3/3/1 1/3/1
f 5/3/1 4/3/1 3/3/1
f 6/3/1 4/3/1 5/3/1
f 7/3/1 4/3/1 6/3/1
f 9/2/1 6/2/1 5/2/1
f 9/3/1 8/3/1 7/3/1
f 9/3/1 7/3/1 6/3/1
f 10/3/1 8/3/1 9/3/1
f 11/2/1 9/2/1 5/2/1
f 11/2/1 10/2/1 9/2/1
f 12/2/1 10/2/1 11/2/1
f 13/3/1 12/3/1 11/3/1
f 14/3/1 12/3/1 13/3/1
f 15/3/1 13/3/1 11/3/1
f 16/3/1 13/3/1 15/3/1
f 22/3/1 20/3/1 19/3/1
f 23/3/1 18/3/1 17/3/1
f 24/3/1 18/3/1 23/3/1
f 27/3/1 22/3/1 21/3/1
f 27/3/1 20/3/1 22/3/1
f 28/3/1 20/3/1 27/3/1
f 29/3/1 26/3/1 25/3/1
f 30/3/1 26/3/1 29/3/1
f 31/3/1 27/3/1 21/3/1
f 32/1/1 28/1/1 27/1/1
f 32/3/1 27/3/1 31/3/1
f 33/1/1 28/1/1 32/1/1
f 34/2/1 30/2/1 29/2/1
f 35/2/1 30/2/1 34/2/1
f 36/1/1 28/1/1 33/1/1
f 37/1/1 28/1/1 36/1/1
f 39/3/1 37/3/1 36/3/1
f 40/3/1 39/3/1 38/3/1
f 41/3/1 37/3/1 39/3/1
f 41/3/1 39/3/1 40/3/1
f 42/3/1 35/3/1 34/3/1
f 43/3/1 35/3/1 42/3/1
f 44/3/1 37/3/1 41/3/1
f 45/3/1 37/3/1 44/3/1
f 48/3/1 47/3/1 46/3/1
f 49/3/1 47/3/1 48/3/1
f 52/3/1 51/3/1 50/3/1
f 53/3/1 51/3/1 52/3/1
f 56/3/1 55/3/1 54/3/1
f 57/3/1 55/3/1 56/3/1
f 60/3/1 59/3/1 58/3/1
f 61/3/1 59/3/1 60/3/1
f 62/3/2 63/3/2 64/3/2
f 64/3/2 63/3/2 65/3/2
f 66/3/2 67/3/2 68/3/2
f 68/3/2 67/3/2 69/3/2
f 70/3/2 71/3/2 74/3/2
f 74/3/2 71/3/2 75/3/2
f 72/3/2 73/3/2 76/3/2
f 76/3/2 73/3/2 77/3/2
f 78/3/2 79/3/2 82/3/2
f 82/3/2 79/3/2 83/3/2
f 80/3/2 81/3/2 84/3/2
f 84/3/2 81/3/2 85/3/2
f 86/3/2 87/3/2 88/3/2
f 88/3/2 87/3/2 89/3/2
f 90/3/2 91/3/2 92/3/2
f 92/3/2 91/3/2 93/3/2
f 94/3/2 95/3/2 98/3/2
f 98/3/2 95/3/2 99/3/2
f 100/3/2 101/3/2 103/3/2
f 102/3/2 103/3/2 104/3/2
f 103/3/2 101/3/2 105/3/2
f 104/3/2 103/3/2 105/3/2
f 105/3/2 101/3/2 106/3/2
f 96/3/2 97/3/2 107/3/2
f 107/3/2 97/3/2 108/3/2
f 105/1/2 106/1/2 109/1/2
f 107/2/2 108/2/2 110/2/2
f 110/2/2 108/2/2 111/2/2
f 109/1/2 106/1/2 112/1/2
f 112/1/2 106/1/2 113/1/2
f 110/3/2 111/3/2 114/3/2
f 110/3/2 114/3/2 115/3/2
f 115/3/2 114/3/2 116/3/2
f 116/3/2 117/3/2 118/3/2
f 118/3/2 117/3/2 119/3/2
f 112/3/2 113/3/2 121/3/2
f 121/3/2 113/3/2 122/3/2
f 119/3/2 120/3/2 123/3/2
f 123/3/2 120/3/2 124/3/2
f 125/3/2 126/3/2 127/3/2
f 127/3/2 126/3/2 128/3/2
f 125/3/2 127/3/2 129/3/2
f 125/3/2 129/3/2 131/3/2
f 129/3/2 130/3/2 131/3/2
f 131/3/2 130/3/2 132/3/2
f 131/2/2 132/2/2 133/2/2
f 133/2/2 132/2/2 134/2/2
f 131/2/2 133/2/2 135/2/2
f 133/3/2 134/3/2 136/3/2
f 135/2/2 133/2/2 136/2/2
f 135/3/2 136/3/2 137/3/2
f 136/3/2 134/3/2 138/3/2
f 137/3/2 136/3/2 138/3/2
f 138/3/2 134/3/2 139/3/2
f 139/3/2 134/3/2 140/3/2
f 147/3/3 142/3/3 141/3/3
f 148/3/3 144/3/3 143/3/3
f 149/2/3 145/2/3 144/2/3
f 149/3/3 144/3/3 148/3/3
f 150/2/3 145/2/3 149/2/3
f 151/3/3 146/3/3 145/3/3
f 152/3/3 146/3/3 151/3/3
f 153/3/3 147/3/3 141/3/3
f 153/3/3 148/3/3 147/3/3
f 153/3/3 149/3/3 148/3/3
f 153/3/3 150/3/3 149/3/3
f 154/3/3 150/3/3 153/3/3
f 155/3/3 151/3/3 145/3/3
f 156/3/3 151/3/3 155/3/3
f 157/3/3 150/3/3 154/3/3
f 158/2/3 145/2/3 150/2/3
f 158/3/3 150/3/3 157/3/3
f 159/3/3 155/3/3 145/3/3
f 159/2/3 145/2/3 158/2/3
f 160/3/3 155/3/3 159/3/3
f 165/3/3 162/3/3 161/3/3
f 166/3/3 162/3/3 165/3/3
f 167/3/3 162/3/3 166/3/3
f 168/2/3 163/2/3 162/2/3
f 168/3/3 162/3/3 167/3/3
f 169/3/3 164/3/3 163/3/3
f 169/2/3 163/2/3 168/2/3
f 170/3/3 164/3/3 169/3/3
f 171/3/3 167/3/3 166/3/3
f 172/3/3 167/3/3 171/3/3
f 179/3/3 174/3/3 173/3/3
f 180/3/3 174/3/3 179/3/3
f 181/3/3 176/3/3 175/3/3
f 182/2/3 178/2/3 177/2/3
f 182/3/3 176/3/3 181/3/3
f 182/2/3 177/2/3 176/2/3
f 183/3/3 179/3/3 178/3/3
f 183/2/3 178/2/3 182/2/3
f 184/3/3 179/3/3 183/3/3
f 189/3/3 188/3/3 187/3/3
f 190/3/3 188/3/3 189/3/3
f 192/3/3 186/3/3 185/3/3
f 193/3/3 186/3/3 192/3/3
f 194/3/3 192/3/3 191/3/3
f 195/3/3 192/3/3 194/3/3
f 200/3/3 199/3/3 198/3/3
f 201/3/3 199/3/3 200/3/3
f 202/3/3 197/3/3 196/3/3
f 203/3/3 197/3/3 202/3/3
f 204/3/4 205/3/4 208/3/4
f 208/3/4 205/3/4 209/3/4
f 206/3/4 207/3/4 210/3/4
f 210/3/4 207/3/4 211/3/4
f 212/3/4 213/3/4 214/3/4
f 214/3/4 213/3/4 215/3/4
f 216/3/4 217/3/4 218/3/4
f 218/3/4 217/3/4 219/3/4
f 220/3/4 221/3/4 224/3/4
f 224/3/4 221/3/4 225/3/4
f 222/3/4 223/3/4 226/3/4
f 226/3/4 223/3/4 227/3/4
f 227/3/4 223/3/4 228/3/4
f 229/3/4 230/3/4 233/3/4
f 233/3/4 230/3/4 234/3/4
f 231/3/4 232/3/4 237/3/4
f 237/3/4 232/3/4 238/3/4
f 235/3/4 236/3/4 239/3/4
f 239/3/4 236/3/4 240/3/4
f 241/3/4 242/3/4 245/3/4
f 242/2/4 243/2/4 246/2/4
f 245/3/4 242/3/4 246/3/4
f 243/3/4 244/3/4 247/3/4
f 246/2/4 243/2/4 247/2/4
f 247/3/4 244/3/4 248/3/4
f 249/3/4 250/3/4 251/3/4
f 251/3/4 250/3/4 252/3/4
f 253/3/4 254/3/4 259/3/4
f 259/3/4 254/3/4 260/3/4
f 255/3/4 256/3/4 261/3/4
f 256/2/4 257/2/4 262/2/4
f 261/3/4 256/3/4 262/3/4
f 257/3/4 258/3/4 263/3/4
f 262/2/4 257/2/4 263/2/4
f 263/3/4 258/3/4 264/3/4
f 267/3/4 268/3/4 269/3/4
f 269/3/4 268/3/4 270/3/4
f 265/3/4 266/3/4 271/3/4
f 271/3/4 266/3/4 272/3/4
f 272/3/4 266/3/4 273/3/4
f 266/1/4 267/1/4 274/1/4
f 273/3/4 266/3/4 274/3/4
f 267/3/4 269/3/4 275/3/4
f 274/1/4 267/1/4 275/1/4
f 275/3/4 269/3/4 276/3/4
f 280/3/5 278/3/5 277/3/5
f 281/3/5 278/3/5 280/3/5
f 282/3/5 280/3/5 279/3/5
f 283/3/5 280/3/5 282/3/5
f 284/3/5 278/3/5 281/3/5
f 285/3/5 278/3/5 284/3/5
f 287/3/5 286/3/5 285/3/5
f 288/3/5 286/3/5 287/3/5
f 291/3/5 290/3/5 289/3/5
f 292/3/5 290/3/5 291/3/5
f 297/3/5 294/3/5 293/3/5
f 300/3/5 296/3/5 295/3/5
f 301/3/5 296/3/5 300/3/5
f 302/3/5 298/3/5 297/3/5
f 302/3/5 297/3/5 293/3/5
f 303/3/5 298/3/5 302/3/5
f 304/3/5 301/3/5 300/3/5
f 304/3/5 300/3/5 299/3/5
f 304/3/5 302/3/5 301/3/5
f 305/3/5 302/3/5 304/3/5
f 306/3/5 302/3/5 305/3/5
f 307/3/5 298/3/5 303/3/5
f 308/3/5 306/3/5 305/3/5
f 308/3/5 307/3/5 306/3/5
f 309/3/5 307/3/5 308/3/5
f 310/3/5 298/3/5 307/3/5
f 310/3/5 307/3/5 309/3/5
f 311/3/5 298/3/5 310/3/5
f 312/3/5 310/3/5 309/3/5
f 313/3/5 310/3/5 312/3/5
f 316/3/5 315/3/5 314/3/5
f 317/3/5 315/3/5 316/3/5
f 320/3/5 319/3/5 318/3/5
f 321/3/5 319/3/5 320/3/5
f 324/3/5 323/3/5 322/3/5
f 325/3/5 323/3/5 324/3/5
f 326/3/6 327/3/6 328/3/6
f 328/3/6 327/3/6 329/3/6
f 330/3/6 331/3/6 332/3/6
f 332/3/6 331/3/6 333/3/6
f 334/3/6 335/3/6 336/3/6
f 336/3/6 335/3/6 337/3/6
f 337/3/6 338/3/6 339/3/6
f 339/3/6 338/3/6 340/3/6
f 341/3/6 342/3/6 343/3/6
f 343/3/6 342/3/6 344/3/6
f 345/3/6 346/3/6 348/3/6
f 348/3/6 346/3/6 349/3/6
f 347/3/6 348/3/6 351/3/6
f 349/3/6 350/3/6 351/3/6
f 348/3/6 349/3/6 351/3/6
f 351/3/6 350/3/6 352/3/6
f 347/3/6 351/3/6 354/3/6
f 352/3/6 353/3/6 356/3/6
f 354/3/6 351/3/6 357/3/6
f 357/3/6 351/3/6 358/3/6
f 355/3/6 356/3/6 359/3/6
f 356/3/6 353/3/6 360/3/6
f 359/3/6 356/3/6 360/3/6
f 360/3/6 353/3/6 361/3/6
f 358/3/6 359/3/6 362/3/6
f 359/3/6 360/3/6 362/3/6
f 362/3/6 360/3/6 363/3/6
f 364/3/6 365/3/6 367/3/6
f 367/3/6 365/3/6 368/3/6
f 366/3/6 367/3/6 371/3/6
f 371/3/6 367/3/6 372/3/6
f 369/3/6 370/3/6 373/3/6
f 373/3/6 370/3/6 374/3/6
f 369/3/6 373/3/6 376/3/6
f 376/3/6 373/3/6 377/3/6
f 375/3/6 376/3/6 378/3/6
f 378/3/6 376/3/6 379/3/6
