# MagicaVoxel @ Ephtracy

# group
o Decoration - Wooden Plank Short - Variant1

# material
mtllib Medieval Assets-91-Decoration - Wooden Plank Short - Variant1.mtl
usemtl palette

# normals
vn -1 0 0
vn 1 0 0
vn 0 0 1
vn 0 0 -1
vn 0 -1 0
vn 0 1 0

# texcoords
vt 0.169922 0.5
vt 0.193359 0.5
vt 0.201172 0.5
vt 0.205078 0.5

# verts
v 24.9 -0.1 0.3
v 24.9 -0.1 0.1
v 24.9 -0.1 -0.4
v 24.9 -0.1 -0.6
v 24.9 -0.1 -1.5
v 24.9 -0.1 -1.6
v 24.9 -0.1 -1.7
v 24.9 0 0.1
v 24.9 0 -0.4
v 24.9 0 -0.6
v 24.9 0 -0.7
v 24.9 0 -1.5
v 24.9 0 -1.6
v 24.9 0 -1.7
v 24.9 0.1 0.3
v 24.9 0.1 -0.7
v 24.9 0.1 -1.6
v 24.9 0.1 -1.7
v 25.9 -0.1 0.3
v 25.9 -0.1 -0.3
v 25.9 -0.1 -0.6
v 25.9 -0.1 -1.4
v 25.9 -0.1 -1.7
v 25.9 0 0.3
v 25.9 0 0.1
v 25.9 0 -0.3
v 25.9 0 -0.6
v 25.9 0 -1.4
v 25.9 0 -1.5
v 25.9 0 -1.7
v 25.9 0.1 0.3
v 25.9 0.1 0.1
v 25.9 0.1 -1.4
v 25.9 0.1 -1.5
v 25.9 0.1 -1.7
v 24.9 -0.1 0.3
v 24.9 0.1 0.3
v 25.2 0 0.3
v 25.2 0.1 0.3
v 25.3 0 0.3
v 25.3 0.1 0.3
v 25.8 0 0.3
v 25.8 0.1 0.3
v 25.9 -0.1 0.3
v 25.9 0 0.3
v 25.9 0.1 0.3
v 24.9 -0.1 -1.7
v 24.9 0 -1.7
v 24.9 0.1 -1.7
v 25 -0.1 -1.7
v 25 0 -1.7
v 25.1 0 -1.7
v 25.1 0.1 -1.7
v 25.2 -0.1 -1.7
v 25.2 0 -1.7
v 25.2 0.1 -1.7
v 25.3 -0.1 -1.7
v 25.3 0 -1.7
v 25.3 0.1 -1.7
v 25.4 0 -1.7
v 25.4 0.1 -1.7
v 25.5 -0.1 -1.7
v 25.5 0 -1.7
v 25.6 0 -1.7
v 25.6 0.1 -1.7
v 25.7 -0.1 -1.7
v 25.7 0 -1.7
v 25.7 0.1 -1.7
v 25.8 -0.1 -1.7
v 25.8 0 -1.7
v 25.8 0.1 -1.7
v 25.9 -0.1 -1.7
v 25.9 0 -1.7
v 25.9 0.1 -1.7
v 24.9 -0.1 0.3
v 25.9 -0.1 0.3
v 25.1 -0.1 0.2
v 25.2 -0.1 0.2
v 24.9 -0.1 0.1
v 25 -0.1 0.1
v 25.1 -0.1 0
v 25.2 -0.1 0
v 25.3 -0.1 0
v 25.4 -0.1 0
v 25.3 -0.1 -0.2
v 25.4 -0.1 -0.2
v 25.6 -0.1 -0.2
v 25.7 -0.1 -0.2
v 25.8 -0.1 -0.3
v 25.9 -0.1 -0.3
v 24.9 -0.1 -0.4
v 25 -0.1 -0.4
v 25.1 -0.1 -0.4
v 25.1 -0.1 -0.5
v 25.2 -0.1 -0.5
v 25.3 -0.1 -0.5
v 25.5 -0.1 -0.5
v 25.6 -0.1 -0.5
v 24.9 -0.1 -0.6
v 25 -0.1 -0.6
v 25.1 -0.1 -0.6
v 25.3 -0.1 -0.6
v 25.4 -0.1 -0.6
v 25.5 -0.1 -0.6
v 25.6 -0.1 -0.6
v 25.8 -0.1 -0.6
v 25.9 -0.1 -0.6
v 25.1 -0.1 -0.8
v 25.2 -0.1 -0.8
v 25.6 -0.1 -0.8
v 25.7 -0.1 -0.8
v 25.4 -0.1 -0.9
v 25.5 -0.1 -0.9
v 25.3 -0.1 -1
v 25.4 -0.1 -1
v 25.4 -0.1 -1.2
v 25.5 -0.1 -1.2
v 25.2 -0.1 -1.3
v 25.3 -0.1 -1.3
v 25.6 -0.1 -1.3
v 25.7 -0.1 -1.3
v 25.7 -0.1 -1.4
v 25.8 -0.1 -1.4
v 25.9 -0.1 -1.4
v 24.9 -0.1 -1.5
v 25 -0.1 -1.5
v 25.2 -0.1 -1.5
v 25.3 -0.1 -1.5
v 24.9 -0.1 -1.6
v 25 -0.1 -1.6
v 25.3 -0.1 -1.6
v 25.4 -0.1 -1.6
v 25.5 -0.1 -1.6
v 25.6 -0.1 -1.6
v 25.7 -0.1 -1.6
v 25.8 -0.1 -1.6
v 24.9 -0.1 -1.7
v 25 -0.1 -1.7
v 25.2 -0.1 -1.7
v 25.3 -0.1 -1.7
v 25.5 -0.1 -1.7
v 25.7 -0.1 -1.7
v 25.8 -0.1 -1.7
v 25.9 -0.1 -1.7
v 24.9 0.1 0.3
v 25.2 0.1 0.3
v 25.3 0.1 0.3
v 25.8 0.1 0.3
v 25.9 0.1 0.3
v 25.6 0.1 0.2
v 25.7 0.1 0.2
v 25.1 0.1 0.1
v 25.2 0.1 0.1
v 25.8 0.1 0.1
v 25.9 0.1 0.1
v 25.1 0.1 0
v 25.3 0.1 0
v 25.1 0.1 -0.2
v 25.2 0.1 -0.2
v 25.6 0.1 -0.2
v 25.7 0.1 -0.2
v 25.8 0.1 -0.2
v 25 0.1 -0.3
v 25.1 0.1 -0.3
v 25.5 0.1 -0.3
v 25.7 0.1 -0.3
v 25.1 0.1 -0.4
v 25.2 0.1 -0.4
v 25.3 0.1 -0.5
v 25.4 0.1 -0.5
v 25.5 0.1 -0.5
v 25.6 0.1 -0.5
v 25 0.1 -0.6
v 25.1 0.1 -0.6
v 25.3 0.1 -0.6
v 25.4 0.1 -0.6
v 25.6 0.1 -0.6
v 25.7 0.1 -0.6
v 24.9 0.1 -0.7
v 25 0.1 -0.7
v 25.7 0.1 -0.8
v 25.8 0.1 -0.8
v 25.3 0.1 -0.9
v 25.4 0.1 -0.9
v 25.2 0.1 -1
v 25.3 0.1 -1
v 25.1 0.1 -1.1
v 25.2 0.1 -1.1
v 25.5 0.1 -1.1
v 25.6 0.1 -1.1
v 25.3 0.1 -1.2
v 25.4 0.1 -1.2
v 25.6 0.1 -1.2
v 25.7 0.1 -1.2
v 25.1 0.1 -1.3
v 25.2 0.1 -1.3
v 25.6 0.1 -1.3
v 25.7 0.1 -1.3
v 25.8 0.1 -1.3
v 25.1 0.1 -1.4
v 25.2 0.1 -1.4
v 25.5 0.1 -1.4
v 25.7 0.1 -1.4
v 25.8 0.1 -1.4
v 25.9 0.1 -1.4
v 25.7 0.1 -1.5
v 25.8 0.1 -1.5
v 25.9 0.1 -1.5
v 24.9 0.1 -1.6
v 25 0.1 -1.6
v 25.2 0.1 -1.6
v 25.3 0.1 -1.6
v 25.4 0.1 -1.6
v 25.6 0.1 -1.6
v 25.7 0.1 -1.6
v 24.9 0.1 -1.7
v 25.1 0.1 -1.7
v 25.2 0.1 -1.7
v 25.3 0.1 -1.7
v 25.4 0.1 -1.7
v 25.6 0.1 -1.7
v 25.7 0.1 -1.7
v 25.8 0.1 -1.7
v 25.9 0.1 -1.7

# faces
f 8/3/1 2/3/1 1/3/1
f 8/2/1 3/2/1 2/2/1
f 9/1/1 4/1/1 3/1/1
f 9/2/1 3/2/1 8/2/1
f 10/3/1 5/3/1 4/3/1
f 10/1/1 4/1/1 9/1/1
f 11/3/1 5/3/1 10/3/1
f 12/2/1 6/2/1 5/2/1
f 12/3/1 5/3/1 11/3/1
f 13/1/1 7/1/1 6/1/1
f 13/2/1 6/2/1 12/2/1
f 14/1/1 7/1/1 13/1/1
f 15/3/1 11/3/1 10/3/1
f 15/3/1 8/3/1 1/3/1
f 15/3/1 9/3/1 8/3/1
f 15/3/1 10/3/1 9/3/1
f 16/4/1 12/4/1 11/4/1
f 16/3/1 11/3/1 15/3/1
f 16/4/1 13/4/1 12/4/1
f 17/3/1 14/3/1 13/3/1
f 17/4/1 13/4/1 16/4/1
f 18/3/1 14/3/1 17/3/1
f 19/3/2 20/3/2 24/3/2
f 24/3/2 20/3/2 25/3/2
f 20/4/2 21/4/2 26/4/2
f 25/3/2 20/3/2 26/3/2
f 21/3/2 22/3/2 27/3/2
f 26/4/2 21/4/2 27/4/2
f 22/4/2 23/4/2 28/4/2
f 27/3/2 22/3/2 28/3/2
f 28/4/2 23/4/2 29/4/2
f 29/4/2 23/4/2 30/4/2
f 24/4/2 25/4/2 31/4/2
f 26/3/2 27/3/2 32/3/2
f 31/4/2 25/4/2 32/4/2
f 25/3/2 26/3/2 32/3/2
f 27/3/2 28/3/2 32/3/2
f 28/2/2 29/2/2 33/2/2
f 32/3/2 28/3/2 33/3/2
f 29/3/2 30/3/2 34/3/2
f 33/2/2 29/2/2 34/2/2
f 34/3/2 30/3/2 35/3/2
f 38/3/3 37/3/3 36/3/3
f 39/3/3 37/3/3 38/3/3
f 40/3/3 38/3/3 36/3/3
f 40/4/3 39/4/3 38/4/3
f 41/4/3 39/4/3 40/4/3
f 42/3/3 40/3/3 36/3/3
f 42/3/3 41/3/3 40/3/3
f 43/3/3 41/3/3 42/3/3
f 44/3/3 42/3/3 36/3/3
f 45/4/3 43/4/3 42/4/3
f 45/3/3 42/3/3 44/3/3
f 46/4/3 43/4/3 45/4/3
f 47/1/4 48/1/4 50/1/4
f 48/3/4 49/3/4 51/3/4
f 50/1/4 48/1/4 51/1/4
f 50/3/4 51/3/4 52/3/4
f 51/3/4 49/3/4 52/3/4
f 52/3/4 49/3/4 53/3/4
f 50/3/4 52/3/4 54/3/4
f 52/4/4 53/4/4 55/4/4
f 54/3/4 52/3/4 55/3/4
f 55/4/4 53/4/4 56/4/4
f 54/2/4 55/2/4 57/2/4
f 55/3/4 56/3/4 58/3/4
f 57/2/4 55/2/4 58/2/4
f 58/3/4 56/3/4 59/3/4
f 57/1/4 58/1/4 60/1/4
f 58/2/4 59/2/4 60/2/4
f 60/2/4 59/2/4 61/2/4
f 57/1/4 60/1/4 62/1/4
f 60/3/4 61/3/4 63/3/4
f 62/1/4 60/1/4 63/1/4
f 62/2/4 63/2/4 64/2/4
f 63/3/4 61/3/4 64/3/4
f 64/3/4 61/3/4 65/3/4
f 62/2/4 64/2/4 66/2/4
f 64/2/4 65/2/4 66/2/4
f 66/2/4 65/2/4 67/2/4
f 67/2/4 65/2/4 68/2/4
f 66/3/4 67/3/4 69/3/4
f 67/4/4 68/4/4 70/4/4
f 69/3/4 67/3/4 70/3/4
f 70/4/4 68/4/4 71/4/4
f 69/4/4 70/4/4 72/4/4
f 70/3/4 71/3/4 73/3/4
f 72/4/4 70/4/4 73/4/4
f 73/3/4 71/3/4 74/3/4
f 77/3/5 76/3/5 75/3/5
f 78/3/5 76/3/5 77/3/5
f 79/3/5 77/3/5 75/3/5
f 80/3/5 77/3/5 79/3/5
f 81/4/5 78/4/5 77/4/5
f 81/3/5 77/3/5 80/3/5
f 82/3/5 76/3/5 78/3/5
f 82/4/5 78/4/5 81/4/5
f 83/3/5 76/3/5 82/3/5
f 84/3/5 76/3/5 83/3/5
f 85/3/5 82/3/5 81/3/5
f 85/3/5 83/3/5 82/3/5
f 85/4/5 84/4/5 83/4/5
f 86/3/5 76/3/5 84/3/5
f 86/4/5 84/4/5 85/4/5
f 87/3/5 76/3/5 86/3/5
f 88/3/5 76/3/5 87/3/5
f 89/3/5 76/3/5 88/3/5
f 90/3/5 76/3/5 89/3/5
f 91/2/5 80/2/5 79/2/5
f 92/3/5 81/3/5 80/3/5
f 92/2/5 80/2/5 91/2/5
f 92/3/5 85/3/5 81/3/5
f 92/3/5 86/3/5 85/3/5
f 92/3/5 87/3/5 86/3/5
f 93/3/5 87/3/5 92/3/5
f 94/4/5 93/4/5 92/4/5
f 94/3/5 87/3/5 93/3/5
f 95/3/5 87/3/5 94/3/5
f 96/3/5 87/3/5 95/3/5
f 97/3/5 87/3/5 96/3/5
f 98/4/5 88/4/5 87/4/5
f 98/3/5 87/3/5 97/3/5
f 99/1/5 92/1/5 91/1/5
f 100/4/5 94/4/5 92/4/5
f 100/1/5 92/1/5 99/1/5
f 100/4/5 95/4/5 94/4/5
f 101/4/5 95/4/5 100/4/5
f 102/3/5 97/3/5 96/3/5
f 102/2/5 96/2/5 95/2/5
f 103/3/5 97/3/5 102/3/5
f 104/2/5 98/2/5 97/2/5
f 104/3/5 97/3/5 103/3/5
f 105/4/5 88/4/5 98/4/5
f 105/2/5 98/2/5 104/2/5
f 106/4/5 90/4/5 89/4/5
f 106/3/5 89/3/5 88/3/5
f 107/4/5 90/4/5 106/4/5
f 108/4/5 95/4/5 101/4/5
f 108/3/5 101/3/5 100/3/5
f 108/3/5 100/3/5 99/3/5
f 109/2/5 103/2/5 102/2/5
f 109/4/5 95/4/5 108/4/5
f 109/2/5 102/2/5 95/2/5
f 110/4/5 88/4/5 105/4/5
f 110/3/5 105/3/5 104/3/5
f 110/3/5 104/3/5 103/3/5
f 111/3/5 106/3/5 88/3/5
f 111/4/5 88/4/5 110/4/5
f 111/3/5 107/3/5 106/3/5
f 112/2/5 103/2/5 109/2/5
f 112/3/5 110/3/5 103/3/5
f 112/3/5 111/3/5 110/3/5
f 113/3/5 111/3/5 112/3/5
f 114/2/5 112/2/5 109/2/5
f 115/1/5 113/1/5 112/1/5
f 115/2/5 112/2/5 114/2/5
f 116/4/5 115/4/5 114/4/5
f 116/1/5 113/1/5 115/1/5
f 117/3/5 111/3/5 113/3/5
f 117/1/5 113/1/5 116/1/5
f 118/3/5 109/3/5 108/3/5
f 118/2/5 114/2/5 109/2/5
f 119/4/5 116/4/5 114/4/5
f 119/2/5 114/2/5 118/2/5
f 120/3/5 111/3/5 117/3/5
f 120/3/5 117/3/5 116/3/5
f 121/3/5 107/3/5 111/3/5
f 121/3/5 111/3/5 120/3/5
f 122/2/5 121/2/5 120/2/5
f 122/3/5 107/3/5 121/3/5
f 123/3/5 107/3/5 122/3/5
f 124/3/5 107/3/5 123/3/5
f 125/3/5 108/3/5 99/3/5
f 125/3/5 118/3/5 108/3/5
f 125/3/5 119/3/5 118/3/5
f 126/3/5 119/3/5 125/3/5
f 127/3/5 119/3/5 126/3/5
f 128/4/5 116/4/5 119/4/5
f 128/3/5 119/3/5 127/3/5
f 129/2/5 126/2/5 125/2/5
f 130/3/5 127/3/5 126/3/5
f 130/2/5 126/2/5 129/2/5
f 131/4/5 116/4/5 128/4/5
f 131/2/5 128/2/5 127/2/5
f 132/3/5 120/3/5 116/3/5
f 132/4/5 116/4/5 131/4/5
f 133/3/5 120/3/5 132/3/5
f 134/2/5 123/2/5 122/2/5
f 134/3/5 120/3/5 133/3/5
f 134/2/5 122/2/5 120/2/5
f 135/2/5 123/2/5 134/2/5
f 136/4/5 124/4/5 123/4/5
f 136/2/5 123/2/5 135/2/5
f 137/1/5 130/1/5 129/1/5
f 138/3/5 127/3/5 130/3/5
f 138/1/5 130/1/5 137/1/5
f 139/2/5 131/2/5 127/2/5
f 139/3/5 127/3/5 138/3/5
f 140/1/5 133/1/5 132/1/5
f 140/2/5 131/2/5 139/2/5
f 140/1/5 132/1/5 131/1/5
f 141/2/5 135/2/5 134/2/5
f 141/1/5 133/1/5 140/1/5
f 141/2/5 134/2/5 133/2/5
f 142/3/5 136/3/5 135/3/5
f 142/2/5 135/2/5 141/2/5
f 143/4/5 124/4/5 136/4/5
f 143/3/5 136/3/5 142/3/5
f 144/4/5 124/4/5 143/4/5
f 147/3/6 148/3/6 150/3/6
f 150/3/6 148/3/6 151/3/6
f 145/3/6 146/3/6 152/3/6
f 146/4/6 147/4/6 153/4/6
f 152/3/6 146/3/6 153/3/6
f 151/3/6 148/3/6 154/3/6
f 148/4/6 149/4/6 154/4/6
f 154/4/6 149/4/6 155/4/6
f 145/3/6 152/3/6 156/3/6
f 152/4/6 153/4/6 156/4/6
f 153/4/6 147/4/6 157/4/6
f 156/4/6 153/4/6 157/4/6
f 147/3/6 150/3/6 157/3/6
f 145/3/6 156/3/6 158/3/6
f 156/3/6 157/3/6 158/3/6
f 158/3/6 157/3/6 159/3/6
f 157/3/6 150/3/6 160/3/6
f 159/3/6 157/3/6 160/3/6
f 150/4/6 151/4/6 160/4/6
f 154/3/6 155/3/6 161/3/6
f 160/4/6 151/4/6 161/4/6
f 151/3/6 154/3/6 161/3/6
f 161/3/6 155/3/6 162/3/6
f 145/3/6 158/3/6 163/3/6
f 158/4/6 159/4/6 164/4/6
f 163/3/6 158/3/6 164/3/6
f 159/3/6 160/3/6 165/3/6
f 160/3/6 161/3/6 165/3/6
f 161/2/6 162/2/6 166/2/6
f 165/3/6 161/3/6 166/3/6
f 164/4/6 159/4/6 167/4/6
f 163/4/6 164/4/6 167/4/6
f 159/3/6 165/3/6 168/3/6
f 167/4/6 159/4/6 168/4/6
f 167/3/6 168/3/6 169/3/6
f 168/3/6 165/3/6 169/3/6
f 169/3/6 165/3/6 170/3/6
f 165/2/6 166/2/6 171/2/6
f 170/3/6 165/3/6 171/3/6
f 171/2/6 166/2/6 172/2/6
f 145/3/6 163/3/6 173/3/6
f 163/4/6 167/4/6 173/4/6
f 167/3/6 169/3/6 174/3/6
f 173/4/6 167/4/6 174/4/6
f 169/2/6 170/2/6 175/2/6
f 174/3/6 169/3/6 175/3/6
f 171/3/6 172/3/6 176/3/6
f 175/2/6 170/2/6 176/2/6
f 170/3/6 171/3/6 176/3/6
f 172/2/6 166/2/6 177/2/6
f 176/3/6 172/3/6 177/3/6
f 166/2/6 162/2/6 178/2/6
f 177/2/6 166/2/6 178/2/6
f 175/3/6 176/3/6 179/3/6
f 176/3/6 177/3/6 179/3/6
f 173/3/6 174/3/6 179/3/6
f 145/3/6 173/3/6 179/3/6
f 174/3/6 175/3/6 179/3/6
f 179/3/6 177/3/6 180/3/6
f 178/2/6 162/2/6 181/2/6
f 177/4/6 178/4/6 181/4/6
f 162/3/6 155/3/6 182/3/6
f 181/2/6 162/2/6 182/2/6
f 180/3/6 177/3/6 183/3/6
f 183/3/6 177/3/6 184/3/6
f 180/3/6 183/3/6 185/3/6
f 183/2/6 184/2/6 186/2/6
f 185/3/6 183/3/6 186/3/6
f 180/3/6 185/3/6 187/3/6
f 185/2/6 186/2/6 188/2/6
f 187/3/6 185/3/6 188/3/6
f 184/3/6 177/3/6 189/3/6
f 177/4/6 181/4/6 190/4/6
f 189/3/6 177/3/6 190/3/6
f 188/2/6 186/2/6 191/2/6
f 186/2/6 184/2/6 191/2/6
f 187/2/6 188/2/6 191/2/6
f 184/3/6 189/3/6 192/3/6
f 191/2/6 184/2/6 192/2/6
f 190/4/6 181/4/6 193/4/6
f 189/4/6 190/4/6 193/4/6
f 181/3/6 182/3/6 194/3/6
f 193/4/6 181/4/6 194/4/6
f 187/2/6 191/2/6 195/2/6
f 180/3/6 187/3/6 195/3/6
f 195/2/6 191/2/6 196/2/6
f 189/4/6 193/4/6 197/4/6
f 193/3/6 194/3/6 197/3/6
f 194/3/6 182/3/6 198/3/6
f 197/3/6 194/3/6 198/3/6
f 182/3/6 155/3/6 199/3/6
f 198/3/6 182/3/6 199/3/6
f 195/3/6 196/3/6 200/3/6
f 180/3/6 195/3/6 200/3/6
f 196/2/6 191/2/6 201/2/6
f 200/3/6 196/3/6 201/3/6
f 197/4/6 198/4/6 202/4/6
f 189/4/6 197/4/6 202/4/6
f 192/3/6 189/3/6 202/3/6
f 191/3/6 192/3/6 202/3/6
f 198/2/6 199/2/6 203/2/6
f 202/4/6 198/4/6 203/4/6
f 199/3/6 155/3/6 204/3/6
f 203/2/6 199/2/6 204/2/6
f 204/3/6 155/3/6 205/3/6
f 202/3/6 203/3/6 206/3/6
f 203/2/6 204/2/6 206/2/6
f 204/2/6 205/2/6 206/2/6
f 206/2/6 205/2/6 207/2/6
f 207/2/6 205/2/6 208/2/6
f 179/4/6 180/4/6 209/4/6
f 180/3/6 200/3/6 210/3/6
f 209/4/6 180/4/6 210/4/6
f 201/2/6 191/2/6 211/2/6
f 200/4/6 201/4/6 211/4/6
f 191/3/6 202/3/6 212/3/6
f 211/2/6 191/2/6 212/2/6
f 202/3/6 206/3/6 212/3/6
f 212/3/6 206/3/6 213/3/6
f 213/3/6 206/3/6 214/3/6
f 206/4/6 207/4/6 215/4/6
f 214/3/6 206/3/6 215/3/6
f 209/3/6 210/3/6 216/3/6
f 210/3/6 200/3/6 217/3/6
f 216/3/6 210/3/6 217/3/6
f 200/4/6 211/4/6 217/4/6
f 211/3/6 212/3/6 218/3/6
f 217/4/6 211/4/6 218/4/6
f 212/2/6 213/2/6 219/2/6
f 218/3/6 212/3/6 219/3/6
f 213/3/6 214/3/6 220/3/6
f 219/2/6 213/2/6 220/2/6
f 214/2/6 215/2/6 221/2/6
f 220/3/6 214/3/6 221/3/6
f 215/4/6 207/4/6 222/4/6
f 221/2/6 215/2/6 222/2/6
f 207/3/6 208/3/6 223/3/6
f 222/4/6 207/4/6 223/4/6
f 223/3/6 208/3/6 224/3/6
