# MagicaVoxel @ Ephtracy

# group
o Decoration - Table - Checker Variant2

# material
mtllib Medieval Assets-14-Decoration - Table - Checker Variant2.mtl
usemtl palette

# normals
vn -1 0 0
vn 1 0 0
vn 0 0 1
vn 0 0 -1
vn 0 -1 0
vn 0 1 0

# texcoords
vt 0.162109 0.5
vt 0.169922 0.5
vt 0.185547 0.5

# verts
v -41.1 0 -43.8
v -41.1 0 -44.1
v -41.1 0 -44.9
v -41.1 0 -45.2
v -41.1 0.1 -43.8
v -41.1 0.1 -44.1
v -41.1 0.1 -44.9
v -41.1 0.1 -45.2
v -41 0.1 -43.9
v -41 0.1 -44
v -41 0.1 -45
v -41 0.1 -45.1
v -41 0.7 -44
v -41 0.7 -45
v -41 0.8 -44.2
v -41 0.8 -44.5
v -41 0.8 -44.8
v -41 0.8 -45.1
v -41 0.9 -43.9
v -41 0.9 -44.2
v -41 0.9 -44.5
v -41 0.9 -44.8
v -41 0.9 -45.1
v -39.2 0 -43.8
v -39.2 0 -44.1
v -39.2 0 -44.9
v -39.2 0 -45.2
v -39.2 0.1 -43.8
v -39.2 0.1 -44.1
v -39.2 0.1 -44.9
v -39.2 0.1 -45.2
v -39.1 0.1 -43.9
v -39.1 0.1 -44
v -39.1 0.1 -45
v -39.1 0.1 -45.1
v -39.1 0.7 -43.9
v -39.1 0.7 -44
v -39.1 0.7 -45
v -39.1 0.7 -45.1
v -39.1 0.8 -44
v -39.1 0.8 -44.2
v -39.1 0.8 -44.5
v -39.1 0.8 -44.8
v -39.1 0.8 -45
v -40.9 0.1 -43.9
v -40.9 0.1 -44
v -40.9 0.1 -45
v -40.9 0.1 -45.1
v -40.9 0.7 -43.9
v -40.9 0.7 -44
v -40.9 0.7 -45
v -40.9 0.7 -45.1
v -40.9 0.8 -44
v -40.9 0.8 -44.2
v -40.9 0.8 -44.5
v -40.9 0.8 -44.8
v -40.9 0.8 -45
v -40.8 0 -43.8
v -40.8 0 -44.1
v -40.8 0 -44.9
v -40.8 0 -45.2
v -40.8 0.1 -43.8
v -40.8 0.1 -44.1
v -40.8 0.1 -44.9
v -40.8 0.1 -45.2
v -39 0.1 -43.9
v -39 0.1 -44
v -39 0.1 -45
v -39 0.1 -45.1
v -39 0.7 -44
v -39 0.7 -45
v -39 0.8 -44.2
v -39 0.8 -44.5
v -39 0.8 -44.8
v -39 0.8 -45.1
v -39 0.9 -43.9
v -39 0.9 -44.2
v -39 0.9 -44.5
v -39 0.9 -44.8
v -39 0.9 -45.1
v -38.9 0 -43.8
v -38.9 0 -44.1
v -38.9 0 -44.9
v -38.9 0 -45.2
v -38.9 0.1 -43.8
v -38.9 0.1 -44.1
v -38.9 0.1 -44.9
v -38.9 0.1 -45.2
v -41.1 0 -43.8
v -41.1 0.1 -43.8
v -40.8 0 -43.8
v -40.8 0.1 -43.8
v -39.2 0 -43.8
v -39.2 0.1 -43.8
v -38.9 0 -43.8
v -38.9 0.1 -43.8
v -41 0.1 -43.9
v -41 0.9 -43.9
v -40.9 0.1 -43.9
v -40.9 0.7 -43.9
v -40.7 0.8 -43.9
v -40.7 0.9 -43.9
v -40.4 0.8 -43.9
v -40.4 0.9 -43.9
v -40.1 0.8 -43.9
v -40.1 0.9 -43.9
v -39.8 0.8 -43.9
v -39.8 0.9 -43.9
v -39.5 0.8 -43.9
v -39.5 0.9 -43.9
v -39.2 0.8 -43.9
v -39.2 0.9 -43.9
v -39.1 0.1 -43.9
v -39.1 0.7 -43.9
v -39 0.1 -43.9
v -39 0.9 -43.9
v -41.1 0 -44.9
v -41.1 0.1 -44.9
v -40.8 0 -44.9
v -40.8 0.1 -44.9
v -39.2 0 -44.9
v -39.2 0.1 -44.9
v -38.9 0 -44.9
v -38.9 0.1 -44.9
v -41 0.1 -45
v -41 0.7 -45
v -40.9 0.1 -45
v -40.9 0.7 -45
v -40.9 0.8 -45
v -40.7 0.8 -45
v -40.4 0.8 -45
v -40.1 0.8 -45
v -39.8 0.8 -45
v -39.5 0.8 -45
v -39.2 0.8 -45
v -39.1 0.1 -45
v -39.1 0.7 -45
v -39.1 0.8 -45
v -39 0.1 -45
v -39 0.7 -45
v -41 0.1 -44
v -41 0.7 -44
v -40.9 0.1 -44
v -40.9 0.7 -44
v -40.9 0.8 -44
v -40.7 0.8 -44
v -40.4 0.8 -44
v -40.1 0.8 -44
v -39.8 0.8 -44
v -39.5 0.8 -44
v -39.2 0.8 -44
v -39.1 0.1 -44
v -39.1 0.7 -44
v -39.1 0.8 -44
v -39 0.1 -44
v -39 0.7 -44
v -41.1 0 -44.1
v -41.1 0.1 -44.1
v -40.8 0 -44.1
v -40.8 0.1 -44.1
v -39.2 0 -44.1
v -39.2 0.1 -44.1
v -38.9 0 -44.1
v -38.9 0.1 -44.1
v -41 0.1 -45.1
v -41 0.8 -45.1
v -41 0.9 -45.1
v -40.9 0.1 -45.1
v -40.9 0.7 -45.1
v -40.7 0.8 -45.1
v -40.7 0.9 -45.1
v -40.4 0.8 -45.1
v -40.4 0.9 -45.1
v -40.1 0.8 -45.1
v -40.1 0.9 -45.1
v -39.8 0.8 -45.1
v -39.8 0.9 -45.1
v -39.5 0.8 -45.1
v -39.5 0.9 -45.1
v -39.2 0.8 -45.1
v -39.2 0.9 -45.1
v -39.1 0.1 -45.1
v -39.1 0.7 -45.1
v -39 0.1 -45.1
v -39 0.8 -45.1
v -39 0.9 -45.1
v -41.1 0 -45.2
v -41.1 0.1 -45.2
v -40.8 0 -45.2
v -40.8 0.1 -45.2
v -39.2 0 -45.2
v -39.2 0.1 -45.2
v -38.9 0 -45.2
v -38.9 0.1 -45.2
v -41.1 0 -43.8
v -40.8 0 -43.8
v -39.2 0 -43.8
v -38.9 0 -43.8
v -41.1 0 -44.1
v -40.8 0 -44.1
v -39.2 0 -44.1
v -38.9 0 -44.1
v -41.1 0 -44.9
v -40.8 0 -44.9
v -39.2 0 -44.9
v -38.9 0 -44.9
v -41.1 0 -45.2
v -40.8 0 -45.2
v -39.2 0 -45.2
v -38.9 0 -45.2
v -40.9 0.7 -43.9
v -39.1 0.7 -43.9
v -41 0.7 -44
v -40.9 0.7 -44
v -39.1 0.7 -44
v -39 0.7 -44
v -41 0.7 -45
v -40.9 0.7 -45
v -39.1 0.7 -45
v -39 0.7 -45
v -40.9 0.7 -45.1
v -39.1 0.7 -45.1
v -40.9 0.8 -44
v -40.7 0.8 -44
v -40.4 0.8 -44
v -40.1 0.8 -44
v -39.8 0.8 -44
v -39.5 0.8 -44
v -39.2 0.8 -44
v -39.1 0.8 -44
v -40.9 0.8 -44.2
v -40.7 0.8 -44.2
v -40.4 0.8 -44.2
v -40.1 0.8 -44.2
v -39.8 0.8 -44.2
v -39.5 0.8 -44.2
v -39.2 0.8 -44.2
v -39.1 0.8 -44.2
v -40.9 0.8 -44.5
v -40.7 0.8 -44.5
v -40.4 0.8 -44.5
v -40.1 0.8 -44.5
v -39.8 0.8 -44.5
v -39.5 0.8 -44.5
v -39.2 0.8 -44.5
v -39.1 0.8 -44.5
v -40.9 0.8 -44.8
v -40.7 0.8 -44.8
v -40.4 0.8 -44.8
v -40.1 0.8 -44.8
v -39.8 0.8 -44.8
v -39.5 0.8 -44.8
v -39.2 0.8 -44.8
v -39.1 0.8 -44.8
v -40.9 0.8 -45
v -40.7 0.8 -45
v -40.4 0.8 -45
v -40.1 0.8 -45
v -39.8 0.8 -45
v -39.5 0.8 -45
v -39.2 0.8 -45
v -39.1 0.8 -45
v -41.1 0.1 -43.8
v -40.8 0.1 -43.8
v -39.2 0.1 -43.8
v -38.9 0.1 -43.8
v -41 0.1 -43.9
v -40.9 0.1 -43.9
v -39.1 0.1 -43.9
v -39 0.1 -43.9
v -41 0.1 -44
v -40.9 0.1 -44
v -39.1 0.1 -44
v -39 0.1 -44
v -41.1 0.1 -44.1
v -40.8 0.1 -44.1
v -39.2 0.1 -44.1
v -38.9 0.1 -44.1
v -41.1 0.1 -44.9
v -40.8 0.1 -44.9
v -39.2 0.1 -44.9
v -38.9 0.1 -44.9
v -41 0.1 -45
v -40.9 0.1 -45
v -39.1 0.1 -45
v -39 0.1 -45
v -41 0.1 -45.1
v -40.9 0.1 -45.1
v -39.1 0.1 -45.1
v -39 0.1 -45.1
v -41.1 0.1 -45.2
v -40.8 0.1 -45.2
v -39.2 0.1 -45.2
v -38.9 0.1 -45.2
v -41 0.9 -43.9
v -40.7 0.9 -43.9
v -40.4 0.9 -43.9
v -40.1 0.9 -43.9
v -39.8 0.9 -43.9
v -39.5 0.9 -43.9
v -39.2 0.9 -43.9
v -39 0.9 -43.9
v -41 0.9 -44.2
v -40.7 0.9 -44.2
v -40.4 0.9 -44.2
v -40.1 0.9 -44.2
v -39.8 0.9 -44.2
v -39.5 0.9 -44.2
v -39.2 0.9 -44.2
v -39 0.9 -44.2
v -41 0.9 -44.5
v -40.7 0.9 -44.5
v -40.4 0.9 -44.5
v -40.1 0.9 -44.5
v -39.8 0.9 -44.5
v -39.5 0.9 -44.5
v -39.2 0.9 -44.5
v -39 0.9 -44.5
v -41 0.9 -44.8
v -40.7 0.9 -44.8
v -40.4 0.9 -44.8
v -40.1 0.9 -44.8
v -39.8 0.9 -44.8
v -39.5 0.9 -44.8
v -39.2 0.9 -44.8
v -39 0.9 -44.8
v -41 0.9 -45.1
v -40.7 0.9 -45.1
v -40.4 0.9 -45.1
v -40.1 0.9 -45.1
v -39.8 0.9 -45.1
v -39.5 0.9 -45.1
v -39.2 0.9 -45.1
v -39 0.9 -45.1

# faces
f 5/1/1 2/1/1 1/1/1
f 6/1/1 2/1/1 5/1/1
f 7/1/1 4/1/1 3/1/1
f 8/1/1 4/1/1 7/1/1
f 13/2/1 10/2/1 9/2/1
f 14/2/1 12/2/1 11/2/1
f 15/2/1 14/2/1 13/2/1
f 16/2/1 14/2/1 15/2/1
f 17/2/1 14/2/1 16/2/1
f 18/2/1 12/2/1 14/2/1
f 18/2/1 14/2/1 17/2/1
f 19/2/1 13/2/1 9/2/1
f 19/2/1 15/2/1 13/2/1
f 20/3/1 16/3/1 15/3/1
f 20/2/1 15/2/1 19/2/1
f 21/2/1 17/2/1 16/2/1
f 21/3/1 16/3/1 20/3/1
f 22/3/1 18/3/1 17/3/1
f 22/2/1 17/2/1 21/2/1
f 23/3/1 18/3/1 22/3/1
f 28/1/1 25/1/1 24/1/1
f 29/1/1 25/1/1 28/1/1
f 30/1/1 27/1/1 26/1/1
f 31/1/1 27/1/1 30/1/1
f 36/2/1 33/2/1 32/2/1
f 37/2/1 33/2/1 36/2/1
f 38/2/1 35/2/1 34/2/1
f 39/2/1 35/2/1 38/2/1
f 40/2/1 38/2/1 37/2/1
f 41/2/1 38/2/1 40/2/1
f 42/2/1 38/2/1 41/2/1
f 43/2/1 38/2/1 42/2/1
f 44/2/1 38/2/1 43/2/1
f 45/2/2 46/2/2 49/2/2
f 49/2/2 46/2/2 50/2/2
f 47/2/2 48/2/2 51/2/2
f 51/2/2 48/2/2 52/2/2
f 50/2/2 51/2/2 53/2/2
f 53/2/2 51/2/2 54/2/2
f 54/2/2 51/2/2 55/2/2
f 55/2/2 51/2/2 56/2/2
f 56/2/2 51/2/2 57/2/2
f 58/1/2 59/1/2 62/1/2
f 62/1/2 59/1/2 63/1/2
f 60/1/2 61/1/2 64/1/2
f 64/1/2 61/1/2 65/1/2
f 66/2/2 67/2/2 70/2/2
f 68/2/2 69/2/2 71/2/2
f 70/2/2 71/2/2 72/2/2
f 72/2/2 71/2/2 73/2/2
f 73/2/2 71/2/2 74/2/2
f 71/2/2 69/2/2 75/2/2
f 74/2/2 71/2/2 75/2/2
f 66/2/2 70/2/2 76/2/2
f 70/2/2 72/2/2 76/2/2
f 72/3/2 73/3/2 77/3/2
f 76/2/2 72/2/2 77/2/2
f 73/2/2 74/2/2 78/2/2
f 77/3/2 73/3/2 78/3/2
f 74/3/2 75/3/2 79/3/2
f 78/2/2 74/2/2 79/2/2
f 79/3/2 75/3/2 80/3/2
f 81/1/2 82/1/2 85/1/2
f 85/1/2 82/1/2 86/1/2
f 83/1/2 84/1/2 87/1/2
f 87/1/2 84/1/2 88/1/2
f 91/1/3 90/1/3 89/1/3
f 92/1/3 90/1/3 91/1/3
f 95/1/3 94/1/3 93/1/3
f 96/1/3 94/1/3 95/1/3
f 99/2/3 98/2/3 97/2/3
f 100/2/3 98/2/3 99/2/3
f 101/2/3 98/2/3 100/2/3
f 102/2/3 98/2/3 101/2/3
f 103/2/3 101/2/3 100/2/3
f 103/3/3 102/3/3 101/3/3
f 104/3/3 102/3/3 103/3/3
f 105/2/3 103/2/3 100/2/3
f 105/2/3 104/2/3 103/2/3
f 106/2/3 104/2/3 105/2/3
f 107/2/3 105/2/3 100/2/3
f 107/3/3 106/3/3 105/3/3
f 108/3/3 106/3/3 107/3/3
f 109/2/3 107/2/3 100/2/3
f 109/2/3 108/2/3 107/2/3
f 110/2/3 108/2/3 109/2/3
f 111/2/3 109/2/3 100/2/3
f 111/3/3 110/3/3 109/3/3
f 112/3/3 110/3/3 111/3/3
f 114/2/3 111/2/3 100/2/3
f 114/2/3 112/2/3 111/2/3
f 115/2/3 114/2/3 113/2/3
f 116/2/3 112/2/3 114/2/3
f 116/2/3 114/2/3 115/2/3
f 119/1/3 118/1/3 117/1/3
f 120/1/3 118/1/3 119/1/3
f 123/1/3 122/1/3 121/1/3
f 124/1/3 122/1/3 123/1/3
f 127/2/3 126/2/3 125/2/3
f 128/2/3 126/2/3 127/2/3
f 130/2/3 129/2/3 128/2/3
f 131/2/3 130/2/3 128/2/3
f 132/2/3 131/2/3 128/2/3
f 133/2/3 132/2/3 128/2/3
f 134/2/3 133/2/3 128/2/3
f 135/2/3 134/2/3 128/2/3
f 137/2/3 135/2/3 128/2/3
f 138/2/3 135/2/3 137/2/3
f 139/2/3 137/2/3 136/2/3
f 140/2/3 137/2/3 139/2/3
f 141/2/4 142/2/4 143/2/4
f 143/2/4 142/2/4 144/2/4
f 144/2/4 145/2/4 146/2/4
f 144/2/4 146/2/4 147/2/4
f 144/2/4 147/2/4 148/2/4
f 144/2/4 148/2/4 149/2/4
f 144/2/4 149/2/4 150/2/4
f 144/2/4 150/2/4 151/2/4
f 144/2/4 151/2/4 153/2/4
f 153/2/4 151/2/4 154/2/4
f 152/2/4 153/2/4 155/2/4
f 155/2/4 153/2/4 156/2/4
f 157/1/4 158/1/4 159/1/4
f 159/1/4 158/1/4 160/1/4
f 161/1/4 162/1/4 163/1/4
f 163/1/4 162/1/4 164/1/4
f 165/2/4 166/2/4 168/2/4
f 168/2/4 166/2/4 169/2/4
f 166/3/4 167/3/4 170/3/4
f 169/2/4 166/2/4 170/2/4
f 170/3/4 167/3/4 171/3/4
f 169/2/4 170/2/4 172/2/4
f 170/2/4 171/2/4 172/2/4
f 172/2/4 171/2/4 173/2/4
f 169/2/4 172/2/4 174/2/4
f 172/3/4 173/3/4 174/3/4
f 174/3/4 173/3/4 175/3/4
f 169/2/4 174/2/4 176/2/4
f 174/2/4 175/2/4 176/2/4
f 176/2/4 175/2/4 177/2/4
f 169/2/4 176/2/4 178/2/4
f 176/3/4 177/3/4 178/3/4
f 178/3/4 177/3/4 179/3/4
f 169/2/4 178/2/4 180/2/4
f 178/2/4 179/2/4 180/2/4
f 180/2/4 179/2/4 181/2/4
f 169/2/4 180/2/4 183/2/4
f 182/2/4 183/2/4 184/2/4
f 180/3/4 181/3/4 185/3/4
f 184/2/4 183/2/4 185/2/4
f 183/2/4 180/2/4 185/2/4
f 185/3/4 181/3/4 186/3/4
f 187/1/4 188/1/4 189/1/4
f 189/1/4 188/1/4 190/1/4
f 191/1/4 192/1/4 193/1/4
f 193/1/4 192/1/4 194/1/4
f 199/1/5 196/1/5 195/1/5
f 200/1/5 196/1/5 199/1/5
f 201/1/5 198/1/5 197/1/5
f 202/1/5 198/1/5 201/1/5
f 207/1/5 204/1/5 203/1/5
f 208/1/5 204/1/5 207/1/5
f 209/1/5 206/1/5 205/1/5
f 210/1/5 206/1/5 209/1/5
f 214/2/5 212/2/5 211/2/5
f 215/2/5 212/2/5 214/2/5
f 217/2/5 214/2/5 213/2/5
f 218/2/5 214/2/5 217/2/5
f 219/2/5 216/2/5 215/2/5
f 220/2/5 216/2/5 219/2/5
f 221/2/5 219/2/5 218/2/5
f 222/2/5 219/2/5 221/2/5
f 231/2/5 224/2/5 223/2/5
f 232/3/5 225/3/5 224/3/5
f 232/2/5 224/2/5 231/2/5
f 233/2/5 226/2/5 225/2/5
f 233/3/5 225/3/5 232/3/5
f 234/3/5 227/3/5 226/3/5
f 234/2/5 226/2/5 233/2/5
f 235/2/5 228/2/5 227/2/5
f 235/3/5 227/3/5 234/3/5
f 236/3/5 229/3/5 228/3/5
f 236/2/5 228/2/5 235/2/5
f 237/2/5 230/2/5 229/2/5
f 237/3/5 229/3/5 236/3/5
f 238/2/5 230/2/5 237/2/5
f 239/3/5 232/3/5 231/3/5
f 240/2/5 233/2/5 232/2/5
f 240/3/5 232/3/5 239/3/5
f 241/3/5 234/3/5 233/3/5
f 241/2/5 233/2/5 240/2/5
f 242/2/5 235/2/5 234/2/5
f 242/3/5 234/3/5 241/3/5
f 243/3/5 236/3/5 235/3/5
f 243/2/5 235/2/5 242/2/5
f 244/2/5 237/2/5 236/2/5
f 244/3/5 236/3/5 243/3/5
f 245/3/5 238/3/5 237/3/5
f 245/2/5 237/2/5 244/2/5
f 246/3/5 238/3/5 245/3/5
f 247/2/5 240/2/5 239/2/5
f 248/3/5 241/3/5 240/3/5
f 248/2/5 240/2/5 247/2/5
f 249/2/5 242/2/5 241/2/5
f 249/3/5 241/3/5 248/3/5
f 250/3/5 243/3/5 242/3/5
f 250/2/5 242/2/5 249/2/5
f 251/2/5 244/2/5 243/2/5
f 251/3/5 243/3/5 250/3/5
f 252/3/5 245/3/5 244/3/5
f 252/2/5 244/2/5 251/2/5
f 253/2/5 246/2/5 245/2/5
f 253/3/5 245/3/5 252/3/5
f 254/2/5 246/2/5 253/2/5
f 255/3/5 248/3/5 247/3/5
f 256/2/5 249/2/5 248/2/5
f 256/3/5 248/3/5 255/3/5
f 257/3/5 250/3/5 249/3/5
f 257/2/5 249/2/5 256/2/5
f 258/2/5 251/2/5 250/2/5
f 258/3/5 250/3/5 257/3/5
f 259/3/5 252/3/5 251/3/5
f 259/2/5 251/2/5 258/2/5
f 260/2/5 253/2/5 252/2/5
f 260/3/5 252/3/5 259/3/5
f 261/3/5 254/3/5 253/3/5
f 261/2/5 253/2/5 260/2/5
f 262/3/5 254/3/5 261/3/5
f 263/1/6 264/1/6 267/1/6
f 267/1/6 264/1/6 268/1/6
f 265/1/6 266/1/6 269/1/6
f 269/1/6 266/1/6 270/1/6
f 263/1/6 267/1/6 271/1/6
f 268/1/6 264/1/6 272/1/6
f 265/1/6 269/1/6 273/1/6
f 270/1/6 266/1/6 274/1/6
f 263/1/6 271/1/6 275/1/6
f 271/1/6 272/1/6 275/1/6
f 272/1/6 264/1/6 276/1/6
f 275/1/6 272/1/6 276/1/6
f 273/1/6 274/1/6 277/1/6
f 265/1/6 273/1/6 277/1/6
f 274/1/6 266/1/6 278/1/6
f 277/1/6 274/1/6 278/1/6
f 279/1/6 280/1/6 283/1/6
f 283/1/6 280/1/6 284/1/6
f 281/1/6 282/1/6 285/1/6
f 285/1/6 282/1/6 286/1/6
f 279/1/6 283/1/6 287/1/6
f 284/1/6 280/1/6 288/1/6
f 281/1/6 285/1/6 289/1/6
f 286/1/6 282/1/6 290/1/6
f 279/1/6 287/1/6 291/1/6
f 287/1/6 288/1/6 291/1/6
f 288/1/6 280/1/6 292/1/6
f 291/1/6 288/1/6 292/1/6
f 289/1/6 290/1/6 293/1/6
f 281/1/6 289/1/6 293/1/6
f 290/1/6 282/1/6 294/1/6
f 293/1/6 290/1/6 294/1/6
f 295/2/6 296/2/6 303/2/6
f 296/3/6 297/3/6 304/3/6
f 303/2/6 296/2/6 304/2/6
f 297/2/6 298/2/6 305/2/6
f 304/3/6 297/3/6 305/3/6
f 298/3/6 299/3/6 306/3/6
f 305/2/6 298/2/6 306/2/6
f 299/2/6 300/2/6 307/2/6
f 306/3/6 299/3/6 307/3/6
f 300/3/6 301/3/6 308/3/6
f 307/2/6 300/2/6 308/2/6
f 301/2/6 302/2/6 309/2/6
f 308/3/6 301/3/6 309/3/6
f 309/2/6 302/2/6 310/2/6
f 303/3/6 304/3/6 311/3/6
f 304/2/6 305/2/6 312/2/6
f 311/3/6 304/3/6 312/3/6
f 305/3/6 306/3/6 313/3/6
f 312/2/6 305/2/6 313/2/6
f 306/2/6 307/2/6 314/2/6
f 313/3/6 306/3/6 314/3/6
f 307/3/6 308/3/6 315/3/6
f 314/2/6 307/2/6 315/2/6
f 308/2/6 309/2/6 316/2/6
f 315/3/6 308/3/6 316/3/6
f 309/3/6 310/3/6 317/3/6
f 316/2/6 309/2/6 317/2/6
f 317/3/6 310/3/6 318/3/6
f 311/2/6 312/2/6 319/2/6
f 312/3/6 313/3/6 320/3/6
f 319/2/6 312/2/6 320/2/6
f 313/2/6 314/2/6 321/2/6
f 320/3/6 313/3/6 321/3/6
f 314/3/6 315/3/6 322/3/6
f 321/2/6 314/2/6 322/2/6
f 315/2/6 316/2/6 323/2/6
f 322/3/6 315/3/6 323/3/6
f 316/3/6 317/3/6 324/3/6
f 323/2/6 316/2/6 324/2/6
f 317/2/6 318/2/6 325/2/6
f 324/3/6 317/3/6 325/3/6
f 325/2/6 318/2/6 326/2/6
f 319/3/6 320/3/6 327/3/6
f 320/2/6 321/2/6 328/2/6
f 327/3/6 320/3/6 328/3/6
f 321/3/6 322/3/6 329/3/6
f 328/2/6 321/2/6 329/2/6
f 322/2/6 323/2/6 330/2/6
f 329/3/6 322/3/6 330/3/6
f 323/3/6 324/3/6 331/3/6
f 330/2/6 323/2/6 331/2/6
f 324/2/6 325/2/6 332/2/6
f 331/3/6 324/3/6 332/3/6
f 325/3/6 326/3/6 333/3/6
f 332/2/6 325/2/6 333/2/6
f 333/3/6 326/3/6 334/3/6
