# MagicaVoxel @ Ephtracy

# group
o Tool - Axe

# material
mtllib Medieval Assets-227-Tool - Axe.mtl
usemtl palette

# normals
vn -1 0 0
vn 1 0 0
vn 0 0 1
vn 0 0 -1
vn 0 -1 0
vn 0 1 0

# texcoords
vt 0.134766 0.5
vt 0.138672 0.5
vt 0.142578 0.5
vt 0.146484 0.5
vt 0.158203 0.5
vt 0.189453 0.5
vt 0.201172 0.5

# verts
v 9 0 -1.3
v 9 0 -1.4
v 9 0.1 -1.3
v 9 0.1 -1.4
v 9 0.4 -1.3
v 9 0.4 -1.4
v 9 0.5 -1.1
v 9 0.5 -1.2
v 9 0.6 -1
v 9 0.6 -1.1
v 9 0.6 -1.2
v 9 0.6 -1.3
v 9 0.6 -1.4
v 9 0.6 -1.5
v 9 0.7 -0.9
v 9 0.7 -1
v 9 0.7 -1.1
v 9 0.7 -1.2
v 9 0.7 -1.3
v 9 0.7 -1.4
v 9 0.7 -1.5
v 9 0.9 -0.9
v 9 0.9 -1
v 9 0.9 -1.1
v 9 0.9 -1.2
v 9 0.9 -1.3
v 9 0.9 -1.5
v 9 1 -1
v 9 1 -1.1
v 9 1 -1.2
v 9 1 -1.3
v 9 1 -1.5
v 9 1.1 -1.1
v 9 1.1 -1.2
v 9.1 0 -1.3
v 9.1 0 -1.4
v 9.1 0.1 -1.3
v 9.1 0.1 -1.4
v 9.1 0.4 -1.3
v 9.1 0.4 -1.4
v 9.1 0.5 -1.1
v 9.1 0.5 -1.2
v 9.1 0.6 -1
v 9.1 0.6 -1.1
v 9.1 0.6 -1.2
v 9.1 0.6 -1.3
v 9.1 0.6 -1.4
v 9.1 0.6 -1.5
v 9.1 0.7 -0.9
v 9.1 0.7 -1
v 9.1 0.7 -1.1
v 9.1 0.7 -1.2
v 9.1 0.7 -1.3
v 9.1 0.7 -1.4
v 9.1 0.7 -1.5
v 9.1 0.9 -0.9
v 9.1 0.9 -1
v 9.1 0.9 -1.1
v 9.1 0.9 -1.2
v 9.1 0.9 -1.3
v 9.1 0.9 -1.5
v 9.1 1 -1
v 9.1 1 -1.1
v 9.1 1 -1.2
v 9.1 1 -1.3
v 9.1 1 -1.5
v 9.1 1.1 -1.1
v 9.1 1.1 -1.2
v 9 0.7 -0.9
v 9 0.9 -0.9
v 9.1 0.7 -0.9
v 9.1 0.9 -0.9
v 9 0.6 -1
v 9 0.7 -1
v 9 0.9 -1
v 9 1 -1
v 9.1 0.6 -1
v 9.1 0.7 -1
v 9.1 0.9 -1
v 9.1 1 -1
v 9 0.5 -1.1
v 9 0.6 -1.1
v 9 1 -1.1
v 9 1.1 -1.1
v 9.1 0.5 -1.1
v 9.1 0.6 -1.1
v 9.1 1 -1.1
v 9.1 1.1 -1.1
v 9 0 -1.3
v 9 0.1 -1.3
v 9 0.4 -1.3
v 9 0.6 -1.3
v 9.1 0 -1.3
v 9.1 0.1 -1.3
v 9.1 0.4 -1.3
v 9.1 0.6 -1.3
v 9 0.5 -1.2
v 9 0.6 -1.2
v 9 1 -1.2
v 9 1.1 -1.2
v 9.1 0.5 -1.2
v 9.1 0.6 -1.2
v 9.1 1 -1.2
v 9.1 1.1 -1.2
v 9 0 -1.4
v 9 0.1 -1.4
v 9 0.4 -1.4
v 9 0.6 -1.4
v 9.1 0 -1.4
v 9.1 0.1 -1.4
v 9.1 0.4 -1.4
v 9.1 0.6 -1.4
v 9 0.6 -1.5
v 9 0.7 -1.5
v 9 0.9 -1.5
v 9 1 -1.5
v 9.1 0.6 -1.5
v 9.1 0.7 -1.5
v 9.1 0.9 -1.5
v 9.1 1 -1.5
v 9 0 -1.3
v 9.1 0 -1.3
v 9 0 -1.4
v 9.1 0 -1.4
v 9 0.5 -1.1
v 9.1 0.5 -1.1
v 9 0.5 -1.2
v 9.1 0.5 -1.2
v 9 0.6 -1
v 9.1 0.6 -1
v 9 0.6 -1.1
v 9.1 0.6 -1.1
v 9 0.6 -1.2
v 9.1 0.6 -1.2
v 9 0.6 -1.3
v 9.1 0.6 -1.3
v 9 0.6 -1.4
v 9.1 0.6 -1.4
v 9 0.6 -1.5
v 9.1 0.6 -1.5
v 9 0.7 -0.9
v 9.1 0.7 -0.9
v 9 0.7 -1
v 9.1 0.7 -1
v 9 0.9 -0.9
v 9.1 0.9 -0.9
v 9 0.9 -1
v 9.1 0.9 -1
v 9 1 -1
v 9.1 1 -1
v 9 1 -1.1
v 9.1 1 -1.1
v 9 1 -1.2
v 9.1 1 -1.2
v 9 1 -1.3
v 9.1 1 -1.3
v 9 1 -1.5
v 9.1 1 -1.5
v 9 1.1 -1.1
v 9.1 1.1 -1.1
v 9 1.1 -1.2
v 9.1 1.1 -1.2

# faces
f 3/5/1 2/5/1 1/5/1
f 4/5/1 2/5/1 3/5/1
f 5/7/1 4/7/1 3/7/1
f 6/7/1 4/7/1 5/7/1
f 10/1/1 8/1/1 7/1/1
f 11/1/1 8/1/1 10/1/1
f 12/6/1 6/6/1 5/6/1
f 13/6/1 6/6/1 12/6/1
f 16/1/1 10/1/1 9/1/1
f 17/2/1 11/2/1 10/2/1
f 17/1/1 10/1/1 16/1/1
f 18/3/1 12/3/1 11/3/1
f 18/2/1 11/2/1 17/2/1
f 19/6/1 13/6/1 12/6/1
f 19/3/1 12/3/1 18/3/1
f 20/4/1 14/4/1 13/4/1
f 20/6/1 13/6/1 19/6/1
f 21/4/1 14/4/1 20/4/1
f 22/1/1 16/1/1 15/1/1
f 23/2/1 17/2/1 16/2/1
f 23/1/1 16/1/1 22/1/1
f 24/3/1 18/3/1 17/3/1
f 24/2/1 17/2/1 23/2/1
f 24/3/1 19/3/1 18/3/1
f 24/3/1 21/3/1 20/3/1
f 24/3/1 20/3/1 19/3/1
f 25/3/1 21/3/1 24/3/1
f 26/3/1 21/3/1 25/3/1
f 27/3/1 21/3/1 26/3/1
f 28/1/1 24/1/1 23/1/1
f 29/2/1 25/2/1 24/2/1
f 29/1/1 24/1/1 28/1/1
f 30/3/1 26/3/1 25/3/1
f 30/2/1 25/2/1 29/2/1
f 31/4/1 27/4/1 26/4/1
f 31/3/1 26/3/1 30/3/1
f 32/4/1 27/4/1 31/4/1
f 33/1/1 30/1/1 29/1/1
f 34/1/1 30/1/1 33/1/1
f 35/5/2 36/5/2 37/5/2
f 37/5/2 36/5/2 38/5/2
f 37/7/2 38/7/2 39/7/2
f 39/7/2 38/7/2 40/7/2
f 41/1/2 42/1/2 44/1/2
f 44/1/2 42/1/2 45/1/2
f 39/6/2 40/6/2 46/6/2
f 46/6/2 40/6/2 47/6/2
f 43/1/2 44/1/2 50/1/2
f 44/2/2 45/2/2 51/2/2
f 50/1/2 44/1/2 51/1/2
f 45/3/2 46/3/2 52/3/2
f 51/2/2 45/2/2 52/2/2
f 46/6/2 47/6/2 53/6/2
f 52/3/2 46/3/2 53/3/2
f 47/4/2 48/4/2 54/4/2
f 53/6/2 47/6/2 54/6/2
f 54/4/2 48/4/2 55/4/2
f 49/1/2 50/1/2 56/1/2
f 50/2/2 51/2/2 57/2/2
f 56/1/2 50/1/2 57/1/2
f 51/3/2 52/3/2 58/3/2
f 57/2/2 51/2/2 58/2/2
f 52/3/2 53/3/2 58/3/2
f 54/3/2 55/3/2 58/3/2
f 53/3/2 54/3/2 58/3/2
f 58/3/2 55/3/2 59/3/2
f 59/3/2 55/3/2 60/3/2
f 60/3/2 55/3/2 61/3/2
f 57/1/2 58/1/2 62/1/2
f 58/2/2 59/2/2 63/2/2
f 62/1/2 58/1/2 63/1/2
f 59/3/2 60/3/2 64/3/2
f 63/2/2 59/2/2 64/2/2
f 60/4/2 61/4/2 65/4/2
f 64/3/2 60/3/2 65/3/2
f 65/4/2 61/4/2 66/4/2
f 63/1/2 64/1/2 67/1/2
f 67/1/2 64/1/2 68/1/2
f 71/1/3 70/1/3 69/1/3
f 72/1/3 70/1/3 71/1/3
f 77/1/3 74/1/3 73/1/3
f 78/1/3 74/1/3 77/1/3
f 79/1/3 76/1/3 75/1/3
f 80/1/3 76/1/3 79/1/3
f 85/1/3 82/1/3 81/1/3
f 86/1/3 82/1/3 85/1/3
f 87/1/3 84/1/3 83/1/3
f 88/1/3 84/1/3 87/1/3
f 93/5/3 90/5/3 89/5/3
f 94/7/3 91/7/3 90/7/3
f 94/5/3 90/5/3 93/5/3
f 95/6/3 92/6/3 91/6/3
f 95/7/3 91/7/3 94/7/3
f 96/6/3 92/6/3 95/6/3
f 97/1/4 98/1/4 101/1/4
f 101/1/4 98/1/4 102/1/4
f 99/1/4 100/1/4 103/1/4
f 103/1/4 100/1/4 104/1/4
f 105/5/4 106/5/4 109/5/4
f 106/7/4 107/7/4 110/7/4
f 109/5/4 106/5/4 110/5/4
f 107/6/4 108/6/4 111/6/4
f 110/7/4 107/7/4 111/7/4
f 111/6/4 108/6/4 112/6/4
f 113/4/4 114/4/4 117/4/4
f 114/3/4 115/3/4 118/3/4
f 117/4/4 114/4/4 118/4/4
f 115/4/4 116/4/4 119/4/4
f 118/3/4 115/3/4 119/3/4
f 119/4/4 116/4/4 120/4/4
f 123/5/5 122/5/5 121/5/5
f 124/5/5 122/5/5 123/5/5
f 127/1/5 126/1/5 125/1/5
f 128/1/5 126/1/5 127/1/5
f 131/1/5 130/1/5 129/1/5
f 132/1/5 130/1/5 131/1/5
f 135/3/5 134/3/5 133/3/5
f 136/3/5 134/3/5 135/3/5
f 139/4/5 138/4/5 137/4/5
f 140/4/5 138/4/5 139/4/5
f 143/1/5 142/1/5 141/1/5
f 144/1/5 142/1/5 143/1/5
f 145/1/6 146/1/6 147/1/6
f 147/1/6 146/1/6 148/1/6
f 149/1/6 150/1/6 151/1/6
f 151/1/6 150/1/6 152/1/6
f 153/3/6 154/3/6 155/3/6
f 155/3/6 154/3/6 156/3/6
f 155/4/6 156/4/6 157/4/6
f 157/4/6 156/4/6 158/4/6
f 159/1/6 160/1/6 161/1/6
f 161/1/6 160/1/6 162/1/6
