# MagicaVoxel @ Ephtracy

# group
o 

# material
mtllib Voxel_TV.mtl
usemtl palette

# normals
vn -1 0 0
vn 1 0 0
vn 0 0 1
vn 0 0 -1
vn 0 -1 0
vn 0 1 0

# texcoords
vt 0.509766 0.5
vt 0.513672 0.5
vt 0.962891 0.5
vt 0.966797 0.5

# verts
v -0.6 0 0.5
v -0.6 0 -0.4
v -0.6 0.1 0.5
v -0.6 0.1 0.4
v -0.6 0.1 0.3
v -0.6 0.2 0.5
v -0.6 0.2 0.4
v -0.6 0.2 0.3
v -0.6 0.2 0
v -0.6 0.2 -0.4
v -0.6 1 0.5
v -0.6 1 0
v -0.5 0.2 0
v -0.5 0.2 -0.3
v -0.5 0.9 0
v -0.5 0.9 -0.3
v -0.4 0.3 -0.3
v -0.4 0.3 -0.4
v -0.4 0.8 -0.3
v -0.4 0.8 -0.4
v 0.4 0.3 0.5
v 0.4 0.3 0.4
v 0.4 0.5 0.4
v 0.4 0.7 0.4
v 0.4 0.9 0.5
v 0.4 0.9 0.4
v -0.5 0.3 0.5
v -0.5 0.3 0.4
v -0.5 0.5 0.4
v -0.5 0.7 0.4
v -0.5 0.9 0.5
v -0.5 0.9 0.4
v 0.3 0.3 -0.3
v 0.3 0.3 -0.4
v 0.3 0.8 -0.3
v 0.3 0.8 -0.4
v 0.4 0.2 0
v 0.4 0.2 -0.3
v 0.4 0.9 0
v 0.4 0.9 -0.3
v 0.5 0 0.5
v 0.5 0 -0.4
v 0.5 0.1 0.5
v 0.5 0.1 0.4
v 0.5 0.1 0.3
v 0.5 0.2 0.5
v 0.5 0.2 0.4
v 0.5 0.2 0.3
v 0.5 0.2 0
v 0.5 0.2 -0.4
v 0.5 1 0.5
v 0.5 1 0
v -0.6 0 0.5
v -0.6 0.1 0.5
v -0.6 0.2 0.5
v -0.6 1 0.5
v -0.5 0.3 0.5
v -0.5 0.9 0.5
v 0.4 0.3 0.5
v 0.4 0.9 0.5
v 0.5 0 0.5
v 0.5 0.1 0.5
v 0.5 0.2 0.5
v 0.5 1 0.5
v -0.6 0.1 0.4
v -0.6 0.2 0.4
v -0.5 0.3 0.4
v -0.5 0.5 0.4
v -0.5 0.7 0.4
v -0.5 0.9 0.4
v -0.4 0.4 0.4
v -0.4 0.5 0.4
v -0.4 0.7 0.4
v -0.4 0.8 0.4
v -0.3 0.3 0.4
v -0.3 0.4 0.4
v -0.3 0.8 0.4
v -0.3 0.9 0.4
v 0.2 0.3 0.4
v 0.2 0.4 0.4
v 0.2 0.8 0.4
v 0.2 0.9 0.4
v 0.3 0.4 0.4
v 0.3 0.5 0.4
v 0.3 0.7 0.4
v 0.3 0.8 0.4
v 0.4 0.3 0.4
v 0.4 0.5 0.4
v 0.4 0.7 0.4
v 0.4 0.9 0.4
v 0.5 0.1 0.4
v 0.5 0.2 0.4
v -0.6 0.2 0
v -0.6 1 0
v -0.5 0.2 0
v -0.5 0.9 0
v 0.4 0.2 0
v 0.4 0.9 0
v 0.5 0.2 0
v 0.5 1 0
v -0.5 0.2 -0.3
v -0.5 0.9 -0.3
v -0.4 0.2 -0.3
v -0.4 0.3 -0.3
v -0.4 0.8 -0.3
v 0.3 0.2 -0.3
v 0.3 0.3 -0.3
v 0.3 0.8 -0.3
v 0.4 0.2 -0.3
v 0.4 0.9 -0.3
v -0.6 0 -0.4
v -0.6 0.2 -0.4
v -0.4 0.3 -0.4
v -0.4 0.8 -0.4
v 0.3 0.3 -0.4
v 0.3 0.8 -0.4
v 0.5 0 -0.4
v 0.5 0.2 -0.4
v -0.6 0 0.5
v 0.5 0 0.5
v -0.6 0 -0.4
v 0.5 0 -0.4
v -0.6 0.2 0.5
v 0.5 0.2 0.5
v -0.6 0.2 0.4
v 0.5 0.2 0.4
v -0.4 0.3 -0.3
v 0.3 0.3 -0.3
v -0.4 0.3 -0.4
v 0.3 0.3 -0.4
v -0.5 0.9 0.5
v 0.4 0.9 0.5
v -0.5 0.9 0.4
v -0.3 0.9 0.4
v 0.2 0.9 0.4
v 0.4 0.9 0.4
v -0.6 0.1 0.5
v 0.5 0.1 0.5
v -0.6 0.1 0.4
v 0.5 0.1 0.4
v -0.6 0.2 0
v -0.5 0.2 0
v 0.4 0.2 0
v 0.5 0.2 0
v -0.5 0.2 -0.3
v -0.4 0.2 -0.3
v 0.3 0.2 -0.3
v 0.4 0.2 -0.3
v -0.6 0.2 -0.4
v 0.5 0.2 -0.4
v -0.5 0.3 0.5
v 0.4 0.3 0.5
v -0.5 0.3 0.4
v -0.3 0.3 0.4
v 0.2 0.3 0.4
v 0.4 0.3 0.4
v -0.4 0.8 -0.3
v 0.3 0.8 -0.3
v -0.4 0.8 -0.4
v 0.3 0.8 -0.4
v -0.5 0.9 0
v 0.4 0.9 0
v -0.5 0.9 -0.3
v 0.4 0.9 -0.3
v -0.6 1 0.5
v 0.5 1 0.5
v -0.6 1 0
v 0.5 1 0

# faces
f 3/2/1 2/2/1 1/2/1
f 4/2/1 2/2/1 3/2/1
f 5/2/1 2/2/1 4/2/1
f 7/1/1 5/1/1 4/1/1
f 8/2/1 2/2/1 5/2/1
f 8/1/1 5/1/1 7/1/1
f 9/2/1 2/2/1 8/2/1
f 10/2/1 2/2/1 9/2/1
f 11/2/1 7/2/1 6/2/1
f 11/2/1 8/2/1 7/2/1
f 11/2/1 9/2/1 8/2/1
f 12/2/1 9/2/1 11/2/1
f 15/2/1 14/2/1 13/2/1
f 16/2/1 14/2/1 15/2/1
f 19/2/1 18/2/1 17/2/1
f 20/2/1 18/2/1 19/2/1
f 23/2/1 22/2/1 21/2/1
f 24/2/1 23/2/1 21/2/1
f 25/2/1 24/2/1 21/2/1
f 26/2/1 24/2/1 25/2/1
f 27/2/2 28/2/2 29/2/2
f 27/2/2 29/2/2 30/2/2
f 27/2/2 30/2/2 31/2/2
f 31/2/2 30/2/2 32/2/2
f 33/2/2 34/2/2 35/2/2
f 35/2/2 34/2/2 36/2/2
f 37/2/2 38/2/2 39/2/2
f 39/2/2 38/2/2 40/2/2
f 41/2/2 42/2/2 43/2/2
f 43/2/2 42/2/2 44/2/2
f 44/2/2 42/2/2 45/2/2
f 44/1/2 45/1/2 47/1/2
f 45/2/2 42/2/2 48/2/2
f 47/1/2 45/1/2 48/1/2
f 48/2/2 42/2/2 49/2/2
f 49/2/2 42/2/2 50/2/2
f 46/2/2 47/2/2 51/2/2
f 47/2/2 48/2/2 51/2/2
f 48/2/2 49/2/2 51/2/2
f 51/2/2 49/2/2 52/2/2
f 57/2/3 56/2/3 55/2/3
f 58/2/3 56/2/3 57/2/3
f 59/2/3 57/2/3 55/2/3
f 60/2/3 56/2/3 58/2/3
f 61/2/3 54/2/3 53/2/3
f 62/2/3 54/2/3 61/2/3
f 63/2/3 60/2/3 59/2/3
f 63/2/3 59/2/3 55/2/3
f 64/2/3 56/2/3 60/2/3
f 64/2/3 60/2/3 63/2/3
f 71/4/3 68/4/3 67/4/3
f 72/3/3 69/3/3 68/3/3
f 72/4/3 68/4/3 71/4/3
f 73/4/3 70/4/3 69/4/3
f 73/3/3 69/3/3 72/3/3
f 74/4/3 70/4/3 73/4/3
f 75/4/3 71/4/3 67/4/3
f 76/3/3 72/3/3 71/3/3
f 76/4/3 71/4/3 75/4/3
f 76/3/3 73/3/3 72/3/3
f 76/3/3 74/3/3 73/3/3
f 77/4/3 70/4/3 74/4/3
f 77/3/3 74/3/3 76/3/3
f 78/4/3 70/4/3 77/4/3
f 79/3/3 76/3/3 75/3/3
f 79/3/3 77/3/3 76/3/3
f 79/3/3 78/3/3 77/3/3
f 80/3/3 78/3/3 79/3/3
f 81/3/3 78/3/3 80/3/3
f 82/3/3 78/3/3 81/3/3
f 83/4/3 80/4/3 79/4/3
f 83/3/3 81/3/3 80/3/3
f 84/3/3 81/3/3 83/3/3
f 85/3/3 81/3/3 84/3/3
f 86/4/3 82/4/3 81/4/3
f 86/3/3 81/3/3 85/3/3
f 87/4/3 83/4/3 79/4/3
f 87/4/3 84/4/3 83/4/3
f 88/3/3 85/3/3 84/3/3
f 88/4/3 84/4/3 87/4/3
f 89/4/3 86/4/3 85/4/3
f 89/3/3 85/3/3 88/3/3
f 90/4/3 82/4/3 86/4/3
f 90/4/3 86/4/3 89/4/3
f 91/1/3 66/1/3 65/1/3
f 92/1/3 66/1/3 91/1/3
f 93/2/4 94/2/4 95/2/4
f 95/2/4 94/2/4 96/2/4
f 96/2/4 94/2/4 98/2/4
f 97/2/4 98/2/4 99/2/4
f 98/2/4 94/2/4 100/2/4
f 99/2/4 98/2/4 100/2/4
f 101/2/4 102/2/4 103/2/4
f 103/2/4 102/2/4 104/2/4
f 104/2/4 102/2/4 105/2/4
f 103/1/4 104/1/4 106/1/4
f 106/1/4 104/1/4 107/1/4
f 105/2/4 102/2/4 108/2/4
f 106/2/4 107/2/4 109/2/4
f 107/2/4 108/2/4 109/2/4
f 108/2/4 102/2/4 110/2/4
f 109/2/4 108/2/4 110/2/4
f 113/2/4 114/2/4 115/2/4
f 115/2/4 114/2/4 116/2/4
f 111/2/4 112/2/4 117/2/4
f 117/2/4 112/2/4 118/2/4
f 121/2/5 120/2/5 119/2/5
f 122/2/5 120/2/5 121/2/5
f 125/2/5 124/2/5 123/2/5
f 126/2/5 124/2/5 125/2/5
f 129/2/5 128/2/5 127/2/5
f 130/2/5 128/2/5 129/2/5
f 133/2/5 132/2/5 131/2/5
f 134/2/5 132/2/5 133/2/5
f 135/2/5 132/2/5 134/2/5
f 136/2/5 132/2/5 135/2/5
f 137/2/6 138/2/6 139/2/6
f 139/2/6 138/2/6 140/2/6
f 141/2/6 142/2/6 145/2/6
f 143/2/6 144/2/6 148/2/6
f 146/2/6 147/2/6 149/2/6
f 147/2/6 148/2/6 149/2/6
f 141/2/6 145/2/6 149/2/6
f 145/2/6 146/2/6 149/2/6
f 148/2/6 144/2/6 150/2/6
f 149/2/6 148/2/6 150/2/6
f 151/2/6 152/2/6 153/2/6
f 153/2/6 152/2/6 154/2/6
f 154/2/6 152/2/6 155/2/6
f 155/2/6 152/2/6 156/2/6
f 157/2/6 158/2/6 159/2/6
f 159/2/6 158/2/6 160/2/6
f 161/2/6 162/2/6 163/2/6
f 163/2/6 162/2/6 164/2/6
f 165/2/6 166/2/6 167/2/6
f 167/2/6 166/2/6 168/2/6
